<svg width="124" height="62" viewBox="0 0 124 62" fill="none" xmlns="http://www.w3.org/2000/svg">
    <path d="M62.0003 0.0390625C28.2603 0.0390625 0.90625 13.9011 0.90625 31.0001C0.90625 48.0991 28.2603 61.9611 62.0003 61.9611C95.7403 61.9611 123.094 48.0991 123.094 31.0001C123.094 13.9011 95.7403 0.0390625 62.0003 0.0390625V0.0390625ZM46.1033 37.0321C44.6453 38.3961 43.0263 38.9591 41.2433 39.5391C39.4603 40.1201 37.1913 40.0001 34.4323 40.0001H28.1793L26.4462 50.0001H19.1453L25.6602 16.0001H39.7003C43.9243 16.0001 47.0053 17.2151 48.9423 19.4321C50.8793 21.6491 51.4613 24.7961 50.6893 28.7691C50.3703 30.4061 49.8333 31.9281 49.0753 33.2841C48.3163 34.6411 47.3253 35.9081 46.1033 37.0321V37.0321ZM67.4143 40.0001L70.2952 25.5801C70.6232 23.8921 70.5032 22.6381 69.9342 22.0251C69.3642 21.4111 68.1523 21.0001 66.2993 21.0001H60.5093L56.7783 40.0001H49.5343L56.0493 7.00006H63.2933L61.5613 16.0001H68.0143C72.0753 16.0001 74.8753 16.8151 76.4163 18.2311C77.9573 19.6471 78.4193 21.5871 77.8033 24.7591L74.7723 40.0001H67.4143V40.0001ZM107.673 28.8221C107.355 30.4591 106.817 31.9551 106.06 33.3101C105.302 34.6671 104.312 35.9081 103.089 37.0321C101.631 38.3961 100.011 38.9591 98.2292 39.5391C96.4472 40.1201 94.1763 40.0001 91.4173 40.0001H85.1643L83.4323 50.0001H76.1312L82.6452 16.0001H96.6862C100.91 16.0001 103.991 17.2151 105.927 19.4321C107.862 21.6491 108.445 24.8501 107.673 28.8221V28.8221ZM93.9193 21.0001H88.9183L86.1913 35.0001H90.6333C93.5753 35.0001 95.7693 34.7101 97.2093 33.6001C98.6513 32.4921 99.6223 30.7721 100.127 28.1791C100.611 25.6881 100.391 23.7451 99.4673 22.7211C98.5423 21.6971 96.6933 21.0001 93.9193 21.0001V21.0001ZM36.9342 21.0001H31.9322L29.2052 35.0001H33.6463C36.5893 35.0001 38.7823 34.7101 40.2233 33.6001C41.6643 32.4921 42.6363 30.7721 43.1403 28.1791C43.6243 25.6881 43.4043 23.7451 42.4803 22.7211C41.5563 21.6971 39.7082 21.0001 36.9342 21.0001Z" fill="#6181B6"/>
</svg>
