<svg width="222" height="222" viewBox="0 0 222 222" fill="none" xmlns="http://www.w3.org/2000/svg">
    <path d="M110.185 221.997C51.0324 221.589 -0.396391 172.499 0.00230279 110.131C0.386028 50.1186 50.2554 -0.408289 111.963 0.00248719C171.935 0.401022 222.532 50.1825 221.996 111.169C222.492 171.602 171.647 222.424 110.185 221.997ZM110.185 221.997C51.0324 221.589 -0.396391 172.499 0.00230279 110.131C0.386028 50.1186 50.2554 -0.408289 111.963 0.00248719C171.935 0.401022 222.532 50.1825 221.996 111.169C222.492 171.602 171.647 222.424 110.185 221.997Z" fill="#49A32B"/>
    <path d="M152.327 110.956C152.043 116.246 147.421 120.639 142.866 119.873C142.844 119.873 142.821 119.873 142.798 119.873C137.753 119.879 133.658 115.794 133.653 110.749C133.825 105.69 138.02 101.703 143.08 101.789C148.125 101.814 152.6 106.077 152.327 110.956ZM71.2012 162.22C73.1035 162.276 75.0071 162.235 77.2009 162.235V176.021C63.5661 178.326 52.3348 174.455 49.5787 162.93C48.6351 158.692 48.055 154.381 47.8426 150.044C47.5498 145.452 48.0563 140.809 47.7064 136.225C46.7369 123.613 45.1028 119.307 33 118.711V103.015C33.8674 102.812 34.7471 102.662 35.6322 102.563C42.2677 102.236 45.0647 100.201 46.5489 93.6653C47.2243 89.9928 47.6247 86.2753 47.7431 82.5429C48.2688 75.3259 48.0822 67.9917 49.2846 60.8918C51.0221 50.6246 57.3963 45.6367 67.9249 45.0784C70.9207 44.9177 73.926 45.0539 77.3207 45.0539V59.1448C75.9236 59.2442 74.6436 59.4471 73.3717 59.4089C64.7917 59.1461 64.3477 62.0683 63.7214 69.171C63.3306 73.6251 63.8698 78.1555 63.5661 82.6246C63.2488 87.0719 62.6538 91.4961 61.785 95.8699C60.5472 102.209 56.65 106.923 51.2495 110.923C61.7333 117.746 62.9261 128.346 63.607 139.111C63.9733 144.895 63.8058 150.721 64.3927 156.477C64.8502 160.944 66.5877 162.084 71.2012 162.22ZM80.0373 101.789C80.0917 101.789 80.1448 101.789 80.1993 101.789C85.2117 101.872 89.2097 106.002 89.1266 111.016C89.1266 111.181 89.1212 111.344 89.1117 111.508C88.8298 116.407 84.6303 120.149 79.7309 119.867C79.5334 119.871 79.3374 119.867 79.1399 119.858C74.1506 119.61 70.3066 115.364 70.5544 110.375C70.8022 105.385 75.048 101.541 80.0373 101.789ZM111.273 101.789C116.756 101.747 120.397 105.3 120.425 110.719C120.455 116.285 117.003 119.845 111.557 119.868C106.017 119.893 102.371 116.389 102.341 111.002C102.324 110.727 102.32 110.452 102.328 110.177C102.482 105.391 106.487 101.635 111.273 101.789ZM176.673 94.9235C178.132 100.37 180.971 102.285 186.705 102.546C187.644 102.59 188.58 102.749 189.868 102.892V118.584C189.171 118.813 188.456 118.985 187.73 119.096C180.046 119.574 176.544 122.727 175.768 130.431C175.272 135.35 175.313 140.323 174.972 145.259C174.829 150.678 174.337 156.083 173.496 161.439C171.535 171.142 165.477 175.983 155.467 176.574C152.246 176.765 149.001 176.604 145.527 176.604V162.578C147.397 162.463 149.047 162.303 150.701 162.264C156.682 162.121 158.797 160.193 159.09 154.253C159.414 147.728 159.555 141.194 159.847 134.667C160.27 125.234 162.853 116.806 171.642 110.922C166.613 107.337 162.575 102.994 161.53 97.139C160.265 90.0418 159.856 82.788 159.175 75.5914C158.839 71.9938 158.855 68.3648 158.504 64.77C158.125 60.8891 155.459 59.5465 151.927 59.4593C149.903 59.4103 147.872 59.4498 145.285 59.4498V45.7538C161.794 43.0127 173.198 48.5058 174.258 64.3015C174.701 70.9344 174.636 77.5985 175.061 84.2314C175.247 87.8399 175.787 91.4212 176.673 94.9235Z" fill="white"/>
</svg>
