<svg width="603" height="396" viewBox="0 0 603 396" fill="none" xmlns="http://www.w3.org/2000/svg">
  <path fill-rule="evenodd" clip-rule="evenodd"
    d="M303.444 262.875C313.078 262.875 320.887 255.04 320.887 245.375C320.887 235.71 313.078 227.875 303.444 227.875C293.81 227.875 286 235.71 286 245.375C286 255.04 293.81 262.875 303.444 262.875ZM301.48 255.451H305.407V252.703H301.48V255.451ZM301.48 250.871H305.407C305.407 249.596 306.464 248.32 307.598 246.953C308.906 245.375 310.316 243.675 310.316 241.711C310.316 238.176 307.233 235.299 303.444 235.299C299.655 235.299 296.572 238.176 296.572 241.711C296.572 243.675 297.982 245.375 299.29 246.953C300.423 248.32 301.48 249.596 301.48 250.871Z"
    fill="#687384" />
  <path
    d="M178.977 291.188H179.852L181.496 295.574L183.137 291.188H184.012L181.84 296.875H181.145L178.977 291.188ZM178.578 291.188H179.41L179.555 294.985V296.875H178.578V291.188ZM183.578 291.188H184.414V296.875H183.434V294.985L183.578 291.188ZM186.711 296.414L187.859 292.649H188.867L187.172 297.52C187.133 297.624 187.082 297.737 187.02 297.86C186.957 297.982 186.875 298.098 186.773 298.207C186.674 298.319 186.551 298.409 186.402 298.477C186.254 298.547 186.074 298.582 185.863 298.582C185.78 298.582 185.699 298.574 185.621 298.559C185.546 298.546 185.474 298.531 185.406 298.516L185.402 297.797C185.428 297.8 185.46 297.802 185.496 297.805C185.535 297.808 185.566 297.809 185.59 297.809C185.746 297.809 185.876 297.789 185.98 297.75C186.085 297.714 186.169 297.654 186.234 297.571C186.302 297.487 186.359 297.375 186.406 297.235L186.711 296.414ZM186.062 292.649L187.066 295.813L187.234 296.805L186.582 296.973L185.047 292.649H186.062ZM193.781 296.028V294.012C193.781 293.861 193.754 293.731 193.699 293.621C193.645 293.512 193.561 293.427 193.449 293.367C193.34 293.308 193.202 293.278 193.035 293.278C192.882 293.278 192.749 293.304 192.637 293.356C192.525 293.408 192.438 293.478 192.375 293.567C192.312 293.655 192.281 293.755 192.281 293.867H191.344C191.344 293.701 191.384 293.539 191.465 293.383C191.546 293.227 191.663 293.087 191.816 292.965C191.97 292.843 192.154 292.746 192.367 292.676C192.581 292.606 192.82 292.571 193.086 292.571C193.404 292.571 193.685 292.624 193.93 292.731C194.177 292.837 194.371 292.999 194.512 293.215C194.655 293.429 194.727 293.697 194.727 294.02V295.899C194.727 296.091 194.74 296.265 194.766 296.418C194.794 296.569 194.835 296.701 194.887 296.813V296.875H193.922C193.878 296.774 193.842 296.645 193.816 296.489C193.793 296.33 193.781 296.176 193.781 296.028ZM193.918 294.305L193.926 294.887H193.25C193.076 294.887 192.922 294.904 192.789 294.938C192.656 294.969 192.546 295.016 192.457 295.078C192.368 295.141 192.302 295.216 192.258 295.305C192.214 295.393 192.191 295.494 192.191 295.606C192.191 295.718 192.217 295.821 192.27 295.914C192.322 296.005 192.397 296.077 192.496 296.129C192.598 296.181 192.72 296.207 192.863 296.207C193.056 296.207 193.224 296.168 193.367 296.09C193.513 296.009 193.628 295.912 193.711 295.797C193.794 295.68 193.839 295.569 193.844 295.465L194.148 295.883C194.117 295.99 194.064 296.104 193.988 296.227C193.913 296.349 193.814 296.466 193.691 296.578C193.572 296.688 193.427 296.778 193.258 296.848C193.091 296.918 192.898 296.953 192.68 296.953C192.404 296.953 192.158 296.899 191.941 296.789C191.725 296.677 191.556 296.528 191.434 296.34C191.311 296.15 191.25 295.935 191.25 295.696C191.25 295.472 191.292 295.274 191.375 295.102C191.461 294.927 191.586 294.781 191.75 294.664C191.917 294.547 192.12 294.459 192.359 294.399C192.599 294.336 192.872 294.305 193.18 294.305H193.918ZM196.656 293.461V298.5H195.715V292.649H196.582L196.656 293.461ZM199.41 294.723V294.805C199.41 295.112 199.374 295.397 199.301 295.66C199.23 295.921 199.125 296.149 198.984 296.344C198.846 296.537 198.676 296.686 198.473 296.793C198.27 296.9 198.035 296.953 197.77 296.953C197.507 296.953 197.276 296.905 197.078 296.809C196.883 296.71 196.717 296.571 196.582 296.391C196.447 296.211 196.337 296 196.254 295.758C196.173 295.513 196.116 295.245 196.082 294.953V294.637C196.116 294.327 196.173 294.046 196.254 293.793C196.337 293.541 196.447 293.323 196.582 293.141C196.717 292.959 196.883 292.818 197.078 292.719C197.273 292.62 197.501 292.571 197.762 292.571C198.027 292.571 198.263 292.623 198.469 292.727C198.674 292.828 198.848 292.974 198.988 293.164C199.129 293.352 199.234 293.578 199.305 293.844C199.375 294.107 199.41 294.4 199.41 294.723ZM198.469 294.805V294.723C198.469 294.528 198.451 294.347 198.414 294.18C198.378 294.011 198.32 293.862 198.242 293.735C198.164 293.607 198.064 293.508 197.941 293.438C197.822 293.365 197.677 293.328 197.508 293.328C197.341 293.328 197.198 293.357 197.078 293.414C196.958 293.469 196.858 293.546 196.777 293.645C196.697 293.744 196.634 293.86 196.59 293.992C196.546 294.123 196.514 294.265 196.496 294.418V295.176C196.527 295.364 196.581 295.535 196.656 295.692C196.732 295.848 196.839 295.973 196.977 296.067C197.117 296.158 197.297 296.203 197.516 296.203C197.685 296.203 197.829 296.167 197.949 296.094C198.069 296.021 198.167 295.921 198.242 295.793C198.32 295.663 198.378 295.513 198.414 295.344C198.451 295.175 198.469 294.995 198.469 294.805ZM201.156 293.461V298.5H200.215V292.649H201.082L201.156 293.461ZM203.91 294.723V294.805C203.91 295.112 203.874 295.397 203.801 295.66C203.73 295.921 203.625 296.149 203.484 296.344C203.346 296.537 203.176 296.686 202.973 296.793C202.77 296.9 202.535 296.953 202.27 296.953C202.007 296.953 201.776 296.905 201.578 296.809C201.383 296.71 201.217 296.571 201.082 296.391C200.947 296.211 200.837 296 200.754 295.758C200.673 295.513 200.616 295.245 200.582 294.953V294.637C200.616 294.327 200.673 294.046 200.754 293.793C200.837 293.541 200.947 293.323 201.082 293.141C201.217 292.959 201.383 292.818 201.578 292.719C201.773 292.62 202.001 292.571 202.262 292.571C202.527 292.571 202.763 292.623 202.969 292.727C203.174 292.828 203.348 292.974 203.488 293.164C203.629 293.352 203.734 293.578 203.805 293.844C203.875 294.107 203.91 294.4 203.91 294.723ZM202.969 294.805V294.723C202.969 294.528 202.951 294.347 202.914 294.18C202.878 294.011 202.82 293.862 202.742 293.735C202.664 293.607 202.564 293.508 202.441 293.438C202.322 293.365 202.177 293.328 202.008 293.328C201.841 293.328 201.698 293.357 201.578 293.414C201.458 293.469 201.358 293.546 201.277 293.645C201.197 293.744 201.134 293.86 201.09 293.992C201.046 294.123 201.014 294.265 200.996 294.418V295.176C201.027 295.364 201.081 295.535 201.156 295.692C201.232 295.848 201.339 295.973 201.477 296.067C201.617 296.158 201.797 296.203 202.016 296.203C202.185 296.203 202.329 296.167 202.449 296.094C202.569 296.021 202.667 295.921 202.742 295.793C202.82 295.663 202.878 295.513 202.914 295.344C202.951 295.175 202.969 294.995 202.969 294.805Z"
    fill="#374760" />
  <path
    d="M488.5 218.875C494.851 218.875 500 213.727 500 207.375C500 201.024 494.851 195.875 488.5 195.875C482.149 195.875 477 201.024 477 207.375C477 213.727 482.149 218.875 488.5 218.875Z"
    fill="#687384" />
  <path
    d="M149 58.8752C153.971 58.8752 158 54.8458 158 49.8752C158 44.9047 153.971 40.8752 149 40.8752C144.029 40.8752 140 44.9047 140 49.8752C140 54.8458 144.029 58.8752 149 58.8752Z"
    fill="#687384" />
  <path
    d="M114.217 106.775C121.961 114.531 121.875 127.188 114.006 135.044C106.138 142.901 93.4809 142.966 85.7368 135.209C77.9927 127.453 78.0782 114.796 85.9471 106.94C93.8159 99.0838 106.473 99.0185 114.217 106.775Z"
    stroke="#687384" />
  <line x1="120.24" y1="123.275" x2="192.001" y2="123.375" stroke="#687384" />
  <line x1="189.66" y1="232.882" x2="213.083" y2="181.667" stroke="#687384" />
  <line x1="454.671" y1="259.561" x2="408.183" y2="190.153" stroke="#687384" />
  <line x1="524.932" y1="136.495" x2="436.933" y2="124.416" stroke="#687384" />
  <circle cx="545.774" cy="139.932" r="21.063" transform="rotate(-123.447 545.774 139.932)"
    stroke="#687384" />
  <g filter="url(#filter0_d_737_1407)">
    <rect x="183" y="64.1245" width="263" height="126" rx="20" fill="#374760" />
    <rect x="183.5" y="64.6245" width="262" height="125" rx="19.5" stroke="#687384" />
  </g>
  <path
    d="M321.184 113.913H324.688C324.617 115.061 324.301 116.081 323.738 116.971C323.184 117.862 322.406 118.557 321.406 119.057C320.414 119.557 319.219 119.807 317.82 119.807C316.727 119.807 315.746 119.62 314.879 119.245C314.012 118.862 313.27 118.315 312.652 117.604C312.043 116.893 311.578 116.034 311.258 115.026C310.938 114.018 310.777 112.889 310.777 111.639V110.456C310.777 109.206 310.941 108.077 311.27 107.069C311.605 106.053 312.082 105.19 312.699 104.479C313.324 103.768 314.07 103.221 314.938 102.838C315.805 102.456 316.773 102.264 317.844 102.264C319.266 102.264 320.465 102.522 321.441 103.038C322.426 103.553 323.188 104.264 323.727 105.17C324.273 106.077 324.602 107.108 324.711 108.264H321.195C321.156 107.577 321.02 106.995 320.785 106.518C320.551 106.034 320.195 105.67 319.719 105.428C319.25 105.178 318.625 105.053 317.844 105.053C317.258 105.053 316.746 105.163 316.309 105.381C315.871 105.6 315.504 105.932 315.207 106.378C314.91 106.823 314.688 107.385 314.539 108.065C314.398 108.737 314.328 109.526 314.328 110.432V111.639C314.328 112.522 314.395 113.299 314.527 113.971C314.66 114.635 314.863 115.198 315.137 115.659C315.418 116.112 315.777 116.456 316.215 116.69C316.66 116.917 317.195 117.03 317.82 117.03C318.555 117.03 319.16 116.913 319.637 116.678C320.113 116.444 320.477 116.096 320.727 115.635C320.984 115.174 321.137 114.6 321.184 113.913ZM326.246 113.362V113.116C326.246 112.186 326.379 111.331 326.645 110.549C326.91 109.76 327.297 109.077 327.805 108.499C328.312 107.92 328.938 107.471 329.68 107.151C330.422 106.823 331.273 106.659 332.234 106.659C333.195 106.659 334.051 106.823 334.801 107.151C335.551 107.471 336.18 107.92 336.688 108.499C337.203 109.077 337.594 109.76 337.859 110.549C338.125 111.331 338.258 112.186 338.258 113.116V113.362C338.258 114.284 338.125 115.139 337.859 115.928C337.594 116.71 337.203 117.393 336.688 117.979C336.18 118.557 335.555 119.006 334.812 119.327C334.07 119.647 333.219 119.807 332.258 119.807C331.297 119.807 330.441 119.647 329.691 119.327C328.949 119.006 328.32 118.557 327.805 117.979C327.297 117.393 326.91 116.71 326.645 115.928C326.379 115.139 326.246 114.284 326.246 113.362ZM329.621 113.116V113.362C329.621 113.893 329.668 114.389 329.762 114.85C329.855 115.311 330.004 115.717 330.207 116.069C330.418 116.413 330.691 116.682 331.027 116.878C331.363 117.073 331.773 117.17 332.258 117.17C332.727 117.17 333.129 117.073 333.465 116.878C333.801 116.682 334.07 116.413 334.273 116.069C334.477 115.717 334.625 115.311 334.719 114.85C334.82 114.389 334.871 113.893 334.871 113.362V113.116C334.871 112.6 334.82 112.116 334.719 111.663C334.625 111.202 334.473 110.795 334.262 110.444C334.059 110.085 333.789 109.803 333.453 109.6C333.117 109.397 332.711 109.295 332.234 109.295C331.758 109.295 331.352 109.397 331.016 109.6C330.688 109.803 330.418 110.085 330.207 110.444C330.004 110.795 329.855 111.202 329.762 111.663C329.668 112.116 329.621 112.6 329.621 113.116ZM343.637 109.6V119.573H340.262V106.893H343.426L343.637 109.6ZM343.145 112.788H342.23C342.23 111.85 342.352 111.006 342.594 110.256C342.836 109.499 343.176 108.854 343.613 108.323C344.051 107.784 344.57 107.374 345.172 107.092C345.781 106.803 346.461 106.659 347.211 106.659C347.805 106.659 348.348 106.745 348.84 106.917C349.332 107.088 349.754 107.362 350.105 107.737C350.465 108.112 350.738 108.608 350.926 109.225C351.121 109.842 351.219 110.596 351.219 111.487V119.573H347.82V111.475C347.82 110.913 347.742 110.475 347.586 110.163C347.43 109.85 347.199 109.631 346.895 109.506C346.598 109.374 346.23 109.307 345.793 109.307C345.34 109.307 344.945 109.397 344.609 109.577C344.281 109.756 344.008 110.006 343.789 110.327C343.578 110.639 343.418 111.006 343.309 111.428C343.199 111.85 343.145 112.303 343.145 112.788ZM359.996 106.893V109.284H352.613V106.893H359.996ZM354.441 103.764H357.816V115.753C357.816 116.12 357.863 116.401 357.957 116.596C358.059 116.792 358.207 116.928 358.402 117.006C358.598 117.077 358.844 117.112 359.141 117.112C359.352 117.112 359.539 117.104 359.703 117.088C359.875 117.065 360.02 117.042 360.137 117.018L360.148 119.503C359.859 119.596 359.547 119.67 359.211 119.725C358.875 119.78 358.504 119.807 358.098 119.807C357.355 119.807 356.707 119.686 356.152 119.444C355.605 119.194 355.184 118.795 354.887 118.249C354.59 117.702 354.441 116.983 354.441 116.092V103.764ZM367.754 119.807C366.77 119.807 365.887 119.651 365.105 119.338C364.324 119.018 363.66 118.577 363.113 118.014C362.574 117.452 362.16 116.799 361.871 116.057C361.582 115.307 361.438 114.51 361.438 113.667V113.198C361.438 112.237 361.574 111.358 361.848 110.561C362.121 109.764 362.512 109.073 363.02 108.487C363.535 107.901 364.16 107.452 364.895 107.139C365.629 106.819 366.457 106.659 367.379 106.659C368.277 106.659 369.074 106.807 369.77 107.104C370.465 107.401 371.047 107.823 371.516 108.37C371.992 108.917 372.352 109.573 372.594 110.338C372.836 111.096 372.957 111.94 372.957 112.87V114.276H362.879V112.026H369.641V111.768C369.641 111.299 369.555 110.881 369.383 110.514C369.219 110.139 368.969 109.842 368.633 109.624C368.297 109.405 367.867 109.295 367.344 109.295C366.898 109.295 366.516 109.393 366.195 109.588C365.875 109.784 365.613 110.057 365.41 110.409C365.215 110.76 365.066 111.174 364.965 111.651C364.871 112.12 364.824 112.635 364.824 113.198V113.667C364.824 114.174 364.895 114.643 365.035 115.073C365.184 115.503 365.391 115.874 365.656 116.186C365.93 116.499 366.258 116.741 366.641 116.913C367.031 117.085 367.473 117.17 367.965 117.17C368.574 117.17 369.141 117.053 369.664 116.819C370.195 116.577 370.652 116.213 371.035 115.729L372.676 117.51C372.41 117.893 372.047 118.26 371.586 118.612C371.133 118.963 370.586 119.253 369.945 119.479C369.305 119.698 368.574 119.807 367.754 119.807ZM377.598 106.893L379.695 110.749L381.852 106.893H385.449L381.863 113.092L385.613 119.573H382.004L379.719 115.495L377.434 119.573H373.824L377.574 113.092L373.988 106.893H377.598ZM393.301 106.893V109.284H385.918V106.893H393.301ZM387.746 103.764H391.121V115.753C391.121 116.12 391.168 116.401 391.262 116.596C391.363 116.792 391.512 116.928 391.707 117.006C391.902 117.077 392.148 117.112 392.445 117.112C392.656 117.112 392.844 117.104 393.008 117.088C393.18 117.065 393.324 117.042 393.441 117.018L393.453 119.503C393.164 119.596 392.852 119.67 392.516 119.725C392.18 119.78 391.809 119.807 391.402 119.807C390.66 119.807 390.012 119.686 389.457 119.444C388.91 119.194 388.488 118.795 388.191 118.249C387.895 117.702 387.746 116.983 387.746 116.092V103.764ZM404.762 106.893V119.573H401.375V106.893H404.762ZM401.164 103.588C401.164 103.096 401.336 102.69 401.68 102.37C402.023 102.049 402.484 101.889 403.062 101.889C403.633 101.889 404.09 102.049 404.434 102.37C404.785 102.69 404.961 103.096 404.961 103.588C404.961 104.081 404.785 104.487 404.434 104.807C404.09 105.128 403.633 105.288 403.062 105.288C402.484 105.288 402.023 105.128 401.68 104.807C401.336 104.487 401.164 104.081 401.164 103.588ZM414.406 116.069C414.406 115.827 414.336 115.608 414.195 115.413C414.055 115.217 413.793 115.038 413.41 114.874C413.035 114.702 412.492 114.545 411.781 114.405C411.141 114.264 410.543 114.088 409.988 113.878C409.441 113.659 408.965 113.397 408.559 113.092C408.16 112.788 407.848 112.428 407.621 112.014C407.395 111.592 407.281 111.112 407.281 110.573C407.281 110.042 407.395 109.542 407.621 109.073C407.855 108.604 408.188 108.19 408.617 107.831C409.055 107.463 409.586 107.178 410.211 106.975C410.844 106.764 411.555 106.659 412.344 106.659C413.445 106.659 414.391 106.835 415.18 107.186C415.977 107.538 416.586 108.022 417.008 108.639C417.438 109.249 417.652 109.944 417.652 110.725H414.277C414.277 110.397 414.207 110.104 414.066 109.846C413.934 109.581 413.723 109.374 413.434 109.225C413.152 109.069 412.785 108.991 412.332 108.991C411.957 108.991 411.633 109.057 411.359 109.19C411.086 109.315 410.875 109.487 410.727 109.706C410.586 109.917 410.516 110.151 410.516 110.409C410.516 110.604 410.555 110.78 410.633 110.936C410.719 111.085 410.855 111.221 411.043 111.346C411.23 111.471 411.473 111.588 411.77 111.698C412.074 111.799 412.449 111.893 412.895 111.979C413.809 112.167 414.625 112.413 415.344 112.717C416.062 113.014 416.633 113.42 417.055 113.936C417.477 114.444 417.688 115.112 417.688 115.94C417.688 116.503 417.562 117.018 417.312 117.487C417.062 117.956 416.703 118.366 416.234 118.717C415.766 119.061 415.203 119.331 414.547 119.526C413.898 119.713 413.168 119.807 412.355 119.807C411.176 119.807 410.176 119.596 409.355 119.174C408.543 118.753 407.926 118.217 407.504 117.569C407.09 116.913 406.883 116.241 406.883 115.553H410.082C410.098 116.014 410.215 116.385 410.434 116.667C410.66 116.948 410.945 117.151 411.289 117.276C411.641 117.401 412.02 117.463 412.426 117.463C412.863 117.463 413.227 117.405 413.516 117.288C413.805 117.163 414.023 116.999 414.172 116.795C414.328 116.585 414.406 116.342 414.406 116.069ZM317.293 134.893V137.284H309.91V134.893H317.293ZM311.738 131.764H315.113V143.753C315.113 144.12 315.16 144.401 315.254 144.596C315.355 144.792 315.504 144.928 315.699 145.006C315.895 145.077 316.141 145.112 316.438 145.112C316.648 145.112 316.836 145.104 317 145.088C317.172 145.065 317.316 145.042 317.434 145.018L317.445 147.503C317.156 147.596 316.844 147.67 316.508 147.725C316.172 147.78 315.801 147.807 315.395 147.807C314.652 147.807 314.004 147.686 313.449 147.444C312.902 147.194 312.48 146.795 312.184 146.249C311.887 145.702 311.738 144.983 311.738 144.092V131.764ZM322.508 129.573V147.573H319.133V129.573H322.508ZM322.027 140.788H321.102C321.109 139.905 321.227 139.092 321.453 138.35C321.68 137.6 322.004 136.952 322.426 136.405C322.848 135.85 323.352 135.42 323.938 135.116C324.531 134.811 325.188 134.659 325.906 134.659C326.531 134.659 327.098 134.749 327.605 134.928C328.121 135.1 328.562 135.381 328.93 135.772C329.305 136.155 329.594 136.659 329.797 137.284C330 137.909 330.102 138.667 330.102 139.557V147.573H326.703V139.534C326.703 138.971 326.621 138.53 326.457 138.21C326.301 137.881 326.07 137.651 325.766 137.518C325.469 137.378 325.102 137.307 324.664 137.307C324.18 137.307 323.766 137.397 323.422 137.577C323.086 137.756 322.816 138.006 322.613 138.327C322.41 138.639 322.262 139.006 322.168 139.428C322.074 139.85 322.027 140.303 322.027 140.788ZM338.504 147.807C337.52 147.807 336.637 147.651 335.855 147.338C335.074 147.018 334.41 146.577 333.863 146.014C333.324 145.452 332.91 144.799 332.621 144.057C332.332 143.307 332.188 142.51 332.188 141.667V141.198C332.188 140.237 332.324 139.358 332.598 138.561C332.871 137.764 333.262 137.073 333.77 136.487C334.285 135.901 334.91 135.452 335.645 135.139C336.379 134.819 337.207 134.659 338.129 134.659C339.027 134.659 339.824 134.807 340.52 135.104C341.215 135.401 341.797 135.823 342.266 136.37C342.742 136.917 343.102 137.573 343.344 138.338C343.586 139.096 343.707 139.94 343.707 140.87V142.276H333.629V140.026H340.391V139.768C340.391 139.299 340.305 138.881 340.133 138.514C339.969 138.139 339.719 137.842 339.383 137.624C339.047 137.405 338.617 137.295 338.094 137.295C337.648 137.295 337.266 137.393 336.945 137.588C336.625 137.784 336.363 138.057 336.16 138.409C335.965 138.76 335.816 139.174 335.715 139.651C335.621 140.12 335.574 140.635 335.574 141.198V141.667C335.574 142.174 335.645 142.643 335.785 143.073C335.934 143.503 336.141 143.874 336.406 144.186C336.68 144.499 337.008 144.741 337.391 144.913C337.781 145.085 338.223 145.17 338.715 145.17C339.324 145.17 339.891 145.053 340.414 144.819C340.945 144.577 341.402 144.213 341.785 143.729L343.426 145.51C343.16 145.893 342.797 146.26 342.336 146.612C341.883 146.963 341.336 147.253 340.695 147.479C340.055 147.698 339.324 147.807 338.504 147.807ZM354.98 129.561V147.573H351.605V129.561H354.98ZM362.973 134.893L357.465 141.174L354.512 144.163L353.281 141.725L355.625 138.749L358.918 134.893H362.973ZM359.469 147.573L355.719 141.713L358.051 139.674L363.359 147.573H359.469ZM367.988 134.893V147.573H364.602V134.893H367.988ZM364.391 131.588C364.391 131.096 364.562 130.69 364.906 130.37C365.25 130.049 365.711 129.889 366.289 129.889C366.859 129.889 367.316 130.049 367.66 130.37C368.012 130.69 368.188 131.096 368.188 131.588C368.188 132.081 368.012 132.487 367.66 132.807C367.316 133.128 366.859 133.288 366.289 133.288C365.711 133.288 365.25 133.128 364.906 132.807C364.562 132.487 364.391 132.081 364.391 131.588ZM374.082 137.6V147.573H370.707V134.893H373.871L374.082 137.6ZM373.59 140.788H372.676C372.676 139.85 372.797 139.006 373.039 138.256C373.281 137.499 373.621 136.854 374.059 136.323C374.496 135.784 375.016 135.374 375.617 135.092C376.227 134.803 376.906 134.659 377.656 134.659C378.25 134.659 378.793 134.745 379.285 134.917C379.777 135.088 380.199 135.362 380.551 135.737C380.91 136.112 381.184 136.608 381.371 137.225C381.566 137.842 381.664 138.596 381.664 139.487V147.573H378.266V139.475C378.266 138.913 378.188 138.475 378.031 138.163C377.875 137.85 377.645 137.631 377.34 137.506C377.043 137.374 376.676 137.307 376.238 137.307C375.785 137.307 375.391 137.397 375.055 137.577C374.727 137.756 374.453 138.006 374.234 138.327C374.023 138.639 373.863 139.006 373.754 139.428C373.645 139.85 373.59 140.303 373.59 140.788ZM392.258 134.893H395.316V147.151C395.316 148.307 395.059 149.288 394.543 150.092C394.035 150.905 393.324 151.518 392.41 151.932C391.496 152.354 390.434 152.565 389.223 152.565C388.691 152.565 388.129 152.495 387.535 152.354C386.949 152.213 386.387 151.995 385.848 151.698C385.316 151.401 384.871 151.026 384.512 150.573L386 148.581C386.391 149.034 386.844 149.385 387.359 149.635C387.875 149.893 388.445 150.022 389.07 150.022C389.68 150.022 390.195 149.909 390.617 149.682C391.039 149.463 391.363 149.139 391.59 148.71C391.816 148.288 391.93 147.776 391.93 147.174V137.823L392.258 134.893ZM383.727 141.385V141.139C383.727 140.17 383.844 139.292 384.078 138.503C384.32 137.706 384.66 137.022 385.098 136.452C385.543 135.881 386.082 135.44 386.715 135.128C387.348 134.815 388.062 134.659 388.859 134.659C389.703 134.659 390.41 134.815 390.98 135.128C391.551 135.44 392.02 135.885 392.387 136.463C392.754 137.034 393.039 137.71 393.242 138.491C393.453 139.264 393.617 140.112 393.734 141.034V141.573C393.617 142.456 393.441 143.276 393.207 144.034C392.973 144.792 392.664 145.456 392.281 146.026C391.898 146.588 391.422 147.026 390.852 147.338C390.289 147.651 389.617 147.807 388.836 147.807C388.055 147.807 387.348 147.647 386.715 147.327C386.09 147.006 385.555 146.557 385.109 145.979C384.664 145.401 384.32 144.721 384.078 143.94C383.844 143.159 383.727 142.307 383.727 141.385ZM387.102 141.139V141.385C387.102 141.909 387.152 142.397 387.254 142.85C387.355 143.303 387.512 143.706 387.723 144.057C387.941 144.401 388.211 144.67 388.531 144.866C388.859 145.053 389.246 145.147 389.691 145.147C390.309 145.147 390.812 145.018 391.203 144.76C391.594 144.495 391.887 144.131 392.082 143.67C392.277 143.21 392.391 142.678 392.422 142.077V140.542C392.406 140.049 392.34 139.608 392.223 139.217C392.105 138.819 391.941 138.479 391.73 138.198C391.52 137.917 391.246 137.698 390.91 137.542C390.574 137.385 390.176 137.307 389.715 137.307C389.27 137.307 388.883 137.409 388.555 137.612C388.234 137.807 387.965 138.077 387.746 138.42C387.535 138.764 387.375 139.17 387.266 139.639C387.156 140.1 387.102 140.6 387.102 141.139ZM401.75 130.51L401.363 142.358H398.551L398.152 130.51H401.75ZM398.059 146.026C398.059 145.526 398.23 145.112 398.574 144.784C398.926 144.448 399.387 144.28 399.957 144.28C400.535 144.28 400.996 144.448 401.34 144.784C401.684 145.112 401.855 145.526 401.855 146.026C401.855 146.51 401.684 146.92 401.34 147.256C400.996 147.592 400.535 147.76 399.957 147.76C399.387 147.76 398.926 147.592 398.574 147.256C398.23 146.92 398.059 146.51 398.059 146.026Z"
    fill="#E66189" />
  <g clip-path="url(#clip0_737_1407)">
    <rect width="88.4869" height="88.4869" transform="translate(205 83.1245)" fill="#374760" />
    <path
      d="M290.685 127.368C290.094 126.549 289.308 125.89 288.399 125.451C287.499 125.04 286.51 124.863 285.523 124.935C285.238 124.933 284.963 124.828 284.749 124.64C284.525 124.454 284.38 124.191 284.344 123.902C284.325 123.755 284.325 123.607 284.344 123.46C284.395 123.314 284.47 123.177 284.565 123.054C284.657 122.937 284.769 122.837 284.897 122.759C285.031 122.743 285.167 122.743 285.302 122.759C286.859 122.618 288.424 122.939 289.8 123.681C290.685 118.704 290.943 112.62 289.063 110.445C287.182 108.269 281.91 107.643 276.859 107.716C277.117 108.857 277.117 110.041 276.859 111.182C276.838 111.328 276.784 111.467 276.701 111.588C276.618 111.71 276.508 111.811 276.38 111.883C276.252 111.937 276.114 111.966 275.974 111.966C275.835 111.966 275.697 111.937 275.569 111.883C275.436 111.917 275.296 111.917 275.163 111.883L275.052 111.551C275.032 111.416 275.032 111.28 275.052 111.145C275.015 111 275.015 110.848 275.052 110.703C275.315 109.462 275.172 108.17 274.647 107.016C274.181 105.884 273.367 104.928 272.324 104.288C271.281 103.661 270.073 103.365 268.858 103.44C267.645 103.542 266.489 104.004 265.54 104.767C264.798 105.425 264.218 106.245 263.844 107.163C263.471 108.086 263.332 109.087 263.438 110.076C263.546 111.064 263.888 112.011 264.434 112.841C264.993 113.647 265.739 114.305 266.609 114.759C266.821 114.929 266.976 115.161 267.052 115.422C267.145 115.672 267.145 115.947 267.052 116.196C266.947 116.446 266.748 116.645 266.499 116.749C266.246 116.822 265.977 116.822 265.724 116.749C263.863 115.781 262.449 114.129 261.779 112.141C260.523 112.458 259.291 112.865 258.092 113.357V93.3373C258.093 91.9678 257.818 90.6121 257.285 89.3508C256.751 88.0896 255.969 86.9487 254.985 85.9959C254.001 85.043 252.836 84.2978 251.558 83.8045C250.28 83.3112 248.917 83.08 247.548 83.1245H216.909C214.201 83.1245 211.603 84.2005 209.688 86.1157C207.772 88.031 206.696 90.6287 206.696 93.3373V123.976C206.706 126.682 207.785 129.274 209.698 131.187C211.611 133.1 214.204 134.179 216.909 134.189H241.059C240.558 136.696 240.578 139.279 241.117 141.778C241.656 144.276 242.703 146.638 244.193 148.715C242.603 150.608 241.536 152.883 241.096 155.315C240.91 156.46 240.986 157.632 241.317 158.744C241.671 159.84 242.277 160.837 243.087 161.657C246.257 165.049 250.46 164.164 253.926 163.463C256.175 162.984 258.351 162.541 259.641 163.463C260.931 164.385 260.858 164.827 260.894 165.049C261.632 168.33 258.904 169.952 258.24 170.763C258.212 170.847 258.212 170.938 258.24 171.021C258.219 171.119 258.219 171.219 258.24 171.316L258.424 171.538H258.682C260.222 171.508 261.711 170.978 262.922 170.026C263.731 169.323 264.341 168.421 264.692 167.408C265.023 166.398 265.099 165.321 264.913 164.274V163.721C264.699 162.905 264.325 162.139 263.812 161.468C263.299 160.797 262.659 160.234 261.927 159.813C260.534 159.138 259.017 158.753 257.471 158.684C255.924 158.614 254.379 158.86 252.931 159.408C249.539 160.071 247.4 160.403 245.889 158.781C245.55 158.417 245.309 157.973 245.188 157.49C245.06 157.007 245.06 156.499 245.188 156.016C245.494 154.478 246.164 153.037 247.142 151.812C254.516 157.859 266.978 156.569 275.827 148.531C279.041 145.831 281.568 142.407 283.201 138.539C282.121 138.121 281.141 137.48 280.325 136.659C279.512 135.822 278.895 134.814 278.518 133.709C278.482 133.564 278.482 133.412 278.518 133.267C278.485 133.121 278.485 132.97 278.518 132.825C278.569 132.681 278.659 132.553 278.776 132.456L279.145 132.235H279.587H279.993C280.131 132.312 280.256 132.412 280.362 132.53C280.451 132.642 280.526 132.766 280.583 132.898C280.819 133.594 281.196 134.234 281.689 134.779C282.342 135.528 283.177 136.097 284.112 136.433C285.048 136.769 286.054 136.859 287.035 136.696C288.018 136.515 288.941 136.097 289.726 135.479C290.498 134.84 291.095 134.016 291.459 133.083C291.827 132.143 291.948 131.125 291.813 130.125C291.677 129.125 291.289 128.176 290.685 127.368ZM284.897 112.141C285.261 111.917 285.687 111.813 286.113 111.846C286.519 111.875 286.906 112.029 287.219 112.288C287.416 112.636 287.506 113.033 287.477 113.431C287.441 113.813 287.286 114.174 287.035 114.464C286.593 114.869 286.076 114.279 285.597 113.763C285.118 113.247 284.454 112.62 284.897 112.141ZM216.909 130.76C215.107 130.76 213.377 130.046 212.099 128.775C210.821 127.504 210.098 125.779 210.088 123.976V93.3373C210.088 91.5283 210.807 89.7934 212.086 88.5143C213.365 87.2351 215.1 86.5165 216.909 86.5165H247.548C248.442 86.5165 249.327 86.6931 250.152 87.0364C250.978 87.3796 251.727 87.8826 252.358 88.5165C252.988 89.1503 253.487 89.9026 253.826 90.7299C254.165 91.5572 254.337 92.4433 254.332 93.3373V115.459C248.568 119.004 244.175 124.398 241.87 130.76H216.909Z"
      fill="#E66189" />
    <path
      d="M244.856 99.9738H248.543C249.42 99.9867 250.267 99.6559 250.902 99.0521C251.225 98.751 251.481 98.3852 251.652 97.9786C251.824 97.5719 251.907 97.1337 251.898 96.6924C251.902 96.2574 251.816 95.8262 251.645 95.4263C251.473 95.0263 251.221 94.6665 250.902 94.3697C250.27 93.7557 249.424 93.4119 248.543 93.411H235.602V92.1943C235.597 91.7447 235.496 91.3013 235.305 90.8941C235.115 90.487 234.838 90.1256 234.495 89.8347C233.86 89.2309 233.013 88.9001 232.136 88.913C231.259 88.9001 230.412 89.2309 229.776 89.8347C229.453 90.1357 229.198 90.5016 229.026 90.9082C228.855 91.3148 228.771 91.7531 228.781 92.1943V93.411H215.84C215.402 93.4075 214.969 93.4904 214.564 93.6549C214.159 93.8194 213.791 94.0623 213.48 94.3697C213.142 94.6565 212.868 95.0119 212.677 95.4123C212.487 95.8127 212.383 96.249 212.374 96.6924C212.364 97.1337 212.448 97.5719 212.619 97.9786C212.791 98.3852 213.047 98.751 213.369 99.0521C213.682 99.3544 214.051 99.5916 214.457 99.7498C214.862 99.9081 215.294 99.9842 215.729 99.9738H237.851C237.218 101.534 236.479 103.049 235.638 104.509C234.667 106.071 233.57 107.55 232.357 108.933C231.767 108.269 231.177 107.643 230.698 107.016C229.992 106.091 229.351 105.118 228.781 104.103C228.45 103.581 227.994 103.15 227.453 102.85C226.928 102.536 226.332 102.359 225.721 102.333C225.161 102.295 224.6 102.404 224.096 102.65C223.591 102.896 223.16 103.27 222.845 103.735C222.545 104.195 222.385 104.733 222.385 105.283C222.385 105.833 222.545 106.371 222.845 106.832C223.584 108.115 224.409 109.347 225.315 110.519C226.052 111.477 226.864 112.399 227.675 113.357L218.199 122.833C217.886 123.132 217.639 123.493 217.474 123.893C217.309 124.293 217.229 124.723 217.241 125.156C217.224 125.589 217.302 126.021 217.467 126.421C217.633 126.822 217.882 127.183 218.199 127.478C218.505 127.78 218.868 128.017 219.267 128.175C219.666 128.333 220.093 128.41 220.522 128.4C220.964 128.392 221.4 128.297 221.805 128.119C222.21 127.942 222.576 127.687 222.882 127.368L232.246 118.445L238.477 124.381L239.436 125.229L240.063 124.16C240.676 123.111 241.406 122.134 242.238 121.248L242.865 120.547L242.238 119.994L236.966 113.837C238.85 111.834 240.495 109.619 241.869 107.237C243.096 104.918 244.097 102.485 244.856 99.9738Z"
      fill="#E66189" />
  </g>
  <g filter="url(#filter1_d_737_1407)">
    <path
      d="M10 230.875C10 227.562 12.6863 224.875 16 224.875H247.092C250.405 224.875 253.092 227.562 253.092 230.875V379.875C253.092 383.189 250.405 385.875 247.092 385.875H16C12.6863 385.875 10 383.189 10 379.875V230.875Z"
      fill="#374760" />
  </g>
  <path
    d="M10 230.875C10 227.562 12.6863 224.875 16 224.875H247C250.314 224.875 253 227.562 253 230.875V247.875C253 251.189 250.314 253.875 247 253.875H16C12.6863 253.875 10 251.189 10 247.875V230.875Z"
    fill="#24344B" />
  <path
    d="M241.734 233.151C241.379 232.796 240.805 232.796 240.451 233.151L236 237.592L231.549 233.141C231.195 232.787 230.621 232.787 230.266 233.141C229.911 233.496 229.911 234.07 230.266 234.425L234.717 238.875L230.266 243.326C229.911 243.681 229.911 244.254 230.266 244.609C230.621 244.964 231.195 244.964 231.549 244.609L236 240.159L240.451 244.609C240.805 244.964 241.379 244.964 241.734 244.609C242.089 244.254 242.089 243.681 241.734 243.326L237.283 238.875L241.734 234.425C242.08 234.079 242.08 233.496 241.734 233.151Z"
    fill="#687384" />
  <ellipse cx="26.5336" cy="239.223" rx="4.91546" ry="4.78261" fill="#E9E9E9" />
  <ellipse cx="40.8334" cy="239.223" rx="4.91546" ry="4.78261" fill="#7B899B" />
  <ellipse cx="56.0268" cy="239.223" rx="4.91546" ry="4.78261" fill="#617086" />
  <rect x="36.8115" y="303.672" width="189.469" height="6.25604" rx="3.12802" fill="#687384" />
  <rect x="36.8115" y="315.291" width="110.797" height="6.25604" rx="3.12802" fill="#687384" />
  <rect width="58" height="34" rx="8" transform="matrix(-1 0 0 1 95 332.875)" fill="#687384" />
  <rect width="59" height="34" rx="8" transform="matrix(-1 0 0 1 161 332.875)" fill="#687384" />
  <rect width="58" height="34" rx="8" transform="matrix(-1 0 0 1 226 332.875)" fill="#687384" />
  <path
    d="M90.8349 277.024L89.9984 279.534L87.1125 286.205H85.8578L82.9719 279.534L82.1354 277.024H82.0518L82.3027 280.935V289.321H80.8389V274.682H82.3027L86.4852 284.469L90.6676 274.682H92.1315V289.321H90.6676V280.935L90.9186 277.024H90.8349Z"
    fill="#E9E9E9" />
  <path
    d="M101.046 291.307V287.857L98.7249 289.321H97.7002C96.8776 289.321 96.2503 289.105 95.8181 288.672C95.3998 288.24 95.1907 287.62 95.1907 286.811V280.558L94.9816 278.906L96.4036 278.718L96.6546 280.642V286.853C96.6546 287.606 97.0171 287.982 97.742 287.982H98.3485L101.046 286.226V278.865H102.51V291.307C102.51 293.189 101.548 294.131 99.6241 294.131H97.5747L95.4835 293.566L95.8599 292.29L97.5747 292.792H99.7705C100.231 292.792 100.558 292.674 100.753 292.437C100.949 292.2 101.046 291.823 101.046 291.307Z"
    fill="#E9E9E9" />
  <path
    d="M110.116 279.45L112.208 278.865H114.592C115.414 278.865 116.035 279.088 116.453 279.534C116.885 279.966 117.101 280.579 117.101 281.374V287.669L117.331 289.321L115.888 289.488L115.658 287.627L113.316 289.321H112.291C111.483 289.321 110.862 289.105 110.43 288.672C109.998 288.226 109.782 287.606 109.782 286.811V285.536C109.782 284.741 109.998 284.127 110.43 283.695C110.862 283.249 111.483 283.026 112.291 283.026H115.637V281.353C115.637 280.6 115.275 280.224 114.55 280.224H112.208L110.493 280.726L110.116 279.45ZM112.333 287.982H112.94L115.637 286.017V284.323H112.333C111.608 284.323 111.246 284.699 111.246 285.452V286.853C111.246 287.606 111.608 287.982 112.333 287.982Z"
    fill="#E9E9E9" />
  <path
    d="M120.065 280.579L119.856 278.906L121.278 278.718L121.466 280.203L123.829 278.865H124.875C125.683 278.865 126.304 279.088 126.736 279.534C127.168 279.966 127.384 280.579 127.384 281.374V286.811C127.384 287.606 127.168 288.226 126.736 288.672C126.304 289.105 125.683 289.321 124.875 289.321H123.871L121.529 288.861V294.131H120.065V280.579ZM124.164 280.224L121.529 281.688V287.522L123.913 287.982H124.833C125.558 287.982 125.92 287.606 125.92 286.853V281.353C125.92 280.6 125.558 280.224 124.833 280.224H124.164Z"
    fill="#E9E9E9" />
  <path
    d="M130.153 280.579L129.944 278.906L131.366 278.718L131.555 280.203L133.918 278.865H134.963C135.772 278.865 136.392 279.088 136.824 279.534C137.257 279.966 137.473 280.579 137.473 281.374V286.811C137.473 287.606 137.257 288.226 136.824 288.672C136.392 289.105 135.772 289.321 134.963 289.321H133.959L131.617 288.861V294.131H130.153V280.579ZM134.252 280.224L131.617 281.688V287.522L134.001 287.982H134.921C135.646 287.982 136.009 287.606 136.009 286.853V281.353C136.009 280.6 135.646 280.224 134.921 280.224H134.252Z"
    fill="#E9E9E9" />
  <path
    d="M66.9451 284.739C62.5609 289.09 55.1187 291.889 50.0275 288.585C38.5668 281.146 34.1551 287.049 38.5393 282.698C42.9236 278.347 49.3949 277.759 52.9935 281.385C60.7612 288.762 71.3293 280.388 66.9451 284.739Z"
    fill="#E9E9E9" />
  <path
    d="M69.0071 278.316C66.5587 280.746 62.334 282.24 59.3659 280.269C52.6844 275.831 50.2435 279.151 52.6918 276.721C55.1402 274.291 58.8414 274.051 60.9586 276.184C65.5221 280.531 71.4555 275.886 69.0071 278.316Z"
    fill="#E9E9E9" />
  <g filter="url(#filter2_d_737_1407)">
    <path
      d="M354 259.875C354 256.562 356.686 253.875 360 253.875H587C590.314 253.875 593 256.562 593 259.875V366.875C593 370.189 590.314 372.875 587 372.875H360C356.686 372.875 354 370.189 354 366.875V259.875Z"
      fill="#374760" />
    <path
      d="M360 254.375H587C590.038 254.375 592.5 256.838 592.5 259.875V366.875C592.5 369.913 590.038 372.375 587 372.375H360C356.962 372.375 354.5 369.913 354.5 366.875V259.875C354.5 256.838 356.962 254.375 360 254.375Z"
      stroke="#687384" />
  </g>
  <rect x="374" y="271.875" width="201" height="7" rx="3.5" fill="#687384" />
  <rect x="374" y="286.875" width="149.067" height="7" rx="3.5" fill="#687384" />
  <rect x="374" y="301.875" width="170.225" height="7" rx="3.5" fill="#687384" />
  <rect x="374" y="331.875" width="149.067" height="7" rx="3.5" fill="#687384" />
  <rect x="374" y="346.875" width="170.225" height="7" rx="3.5" fill="#687384" />
  <path
    d="M288.894 50.1183L282.088 13.3113C281.655 10.9674 284.435 9.40434 286.213 10.9929L301.301 24.4814C302.944 25.9502 305.52 25.5532 306.644 23.6577L317.701 5.01907C318.669 3.38641 321.033 3.38641 322.001 5.01907L333.058 23.6577C334.182 25.5532 336.758 25.9502 338.401 24.4814L353.49 10.9929C355.267 9.40434 358.048 10.9674 357.614 13.3113L350.809 50.1183C350.589 51.3036 349.556 52.1638 348.35 52.1638H291.352C290.147 52.1638 289.113 51.3036 288.894 50.1183Z"
    fill="#F6A7C2" stroke="#EC407A" />
  <path d="M342 46L298 46" stroke="#EC407A" stroke-linecap="round" />
  <defs>
    <filter id="filter0_d_737_1407" x="173" y="54.1245" width="283" height="146"
      filterUnits="userSpaceOnUse" color-interpolation-filters="sRGB">
      <feFlood flood-opacity="0" result="BackgroundImageFix" />
      <feColorMatrix in="SourceAlpha" type="matrix"
        values="0 0 0 0 0 0 0 0 0 0 0 0 0 0 0 0 0 0 127 0" result="hardAlpha" />
      <feOffset />
      <feGaussianBlur stdDeviation="5" />
      <feComposite in2="hardAlpha" operator="out" />
      <feColorMatrix type="matrix" values="0 0 0 0 0 0 0 0 0 0 0 0 0 0 0 0 0 0 0.25 0" />
      <feBlend mode="normal" in2="BackgroundImageFix" result="effect1_dropShadow_737_1407" />
      <feBlend mode="normal" in="SourceGraphic" in2="effect1_dropShadow_737_1407" result="shape" />
    </filter>
    <filter id="filter1_d_737_1407" x="0" y="214.875" width="263.092" height="181"
      filterUnits="userSpaceOnUse" color-interpolation-filters="sRGB">
      <feFlood flood-opacity="0" result="BackgroundImageFix" />
      <feColorMatrix in="SourceAlpha" type="matrix"
        values="0 0 0 0 0 0 0 0 0 0 0 0 0 0 0 0 0 0 127 0" result="hardAlpha" />
      <feOffset />
      <feGaussianBlur stdDeviation="5" />
      <feComposite in2="hardAlpha" operator="out" />
      <feColorMatrix type="matrix" values="0 0 0 0 0 0 0 0 0 0 0 0 0 0 0 0 0 0 0.25 0" />
      <feBlend mode="normal" in2="BackgroundImageFix" result="effect1_dropShadow_737_1407" />
      <feBlend mode="normal" in="SourceGraphic" in2="effect1_dropShadow_737_1407" result="shape" />
    </filter>
    <filter id="filter2_d_737_1407" x="344" y="243.875" width="259" height="139"
      filterUnits="userSpaceOnUse" color-interpolation-filters="sRGB">
      <feFlood flood-opacity="0" result="BackgroundImageFix" />
      <feColorMatrix in="SourceAlpha" type="matrix"
        values="0 0 0 0 0 0 0 0 0 0 0 0 0 0 0 0 0 0 127 0" result="hardAlpha" />
      <feOffset />
      <feGaussianBlur stdDeviation="5" />
      <feComposite in2="hardAlpha" operator="out" />
      <feColorMatrix type="matrix" values="0 0 0 0 0 0 0 0 0 0 0 0 0 0 0 0 0 0 0.25 0" />
      <feBlend mode="normal" in2="BackgroundImageFix" result="effect1_dropShadow_737_1407" />
      <feBlend mode="normal" in="SourceGraphic" in2="effect1_dropShadow_737_1407" result="shape" />
    </filter>
    <clipPath id="clip0_737_1407">
      <rect width="88.4869" height="88.4869" fill="white" transform="translate(205 83.1245)" />
    </clipPath>
  </defs>
</svg>
  