<svg width="492" height="369" viewBox="0 0 492 369" fill="none" xmlns="http://www.w3.org/2000/svg">
    <g filter="url(#filter0_d_546_10441)">
        <path d="M10 16C10 12.6863 12.6863 10 16 10H476C479.314 10 482 12.6863 482 16V352.197C482 355.51 479.314 358.197 476 358.197H16C12.6863 358.197 10 355.51 10 352.197V16Z" fill="white"/>
    </g>
    <rect x="181.516" y="75.7703" width="116.066" height="9.02732" rx="4.51366" fill="#EBEDF0"/>
    <rect x="181.516" y="273.082" width="116.066" height="9.02732" rx="4.51366" fill="#EBEDF0"/>
    <rect width="83.8251" height="78.6667" rx="8" transform="matrix(-1 0 0 1 265.342 177.65)" fill="#EBEDF0"/>
    <rect width="85.1148" height="78.6667" rx="8" transform="matrix(-1 0 0 1 360.773 177.65)" fill="#EBEDF0"/>
    <rect width="83.8251" height="78.6667" rx="8" transform="matrix(-1 0 0 1 454.915 177.65)" fill="#EBEDF0"/>
    <rect x="181.516" y="93.8247" width="273.399" height="9.02732" rx="4.51366" fill="#EBEDF0"/>
    <rect x="181.516" y="109.3" width="273.399" height="9.02732" rx="4.51366" fill="#EBEDF0"/>
    <rect x="181.516" y="126.065" width="273.399" height="9.02732" rx="4.51366" fill="#EBEDF0"/>
    <rect x="181.516" y="144.12" width="273.399" height="9.02732" rx="4.51366" fill="#EBEDF0"/>
    <rect x="181.516" y="291.136" width="273.399" height="9.02732" rx="4.51366" fill="#EBEDF0"/>
    <rect x="181.516" y="309.191" width="273.399" height="9.02732" rx="4.51366" fill="#EBEDF0"/>
    <rect x="181.516" y="324.666" width="273.399" height="9.02732" rx="4.51366" fill="#EBEDF0"/>
    <rect x="38.3643" y="75.7708" width="81.2459" height="9.02732" rx="4.51366" fill="#EBEDF0"/>
    <rect x="38.3643" y="92.5356" width="81.2459" height="9.02732" rx="4.51366" fill="#EBEDF0"/>
    <rect x="38.3672" y="109.301" width="101.88" height="9.02732" rx="4.51366" fill="#EBEDF0"/>
    <rect x="38.3672" y="126.065" width="101.88" height="9.02732" rx="4.51366" fill="#822B55"/>
    <path d="M38.3672 147.344C38.3672 144.851 40.388 142.831 42.8808 142.831H93.1759C95.6688 142.831 97.6896 144.851 97.6896 147.344V147.344C97.6896 149.837 95.6688 151.858 93.1759 151.858H42.8808C40.388 151.858 38.3672 149.837 38.3672 147.344V147.344Z" fill="#EBEDF0"/>
    <path d="M260.766 37.9937L259.559 41.6148L255.395 51.2409H253.584L249.42 41.6148L248.213 37.9937H248.092L248.454 43.6366V55.7372H246.342V34.614H248.454L254.489 48.7363L260.524 34.614H262.637V55.7372H260.524V43.6366L260.887 37.9937H260.766Z" fill="#546074"/>
    <path d="M275.5 58.6039V53.6248L272.151 55.7372H270.672C269.485 55.7372 268.58 55.4253 267.956 54.8017C267.353 54.1781 267.051 53.2828 267.051 52.116V43.0934L266.749 40.7096L268.801 40.438L269.164 43.2142V52.1764C269.164 53.2627 269.687 53.8059 270.733 53.8059H271.608L275.5 51.2711V40.6492H277.613V58.6039C277.613 61.3197 276.225 62.6776 273.448 62.6776H270.491L267.474 61.8629L268.017 60.0221L270.491 60.7464H273.66C274.324 60.7464 274.796 60.5754 275.078 60.2334C275.36 59.8914 275.5 59.3482 275.5 58.6039Z" fill="#546074"/>
    <path d="M288.589 41.4941L291.606 40.6492H295.046C296.233 40.6492 297.128 40.9711 297.732 41.6148C298.355 42.2385 298.667 43.1236 298.667 44.2703V53.3533L298.999 55.7372L296.917 55.9786L296.585 53.2929L293.205 55.7372H291.727C290.56 55.7372 289.665 55.4253 289.041 54.8017C288.418 54.158 288.106 53.2627 288.106 52.116V50.2753C288.106 49.1286 288.418 48.2435 289.041 47.6198C289.665 46.9761 290.56 46.6542 291.727 46.6542H296.555V44.2401C296.555 43.1538 296.032 42.6106 294.986 42.6106H291.606L289.132 43.3349L288.589 41.4941ZM291.787 53.8059H292.662L296.555 50.9694V48.5251H291.787C290.741 48.5251 290.218 49.0683 290.218 50.1546V52.1764C290.218 53.2627 290.741 53.8059 291.787 53.8059Z" fill="#546074"/>
    <path d="M302.944 43.1236L302.642 40.7096L304.694 40.438L304.966 42.5805L308.376 40.6492H309.884C311.051 40.6492 311.947 40.9711 312.57 41.6148C313.194 42.2385 313.506 43.1236 313.506 44.2703V52.116C313.506 53.2627 313.194 54.158 312.57 54.8017C311.947 55.4253 311.051 55.7372 309.884 55.7372H308.436L305.056 55.0733V62.6776H302.944V43.1236ZM308.859 42.6106L305.056 44.7229V53.142L308.496 53.8059H309.824C310.87 53.8059 311.393 53.2627 311.393 52.1764V44.2401C311.393 43.1538 310.87 42.6106 309.824 42.6106H308.859Z" fill="#546074"/>
    <path d="M317.502 43.1236L317.2 40.7096L319.252 40.438L319.523 42.5805L322.933 40.6492H324.442C325.609 40.6492 326.504 40.9711 327.128 41.6148C327.751 42.2385 328.063 43.1236 328.063 44.2703V52.116C328.063 53.2627 327.751 54.158 327.128 54.8017C326.504 55.4253 325.609 55.7372 324.442 55.7372H322.994L319.614 55.0733V62.6776H317.502V43.1236ZM323.416 42.6106L319.614 44.7229V53.142L323.054 53.8059H324.382C325.428 53.8059 325.951 53.2627 325.951 52.1764V44.2401C325.951 43.1538 325.428 42.6106 324.382 42.6106H323.416Z" fill="#546074"/>
    <path d="M226.293 49.1259C219.967 55.4045 209.228 59.4431 201.881 54.675C185.344 43.9414 178.978 52.4592 185.304 46.1806C191.63 39.9019 200.968 39.0536 206.161 44.2857C217.37 54.9312 232.619 42.8472 226.293 49.1259Z" fill="#546074"/>
    <path d="M229.271 39.8577C225.738 43.364 219.642 45.5197 215.359 42.6753C205.717 36.2722 202.195 41.0621 205.728 37.5558C209.261 34.0495 214.602 33.7025 217.657 36.7808C224.242 43.0538 232.804 36.3513 229.271 39.8577Z" fill="#546074"/>
    <path d="M183.415 169.133C179.558 165.419 182.881 156.532 185.805 152.303C188.728 148.074 198.622 158.283 198.622 158.283C198.622 158.283 189.082 170.644 183.415 169.133Z" fill="#F4A5B8"/>
    <path d="M204.483 138.258C195.74 131.854 172.032 119.117 170.47 118.642C168.908 118.168 159.541 120.1 158.383 120.749C157.225 121.398 145.155 128.026 145.917 130.624C146.68 133.221 152.06 130.99 155.261 129.42C157.71 128.35 160.281 127.587 162.916 127.145C162.916 127.145 157.502 129.07 157.164 132.104C156.964 133.863 159.632 135.588 159.632 135.588C159.632 135.588 157.103 138.263 161.222 141.117C161.222 141.117 157.935 143.103 159.115 146.066C160.296 149.029 164.795 149.394 167.171 149.218C167.988 149.179 168.995 147.105 168.162 145.93C168.162 145.93 169.579 146.495 171.805 149.636C174.031 152.777 176.506 156.649 181.836 156.475C187.167 156.301 190.816 157.784 192.98 159.609L204.483 138.258Z" fill="#BCC0C6"/>
    <path d="M158.382 120.749C157.211 121.395 145.155 128.026 145.917 130.624C146.679 133.221 152.06 130.99 155.261 129.42C157.71 128.35 160.28 127.587 162.915 127.146C162.915 127.146 157.501 129.07 157.163 132.104C156.964 133.863 159.632 135.588 159.632 135.588C159.632 135.588 157.103 138.263 161.221 141.117C161.221 141.117 157.934 143.103 159.115 146.066C160.295 149.029 164.795 149.394 167.171 149.218C167.988 149.179 168.994 147.105 168.162 145.93" stroke="#546074" stroke-width="0.68" stroke-linecap="round" stroke-linejoin="round"/>
    <path d="M168.41 146.453C168.051 145.748 167.545 145.129 166.926 144.636" stroke="#546074" stroke-width="0.68" stroke-linecap="round" stroke-linejoin="round"/>
    <path d="M169.413 143.769C167.336 144.297 164.284 145.283 163.786 146.102" stroke="#546074" stroke-width="0.68" stroke-linecap="round" stroke-linejoin="round"/>
    <path d="M160.615 141.559C163.896 139.149 167.769 137.675 171.822 137.294" stroke="#546074" stroke-width="0.68" stroke-linecap="round" stroke-linejoin="round"/>
    <path d="M159.633 135.588C161.647 133.242 169.208 130.715 172.089 130.941" stroke="#546074" stroke-width="0.68" stroke-linecap="round" stroke-linejoin="round"/>
    <path d="M162.91 127.137C164.71 126.218 169.41 123.39 173.203 124.366" stroke="#546074" stroke-width="0.68" stroke-linecap="round" stroke-linejoin="round"/>
    <path d="M277.948 238.127C273.466 235.849 264.016 229.468 252.745 221.448C223.872 200.887 183.049 169.551 183.415 169.133C183.923 168.552 197.498 153.637 199.643 133.954C199.643 133.954 266.209 171.058 287.342 183.083C300.033 190.304 320.303 200.748 318.454 215.417C318.391 215.951 318.301 216.481 318.191 217C314.892 233.739 293.423 245.974 277.948 238.127Z" fill="#FFB7C8"/>
    <path d="M277.948 238.127C273.466 235.849 264.017 229.468 252.745 221.448C258.976 219.864 269.913 218.279 276.182 224.34C285.278 233.129 297.338 233.665 312.592 220.6C314.281 219.143 316.173 217.939 318.209 217.025C314.892 233.739 293.424 245.974 277.948 238.127Z" fill="#A7CAF0"/>
    <path d="M199.644 133.954C199.644 133.954 266.21 171.058 287.343 183.083C293.404 186.534 301.197 190.718 307.495 195.766" stroke="#DB5E83" stroke-width="0.68" stroke-linecap="round" stroke-linejoin="round"/>
    <path d="M209.879 144.386C206.369 157.058 195.53 173.171 195.53 173.171" stroke="#DB5E83" stroke-width="0.68" stroke-linecap="round" stroke-linejoin="round"/>
    <g filter="url(#filter1_d_546_10441)">
        <rect x="181.47" y="194.075" width="225.054" height="82.6146" rx="10" fill="white"/>
    </g>
    <path d="M277.549 225.853L271.177 244.339H267.324L275.352 223.011H277.812L277.549 225.853ZM282.881 244.339L276.494 225.853L276.216 223.011H278.691L286.748 244.339H282.881ZM282.573 236.429V239.344H270.972V236.429H282.573ZM302.495 241.424V244.339H291.787V241.424H302.495ZM292.812 223.011V244.339H289.136V223.011H292.812ZM310.449 223.011V244.339H306.802V223.011H310.449ZM317.144 223.011V225.941H300.166V223.011H317.144Z" fill="#822B55"/>
    <defs>
        <filter id="filter0_d_546_10441" x="0" y="0" width="492" height="368.197" filterUnits="userSpaceOnUse" color-interpolation-filters="sRGB">
            <feFlood flood-opacity="0" result="BackgroundImageFix"/>
            <feColorMatrix in="SourceAlpha" type="matrix" values="0 0 0 0 0 0 0 0 0 0 0 0 0 0 0 0 0 0 127 0" result="hardAlpha"/>
            <feOffset/>
            <feGaussianBlur stdDeviation="5"/>
            <feComposite in2="hardAlpha" operator="out"/>
            <feColorMatrix type="matrix" values="0 0 0 0 0 0 0 0 0 0 0 0 0 0 0 0 0 0 0.25 0"/>
            <feBlend mode="normal" in2="BackgroundImageFix" result="effect1_dropShadow_546_10441"/>
            <feBlend mode="normal" in="SourceGraphic" in2="effect1_dropShadow_546_10441" result="shape"/>
        </filter>
        <filter id="filter1_d_546_10441" x="171.47" y="184.075" width="245.054" height="102.615" filterUnits="userSpaceOnUse" color-interpolation-filters="sRGB">
            <feFlood flood-opacity="0" result="BackgroundImageFix"/>
            <feColorMatrix in="SourceAlpha" type="matrix" values="0 0 0 0 0 0 0 0 0 0 0 0 0 0 0 0 0 0 127 0" result="hardAlpha"/>
            <feOffset/>
            <feGaussianBlur stdDeviation="5"/>
            <feComposite in2="hardAlpha" operator="out"/>
            <feColorMatrix type="matrix" values="0 0 0 0 0 0 0 0 0 0 0 0 0 0 0 0 0 0 0.25 0"/>
            <feBlend mode="normal" in2="BackgroundImageFix" result="effect1_dropShadow_546_10441"/>
            <feBlend mode="normal" in="SourceGraphic" in2="effect1_dropShadow_546_10441" result="shape"/>
        </filter>
    </defs>
</svg>
