<svg width="546" height="397" viewBox="0 0 546 397" fill="none" xmlns="http://www.w3.org/2000/svg">
  <g filter="url(#filter0_d_737_4408)">
    <path d="M10 78C10 74.6863 12.6863 72 16 72H370C373.314 72 376 74.6863 376 78V336C376 339.314 373.314 342 370 342H16C12.6863 342 10 339.314 10 336V78Z" fill="#283A53" />
  </g>
  <rect x="143" y="123" width="90" height="7" rx="3.5" fill="#687384" />
  <rect x="143" y="276" width="90" height="7" rx="3.5" fill="#687384" />
  <rect width="65" height="61" rx="8" transform="matrix(-1 0 0 1 208 202)" fill="#687384" />
  <rect width="66" height="61" rx="8" transform="matrix(-1 0 0 1 282 202)" fill="#687384" />
  <rect width="65" height="61" rx="8" transform="matrix(-1 0 0 1 355 202)" fill="#687384" />
  <rect x="143" y="137" width="212" height="7" rx="3.5" fill="#687384" />
  <rect x="143" y="149" width="212" height="7" rx="3.5" fill="#687384" />
  <rect x="143" y="162" width="212" height="7" rx="3.5" fill="#687384" />
  <rect x="143" y="176" width="212" height="7" rx="3.5" fill="#687384" />
  <rect x="143" y="290" width="212" height="7" rx="3.5" fill="#687384" />
  <rect x="143" y="304" width="212" height="7" rx="3.5" fill="#687384" />
  <rect x="143" y="316" width="212" height="7" rx="3.5" fill="#687384" />
  <rect x="32" y="123" width="63" height="7" rx="3.5" fill="#687384" />
  <rect x="32" y="136" width="63" height="7" rx="3.5" fill="#687384" />
  <rect x="32" y="149" width="79" height="7" rx="3.5" fill="#687384" />
  <rect x="32" y="162" width="79" height="7" rx="3.5" fill="#E66188" />
  <path d="M32 178.5C32 176.567 33.567 175 35.5 175H74.5C76.433 175 78 176.567 78 178.5C78 180.433 76.433 182 74.5 182H35.5C33.567 182 32 180.433 32 178.5Z" fill="#687384" />
  <path d="M204.448 93.7073L203.512 96.5151L200.283 103.979H198.879L195.65 96.5151L194.714 93.7073H194.62L194.901 98.0829V107.466H193.263V91.0865H194.901L199.581 102.037L204.261 91.0865H205.899V107.466H204.261V98.0829L204.542 93.7073H204.448Z" fill="#C4C4C4" />
  <path d="M215.874 109.689V105.828L213.276 107.466H212.13C211.209 107.466 210.507 107.224 210.024 106.741C209.556 106.257 209.322 105.563 209.322 104.658V97.6617L209.088 95.8132L210.679 95.6026L210.96 97.7553V104.705C210.96 105.547 211.365 105.968 212.176 105.968H212.855L215.874 104.003V95.7664H217.511V109.689C217.511 111.795 216.435 112.848 214.282 112.848H211.989L209.649 112.216L210.071 110.789L211.989 111.35H214.446C214.961 111.35 215.328 111.218 215.546 110.952C215.764 110.687 215.874 110.266 215.874 109.689Z" fill="#C4C4C4" />
  <path d="M226.022 96.4215L228.362 95.7664H231.03C231.95 95.7664 232.644 96.016 233.112 96.5151C233.596 96.9987 233.838 97.6851 233.838 98.5743V105.617L234.095 107.466L232.48 107.653L232.223 105.571L229.602 107.466H228.456C227.551 107.466 226.857 107.224 226.373 106.741C225.89 106.241 225.648 105.547 225.648 104.658V103.231C225.648 102.342 225.89 101.655 226.373 101.172C226.857 100.672 227.551 100.423 228.456 100.423H232.2V98.5509C232.2 97.7085 231.794 97.2873 230.983 97.2873H228.362L226.444 97.8489L226.022 96.4215ZM228.503 105.968H229.181L232.2 103.769V101.874H228.503C227.691 101.874 227.286 102.295 227.286 103.137V104.705C227.286 105.547 227.691 105.968 228.503 105.968Z" fill="#C4C4C4" />
  <path d="M237.154 97.6851L236.92 95.8132L238.511 95.6026L238.722 97.2639L241.366 95.7664H242.536C243.44 95.7664 244.135 96.016 244.618 96.5151C245.102 96.9987 245.344 97.6851 245.344 98.5743V104.658C245.344 105.547 245.102 106.241 244.618 106.741C244.135 107.224 243.44 107.466 242.536 107.466H241.413L238.792 106.951V112.848H237.154V97.6851ZM241.74 97.2873L238.792 98.9253V105.454L241.459 105.968H242.489C243.3 105.968 243.706 105.547 243.706 104.705V98.5509C243.706 97.7085 243.3 97.2873 242.489 97.2873H241.74Z" fill="#C4C4C4" />
  <path d="M248.442 97.6851L248.208 95.8132L249.799 95.6026L250.01 97.2639L252.654 95.7664H253.824C254.729 95.7664 255.423 96.016 255.906 96.5151C256.39 96.9987 256.632 97.6851 256.632 98.5743V104.658C256.632 105.547 256.39 106.241 255.906 106.741C255.423 107.224 254.729 107.466 253.824 107.466H252.701L250.08 106.951V112.848H248.442V97.6851ZM253.028 97.2873L250.08 98.9253V105.454L252.748 105.968H253.777C254.588 105.968 254.994 105.547 254.994 104.705V98.5509C254.994 97.7085 254.588 97.2873 253.777 97.2873H253.028Z" fill="#C4C4C4" />
  <path d="M177.717 102.34C172.812 107.208 164.484 110.34 158.788 106.642C145.964 98.3194 141.028 104.924 145.933 100.056C150.839 95.1871 158.08 94.5293 162.106 98.5864C170.798 106.841 182.623 97.4709 177.717 102.34Z" fill="#C4C4C4" />
  <path d="M180.024 95.1528C177.285 97.8717 172.558 99.5433 169.237 97.3377C161.761 92.3726 159.029 96.0868 161.769 93.3679C164.509 90.649 168.65 90.3799 171.019 92.767C176.125 97.6311 182.764 92.4339 180.024 95.1528Z" fill="#C4C4C4" />
  <g filter="url(#filter1_d_737_4408)">
    <path d="M167.404 16C167.404 12.6863 170.09 10 173.404 10H529.404C532.718 10 535.404 12.6863 535.404 16V381C535.404 384.314 532.718 387 529.404 387H173.404C170.09 387 167.404 384.314 167.404 381V16Z" fill="#37455B" />
    <path d="M132.472 172.44C127.345 171.087 126.364 164.238 130.904 161.5L189.267 126.309C193.266 123.897 198.365 126.777 198.365 131.447V182.034C198.365 185.97 194.64 188.84 190.835 187.836L132.472 172.44Z" fill="#37455B" />
  </g>
  <path d="M194.729 92.7354V88.9277C194.729 88.6361 194.67 88.3831 194.551 88.1689C194.437 87.9502 194.264 87.7816 194.032 87.6631C193.799 87.5446 193.512 87.4854 193.17 87.4854C192.851 87.4854 192.571 87.54 192.33 87.6494C192.093 87.7588 191.906 87.9023 191.769 88.0801C191.637 88.2578 191.571 88.4492 191.571 88.6543H190.306C190.306 88.39 190.375 88.1279 190.511 87.8682C190.648 87.6084 190.844 87.3737 191.099 87.1641C191.359 86.9499 191.669 86.7812 192.029 86.6582C192.393 86.5306 192.799 86.4668 193.246 86.4668C193.783 86.4668 194.257 86.5579 194.667 86.7402C195.082 86.9225 195.406 87.1982 195.638 87.5674C195.875 87.932 195.994 88.39 195.994 88.9414V92.3867C195.994 92.6328 196.014 92.8949 196.055 93.1729C196.101 93.4508 196.167 93.6901 196.253 93.8906V94H194.934C194.87 93.8542 194.82 93.6605 194.784 93.4189C194.747 93.1729 194.729 92.945 194.729 92.7354ZM194.948 89.5156L194.961 90.4043H193.683C193.323 90.4043 193.002 90.4339 192.719 90.4932C192.437 90.5479 192.2 90.6322 192.008 90.7461C191.817 90.86 191.671 91.0036 191.571 91.1768C191.471 91.3454 191.42 91.5436 191.42 91.7715C191.42 92.0039 191.473 92.2158 191.578 92.4072C191.682 92.5986 191.84 92.7513 192.049 92.8652C192.264 92.9746 192.526 93.0293 192.835 93.0293C193.223 93.0293 193.565 92.9473 193.861 92.7832C194.157 92.6191 194.392 92.4186 194.565 92.1816C194.743 91.9447 194.838 91.7145 194.852 91.4912L195.392 92.0996C195.36 92.291 195.274 92.5029 195.132 92.7354C194.991 92.9678 194.802 93.1911 194.565 93.4053C194.333 93.6149 194.055 93.7904 193.731 93.9316C193.412 94.0684 193.052 94.1367 192.651 94.1367C192.15 94.1367 191.71 94.0387 191.332 93.8428C190.958 93.6468 190.666 93.3848 190.457 93.0566C190.251 92.724 190.149 92.3525 190.149 91.9424C190.149 91.5459 190.226 91.1973 190.381 90.8965C190.536 90.5911 190.76 90.3382 191.051 90.1377C191.343 89.9326 191.694 89.7777 192.104 89.6729C192.514 89.568 192.972 89.5156 193.478 89.5156H194.948ZM199.248 88.0254V96.8438H197.976V86.6035H199.138L199.248 88.0254ZM204.231 90.2402V90.3838C204.231 90.9215 204.167 91.4206 204.04 91.8809C203.912 92.3366 203.725 92.7331 203.479 93.0703C203.237 93.4076 202.939 93.6696 202.583 93.8564C202.228 94.0433 201.82 94.1367 201.36 94.1367C200.89 94.1367 200.476 94.0592 200.116 93.9043C199.756 93.7493 199.45 93.5238 199.2 93.2275C198.949 92.9313 198.749 92.5758 198.598 92.1611C198.452 91.7464 198.352 91.2793 198.297 90.7598V89.9941C198.352 89.4473 198.455 88.9574 198.605 88.5244C198.755 88.0915 198.954 87.7223 199.2 87.417C199.45 87.1071 199.753 86.8724 200.109 86.7129C200.464 86.5488 200.875 86.4668 201.339 86.4668C201.804 86.4668 202.217 86.5579 202.577 86.7402C202.937 86.918 203.24 87.1732 203.486 87.5059C203.732 87.8385 203.917 88.2373 204.04 88.7021C204.167 89.1624 204.231 89.6751 204.231 90.2402ZM202.959 90.3838V90.2402C202.959 89.8711 202.921 89.5247 202.843 89.2012C202.766 88.873 202.645 88.5859 202.481 88.3398C202.321 88.0892 202.116 87.8932 201.866 87.752C201.615 87.6061 201.317 87.5332 200.97 87.5332C200.651 87.5332 200.373 87.5879 200.136 87.6973C199.904 87.8066 199.706 87.9548 199.542 88.1416C199.377 88.3239 199.243 88.5335 199.138 88.7705C199.038 89.0029 198.963 89.2445 198.913 89.4951V91.2656C199.004 91.5846 199.131 91.8854 199.295 92.168C199.459 92.446 199.678 92.6715 199.952 92.8447C200.225 93.0133 200.569 93.0977 200.984 93.0977C201.326 93.0977 201.62 93.027 201.866 92.8857C202.116 92.7399 202.321 92.5417 202.481 92.291C202.645 92.0404 202.766 91.7533 202.843 91.4297C202.921 91.1016 202.959 90.7529 202.959 90.3838ZM207.109 88.0254V96.8438H205.837V86.6035H207L207.109 88.0254ZM212.092 90.2402V90.3838C212.092 90.9215 212.028 91.4206 211.901 91.8809C211.773 92.3366 211.586 92.7331 211.34 93.0703C211.099 93.4076 210.8 93.6696 210.445 93.8564C210.089 94.0433 209.681 94.1367 209.221 94.1367C208.752 94.1367 208.337 94.0592 207.977 93.9043C207.617 93.7493 207.312 93.5238 207.061 93.2275C206.81 92.9313 206.61 92.5758 206.459 92.1611C206.314 91.7464 206.213 91.2793 206.159 90.7598V89.9941C206.213 89.4473 206.316 88.9574 206.466 88.5244C206.617 88.0915 206.815 87.7223 207.061 87.417C207.312 87.1071 207.615 86.8724 207.97 86.7129C208.326 86.5488 208.736 86.4668 209.201 86.4668C209.666 86.4668 210.078 86.5579 210.438 86.7402C210.798 86.918 211.101 87.1732 211.347 87.5059C211.593 87.8385 211.778 88.2373 211.901 88.7021C212.028 89.1624 212.092 89.6751 212.092 90.2402ZM210.821 90.3838V90.2402C210.821 89.8711 210.782 89.5247 210.705 89.2012C210.627 88.873 210.506 88.5859 210.342 88.3398C210.183 88.0892 209.978 87.8932 209.727 87.752C209.476 87.6061 209.178 87.5332 208.832 87.5332C208.513 87.5332 208.235 87.5879 207.998 87.6973C207.765 87.8066 207.567 87.9548 207.403 88.1416C207.239 88.3239 207.104 88.5335 207 88.7705C206.899 89.0029 206.824 89.2445 206.774 89.4951V91.2656C206.865 91.5846 206.993 91.8854 207.157 92.168C207.321 92.446 207.54 92.6715 207.813 92.8447C208.086 93.0133 208.431 93.0977 208.845 93.0977C209.187 93.0977 209.481 93.027 209.727 92.8857C209.978 92.7399 210.183 92.5417 210.342 92.291C210.506 92.0404 210.627 91.7533 210.705 91.4297C210.782 91.1016 210.821 90.7529 210.821 90.3838ZM219.038 94V95.0391H212.769V94H219.038ZM221.28 88.0732V94H220.008V86.6035H221.211L221.28 88.0732ZM221.02 90.0215L220.432 90.001C220.437 89.4951 220.503 89.028 220.63 88.5996C220.758 88.1667 220.947 87.7907 221.198 87.4717C221.448 87.1527 221.761 86.9066 222.134 86.7334C222.508 86.5557 222.941 86.4668 223.433 86.4668C223.779 86.4668 224.098 86.5169 224.39 86.6172C224.682 86.7129 224.935 86.8656 225.149 87.0752C225.363 87.2848 225.529 87.5537 225.648 87.8818C225.766 88.21 225.826 88.6064 225.826 89.0713V94H224.561V89.1328C224.561 88.7454 224.495 88.4355 224.363 88.2031C224.235 87.9707 224.053 87.8021 223.816 87.6973C223.579 87.5879 223.301 87.5332 222.982 87.5332C222.608 87.5332 222.296 87.5993 222.045 87.7314C221.795 87.8636 221.594 88.0459 221.444 88.2783C221.293 88.5107 221.184 88.7773 221.116 89.0781C221.052 89.3743 221.02 89.6888 221.02 90.0215ZM225.812 89.3242L224.964 89.584C224.969 89.1784 225.035 88.7887 225.163 88.415C225.295 88.0413 225.484 87.7087 225.73 87.417C225.981 87.1253 226.288 86.8952 226.653 86.7266C227.017 86.5534 227.434 86.4668 227.904 86.4668C228.3 86.4668 228.651 86.5192 228.957 86.624C229.266 86.7288 229.526 86.8906 229.736 87.1094C229.95 87.3236 230.112 87.5993 230.221 87.9365C230.331 88.2738 230.385 88.6748 230.385 89.1396V94H229.114V89.126C229.114 88.7113 229.048 88.39 228.916 88.1621C228.788 87.9297 228.606 87.7679 228.369 87.6768C228.136 87.5811 227.858 87.5332 227.535 87.5332C227.257 87.5332 227.011 87.5811 226.796 87.6768C226.582 87.7725 226.402 87.9046 226.256 88.0732C226.111 88.2373 225.999 88.4264 225.921 88.6406C225.848 88.8548 225.812 89.0827 225.812 89.3242ZM235.369 94.1367C234.854 94.1367 234.387 94.0501 233.967 93.877C233.553 93.6992 233.195 93.4508 232.894 93.1318C232.598 92.8128 232.37 92.4346 232.21 91.9971C232.051 91.5596 231.971 91.0811 231.971 90.5615V90.2744C231.971 89.6729 232.06 89.1374 232.238 88.668C232.416 88.194 232.657 87.793 232.962 87.4648C233.268 87.1367 233.614 86.8883 234.001 86.7197C234.389 86.5511 234.79 86.4668 235.205 86.4668C235.733 86.4668 236.189 86.5579 236.572 86.7402C236.959 86.9225 237.276 87.1777 237.522 87.5059C237.768 87.8294 237.95 88.2122 238.069 88.6543C238.187 89.0918 238.247 89.5703 238.247 90.0898V90.6572H232.723V89.625H236.982V89.5293C236.964 89.2012 236.895 88.8822 236.777 88.5723C236.663 88.2624 236.481 88.0072 236.23 87.8066C235.979 87.6061 235.638 87.5059 235.205 87.5059C234.917 87.5059 234.653 87.5674 234.412 87.6904C234.17 87.8089 233.963 87.9867 233.79 88.2236C233.616 88.4606 233.482 88.75 233.386 89.0918C233.291 89.4336 233.243 89.8278 233.243 90.2744V90.5615C233.243 90.9124 233.291 91.2428 233.386 91.5527C233.486 91.8581 233.63 92.127 233.817 92.3594C234.008 92.5918 234.238 92.7741 234.507 92.9062C234.781 93.0384 235.091 93.1045 235.437 93.1045C235.884 93.1045 236.262 93.0133 236.572 92.8311C236.882 92.6488 237.153 92.4049 237.385 92.0996L238.151 92.708C237.991 92.9495 237.789 93.1797 237.542 93.3984C237.296 93.6172 236.993 93.7949 236.633 93.9316C236.278 94.0684 235.856 94.1367 235.369 94.1367ZM240.988 88.1826V94H239.723V86.6035H240.919L240.988 88.1826ZM240.687 90.0215L240.161 90.001C240.165 89.4951 240.24 89.028 240.386 88.5996C240.532 88.1667 240.737 87.7907 241.001 87.4717C241.266 87.1527 241.58 86.9066 241.945 86.7334C242.314 86.5557 242.722 86.4668 243.168 86.4668C243.533 86.4668 243.861 86.5169 244.153 86.6172C244.444 86.7129 244.693 86.8678 244.898 87.082C245.108 87.2962 245.267 87.5742 245.376 87.916C245.486 88.2533 245.541 88.6657 245.541 89.1533V94H244.269V89.1396C244.269 88.7523 244.212 88.4424 244.098 88.21C243.984 87.973 243.818 87.8021 243.599 87.6973C243.38 87.5879 243.111 87.5332 242.792 87.5332C242.478 87.5332 242.191 87.5993 241.931 87.7314C241.676 87.8636 241.455 88.0459 241.268 88.2783C241.086 88.5107 240.942 88.7773 240.837 89.0781C240.737 89.3743 240.687 89.6888 240.687 90.0215ZM251.987 92.291V86.6035H253.258V94H252.048L251.987 92.291ZM252.226 90.7324L252.752 90.7188C252.752 91.2109 252.7 91.6667 252.595 92.0859C252.495 92.5007 252.331 92.8607 252.103 93.166C251.875 93.4714 251.577 93.7106 251.208 93.8838C250.838 94.0524 250.389 94.1367 249.861 94.1367C249.501 94.1367 249.17 94.0843 248.87 93.9795C248.573 93.8747 248.318 93.7129 248.104 93.4941C247.89 93.2754 247.723 92.9906 247.605 92.6396C247.491 92.2887 247.434 91.8672 247.434 91.375V86.6035H248.699V91.3887C248.699 91.7214 248.735 91.9971 248.808 92.2158C248.886 92.43 248.988 92.6009 249.116 92.7285C249.248 92.8516 249.394 92.9382 249.553 92.9883C249.717 93.0384 249.886 93.0635 250.059 93.0635C250.597 93.0635 251.023 92.9609 251.337 92.7559C251.652 92.5462 251.877 92.266 252.014 91.915C252.155 91.5596 252.226 91.1654 252.226 90.7324ZM256.56 86.6035V94H255.289V86.6035H256.56ZM255.193 84.6416C255.193 84.4365 255.254 84.2633 255.377 84.1221C255.505 83.9808 255.692 83.9102 255.938 83.9102C256.18 83.9102 256.364 83.9808 256.492 84.1221C256.624 84.2633 256.69 84.4365 256.69 84.6416C256.69 84.8376 256.624 85.0062 256.492 85.1475C256.364 85.2842 256.18 85.3525 255.938 85.3525C255.692 85.3525 255.505 85.2842 255.377 85.1475C255.254 85.0062 255.193 84.8376 255.193 84.6416ZM261.687 86.6035V87.5742H257.688V86.6035H261.687ZM259.042 84.8057H260.306V92.168C260.306 92.4186 260.345 92.6077 260.422 92.7354C260.5 92.863 260.6 92.9473 260.723 92.9883C260.846 93.0293 260.978 93.0498 261.12 93.0498C261.224 93.0498 261.334 93.0407 261.448 93.0225C261.566 92.9997 261.655 92.9814 261.714 92.9678L261.721 94C261.621 94.0319 261.489 94.0615 261.325 94.0889C261.165 94.1208 260.972 94.1367 260.744 94.1367C260.434 94.1367 260.149 94.0752 259.889 93.9521C259.629 93.8291 259.422 93.624 259.267 93.3369C259.117 93.0452 259.042 92.6533 259.042 92.1611V84.8057ZM266.24 94.1367C265.725 94.1367 265.258 94.0501 264.838 93.877C264.424 93.6992 264.066 93.4508 263.765 93.1318C263.469 92.8128 263.241 92.4346 263.082 91.9971C262.922 91.5596 262.842 91.0811 262.842 90.5615V90.2744C262.842 89.6729 262.931 89.1374 263.109 88.668C263.287 88.194 263.528 87.793 263.833 87.4648C264.139 87.1367 264.485 86.8883 264.873 86.7197C265.26 86.5511 265.661 86.4668 266.076 86.4668C266.604 86.4668 267.06 86.5579 267.443 86.7402C267.83 86.9225 268.147 87.1777 268.393 87.5059C268.639 87.8294 268.821 88.2122 268.94 88.6543C269.058 89.0918 269.118 89.5703 269.118 90.0898V90.6572H263.594V89.625H267.853V89.5293C267.835 89.2012 267.766 88.8822 267.648 88.5723C267.534 88.2624 267.352 88.0072 267.101 87.8066C266.85 87.6061 266.509 87.5059 266.076 87.5059C265.789 87.5059 265.524 87.5674 265.283 87.6904C265.041 87.8089 264.834 87.9867 264.661 88.2236C264.487 88.4606 264.353 88.75 264.257 89.0918C264.162 89.4336 264.114 89.8278 264.114 90.2744V90.5615C264.114 90.9124 264.162 91.2428 264.257 91.5527C264.358 91.8581 264.501 92.127 264.688 92.3594C264.879 92.5918 265.11 92.7741 265.378 92.9062C265.652 93.0384 265.962 93.1045 266.308 93.1045C266.755 93.1045 267.133 93.0133 267.443 92.8311C267.753 92.6488 268.024 92.4049 268.256 92.0996L269.022 92.708C268.862 92.9495 268.66 93.1797 268.414 93.3984C268.167 93.6172 267.864 93.7949 267.504 93.9316C267.149 94.0684 266.727 94.1367 266.24 94.1367ZM271.852 88.0732V94H270.581V86.6035H271.784L271.852 88.0732ZM271.592 90.0215L271.004 90.001C271.009 89.4951 271.075 89.028 271.203 88.5996C271.33 88.1667 271.519 87.7907 271.77 87.4717C272.021 87.1527 272.333 86.9066 272.707 86.7334C273.08 86.5557 273.513 86.4668 274.005 86.4668C274.352 86.4668 274.671 86.5169 274.962 86.6172C275.254 86.7129 275.507 86.8656 275.721 87.0752C275.935 87.2848 276.102 87.5537 276.22 87.8818C276.339 88.21 276.398 88.6064 276.398 89.0713V94H275.133V89.1328C275.133 88.7454 275.067 88.4355 274.935 88.2031C274.807 87.9707 274.625 87.8021 274.388 87.6973C274.151 87.5879 273.873 87.5332 273.554 87.5332C273.181 87.5332 272.868 87.5993 272.618 87.7314C272.367 87.8636 272.167 88.0459 272.016 88.2783C271.866 88.5107 271.756 88.7773 271.688 89.0781C271.624 89.3743 271.592 89.6888 271.592 90.0215ZM276.384 89.3242L275.537 89.584C275.541 89.1784 275.607 88.7887 275.735 88.415C275.867 88.0413 276.056 87.7087 276.302 87.417C276.553 87.1253 276.861 86.8952 277.225 86.7266C277.59 86.5534 278.007 86.4668 278.476 86.4668C278.873 86.4668 279.223 86.5192 279.529 86.624C279.839 86.7288 280.098 86.8906 280.308 87.1094C280.522 87.3236 280.684 87.5993 280.793 87.9365C280.903 88.2738 280.958 88.6748 280.958 89.1396V94H279.686V89.126C279.686 88.7113 279.62 88.39 279.488 88.1621C279.36 87.9297 279.178 87.7679 278.941 87.6768C278.708 87.5811 278.431 87.5332 278.107 87.5332C277.829 87.5332 277.583 87.5811 277.369 87.6768C277.154 87.7725 276.974 87.9046 276.829 88.0732C276.683 88.2373 276.571 88.4264 276.494 88.6406C276.421 88.8548 276.384 89.0827 276.384 89.3242Z" fill="#B5B9BE" />
  <path d="M191.878 66.0469V76H190.559V66.0469H191.878ZM197.887 66.0469L193.751 70.6885L191.427 73.1016L191.208 71.6934L192.958 69.7656L196.301 66.0469H197.887ZM196.616 76L192.931 71.1465L193.717 70.1006L198.188 76H196.616ZM202.05 76.1367C201.535 76.1367 201.068 76.0501 200.649 75.877C200.234 75.6992 199.876 75.4508 199.576 75.1318C199.279 74.8128 199.052 74.4346 198.892 73.9971C198.733 73.5596 198.653 73.0811 198.653 72.5615V72.2744C198.653 71.6729 198.742 71.1374 198.919 70.668C199.097 70.194 199.339 69.793 199.644 69.4648C199.949 69.1367 200.296 68.8883 200.683 68.7197C201.07 68.5511 201.472 68.4668 201.886 68.4668C202.415 68.4668 202.871 68.5579 203.253 68.7402C203.641 68.9225 203.958 69.1777 204.204 69.5059C204.45 69.8294 204.632 70.2122 204.75 70.6543C204.869 71.0918 204.928 71.5703 204.928 72.0898V72.6572H199.405V71.625H203.664V71.5293C203.645 71.2012 203.577 70.8822 203.458 70.5723C203.345 70.2624 203.162 70.0072 202.912 69.8066C202.661 69.6061 202.319 69.5059 201.886 69.5059C201.599 69.5059 201.335 69.5674 201.093 69.6904C200.852 69.8089 200.644 69.9867 200.471 70.2236C200.298 70.4606 200.164 70.75 200.068 71.0918C199.972 71.4336 199.924 71.8278 199.924 72.2744V72.5615C199.924 72.9124 199.972 73.2428 200.068 73.5527C200.168 73.8581 200.312 74.127 200.499 74.3594C200.69 74.5918 200.92 74.7741 201.189 74.9062C201.462 75.0384 201.772 75.1045 202.119 75.1045C202.565 75.1045 202.944 75.0133 203.253 74.8311C203.563 74.6488 203.834 74.4049 204.067 74.0996L204.833 74.708C204.673 74.9495 204.47 75.1797 204.224 75.3984C203.978 75.6172 203.675 75.7949 203.315 75.9316C202.959 76.0684 202.538 76.1367 202.05 76.1367ZM208.387 75.2344L210.445 68.6035H211.798L208.832 77.1416C208.763 77.3239 208.672 77.5199 208.558 77.7295C208.449 77.9437 208.307 78.1465 208.134 78.3379C207.961 78.5293 207.751 78.6842 207.505 78.8027C207.264 78.9258 206.974 78.9873 206.637 78.9873C206.537 78.9873 206.409 78.9736 206.254 78.9463C206.099 78.9189 205.99 78.8962 205.926 78.8779L205.919 77.8525C205.956 77.8571 206.013 77.8617 206.09 77.8662C206.172 77.8753 206.229 77.8799 206.261 77.8799C206.548 77.8799 206.792 77.8411 206.993 77.7637C207.193 77.6908 207.362 77.5654 207.499 77.3877C207.64 77.2145 207.761 76.9753 207.861 76.6699L208.387 75.2344ZM206.876 68.6035L208.797 74.3457L209.125 75.6787L208.216 76.1436L205.496 68.6035H206.876Z" fill="#B5B9BE" />
  <path d="M196.583 42.4844L199.576 44.8594L198.302 45.9766L195.365 43.625L196.583 42.4844ZM199.599 38V38.625C199.599 39.4844 199.487 40.2552 199.263 40.9375C199.039 41.6198 198.719 42.2005 198.302 42.6797C197.886 43.1589 197.388 43.526 196.81 43.7812C196.232 44.0312 195.591 44.1562 194.888 44.1562C194.19 44.1562 193.552 44.0312 192.974 43.7812C192.401 43.526 191.904 43.1589 191.482 42.6797C191.06 42.2005 190.732 41.6198 190.498 40.9375C190.268 40.2552 190.154 39.4844 190.154 38.625V38C190.154 37.1406 190.268 36.3724 190.498 35.6953C190.727 35.013 191.05 34.4323 191.466 33.9531C191.888 33.4688 192.386 33.1016 192.958 32.8516C193.537 32.5964 194.175 32.4688 194.873 32.4688C195.576 32.4688 196.216 32.5964 196.794 32.8516C197.378 33.1016 197.878 33.4688 198.294 33.9531C198.711 34.4323 199.031 35.013 199.255 35.6953C199.485 36.3724 199.599 37.1406 199.599 38ZM197.63 38.625V37.9844C197.63 37.349 197.568 36.7891 197.443 36.3047C197.323 35.8151 197.143 35.4062 196.904 35.0781C196.669 34.7448 196.38 34.4948 196.037 34.3281C195.698 34.1562 195.31 34.0703 194.873 34.0703C194.445 34.0703 194.063 34.1562 193.724 34.3281C193.386 34.4948 193.097 34.7448 192.857 35.0781C192.617 35.4062 192.435 35.8151 192.31 36.3047C192.185 36.7891 192.123 37.349 192.123 37.9844V38.625C192.123 39.2604 192.185 39.8229 192.31 40.3125C192.435 40.8021 192.617 41.2161 192.857 41.5547C193.102 41.888 193.393 42.1406 193.732 42.3125C194.076 42.4792 194.461 42.5625 194.888 42.5625C195.326 42.5625 195.714 42.4792 196.052 42.3125C196.391 42.1406 196.677 41.888 196.912 41.5547C197.146 41.2161 197.323 40.8021 197.443 40.3125C197.568 39.8229 197.63 39.2604 197.63 38.625ZM206.49 42.0078V35.5469H208.38V44H206.599L206.49 42.0078ZM206.755 40.25L207.388 40.2344C207.388 40.8021 207.326 41.3255 207.201 41.8047C207.076 42.2786 206.883 42.6927 206.623 43.0469C206.362 43.3958 206.029 43.6693 205.623 43.8672C205.216 44.0599 204.729 44.1562 204.162 44.1562C203.75 44.1562 203.373 44.0964 203.029 43.9766C202.685 43.8568 202.388 43.6719 202.138 43.4219C201.893 43.1719 201.703 42.8464 201.568 42.4453C201.432 42.0443 201.365 41.5651 201.365 41.0078V35.5469H203.248V41.0234C203.248 41.3307 203.284 41.5885 203.357 41.7969C203.43 42 203.529 42.1641 203.654 42.2891C203.779 42.4141 203.925 42.5026 204.091 42.5547C204.258 42.6068 204.435 42.6328 204.623 42.6328C205.159 42.6328 205.581 42.5286 205.888 42.3203C206.201 42.1068 206.422 41.8203 206.552 41.4609C206.688 41.1016 206.755 40.6979 206.755 40.25ZM212.326 35.5469V44H210.435V35.5469H212.326ZM210.31 33.3281C210.31 33.0417 210.404 32.8047 210.591 32.6172C210.784 32.4245 211.05 32.3281 211.388 32.3281C211.722 32.3281 211.985 32.4245 212.177 32.6172C212.37 32.8047 212.466 33.0417 212.466 33.3281C212.466 33.6094 212.37 33.8438 212.177 34.0312C211.985 34.2188 211.722 34.3125 211.388 34.3125C211.05 34.3125 210.784 34.2188 210.591 34.0312C210.404 33.8438 210.31 33.6094 210.31 33.3281ZM217.841 42.6562C218.149 42.6562 218.425 42.5964 218.669 42.4766C218.919 42.3516 219.12 42.1797 219.271 41.9609C219.427 41.7422 219.513 41.4896 219.529 41.2031H221.302C221.292 41.75 221.13 42.2474 220.818 42.6953C220.505 43.1432 220.091 43.5 219.576 43.7656C219.06 44.026 218.49 44.1562 217.865 44.1562C217.219 44.1562 216.656 44.0469 216.177 43.8281C215.698 43.6042 215.3 43.2969 214.982 42.9062C214.664 42.5156 214.425 42.0651 214.263 41.5547C214.107 41.0443 214.029 40.4974 214.029 39.9141V39.6406C214.029 39.0573 214.107 38.5104 214.263 38C214.425 37.4844 214.664 37.0312 214.982 36.6406C215.3 36.25 215.698 35.9453 216.177 35.7266C216.656 35.5026 217.216 35.3906 217.857 35.3906C218.534 35.3906 219.128 35.526 219.638 35.7969C220.149 36.0625 220.55 36.4349 220.841 36.9141C221.138 37.388 221.292 37.9401 221.302 38.5703H219.529C219.513 38.2578 219.435 37.9766 219.294 37.7266C219.159 37.4714 218.966 37.2682 218.716 37.1172C218.472 36.9661 218.177 36.8906 217.833 36.8906C217.453 36.8906 217.138 36.9688 216.888 37.125C216.638 37.276 216.443 37.4844 216.302 37.75C216.162 38.0104 216.06 38.3047 215.998 38.6328C215.94 38.9557 215.912 39.2917 215.912 39.6406V39.9141C215.912 40.263 215.94 40.6016 215.998 40.9297C216.055 41.2578 216.154 41.5521 216.294 41.8125C216.44 42.0677 216.638 42.2734 216.888 42.4297C217.138 42.5807 217.456 42.6562 217.841 42.6562ZM224.646 32V44H222.755V32H224.646ZM229.896 35.5469L226.216 39.625L224.201 41.6875L223.708 40.0938L225.232 38.2109L227.623 35.5469H229.896ZM228.029 44L225.287 40.0312L226.474 38.7109L230.208 44H228.029ZM238.951 35.5469V36.9219H234.185V35.5469H238.951ZM235.56 33.4766H237.443V41.6641C237.443 41.9245 237.479 42.125 237.552 42.2656C237.63 42.401 237.737 42.4922 237.873 42.5391C238.008 42.5859 238.167 42.6094 238.349 42.6094C238.479 42.6094 238.604 42.6016 238.724 42.5859C238.844 42.5703 238.94 42.5547 239.013 42.5391L239.021 43.9766C238.865 44.0234 238.682 44.0651 238.474 44.1016C238.271 44.138 238.037 44.1562 237.771 44.1562C237.339 44.1562 236.956 44.0807 236.623 43.9297C236.289 43.7734 236.029 43.5208 235.841 43.1719C235.654 42.8229 235.56 42.3594 235.56 41.7812V33.4766ZM242.294 37.1562V44H240.412V35.5469H242.208L242.294 37.1562ZM244.88 35.4922L244.865 37.2422C244.75 37.2214 244.625 37.2057 244.49 37.1953C244.36 37.1849 244.229 37.1797 244.099 37.1797C243.776 37.1797 243.492 37.2266 243.248 37.3203C243.003 37.4089 242.797 37.5391 242.63 37.7109C242.469 37.8776 242.344 38.0807 242.255 38.3203C242.167 38.5599 242.115 38.8281 242.099 39.125L241.669 39.1562C241.669 38.625 241.722 38.1328 241.826 37.6797C241.93 37.2266 242.086 36.8281 242.294 36.4844C242.508 36.1406 242.774 35.8724 243.091 35.6797C243.414 35.487 243.787 35.3906 244.208 35.3906C244.323 35.3906 244.445 35.401 244.576 35.4219C244.711 35.4427 244.813 35.4661 244.88 35.4922ZM250.544 42.3047V38.2734C250.544 37.9714 250.49 37.7109 250.38 37.4922C250.271 37.2734 250.104 37.1042 249.88 36.9844C249.662 36.8646 249.386 36.8047 249.052 36.8047C248.745 36.8047 248.479 36.8568 248.255 36.9609C248.031 37.0651 247.857 37.2057 247.732 37.3828C247.607 37.5599 247.544 37.7604 247.544 37.9844H245.669C245.669 37.651 245.75 37.3281 245.912 37.0156C246.073 36.7031 246.307 36.4245 246.615 36.1797C246.922 35.9349 247.289 35.7422 247.716 35.6016C248.143 35.4609 248.623 35.3906 249.154 35.3906C249.789 35.3906 250.352 35.4974 250.841 35.7109C251.336 35.9245 251.724 36.2474 252.005 36.6797C252.292 37.1068 252.435 37.6432 252.435 38.2891V42.0469C252.435 42.4323 252.461 42.7786 252.513 43.0859C252.57 43.388 252.651 43.651 252.755 43.875V44H250.826C250.737 43.7969 250.667 43.5391 250.615 43.2266C250.568 42.9089 250.544 42.6016 250.544 42.3047ZM250.818 38.8594L250.833 40.0234H249.482C249.133 40.0234 248.826 40.0573 248.56 40.125C248.294 40.1875 248.073 40.2812 247.896 40.4062C247.719 40.5312 247.586 40.6823 247.498 40.8594C247.409 41.0365 247.365 41.237 247.365 41.4609C247.365 41.6849 247.417 41.8906 247.521 42.0781C247.625 42.2604 247.776 42.4036 247.974 42.5078C248.177 42.612 248.422 42.6641 248.708 42.6641C249.094 42.6641 249.43 42.5859 249.716 42.4297C250.008 42.2682 250.237 42.0729 250.404 41.8438C250.57 41.6094 250.659 41.388 250.669 41.1797L251.279 42.0156C251.216 42.2292 251.11 42.4583 250.958 42.7031C250.807 42.9479 250.61 43.1823 250.365 43.4062C250.125 43.625 249.836 43.8047 249.498 43.9453C249.164 44.0859 248.779 44.1562 248.341 44.1562C247.789 44.1562 247.297 44.0469 246.865 43.8281C246.432 43.6042 246.094 43.3047 245.849 42.9297C245.604 42.5495 245.482 42.1198 245.482 41.6406C245.482 41.1927 245.565 40.7969 245.732 40.4531C245.904 40.1042 246.154 39.8125 246.482 39.5781C246.815 39.3438 247.222 39.1667 247.701 39.0469C248.18 38.9219 248.727 38.8594 249.341 38.8594H250.818ZM256.271 37.3516V44H254.388V35.5469H256.162L256.271 37.3516ZM255.935 39.4609L255.326 39.4531C255.331 38.8542 255.414 38.3047 255.576 37.8047C255.742 37.3047 255.972 36.875 256.263 36.5156C256.56 36.1562 256.914 35.8802 257.326 35.6875C257.737 35.4896 258.195 35.3906 258.701 35.3906C259.107 35.3906 259.474 35.4479 259.802 35.5625C260.136 35.6719 260.419 35.8516 260.654 36.1016C260.893 36.3516 261.076 36.6771 261.201 37.0781C261.326 37.474 261.388 37.9609 261.388 38.5391V44H259.498V38.5312C259.498 38.125 259.438 37.8047 259.318 37.5703C259.203 37.3307 259.034 37.1615 258.81 37.0625C258.591 36.9583 258.318 36.9062 257.99 36.9062C257.667 36.9062 257.378 36.974 257.123 37.1094C256.867 37.2448 256.651 37.4297 256.474 37.6641C256.302 37.8984 256.169 38.1693 256.076 38.4766C255.982 38.7839 255.935 39.112 255.935 39.4609ZM268.052 41.7109C268.052 41.5234 268.005 41.3542 267.912 41.2031C267.818 41.0469 267.638 40.9062 267.373 40.7812C267.112 40.6562 266.727 40.5417 266.216 40.4375C265.768 40.3385 265.357 40.2214 264.982 40.0859C264.612 39.9453 264.294 39.776 264.029 39.5781C263.763 39.3802 263.557 39.1458 263.412 38.875C263.266 38.6042 263.193 38.2917 263.193 37.9375C263.193 37.5938 263.268 37.2682 263.419 36.9609C263.57 36.6536 263.787 36.3828 264.068 36.1484C264.349 35.9141 264.69 35.7292 265.091 35.5938C265.498 35.4583 265.951 35.3906 266.451 35.3906C267.159 35.3906 267.766 35.5104 268.271 35.75C268.781 35.9844 269.172 36.3047 269.443 36.7109C269.714 37.112 269.849 37.5651 269.849 38.0703H267.966C267.966 37.8464 267.909 37.638 267.794 37.4453C267.685 37.2474 267.518 37.0885 267.294 36.9688C267.07 36.8438 266.789 36.7812 266.451 36.7812C266.128 36.7812 265.86 36.8333 265.646 36.9375C265.438 37.0365 265.281 37.1667 265.177 37.3281C265.078 37.4896 265.029 37.6667 265.029 37.8594C265.029 38 265.055 38.1276 265.107 38.2422C265.164 38.3516 265.258 38.4531 265.388 38.5469C265.518 38.6354 265.695 38.7188 265.919 38.7969C266.149 38.875 266.435 38.9505 266.779 39.0234C267.425 39.1589 267.979 39.3333 268.443 39.5469C268.912 39.7552 269.271 40.026 269.521 40.3594C269.771 40.6875 269.896 41.1042 269.896 41.6094C269.896 41.9844 269.815 42.3281 269.654 42.6406C269.498 42.9479 269.268 43.2161 268.966 43.4453C268.664 43.6693 268.302 43.8438 267.88 43.9688C267.464 44.0938 266.995 44.1562 266.474 44.1562C265.708 44.1562 265.06 44.0208 264.529 43.75C263.998 43.474 263.594 43.1224 263.318 42.6953C263.047 42.263 262.912 41.8151 262.912 41.3516H264.732C264.753 41.7005 264.849 41.9792 265.021 42.1875C265.198 42.3906 265.417 42.5391 265.677 42.6328C265.943 42.7214 266.216 42.7656 266.498 42.7656C266.836 42.7656 267.12 42.7214 267.349 42.6328C267.578 42.5391 267.753 42.4141 267.873 42.2578C267.992 42.0964 268.052 41.9141 268.052 41.7109ZM273.56 32V44H271.669V32H273.56ZM280.388 42.3047V38.2734C280.388 37.9714 280.333 37.7109 280.224 37.4922C280.115 37.2734 279.948 37.1042 279.724 36.9844C279.505 36.8646 279.229 36.8047 278.896 36.8047C278.589 36.8047 278.323 36.8568 278.099 36.9609C277.875 37.0651 277.701 37.2057 277.576 37.3828C277.451 37.5599 277.388 37.7604 277.388 37.9844H275.513C275.513 37.651 275.594 37.3281 275.755 37.0156C275.917 36.7031 276.151 36.4245 276.458 36.1797C276.766 35.9349 277.133 35.7422 277.56 35.6016C277.987 35.4609 278.466 35.3906 278.998 35.3906C279.633 35.3906 280.195 35.4974 280.685 35.7109C281.18 35.9245 281.568 36.2474 281.849 36.6797C282.136 37.1068 282.279 37.6432 282.279 38.2891V42.0469C282.279 42.4323 282.305 42.7786 282.357 43.0859C282.414 43.388 282.495 43.651 282.599 43.875V44H280.669C280.581 43.7969 280.511 43.5391 280.458 43.2266C280.412 42.9089 280.388 42.6016 280.388 42.3047ZM280.662 38.8594L280.677 40.0234H279.326C278.977 40.0234 278.669 40.0573 278.404 40.125C278.138 40.1875 277.917 40.2812 277.74 40.4062C277.563 40.5312 277.43 40.6823 277.341 40.8594C277.253 41.0365 277.208 41.237 277.208 41.4609C277.208 41.6849 277.261 41.8906 277.365 42.0781C277.469 42.2604 277.62 42.4036 277.818 42.5078C278.021 42.612 278.266 42.6641 278.552 42.6641C278.938 42.6641 279.274 42.5859 279.56 42.4297C279.852 42.2682 280.081 42.0729 280.248 41.8438C280.414 41.6094 280.503 41.388 280.513 41.1797L281.123 42.0156C281.06 42.2292 280.953 42.4583 280.802 42.7031C280.651 42.9479 280.453 43.1823 280.208 43.4062C279.969 43.625 279.68 43.8047 279.341 43.9453C279.008 44.0859 278.623 44.1562 278.185 44.1562C277.633 44.1562 277.141 44.0469 276.708 43.8281C276.276 43.6042 275.938 43.3047 275.693 42.9297C275.448 42.5495 275.326 42.1198 275.326 41.6406C275.326 41.1927 275.409 40.7969 275.576 40.4531C275.748 40.1042 275.998 39.8125 276.326 39.5781C276.659 39.3438 277.065 39.1667 277.544 39.0469C278.024 38.9219 278.57 38.8594 279.185 38.8594H280.662ZM288.123 35.5469V36.9219H283.357V35.5469H288.123ZM284.732 33.4766H286.615V41.6641C286.615 41.9245 286.651 42.125 286.724 42.2656C286.802 42.401 286.909 42.4922 287.044 42.5391C287.18 42.5859 287.339 42.6094 287.521 42.6094C287.651 42.6094 287.776 42.6016 287.896 42.5859C288.016 42.5703 288.112 42.5547 288.185 42.5391L288.193 43.9766C288.037 44.0234 287.854 44.0651 287.646 44.1016C287.443 44.138 287.208 44.1562 286.943 44.1562C286.511 44.1562 286.128 44.0807 285.794 43.9297C285.461 43.7734 285.201 43.5208 285.013 43.1719C284.826 42.8229 284.732 42.3594 284.732 41.7812V33.4766ZM291.591 35.5469V44H289.701V35.5469H291.591ZM289.576 33.3281C289.576 33.0417 289.669 32.8047 289.857 32.6172C290.05 32.4245 290.315 32.3281 290.654 32.3281C290.987 32.3281 291.25 32.4245 291.443 32.6172C291.636 32.8047 291.732 33.0417 291.732 33.3281C291.732 33.6094 291.636 33.8438 291.443 34.0312C291.25 34.2188 290.987 34.3125 290.654 34.3125C290.315 34.3125 290.05 34.2188 289.857 34.0312C289.669 33.8438 289.576 33.6094 289.576 33.3281ZM293.294 39.8672V39.6875C293.294 39.0781 293.383 38.513 293.56 37.9922C293.737 37.4661 293.992 37.0104 294.326 36.625C294.664 36.2344 295.076 35.9323 295.56 35.7188C296.05 35.5 296.602 35.3906 297.216 35.3906C297.836 35.3906 298.388 35.5 298.873 35.7188C299.362 35.9323 299.776 36.2344 300.115 36.625C300.453 37.0104 300.711 37.4661 300.888 37.9922C301.065 38.513 301.154 39.0781 301.154 39.6875V39.8672C301.154 40.4766 301.065 41.0417 300.888 41.5625C300.711 42.0833 300.453 42.5391 300.115 42.9297C299.776 43.3151 299.365 43.6172 298.88 43.8359C298.396 44.0495 297.847 44.1562 297.232 44.1562C296.612 44.1562 296.057 44.0495 295.568 43.8359C295.083 43.6172 294.672 43.3151 294.333 42.9297C293.995 42.5391 293.737 42.0833 293.56 41.5625C293.383 41.0417 293.294 40.4766 293.294 39.8672ZM295.177 39.6875V39.8672C295.177 40.2474 295.216 40.6068 295.294 40.9453C295.373 41.2839 295.495 41.5807 295.662 41.8359C295.828 42.0911 296.042 42.2917 296.302 42.4375C296.563 42.5833 296.873 42.6562 297.232 42.6562C297.581 42.6562 297.883 42.5833 298.138 42.4375C298.399 42.2917 298.612 42.0911 298.779 41.8359C298.945 41.5807 299.068 41.2839 299.146 40.9453C299.229 40.6068 299.271 40.2474 299.271 39.8672V39.6875C299.271 39.3125 299.229 38.9583 299.146 38.625C299.068 38.2865 298.943 37.987 298.771 37.7266C298.604 37.4661 298.391 37.263 298.13 37.1172C297.875 36.9661 297.57 36.8906 297.216 36.8906C296.862 36.8906 296.555 36.9661 296.294 37.1172C296.039 37.263 295.828 37.4661 295.662 37.7266C295.495 37.987 295.373 38.2865 295.294 38.625C295.216 38.9583 295.177 39.3125 295.177 39.6875ZM304.599 37.3516V44H302.716V35.5469H304.49L304.599 37.3516ZM304.263 39.4609L303.654 39.4531C303.659 38.8542 303.742 38.3047 303.904 37.8047C304.07 37.3047 304.3 36.875 304.591 36.5156C304.888 36.1562 305.242 35.8802 305.654 35.6875C306.065 35.4896 306.524 35.3906 307.029 35.3906C307.435 35.3906 307.802 35.4479 308.13 35.5625C308.464 35.6719 308.748 35.8516 308.982 36.1016C309.222 36.3516 309.404 36.6771 309.529 37.0781C309.654 37.474 309.716 37.9609 309.716 38.5391V44H307.826V38.5312C307.826 38.125 307.766 37.8047 307.646 37.5703C307.531 37.3307 307.362 37.1615 307.138 37.0625C306.919 36.9583 306.646 36.9062 306.318 36.9062C305.995 36.9062 305.706 36.974 305.451 37.1094C305.195 37.2448 304.979 37.4297 304.802 37.6641C304.63 37.8984 304.498 38.1693 304.404 38.4766C304.31 38.7839 304.263 39.112 304.263 39.4609Z" fill="#B5B9BE" />
  <rect x="436.404" y="337" width="79" height="28" rx="8" fill="#E66188" />
  <rect x="349.404" y="337" width="79" height="28" rx="8" fill="#24344B" />
  <path d="M198.882 125.927V127H193.612V125.927H198.882ZM193.878 117.047V127H192.559V117.047H193.878ZM198.185 121.326V122.399H193.612V121.326H198.185ZM198.814 117.047V118.127H193.612V117.047H198.814ZM201.589 121.183V127H200.325V119.604H201.521L201.589 121.183ZM201.289 123.021L200.762 123.001C200.767 122.495 200.842 122.028 200.988 121.6C201.134 121.167 201.339 120.791 201.603 120.472C201.867 120.153 202.182 119.907 202.546 119.733C202.916 119.556 203.323 119.467 203.77 119.467C204.135 119.467 204.463 119.517 204.754 119.617C205.046 119.713 205.294 119.868 205.5 120.082C205.709 120.296 205.869 120.574 205.978 120.916C206.087 121.253 206.142 121.666 206.142 122.153V127H204.871V122.14C204.871 121.752 204.814 121.442 204.7 121.21C204.586 120.973 204.419 120.802 204.201 120.697C203.982 120.588 203.713 120.533 203.394 120.533C203.08 120.533 202.792 120.599 202.533 120.731C202.278 120.864 202.056 121.046 201.87 121.278C201.687 121.511 201.544 121.777 201.439 122.078C201.339 122.374 201.289 122.689 201.289 123.021ZM212.855 119.604H214.003V126.843C214.003 127.494 213.871 128.05 213.607 128.511C213.343 128.971 212.973 129.32 212.5 129.557C212.03 129.798 211.488 129.919 210.873 129.919C210.617 129.919 210.317 129.878 209.97 129.796C209.628 129.718 209.291 129.584 208.958 129.393C208.63 129.206 208.355 128.953 208.131 128.634L208.794 127.882C209.104 128.256 209.428 128.515 209.765 128.661C210.107 128.807 210.444 128.88 210.777 128.88C211.178 128.88 211.524 128.805 211.816 128.654C212.108 128.504 212.333 128.281 212.493 127.984C212.657 127.693 212.739 127.333 212.739 126.904V121.23L212.855 119.604ZM207.762 123.384V123.24C207.762 122.675 207.828 122.162 207.96 121.702C208.097 121.237 208.291 120.839 208.542 120.506C208.797 120.173 209.104 119.918 209.464 119.74C209.824 119.558 210.23 119.467 210.681 119.467C211.146 119.467 211.552 119.549 211.898 119.713C212.249 119.872 212.545 120.107 212.787 120.417C213.033 120.722 213.226 121.091 213.368 121.524C213.509 121.957 213.607 122.447 213.662 122.994V123.623C213.611 124.165 213.514 124.653 213.368 125.086C213.226 125.519 213.033 125.888 212.787 126.193C212.545 126.499 212.249 126.733 211.898 126.897C211.547 127.057 211.137 127.137 210.667 127.137C210.225 127.137 209.824 127.043 209.464 126.856C209.109 126.67 208.804 126.408 208.548 126.07C208.293 125.733 208.097 125.337 207.96 124.881C207.828 124.421 207.762 123.922 207.762 123.384ZM209.027 123.24V123.384C209.027 123.753 209.063 124.099 209.136 124.423C209.214 124.746 209.33 125.031 209.485 125.277C209.644 125.523 209.847 125.717 210.093 125.858C210.339 125.995 210.633 126.063 210.975 126.063C211.394 126.063 211.741 125.975 212.014 125.797C212.288 125.619 212.504 125.384 212.664 125.093C212.828 124.801 212.955 124.484 213.046 124.143V122.495C212.996 122.244 212.919 122.003 212.814 121.771C212.714 121.534 212.582 121.324 212.417 121.142C212.258 120.955 212.06 120.807 211.823 120.697C211.586 120.588 211.308 120.533 210.989 120.533C210.642 120.533 210.344 120.606 210.093 120.752C209.847 120.893 209.644 121.089 209.485 121.34C209.33 121.586 209.214 121.873 209.136 122.201C209.063 122.525 209.027 122.871 209.027 123.24ZM217.298 116.5V127H216.027V116.5H217.298ZM220.703 119.604V127H219.431V119.604H220.703ZM219.335 117.642C219.335 117.437 219.397 117.263 219.52 117.122C219.648 116.981 219.834 116.91 220.081 116.91C220.322 116.91 220.507 116.981 220.634 117.122C220.766 117.263 220.833 117.437 220.833 117.642C220.833 117.838 220.766 118.006 220.634 118.147C220.507 118.284 220.322 118.353 220.081 118.353C219.834 118.353 219.648 118.284 219.52 118.147C219.397 118.006 219.335 117.838 219.335 117.642ZM227.04 125.038C227.04 124.856 226.999 124.687 226.917 124.532C226.839 124.373 226.677 124.229 226.431 124.102C226.19 123.969 225.825 123.855 225.337 123.76C224.927 123.673 224.556 123.571 224.223 123.452C223.895 123.334 223.615 123.19 223.382 123.021C223.154 122.853 222.979 122.655 222.856 122.427C222.733 122.199 222.671 121.932 222.671 121.627C222.671 121.335 222.735 121.06 222.863 120.8C222.995 120.54 223.18 120.31 223.417 120.109C223.658 119.909 223.947 119.752 224.285 119.638C224.622 119.524 224.998 119.467 225.413 119.467C226.005 119.467 226.511 119.572 226.93 119.781C227.349 119.991 227.671 120.271 227.894 120.622C228.117 120.968 228.229 121.354 228.229 121.777H226.964C226.964 121.572 226.903 121.374 226.78 121.183C226.661 120.987 226.486 120.825 226.253 120.697C226.026 120.57 225.745 120.506 225.413 120.506C225.062 120.506 224.777 120.561 224.558 120.67C224.344 120.775 224.187 120.909 224.086 121.073C223.991 121.237 223.943 121.41 223.943 121.593C223.943 121.729 223.966 121.853 224.011 121.962C224.061 122.067 224.148 122.165 224.271 122.256C224.394 122.342 224.567 122.424 224.791 122.502C225.014 122.579 225.299 122.657 225.645 122.734C226.251 122.871 226.75 123.035 227.142 123.227C227.534 123.418 227.826 123.653 228.017 123.931C228.208 124.209 228.304 124.546 228.304 124.942C228.304 125.266 228.236 125.562 228.099 125.831C227.967 126.1 227.773 126.332 227.518 126.528C227.267 126.72 226.967 126.87 226.616 126.979C226.269 127.084 225.88 127.137 225.447 127.137C224.795 127.137 224.244 127.021 223.792 126.788C223.341 126.556 223 126.255 222.767 125.886C222.535 125.517 222.418 125.127 222.418 124.717H223.69C223.708 125.063 223.808 125.339 223.991 125.544C224.173 125.744 224.396 125.888 224.661 125.975C224.925 126.057 225.187 126.098 225.447 126.098C225.793 126.098 226.083 126.052 226.315 125.961C226.552 125.87 226.732 125.744 226.855 125.585C226.978 125.425 227.04 125.243 227.04 125.038ZM231.23 116.5V127H229.965V116.5H231.23ZM230.929 123.021L230.403 123.001C230.407 122.495 230.483 122.028 230.628 121.6C230.774 121.167 230.979 120.791 231.244 120.472C231.508 120.153 231.822 119.907 232.187 119.733C232.556 119.556 232.964 119.467 233.411 119.467C233.775 119.467 234.103 119.517 234.395 119.617C234.687 119.713 234.935 119.868 235.14 120.082C235.35 120.296 235.509 120.574 235.619 120.916C235.728 121.253 235.783 121.666 235.783 122.153V127H234.511V122.14C234.511 121.752 234.454 121.442 234.34 121.21C234.226 120.973 234.06 120.802 233.841 120.697C233.623 120.588 233.354 120.533 233.035 120.533C232.72 120.533 232.433 120.599 232.173 120.731C231.918 120.864 231.697 121.046 231.51 121.278C231.328 121.511 231.184 121.777 231.08 122.078C230.979 122.374 230.929 122.689 230.929 123.021Z" fill="#B5B9BE" />
  <rect x="189.904" y="133.5" width="325" height="31" rx="9.5" fill="#37455B" stroke="#687384" />
  <path d="M198.568 186.835H199.88C199.812 187.464 199.632 188.027 199.34 188.523C199.049 189.02 198.636 189.414 198.103 189.706C197.57 189.993 196.904 190.137 196.107 190.137C195.524 190.137 194.993 190.027 194.514 189.809C194.04 189.59 193.632 189.28 193.291 188.879C192.949 188.473 192.684 187.988 192.498 187.423C192.315 186.853 192.224 186.22 192.224 185.522V184.531C192.224 183.834 192.315 183.203 192.498 182.638C192.684 182.068 192.951 181.58 193.297 181.175C193.648 180.769 194.07 180.457 194.562 180.238C195.054 180.02 195.608 179.91 196.223 179.91C196.975 179.91 197.611 180.051 198.13 180.334C198.65 180.617 199.053 181.008 199.34 181.51C199.632 182.007 199.812 182.583 199.88 183.239H198.568C198.504 182.774 198.386 182.376 198.212 182.043C198.039 181.706 197.793 181.446 197.474 181.264C197.155 181.081 196.738 180.99 196.223 180.99C195.781 180.99 195.391 181.075 195.054 181.243C194.722 181.412 194.441 181.651 194.213 181.961C193.99 182.271 193.821 182.642 193.708 183.075C193.594 183.508 193.537 183.989 193.537 184.518V185.522C193.537 186.01 193.587 186.468 193.687 186.896C193.792 187.325 193.949 187.701 194.159 188.024C194.368 188.348 194.635 188.603 194.958 188.79C195.282 188.972 195.665 189.063 196.107 189.063C196.667 189.063 197.114 188.975 197.447 188.797C197.779 188.619 198.03 188.364 198.199 188.031C198.372 187.699 198.495 187.3 198.568 186.835ZM206.997 188.961V190H201.617V188.961H206.997ZM206.798 183.499L201.904 190H201.131V189.07L205.992 182.604H206.798V183.499ZM206.238 182.604V183.649H201.186V182.604H206.238ZM211.392 190.137C210.877 190.137 210.41 190.05 209.991 189.877C209.576 189.699 209.218 189.451 208.917 189.132C208.621 188.813 208.393 188.435 208.234 187.997C208.074 187.56 207.995 187.081 207.995 186.562V186.274C207.995 185.673 208.083 185.137 208.261 184.668C208.439 184.194 208.681 183.793 208.986 183.465C209.291 183.137 209.638 182.888 210.025 182.72C210.412 182.551 210.813 182.467 211.228 182.467C211.757 182.467 212.212 182.558 212.595 182.74C212.983 182.923 213.299 183.178 213.545 183.506C213.792 183.829 213.974 184.212 214.092 184.654C214.211 185.092 214.27 185.57 214.27 186.09V186.657H208.747V185.625H213.005V185.529C212.987 185.201 212.919 184.882 212.8 184.572C212.686 184.262 212.504 184.007 212.253 183.807C212.003 183.606 211.661 183.506 211.228 183.506C210.941 183.506 210.677 183.567 210.435 183.69C210.194 183.809 209.986 183.987 209.813 184.224C209.64 184.461 209.505 184.75 209.41 185.092C209.314 185.434 209.266 185.828 209.266 186.274V186.562C209.266 186.912 209.314 187.243 209.41 187.553C209.51 187.858 209.653 188.127 209.84 188.359C210.032 188.592 210.262 188.774 210.531 188.906C210.804 189.038 211.114 189.104 211.46 189.104C211.907 189.104 212.285 189.013 212.595 188.831C212.905 188.649 213.176 188.405 213.409 188.1L214.174 188.708C214.015 188.95 213.812 189.18 213.566 189.398C213.32 189.617 213.017 189.795 212.657 189.932C212.301 190.068 211.88 190.137 211.392 190.137ZM218.707 189.098C219.007 189.098 219.285 189.036 219.541 188.913C219.796 188.79 220.005 188.621 220.169 188.407C220.333 188.188 220.427 187.94 220.45 187.662H221.653C221.63 188.1 221.482 188.507 221.208 188.886C220.94 189.259 220.586 189.562 220.149 189.795C219.711 190.023 219.231 190.137 218.707 190.137C218.151 190.137 217.665 190.039 217.25 189.843C216.84 189.647 216.499 189.378 216.225 189.036C215.956 188.694 215.753 188.302 215.617 187.86C215.485 187.414 215.418 186.942 215.418 186.445V186.158C215.418 185.661 215.485 185.192 215.617 184.75C215.753 184.303 215.956 183.909 216.225 183.567C216.499 183.226 216.84 182.957 217.25 182.761C217.665 182.565 218.151 182.467 218.707 182.467C219.285 182.467 219.791 182.585 220.224 182.822C220.657 183.055 220.997 183.374 221.243 183.779C221.493 184.18 221.63 184.636 221.653 185.146H220.45C220.427 184.841 220.34 184.565 220.19 184.319C220.044 184.073 219.844 183.877 219.588 183.731C219.338 183.581 219.044 183.506 218.707 183.506C218.319 183.506 217.993 183.583 217.729 183.738C217.469 183.889 217.262 184.094 217.107 184.354C216.957 184.609 216.847 184.894 216.779 185.208C216.715 185.518 216.683 185.835 216.683 186.158V186.445C216.683 186.769 216.715 187.088 216.779 187.402C216.843 187.717 216.95 188.002 217.1 188.257C217.255 188.512 217.462 188.717 217.722 188.872C217.986 189.022 218.315 189.098 218.707 189.098ZM224.339 179.5V190H223.075V179.5H224.339ZM224.039 186.021L223.512 186.001C223.517 185.495 223.592 185.028 223.738 184.6C223.884 184.167 224.089 183.791 224.353 183.472C224.617 183.153 224.932 182.907 225.296 182.733C225.666 182.556 226.073 182.467 226.52 182.467C226.885 182.467 227.213 182.517 227.504 182.617C227.796 182.713 228.044 182.868 228.25 183.082C228.459 183.296 228.619 183.574 228.728 183.916C228.837 184.253 228.892 184.666 228.892 185.153V190H227.621V185.14C227.621 184.752 227.564 184.442 227.45 184.21C227.336 183.973 227.169 183.802 226.951 183.697C226.732 183.588 226.463 183.533 226.144 183.533C225.83 183.533 225.542 183.599 225.283 183.731C225.028 183.864 224.806 184.046 224.62 184.278C224.437 184.511 224.294 184.777 224.189 185.078C224.089 185.374 224.039 185.689 224.039 186.021Z" fill="#B5B9BE" />
  <rect x="189.904" y="196.5" width="325" height="31" rx="9.5" fill="#37455B" stroke="#687384" />
  <path d="M196.864 253.484C196.864 253.252 196.827 253.047 196.754 252.869C196.686 252.687 196.563 252.523 196.385 252.377C196.212 252.231 195.971 252.092 195.661 251.96C195.355 251.828 194.968 251.693 194.499 251.557C194.006 251.411 193.562 251.249 193.166 251.071C192.769 250.889 192.43 250.682 192.147 250.449C191.864 250.217 191.648 249.95 191.498 249.649C191.347 249.349 191.272 249.005 191.272 248.617C191.272 248.23 191.352 247.872 191.511 247.544C191.671 247.216 191.899 246.931 192.195 246.689C192.496 246.443 192.853 246.252 193.268 246.115C193.683 245.979 194.145 245.91 194.656 245.91C195.403 245.91 196.037 246.054 196.556 246.341C197.08 246.623 197.479 246.995 197.752 247.455C198.026 247.911 198.163 248.398 198.163 248.918H196.85C196.85 248.544 196.77 248.214 196.611 247.927C196.451 247.635 196.21 247.407 195.886 247.243C195.563 247.075 195.153 246.99 194.656 246.99C194.186 246.99 193.799 247.061 193.494 247.202C193.188 247.343 192.96 247.535 192.81 247.776C192.664 248.018 192.591 248.294 192.591 248.604C192.591 248.813 192.635 249.005 192.721 249.178C192.812 249.346 192.951 249.504 193.138 249.649C193.33 249.795 193.571 249.93 193.863 250.053C194.159 250.176 194.512 250.294 194.922 250.408C195.487 250.568 195.975 250.745 196.385 250.941C196.795 251.137 197.133 251.358 197.397 251.604C197.666 251.846 197.864 252.122 197.992 252.432C198.124 252.737 198.19 253.083 198.19 253.471C198.19 253.876 198.108 254.243 197.944 254.571C197.78 254.899 197.545 255.18 197.24 255.412C196.934 255.645 196.568 255.825 196.139 255.952C195.715 256.075 195.241 256.137 194.717 256.137C194.257 256.137 193.804 256.073 193.357 255.945C192.915 255.818 192.512 255.626 192.147 255.371C191.787 255.116 191.498 254.801 191.279 254.428C191.065 254.049 190.958 253.612 190.958 253.115H192.27C192.27 253.457 192.336 253.751 192.468 253.997C192.6 254.239 192.78 254.439 193.008 254.599C193.241 254.758 193.503 254.877 193.794 254.954C194.091 255.027 194.398 255.063 194.717 255.063C195.178 255.063 195.567 255 195.886 254.872C196.205 254.744 196.447 254.562 196.611 254.325C196.779 254.088 196.864 253.808 196.864 253.484ZM202.64 255.098C202.941 255.098 203.219 255.036 203.474 254.913C203.729 254.79 203.939 254.621 204.103 254.407C204.267 254.188 204.361 253.94 204.383 253.662H205.586C205.564 254.1 205.416 254.507 205.142 254.886C204.873 255.259 204.52 255.562 204.083 255.795C203.645 256.023 203.164 256.137 202.64 256.137C202.084 256.137 201.599 256.039 201.184 255.843C200.774 255.647 200.432 255.378 200.159 255.036C199.89 254.694 199.687 254.302 199.55 253.86C199.418 253.414 199.352 252.942 199.352 252.445V252.158C199.352 251.661 199.418 251.192 199.55 250.75C199.687 250.303 199.89 249.909 200.159 249.567C200.432 249.226 200.774 248.957 201.184 248.761C201.599 248.565 202.084 248.467 202.64 248.467C203.219 248.467 203.725 248.585 204.158 248.822C204.591 249.055 204.93 249.374 205.176 249.779C205.427 250.18 205.564 250.636 205.586 251.146H204.383C204.361 250.841 204.274 250.565 204.124 250.319C203.978 250.073 203.777 249.877 203.522 249.731C203.271 249.581 202.977 249.506 202.64 249.506C202.253 249.506 201.927 249.583 201.663 249.738C201.403 249.889 201.195 250.094 201.041 250.354C200.89 250.609 200.781 250.894 200.712 251.208C200.649 251.518 200.617 251.835 200.617 252.158V252.445C200.617 252.769 200.649 253.088 200.712 253.402C200.776 253.717 200.883 254.002 201.034 254.257C201.189 254.512 201.396 254.717 201.656 254.872C201.92 255.022 202.248 255.098 202.64 255.098ZM208.273 249.766V256H207.008V248.604H208.239L208.273 249.766ZM210.583 248.562L210.577 249.738C210.472 249.715 210.372 249.702 210.276 249.697C210.185 249.688 210.08 249.684 209.961 249.684C209.67 249.684 209.412 249.729 209.189 249.82C208.966 249.911 208.777 250.039 208.622 250.203C208.467 250.367 208.344 250.563 208.252 250.791C208.166 251.014 208.109 251.26 208.082 251.529L207.726 251.734C207.726 251.288 207.769 250.868 207.856 250.477C207.947 250.085 208.086 249.738 208.273 249.438C208.46 249.132 208.697 248.895 208.984 248.727C209.276 248.553 209.622 248.467 210.023 248.467C210.114 248.467 210.219 248.478 210.337 248.501C210.456 248.519 210.538 248.54 210.583 248.562ZM214.685 256.137C214.17 256.137 213.703 256.05 213.284 255.877C212.869 255.699 212.511 255.451 212.21 255.132C211.914 254.813 211.686 254.435 211.527 253.997C211.367 253.56 211.288 253.081 211.288 252.562V252.274C211.288 251.673 211.376 251.137 211.554 250.668C211.732 250.194 211.973 249.793 212.279 249.465C212.584 249.137 212.931 248.888 213.318 248.72C213.705 248.551 214.106 248.467 214.521 248.467C215.05 248.467 215.505 248.558 215.888 248.74C216.276 248.923 216.592 249.178 216.838 249.506C217.084 249.829 217.267 250.212 217.385 250.654C217.504 251.092 217.563 251.57 217.563 252.09V252.657H212.04V251.625H216.298V251.529C216.28 251.201 216.212 250.882 216.093 250.572C215.979 250.262 215.797 250.007 215.546 249.807C215.296 249.606 214.954 249.506 214.521 249.506C214.234 249.506 213.97 249.567 213.728 249.69C213.486 249.809 213.279 249.987 213.106 250.224C212.933 250.461 212.798 250.75 212.703 251.092C212.607 251.434 212.559 251.828 212.559 252.274V252.562C212.559 252.912 212.607 253.243 212.703 253.553C212.803 253.858 212.946 254.127 213.133 254.359C213.325 254.592 213.555 254.774 213.824 254.906C214.097 255.038 214.407 255.104 214.753 255.104C215.2 255.104 215.578 255.013 215.888 254.831C216.198 254.649 216.469 254.405 216.702 254.1L217.467 254.708C217.308 254.95 217.105 255.18 216.859 255.398C216.613 255.617 216.31 255.795 215.95 255.932C215.594 256.068 215.173 256.137 214.685 256.137ZM222.109 256.137C221.594 256.137 221.127 256.05 220.708 255.877C220.293 255.699 219.935 255.451 219.634 255.132C219.338 254.813 219.11 254.435 218.951 253.997C218.791 253.56 218.711 253.081 218.711 252.562V252.274C218.711 251.673 218.8 251.137 218.978 250.668C219.156 250.194 219.397 249.793 219.703 249.465C220.008 249.137 220.354 248.888 220.742 248.72C221.129 248.551 221.53 248.467 221.945 248.467C222.473 248.467 222.929 248.558 223.312 248.74C223.699 248.923 224.016 249.178 224.262 249.506C224.508 249.829 224.691 250.212 224.809 250.654C224.928 251.092 224.987 251.57 224.987 252.09V252.657H219.463V251.625H223.722V251.529C223.704 251.201 223.636 250.882 223.517 250.572C223.403 250.262 223.221 250.007 222.97 249.807C222.72 249.606 222.378 249.506 221.945 249.506C221.658 249.506 221.393 249.567 221.152 249.69C220.91 249.809 220.703 249.987 220.53 250.224C220.357 250.461 220.222 250.75 220.126 251.092C220.031 251.434 219.983 251.828 219.983 252.274V252.562C219.983 252.912 220.031 253.243 220.126 253.553C220.227 253.858 220.37 254.127 220.557 254.359C220.749 254.592 220.979 254.774 221.248 254.906C221.521 255.038 221.831 255.104 222.177 255.104C222.624 255.104 223.002 255.013 223.312 254.831C223.622 254.649 223.893 254.405 224.125 254.1L224.891 254.708C224.732 254.95 224.529 255.18 224.283 255.398C224.037 255.617 223.734 255.795 223.374 255.932C223.018 256.068 222.597 256.137 222.109 256.137ZM227.728 250.183V256H226.463V248.604H227.66L227.728 250.183ZM227.427 252.021L226.901 252.001C226.905 251.495 226.981 251.028 227.126 250.6C227.272 250.167 227.477 249.791 227.742 249.472C228.006 249.153 228.32 248.907 228.685 248.733C229.054 248.556 229.462 248.467 229.909 248.467C230.273 248.467 230.601 248.517 230.893 248.617C231.185 248.713 231.433 248.868 231.638 249.082C231.848 249.296 232.007 249.574 232.117 249.916C232.226 250.253 232.281 250.666 232.281 251.153V256H231.009V251.14C231.009 250.752 230.952 250.442 230.838 250.21C230.724 249.973 230.558 249.802 230.339 249.697C230.121 249.588 229.852 249.533 229.533 249.533C229.218 249.533 228.931 249.599 228.671 249.731C228.416 249.864 228.195 250.046 228.008 250.278C227.826 250.511 227.682 250.777 227.578 251.078C227.477 251.374 227.427 251.689 227.427 252.021ZM238.508 254.038C238.508 253.856 238.467 253.687 238.385 253.532C238.308 253.373 238.146 253.229 237.9 253.102C237.658 252.969 237.294 252.855 236.806 252.76C236.396 252.673 236.025 252.571 235.692 252.452C235.364 252.334 235.083 252.19 234.851 252.021C234.623 251.853 234.448 251.655 234.325 251.427C234.202 251.199 234.14 250.932 234.14 250.627C234.14 250.335 234.204 250.06 234.332 249.8C234.464 249.54 234.648 249.31 234.885 249.109C235.127 248.909 235.416 248.752 235.753 248.638C236.091 248.524 236.467 248.467 236.881 248.467C237.474 248.467 237.98 248.572 238.399 248.781C238.818 248.991 239.139 249.271 239.363 249.622C239.586 249.968 239.698 250.354 239.698 250.777H238.433C238.433 250.572 238.372 250.374 238.249 250.183C238.13 249.987 237.955 249.825 237.722 249.697C237.494 249.57 237.214 249.506 236.881 249.506C236.53 249.506 236.246 249.561 236.027 249.67C235.813 249.775 235.655 249.909 235.555 250.073C235.459 250.237 235.412 250.41 235.412 250.593C235.412 250.729 235.434 250.853 235.48 250.962C235.53 251.067 235.617 251.165 235.74 251.256C235.863 251.342 236.036 251.424 236.259 251.502C236.483 251.579 236.767 251.657 237.114 251.734C237.72 251.871 238.219 252.035 238.611 252.227C239.003 252.418 239.294 252.653 239.486 252.931C239.677 253.209 239.773 253.546 239.773 253.942C239.773 254.266 239.705 254.562 239.568 254.831C239.436 255.1 239.242 255.332 238.987 255.528C238.736 255.72 238.435 255.87 238.084 255.979C237.738 256.084 237.348 256.137 236.916 256.137C236.264 256.137 235.712 256.021 235.261 255.788C234.81 255.556 234.468 255.255 234.236 254.886C234.003 254.517 233.887 254.127 233.887 253.717H235.159C235.177 254.063 235.277 254.339 235.459 254.544C235.642 254.744 235.865 254.888 236.129 254.975C236.394 255.057 236.656 255.098 236.916 255.098C237.262 255.098 237.551 255.052 237.784 254.961C238.021 254.87 238.201 254.744 238.324 254.585C238.447 254.425 238.508 254.243 238.508 254.038ZM242.699 245.5V256H241.434V245.5H242.699ZM242.398 252.021L241.872 252.001C241.876 251.495 241.951 251.028 242.097 250.6C242.243 250.167 242.448 249.791 242.712 249.472C242.977 249.153 243.291 248.907 243.656 248.733C244.025 248.556 244.433 248.467 244.879 248.467C245.244 248.467 245.572 248.517 245.864 248.617C246.155 248.713 246.404 248.868 246.609 249.082C246.819 249.296 246.978 249.574 247.087 249.916C247.197 250.253 247.251 250.666 247.251 251.153V256H245.98V251.14C245.98 250.752 245.923 250.442 245.809 250.21C245.695 249.973 245.529 249.802 245.31 249.697C245.091 249.588 244.822 249.533 244.503 249.533C244.189 249.533 243.902 249.599 243.642 249.731C243.387 249.864 243.166 250.046 242.979 250.278C242.797 250.511 242.653 250.777 242.548 251.078C242.448 251.374 242.398 251.689 242.398 252.021ZM248.81 252.384V252.227C248.81 251.693 248.888 251.199 249.042 250.743C249.197 250.283 249.421 249.884 249.712 249.547C250.004 249.205 250.357 248.941 250.772 248.754C251.187 248.562 251.652 248.467 252.167 248.467C252.686 248.467 253.153 248.562 253.568 248.754C253.987 248.941 254.343 249.205 254.634 249.547C254.931 249.884 255.156 250.283 255.311 250.743C255.466 251.199 255.543 251.693 255.543 252.227V252.384C255.543 252.917 255.466 253.411 255.311 253.867C255.156 254.323 254.931 254.722 254.634 255.063C254.343 255.401 253.989 255.665 253.575 255.856C253.165 256.043 252.7 256.137 252.18 256.137C251.661 256.137 251.194 256.043 250.779 255.856C250.364 255.665 250.009 255.401 249.712 255.063C249.421 254.722 249.197 254.323 249.042 253.867C248.888 253.411 248.81 252.917 248.81 252.384ZM250.075 252.227V252.384C250.075 252.753 250.118 253.102 250.205 253.43C250.291 253.753 250.421 254.04 250.594 254.291C250.772 254.542 250.993 254.74 251.257 254.886C251.522 255.027 251.829 255.098 252.18 255.098C252.527 255.098 252.83 255.027 253.089 254.886C253.354 254.74 253.572 254.542 253.746 254.291C253.919 254.04 254.049 253.753 254.135 253.43C254.226 253.102 254.272 252.753 254.272 252.384V252.227C254.272 251.862 254.226 251.518 254.135 251.194C254.049 250.866 253.917 250.577 253.739 250.326C253.566 250.071 253.347 249.87 253.083 249.725C252.823 249.579 252.517 249.506 252.167 249.506C251.82 249.506 251.515 249.579 251.25 249.725C250.991 249.87 250.772 250.071 250.594 250.326C250.421 250.577 250.291 250.866 250.205 251.194C250.118 251.518 250.075 251.862 250.075 252.227ZM260.226 248.604V249.574H256.227V248.604H260.226ZM257.581 246.806H258.845V254.168C258.845 254.419 258.884 254.608 258.961 254.735C259.039 254.863 259.139 254.947 259.262 254.988C259.385 255.029 259.517 255.05 259.659 255.05C259.764 255.05 259.873 255.041 259.987 255.022C260.105 255 260.194 254.981 260.253 254.968L260.26 256C260.16 256.032 260.028 256.062 259.864 256.089C259.704 256.121 259.511 256.137 259.283 256.137C258.973 256.137 258.688 256.075 258.428 255.952C258.168 255.829 257.961 255.624 257.806 255.337C257.656 255.045 257.581 254.653 257.581 254.161V246.806ZM266.016 254.038C266.016 253.856 265.975 253.687 265.893 253.532C265.816 253.373 265.654 253.229 265.408 253.102C265.166 252.969 264.802 252.855 264.314 252.76C263.904 252.673 263.532 252.571 263.2 252.452C262.872 252.334 262.591 252.19 262.359 252.021C262.131 251.853 261.956 251.655 261.833 251.427C261.709 251.199 261.648 250.932 261.648 250.627C261.648 250.335 261.712 250.06 261.839 249.8C261.972 249.54 262.156 249.31 262.393 249.109C262.635 248.909 262.924 248.752 263.261 248.638C263.598 248.524 263.974 248.467 264.389 248.467C264.982 248.467 265.487 248.572 265.907 248.781C266.326 248.991 266.647 249.271 266.871 249.622C267.094 249.968 267.206 250.354 267.206 250.777H265.941C265.941 250.572 265.879 250.374 265.756 250.183C265.638 249.987 265.462 249.825 265.23 249.697C265.002 249.57 264.722 249.506 264.389 249.506C264.038 249.506 263.753 249.561 263.535 249.67C263.32 249.775 263.163 249.909 263.063 250.073C262.967 250.237 262.919 250.41 262.919 250.593C262.919 250.729 262.942 250.853 262.988 250.962C263.038 251.067 263.125 251.165 263.248 251.256C263.371 251.342 263.544 251.424 263.767 251.502C263.99 251.579 264.275 251.657 264.622 251.734C265.228 251.871 265.727 252.035 266.119 252.227C266.511 252.418 266.802 252.653 266.994 252.931C267.185 253.209 267.281 253.546 267.281 253.942C267.281 254.266 267.212 254.562 267.076 254.831C266.944 255.1 266.75 255.332 266.495 255.528C266.244 255.72 265.943 255.87 265.592 255.979C265.246 256.084 264.856 256.137 264.423 256.137C263.772 256.137 263.22 256.021 262.769 255.788C262.318 255.556 261.976 255.255 261.744 254.886C261.511 254.517 261.395 254.127 261.395 253.717H262.667C262.685 254.063 262.785 254.339 262.967 254.544C263.15 254.744 263.373 254.888 263.637 254.975C263.902 255.057 264.164 255.098 264.423 255.098C264.77 255.098 265.059 255.052 265.292 254.961C265.528 254.87 265.708 254.744 265.832 254.585C265.955 254.425 266.016 254.243 266.016 254.038Z" fill="#B5B9BE" />
  <rect x="189.904" y="264.5" width="325" height="55" rx="9.5" fill="#37455B" stroke="#687384" stroke-dasharray="2 2" />
  <path d="M348.404 282L346.574 284H343.404C342.304 284 341.404 284.9 341.404 286V298C341.404 299.1 342.304 300 343.404 300H359.404C360.504 300 361.404 299.1 361.404 298V286C361.404 284.9 360.504 284 359.404 284H356.234L354.404 282H348.404ZM351.404 297C348.644 297 346.404 294.76 346.404 292C346.404 289.24 348.644 287 351.404 287C354.164 287 356.404 289.24 356.404 292C356.404 294.76 354.164 297 351.404 297Z" fill="#D1D3D8" />
  <defs>
    <filter id="filter0_d_737_4408" x="0" y="62" width="386" height="290" filterUnits="userSpaceOnUse" color-interpolation-filters="sRGB">
      <feFlood flood-opacity="0" result="BackgroundImageFix" />
      <feColorMatrix in="SourceAlpha" type="matrix" values="0 0 0 0 0 0 0 0 0 0 0 0 0 0 0 0 0 0 127 0" result="hardAlpha" />
      <feOffset />
      <feGaussianBlur stdDeviation="5" />
      <feComposite in2="hardAlpha" operator="out" />
      <feColorMatrix type="matrix" values="0 0 0 0 0 0 0 0 0 0 0 0 0 0 0 0 0 0 0.25 0" />
      <feBlend mode="normal" in2="BackgroundImageFix" result="effect1_dropShadow_737_4408" />
      <feBlend mode="normal" in="SourceGraphic" in2="effect1_dropShadow_737_4408" result="shape" />
    </filter>
    <filter id="filter1_d_737_4408" x="118" y="0" width="427.404" height="397" filterUnits="userSpaceOnUse" color-interpolation-filters="sRGB">
      <feFlood flood-opacity="0" result="BackgroundImageFix" />
      <feColorMatrix in="SourceAlpha" type="matrix" values="0 0 0 0 0 0 0 0 0 0 0 0 0 0 0 0 0 0 127 0" result="hardAlpha" />
      <feOffset />
      <feGaussianBlur stdDeviation="5" />
      <feComposite in2="hardAlpha" operator="out" />
      <feColorMatrix type="matrix" values="0 0 0 0 0 0 0 0 0 0 0 0 0 0 0 0 0 0 0.25 0" />
      <feBlend mode="normal" in2="BackgroundImageFix" result="effect1_dropShadow_737_4408" />
      <feBlend mode="normal" in="SourceGraphic" in2="effect1_dropShadow_737_4408" result="shape" />
    </filter>
  </defs>
</svg>
  