<svg width="583" height="317" viewBox="0 0 583 317" fill="none" xmlns="http://www.w3.org/2000/svg">
    <g filter="url(#filter0_d_546_10487)">
        <path d="M183 16C183 12.6863 185.686 10 189 10H566.432C569.745 10 572.432 12.6863 572.432 16V258.283C572.432 261.597 569.745 264.283 566.432 264.283H189C185.686 264.283 183 261.597 183 258.283V16Z" fill="white"/>
    </g>
    <rect x="324.51" y="31.2621" width="95.7619" height="7.44814" rx="3.72407" fill="#EBEDF0"/>
    <rect x="324.51" y="194.057" width="95.7619" height="7.44814" rx="3.72407" fill="#EBEDF0"/>
    <rect width="69.1614" height="64.9053" rx="8" transform="matrix(-1 0 0 1 393.672 115.32)" fill="#EBEDF0"/>
    <rect width="70.2254" height="64.9053" rx="8" transform="matrix(-1 0 0 1 472.409 115.32)" fill="#EBEDF0"/>
    <rect width="69.1614" height="64.9053" rx="8" transform="matrix(-1 0 0 1 550.081 115.32)" fill="#EBEDF0"/>
    <rect x="324.51" y="46.1582" width="225.572" height="7.44814" rx="3.72407" fill="#EBEDF0"/>
    <rect x="324.51" y="58.9265" width="225.572" height="7.44814" rx="3.72407" fill="#EBEDF0"/>
    <rect x="324.51" y="72.759" width="225.572" height="7.44814" rx="3.72407" fill="#EBEDF0"/>
    <rect x="324.51" y="87.6554" width="225.572" height="7.44814" rx="3.72407" fill="#EBEDF0"/>
    <rect x="324.51" y="208.954" width="225.572" height="7.44814" rx="3.72407" fill="#EBEDF0"/>
    <rect x="324.51" y="223.85" width="225.572" height="7.44814" rx="3.72407" fill="#EBEDF0"/>
    <rect x="324.51" y="236.618" width="225.572" height="7.44814" rx="3.72407" fill="#EBEDF0"/>
    <rect x="206.398" y="31.2625" width="67.0333" height="7.44814" rx="3.72407" fill="#EBEDF0"/>
    <rect x="206.398" y="45.0947" width="67.0333" height="7.44814" rx="3.72407" fill="#EBEDF0"/>
    <rect x="206.402" y="58.927" width="84.0576" height="7.44814" rx="3.72407" fill="#EBEDF0"/>
    <rect x="206.402" y="72.759" width="84.0576" height="7.44814" rx="3.72407" fill="#EBEDF0"/>
    <path d="M206.402 90.3154C206.402 88.2586 208.07 86.5913 210.126 86.5913H251.623C253.68 86.5913 255.347 88.2586 255.347 90.3154C255.347 92.3721 253.68 94.0395 251.623 94.0395H210.126C208.07 94.0395 206.402 92.3721 206.402 90.3154Z" fill="#EBEDF0"/>
    <path d="M204.04 232.318C210.229 240.1 225.481 271.407 213.588 280.579C197.142 293.261 178.118 258.211 174.629 248.004L204.04 232.318Z" fill="#D6D6D6"/>
    <path d="M205.761 231.022C205.761 231.022 203.445 232.81 199.767 235.279C193.093 239.759 181.938 246.462 172.05 248.663C172.05 248.663 171.029 246.622 169.473 243.545L165.998 236.661C163.906 232.499 161.583 227.88 159.599 223.921L157.29 219.288C156.863 218.434 156.479 217.659 156.153 216.986C150.362 205.252 143.884 177.607 162.907 175.768C164.533 175.6 166.17 175.566 167.801 175.667H167.88C168.329 175.703 168.763 175.747 169.191 175.805L169.553 175.855L170.19 175.971C170.443 176.014 170.696 176.072 170.913 176.13C171.131 176.188 171.304 176.224 171.492 176.282L171.76 176.347L172.31 176.528C172.485 176.581 172.657 176.644 172.824 176.717C173 176.769 173.172 176.834 173.338 176.912C173.538 176.988 173.734 177.075 173.925 177.173C174.1 177.246 174.272 177.328 174.439 177.419C174.666 177.525 174.883 177.641 175.09 177.766C175.278 177.868 175.459 177.976 175.633 178.085L176.082 178.382C176.609 178.732 177.117 179.111 177.602 179.518C177.812 179.692 178.015 179.858 178.21 180.046C178.869 180.644 179.495 181.277 180.085 181.943C180.28 182.167 180.483 182.399 180.679 182.667C180.874 182.935 180.983 183.036 181.135 183.224C181.381 183.528 181.627 183.847 181.858 184.18C182.025 184.39 182.184 184.614 182.343 184.839C182.59 185.179 182.836 185.562 183.067 185.895C183.299 186.228 183.451 186.453 183.639 186.757L184.233 187.698C184.435 188.016 184.631 188.342 184.834 188.682C185.297 189.442 185.753 190.246 186.216 191.078C186.361 191.353 186.52 191.636 186.672 191.918C186.824 192.2 187.085 192.685 187.295 193.084C187.505 193.482 187.7 193.807 187.896 194.227C188.091 194.647 188.352 195.103 188.583 195.559C189.061 196.5 189.539 197.449 190.031 198.404C195.489 209.313 201.063 221.112 203.85 227.084C205.081 229.545 205.761 231.022 205.761 231.022Z" fill="#F4A5B8"/>
    <path d="M190.103 198.397C184.775 198.585 179.732 200.85 176.053 204.709C175.542 205.244 175.059 205.804 174.605 206.388C170.004 212.07 164.05 216.505 157.29 219.288C156.863 218.434 156.479 217.659 156.153 216.986C150.362 205.252 143.884 177.607 162.907 175.768C164.533 175.6 166.17 175.566 167.801 175.667H167.88C168.329 175.703 168.763 175.747 169.191 175.805L169.553 175.855L170.19 175.971C170.443 176.014 170.696 176.072 170.913 176.13C171.131 176.188 171.304 176.224 171.492 176.282L171.76 176.347L172.31 176.528C172.485 176.581 172.657 176.644 172.824 176.717C173 176.769 173.172 176.834 173.338 176.912C173.538 176.988 173.734 177.075 173.925 177.173C174.1 177.246 174.272 177.328 174.439 177.419C174.666 177.525 174.883 177.641 175.09 177.766C175.278 177.868 175.459 177.976 175.633 178.085L176.082 178.382C176.609 178.732 177.117 179.111 177.602 179.518C177.812 179.692 178.015 179.858 178.21 180.046C178.869 180.644 179.495 181.277 180.085 181.943C180.28 182.167 180.483 182.399 180.679 182.667C180.874 182.935 180.983 183.036 181.135 183.224C181.381 183.528 181.627 183.847 181.858 184.18C182.025 184.39 182.184 184.614 182.343 184.839C182.59 185.179 182.836 185.562 183.067 185.895C183.299 186.228 183.451 186.453 183.639 186.757L184.233 187.698C184.435 188.016 184.631 188.342 184.834 188.682C185.297 189.442 185.753 190.246 186.216 191.078C186.361 191.353 186.52 191.636 186.672 191.918C186.824 192.2 187.085 192.685 187.295 193.084C187.505 193.482 187.7 193.807 187.896 194.227C188.091 194.647 188.352 195.103 188.583 195.559C189.155 196.493 189.633 197.441 190.103 198.397Z" fill="#FFB7C8"/>
    <path d="M199.769 235.279C193.095 239.759 181.94 246.463 172.051 248.663C172.051 248.663 171.031 246.622 169.474 243.545L166 236.661C163.908 232.499 161.584 227.881 159.601 223.921L170.908 212.925C171.349 212.759 180 213.2 177.328 220.454C174.657 227.707 169.945 232.564 173.789 235.51C177.632 238.456 188.737 214.699 198.531 232.296C199.064 233.236 199.48 234.237 199.769 235.279Z" fill="#E38BA1"/>
    <path d="M177.274 193.539C177.274 193.923 177.274 194.314 177.216 194.719C177.093 196.739 176.869 199.005 176.565 201.553C176.456 202.516 176.282 203.565 176.051 204.709C175.783 206.092 175.435 207.604 175.037 209.19C173.77 214.17 171.896 220.113 169.688 226.454C169.427 227.178 169.159 227.974 168.884 228.734C168.399 230.117 167.892 231.507 167.386 232.904C166.932 234.149 166.469 235.401 165.996 236.661C160.581 251.139 154.349 266.079 150.44 275.229C141.666 275.688 133.153 276.197 124.901 276.757C122.006 276.945 119.134 277.143 116.287 277.35C112.277 277.649 108.344 277.954 104.488 278.262C94.6285 279.066 85.305 279.935 76.5967 280.861C78.182 273.065 82.4746 252.413 87.52 230.841C90.2997 218.969 93.3111 206.815 96.2066 196.377C98.2552 189.03 100.26 182.536 102.092 177.556C104.003 172.424 105.711 168.928 107.159 167.82C112.183 163.983 116.511 162.753 121.933 163.419C122.527 163.498 123.128 163.593 123.75 163.708C124.373 163.824 125.003 163.969 125.654 164.128C125.893 164.179 126.132 164.244 126.378 164.309C126.624 164.374 126.892 164.454 127.152 164.526L127.97 164.758C129.259 165.144 130.627 165.595 132.075 166.112L132.972 166.43C133.696 166.691 134.42 166.966 135.202 167.263C136.65 167.806 138.184 168.414 139.82 169.058C143.91 170.687 149.296 172.873 160.712 175.276C161.472 175.428 162.203 175.594 162.883 175.754L163.491 175.891L164.078 176.036C164.367 176.101 164.664 176.181 164.939 176.253C165.214 176.326 165.496 176.398 165.764 176.47C166.307 176.615 166.828 176.76 167.328 176.919C168.131 177.173 168.884 177.433 169.586 177.715L170.245 177.991C170.665 178.186 171.063 178.381 171.432 178.584L171.924 178.859C172.686 179.306 173.391 179.843 174.024 180.459L174.147 180.582L174.321 180.77L174.552 181.031C174.781 181.302 174.996 181.585 175.196 181.878C175.305 182.044 175.406 182.203 175.508 182.384C175.609 182.565 175.667 182.66 175.739 182.812L175.841 183.014C176.428 184.274 176.819 185.617 176.999 186.996C176.999 187.177 177.05 187.358 177.078 187.553C177.107 187.748 177.078 187.792 177.122 187.922C177.165 188.052 177.165 188.335 177.18 188.545C177.194 188.755 177.216 189.008 177.223 189.269V189.58C177.223 189.833 177.223 190.094 177.223 190.362C177.339 191.339 177.325 192.396 177.274 193.539Z" fill="#DB5E83"/>
    <path d="M150.439 275.23C154.348 266.08 160.574 251.161 165.996 236.661C166.478 235.402 166.942 234.149 167.385 232.904C167.892 231.507 168.399 230.117 168.884 228.735C169.159 227.975 169.427 227.207 169.687 226.454C171.859 220.113 173.77 214.149 175.037 209.19" stroke="#AA4365" stroke-width="0.75" stroke-linecap="round" stroke-linejoin="round"/>
    <path d="M176.565 201.553C176.456 202.516 176.282 203.565 176.051 204.709C175.54 205.244 175.057 205.804 174.603 206.388C170.002 212.07 164.048 216.505 157.288 219.288C146.806 223.436 134.551 222.408 126.632 206.186C125.234 203.29 123.866 200.699 122.542 198.317C115.419 185.599 109.085 179.496 102.106 177.571C104.017 172.438 105.726 168.942 107.174 167.835C112.197 163.998 116.526 162.767 121.948 163.433C122.542 163.513 123.142 163.607 123.765 163.723C124.387 163.839 125.017 163.983 125.669 164.143C125.908 164.193 126.147 164.259 126.393 164.324C126.639 164.389 126.907 164.468 127.167 164.541L127.985 164.773C129.274 165.159 130.642 165.61 132.09 166.126L132.987 166.445C133.711 166.705 134.435 166.98 135.217 167.277C135.818 167.509 136.447 167.74 137.084 168.001C137.511 168.16 137.931 168.327 138.373 168.508L139.821 169.08C143.911 170.708 149.296 172.894 160.712 175.298C161.472 175.45 162.203 175.616 162.883 175.775C176.275 178.816 178.903 182.16 176.565 201.553Z" fill="#EA6E93"/>
    <path d="M167.819 175.667C165.496 182.833 159.69 190.253 150.823 188.907C141.144 187.459 135.179 177.462 135.223 167.277C136.671 167.82 138.205 168.428 139.841 169.072C143.931 170.701 149.317 172.887 160.732 175.291C161.493 175.443 162.224 175.609 162.904 175.768C164.537 175.598 166.181 175.564 167.819 175.667Z" fill="white"/>
    <path d="M130.866 268.302C127.051 271.342 116.7 275.541 104.488 278.263C94.6285 279.066 85.305 279.935 76.5967 280.861C78.182 273.065 82.4746 252.413 87.52 230.841C90.2997 218.97 93.3111 206.816 96.2066 196.377C117.518 199.374 123.2 221.938 113.522 229.567C102.664 238.152 101.469 245.283 115.216 245.094C128.962 244.906 141.608 259.753 130.866 268.302Z" fill="#C05273"/>
    <path d="M164.844 148.203C164.743 149.231 164.635 150.208 164.54 151.142C163.686 159.496 163.303 164.628 163.245 169.34C163.245 171.83 163.245 174.205 163.418 176.876C163.418 176.876 160.031 187.995 147.964 183.391C139.451 180.133 139.842 169.094 139.842 169.094C142.332 161.198 143.989 153.063 144.786 144.822C145.075 140.689 166.408 133.248 164.844 148.203Z" fill="#D6D6D6"/>
    <path d="M164.543 151.142C163.688 159.495 163.305 164.628 163.247 169.34C156.327 171.439 149.117 163.354 153.113 154.479C156.008 148.188 161.191 149.433 164.543 151.142Z" fill="#C4C4C4"/>
    <path d="M205.759 231.022C205.759 231.022 187.372 245.246 172.048 248.663C172.048 248.663 171.027 246.622 169.471 243.545C182.066 239.202 195.255 232.868 203.92 227.077C205.078 229.545 205.759 231.022 205.759 231.022Z" fill="white"/>
    <path d="M169.571 159.3C165.518 164.577 158.315 163.347 147.088 151.953C142.838 147.609 137.938 140.609 138.068 135.072C138.198 129.534 144.901 117.872 157.613 124.568C162.521 127.16 166.031 132.155 168.261 137.598C169.104 139.68 169.775 141.827 170.266 144.019C171.75 150.657 171.453 156.846 169.571 159.3Z" fill="#ECECEC"/>
    <path d="M155.67 143.635C154.983 145.351 152.152 145.843 149.344 144.728C146.535 143.614 144.805 141.312 145.493 139.596C146.18 137.88 149.003 137.381 151.819 138.496C154.635 139.611 156.351 141.912 155.67 143.635Z" fill="#C4C4C4"/>
    <path d="M170.244 144.004C168.478 144.656 166.791 144.475 166.01 143.425C164.931 141.978 165.93 139.393 168.239 137.584C169.082 139.665 169.753 141.813 170.244 144.004Z" fill="#C4C4C4"/>
    <path d="M156.056 136.766C156.054 136.975 156.115 137.18 156.23 137.355C156.346 137.53 156.51 137.666 156.703 137.747C156.896 137.828 157.109 137.85 157.314 137.81C157.52 137.77 157.709 137.67 157.857 137.523C158.006 137.375 158.107 137.187 158.149 136.982C158.19 136.777 158.169 136.564 158.09 136.37C158.01 136.177 157.874 136.011 157.7 135.895C157.527 135.778 157.322 135.716 157.113 135.716C156.833 135.716 156.566 135.826 156.368 136.023C156.17 136.22 156.058 136.487 156.056 136.766Z" fill="#070401"/>
    <path d="M163.418 135.115C163.418 135.324 163.48 135.528 163.596 135.702C163.712 135.876 163.877 136.012 164.07 136.092C164.264 136.172 164.476 136.192 164.681 136.152C164.886 136.111 165.074 136.01 165.222 135.862C165.37 135.715 165.471 135.526 165.511 135.321C165.552 135.116 165.531 134.904 165.451 134.711C165.371 134.518 165.236 134.352 165.062 134.236C164.888 134.12 164.684 134.058 164.475 134.058C164.195 134.058 163.926 134.17 163.728 134.368C163.529 134.566 163.418 134.835 163.418 135.115Z" fill="#070401"/>
    <path d="M148.144 151.2C145.553 152.691 141.528 152.691 140.138 148.565C138.748 144.439 142.708 142.369 144.952 142.774C147.717 143.281 149.252 147.334 148.144 151.2Z" fill="#ECECEC"/>
    <path d="M146.76 147.421C145.5 145.032 142.655 144.526 141.446 147.761" stroke="#303030" stroke-width="0.75" stroke-linecap="round" stroke-linejoin="round"/>
    <path d="M146.059 146.437C142.983 145.054 142.368 150.302 145.915 148.977" stroke="#303030" stroke-width="0.75" stroke-linecap="round" stroke-linejoin="round"/>
    <path d="M166.646 134.21C165.386 131.808 163.768 129.611 161.847 127.695C158.727 129.447 156.635 127.847 156.635 127.847C156.635 127.847 153.594 131.098 150.757 130.309C147.919 129.52 148.129 127.543 146.341 127.095C144.553 126.646 142.83 128.542 142.83 129.085C142.83 129.628 143.757 129.968 145.458 134C147.159 138.032 146.652 143.686 143.178 144.323C142.07 144.526 136.533 143.766 133.767 139.589C133.712 139.52 133.661 139.447 133.615 139.372C130.915 134.992 132.493 131.843 133.413 130.685C134.332 129.527 135.773 130.041 135.975 128.94C137.148 122.679 142.917 117.293 149.099 116.714C155.281 116.135 155.086 118.386 155.086 118.386C155.086 118.386 161.26 117.916 164.612 122.179C164.815 122.433 165.003 122.686 165.169 122.94C166.29 124.567 167.008 126.438 167.265 128.397C167.521 130.357 167.309 132.349 166.646 134.21Z" fill="#303030"/>
    <path d="M166.645 134.21C165.385 131.808 163.767 129.611 161.846 127.695C158.726 129.447 156.634 127.847 156.634 127.847C156.634 127.847 153.594 131.098 150.756 130.309C147.918 129.52 148.128 127.543 146.34 127.095C144.552 126.646 142.83 128.542 142.83 129.085C142.83 129.628 143.756 129.968 145.457 134C147.158 138.032 146.652 143.686 143.177 144.323C142.07 144.526 136.532 143.765 133.767 139.589C141.005 138.242 141.244 134.391 139.695 128.195C138.682 124.112 146.21 120.29 150.416 122.889C153.036 124.517 160.232 124.004 165.169 122.939C166.289 124.567 167.007 126.438 167.264 128.397C167.52 130.356 167.308 132.349 166.645 134.21Z" fill="black"/>
    <path d="M155.102 118.394C152.602 118.386 150.126 118.879 147.819 119.841" stroke="#070401" stroke-width="0.75" stroke-linecap="round" stroke-linejoin="round"/>
    <path d="M155.882 122.795C157.026 122.997 160.63 126.103 161.847 127.703C161.847 127.703 163.866 129.15 164.843 127.095" stroke="#303030" stroke-width="0.75" stroke-linecap="round" stroke-linejoin="round"/>
    <path d="M149.273 124.633C150.28 123.75 152.241 123.996 153.617 125.502C154.496 126.425 155.503 127.217 156.606 127.855" stroke="#303030" stroke-width="0.75" stroke-linecap="round" stroke-linejoin="round"/>
    <path d="M159.249 131.698C158.924 135.318 160.06 137.019 161.616 137.113C163.173 137.207 165.236 137.728 164.845 140.168" stroke="#303030" stroke-width="0.75" stroke-linecap="round" stroke-linejoin="round"/>
    <path d="M157.454 144.801C159.605 145.172 161.786 145.34 163.969 145.3C163.969 145.3 163.245 148.08 160.56 147.761C159.794 147.663 159.08 147.323 158.521 146.791C157.962 146.258 157.588 145.561 157.454 144.801Z" fill="white" stroke="#303030" stroke-width="0.75" stroke-linecap="round" stroke-linejoin="round"/>
    <path d="M160.031 129.585C159.936 131.394 165.011 131.033 165.054 130.251C165.098 129.469 160.125 127.862 160.031 129.585Z" fill="#070401"/>
    <path d="M151.545 133.827C152.066 134.869 157.047 132.176 155.888 130.294C154.73 128.412 150.829 132.422 151.545 133.827Z" fill="#070401"/>
    <path d="M148.143 151.2C146.855 151.959 145.343 152.248 143.865 152.018" stroke="#303030" stroke-width="0.75" stroke-linecap="round" stroke-linejoin="round"/>
    <path d="M117.38 207.626C110.988 216.914 105.754 226.288 101.042 234.917C89.409 256.206 82.7566 271.697 68.4165 271.509C55.336 271.328 53.9389 252.109 69.191 220.837L65.34 217.254C65.34 217.254 76.5529 200.909 87.3387 184.491C97.0821 169.673 105.609 158.931 121.955 163.419C131.604 166.09 128.73 191.057 117.38 207.626Z" fill="#D6D6D6"/>
    <path d="M122.54 198.295C121.099 201.545 119.371 204.661 117.379 207.605C112.311 214.945 108.004 222.336 104.088 229.372C103.038 231.239 102.025 233.085 101.041 234.895C96.4646 233.796 91.9507 232.452 87.5184 230.87C80.7212 228.344 73.895 225.079 69.1391 220.844L65.2881 217.261C65.2881 217.261 66.5187 215.473 68.5455 212.498C72.6499 206.454 80.0625 195.494 87.2868 184.498C88.9517 181.957 90.5877 179.54 92.2309 177.296C100.194 166.437 108.359 159.705 121.91 163.426C129.945 165.67 129.344 183.029 122.54 198.295Z" fill="#F4A5B8"/>
    <path d="M104.091 229.422C103.041 231.29 102.028 233.136 101.044 234.945C91.0251 232.47 77.1555 227.996 69.1928 220.873L65.3418 217.29C65.3418 217.29 66.5724 215.502 68.5993 212.527C74.5423 218.977 82.505 223.081 104.091 229.422Z" fill="white"/>
    <path d="M122.542 198.295C115.419 185.577 109.085 179.474 102.106 177.549C98.8868 176.722 95.5226 176.628 92.2617 177.274C100.224 166.416 108.39 159.684 121.941 163.404C129.947 165.67 129.346 183.029 122.542 198.295Z" fill="#FFB7C8"/>
    <path d="M122.587 198.209C121.141 201.497 119.399 204.647 117.382 207.619C110.99 216.906 105.756 226.281 101.044 234.909" stroke="#AA4365" stroke-width="0.75" stroke-linecap="round" stroke-linejoin="round"/>
    <path d="M121.701 185.439C123.149 190.615 125.443 193.018 120.724 202.089" stroke="#AA4365" stroke-width="0.75" stroke-linecap="round" stroke-linejoin="round"/>
    <path d="M59.7676 257.35C65.3198 243.965 85.6536 243.524 110.208 252.478C134.762 261.432 161.755 270.401 165.845 271.509C169.935 272.616 169.168 286.551 158.874 285.776C148.58 285.002 109.65 288.375 86.8697 284.14C64.0892 279.906 56.112 266.101 59.7676 257.35Z" fill="#ECECEC"/>
    <path d="M71.2188 247.7C77.7337 245.775 86.2899 246.057 96.0696 248.265" stroke="#AAAAAA" stroke-width="0.75" stroke-linecap="round" stroke-linejoin="round"/>
    <path d="M224.435 271.921C235.293 256.314 240.896 194.698 240.896 194.698C240.896 194.698 251.79 189.631 253.6 188.407C255.41 187.184 258.928 181.06 259.536 179.228C259.536 179.228 262.591 177.361 262.497 176.333C262.402 175.305 261.28 175.305 261.28 175.305C261.28 175.305 262.004 172.967 258.059 173.626C257.873 173.381 257.621 173.194 257.333 173.086C257.044 172.979 256.732 172.955 256.43 173.018C255.258 173.155 241.301 177.31 241.301 177.31C241.301 177.31 246.998 173.343 247.092 171.758C247.186 170.173 245.261 170.788 243.951 171.577C241.297 173.14 238.443 174.336 235.467 175.131C234.07 175.537 229.676 179.055 225.709 186.663C221.742 194.271 198.462 244.363 195.921 251.139C187.611 273.42 206.36 297.815 224.435 271.921Z" fill="#ECECEC"/>
    <path d="M204.274 232.267C200.163 241.359 196.797 248.829 195.921 251.139" stroke="#AAAAAA" stroke-width="0.75" stroke-linecap="round" stroke-linejoin="round"/>
    <path d="M253.601 188.407C255.418 187.191 258.929 181.06 259.537 179.228C259.537 179.228 262.592 177.361 262.497 176.333C262.403 175.305 261.281 175.305 261.281 175.305C261.281 175.305 262.005 172.967 258.06 173.626C257.874 173.381 257.622 173.194 257.334 173.086C257.045 172.979 256.733 172.955 256.431 173.018C255.259 173.155 241.302 177.31 241.302 177.31C241.302 177.31 246.999 173.343 247.093 171.758C247.187 170.173 245.262 170.788 243.952 171.577C241.298 173.14 238.444 174.336 235.468 175.131" stroke="#AAAAAA" stroke-width="0.75" stroke-linecap="round" stroke-linejoin="round"/>
    <path d="M241.303 177.303L239.131 178.794C239.131 178.794 240.912 182.754 236.532 186.033" stroke="#AAAAAA" stroke-width="0.75" stroke-linecap="round" stroke-linejoin="round"/>
    <path d="M245.094 179.598L258.058 173.626" stroke="#AAAAAA" stroke-width="0.75" stroke-linecap="round" stroke-linejoin="round"/>
    <path d="M250.04 183.977C250.149 183.905 253.971 182.102 253.971 182.102C253.971 182.102 257.901 175.978 258.944 175.667C259.986 175.356 261.181 175.862 259.537 179.228" stroke="#AAAAAA" stroke-width="0.75" stroke-linecap="round" stroke-linejoin="round"/>
    <path d="M247.215 181.675L258.486 175.978" stroke="#AAAAAA" stroke-width="0.75" stroke-linecap="round" stroke-linejoin="round"/>
    <path d="M261.28 175.305L259.825 175.66" stroke="#AAAAAA" stroke-width="0.75" stroke-linecap="round" stroke-linejoin="round"/>
    <path d="M217.116 252.34C210.716 271.567 199.547 299.067 199.547 299.067L124.922 315.998L73.2227 303.75V299.979L132.327 287.514C136.584 276.728 142.013 256.191 144.699 255.663C149.093 254.794 210.535 245.225 215.176 245.101C219.562 244.978 218.505 248.163 217.116 252.34Z" fill="#F9F9F9" stroke="#DDDDDD" stroke-linecap="round" stroke-linejoin="round"/>
    <path d="M132.328 287.514L124.249 308.839" stroke="#DDDDDD" stroke-linecap="round" stroke-linejoin="round"/>
    <path d="M125.038 311.851L124.922 315.998L73.2227 303.75V299.979L125.038 311.851Z" fill="#EDEDED" stroke="#DDDDDD" stroke-linecap="round" stroke-linejoin="round"/>
    <path d="M75.7237 111.431C72.1099 102.649 61.0297 99.2935 50.9789 103.934C40.9281 108.575 37.064 118.981 40.6795 127.765L43.1173 125.432C46.8117 121.93 48.3942 121.308 52.7809 118.815C52.7809 118.815 64.9022 110.837 75.7255 111.431L75.7237 111.431Z" fill="#C4C4C4"/>
    <path d="M77.3953 113.497C73.1646 111.406 68.1711 112.421 64.1926 115.67C61.9908 117.491 60.2228 119.827 59.0313 122.489C55.333 130.645 57.5606 139.836 64.006 143.022C65.308 132.063 70.1 121.492 77.3953 113.497Z" fill="#E4E4E4"/>
    <path d="M116.415 95.2488C113.845 86.0618 103.246 81.3114 92.7419 84.6406C86.0877 86.7501 81.0658 91.5958 78.9333 97.201C77.7005 100.44 77.4323 103.937 78.3752 107.303C78.3752 107.303 95.8573 92.0003 116.413 95.2486L116.415 95.2488Z" fill="#C4C4C4"/>
    <path d="M122.778 130.27C126.498 119.308 119.406 106.708 106.94 102.129C105.06 101.436 103.115 100.954 101.136 100.689C90.6327 99.2926 80.7752 104.42 77.6332 113.685C93.8521 113.911 110.016 119.851 122.778 130.27Z" fill="#E4E4E4"/>
    <path d="M30.9371 95.8321C30.9371 95.8321 54.5202 95.8896 74.1429 104.568L75.5292 105.557C75.5292 105.557 80.8219 92.4381 70.9287 85.9211C62.629 80.4571 41.0216 74.5282 30.9373 95.8301L30.9371 95.8321Z" fill="#C4C4C4"/>
    <path d="M78.2539 117.824C85.0291 131.969 89.4307 152.046 82.9116 178.209L78.2539 117.824Z" stroke="#C4C4C4" stroke-linecap="round" stroke-linejoin="round"/>
    <path d="M48.1854 168.4C43.7475 164.987 37.1026 166.547 33.3448 171.884C29.587 177.221 30.689 183.672 35.1284 187.086L35.6832 185.176C36.534 182.298 37.1577 181.513 38.6596 178.945C38.6596 178.945 42.4884 171.294 48.1864 168.4L48.1854 168.4Z" fill="#C4C4C4"/>
    <path d="M47.8999 171.077C45.5729 171.712 44.0071 173.793 43.5871 176.384C43.3622 177.827 43.4779 179.32 43.9248 180.742C45.2755 185.116 49.2433 187.876 52.7889 186.909C49.5715 182.276 47.8202 176.608 47.8999 171.077Z" fill="#E4E4E4"/>
    <path d="M75.1723 159.897C72.635 153.864 64.9098 151.193 57.9185 153.93C56.8635 154.342 55.8595 154.868 54.9229 155.498C49.9554 158.846 47.7079 164.712 49.8529 169.81C56.7998 163.823 65.8657 160.274 75.1723 159.897Z" fill="#E4E4E4"/>
    <path d="M49.2031 170.849C57.4897 172.985 66.5655 178.293 72.0816 190.562L49.2031 170.849Z" stroke="#C4C4C4" stroke-linecap="round" stroke-linejoin="round"/>
    <g filter="url(#filter1_d_546_10487)">
        <rect x="273" y="97" width="225.054" height="82.6146" rx="10" fill="white"/>
    </g>
    <path d="M368.078 128.778L361.706 147.264H357.854L365.881 125.936H368.342L368.078 128.778ZM373.41 147.264L367.023 128.778L366.745 125.936H369.221L377.277 147.264H373.41ZM373.103 139.354V142.269H361.501V139.354H373.103ZM393.024 144.349V147.264H382.316V144.349H393.024ZM383.342 125.936V147.264H379.665V125.936H383.342ZM400.979 125.936V147.264H397.331V125.936H400.979ZM407.673 125.936V128.866H390.695V125.936H407.673Z" fill="#822B55"/>
    <defs>
        <filter id="filter0_d_546_10487" x="173" y="0" width="409.432" height="274.283" filterUnits="userSpaceOnUse" color-interpolation-filters="sRGB">
            <feFlood flood-opacity="0" result="BackgroundImageFix"/>
            <feColorMatrix in="SourceAlpha" type="matrix" values="0 0 0 0 0 0 0 0 0 0 0 0 0 0 0 0 0 0 127 0" result="hardAlpha"/>
            <feOffset/>
            <feGaussianBlur stdDeviation="5"/>
            <feComposite in2="hardAlpha" operator="out"/>
            <feColorMatrix type="matrix" values="0 0 0 0 0 0 0 0 0 0 0 0 0 0 0 0 0 0 0.25 0"/>
            <feBlend mode="normal" in2="BackgroundImageFix" result="effect1_dropShadow_546_10487"/>
            <feBlend mode="normal" in="SourceGraphic" in2="effect1_dropShadow_546_10487" result="shape"/>
        </filter>
        <filter id="filter1_d_546_10487" x="263" y="87" width="245.054" height="102.615" filterUnits="userSpaceOnUse" color-interpolation-filters="sRGB">
            <feFlood flood-opacity="0" result="BackgroundImageFix"/>
            <feColorMatrix in="SourceAlpha" type="matrix" values="0 0 0 0 0 0 0 0 0 0 0 0 0 0 0 0 0 0 127 0" result="hardAlpha"/>
            <feOffset/>
            <feGaussianBlur stdDeviation="5"/>
            <feComposite in2="hardAlpha" operator="out"/>
            <feColorMatrix type="matrix" values="0 0 0 0 0 0 0 0 0 0 0 0 0 0 0 0 0 0 0.25 0"/>
            <feBlend mode="normal" in2="BackgroundImageFix" result="effect1_dropShadow_546_10487"/>
            <feBlend mode="normal" in="SourceGraphic" in2="effect1_dropShadow_546_10487" result="shape"/>
        </filter>
    </defs>
</svg>
