<svg width="583" height="317" viewBox="0 0 583 317" fill="none" xmlns="http://www.w3.org/2000/svg">
  <g filter="url(#filter0_d_737_4657)">
    <path d="M183 16C183 12.6863 185.686 10 189 10H566.432C569.745 10 572.432 12.6863 572.432 16V258.283C572.432 261.597 569.745 264.283 566.432 264.283H189C185.686 264.283 183 261.597 183 258.283V16Z" fill="#37455B" />
  </g>
  <rect x="324.51" y="31.262" width="95.7619" height="7.44814" rx="3.72407" fill="#687384" />
  <rect x="324.51" y="194.057" width="95.7619" height="7.44814" rx="3.72407" fill="#687384" />
  <rect width="69.1614" height="64.9053" rx="8" transform="matrix(-1 0 0 1 393.672 115.319)" fill="#687384" />
  <rect width="70.2254" height="64.9053" rx="8" transform="matrix(-1 0 0 1 472.41 115.319)" fill="#687384" />
  <rect width="69.1614" height="64.9053" rx="8" transform="matrix(-1 0 0 1 550.081 115.319)" fill="#687384" />
  <rect x="324.51" y="46.1581" width="225.572" height="7.44814" rx="3.72407" fill="#687384" />
  <rect x="324.51" y="58.9265" width="225.572" height="7.44814" rx="3.72407" fill="#687384" />
  <rect x="324.51" y="72.759" width="225.572" height="7.44814" rx="3.72407" fill="#687384" />
  <rect x="324.51" y="87.6553" width="225.572" height="7.44814" rx="3.72407" fill="#687384" />
  <rect x="324.51" y="208.954" width="225.572" height="7.44814" rx="3.72407" fill="#687384" />
  <rect x="324.51" y="223.85" width="225.572" height="7.44814" rx="3.72407" fill="#687384" />
  <rect x="324.51" y="236.618" width="225.572" height="7.44814" rx="3.72407" fill="#687384" />
  <rect x="206.399" y="31.2624" width="67.0333" height="7.44814" rx="3.72407" fill="#687384" />
  <rect x="206.399" y="45.0947" width="67.0333" height="7.44814" rx="3.72407" fill="#687384" />
  <rect x="206.402" y="58.9269" width="84.0576" height="7.44814" rx="3.72407" fill="#687384" />
  <rect x="206.402" y="72.759" width="84.0576" height="7.44814" rx="3.72407" fill="#687384" />
  <path d="M206.402 90.3154C206.402 88.2586 208.07 86.5913 210.126 86.5913H251.623C253.68 86.5913 255.347 88.2586 255.347 90.3154C255.347 92.3721 253.68 94.0394 251.623 94.0394H210.126C208.07 94.0394 206.402 92.3721 206.402 90.3154Z" fill="#687384" />
  <path d="M204.04 232.318C210.229 240.1 225.481 271.407 213.588 280.579C197.142 293.261 178.118 258.211 174.629 248.004L204.04 232.318Z" fill="#BDC0C3" />
  <path d="M205.761 231.022C205.761 231.022 203.445 232.81 199.767 235.279C193.093 239.759 181.938 246.462 172.05 248.663C172.05 248.663 171.029 246.622 169.473 243.545L165.998 236.661C163.906 232.499 161.583 227.88 159.599 223.921L157.29 219.288C156.863 218.434 156.479 217.659 156.154 216.986C150.363 205.252 143.884 177.607 162.907 175.768C164.533 175.599 166.17 175.566 167.801 175.667H167.881C168.329 175.703 168.764 175.747 169.191 175.805L169.553 175.855L170.19 175.971C170.443 176.014 170.696 176.072 170.914 176.13C171.131 176.188 171.304 176.224 171.493 176.282L171.761 176.347L172.311 176.528C172.485 176.581 172.657 176.644 172.825 176.717C173.001 176.769 173.172 176.834 173.339 176.912C173.539 176.988 173.734 177.075 173.925 177.173C174.1 177.246 174.272 177.328 174.439 177.419C174.666 177.525 174.883 177.641 175.09 177.766C175.279 177.868 175.46 177.976 175.633 178.085L176.082 178.382C176.61 178.732 177.117 179.111 177.602 179.518C177.812 179.692 178.015 179.858 178.21 180.046C178.869 180.644 179.495 181.277 180.085 181.943C180.281 182.167 180.483 182.399 180.679 182.667C180.874 182.935 180.983 183.036 181.135 183.224C181.381 183.528 181.627 183.847 181.859 184.18C182.025 184.39 182.184 184.614 182.344 184.839C182.59 185.179 182.836 185.562 183.068 185.895C183.299 186.228 183.451 186.453 183.639 186.757L184.233 187.698C184.436 188.016 184.631 188.342 184.834 188.682C185.297 189.442 185.753 190.246 186.216 191.078C186.361 191.353 186.52 191.636 186.672 191.918C186.824 192.2 187.085 192.685 187.295 193.084C187.505 193.482 187.7 193.807 187.896 194.227C188.091 194.647 188.352 195.103 188.583 195.559C189.061 196.5 189.539 197.449 190.031 198.404C195.489 209.313 201.063 221.112 203.85 227.084C205.081 229.545 205.761 231.022 205.761 231.022Z" fill="#F4A5B8" />
  <path d="M190.104 198.397C184.775 198.585 179.732 200.85 176.053 204.709C175.542 205.244 175.059 205.804 174.605 206.388C170.004 212.07 164.051 216.505 157.29 219.288C156.863 218.434 156.479 217.659 156.154 216.986C150.363 205.252 143.884 177.607 162.907 175.768C164.533 175.599 166.17 175.566 167.801 175.667H167.881C168.329 175.703 168.764 175.747 169.191 175.805L169.553 175.855L170.19 175.971C170.443 176.014 170.696 176.072 170.914 176.13C171.131 176.188 171.304 176.224 171.493 176.282L171.761 176.347L172.311 176.528C172.485 176.581 172.657 176.644 172.825 176.717C173.001 176.769 173.172 176.834 173.339 176.912C173.539 176.988 173.734 177.075 173.925 177.173C174.1 177.246 174.272 177.328 174.439 177.419C174.666 177.525 174.883 177.641 175.09 177.766C175.279 177.868 175.46 177.976 175.633 178.085L176.082 178.382C176.61 178.732 177.117 179.111 177.602 179.518C177.812 179.692 178.015 179.858 178.21 180.046C178.869 180.644 179.495 181.277 180.085 181.943C180.281 182.167 180.483 182.399 180.679 182.667C180.874 182.935 180.983 183.036 181.135 183.224C181.381 183.528 181.627 183.847 181.859 184.18C182.025 184.39 182.184 184.614 182.344 184.839C182.59 185.179 182.836 185.562 183.068 185.895C183.299 186.228 183.451 186.453 183.639 186.757L184.233 187.698C184.436 188.016 184.631 188.342 184.834 188.682C185.297 189.442 185.753 190.246 186.216 191.078C186.361 191.353 186.52 191.636 186.672 191.918C186.824 192.2 187.085 192.685 187.295 193.084C187.505 193.482 187.7 193.807 187.896 194.227C188.091 194.647 188.352 195.103 188.583 195.559C189.155 196.493 189.633 197.441 190.104 198.397Z" fill="#FFB7C8" />
  <path d="M199.769 235.279C193.094 239.759 181.939 246.462 172.051 248.663C172.051 248.663 171.031 246.622 169.474 243.545L166 236.661C163.908 232.499 161.584 227.88 159.6 223.921L170.907 212.925C171.349 212.759 179.999 213.2 177.328 220.453C174.657 227.707 169.945 232.564 173.789 235.51C177.632 238.456 188.737 214.699 198.531 232.296C199.064 233.236 199.48 234.237 199.769 235.279Z" fill="#E38BA1" />
  <path d="M177.274 193.539C177.274 193.923 177.274 194.314 177.216 194.719C177.093 196.739 176.869 199.005 176.565 201.553C176.456 202.516 176.282 203.565 176.051 204.709C175.783 206.092 175.435 207.604 175.037 209.19C173.77 214.17 171.896 220.113 169.688 226.454C169.427 227.178 169.159 227.974 168.884 228.734C168.399 230.117 167.893 231.507 167.386 232.904C166.932 234.149 166.469 235.401 165.996 236.661C160.581 251.139 154.349 266.079 150.44 275.229C141.666 275.688 133.154 276.197 124.901 276.757C122.006 276.945 119.134 277.143 116.287 277.35C112.277 277.649 108.344 277.954 104.488 278.262C94.6287 279.066 85.3051 279.935 76.5968 280.861C78.1821 273.065 82.4747 252.413 87.5202 230.841C90.2999 218.969 93.3112 206.815 96.2067 196.377C98.2553 189.03 100.26 182.536 102.092 177.556C104.003 172.424 105.711 168.928 107.159 167.82C112.183 163.983 116.512 162.753 121.933 163.419C122.527 163.498 123.128 163.593 123.75 163.708C124.373 163.824 125.003 163.969 125.654 164.128C125.893 164.179 126.132 164.244 126.378 164.309C126.624 164.374 126.892 164.454 127.153 164.526L127.971 164.758C129.259 165.144 130.627 165.595 132.075 166.112L132.973 166.43C133.696 166.691 134.42 166.966 135.202 167.263C136.65 167.806 138.185 168.414 139.82 169.058C143.91 170.687 149.296 172.873 160.712 175.276C161.472 175.428 162.203 175.594 162.883 175.754L163.491 175.891L164.078 176.036C164.367 176.101 164.664 176.181 164.939 176.253C165.214 176.326 165.497 176.398 165.764 176.47C166.307 176.615 166.828 176.76 167.328 176.919C168.131 177.173 168.884 177.433 169.586 177.715L170.245 177.991C170.665 178.186 171.063 178.381 171.432 178.584L171.925 178.859C172.686 179.306 173.391 179.843 174.024 180.459L174.147 180.582L174.321 180.77L174.552 181.031C174.781 181.302 174.996 181.585 175.197 181.878C175.305 182.044 175.406 182.203 175.508 182.384C175.609 182.565 175.667 182.66 175.739 182.812L175.841 183.014C176.428 184.274 176.819 185.617 176.999 186.996C176.999 187.177 177.05 187.358 177.079 187.553C177.108 187.748 177.079 187.792 177.122 187.922C177.165 188.052 177.165 188.335 177.18 188.545C177.194 188.755 177.216 189.008 177.223 189.269V189.58C177.223 189.833 177.223 190.094 177.223 190.362C177.339 191.339 177.325 192.396 177.274 193.539Z" fill="#DB5E83" />
  <path d="M150.439 275.23C154.348 266.08 160.574 251.161 165.996 236.661C166.478 235.402 166.942 234.149 167.385 232.904C167.892 231.507 168.399 230.117 168.884 228.735C169.159 227.975 169.427 227.207 169.687 226.454C171.859 220.113 173.77 214.149 175.037 209.19" stroke="#AA4365" stroke-width="0.75" stroke-linecap="round" stroke-linejoin="round" />
  <path d="M176.564 201.553C176.456 202.516 176.282 203.565 176.05 204.709C175.54 205.244 175.056 205.804 174.603 206.388C170.002 212.07 164.048 216.505 157.288 219.288C146.806 223.436 134.55 222.408 126.631 206.186C125.234 203.29 123.866 200.699 122.541 198.317C115.418 185.599 109.084 179.496 102.106 177.571C104.017 172.438 105.726 168.942 107.173 167.835C112.197 163.998 116.526 162.767 121.948 163.433C122.541 163.513 123.142 163.607 123.765 163.723C124.387 163.839 125.017 163.983 125.668 164.143C125.907 164.193 126.146 164.259 126.392 164.324C126.638 164.389 126.906 164.468 127.167 164.541L127.985 164.773C129.273 165.159 130.642 165.61 132.089 166.126L132.987 166.445C133.711 166.705 134.435 166.98 135.216 167.277C135.817 167.509 136.447 167.74 137.084 168.001C137.511 168.16 137.931 168.327 138.373 168.508L139.82 169.08C143.91 170.708 149.296 172.894 160.711 175.298C161.472 175.45 162.203 175.616 162.883 175.775C176.275 178.816 178.903 182.16 176.564 201.553Z" fill="#EA6E93" />
  <path d="M167.819 175.667C165.496 182.833 159.69 190.253 150.823 188.907C141.144 187.459 135.18 177.462 135.223 167.277C136.671 167.82 138.205 168.428 139.841 169.072C143.931 170.701 149.317 172.887 160.733 175.291C161.493 175.443 162.224 175.609 162.904 175.768C164.537 175.598 166.181 175.564 167.819 175.667Z" fill="#DADBDC" />
  <path d="M130.866 268.302C127.051 271.342 116.7 275.541 104.488 278.263C94.6287 279.066 85.3051 279.935 76.5968 280.861C78.1821 273.065 82.4747 252.413 87.5202 230.841C90.2999 218.97 93.3112 206.816 96.2067 196.377C117.518 199.374 123.2 221.937 113.522 229.567C102.664 238.152 101.469 245.283 115.216 245.094C128.962 244.906 141.608 259.753 130.866 268.302Z" fill="#C05273" />
  <path d="M164.844 148.203C164.743 149.231 164.634 150.208 164.54 151.142C163.686 159.495 163.302 164.628 163.244 169.34C163.244 171.83 163.244 174.205 163.418 176.876C163.418 176.876 160.03 187.995 147.963 183.391C139.45 180.133 139.841 169.094 139.841 169.094C142.332 161.198 143.989 153.063 144.785 144.822C145.075 140.689 166.408 133.248 164.844 148.203Z" fill="#BDC0C3" />
  <path d="M164.542 151.142C163.688 159.495 163.305 164.628 163.247 169.34C156.326 171.439 149.117 163.354 153.112 154.479C156.008 148.188 161.191 149.433 164.542 151.142Z" fill="#B4B6B8" />
  <path d="M205.759 231.022C205.759 231.022 187.372 245.246 172.048 248.663C172.048 248.663 171.027 246.622 169.471 243.545C182.066 239.202 195.255 232.868 203.92 227.077C205.079 229.545 205.759 231.022 205.759 231.022Z" fill="white" />
  <path d="M169.571 159.3C165.518 164.577 158.315 163.347 147.088 151.953C142.838 147.609 137.938 140.61 138.068 135.072C138.198 129.534 144.901 117.872 157.613 124.568C162.521 127.16 166.032 132.155 168.261 137.598C169.104 139.68 169.775 141.828 170.266 144.019C171.75 150.657 171.453 156.846 169.571 159.3Z" fill="#DADBDC" />
  <path d="M155.671 143.635C154.983 145.351 152.153 145.843 149.344 144.728C146.536 143.614 144.806 141.312 145.493 139.596C146.181 137.88 149.004 137.381 151.82 138.496C154.636 139.611 156.352 141.912 155.671 143.635Z" fill="#C4C4C4" />
  <path d="M170.245 144.004C168.478 144.656 166.792 144.475 166.01 143.425C164.931 141.978 165.93 139.393 168.239 137.584C169.082 139.666 169.753 141.813 170.245 144.004Z" fill="#C4C4C4" />
  <path d="M156.056 136.766C156.055 136.975 156.115 137.18 156.231 137.355C156.346 137.53 156.51 137.666 156.703 137.747C156.896 137.828 157.109 137.85 157.315 137.81C157.52 137.77 157.709 137.67 157.858 137.523C158.006 137.375 158.107 137.187 158.149 136.982C158.19 136.777 158.17 136.564 158.09 136.37C158.01 136.177 157.875 136.011 157.701 135.895C157.527 135.778 157.322 135.716 157.113 135.716C156.834 135.716 156.566 135.826 156.368 136.023C156.17 136.22 156.058 136.487 156.056 136.766Z" fill="#070401" />
  <path d="M163.418 135.115C163.418 135.324 163.48 135.529 163.596 135.702C163.712 135.876 163.877 136.012 164.07 136.092C164.263 136.172 164.476 136.192 164.681 136.152C164.886 136.111 165.074 136.01 165.222 135.862C165.37 135.715 165.471 135.526 165.511 135.321C165.552 135.116 165.531 134.904 165.451 134.711C165.371 134.518 165.236 134.353 165.062 134.236C164.888 134.12 164.684 134.058 164.475 134.058C164.194 134.058 163.926 134.17 163.727 134.368C163.529 134.566 163.418 134.835 163.418 135.115Z" fill="#070401" />
  <path d="M148.145 151.2C145.553 152.691 141.529 152.691 140.139 148.565C138.749 144.439 142.709 142.369 144.953 142.774C147.718 143.281 149.252 147.334 148.145 151.2Z" fill="#DADBDC" />
  <path d="M146.76 147.421C145.5 145.032 142.655 144.526 141.447 147.761" stroke="#303030" stroke-width="0.75" stroke-linecap="round" stroke-linejoin="round" />
  <path d="M146.059 146.437C142.983 145.054 142.368 150.302 145.915 148.977" stroke="#303030" stroke-width="0.75" stroke-linecap="round" stroke-linejoin="round" />
  <path d="M166.646 134.21C165.387 131.808 163.768 129.611 161.847 127.695C158.727 129.447 156.635 127.847 156.635 127.847C156.635 127.847 153.595 131.098 150.757 130.309C147.92 129.52 148.13 127.543 146.342 127.095C144.554 126.646 142.831 128.542 142.831 129.085C142.831 129.628 143.757 129.968 145.458 134C147.16 138.032 146.653 143.686 143.178 144.323C142.071 144.526 136.533 143.766 133.768 139.589C133.712 139.52 133.661 139.447 133.616 139.372C130.916 134.992 132.494 131.843 133.413 130.685C134.332 129.527 135.773 130.041 135.976 128.941C137.148 122.679 142.918 117.293 149.1 116.714C155.281 116.135 155.086 118.386 155.086 118.386C155.086 118.386 161.261 117.916 164.612 122.179C164.815 122.433 165.003 122.686 165.17 122.94C166.29 124.567 167.008 126.438 167.265 128.397C167.522 130.357 167.31 132.349 166.646 134.21Z" fill="#303030" />
  <path d="M166.646 134.21C165.386 131.808 163.768 129.611 161.846 127.695C158.727 129.447 156.635 127.847 156.635 127.847C156.635 127.847 153.594 131.098 150.757 130.309C147.919 129.52 148.129 127.543 146.341 127.095C144.553 126.646 142.83 128.542 142.83 129.085C142.83 129.628 143.757 129.968 145.458 134C147.159 138.032 146.652 143.686 143.178 144.323C142.07 144.526 136.532 143.765 133.767 139.589C141.006 138.242 141.245 134.391 139.696 128.195C138.682 124.112 146.211 120.29 150.416 122.889C153.037 124.518 160.232 124.004 165.169 122.939C166.289 124.567 167.008 126.438 167.264 128.397C167.521 130.356 167.309 132.349 166.646 134.21Z" fill="black" />
  <path d="M155.102 118.394C152.602 118.386 150.126 118.879 147.819 119.841" stroke="#070401" stroke-width="0.75" stroke-linecap="round" stroke-linejoin="round" />
  <path d="M155.883 122.795C157.026 122.997 160.631 126.103 161.847 127.703C161.847 127.703 163.867 129.15 164.844 127.095" stroke="#303030" stroke-width="0.75" stroke-linecap="round" stroke-linejoin="round" />
  <path d="M149.274 124.633C150.28 123.75 152.241 123.996 153.617 125.502C154.496 126.425 155.503 127.217 156.606 127.855" stroke="#303030" stroke-width="0.75" stroke-linecap="round" stroke-linejoin="round" />
  <path d="M159.249 131.699C158.924 135.318 160.06 137.019 161.616 137.113C163.173 137.207 165.236 137.728 164.845 140.168" stroke="#303030" stroke-width="0.75" stroke-linecap="round" stroke-linejoin="round" />
  <path d="M157.455 144.801C159.606 145.172 161.787 145.34 163.97 145.3C163.97 145.3 163.246 148.08 160.56 147.761C159.795 147.664 159.08 147.323 158.522 146.791C157.963 146.258 157.589 145.561 157.455 144.801Z" fill="white" stroke="#303030" stroke-width="0.75" stroke-linecap="round" stroke-linejoin="round" />
  <path d="M160.031 129.585C159.937 131.394 165.011 131.033 165.055 130.251C165.098 129.469 160.125 127.862 160.031 129.585Z" fill="#070401" />
  <path d="M151.546 133.827C152.067 134.869 157.047 132.176 155.889 130.294C154.731 128.412 150.829 132.422 151.546 133.827Z" fill="#070401" />
  <path d="M148.144 151.2C146.856 151.959 145.344 152.248 143.866 152.018" stroke="#303030" stroke-width="0.75" stroke-linecap="round" stroke-linejoin="round" />
  <path d="M117.38 207.626C110.988 216.914 105.754 226.288 101.042 234.917C89.4088 256.206 82.7564 271.697 68.4163 271.509C55.3358 271.328 53.9387 252.109 69.1909 220.837L65.3398 217.254C65.3398 217.254 76.5527 200.909 87.3385 184.491C97.082 169.673 105.609 158.931 121.954 163.419C131.604 166.09 128.73 191.057 117.38 207.626Z" fill="#BDC0C3" />
  <path d="M122.54 198.295C121.099 201.545 119.372 204.661 117.379 207.605C112.312 214.945 108.005 222.336 104.088 229.372C103.039 231.239 102.025 233.085 101.041 234.895C96.4648 233.796 91.951 232.452 87.5187 230.87C80.7215 228.344 73.8953 225.079 69.1394 220.844L65.2883 217.261C65.2883 217.261 66.5189 215.473 68.5458 212.498C72.6502 206.454 80.0627 195.494 87.2871 184.498C88.952 181.958 90.5879 179.54 92.2312 177.296C100.194 166.438 108.359 159.705 121.91 163.426C129.945 165.67 129.344 183.029 122.54 198.295Z" fill="#F4A5B8" />
  <path d="M104.091 229.422C103.042 231.29 102.028 233.136 101.044 234.946C91.0251 232.47 77.1556 227.996 69.1929 220.873L65.3419 217.29C65.3419 217.29 66.5725 215.502 68.5993 212.527C74.5424 218.977 82.5051 223.081 104.091 229.422Z" fill="white" />
  <path d="M122.541 198.295C115.418 185.577 109.084 179.475 102.106 177.549C98.8863 176.722 95.522 176.628 92.2612 177.274C100.224 166.416 108.389 159.684 121.94 163.404C129.946 165.67 129.346 183.029 122.541 198.295Z" fill="#FFB7C8" />
  <path d="M122.587 198.209C121.141 201.497 119.399 204.647 117.382 207.619C110.99 216.906 105.757 226.281 101.044 234.909" stroke="#AA4365" stroke-width="0.75" stroke-linecap="round" stroke-linejoin="round" />
  <path d="M121.701 185.439C123.148 190.615 125.443 193.018 120.723 202.089" stroke="#AA4365" stroke-width="0.75" stroke-linecap="round" stroke-linejoin="round" />
  <path d="M59.7673 257.35C65.3194 243.965 85.6532 243.524 110.207 252.478C134.761 261.432 161.755 270.401 165.845 271.509C169.935 272.616 169.167 286.551 158.874 285.776C148.58 285.002 109.65 288.375 86.8693 284.14C64.0888 279.906 56.1117 266.101 59.7673 257.35Z" fill="#DADBDC" />
  <path d="M71.2183 247.7C77.7332 245.775 86.2894 246.057 96.0691 248.265" stroke="#AAAAAA" stroke-width="0.75" stroke-linecap="round" stroke-linejoin="round" />
  <path d="M224.435 271.921C235.293 256.314 240.896 194.698 240.896 194.698C240.896 194.698 251.79 189.631 253.6 188.407C255.41 187.184 258.928 181.06 259.536 179.228C259.536 179.228 262.591 177.361 262.497 176.333C262.402 175.305 261.28 175.305 261.28 175.305C261.28 175.305 262.004 172.967 258.059 173.626C257.873 173.381 257.621 173.194 257.333 173.086C257.044 172.978 256.732 172.955 256.43 173.018C255.258 173.155 241.301 177.31 241.301 177.31C241.301 177.31 246.998 173.343 247.092 171.758C247.186 170.173 245.261 170.788 243.951 171.577C241.297 173.14 238.443 174.336 235.467 175.131C234.07 175.537 229.676 179.055 225.709 186.663C221.742 194.271 198.462 244.363 195.921 251.139C187.611 273.42 206.36 297.814 224.435 271.921Z" fill="#DADBDC" />
  <path d="M204.274 232.267C200.163 241.359 196.797 248.829 195.921 251.139" stroke="#AAAAAA" stroke-width="0.75" stroke-linecap="round" stroke-linejoin="round" />
  <path d="M253.601 188.407C255.418 187.191 258.928 181.06 259.537 179.228C259.537 179.228 262.591 177.361 262.497 176.333C262.403 175.305 261.281 175.305 261.281 175.305C261.281 175.305 262.005 172.967 258.06 173.626C257.873 173.381 257.622 173.194 257.333 173.086C257.045 172.978 256.732 172.955 256.431 173.018C255.258 173.155 241.302 177.31 241.302 177.31C241.302 177.31 246.999 173.343 247.093 171.758C247.187 170.173 245.262 170.788 243.951 171.577C241.297 173.14 238.443 174.336 235.467 175.131" stroke="#AAAAAA" stroke-width="0.75" stroke-linecap="round" stroke-linejoin="round" />
  <path d="M241.303 177.303L239.131 178.794C239.131 178.794 240.912 182.754 236.532 186.033" stroke="#AAAAAA" stroke-width="0.75" stroke-linecap="round" stroke-linejoin="round" />
  <path d="M245.094 179.598L258.059 173.626" stroke="#AAAAAA" stroke-width="0.75" stroke-linecap="round" stroke-linejoin="round" />
  <path d="M250.04 183.977C250.149 183.905 253.971 182.102 253.971 182.102C253.971 182.102 257.901 175.978 258.944 175.667C259.986 175.356 261.181 175.862 259.537 179.228" stroke="#AAAAAA" stroke-width="0.75" stroke-linecap="round" stroke-linejoin="round" />
  <path d="M247.214 181.675L258.485 175.978" stroke="#AAAAAA" stroke-width="0.75" stroke-linecap="round" stroke-linejoin="round" />
  <path d="M261.28 175.305L259.825 175.66" stroke="#AAAAAA" stroke-width="0.75" stroke-linecap="round" stroke-linejoin="round" />
  <path d="M217.115 252.34C210.716 271.567 199.547 299.067 199.547 299.067L124.922 315.998L73.2225 303.75V299.979L132.327 287.514C136.584 276.728 142.013 256.191 144.698 255.663C149.092 254.794 210.535 245.225 215.175 245.101C219.562 244.978 218.505 248.163 217.115 252.34Z" fill="#BDC0C3" stroke="#DDDDDD" stroke-linecap="round" stroke-linejoin="round" />
  <path d="M132.327 287.514L124.248 308.839" stroke="#DDDDDD" stroke-linecap="round" stroke-linejoin="round" />
  <path d="M125.038 311.851L124.922 315.998L73.2224 303.75V299.979L125.038 311.851Z" fill="#EDEDED" stroke="#DDDDDD" stroke-linecap="round" stroke-linejoin="round" />
  <path d="M75.7237 111.431C72.1099 102.649 61.0297 99.2936 50.9789 103.934C40.9281 108.575 37.064 118.981 40.6795 127.765L43.1173 125.432C46.8117 121.93 48.3942 121.308 52.7809 118.815C52.7809 118.815 64.9022 110.837 75.7255 111.431L75.7237 111.431Z" fill="#939BA4" />
  <path d="M77.3948 113.496C73.1642 111.406 68.1707 112.421 64.1922 115.67C61.9904 117.491 60.2224 119.827 59.0309 122.489C55.3326 130.645 57.5602 139.836 64.0056 143.022C65.3075 132.063 70.0995 121.492 77.3948 113.496Z" fill="#BDC0C3" />
  <path d="M116.415 95.2488C113.844 86.0618 103.245 81.3114 92.7417 84.6406C86.0875 86.7501 81.0656 91.5958 78.9331 97.201C77.7003 100.44 77.4321 103.937 78.375 107.303C78.375 107.303 95.8571 92.0003 116.413 95.2487L116.415 95.2488Z" fill="#939BA4" />
  <path d="M122.778 130.27C126.498 119.308 119.406 106.708 106.94 102.129C105.06 101.437 103.115 100.954 101.136 100.689C90.6327 99.2926 80.7752 104.42 77.6332 113.685C93.8521 113.911 110.016 119.851 122.778 130.27Z" fill="#BDC0C3" />
  <path d="M30.9369 95.832C30.9369 95.832 54.52 95.8895 74.1428 104.568L75.5291 105.557C75.5291 105.557 80.8217 92.438 70.9285 85.9211C62.6288 80.4571 41.0214 74.5282 30.9371 95.8301L30.9369 95.832Z" fill="#939BA4" />
  <path d="M78.2537 117.824C85.0288 131.969 89.4304 152.046 82.9114 178.209L78.2537 117.824Z" stroke="#BDC0C3" stroke-linecap="round" stroke-linejoin="round" />
  <path d="M48.185 168.4C43.7471 164.987 37.1023 166.547 33.3444 171.884C29.5866 177.221 30.6886 183.672 35.1281 187.086L35.6829 185.176C36.5336 182.298 37.1573 181.513 38.6592 178.945C38.6592 178.945 42.488 171.294 48.186 168.4L48.185 168.4Z" fill="#939BA4" />
  <path d="M47.9002 171.077C45.5733 171.712 44.0075 173.793 43.5874 176.384C43.3626 177.827 43.4783 179.32 43.9252 180.742C45.2758 185.116 49.2437 187.876 52.7892 186.909C49.5718 182.276 47.8206 176.608 47.9002 171.077Z" fill="#BDC0C3" />
  <path d="M75.1724 159.897C72.6351 153.864 64.9099 151.193 57.9186 153.93C56.8636 154.342 55.8596 154.868 54.923 155.498C49.9556 158.846 47.708 164.712 49.853 169.81C56.7999 163.823 65.8658 160.274 75.1724 159.897Z" fill="#BDC0C3" />
  <path d="M49.2032 170.849C57.4898 172.985 66.5657 178.293 72.0818 190.562L49.2032 170.849Z" stroke="#BDC0C3" stroke-linecap="round" stroke-linejoin="round" />
  <g filter="url(#filter1_d_737_4657)">
    <rect x="273" y="97" width="225.054" height="82.6146" rx="10" fill="#D1D3D8" />
  </g>
  <path d="M368.078 128.778L361.706 147.264H357.854L365.881 125.936H368.342L368.078 128.778ZM373.41 147.264L367.024 128.778L366.745 125.936H369.221L377.278 147.264H373.41ZM373.103 139.354V142.269H361.501V139.354H373.103ZM393.025 144.349V147.264H382.317V144.349H393.025ZM383.342 125.936V147.264H379.665V125.936H383.342ZM400.979 125.936V147.264H397.331V125.936H400.979ZM407.673 125.936V128.866H390.696V125.936H407.673Z" fill="#37475E" />
  <defs>
    <filter id="filter0_d_737_4657" x="173" y="0" width="409.432" height="274.283" filterUnits="userSpaceOnUse" color-interpolation-filters="sRGB">
      <feFlood flood-opacity="0" result="BackgroundImageFix" />
      <feColorMatrix in="SourceAlpha" type="matrix" values="0 0 0 0 0 0 0 0 0 0 0 0 0 0 0 0 0 0 127 0" result="hardAlpha" />
      <feOffset />
      <feGaussianBlur stdDeviation="5" />
      <feComposite in2="hardAlpha" operator="out" />
      <feColorMatrix type="matrix" values="0 0 0 0 0 0 0 0 0 0 0 0 0 0 0 0 0 0 0.25 0" />
      <feBlend mode="normal" in2="BackgroundImageFix" result="effect1_dropShadow_737_4657" />
      <feBlend mode="normal" in="SourceGraphic" in2="effect1_dropShadow_737_4657" result="shape" />
    </filter>
    <filter id="filter1_d_737_4657" x="263" y="87" width="245.054" height="102.615" filterUnits="userSpaceOnUse" color-interpolation-filters="sRGB">
      <feFlood flood-opacity="0" result="BackgroundImageFix" />
      <feColorMatrix in="SourceAlpha" type="matrix" values="0 0 0 0 0 0 0 0 0 0 0 0 0 0 0 0 0 0 127 0" result="hardAlpha" />
      <feOffset />
      <feGaussianBlur stdDeviation="5" />
      <feComposite in2="hardAlpha" operator="out" />
      <feColorMatrix type="matrix" values="0 0 0 0 0 0 0 0 0 0 0 0 0 0 0 0 0 0 0.25 0" />
      <feBlend mode="normal" in2="BackgroundImageFix" result="effect1_dropShadow_737_4657" />
      <feBlend mode="normal" in="SourceGraphic" in2="effect1_dropShadow_737_4657" result="shape" />
    </filter>
  </defs>
</svg>
  