<svg width="492" height="369" viewBox="0 0 492 369" fill="none" xmlns="http://www.w3.org/2000/svg">
  <g filter="url(#filter0_d_737_4605)">
    <path d="M10 16C10 12.6863 12.6863 10 16 10H476C479.314 10 482 12.6863 482 16V352.197C482 355.51 479.314 358.197 476 358.197H16C12.6863 358.197 10 355.51 10 352.197V16Z" fill="#283A53" />
  </g>
  <rect x="181.516" y="75.7701" width="116.066" height="9.02732" rx="4.51366" fill="#687384" />
  <rect x="181.516" y="273.082" width="116.066" height="9.02732" rx="4.51366" fill="#687384" />
  <rect width="83.8251" height="78.6667" rx="8" transform="matrix(-1 0 0 1 265.342 177.65)" fill="#687384" />
  <rect width="85.1148" height="78.6667" rx="8" transform="matrix(-1 0 0 1 360.773 177.65)" fill="#687384" />
  <rect width="83.8251" height="78.6667" rx="8" transform="matrix(-1 0 0 1 454.915 177.65)" fill="#687384" />
  <rect x="181.516" y="93.8246" width="273.399" height="9.02732" rx="4.51366" fill="#687384" />
  <rect x="181.516" y="109.3" width="273.399" height="9.02732" rx="4.51366" fill="#687384" />
  <rect x="181.516" y="126.065" width="273.399" height="9.02732" rx="4.51366" fill="#687384" />
  <rect x="181.516" y="144.12" width="273.399" height="9.02732" rx="4.51366" fill="#687384" />
  <rect x="181.516" y="291.136" width="273.399" height="9.02732" rx="4.51366" fill="#687384" />
  <rect x="181.516" y="309.191" width="273.399" height="9.02732" rx="4.51366" fill="#687384" />
  <rect x="181.516" y="324.666" width="273.399" height="9.02732" rx="4.51366" fill="#687384" />
  <rect x="38.3646" y="75.7705" width="81.2459" height="9.02732" rx="4.51366" fill="#687384" />
  <rect x="38.3646" y="92.5355" width="81.2459" height="9.02732" rx="4.51366" fill="#687384" />
  <rect x="38.3674" y="109.301" width="101.88" height="9.02732" rx="4.51366" fill="#687384" />
  <rect x="38.3674" y="126.065" width="101.88" height="9.02732" rx="4.51366" fill="#E55E86" />
  <path d="M38.3674 147.344C38.3674 144.851 40.3883 142.83 42.8811 142.83H93.1762C95.669 142.83 97.6898 144.851 97.6898 147.344V147.344C97.6898 149.837 95.669 151.858 93.1762 151.858H42.8811C40.3883 151.858 38.3674 149.837 38.3674 147.344V147.344Z" fill="#687384" />
  <path d="M260.766 37.9937L259.559 41.6148L255.395 51.2409H253.585L249.42 41.6148L248.213 37.9937H248.093L248.455 43.6366V55.7372H246.342V34.614H248.455L254.49 48.7363L260.525 34.614H262.637V55.7372H260.525V43.6366L260.887 37.9937H260.766Z" fill="#B5B9BE" />
  <path d="M275.501 58.6039V53.6248L272.152 55.7372H270.673C269.486 55.7372 268.581 55.4253 267.957 54.8017C267.354 54.1781 267.052 53.2828 267.052 52.116V43.0934L266.75 40.7096L268.802 40.438L269.164 43.2142V52.1764C269.164 53.2627 269.687 53.8059 270.733 53.8059H271.608L275.501 51.2711V40.6492H277.613V58.6039C277.613 61.3197 276.225 62.6776 273.449 62.6776H270.492L267.474 61.8629L268.017 60.0221L270.492 60.7464H273.66C274.324 60.7464 274.797 60.5754 275.079 60.2334C275.36 59.8914 275.501 59.3482 275.501 58.6039Z" fill="#B5B9BE" />
  <path d="M288.589 41.4941L291.607 40.6492H295.047C296.234 40.6492 297.129 40.9711 297.732 41.6148C298.356 42.2385 298.668 43.1236 298.668 44.2703V53.3533L299 55.7372L296.918 55.9786L296.586 53.2929L293.206 55.7372H291.727C290.561 55.7372 289.665 55.4253 289.042 54.8017C288.418 54.158 288.106 53.2627 288.106 52.116V50.2753C288.106 49.1286 288.418 48.2435 289.042 47.6198C289.665 46.9761 290.561 46.6542 291.727 46.6542H296.556V44.2401C296.556 43.1538 296.033 42.6106 294.986 42.6106H291.607L289.132 43.3349L288.589 41.4941ZM291.788 53.8059H292.663L296.556 50.9694V48.5251H291.788C290.742 48.5251 290.219 49.0683 290.219 50.1546V52.1764C290.219 53.2627 290.742 53.8059 291.788 53.8059Z" fill="#B5B9BE" />
  <path d="M302.945 43.1236L302.643 40.7096L304.695 40.438L304.966 42.5805L308.376 40.6492H309.885C311.052 40.6492 311.947 40.9711 312.571 41.6148C313.194 42.2385 313.506 43.1236 313.506 44.2703V52.116C313.506 53.2627 313.194 54.158 312.571 54.8017C311.947 55.4253 311.052 55.7372 309.885 55.7372H308.437L305.057 55.0733V62.6776H302.945V43.1236ZM308.859 42.6106L305.057 44.7229V53.142L308.497 53.8059H309.825C310.871 53.8059 311.394 53.2627 311.394 52.1764V44.2401C311.394 43.1538 310.871 42.6106 309.825 42.6106H308.859Z" fill="#B5B9BE" />
  <path d="M317.502 43.1236L317.2 40.7096L319.252 40.438L319.524 42.5805L322.934 40.6492H324.443C325.609 40.6492 326.505 40.9711 327.128 41.6148C327.752 42.2385 328.064 43.1236 328.064 44.2703V52.116C328.064 53.2627 327.752 54.158 327.128 54.8017C326.505 55.4253 325.609 55.7372 324.443 55.7372H322.994L319.614 55.0733V62.6776H317.502V43.1236ZM323.417 42.6106L319.614 44.7229V53.142L323.055 53.8059H324.382C325.428 53.8059 325.951 53.2627 325.951 52.1764V44.2401C325.951 43.1538 325.428 42.6106 324.382 42.6106H323.417Z" fill="#B5B9BE" />
  <path d="M226.293 49.1259C219.967 55.4045 209.228 59.4431 201.882 54.675C185.344 43.9414 178.978 52.4592 185.305 46.1806C191.631 39.9019 200.969 39.0536 206.162 44.2857C217.37 54.9312 232.62 42.8472 226.293 49.1259Z" fill="#B5B9BE" />
  <path d="M229.272 39.8577C225.739 43.364 219.642 45.5197 215.36 42.6753C205.718 36.2722 202.196 41.0621 205.729 37.5558C209.262 34.0495 214.603 33.7025 217.658 36.7808C224.243 43.0538 232.805 36.3513 229.272 39.8577Z" fill="#B5B9BE" />
  <path d="M192.417 178.132C188.56 174.419 191.883 165.531 194.806 161.303C197.73 157.074 207.624 167.283 207.624 167.283C207.624 167.283 198.084 179.644 192.417 178.132Z" fill="#F4A5B8" />
  <path d="M212.984 146.649C204.242 140.244 180.534 127.507 178.972 127.033C177.41 126.559 168.502 128.238 166.502 128.391C163.763 128.6 151.003 128 150.503 130C150.503 131.5 149.242 134.19 162.003 135.5C166.503 135.5 168.782 135.977 171.417 135.536C171.417 135.536 166.004 137.46 165.665 140.494C165.466 142.254 168.134 143.978 168.134 143.978C168.134 143.978 165.605 146.653 169.724 149.507C169.724 149.507 166.437 151.493 167.617 154.456C168.797 157.419 173.297 157.785 175.673 157.609C176.49 157.569 177.497 155.495 176.664 154.321C176.664 154.321 178.081 154.885 180.307 158.026C182.533 161.168 185.008 165.04 190.338 164.866C195.669 164.692 199.318 166.175 201.482 168L212.984 146.649Z" fill="#BCC0C6" />
  <path d="M167.003 128.5C165.831 129.146 150.503 127.5 150.503 130.5C150.003 133 154.503 135 163.503 135.5C167.003 135.5 168.868 135.941 171.503 135.5C171.503 135.5 166.341 137.466 166.003 140.5C165.803 142.259 168.003 144 168.003 144C168.003 144 165.384 146.646 169.503 149.5C169.503 149.5 166.761 151.537 167.941 154.5C169.122 157.463 173.622 157.829 175.997 157.653C176.815 157.613 177.835 155.675 177.003 154.5" stroke="#546074" stroke-width="0.68" stroke-linecap="round" stroke-linejoin="round" />
  <path d="M177.145 154.836C176.9 154.292 176.511 153.837 176.003 153.5" stroke="#546074" stroke-width="0.68" stroke-linecap="round" stroke-linejoin="round" />
  <path d="M178.415 152.769C176.338 153.297 173.286 154.283 172.788 155.102" stroke="#546074" stroke-width="0.68" stroke-linecap="round" stroke-linejoin="round" />
  <path d="M169.004 150.002C172.336 147.563 176.21 145.99 180.212 145.45" stroke="#546074" stroke-width="0.68" stroke-linecap="round" stroke-linejoin="round" />
  <path d="M168.003 144C170.017 141.654 178.209 139.715 181.09 139.941" stroke="#546074" stroke-width="0.68" stroke-linecap="round" stroke-linejoin="round" />
  <path d="M171.503 135.5C173.503 134.5 177.976 132.065 182.204 133.366" stroke="#546074" stroke-width="0.68" stroke-linecap="round" stroke-linejoin="round" />
  <path d="M286.95 247.127C282.468 244.849 273.019 238.468 261.747 230.448C232.874 209.887 192.052 178.551 192.417 178.132C192.925 177.552 206.501 162.637 208.645 142.954C208.645 142.954 275.211 180.057 296.344 192.083C309.036 199.304 329.305 209.747 327.456 224.417C327.394 224.951 327.303 225.481 327.193 226C323.894 242.739 302.426 254.974 286.95 247.127Z" fill="#FFB7C8" />
  <path d="M286.95 247.127C282.468 244.849 273.019 238.467 261.747 230.448C267.978 228.864 278.915 227.279 285.184 233.34C294.28 242.129 306.339 242.665 321.594 229.6C323.283 228.143 325.175 226.939 327.211 226.025C323.894 242.739 302.426 254.974 286.95 247.127Z" fill="#A7CAF0" />
  <path d="M208.645 142.954C208.645 142.954 275.211 180.058 296.344 192.083C302.405 195.534 310.199 199.718 316.497 204.766" stroke="#DB5E83" stroke-width="0.68" stroke-linecap="round" stroke-linejoin="round" />
  <path d="M218.881 153.386C215.372 166.058 204.532 182.171 204.532 182.171" stroke="#DB5E83" stroke-width="0.68" stroke-linecap="round" stroke-linejoin="round" />
  <g filter="url(#filter1_d_737_4605)">
    <rect x="181.47" y="194.075" width="225.054" height="82.6146" rx="10" fill="#D1D3D8" />
  </g>
  <path d="M277.549 225.853L271.177 244.339H267.324L275.352 223.011H277.812L277.549 225.853ZM282.881 244.339L276.494 225.853L276.216 223.011H278.691L286.748 244.339H282.881ZM282.573 236.429V239.344H270.972V236.429H282.573ZM302.495 241.424V244.339H291.787V241.424H302.495ZM292.812 223.011V244.339H289.136V223.011H292.812ZM310.449 223.011V244.339H306.802V223.011H310.449ZM317.144 223.011V225.941H300.166V223.011H317.144Z" fill="#822B55" />
  <defs>
    <filter id="filter0_d_737_4605" x="0" y="0" width="492" height="368.197" filterUnits="userSpaceOnUse" color-interpolation-filters="sRGB">
      <feFlood flood-opacity="0" result="BackgroundImageFix" />
      <feColorMatrix in="SourceAlpha" type="matrix" values="0 0 0 0 0 0 0 0 0 0 0 0 0 0 0 0 0 0 127 0" result="hardAlpha" />
      <feOffset />
      <feGaussianBlur stdDeviation="5" />
      <feComposite in2="hardAlpha" operator="out" />
      <feColorMatrix type="matrix" values="0 0 0 0 0 0 0 0 0 0 0 0 0 0 0 0 0 0 0.25 0" />
      <feBlend mode="normal" in2="BackgroundImageFix" result="effect1_dropShadow_737_4605" />
      <feBlend mode="normal" in="SourceGraphic" in2="effect1_dropShadow_737_4605" result="shape" />
    </filter>
    <filter id="filter1_d_737_4605" x="171.47" y="184.075" width="245.054" height="102.615" filterUnits="userSpaceOnUse" color-interpolation-filters="sRGB">
      <feFlood flood-opacity="0" result="BackgroundImageFix" />
      <feColorMatrix in="SourceAlpha" type="matrix" values="0 0 0 0 0 0 0 0 0 0 0 0 0 0 0 0 0 0 127 0" result="hardAlpha" />
      <feOffset />
      <feGaussianBlur stdDeviation="5" />
      <feComposite in2="hardAlpha" operator="out" />
      <feColorMatrix type="matrix" values="0 0 0 0 0 0 0 0 0 0 0 0 0 0 0 0 0 0 0.25 0" />
      <feBlend mode="normal" in2="BackgroundImageFix" result="effect1_dropShadow_737_4605" />
      <feBlend mode="normal" in="SourceGraphic" in2="effect1_dropShadow_737_4605" result="shape" />
    </filter>
  </defs>
</svg>
  