<svg width="546" height="397" viewBox="0 0 546 397" fill="none" xmlns="http://www.w3.org/2000/svg">
    <g filter="url(#filter0_d_546_10251)">
        <path d="M10 78C10 74.6863 12.6863 72 16 72H370C373.314 72 376 74.6863 376 78V336C376 339.314 373.314 342 370 342H16C12.6863 342 10 339.314 10 336V78Z" fill="white"/>
    </g>
    <rect x="143" y="123" width="90" height="7" rx="3.5" fill="#EBEDF0"/>
    <rect x="143" y="276" width="90" height="7" rx="3.5" fill="#EBEDF0"/>
    <rect width="65" height="61" rx="8" transform="matrix(-1 0 0 1 208 202)" fill="#EBEDF0"/>
    <rect width="66" height="61" rx="8" transform="matrix(-1 0 0 1 282 202)" fill="#EBEDF0"/>
    <rect width="65" height="61" rx="8" transform="matrix(-1 0 0 1 355 202)" fill="#EBEDF0"/>
    <rect x="143" y="137" width="212" height="7" rx="3.5" fill="#EBEDF0"/>
    <rect x="143" y="149" width="212" height="7" rx="3.5" fill="#EBEDF0"/>
    <rect x="143" y="162" width="212" height="7" rx="3.5" fill="#EBEDF0"/>
    <rect x="143" y="176" width="212" height="7" rx="3.5" fill="#EBEDF0"/>
    <rect x="143" y="290" width="212" height="7" rx="3.5" fill="#EBEDF0"/>
    <rect x="143" y="304" width="212" height="7" rx="3.5" fill="#EBEDF0"/>
    <rect x="143" y="316" width="212" height="7" rx="3.5" fill="#EBEDF0"/>
    <rect x="32" y="123" width="63" height="7" rx="3.5" fill="#EBEDF0"/>
    <rect x="32" y="136" width="63" height="7" rx="3.5" fill="#EBEDF0"/>
    <rect x="32" y="149" width="79" height="7" rx="3.5" fill="#EBEDF0"/>
    <rect x="32" y="162" width="79" height="7" rx="3.5" fill="#822B55"/>
    <path d="M32 178.5C32 176.567 33.567 175 35.5 175H74.5C76.433 175 78 176.567 78 178.5C78 180.433 76.433 182 74.5 182H35.5C33.567 182 32 180.433 32 178.5Z" fill="#EBEDF0"/>
    <path d="M204.447 93.7074L203.512 96.5153L200.282 103.98H198.878L195.649 96.5153L194.713 93.7074H194.62L194.901 98.083V107.466H193.263V91.0867H194.901L199.58 102.037L204.26 91.0867H205.898V107.466H204.26V98.083L204.541 93.7074H204.447Z" fill="#C4C4C4"/>
    <path d="M215.873 109.689V105.828L213.276 107.466H212.129C211.209 107.466 210.507 107.224 210.023 106.741C209.555 106.257 209.321 105.563 209.321 104.658V97.6618L209.087 95.8133L210.678 95.6027L210.959 97.7554V104.705C210.959 105.547 211.365 105.969 212.176 105.969H212.855L215.873 104.003V95.7665H217.511V109.689C217.511 111.795 216.435 112.848 214.282 112.848H211.989L209.649 112.216L210.07 110.789L211.989 111.35H214.446C214.96 111.35 215.327 111.218 215.545 110.953C215.764 110.687 215.873 110.266 215.873 109.689Z" fill="#C4C4C4"/>
    <path d="M226.022 96.4217L228.362 95.7665H231.029C231.95 95.7665 232.644 96.0161 233.112 96.5153C233.595 96.9988 233.837 97.6852 233.837 98.5744V105.618L234.095 107.466L232.48 107.653L232.223 105.571L229.602 107.466H228.455C227.551 107.466 226.856 107.224 226.373 106.741C225.889 106.242 225.647 105.547 225.647 104.658V103.231C225.647 102.342 225.889 101.655 226.373 101.172C226.856 100.673 227.551 100.423 228.455 100.423H232.199V98.551C232.199 97.7086 231.794 97.2874 230.982 97.2874H228.362L226.443 97.849L226.022 96.4217ZM228.502 105.969H229.181L232.199 103.769V101.874H228.502C227.691 101.874 227.285 102.295 227.285 103.137V104.705C227.285 105.547 227.691 105.969 228.502 105.969Z" fill="#C4C4C4"/>
    <path d="M237.153 97.6852L236.919 95.8133L238.511 95.6027L238.721 97.264L241.365 95.7665H242.535C243.44 95.7665 244.134 96.0161 244.618 96.5153C245.101 96.9988 245.343 97.6852 245.343 98.5744V104.658C245.343 105.547 245.101 106.242 244.618 106.741C244.134 107.224 243.44 107.466 242.535 107.466H241.412L238.791 106.951V112.848H237.153V97.6852ZM241.74 97.2874L238.791 98.9254V105.454L241.459 105.969H242.488C243.3 105.969 243.705 105.547 243.705 104.705V98.551C243.705 97.7086 243.3 97.2874 242.488 97.2874H241.74Z" fill="#C4C4C4"/>
    <path d="M248.442 97.6852L248.208 95.8133L249.799 95.6027L250.009 97.264L252.654 95.7665H253.823C254.728 95.7665 255.422 96.0161 255.906 96.5153C256.39 96.9988 256.631 97.6852 256.631 98.5744V104.658C256.631 105.547 256.39 106.242 255.906 106.741C255.422 107.224 254.728 107.466 253.823 107.466H252.7L250.08 106.951V112.848H248.442V97.6852ZM253.028 97.2874L250.08 98.9254V105.454L252.747 105.969H253.777C254.588 105.969 254.993 105.547 254.993 104.705V98.551C254.993 97.7086 254.588 97.2874 253.777 97.2874H253.028Z" fill="#C4C4C4"/>
    <path d="M177.717 102.34C172.811 107.208 164.484 110.34 158.787 106.642C145.964 98.3194 141.027 104.924 145.933 100.056C150.838 95.1871 158.079 94.5293 162.106 98.5864C170.797 106.841 182.622 97.4709 177.717 102.34Z" fill="#C4C4C4"/>
    <path d="M180.024 95.1529C177.285 97.8718 172.558 99.5434 169.237 97.3378C161.76 92.3727 159.029 96.0869 161.769 93.368C164.508 90.6491 168.65 90.3801 171.019 92.7671C176.125 97.6313 182.764 92.4341 180.024 95.1529Z" fill="#C4C4C4"/>
    <g filter="url(#filter1_d_546_10251)">
        <path d="M167.404 16C167.404 12.6863 170.09 10 173.404 10H529.404C532.718 10 535.404 12.6863 535.404 16V381C535.404 384.314 532.718 387 529.404 387H173.404C170.09 387 167.404 384.314 167.404 381V16Z" fill="white"/>
        <path d="M132.472 172.44C127.345 171.087 126.364 164.238 130.904 161.5L189.267 126.309C193.266 123.897 198.365 126.777 198.365 131.447V182.034C198.365 185.97 194.64 188.84 190.835 187.836L132.472 172.44Z" fill="white"/>
    </g>
    <path d="M194.729 92.7354V88.9277C194.729 88.6361 194.67 88.3831 194.552 88.1689C194.438 87.9502 194.265 87.7816 194.032 87.6631C193.8 87.5446 193.513 87.4854 193.171 87.4854C192.852 87.4854 192.572 87.54 192.33 87.6494C192.093 87.7588 191.906 87.9023 191.77 88.0801C191.637 88.2578 191.571 88.4492 191.571 88.6543H190.307C190.307 88.39 190.375 88.1279 190.512 87.8682C190.648 87.6084 190.844 87.3737 191.1 87.1641C191.359 86.9499 191.669 86.7812 192.029 86.6582C192.394 86.5306 192.799 86.4668 193.246 86.4668C193.784 86.4668 194.258 86.5579 194.668 86.7402C195.083 86.9225 195.406 87.1982 195.639 87.5674C195.876 87.932 195.994 88.39 195.994 88.9414V92.3867C195.994 92.6328 196.015 92.8949 196.056 93.1729C196.101 93.4508 196.167 93.6901 196.254 93.8906V94H194.935C194.871 93.8542 194.821 93.6605 194.784 93.4189C194.748 93.1729 194.729 92.945 194.729 92.7354ZM194.948 89.5156L194.962 90.4043H193.684C193.324 90.4043 193.002 90.4339 192.72 90.4932C192.437 90.5479 192.2 90.6322 192.009 90.7461C191.817 90.86 191.672 91.0036 191.571 91.1768C191.471 91.3454 191.421 91.5436 191.421 91.7715C191.421 92.0039 191.473 92.2158 191.578 92.4072C191.683 92.5986 191.84 92.7513 192.05 92.8652C192.264 92.9746 192.526 93.0293 192.836 93.0293C193.223 93.0293 193.565 92.9473 193.861 92.7832C194.158 92.6191 194.392 92.4186 194.565 92.1816C194.743 91.9447 194.839 91.7145 194.853 91.4912L195.393 92.0996C195.361 92.291 195.274 92.5029 195.133 92.7354C194.992 92.9678 194.802 93.1911 194.565 93.4053C194.333 93.6149 194.055 93.7904 193.731 93.9316C193.412 94.0684 193.052 94.1367 192.651 94.1367C192.15 94.1367 191.71 94.0387 191.332 93.8428C190.958 93.6468 190.667 93.3848 190.457 93.0566C190.252 92.724 190.149 92.3525 190.149 91.9424C190.149 91.5459 190.227 91.1973 190.382 90.8965C190.537 90.5911 190.76 90.3382 191.052 90.1377C191.343 89.9326 191.694 89.7777 192.104 89.6729C192.515 89.568 192.973 89.5156 193.479 89.5156H194.948ZM199.248 88.0254V96.8438H197.977V86.6035H199.139L199.248 88.0254ZM204.231 90.2402V90.3838C204.231 90.9215 204.168 91.4206 204.04 91.8809C203.912 92.3366 203.726 92.7331 203.479 93.0703C203.238 93.4076 202.939 93.6696 202.584 93.8564C202.229 94.0433 201.821 94.1367 201.36 94.1367C200.891 94.1367 200.476 94.0592 200.116 93.9043C199.756 93.7493 199.451 93.5238 199.2 93.2275C198.95 92.9313 198.749 92.5758 198.599 92.1611C198.453 91.7464 198.353 91.2793 198.298 90.7598V89.9941C198.353 89.4473 198.455 88.9574 198.605 88.5244C198.756 88.0915 198.954 87.7223 199.2 87.417C199.451 87.1071 199.754 86.8724 200.109 86.7129C200.465 86.5488 200.875 86.4668 201.34 86.4668C201.805 86.4668 202.217 86.5579 202.577 86.7402C202.937 86.918 203.24 87.1732 203.486 87.5059C203.732 87.8385 203.917 88.2373 204.04 88.7021C204.168 89.1624 204.231 89.6751 204.231 90.2402ZM202.96 90.3838V90.2402C202.96 89.8711 202.921 89.5247 202.844 89.2012C202.766 88.873 202.646 88.5859 202.481 88.3398C202.322 88.0892 202.117 87.8932 201.866 87.752C201.616 87.6061 201.317 87.5332 200.971 87.5332C200.652 87.5332 200.374 87.5879 200.137 87.6973C199.904 87.8066 199.706 87.9548 199.542 88.1416C199.378 88.3239 199.243 88.5335 199.139 88.7705C199.038 89.0029 198.963 89.2445 198.913 89.4951V91.2656C199.004 91.5846 199.132 91.8854 199.296 92.168C199.46 92.446 199.679 92.6715 199.952 92.8447C200.226 93.0133 200.57 93.0977 200.984 93.0977C201.326 93.0977 201.62 93.027 201.866 92.8857C202.117 92.7399 202.322 92.5417 202.481 92.291C202.646 92.0404 202.766 91.7533 202.844 91.4297C202.921 91.1016 202.96 90.7529 202.96 90.3838ZM207.109 88.0254V96.8438H205.838V86.6035H207L207.109 88.0254ZM212.093 90.2402V90.3838C212.093 90.9215 212.029 91.4206 211.901 91.8809C211.774 92.3366 211.587 92.7331 211.341 93.0703C211.099 93.4076 210.801 93.6696 210.445 93.8564C210.09 94.0433 209.682 94.1367 209.222 94.1367C208.752 94.1367 208.338 94.0592 207.978 93.9043C207.618 93.7493 207.312 93.5238 207.062 93.2275C206.811 92.9313 206.61 92.5758 206.46 92.1611C206.314 91.7464 206.214 91.2793 206.159 90.7598V89.9941C206.214 89.4473 206.316 88.9574 206.467 88.5244C206.617 88.0915 206.815 87.7223 207.062 87.417C207.312 87.1071 207.615 86.8724 207.971 86.7129C208.326 86.5488 208.736 86.4668 209.201 86.4668C209.666 86.4668 210.078 86.5579 210.438 86.7402C210.799 86.918 211.102 87.1732 211.348 87.5059C211.594 87.8385 211.778 88.2373 211.901 88.7021C212.029 89.1624 212.093 89.6751 212.093 90.2402ZM210.821 90.3838V90.2402C210.821 89.8711 210.783 89.5247 210.705 89.2012C210.628 88.873 210.507 88.5859 210.343 88.3398C210.183 88.0892 209.978 87.8932 209.728 87.752C209.477 87.6061 209.178 87.5332 208.832 87.5332C208.513 87.5332 208.235 87.5879 207.998 87.6973C207.766 87.8066 207.567 87.9548 207.403 88.1416C207.239 88.3239 207.105 88.5335 207 88.7705C206.9 89.0029 206.825 89.2445 206.774 89.4951V91.2656C206.866 91.5846 206.993 91.8854 207.157 92.168C207.321 92.446 207.54 92.6715 207.813 92.8447C208.087 93.0133 208.431 93.0977 208.846 93.0977C209.188 93.0977 209.481 93.027 209.728 92.8857C209.978 92.7399 210.183 92.5417 210.343 92.291C210.507 92.0404 210.628 91.7533 210.705 91.4297C210.783 91.1016 210.821 90.7529 210.821 90.3838ZM219.038 94V95.0391H212.77V94H219.038ZM221.28 88.0732V94H220.009V86.6035H221.212L221.28 88.0732ZM221.021 90.0215L220.433 90.001C220.437 89.4951 220.503 89.028 220.631 88.5996C220.758 88.1667 220.948 87.7907 221.198 87.4717C221.449 87.1527 221.761 86.9066 222.135 86.7334C222.508 86.5557 222.941 86.4668 223.434 86.4668C223.78 86.4668 224.099 86.5169 224.391 86.6172C224.682 86.7129 224.935 86.8656 225.149 87.0752C225.364 87.2848 225.53 87.5537 225.648 87.8818C225.767 88.21 225.826 88.6064 225.826 89.0713V94H224.562V89.1328C224.562 88.7454 224.495 88.4355 224.363 88.2031C224.236 87.9707 224.053 87.8021 223.816 87.6973C223.579 87.5879 223.301 87.5332 222.982 87.5332C222.609 87.5332 222.297 87.5993 222.046 87.7314C221.795 87.8636 221.595 88.0459 221.444 88.2783C221.294 88.5107 221.185 88.7773 221.116 89.0781C221.052 89.3743 221.021 89.6888 221.021 90.0215ZM225.812 89.3242L224.965 89.584C224.969 89.1784 225.035 88.7887 225.163 88.415C225.295 88.0413 225.484 87.7087 225.73 87.417C225.981 87.1253 226.289 86.8952 226.653 86.7266C227.018 86.5534 227.435 86.4668 227.904 86.4668C228.301 86.4668 228.652 86.5192 228.957 86.624C229.267 86.7288 229.527 86.8906 229.736 87.1094C229.951 87.3236 230.112 87.5993 230.222 87.9365C230.331 88.2738 230.386 88.6748 230.386 89.1396V94H229.114V89.126C229.114 88.7113 229.048 88.39 228.916 88.1621C228.788 87.9297 228.606 87.7679 228.369 87.6768C228.137 87.5811 227.859 87.5332 227.535 87.5332C227.257 87.5332 227.011 87.5811 226.797 87.6768C226.583 87.7725 226.403 87.9046 226.257 88.0732C226.111 88.2373 225.999 88.4264 225.922 88.6406C225.849 88.8548 225.812 89.0827 225.812 89.3242ZM235.369 94.1367C234.854 94.1367 234.387 94.0501 233.968 93.877C233.553 93.6992 233.195 93.4508 232.895 93.1318C232.598 92.8128 232.37 92.4346 232.211 91.9971C232.051 91.5596 231.972 91.0811 231.972 90.5615V90.2744C231.972 89.6729 232.061 89.1374 232.238 88.668C232.416 88.194 232.658 87.793 232.963 87.4648C233.268 87.1367 233.615 86.8883 234.002 86.7197C234.389 86.5511 234.79 86.4668 235.205 86.4668C235.734 86.4668 236.189 86.5579 236.572 86.7402C236.96 86.9225 237.276 87.1777 237.522 87.5059C237.769 87.8294 237.951 88.2122 238.069 88.6543C238.188 89.0918 238.247 89.5703 238.247 90.0898V90.6572H232.724V89.625H236.982V89.5293C236.964 89.2012 236.896 88.8822 236.777 88.5723C236.663 88.2624 236.481 88.0072 236.23 87.8066C235.98 87.6061 235.638 87.5059 235.205 87.5059C234.918 87.5059 234.654 87.5674 234.412 87.6904C234.171 87.8089 233.963 87.9867 233.79 88.2236C233.617 88.4606 233.482 88.75 233.387 89.0918C233.291 89.4336 233.243 89.8278 233.243 90.2744V90.5615C233.243 90.9124 233.291 91.2428 233.387 91.5527C233.487 91.8581 233.631 92.127 233.817 92.3594C234.009 92.5918 234.239 92.7741 234.508 92.9062C234.781 93.0384 235.091 93.1045 235.438 93.1045C235.884 93.1045 236.262 93.0133 236.572 92.8311C236.882 92.6488 237.153 92.4049 237.386 92.0996L238.151 92.708C237.992 92.9495 237.789 93.1797 237.543 93.3984C237.297 93.6172 236.994 93.7949 236.634 93.9316C236.278 94.0684 235.857 94.1367 235.369 94.1367ZM240.988 88.1826V94H239.724V86.6035H240.92L240.988 88.1826ZM240.688 90.0215L240.161 90.001C240.166 89.4951 240.241 89.028 240.387 88.5996C240.533 88.1667 240.738 87.7907 241.002 87.4717C241.266 87.1527 241.581 86.9066 241.945 86.7334C242.314 86.5557 242.722 86.4668 243.169 86.4668C243.534 86.4668 243.862 86.5169 244.153 86.6172C244.445 86.7129 244.693 86.8678 244.898 87.082C245.108 87.2962 245.268 87.5742 245.377 87.916C245.486 88.2533 245.541 88.6657 245.541 89.1533V94H244.27V89.1396C244.27 88.7523 244.213 88.4424 244.099 88.21C243.985 87.973 243.818 87.8021 243.6 87.6973C243.381 87.5879 243.112 87.5332 242.793 87.5332C242.479 87.5332 242.191 87.5993 241.932 87.7314C241.676 87.8636 241.455 88.0459 241.269 88.2783C241.086 88.5107 240.943 88.7773 240.838 89.0781C240.738 89.3743 240.688 89.6888 240.688 90.0215ZM251.987 92.291V86.6035H253.259V94H252.049L251.987 92.291ZM252.227 90.7324L252.753 90.7188C252.753 91.2109 252.701 91.6667 252.596 92.0859C252.495 92.5007 252.331 92.8607 252.104 93.166C251.876 93.4714 251.577 93.7106 251.208 93.8838C250.839 94.0524 250.39 94.1367 249.861 94.1367C249.501 94.1367 249.171 94.0843 248.87 93.9795C248.574 93.8747 248.319 93.7129 248.104 93.4941C247.89 93.2754 247.724 92.9906 247.605 92.6396C247.492 92.2887 247.435 91.8672 247.435 91.375V86.6035H248.699V91.3887C248.699 91.7214 248.736 91.9971 248.809 92.2158C248.886 92.43 248.989 92.6009 249.116 92.7285C249.248 92.8516 249.394 92.9382 249.554 92.9883C249.718 93.0384 249.886 93.0635 250.06 93.0635C250.597 93.0635 251.023 92.9609 251.338 92.7559C251.652 92.5462 251.878 92.266 252.015 91.915C252.156 91.5596 252.227 91.1654 252.227 90.7324ZM256.561 86.6035V94H255.289V86.6035H256.561ZM255.193 84.6416C255.193 84.4365 255.255 84.2633 255.378 84.1221C255.506 83.9808 255.692 83.9102 255.938 83.9102C256.18 83.9102 256.365 83.9808 256.492 84.1221C256.624 84.2633 256.69 84.4365 256.69 84.6416C256.69 84.8376 256.624 85.0062 256.492 85.1475C256.365 85.2842 256.18 85.3525 255.938 85.3525C255.692 85.3525 255.506 85.2842 255.378 85.1475C255.255 85.0062 255.193 84.8376 255.193 84.6416ZM261.688 86.6035V87.5742H257.688V86.6035H261.688ZM259.042 84.8057H260.307V92.168C260.307 92.4186 260.345 92.6077 260.423 92.7354C260.5 92.863 260.601 92.9473 260.724 92.9883C260.847 93.0293 260.979 93.0498 261.12 93.0498C261.225 93.0498 261.334 93.0407 261.448 93.0225C261.567 92.9997 261.656 92.9814 261.715 92.9678L261.722 94C261.621 94.0319 261.489 94.0615 261.325 94.0889C261.166 94.1208 260.972 94.1367 260.744 94.1367C260.434 94.1367 260.149 94.0752 259.89 93.9521C259.63 93.8291 259.423 93.624 259.268 93.3369C259.117 93.0452 259.042 92.6533 259.042 92.1611V84.8057ZM266.24 94.1367C265.725 94.1367 265.258 94.0501 264.839 93.877C264.424 93.6992 264.066 93.4508 263.766 93.1318C263.469 92.8128 263.242 92.4346 263.082 91.9971C262.923 91.5596 262.843 91.0811 262.843 90.5615V90.2744C262.843 89.6729 262.932 89.1374 263.109 88.668C263.287 88.194 263.529 87.793 263.834 87.4648C264.139 87.1367 264.486 86.8883 264.873 86.7197C265.26 86.5511 265.661 86.4668 266.076 86.4668C266.605 86.4668 267.061 86.5579 267.443 86.7402C267.831 86.9225 268.147 87.1777 268.394 87.5059C268.64 87.8294 268.822 88.2122 268.94 88.6543C269.059 89.0918 269.118 89.5703 269.118 90.0898V90.6572H263.595V89.625H267.854V89.5293C267.835 89.2012 267.767 88.8822 267.648 88.5723C267.535 88.2624 267.352 88.0072 267.102 87.8066C266.851 87.6061 266.509 87.5059 266.076 87.5059C265.789 87.5059 265.525 87.5674 265.283 87.6904C265.042 87.8089 264.834 87.9867 264.661 88.2236C264.488 88.4606 264.354 88.75 264.258 89.0918C264.162 89.4336 264.114 89.8278 264.114 90.2744V90.5615C264.114 90.9124 264.162 91.2428 264.258 91.5527C264.358 91.8581 264.502 92.127 264.688 92.3594C264.88 92.5918 265.11 92.7741 265.379 92.9062C265.652 93.0384 265.962 93.1045 266.309 93.1045C266.755 93.1045 267.133 93.0133 267.443 92.8311C267.753 92.6488 268.024 92.4049 268.257 92.0996L269.022 92.708C268.863 92.9495 268.66 93.1797 268.414 93.3984C268.168 93.6172 267.865 93.7949 267.505 93.9316C267.149 94.0684 266.728 94.1367 266.24 94.1367ZM271.853 88.0732V94H270.581V86.6035H271.784L271.853 88.0732ZM271.593 90.0215L271.005 90.001C271.009 89.4951 271.076 89.028 271.203 88.5996C271.331 88.1667 271.52 87.7907 271.771 87.4717C272.021 87.1527 272.333 86.9066 272.707 86.7334C273.081 86.5557 273.514 86.4668 274.006 86.4668C274.352 86.4668 274.671 86.5169 274.963 86.6172C275.255 86.7129 275.507 86.8656 275.722 87.0752C275.936 87.2848 276.102 87.5537 276.221 87.8818C276.339 88.21 276.398 88.6064 276.398 89.0713V94H275.134V89.1328C275.134 88.7454 275.068 88.4355 274.936 88.2031C274.808 87.9707 274.626 87.8021 274.389 87.6973C274.152 87.5879 273.874 87.5332 273.555 87.5332C273.181 87.5332 272.869 87.5993 272.618 87.7314C272.368 87.8636 272.167 88.0459 272.017 88.2783C271.866 88.5107 271.757 88.7773 271.688 89.0781C271.625 89.3743 271.593 89.6888 271.593 90.0215ZM276.385 89.3242L275.537 89.584C275.542 89.1784 275.608 88.7887 275.735 88.415C275.868 88.0413 276.057 87.7087 276.303 87.417C276.553 87.1253 276.861 86.8952 277.226 86.7266C277.59 86.5534 278.007 86.4668 278.477 86.4668C278.873 86.4668 279.224 86.5192 279.529 86.624C279.839 86.7288 280.099 86.8906 280.309 87.1094C280.523 87.3236 280.685 87.5993 280.794 87.9365C280.903 88.2738 280.958 88.6748 280.958 89.1396V94H279.687V89.126C279.687 88.7113 279.62 88.39 279.488 88.1621C279.361 87.9297 279.178 87.7679 278.941 87.6768C278.709 87.5811 278.431 87.5332 278.107 87.5332C277.829 87.5332 277.583 87.5811 277.369 87.6768C277.155 87.7725 276.975 87.9046 276.829 88.0732C276.683 88.2373 276.572 88.4264 276.494 88.6406C276.421 88.8548 276.385 89.0827 276.385 89.3242Z" fill="#505050"/>
    <path d="M191.879 66.0469V76H190.56V66.0469H191.879ZM197.888 66.0469L193.752 70.6885L191.428 73.1016L191.209 71.6934L192.959 69.7656L196.302 66.0469H197.888ZM196.616 76L192.932 71.1465L193.718 70.1006L198.188 76H196.616ZM202.051 76.1367C201.536 76.1367 201.069 76.0501 200.649 75.877C200.235 75.6992 199.877 75.4508 199.576 75.1318C199.28 74.8128 199.052 74.4346 198.893 73.9971C198.733 73.5596 198.653 73.0811 198.653 72.5615V72.2744C198.653 71.6729 198.742 71.1374 198.92 70.668C199.098 70.194 199.339 69.793 199.645 69.4648C199.95 69.1367 200.296 68.8883 200.684 68.7197C201.071 68.5511 201.472 68.4668 201.887 68.4668C202.415 68.4668 202.871 68.5579 203.254 68.7402C203.641 68.9225 203.958 69.1777 204.204 69.5059C204.45 69.8294 204.632 70.2122 204.751 70.6543C204.869 71.0918 204.929 71.5703 204.929 72.0898V72.6572H199.405V71.625H203.664V71.5293C203.646 71.2012 203.577 70.8822 203.459 70.5723C203.345 70.2624 203.163 70.0072 202.912 69.8066C202.661 69.6061 202.32 69.5059 201.887 69.5059C201.6 69.5059 201.335 69.5674 201.094 69.6904C200.852 69.8089 200.645 69.9867 200.472 70.2236C200.299 70.4606 200.164 70.75 200.068 71.0918C199.973 71.4336 199.925 71.8278 199.925 72.2744V72.5615C199.925 72.9124 199.973 73.2428 200.068 73.5527C200.169 73.8581 200.312 74.127 200.499 74.3594C200.69 74.5918 200.921 74.7741 201.189 74.9062C201.463 75.0384 201.773 75.1045 202.119 75.1045C202.566 75.1045 202.944 75.0133 203.254 74.8311C203.564 74.6488 203.835 74.4049 204.067 74.0996L204.833 74.708C204.674 74.9495 204.471 75.1797 204.225 75.3984C203.979 75.6172 203.675 75.7949 203.315 75.9316C202.96 76.0684 202.538 76.1367 202.051 76.1367ZM208.388 75.2344L210.445 68.6035H211.799L208.832 77.1416C208.764 77.3239 208.673 77.5199 208.559 77.7295C208.449 77.9437 208.308 78.1465 208.135 78.3379C207.962 78.5293 207.752 78.6842 207.506 78.8027C207.264 78.9258 206.975 78.9873 206.638 78.9873C206.537 78.9873 206.41 78.9736 206.255 78.9463C206.1 78.9189 205.991 78.8962 205.927 78.8779L205.92 77.8525C205.956 77.8571 206.013 77.8617 206.091 77.8662C206.173 77.8753 206.23 77.8799 206.262 77.8799C206.549 77.8799 206.793 77.8411 206.993 77.7637C207.194 77.6908 207.362 77.5654 207.499 77.3877C207.64 77.2145 207.761 76.9753 207.861 76.6699L208.388 75.2344ZM206.877 68.6035L208.798 74.3457L209.126 75.6787L208.217 76.1436L205.496 68.6035H206.877Z" fill="#808080"/>
    <path d="M196.584 42.4844L199.576 44.8594L198.303 45.9766L195.365 43.625L196.584 42.4844ZM199.6 38V38.625C199.6 39.4844 199.488 40.2552 199.264 40.9375C199.04 41.6198 198.719 42.2005 198.303 42.6797C197.886 43.1589 197.389 43.526 196.811 43.7812C196.232 44.0312 195.592 44.1562 194.889 44.1562C194.191 44.1562 193.553 44.0312 192.975 43.7812C192.402 43.526 191.904 43.1589 191.482 42.6797C191.061 42.2005 190.732 41.6198 190.498 40.9375C190.269 40.2552 190.154 39.4844 190.154 38.625V38C190.154 37.1406 190.269 36.3724 190.498 35.6953C190.727 35.013 191.05 34.4323 191.467 33.9531C191.889 33.4688 192.386 33.1016 192.959 32.8516C193.537 32.5964 194.175 32.4688 194.873 32.4688C195.576 32.4688 196.217 32.5964 196.795 32.8516C197.378 33.1016 197.878 33.4688 198.295 33.9531C198.712 34.4323 199.032 35.013 199.256 35.6953C199.485 36.3724 199.6 37.1406 199.6 38ZM197.631 38.625V37.9844C197.631 37.349 197.568 36.7891 197.443 36.3047C197.324 35.8151 197.144 35.4062 196.904 35.0781C196.67 34.7448 196.381 34.4948 196.037 34.3281C195.699 34.1562 195.311 34.0703 194.873 34.0703C194.446 34.0703 194.063 34.1562 193.725 34.3281C193.386 34.4948 193.097 34.7448 192.857 35.0781C192.618 35.4062 192.436 35.8151 192.311 36.3047C192.186 36.7891 192.123 37.349 192.123 37.9844V38.625C192.123 39.2604 192.186 39.8229 192.311 40.3125C192.436 40.8021 192.618 41.2161 192.857 41.5547C193.102 41.888 193.394 42.1406 193.732 42.3125C194.076 42.4792 194.462 42.5625 194.889 42.5625C195.326 42.5625 195.714 42.4792 196.053 42.3125C196.391 42.1406 196.678 41.888 196.912 41.5547C197.146 41.2161 197.324 40.8021 197.443 40.3125C197.568 39.8229 197.631 39.2604 197.631 38.625ZM206.49 42.0078V35.5469H208.381V44H206.6L206.49 42.0078ZM206.756 40.25L207.389 40.2344C207.389 40.8021 207.326 41.3255 207.201 41.8047C207.076 42.2786 206.883 42.6927 206.623 43.0469C206.363 43.3958 206.029 43.6693 205.623 43.8672C205.217 44.0599 204.73 44.1562 204.162 44.1562C203.751 44.1562 203.373 44.0964 203.029 43.9766C202.686 43.8568 202.389 43.6719 202.139 43.4219C201.894 43.1719 201.704 42.8464 201.568 42.4453C201.433 42.0443 201.365 41.5651 201.365 41.0078V35.5469H203.248V41.0234C203.248 41.3307 203.285 41.5885 203.357 41.7969C203.43 42 203.529 42.1641 203.654 42.2891C203.779 42.4141 203.925 42.5026 204.092 42.5547C204.258 42.6068 204.436 42.6328 204.623 42.6328C205.16 42.6328 205.581 42.5286 205.889 42.3203C206.201 42.1068 206.423 41.8203 206.553 41.4609C206.688 41.1016 206.756 40.6979 206.756 40.25ZM212.326 35.5469V44H210.436V35.5469H212.326ZM210.311 33.3281C210.311 33.0417 210.404 32.8047 210.592 32.6172C210.785 32.4245 211.05 32.3281 211.389 32.3281C211.722 32.3281 211.985 32.4245 212.178 32.6172C212.37 32.8047 212.467 33.0417 212.467 33.3281C212.467 33.6094 212.37 33.8438 212.178 34.0312C211.985 34.2188 211.722 34.3125 211.389 34.3125C211.05 34.3125 210.785 34.2188 210.592 34.0312C210.404 33.8438 210.311 33.6094 210.311 33.3281ZM217.842 42.6562C218.149 42.6562 218.425 42.5964 218.67 42.4766C218.92 42.3516 219.12 42.1797 219.271 41.9609C219.428 41.7422 219.514 41.4896 219.529 41.2031H221.303C221.292 41.75 221.131 42.2474 220.818 42.6953C220.506 43.1432 220.092 43.5 219.576 43.7656C219.061 44.026 218.49 44.1562 217.865 44.1562C217.219 44.1562 216.657 44.0469 216.178 43.8281C215.699 43.6042 215.3 43.2969 214.982 42.9062C214.665 42.5156 214.425 42.0651 214.264 41.5547C214.107 41.0443 214.029 40.4974 214.029 39.9141V39.6406C214.029 39.0573 214.107 38.5104 214.264 38C214.425 37.4844 214.665 37.0312 214.982 36.6406C215.3 36.25 215.699 35.9453 216.178 35.7266C216.657 35.5026 217.217 35.3906 217.857 35.3906C218.535 35.3906 219.128 35.526 219.639 35.7969C220.149 36.0625 220.55 36.4349 220.842 36.9141C221.139 37.388 221.292 37.9401 221.303 38.5703H219.529C219.514 38.2578 219.436 37.9766 219.295 37.7266C219.16 37.4714 218.967 37.2682 218.717 37.1172C218.472 36.9661 218.178 36.8906 217.834 36.8906C217.454 36.8906 217.139 36.9688 216.889 37.125C216.639 37.276 216.443 37.4844 216.303 37.75C216.162 38.0104 216.061 38.3047 215.998 38.6328C215.941 38.9557 215.912 39.2917 215.912 39.6406V39.9141C215.912 40.263 215.941 40.6016 215.998 40.9297C216.055 41.2578 216.154 41.5521 216.295 41.8125C216.441 42.0677 216.639 42.2734 216.889 42.4297C217.139 42.5807 217.456 42.6562 217.842 42.6562ZM224.646 32V44H222.756V32H224.646ZM229.896 35.5469L226.217 39.625L224.201 41.6875L223.709 40.0938L225.232 38.2109L227.623 35.5469H229.896ZM228.029 44L225.287 40.0312L226.475 38.7109L230.209 44H228.029ZM238.951 35.5469V36.9219H234.186V35.5469H238.951ZM235.561 33.4766H237.443V41.6641C237.443 41.9245 237.48 42.125 237.553 42.2656C237.631 42.401 237.738 42.4922 237.873 42.5391C238.008 42.5859 238.167 42.6094 238.35 42.6094C238.48 42.6094 238.605 42.6016 238.725 42.5859C238.844 42.5703 238.941 42.5547 239.014 42.5391L239.021 43.9766C238.865 44.0234 238.683 44.0651 238.475 44.1016C238.271 44.138 238.037 44.1562 237.771 44.1562C237.339 44.1562 236.956 44.0807 236.623 43.9297C236.29 43.7734 236.029 43.5208 235.842 43.1719C235.654 42.8229 235.561 42.3594 235.561 41.7812V33.4766ZM242.295 37.1562V44H240.412V35.5469H242.209L242.295 37.1562ZM244.881 35.4922L244.865 37.2422C244.751 37.2214 244.626 37.2057 244.49 37.1953C244.36 37.1849 244.23 37.1797 244.1 37.1797C243.777 37.1797 243.493 37.2266 243.248 37.3203C243.003 37.4089 242.798 37.5391 242.631 37.7109C242.469 37.8776 242.344 38.0807 242.256 38.3203C242.167 38.5599 242.115 38.8281 242.1 39.125L241.67 39.1562C241.67 38.625 241.722 38.1328 241.826 37.6797C241.93 37.2266 242.087 36.8281 242.295 36.4844C242.508 36.1406 242.774 35.8724 243.092 35.6797C243.415 35.487 243.787 35.3906 244.209 35.3906C244.324 35.3906 244.446 35.401 244.576 35.4219C244.712 35.4427 244.813 35.4661 244.881 35.4922ZM250.545 42.3047V38.2734C250.545 37.9714 250.49 37.7109 250.381 37.4922C250.271 37.2734 250.105 37.1042 249.881 36.9844C249.662 36.8646 249.386 36.8047 249.053 36.8047C248.745 36.8047 248.48 36.8568 248.256 36.9609C248.032 37.0651 247.857 37.2057 247.732 37.3828C247.607 37.5599 247.545 37.7604 247.545 37.9844H245.67C245.67 37.651 245.751 37.3281 245.912 37.0156C246.074 36.7031 246.308 36.4245 246.615 36.1797C246.923 35.9349 247.29 35.7422 247.717 35.6016C248.144 35.4609 248.623 35.3906 249.154 35.3906C249.79 35.3906 250.352 35.4974 250.842 35.7109C251.337 35.9245 251.725 36.2474 252.006 36.6797C252.292 37.1068 252.436 37.6432 252.436 38.2891V42.0469C252.436 42.4323 252.462 42.7786 252.514 43.0859C252.571 43.388 252.652 43.651 252.756 43.875V44H250.826C250.738 43.7969 250.667 43.5391 250.615 43.2266C250.568 42.9089 250.545 42.6016 250.545 42.3047ZM250.818 38.8594L250.834 40.0234H249.482C249.133 40.0234 248.826 40.0573 248.561 40.125C248.295 40.1875 248.074 40.2812 247.896 40.4062C247.719 40.5312 247.587 40.6823 247.498 40.8594C247.41 41.0365 247.365 41.237 247.365 41.4609C247.365 41.6849 247.417 41.8906 247.521 42.0781C247.626 42.2604 247.777 42.4036 247.975 42.5078C248.178 42.612 248.423 42.6641 248.709 42.6641C249.094 42.6641 249.43 42.5859 249.717 42.4297C250.008 42.2682 250.238 42.0729 250.404 41.8438C250.571 41.6094 250.66 41.388 250.67 41.1797L251.279 42.0156C251.217 42.2292 251.11 42.4583 250.959 42.7031C250.808 42.9479 250.61 43.1823 250.365 43.4062C250.126 43.625 249.837 43.8047 249.498 43.9453C249.165 44.0859 248.779 44.1562 248.342 44.1562C247.79 44.1562 247.298 44.0469 246.865 43.8281C246.433 43.6042 246.094 43.3047 245.85 42.9297C245.605 42.5495 245.482 42.1198 245.482 41.6406C245.482 41.1927 245.566 40.7969 245.732 40.4531C245.904 40.1042 246.154 39.8125 246.482 39.5781C246.816 39.3438 247.222 39.1667 247.701 39.0469C248.18 38.9219 248.727 38.8594 249.342 38.8594H250.818ZM256.271 37.3516V44H254.389V35.5469H256.162L256.271 37.3516ZM255.936 39.4609L255.326 39.4531C255.331 38.8542 255.415 38.3047 255.576 37.8047C255.743 37.3047 255.972 36.875 256.264 36.5156C256.561 36.1562 256.915 35.8802 257.326 35.6875C257.738 35.4896 258.196 35.3906 258.701 35.3906C259.107 35.3906 259.475 35.4479 259.803 35.5625C260.136 35.6719 260.42 35.8516 260.654 36.1016C260.894 36.3516 261.076 36.6771 261.201 37.0781C261.326 37.474 261.389 37.9609 261.389 38.5391V44H259.498V38.5312C259.498 38.125 259.438 37.8047 259.318 37.5703C259.204 37.3307 259.035 37.1615 258.811 37.0625C258.592 36.9583 258.318 36.9062 257.99 36.9062C257.667 36.9062 257.378 36.974 257.123 37.1094C256.868 37.2448 256.652 37.4297 256.475 37.6641C256.303 37.8984 256.17 38.1693 256.076 38.4766C255.982 38.7839 255.936 39.112 255.936 39.4609ZM268.053 41.7109C268.053 41.5234 268.006 41.3542 267.912 41.2031C267.818 41.0469 267.639 40.9062 267.373 40.7812C267.113 40.6562 266.727 40.5417 266.217 40.4375C265.769 40.3385 265.357 40.2214 264.982 40.0859C264.613 39.9453 264.295 39.776 264.029 39.5781C263.764 39.3802 263.558 39.1458 263.412 38.875C263.266 38.6042 263.193 38.2917 263.193 37.9375C263.193 37.5938 263.269 37.2682 263.42 36.9609C263.571 36.6536 263.787 36.3828 264.068 36.1484C264.35 35.9141 264.691 35.7292 265.092 35.5938C265.498 35.4583 265.951 35.3906 266.451 35.3906C267.16 35.3906 267.766 35.5104 268.271 35.75C268.782 35.9844 269.173 36.3047 269.443 36.7109C269.714 37.112 269.85 37.5651 269.85 38.0703H267.967C267.967 37.8464 267.91 37.638 267.795 37.4453C267.686 37.2474 267.519 37.0885 267.295 36.9688C267.071 36.8438 266.79 36.7812 266.451 36.7812C266.128 36.7812 265.86 36.8333 265.646 36.9375C265.438 37.0365 265.282 37.1667 265.178 37.3281C265.079 37.4896 265.029 37.6667 265.029 37.8594C265.029 38 265.055 38.1276 265.107 38.2422C265.165 38.3516 265.258 38.4531 265.389 38.5469C265.519 38.6354 265.696 38.7188 265.92 38.7969C266.149 38.875 266.436 38.9505 266.779 39.0234C267.425 39.1589 267.98 39.3333 268.443 39.5469C268.912 39.7552 269.271 40.026 269.521 40.3594C269.771 40.6875 269.896 41.1042 269.896 41.6094C269.896 41.9844 269.816 42.3281 269.654 42.6406C269.498 42.9479 269.269 43.2161 268.967 43.4453C268.665 43.6693 268.303 43.8438 267.881 43.9688C267.464 44.0938 266.995 44.1562 266.475 44.1562C265.709 44.1562 265.061 44.0208 264.529 43.75C263.998 43.474 263.594 43.1224 263.318 42.6953C263.048 42.263 262.912 41.8151 262.912 41.3516H264.732C264.753 41.7005 264.85 41.9792 265.021 42.1875C265.199 42.3906 265.417 42.5391 265.678 42.6328C265.943 42.7214 266.217 42.7656 266.498 42.7656C266.837 42.7656 267.12 42.7214 267.35 42.6328C267.579 42.5391 267.753 42.4141 267.873 42.2578C267.993 42.0964 268.053 41.9141 268.053 41.7109ZM273.561 32V44H271.67V32H273.561ZM280.389 42.3047V38.2734C280.389 37.9714 280.334 37.7109 280.225 37.4922C280.115 37.2734 279.949 37.1042 279.725 36.9844C279.506 36.8646 279.23 36.8047 278.896 36.8047C278.589 36.8047 278.324 36.8568 278.1 36.9609C277.876 37.0651 277.701 37.2057 277.576 37.3828C277.451 37.5599 277.389 37.7604 277.389 37.9844H275.514C275.514 37.651 275.594 37.3281 275.756 37.0156C275.917 36.7031 276.152 36.4245 276.459 36.1797C276.766 35.9349 277.133 35.7422 277.561 35.6016C277.988 35.4609 278.467 35.3906 278.998 35.3906C279.633 35.3906 280.196 35.4974 280.686 35.7109C281.18 35.9245 281.568 36.2474 281.85 36.6797C282.136 37.1068 282.279 37.6432 282.279 38.2891V42.0469C282.279 42.4323 282.305 42.7786 282.357 43.0859C282.415 43.388 282.495 43.651 282.6 43.875V44H280.67C280.581 43.7969 280.511 43.5391 280.459 43.2266C280.412 42.9089 280.389 42.6016 280.389 42.3047ZM280.662 38.8594L280.678 40.0234H279.326C278.977 40.0234 278.67 40.0573 278.404 40.125C278.139 40.1875 277.917 40.2812 277.74 40.4062C277.563 40.5312 277.43 40.6823 277.342 40.8594C277.253 41.0365 277.209 41.237 277.209 41.4609C277.209 41.6849 277.261 41.8906 277.365 42.0781C277.469 42.2604 277.62 42.4036 277.818 42.5078C278.021 42.612 278.266 42.6641 278.553 42.6641C278.938 42.6641 279.274 42.5859 279.561 42.4297C279.852 42.2682 280.081 42.0729 280.248 41.8438C280.415 41.6094 280.503 41.388 280.514 41.1797L281.123 42.0156C281.061 42.2292 280.954 42.4583 280.803 42.7031C280.652 42.9479 280.454 43.1823 280.209 43.4062C279.969 43.625 279.68 43.8047 279.342 43.9453C279.008 44.0859 278.623 44.1562 278.186 44.1562C277.633 44.1562 277.141 44.0469 276.709 43.8281C276.277 43.6042 275.938 43.3047 275.693 42.9297C275.449 42.5495 275.326 42.1198 275.326 41.6406C275.326 41.1927 275.41 40.7969 275.576 40.4531C275.748 40.1042 275.998 39.8125 276.326 39.5781C276.66 39.3438 277.066 39.1667 277.545 39.0469C278.024 38.9219 278.571 38.8594 279.186 38.8594H280.662ZM288.123 35.5469V36.9219H283.357V35.5469H288.123ZM284.732 33.4766H286.615V41.6641C286.615 41.9245 286.652 42.125 286.725 42.2656C286.803 42.401 286.91 42.4922 287.045 42.5391C287.18 42.5859 287.339 42.6094 287.521 42.6094C287.652 42.6094 287.777 42.6016 287.896 42.5859C288.016 42.5703 288.113 42.5547 288.186 42.5391L288.193 43.9766C288.037 44.0234 287.855 44.0651 287.646 44.1016C287.443 44.138 287.209 44.1562 286.943 44.1562C286.511 44.1562 286.128 44.0807 285.795 43.9297C285.462 43.7734 285.201 43.5208 285.014 43.1719C284.826 42.8229 284.732 42.3594 284.732 41.7812V33.4766ZM291.592 35.5469V44H289.701V35.5469H291.592ZM289.576 33.3281C289.576 33.0417 289.67 32.8047 289.857 32.6172C290.05 32.4245 290.316 32.3281 290.654 32.3281C290.988 32.3281 291.251 32.4245 291.443 32.6172C291.636 32.8047 291.732 33.0417 291.732 33.3281C291.732 33.6094 291.636 33.8438 291.443 34.0312C291.251 34.2188 290.988 34.3125 290.654 34.3125C290.316 34.3125 290.05 34.2188 289.857 34.0312C289.67 33.8438 289.576 33.6094 289.576 33.3281ZM293.295 39.8672V39.6875C293.295 39.0781 293.383 38.513 293.561 37.9922C293.738 37.4661 293.993 37.0104 294.326 36.625C294.665 36.2344 295.076 35.9323 295.561 35.7188C296.05 35.5 296.602 35.3906 297.217 35.3906C297.837 35.3906 298.389 35.5 298.873 35.7188C299.363 35.9323 299.777 36.2344 300.115 36.625C300.454 37.0104 300.712 37.4661 300.889 37.9922C301.066 38.513 301.154 39.0781 301.154 39.6875V39.8672C301.154 40.4766 301.066 41.0417 300.889 41.5625C300.712 42.0833 300.454 42.5391 300.115 42.9297C299.777 43.3151 299.365 43.6172 298.881 43.8359C298.396 44.0495 297.847 44.1562 297.232 44.1562C296.613 44.1562 296.058 44.0495 295.568 43.8359C295.084 43.6172 294.673 43.3151 294.334 42.9297C293.995 42.5391 293.738 42.0833 293.561 41.5625C293.383 41.0417 293.295 40.4766 293.295 39.8672ZM295.178 39.6875V39.8672C295.178 40.2474 295.217 40.6068 295.295 40.9453C295.373 41.2839 295.495 41.5807 295.662 41.8359C295.829 42.0911 296.042 42.2917 296.303 42.4375C296.563 42.5833 296.873 42.6562 297.232 42.6562C297.581 42.6562 297.883 42.5833 298.139 42.4375C298.399 42.2917 298.613 42.0911 298.779 41.8359C298.946 41.5807 299.068 41.2839 299.146 40.9453C299.23 40.6068 299.271 40.2474 299.271 39.8672V39.6875C299.271 39.3125 299.23 38.9583 299.146 38.625C299.068 38.2865 298.943 37.987 298.771 37.7266C298.605 37.4661 298.391 37.263 298.131 37.1172C297.876 36.9661 297.571 36.8906 297.217 36.8906C296.863 36.8906 296.555 36.9661 296.295 37.1172C296.04 37.263 295.829 37.4661 295.662 37.7266C295.495 37.987 295.373 38.2865 295.295 38.625C295.217 38.9583 295.178 39.3125 295.178 39.6875ZM304.6 37.3516V44H302.717V35.5469H304.49L304.6 37.3516ZM304.264 39.4609L303.654 39.4531C303.66 38.8542 303.743 38.3047 303.904 37.8047C304.071 37.3047 304.3 36.875 304.592 36.5156C304.889 36.1562 305.243 35.8802 305.654 35.6875C306.066 35.4896 306.524 35.3906 307.029 35.3906C307.436 35.3906 307.803 35.4479 308.131 35.5625C308.464 35.6719 308.748 35.8516 308.982 36.1016C309.222 36.3516 309.404 36.6771 309.529 37.0781C309.654 37.474 309.717 37.9609 309.717 38.5391V44H307.826V38.5312C307.826 38.125 307.766 37.8047 307.646 37.5703C307.532 37.3307 307.363 37.1615 307.139 37.0625C306.92 36.9583 306.646 36.9062 306.318 36.9062C305.995 36.9062 305.706 36.974 305.451 37.1094C305.196 37.2448 304.98 37.4297 304.803 37.6641C304.631 37.8984 304.498 38.1693 304.404 38.4766C304.311 38.7839 304.264 39.112 304.264 39.4609Z" fill="#546074"/>
    <rect x="436.404" y="337" width="79" height="28" rx="8" fill="#822B55"/>
    <rect x="349.404" y="337" width="79" height="28" rx="8" fill="#EBEDF0"/>
    <path d="M198.883 125.927V127H193.612V125.927H198.883ZM193.879 117.047V127H192.56V117.047H193.879ZM198.186 121.326V122.399H193.612V121.326H198.186ZM198.814 117.047V118.127H193.612V117.047H198.814ZM201.59 121.183V127H200.325V119.604H201.521L201.59 121.183ZM201.289 123.021L200.763 123.001C200.767 122.495 200.842 122.028 200.988 121.6C201.134 121.167 201.339 120.791 201.604 120.472C201.868 120.153 202.182 119.907 202.547 119.733C202.916 119.556 203.324 119.467 203.771 119.467C204.135 119.467 204.463 119.517 204.755 119.617C205.047 119.713 205.295 119.868 205.5 120.082C205.71 120.296 205.869 120.574 205.979 120.916C206.088 121.253 206.143 121.666 206.143 122.153V127H204.871V122.14C204.871 121.752 204.814 121.442 204.7 121.21C204.586 120.973 204.42 120.802 204.201 120.697C203.982 120.588 203.714 120.533 203.395 120.533C203.08 120.533 202.793 120.599 202.533 120.731C202.278 120.864 202.057 121.046 201.87 121.278C201.688 121.511 201.544 121.777 201.439 122.078C201.339 122.374 201.289 122.689 201.289 123.021ZM212.855 119.604H214.004V126.843C214.004 127.494 213.872 128.05 213.607 128.511C213.343 128.971 212.974 129.32 212.5 129.557C212.031 129.798 211.488 129.919 210.873 129.919C210.618 129.919 210.317 129.878 209.971 129.796C209.629 129.718 209.292 129.584 208.959 129.393C208.631 129.206 208.355 128.953 208.132 128.634L208.795 127.882C209.105 128.256 209.428 128.515 209.766 128.661C210.107 128.807 210.445 128.88 210.777 128.88C211.178 128.88 211.525 128.805 211.816 128.654C212.108 128.504 212.334 128.281 212.493 127.984C212.657 127.693 212.739 127.333 212.739 126.904V121.23L212.855 119.604ZM207.763 123.384V123.24C207.763 122.675 207.829 122.162 207.961 121.702C208.098 121.237 208.291 120.839 208.542 120.506C208.797 120.173 209.105 119.918 209.465 119.74C209.825 119.558 210.23 119.467 210.682 119.467C211.146 119.467 211.552 119.549 211.898 119.713C212.249 119.872 212.546 120.107 212.787 120.417C213.033 120.722 213.227 121.091 213.368 121.524C213.509 121.957 213.607 122.447 213.662 122.994V123.623C213.612 124.165 213.514 124.653 213.368 125.086C213.227 125.519 213.033 125.888 212.787 126.193C212.546 126.499 212.249 126.733 211.898 126.897C211.548 127.057 211.137 127.137 210.668 127.137C210.226 127.137 209.825 127.043 209.465 126.856C209.109 126.67 208.804 126.408 208.549 126.07C208.294 125.733 208.098 125.337 207.961 124.881C207.829 124.421 207.763 123.922 207.763 123.384ZM209.027 123.24V123.384C209.027 123.753 209.064 124.099 209.137 124.423C209.214 124.746 209.33 125.031 209.485 125.277C209.645 125.523 209.848 125.717 210.094 125.858C210.34 125.995 210.634 126.063 210.976 126.063C211.395 126.063 211.741 125.975 212.015 125.797C212.288 125.619 212.505 125.384 212.664 125.093C212.828 124.801 212.956 124.484 213.047 124.143V122.495C212.997 122.244 212.919 122.003 212.814 121.771C212.714 121.534 212.582 121.324 212.418 121.142C212.258 120.955 212.06 120.807 211.823 120.697C211.586 120.588 211.308 120.533 210.989 120.533C210.643 120.533 210.344 120.606 210.094 120.752C209.848 120.893 209.645 121.089 209.485 121.34C209.33 121.586 209.214 121.873 209.137 122.201C209.064 122.525 209.027 122.871 209.027 123.24ZM217.299 116.5V127H216.027V116.5H217.299ZM220.703 119.604V127H219.432V119.604H220.703ZM219.336 117.642C219.336 117.437 219.397 117.263 219.521 117.122C219.648 116.981 219.835 116.91 220.081 116.91C220.323 116.91 220.507 116.981 220.635 117.122C220.767 117.263 220.833 117.437 220.833 117.642C220.833 117.838 220.767 118.006 220.635 118.147C220.507 118.284 220.323 118.353 220.081 118.353C219.835 118.353 219.648 118.284 219.521 118.147C219.397 118.006 219.336 117.838 219.336 117.642ZM227.04 125.038C227.04 124.856 226.999 124.687 226.917 124.532C226.84 124.373 226.678 124.229 226.432 124.102C226.19 123.969 225.826 123.855 225.338 123.76C224.928 123.673 224.556 123.571 224.224 123.452C223.896 123.334 223.615 123.19 223.383 123.021C223.155 122.853 222.979 122.655 222.856 122.427C222.733 122.199 222.672 121.932 222.672 121.627C222.672 121.335 222.736 121.06 222.863 120.8C222.995 120.54 223.18 120.31 223.417 120.109C223.659 119.909 223.948 119.752 224.285 119.638C224.622 119.524 224.998 119.467 225.413 119.467C226.006 119.467 226.511 119.572 226.931 119.781C227.35 119.991 227.671 120.271 227.895 120.622C228.118 120.968 228.229 121.354 228.229 121.777H226.965C226.965 121.572 226.903 121.374 226.78 121.183C226.662 120.987 226.486 120.825 226.254 120.697C226.026 120.57 225.746 120.506 225.413 120.506C225.062 120.506 224.777 120.561 224.559 120.67C224.344 120.775 224.187 120.909 224.087 121.073C223.991 121.237 223.943 121.41 223.943 121.593C223.943 121.729 223.966 121.853 224.012 121.962C224.062 122.067 224.148 122.165 224.271 122.256C224.395 122.342 224.568 122.424 224.791 122.502C225.014 122.579 225.299 122.657 225.646 122.734C226.252 122.871 226.751 123.035 227.143 123.227C227.535 123.418 227.826 123.653 228.018 123.931C228.209 124.209 228.305 124.546 228.305 124.942C228.305 125.266 228.236 125.562 228.1 125.831C227.967 126.1 227.774 126.332 227.519 126.528C227.268 126.72 226.967 126.87 226.616 126.979C226.27 127.084 225.88 127.137 225.447 127.137C224.796 127.137 224.244 127.021 223.793 126.788C223.342 126.556 223 126.255 222.768 125.886C222.535 125.517 222.419 125.127 222.419 124.717H223.69C223.709 125.063 223.809 125.339 223.991 125.544C224.174 125.744 224.397 125.888 224.661 125.975C224.925 126.057 225.188 126.098 225.447 126.098C225.794 126.098 226.083 126.052 226.315 125.961C226.552 125.87 226.732 125.744 226.855 125.585C226.979 125.425 227.04 125.243 227.04 125.038ZM231.23 116.5V127H229.966V116.5H231.23ZM230.93 123.021L230.403 123.001C230.408 122.495 230.483 122.028 230.629 121.6C230.775 121.167 230.98 120.791 231.244 120.472C231.508 120.153 231.823 119.907 232.188 119.733C232.557 119.556 232.965 119.467 233.411 119.467C233.776 119.467 234.104 119.517 234.396 119.617C234.687 119.713 234.936 119.868 235.141 120.082C235.35 120.296 235.51 120.574 235.619 120.916C235.729 121.253 235.783 121.666 235.783 122.153V127H234.512V122.14C234.512 121.752 234.455 121.442 234.341 121.21C234.227 120.973 234.061 120.802 233.842 120.697C233.623 120.588 233.354 120.533 233.035 120.533C232.721 120.533 232.434 120.599 232.174 120.731C231.919 120.864 231.698 121.046 231.511 121.278C231.328 121.511 231.185 121.777 231.08 122.078C230.98 122.374 230.93 122.689 230.93 123.021Z" fill="#808080"/>
    <rect x="189.904" y="133.5" width="325" height="31" rx="9.5" fill="white" stroke="#C4C4C4"/>
    <path d="M198.568 186.835H199.881C199.812 187.464 199.632 188.027 199.341 188.523C199.049 189.02 198.637 189.414 198.104 189.706C197.57 189.993 196.905 190.137 196.107 190.137C195.524 190.137 194.993 190.027 194.515 189.809C194.041 189.59 193.633 189.28 193.291 188.879C192.949 188.473 192.685 187.988 192.498 187.423C192.316 186.853 192.225 186.22 192.225 185.522V184.531C192.225 183.834 192.316 183.203 192.498 182.638C192.685 182.068 192.951 181.58 193.298 181.175C193.649 180.769 194.07 180.457 194.562 180.238C195.055 180.02 195.608 179.91 196.224 179.91C196.976 179.91 197.611 180.051 198.131 180.334C198.65 180.617 199.054 181.008 199.341 181.51C199.632 182.007 199.812 182.583 199.881 183.239H198.568C198.505 182.774 198.386 182.376 198.213 182.043C198.04 181.706 197.794 181.446 197.475 181.264C197.156 181.081 196.739 180.99 196.224 180.99C195.782 180.99 195.392 181.075 195.055 181.243C194.722 181.412 194.442 181.651 194.214 181.961C193.991 182.271 193.822 182.642 193.708 183.075C193.594 183.508 193.537 183.989 193.537 184.518V185.522C193.537 186.01 193.587 186.468 193.688 186.896C193.792 187.325 193.95 187.701 194.159 188.024C194.369 188.348 194.635 188.603 194.959 188.79C195.283 188.972 195.665 189.063 196.107 189.063C196.668 189.063 197.115 188.975 197.447 188.797C197.78 188.619 198.031 188.364 198.199 188.031C198.372 187.699 198.495 187.3 198.568 186.835ZM206.997 188.961V190H201.617V188.961H206.997ZM206.799 183.499L201.904 190H201.132V189.07L205.992 182.604H206.799V183.499ZM206.238 182.604V183.649H201.187V182.604H206.238ZM211.393 190.137C210.878 190.137 210.41 190.05 209.991 189.877C209.576 189.699 209.219 189.451 208.918 189.132C208.622 188.813 208.394 188.435 208.234 187.997C208.075 187.56 207.995 187.081 207.995 186.562V186.274C207.995 185.673 208.084 185.137 208.262 184.668C208.439 184.194 208.681 183.793 208.986 183.465C209.292 183.137 209.638 182.888 210.025 182.72C210.413 182.551 210.814 182.467 211.229 182.467C211.757 182.467 212.213 182.558 212.596 182.74C212.983 182.923 213.3 183.178 213.546 183.506C213.792 183.829 213.974 184.212 214.093 184.654C214.211 185.092 214.271 185.57 214.271 186.09V186.657H208.747V185.625H213.006V185.529C212.988 185.201 212.919 184.882 212.801 184.572C212.687 184.262 212.505 184.007 212.254 183.807C212.003 183.606 211.661 183.506 211.229 183.506C210.941 183.506 210.677 183.567 210.436 183.69C210.194 183.809 209.987 183.987 209.813 184.224C209.64 184.461 209.506 184.75 209.41 185.092C209.314 185.434 209.267 185.828 209.267 186.274V186.562C209.267 186.912 209.314 187.243 209.41 187.553C209.51 187.858 209.654 188.127 209.841 188.359C210.032 188.592 210.262 188.774 210.531 188.906C210.805 189.038 211.115 189.104 211.461 189.104C211.908 189.104 212.286 189.013 212.596 188.831C212.906 188.649 213.177 188.405 213.409 188.1L214.175 188.708C214.015 188.95 213.812 189.18 213.566 189.398C213.32 189.617 213.017 189.795 212.657 189.932C212.302 190.068 211.88 190.137 211.393 190.137ZM218.707 189.098C219.008 189.098 219.286 189.036 219.541 188.913C219.796 188.79 220.006 188.621 220.17 188.407C220.334 188.188 220.427 187.94 220.45 187.662H221.653C221.631 188.1 221.482 188.507 221.209 188.886C220.94 189.259 220.587 189.562 220.149 189.795C219.712 190.023 219.231 190.137 218.707 190.137C218.151 190.137 217.666 190.039 217.251 189.843C216.841 189.647 216.499 189.378 216.226 189.036C215.957 188.694 215.754 188.302 215.617 187.86C215.485 187.414 215.419 186.942 215.419 186.445V186.158C215.419 185.661 215.485 185.192 215.617 184.75C215.754 184.303 215.957 183.909 216.226 183.567C216.499 183.226 216.841 182.957 217.251 182.761C217.666 182.565 218.151 182.467 218.707 182.467C219.286 182.467 219.792 182.585 220.225 182.822C220.658 183.055 220.997 183.374 221.243 183.779C221.494 184.18 221.631 184.636 221.653 185.146H220.45C220.427 184.841 220.341 184.565 220.19 184.319C220.045 184.073 219.844 183.877 219.589 183.731C219.338 183.581 219.044 183.506 218.707 183.506C218.32 183.506 217.994 183.583 217.729 183.738C217.47 183.889 217.262 184.094 217.107 184.354C216.957 184.609 216.848 184.894 216.779 185.208C216.715 185.518 216.684 185.835 216.684 186.158V186.445C216.684 186.769 216.715 187.088 216.779 187.402C216.843 187.717 216.95 188.002 217.101 188.257C217.256 188.512 217.463 188.717 217.723 188.872C217.987 189.022 218.315 189.098 218.707 189.098ZM224.34 179.5V190H223.075V179.5H224.34ZM224.039 186.021L223.513 186.001C223.517 185.495 223.592 185.028 223.738 184.6C223.884 184.167 224.089 183.791 224.354 183.472C224.618 183.153 224.932 182.907 225.297 182.733C225.666 182.556 226.074 182.467 226.521 182.467C226.885 182.467 227.213 182.517 227.505 182.617C227.797 182.713 228.045 182.868 228.25 183.082C228.46 183.296 228.619 183.574 228.729 183.916C228.838 184.253 228.893 184.666 228.893 185.153V190H227.621V185.14C227.621 184.752 227.564 184.442 227.45 184.21C227.336 183.973 227.17 183.802 226.951 183.697C226.732 183.588 226.464 183.533 226.145 183.533C225.83 183.533 225.543 183.599 225.283 183.731C225.028 183.864 224.807 184.046 224.62 184.278C224.438 184.511 224.294 184.777 224.189 185.078C224.089 185.374 224.039 185.689 224.039 186.021Z" fill="#808080"/>
    <rect x="189.904" y="196.5" width="325" height="31" rx="9.5" fill="white" stroke="#C4C4C4"/>
    <path d="M196.864 253.484C196.864 253.252 196.828 253.047 196.755 252.869C196.687 252.687 196.563 252.523 196.386 252.377C196.213 252.231 195.971 252.092 195.661 251.96C195.356 251.828 194.968 251.693 194.499 251.557C194.007 251.411 193.562 251.249 193.166 251.071C192.77 250.889 192.43 250.682 192.147 250.449C191.865 250.217 191.648 249.95 191.498 249.649C191.348 249.349 191.272 249.005 191.272 248.617C191.272 248.23 191.352 247.872 191.512 247.544C191.671 247.216 191.899 246.931 192.195 246.689C192.496 246.443 192.854 246.252 193.269 246.115C193.683 245.979 194.146 245.91 194.656 245.91C195.404 245.91 196.037 246.054 196.557 246.341C197.081 246.623 197.479 246.995 197.753 247.455C198.026 247.911 198.163 248.398 198.163 248.918H196.851C196.851 248.544 196.771 248.214 196.611 247.927C196.452 247.635 196.21 247.407 195.887 247.243C195.563 247.075 195.153 246.99 194.656 246.99C194.187 246.99 193.799 247.061 193.494 247.202C193.189 247.343 192.961 247.535 192.811 247.776C192.665 248.018 192.592 248.294 192.592 248.604C192.592 248.813 192.635 249.005 192.722 249.178C192.813 249.346 192.952 249.504 193.139 249.649C193.33 249.795 193.572 249.93 193.863 250.053C194.16 250.176 194.513 250.294 194.923 250.408C195.488 250.568 195.976 250.745 196.386 250.941C196.796 251.137 197.133 251.358 197.397 251.604C197.666 251.846 197.865 252.122 197.992 252.432C198.124 252.737 198.19 253.083 198.19 253.471C198.19 253.876 198.108 254.243 197.944 254.571C197.78 254.899 197.546 255.18 197.24 255.412C196.935 255.645 196.568 255.825 196.14 255.952C195.716 256.075 195.242 256.137 194.718 256.137C194.257 256.137 193.804 256.073 193.357 255.945C192.915 255.818 192.512 255.626 192.147 255.371C191.787 255.116 191.498 254.801 191.279 254.428C191.065 254.049 190.958 253.612 190.958 253.115H192.271C192.271 253.457 192.337 253.751 192.469 253.997C192.601 254.239 192.781 254.439 193.009 254.599C193.241 254.758 193.503 254.877 193.795 254.954C194.091 255.027 194.399 255.063 194.718 255.063C195.178 255.063 195.568 255 195.887 254.872C196.206 254.744 196.447 254.562 196.611 254.325C196.78 254.088 196.864 253.808 196.864 253.484ZM202.641 255.098C202.941 255.098 203.219 255.036 203.475 254.913C203.73 254.79 203.939 254.621 204.104 254.407C204.268 254.188 204.361 253.94 204.384 253.662H205.587C205.564 254.1 205.416 254.507 205.143 254.886C204.874 255.259 204.521 255.562 204.083 255.795C203.646 256.023 203.165 256.137 202.641 256.137C202.085 256.137 201.599 256.039 201.185 255.843C200.774 255.647 200.433 255.378 200.159 255.036C199.89 254.694 199.688 254.302 199.551 253.86C199.419 253.414 199.353 252.942 199.353 252.445V252.158C199.353 251.661 199.419 251.192 199.551 250.75C199.688 250.303 199.89 249.909 200.159 249.567C200.433 249.226 200.774 248.957 201.185 248.761C201.599 248.565 202.085 248.467 202.641 248.467C203.219 248.467 203.725 248.585 204.158 248.822C204.591 249.055 204.931 249.374 205.177 249.779C205.427 250.18 205.564 250.636 205.587 251.146H204.384C204.361 250.841 204.274 250.565 204.124 250.319C203.978 250.073 203.778 249.877 203.522 249.731C203.272 249.581 202.978 249.506 202.641 249.506C202.253 249.506 201.927 249.583 201.663 249.738C201.403 249.889 201.196 250.094 201.041 250.354C200.891 250.609 200.781 250.894 200.713 251.208C200.649 251.518 200.617 251.835 200.617 252.158V252.445C200.617 252.769 200.649 253.088 200.713 253.402C200.777 253.717 200.884 254.002 201.034 254.257C201.189 254.512 201.396 254.717 201.656 254.872C201.921 255.022 202.249 255.098 202.641 255.098ZM208.273 249.766V256H207.009V248.604H208.239L208.273 249.766ZM210.584 248.562L210.577 249.738C210.472 249.715 210.372 249.702 210.276 249.697C210.185 249.688 210.08 249.684 209.962 249.684C209.67 249.684 209.413 249.729 209.189 249.82C208.966 249.911 208.777 250.039 208.622 250.203C208.467 250.367 208.344 250.563 208.253 250.791C208.166 251.014 208.109 251.26 208.082 251.529L207.727 251.734C207.727 251.288 207.77 250.868 207.856 250.477C207.948 250.085 208.087 249.738 208.273 249.438C208.46 249.132 208.697 248.895 208.984 248.727C209.276 248.553 209.622 248.467 210.023 248.467C210.115 248.467 210.219 248.478 210.338 248.501C210.456 248.519 210.538 248.54 210.584 248.562ZM214.686 256.137C214.171 256.137 213.703 256.05 213.284 255.877C212.869 255.699 212.512 255.451 212.211 255.132C211.915 254.813 211.687 254.435 211.527 253.997C211.368 253.56 211.288 253.081 211.288 252.562V252.274C211.288 251.673 211.377 251.137 211.555 250.668C211.732 250.194 211.974 249.793 212.279 249.465C212.585 249.137 212.931 248.888 213.318 248.72C213.706 248.551 214.107 248.467 214.521 248.467C215.05 248.467 215.506 248.558 215.889 248.74C216.276 248.923 216.593 249.178 216.839 249.506C217.085 249.829 217.267 250.212 217.386 250.654C217.504 251.092 217.563 251.57 217.563 252.09V252.657H212.04V251.625H216.299V251.529C216.281 251.201 216.212 250.882 216.094 250.572C215.98 250.262 215.798 250.007 215.547 249.807C215.296 249.606 214.954 249.506 214.521 249.506C214.234 249.506 213.97 249.567 213.729 249.69C213.487 249.809 213.28 249.987 213.106 250.224C212.933 250.461 212.799 250.75 212.703 251.092C212.607 251.434 212.56 251.828 212.56 252.274V252.562C212.56 252.912 212.607 253.243 212.703 253.553C212.803 253.858 212.947 254.127 213.134 254.359C213.325 254.592 213.555 254.774 213.824 254.906C214.098 255.038 214.408 255.104 214.754 255.104C215.201 255.104 215.579 255.013 215.889 254.831C216.199 254.649 216.47 254.405 216.702 254.1L217.468 254.708C217.308 254.95 217.105 255.18 216.859 255.398C216.613 255.617 216.31 255.795 215.95 255.932C215.595 256.068 215.173 256.137 214.686 256.137ZM222.109 256.137C221.594 256.137 221.127 256.05 220.708 255.877C220.293 255.699 219.936 255.451 219.635 255.132C219.339 254.813 219.111 254.435 218.951 253.997C218.792 253.56 218.712 253.081 218.712 252.562V252.274C218.712 251.673 218.801 251.137 218.979 250.668C219.156 250.194 219.398 249.793 219.703 249.465C220.008 249.137 220.355 248.888 220.742 248.72C221.13 248.551 221.531 248.467 221.945 248.467C222.474 248.467 222.93 248.558 223.312 248.74C223.7 248.923 224.017 249.178 224.263 249.506C224.509 249.829 224.691 250.212 224.81 250.654C224.928 251.092 224.987 251.57 224.987 252.09V252.657H219.464V251.625H223.723V251.529C223.704 251.201 223.636 250.882 223.518 250.572C223.404 250.262 223.221 250.007 222.971 249.807C222.72 249.606 222.378 249.506 221.945 249.506C221.658 249.506 221.394 249.567 221.152 249.69C220.911 249.809 220.703 249.987 220.53 250.224C220.357 250.461 220.223 250.75 220.127 251.092C220.031 251.434 219.983 251.828 219.983 252.274V252.562C219.983 252.912 220.031 253.243 220.127 253.553C220.227 253.858 220.371 254.127 220.558 254.359C220.749 254.592 220.979 254.774 221.248 254.906C221.521 255.038 221.831 255.104 222.178 255.104C222.624 255.104 223.003 255.013 223.312 254.831C223.622 254.649 223.894 254.405 224.126 254.1L224.892 254.708C224.732 254.95 224.529 255.18 224.283 255.398C224.037 255.617 223.734 255.795 223.374 255.932C223.019 256.068 222.597 256.137 222.109 256.137ZM227.729 250.183V256H226.464V248.604H227.66L227.729 250.183ZM227.428 252.021L226.901 252.001C226.906 251.495 226.981 251.028 227.127 250.6C227.273 250.167 227.478 249.791 227.742 249.472C228.007 249.153 228.321 248.907 228.686 248.733C229.055 248.556 229.463 248.467 229.909 248.467C230.274 248.467 230.602 248.517 230.894 248.617C231.185 248.713 231.434 248.868 231.639 249.082C231.848 249.296 232.008 249.574 232.117 249.916C232.227 250.253 232.281 250.666 232.281 251.153V256H231.01V251.14C231.01 250.752 230.953 250.442 230.839 250.21C230.725 249.973 230.559 249.802 230.34 249.697C230.121 249.588 229.852 249.533 229.533 249.533C229.219 249.533 228.932 249.599 228.672 249.731C228.417 249.864 228.196 250.046 228.009 250.278C227.826 250.511 227.683 250.777 227.578 251.078C227.478 251.374 227.428 251.689 227.428 252.021ZM238.509 254.038C238.509 253.856 238.468 253.687 238.386 253.532C238.308 253.373 238.146 253.229 237.9 253.102C237.659 252.969 237.294 252.855 236.807 252.76C236.396 252.673 236.025 252.571 235.692 252.452C235.364 252.334 235.084 252.19 234.852 252.021C234.624 251.853 234.448 251.655 234.325 251.427C234.202 251.199 234.141 250.932 234.141 250.627C234.141 250.335 234.204 250.06 234.332 249.8C234.464 249.54 234.649 249.31 234.886 249.109C235.127 248.909 235.417 248.752 235.754 248.638C236.091 248.524 236.467 248.467 236.882 248.467C237.474 248.467 237.98 248.572 238.399 248.781C238.819 248.991 239.14 249.271 239.363 249.622C239.587 249.968 239.698 250.354 239.698 250.777H238.434C238.434 250.572 238.372 250.374 238.249 250.183C238.131 249.987 237.955 249.825 237.723 249.697C237.495 249.57 237.215 249.506 236.882 249.506C236.531 249.506 236.246 249.561 236.027 249.67C235.813 249.775 235.656 249.909 235.556 250.073C235.46 250.237 235.412 250.41 235.412 250.593C235.412 250.729 235.435 250.853 235.48 250.962C235.531 251.067 235.617 251.165 235.74 251.256C235.863 251.342 236.036 251.424 236.26 251.502C236.483 251.579 236.768 251.657 237.114 251.734C237.72 251.871 238.219 252.035 238.611 252.227C239.003 252.418 239.295 252.653 239.486 252.931C239.678 253.209 239.773 253.546 239.773 253.942C239.773 254.266 239.705 254.562 239.568 254.831C239.436 255.1 239.243 255.332 238.987 255.528C238.737 255.72 238.436 255.87 238.085 255.979C237.739 256.084 237.349 256.137 236.916 256.137C236.264 256.137 235.713 256.021 235.262 255.788C234.811 255.556 234.469 255.255 234.236 254.886C234.004 254.517 233.888 254.127 233.888 253.717H235.159C235.177 254.063 235.278 254.339 235.46 254.544C235.642 254.744 235.866 254.888 236.13 254.975C236.394 255.057 236.656 255.098 236.916 255.098C237.262 255.098 237.552 255.052 237.784 254.961C238.021 254.87 238.201 254.744 238.324 254.585C238.447 254.425 238.509 254.243 238.509 254.038ZM242.699 245.5V256H241.435V245.5H242.699ZM242.398 252.021L241.872 252.001C241.877 251.495 241.952 251.028 242.098 250.6C242.243 250.167 242.449 249.791 242.713 249.472C242.977 249.153 243.292 248.907 243.656 248.733C244.025 248.556 244.433 248.467 244.88 248.467C245.244 248.467 245.573 248.517 245.864 248.617C246.156 248.713 246.404 248.868 246.609 249.082C246.819 249.296 246.979 249.574 247.088 249.916C247.197 250.253 247.252 250.666 247.252 251.153V256H245.98V251.14C245.98 250.752 245.924 250.442 245.81 250.21C245.696 249.973 245.529 249.802 245.311 249.697C245.092 249.588 244.823 249.533 244.504 249.533C244.189 249.533 243.902 249.599 243.643 249.731C243.387 249.864 243.166 250.046 242.979 250.278C242.797 250.511 242.654 250.777 242.549 251.078C242.449 251.374 242.398 251.689 242.398 252.021ZM248.811 252.384V252.227C248.811 251.693 248.888 251.199 249.043 250.743C249.198 250.283 249.421 249.884 249.713 249.547C250.005 249.205 250.358 248.941 250.772 248.754C251.187 248.562 251.652 248.467 252.167 248.467C252.687 248.467 253.154 248.562 253.568 248.754C253.988 248.941 254.343 249.205 254.635 249.547C254.931 249.884 255.157 250.283 255.312 250.743C255.466 251.199 255.544 251.693 255.544 252.227V252.384C255.544 252.917 255.466 253.411 255.312 253.867C255.157 254.323 254.931 254.722 254.635 255.063C254.343 255.401 253.99 255.665 253.575 255.856C253.165 256.043 252.7 256.137 252.181 256.137C251.661 256.137 251.194 256.043 250.779 255.856C250.365 255.665 250.009 255.401 249.713 255.063C249.421 254.722 249.198 254.323 249.043 253.867C248.888 253.411 248.811 252.917 248.811 252.384ZM250.075 252.227V252.384C250.075 252.753 250.118 253.102 250.205 253.43C250.292 253.753 250.422 254.04 250.595 254.291C250.772 254.542 250.993 254.74 251.258 254.886C251.522 255.027 251.83 255.098 252.181 255.098C252.527 255.098 252.83 255.027 253.09 254.886C253.354 254.74 253.573 254.542 253.746 254.291C253.919 254.04 254.049 253.753 254.136 253.43C254.227 253.102 254.272 252.753 254.272 252.384V252.227C254.272 251.862 254.227 251.518 254.136 251.194C254.049 250.866 253.917 250.577 253.739 250.326C253.566 250.071 253.347 249.87 253.083 249.725C252.823 249.579 252.518 249.506 252.167 249.506C251.821 249.506 251.515 249.579 251.251 249.725C250.991 249.87 250.772 250.071 250.595 250.326C250.422 250.577 250.292 250.866 250.205 251.194C250.118 251.518 250.075 251.862 250.075 252.227ZM260.227 248.604V249.574H256.228V248.604H260.227ZM257.581 246.806H258.846V254.168C258.846 254.419 258.884 254.608 258.962 254.735C259.039 254.863 259.14 254.947 259.263 254.988C259.386 255.029 259.518 255.05 259.659 255.05C259.764 255.05 259.873 255.041 259.987 255.022C260.106 255 260.195 254.981 260.254 254.968L260.261 256C260.16 256.032 260.028 256.062 259.864 256.089C259.705 256.121 259.511 256.137 259.283 256.137C258.973 256.137 258.688 256.075 258.429 255.952C258.169 255.829 257.962 255.624 257.807 255.337C257.656 255.045 257.581 254.653 257.581 254.161V246.806ZM266.017 254.038C266.017 253.856 265.976 253.687 265.894 253.532C265.816 253.373 265.654 253.229 265.408 253.102C265.167 252.969 264.802 252.855 264.314 252.76C263.904 252.673 263.533 252.571 263.2 252.452C262.872 252.334 262.592 252.19 262.359 252.021C262.132 251.853 261.956 251.655 261.833 251.427C261.71 251.199 261.648 250.932 261.648 250.627C261.648 250.335 261.712 250.06 261.84 249.8C261.972 249.54 262.157 249.31 262.394 249.109C262.635 248.909 262.924 248.752 263.262 248.638C263.599 248.524 263.975 248.467 264.39 248.467C264.982 248.467 265.488 248.572 265.907 248.781C266.326 248.991 266.648 249.271 266.871 249.622C267.094 249.968 267.206 250.354 267.206 250.777H265.941C265.941 250.572 265.88 250.374 265.757 250.183C265.638 249.987 265.463 249.825 265.23 249.697C265.003 249.57 264.722 249.506 264.39 249.506C264.039 249.506 263.754 249.561 263.535 249.67C263.321 249.775 263.164 249.909 263.063 250.073C262.968 250.237 262.92 250.41 262.92 250.593C262.92 250.729 262.943 250.853 262.988 250.962C263.038 251.067 263.125 251.165 263.248 251.256C263.371 251.342 263.544 251.424 263.768 251.502C263.991 251.579 264.276 251.657 264.622 251.734C265.228 251.871 265.727 252.035 266.119 252.227C266.511 252.418 266.803 252.653 266.994 252.931C267.186 253.209 267.281 253.546 267.281 253.942C267.281 254.266 267.213 254.562 267.076 254.831C266.944 255.1 266.75 255.332 266.495 255.528C266.244 255.72 265.944 255.87 265.593 255.979C265.246 256.084 264.857 256.137 264.424 256.137C263.772 256.137 263.221 256.021 262.77 255.788C262.318 255.556 261.977 255.255 261.744 254.886C261.512 254.517 261.396 254.127 261.396 253.717H262.667C262.685 254.063 262.785 254.339 262.968 254.544C263.15 254.744 263.373 254.888 263.638 254.975C263.902 255.057 264.164 255.098 264.424 255.098C264.77 255.098 265.06 255.052 265.292 254.961C265.529 254.87 265.709 254.744 265.832 254.585C265.955 254.425 266.017 254.243 266.017 254.038Z" fill="#808080"/>
    <rect x="189.904" y="264.5" width="325" height="55" rx="9.5" fill="white" stroke="#C4C4C4" stroke-dasharray="2 2"/>
    <path d="M348.404 282L346.574 284H343.404C342.304 284 341.404 284.9 341.404 286V298C341.404 299.1 342.304 300 343.404 300H359.404C360.504 300 361.404 299.1 361.404 298V286C361.404 284.9 360.504 284 359.404 284H356.234L354.404 282H348.404ZM351.404 297C348.644 297 346.404 294.76 346.404 292C346.404 289.24 348.644 287 351.404 287C354.164 287 356.404 289.24 356.404 292C356.404 294.76 354.164 297 351.404 297Z" fill="#808080"/>
    <defs>
        <filter id="filter0_d_546_10251" x="0" y="62" width="386" height="290" filterUnits="userSpaceOnUse" color-interpolation-filters="sRGB">
            <feFlood flood-opacity="0" result="BackgroundImageFix"/>
            <feColorMatrix in="SourceAlpha" type="matrix" values="0 0 0 0 0 0 0 0 0 0 0 0 0 0 0 0 0 0 127 0" result="hardAlpha"/>
            <feOffset/>
            <feGaussianBlur stdDeviation="5"/>
            <feComposite in2="hardAlpha" operator="out"/>
            <feColorMatrix type="matrix" values="0 0 0 0 0 0 0 0 0 0 0 0 0 0 0 0 0 0 0.25 0"/>
            <feBlend mode="normal" in2="BackgroundImageFix" result="effect1_dropShadow_546_10251"/>
            <feBlend mode="normal" in="SourceGraphic" in2="effect1_dropShadow_546_10251" result="shape"/>
        </filter>
        <filter id="filter1_d_546_10251" x="118" y="0" width="427.404" height="397" filterUnits="userSpaceOnUse" color-interpolation-filters="sRGB">
            <feFlood flood-opacity="0" result="BackgroundImageFix"/>
            <feColorMatrix in="SourceAlpha" type="matrix" values="0 0 0 0 0 0 0 0 0 0 0 0 0 0 0 0 0 0 127 0" result="hardAlpha"/>
            <feOffset/>
            <feGaussianBlur stdDeviation="5"/>
            <feComposite in2="hardAlpha" operator="out"/>
            <feColorMatrix type="matrix" values="0 0 0 0 0 0 0 0 0 0 0 0 0 0 0 0 0 0 0.25 0"/>
            <feBlend mode="normal" in2="BackgroundImageFix" result="effect1_dropShadow_546_10251"/>
            <feBlend mode="normal" in="SourceGraphic" in2="effect1_dropShadow_546_10251" result="shape"/>
        </filter>
    </defs>
</svg>
