<svg width="492" height="390" viewBox="0 0 492 390" fill="none" xmlns="http://www.w3.org/2000/svg">
    <g filter="url(#filter0_d_737_2929)">
        <path d="M10 16C10 12.6863 12.6863 10 16 10H476C479.314 10 482 12.6863 482 16V352.197C482 355.51 479.314 358.197 476 358.197H16C12.6863 358.197 10 355.51 10 352.197V16Z" fill="white" />
    </g>
    <rect x="181.516" y="75.7701" width="116.066" height="9.02732" rx="4.51366" fill="#EBEDF0" />
    <rect x="181.516" y="273.082" width="116.066" height="9.02732" rx="4.51366" fill="#EBEDF0" />
    <rect width="83.8251" height="78.6667" rx="8" transform="matrix(-1 0 0 1 265.342 177.65)" fill="#EBEDF0" />
    <rect width="85.1148" height="78.6667" rx="8" transform="matrix(-1 0 0 1 360.773 177.65)" fill="#EBEDF0" />
    <rect width="83.8251" height="78.6667" rx="8" transform="matrix(-1 0 0 1 454.915 177.65)" fill="#EBEDF0" />
    <rect x="181.516" y="93.8246" width="273.399" height="9.02732" rx="4.51366" fill="#EBEDF0" />
    <rect x="181.516" y="109.3" width="273.399" height="9.02732" rx="4.51366" fill="#EBEDF0" />
    <rect x="181.516" y="126.065" width="273.399" height="9.02732" rx="4.51366" fill="#EBEDF0" />
    <rect x="181.516" y="144.12" width="273.399" height="9.02732" rx="4.51366" fill="#EBEDF0" />
    <rect x="181.516" y="291.136" width="273.399" height="9.02732" rx="4.51366" fill="#EBEDF0" />
    <rect x="181.516" y="309.191" width="273.399" height="9.02732" rx="4.51366" fill="#EBEDF0" />
    <rect x="181.516" y="324.666" width="273.399" height="9.02732" rx="4.51366" fill="#EBEDF0" />
    <rect x="38.3646" y="75.7705" width="81.2459" height="9.02732" rx="4.51366" fill="#EBEDF0" />
    <rect x="38.3646" y="92.5355" width="81.2459" height="9.02732" rx="4.51366" fill="#EBEDF0" />
    <rect x="38.3674" y="109.301" width="101.88" height="9.02732" rx="4.51366" fill="#EBEDF0" />
    <rect x="38.3674" y="126.065" width="101.88" height="9.02732" rx="4.51366" fill="#822B55" />
    <path d="M38.3674 147.344C38.3674 144.851 40.3883 142.83 42.8811 142.83H93.1762C95.669 142.83 97.6898 144.851 97.6898 147.344C97.6898 149.837 95.669 151.858 93.1762 151.858H42.8811C40.3883 151.858 38.3674 149.837 38.3674 147.344Z" fill="#EBEDF0" />
    <path d="M260.766 37.9937L259.559 41.6148L255.395 51.2409H253.585L249.42 41.6148L248.213 37.9937H248.093L248.455 43.6366V55.7372H246.342V34.614H248.455L254.49 48.7363L260.525 34.614H262.637V55.7372H260.525V43.6366L260.887 37.9937H260.766Z" fill="#546074" />
    <path d="M275.501 58.6039V53.6248L272.152 55.7372H270.673C269.486 55.7372 268.581 55.4253 267.957 54.8017C267.354 54.1781 267.052 53.2829 267.052 52.116V43.0934L266.75 40.7096L268.802 40.438L269.164 43.2142V52.1764C269.164 53.2627 269.687 53.8059 270.733 53.8059H271.608L275.501 51.2711V40.6492H277.613V58.6039C277.613 61.3197 276.225 62.6776 273.449 62.6776H270.492L267.474 61.8629L268.017 60.0221L270.492 60.7464H273.66C274.324 60.7464 274.797 60.5754 275.079 60.2334C275.36 59.8914 275.501 59.3482 275.501 58.6039Z" fill="#546074" />
    <path d="M288.589 41.4941L291.607 40.6492H295.047C296.234 40.6492 297.129 40.9711 297.732 41.6148C298.356 42.2385 298.668 43.1236 298.668 44.2703V53.3533L299 55.7372L296.918 55.9786L296.586 53.2929L293.206 55.7372H291.727C290.561 55.7372 289.665 55.4253 289.042 54.8017C288.418 54.158 288.106 53.2627 288.106 52.116V50.2753C288.106 49.1286 288.418 48.2435 289.042 47.6198C289.665 46.9761 290.561 46.6542 291.727 46.6542H296.556V44.2401C296.556 43.1538 296.033 42.6106 294.986 42.6106H291.607L289.132 43.3349L288.589 41.4941ZM291.788 53.8059H292.663L296.556 50.9694V48.5251H291.788C290.742 48.5251 290.219 49.0683 290.219 50.1546V52.1764C290.219 53.2627 290.742 53.8059 291.788 53.8059Z" fill="#546074" />
    <path d="M302.945 43.1236L302.643 40.7096L304.695 40.438L304.966 42.5805L308.376 40.6492H309.885C311.052 40.6492 311.947 40.9711 312.571 41.6148C313.194 42.2385 313.506 43.1236 313.506 44.2703V52.116C313.506 53.2627 313.194 54.158 312.571 54.8017C311.947 55.4253 311.052 55.7372 309.885 55.7372H308.437L305.057 55.0733V62.6776H302.945V43.1236ZM308.859 42.6106L305.057 44.7229V53.142L308.497 53.8059H309.825C310.871 53.8059 311.394 53.2627 311.394 52.1764V44.2401C311.394 43.1538 310.871 42.6106 309.825 42.6106H308.859Z" fill="#546074" />
    <path d="M317.502 43.1236L317.2 40.7096L319.252 40.438L319.524 42.5805L322.934 40.6492H324.443C325.609 40.6492 326.505 40.9711 327.128 41.6148C327.752 42.2385 328.064 43.1236 328.064 44.2703V52.116C328.064 53.2627 327.752 54.158 327.128 54.8017C326.505 55.4253 325.609 55.7372 324.443 55.7372H322.994L319.614 55.0733V62.6776H317.502V43.1236ZM323.417 42.6106L319.614 44.7229V53.142L323.055 53.8059H324.382C325.428 53.8059 325.951 53.2627 325.951 52.1764V44.2401C325.951 43.1538 325.428 42.6106 324.382 42.6106H323.417Z" fill="#546074" />
    <path d="M226.293 49.1259C219.967 55.4045 209.228 59.4431 201.882 54.675C185.344 43.9414 178.978 52.4592 185.305 46.1806C191.631 39.9019 200.969 39.0536 206.162 44.2857C217.37 54.9312 232.62 42.8472 226.293 49.1259Z" fill="#546074" />
    <path d="M229.272 39.8577C225.739 43.364 219.642 45.5197 215.36 42.6753C205.718 36.2722 202.196 41.0621 205.729 37.5558C209.262 34.0495 214.603 33.7025 217.658 36.7808C224.243 43.0538 232.805 36.3513 229.272 39.8577Z" fill="#546074" />
    <g filter="url(#filter1_d_737_2929)">
        <rect x="185.469" y="201.075" width="225.054" height="82.6146" rx="10" fill="#B5B9BE" />
    </g>
    <path d="M281.548 232.853L275.176 251.339H271.324L279.351 230.011H281.812L281.548 232.853ZM286.88 251.339L280.494 232.853L280.215 230.011H282.691L290.748 251.339H286.88ZM286.573 243.429V246.344H274.971V243.429H286.573ZM306.495 248.424V251.339H295.787V248.424H306.495ZM296.812 230.011V251.339H293.135V230.011H296.812ZM314.449 230.011V251.339H310.801V230.011H314.449ZM321.143 230.011V232.941H304.166V230.011H321.143Z" fill="#822B55" />
    <path d="M277.948 238.127C273.465 235.849 264.016 229.468 252.745 221.448C258.976 219.864 269.913 218.279 276.181 224.34C285.277 233.129 297.337 233.665 312.592 220.6C314.281 219.143 316.173 217.939 318.208 217.025C314.892 233.739 293.423 245.974 277.948 238.127Z" fill="#A7CAF0" />
    <path d="M277.549 225.853L271.177 244.339H267.324L275.351 223.011H277.812L277.549 225.853ZM282.881 244.339L276.494 225.853L276.216 223.011H278.691L286.748 244.339H282.881ZM282.573 236.429V239.344H270.972V236.429H282.573ZM302.495 241.424V244.339H291.787V241.424H302.495ZM292.812 223.011V244.339H289.136V223.011H292.812ZM310.449 223.011V244.339H306.802V223.011H310.449ZM317.143 223.011V225.941H300.166V223.011H317.143Z" fill="#822B55" />
    <path d="M192.798 177.559C188.941 173.845 192.264 164.958 195.187 160.729C198.111 156.501 208.005 166.71 208.005 166.71C208.005 166.71 198.465 179.07 192.798 177.559Z" fill="#F4A5B8" />
    <path d="M213.365 146.075C204.623 139.671 180.915 126.934 179.353 126.459C177.791 125.985 168.883 127.664 166.883 127.817C164.144 128.026 151.384 127.426 150.884 129.426C150.884 130.926 149.623 133.616 162.384 134.926C166.884 134.926 169.163 135.403 171.798 134.962C171.798 134.962 166.385 136.887 166.046 139.921C165.847 141.68 168.515 143.405 168.515 143.405C168.515 143.405 165.986 146.079 170.104 148.934C170.104 148.934 166.818 150.92 167.998 153.883C169.178 156.846 173.678 157.211 176.054 157.035C176.871 156.995 177.878 154.922 177.045 153.747C177.045 153.747 178.462 154.311 180.688 157.453C182.914 160.594 185.389 164.466 190.719 164.292C196.05 164.118 199.699 165.601 201.863 167.426L213.365 146.075Z" fill="#BCC0C6" />
    <path d="M167.384 127.926C166.212 128.573 150.884 126.926 150.884 129.926C150.384 132.426 154.884 134.426 163.884 134.926C167.384 134.926 169.249 135.368 171.884 134.926C171.884 134.926 166.722 136.892 166.384 139.926C166.184 141.686 168.384 143.426 168.384 143.426C168.384 143.426 165.765 146.072 169.884 148.926C169.884 148.926 167.142 150.963 168.322 153.926C169.503 156.889 174.003 157.255 176.378 157.079C177.196 157.039 178.216 155.101 177.384 153.926" stroke="#546074" stroke-width="0.68" stroke-linecap="round" stroke-linejoin="round" />
    <path d="M177.526 154.262C177.281 153.719 176.892 153.263 176.384 152.926" stroke="#546074" stroke-width="0.68" stroke-linecap="round" stroke-linejoin="round" />
    <path d="M178.796 152.195C176.719 152.724 173.667 153.709 173.169 154.528" stroke="#546074" stroke-width="0.68" stroke-linecap="round" stroke-linejoin="round" />
    <path d="M169.385 149.429C172.717 146.99 176.591 145.417 180.593 144.877" stroke="#546074" stroke-width="0.68" stroke-linecap="round" stroke-linejoin="round" />
    <path d="M168.384 143.426C170.398 141.08 178.59 139.141 181.471 139.367" stroke="#546074" stroke-width="0.68" stroke-linecap="round" stroke-linejoin="round" />
    <path d="M171.884 134.926C173.884 133.926 178.357 131.491 182.585 132.793" stroke="#546074" stroke-width="0.68" stroke-linecap="round" stroke-linejoin="round" />
    <path d="M287.331 246.553C282.849 244.275 273.4 237.894 262.128 229.875C233.255 209.313 192.433 177.977 192.798 177.559C193.306 176.978 206.882 162.064 209.026 142.38C209.026 142.38 275.592 179.484 296.725 191.509C309.417 198.731 329.686 209.174 327.837 223.843C327.775 224.378 327.684 224.907 327.574 225.427C324.275 242.166 302.807 254.4 287.331 246.553Z" fill="#FFB7C8" />
    <path d="M287.331 246.553C282.849 244.275 273.4 237.894 262.128 229.874C268.359 228.29 279.296 226.705 285.565 232.767C294.661 241.555 306.72 242.091 321.975 229.027C323.664 227.569 325.556 226.365 327.592 225.451C324.275 242.166 302.807 254.4 287.331 246.553Z" fill="#A7CAF0" />
    <path d="M209.026 142.38C209.026 142.38 275.592 179.484 296.725 191.509C302.786 194.96 310.58 199.144 316.878 204.192" stroke="#DB5E83" stroke-width="0.68" stroke-linecap="round" stroke-linejoin="round" />
    <path d="M219.262 152.813C215.753 165.484 204.913 181.598 204.913 181.598" stroke="#DB5E83" stroke-width="0.68" stroke-linecap="round" stroke-linejoin="round" />
    <g filter="url(#filter2_d_737_2929)">
        <rect x="181.47" y="194.075" width="225.054" height="82.6146" rx="10" fill="white" />
    </g>
    <path d="M277.549 225.853L271.177 244.339H267.324L275.352 223.011H277.813L277.549 225.853ZM282.881 244.339L276.494 225.853L276.216 223.011H278.692L286.748 244.339H282.881ZM282.573 236.429V239.344H270.972V236.429H282.573ZM302.495 241.424V244.339H291.787V241.424H302.495ZM292.813 223.011V244.339H289.136V223.011H292.813ZM310.449 223.011V244.339H306.802V223.011H310.449ZM317.144 223.011V225.941H300.166V223.011H317.144Z" fill="#822B55" />
    <defs>
        <filter id="filter0_d_737_2929" x="0" y="0" width="492" height="368.197" filterUnits="userSpaceOnUse" color-interpolation-filters="sRGB">
            <feFlood flood-opacity="0" result="BackgroundImageFix" />
            <feColorMatrix in="SourceAlpha" type="matrix" values="0 0 0 0 0 0 0 0 0 0 0 0 0 0 0 0 0 0 127 0" result="hardAlpha" />
            <feOffset />
            <feGaussianBlur stdDeviation="5" />
            <feComposite in2="hardAlpha" operator="out" />
            <feColorMatrix type="matrix" values="0 0 0 0 0 0 0 0 0 0 0 0 0 0 0 0 0 0 0.25 0" />
            <feBlend mode="normal" in2="BackgroundImageFix" result="effect1_dropShadow_737_2929" />
            <feBlend mode="normal" in="SourceGraphic" in2="effect1_dropShadow_737_2929" result="shape" />
        </filter>
        <filter id="filter1_d_737_2929" x="175.469" y="191.075" width="245.054" height="102.615" filterUnits="userSpaceOnUse" color-interpolation-filters="sRGB">
            <feFlood flood-opacity="0" result="BackgroundImageFix" />
            <feColorMatrix in="SourceAlpha" type="matrix" values="0 0 0 0 0 0 0 0 0 0 0 0 0 0 0 0 0 0 127 0" result="hardAlpha" />
            <feOffset />
            <feGaussianBlur stdDeviation="5" />
            <feComposite in2="hardAlpha" operator="out" />
            <feColorMatrix type="matrix" values="0 0 0 0 0 0 0 0 0 0 0 0 0 0 0 0 0 0 0.25 0" />
            <feBlend mode="normal" in2="BackgroundImageFix" result="effect1_dropShadow_737_2929" />
            <feBlend mode="normal" in="SourceGraphic" in2="effect1_dropShadow_737_2929" result="shape" />
        </filter>
        <filter id="filter2_d_737_2929" x="171.47" y="184.075" width="245.054" height="102.615" filterUnits="userSpaceOnUse" color-interpolation-filters="sRGB">
            <feFlood flood-opacity="0" result="BackgroundImageFix" />
            <feColorMatrix in="SourceAlpha" type="matrix" values="0 0 0 0 0 0 0 0 0 0 0 0 0 0 0 0 0 0 127 0" result="hardAlpha" />
            <feOffset />
            <feGaussianBlur stdDeviation="5" />
            <feComposite in2="hardAlpha" operator="out" />
            <feColorMatrix type="matrix" values="0 0 0 0 0 0 0 0 0 0 0 0 0 0 0 0 0 0 0.25 0" />
            <feBlend mode="normal" in2="BackgroundImageFix" result="effect1_dropShadow_737_2929" />
            <feBlend mode="normal" in="SourceGraphic" in2="effect1_dropShadow_737_2929" result="shape" />
        </filter>
    </defs>
</svg>
    