<svg width="557" height="377" viewBox="0 0 557 377" fill="none" xmlns="http://www.w3.org/2000/svg">
    <g filter="url(#filter0_d_546_11411)">
        <rect x="10" y="10" width="537" height="150" rx="6" fill="white"/>
    </g>
    <path d="M9 16C9 12.6863 11.6863 10 15 10H228V160H15C11.6863 160 9 157.314 9 154V16Z" fill="#F3F3F3"/>
    <rect x="243.992" y="63" width="122.149" height="7" rx="3.5" fill="#EBEDF0"/>
    <rect x="435.658" y="63" width="94.3426" height="7" rx="3.5" fill="#EBEDF0"/>
    <rect x="369.121" y="63" width="63.5571" height="7" rx="3.5" fill="#EBEDF0"/>
    <rect x="243" y="76" width="287" height="7" rx="3.5" fill="#EBEDF0"/>
    <rect x="243" y="89" width="167.83" height="7" rx="3.5" fill="#EBEDF0"/>
    <g filter="url(#filter1_d_546_11411)">
        <path d="M228 186C228 182.686 230.686 180 234 180H541C544.314 180 547 182.686 547 186V360C547 363.314 544.314 366 541 366H387.5H234C230.686 366 228 363.314 228 360V186Z" fill="white"/>
        <path d="M228 185C228 182.239 230.239 180 233 180H542C544.761 180 547 182.239 547 185V212C547 214.761 544.761 217 542 217H233C230.239 217 228 214.761 228 212V185Z" fill="#F3F3F3"/>
        <path d="M435.324 169L446.875 179.404L434.866 190.22L423.315 179.817L435.324 169Z" fill="#F3F3F3"/>
    </g>
    <path d="M55.1641 28.835H56.4766C56.4082 29.4639 56.2282 30.0267 55.9365 30.5234C55.6449 31.0202 55.2324 31.4144 54.6992 31.7061C54.166 31.9932 53.5007 32.1367 52.7031 32.1367C52.1198 32.1367 51.5889 32.0273 51.1104 31.8086C50.6364 31.5898 50.2285 31.2799 49.8867 30.8789C49.5449 30.4733 49.2806 29.988 49.0938 29.4229C48.9115 28.8532 48.8203 28.2197 48.8203 27.5225V26.5312C48.8203 25.834 48.9115 25.2028 49.0938 24.6377C49.2806 24.068 49.5472 23.5804 49.8936 23.1748C50.2445 22.7692 50.666 22.457 51.1582 22.2383C51.6504 22.0195 52.2041 21.9102 52.8193 21.9102C53.5713 21.9102 54.207 22.0514 54.7266 22.334C55.2461 22.6165 55.6494 23.0085 55.9365 23.5098C56.2282 24.0065 56.4082 24.583 56.4766 25.2393H55.1641C55.1003 24.7744 54.9818 24.3757 54.8086 24.043C54.6354 23.7057 54.3893 23.446 54.0703 23.2637C53.7513 23.0814 53.3343 22.9902 52.8193 22.9902C52.3773 22.9902 51.9876 23.0745 51.6504 23.2432C51.3177 23.4118 51.0374 23.651 50.8096 23.9609C50.5863 24.2708 50.4176 24.6423 50.3037 25.0752C50.1898 25.5081 50.1328 25.9889 50.1328 26.5176V27.5225C50.1328 28.0101 50.1829 28.4681 50.2832 28.8965C50.388 29.3249 50.5452 29.7008 50.7549 30.0244C50.9645 30.348 51.2311 30.6032 51.5547 30.79C51.8783 30.9723 52.2611 31.0635 52.7031 31.0635C53.2637 31.0635 53.7103 30.9746 54.043 30.7969C54.3757 30.6191 54.6263 30.3639 54.7949 30.0312C54.9681 29.6986 55.0911 29.2998 55.1641 28.835ZM64.9531 30.9268V32H58.2129V30.9268H64.9531ZM64.7344 23.0039L58.5273 32H57.7139V31.0156L63.9141 22.0469H64.7344V23.0039ZM64.1738 22.0469V23.127H57.8027V22.0469H64.1738Z" fill="#808080"/>
    <path d="M276.572 194.634H277.851L281.111 202.748L284.365 194.634H285.65L281.604 204.587H280.605L276.572 194.634ZM276.155 194.634H277.283L277.468 200.704V204.587H276.155V194.634ZM284.933 194.634H286.061V204.587H284.748V200.704L284.933 194.634ZM292.186 195.516L288.891 204.587H287.544L291.338 194.634H292.206L292.186 195.516ZM294.947 204.587L291.646 195.516L291.625 194.634H292.493L296.301 204.587H294.947ZM294.776 200.902V201.982H289.185V200.902H294.776ZM303.561 201.422H304.873C304.805 202.051 304.625 202.614 304.333 203.11C304.041 203.607 303.629 204.001 303.096 204.293C302.562 204.58 301.897 204.724 301.1 204.724C300.516 204.724 299.985 204.614 299.507 204.396C299.033 204.177 298.625 203.867 298.283 203.466C297.941 203.06 297.677 202.575 297.49 202.01C297.308 201.44 297.217 200.807 297.217 200.109V199.118C297.217 198.421 297.308 197.79 297.49 197.225C297.677 196.655 297.944 196.167 298.29 195.762C298.641 195.356 299.062 195.044 299.555 194.825C300.047 194.606 300.601 194.497 301.216 194.497C301.968 194.497 302.604 194.638 303.123 194.921C303.643 195.203 304.046 195.595 304.333 196.097C304.625 196.593 304.805 197.17 304.873 197.826H303.561C303.497 197.361 303.378 196.963 303.205 196.63C303.032 196.293 302.786 196.033 302.467 195.851C302.148 195.668 301.731 195.577 301.216 195.577C300.774 195.577 300.384 195.661 300.047 195.83C299.714 195.999 299.434 196.238 299.206 196.548C298.983 196.858 298.814 197.229 298.7 197.662C298.586 198.095 298.529 198.576 298.529 199.104V200.109C298.529 200.597 298.579 201.055 298.68 201.483C298.785 201.912 298.942 202.288 299.151 202.611C299.361 202.935 299.628 203.19 299.951 203.377C300.275 203.559 300.658 203.65 301.1 203.65C301.66 203.65 302.107 203.562 302.439 203.384C302.772 203.206 303.023 202.951 303.191 202.618C303.365 202.285 303.488 201.887 303.561 201.422ZM313.172 198.913V199.986H307.785V198.913H313.172ZM307.99 194.634V204.587H306.671V194.634H307.99ZM314.32 194.634V204.587H313.008V194.634H314.32ZM318.08 194.634V204.587H316.761V194.634H318.08ZM328.136 194.634V204.587H326.81L321.799 196.91V204.587H320.479V194.634H321.799L326.83 202.331V194.634H328.136ZM336.797 203.514V204.587H331.526V203.514H336.797ZM331.793 194.634V204.587H330.474V194.634H331.793ZM336.1 198.913V199.986H331.526V198.913H336.1ZM336.729 194.634V195.714H331.526V194.634H336.729ZM345.308 194.634V204.587H344.009V194.634H345.308ZM348.507 194.634V195.714H340.816V194.634H348.507ZM349.983 194.634H353.278C354.026 194.634 354.657 194.748 355.172 194.976C355.691 195.203 356.086 195.541 356.354 195.987C356.628 196.429 356.765 196.974 356.765 197.621C356.765 198.077 356.671 198.494 356.484 198.872C356.302 199.246 356.038 199.565 355.691 199.829C355.35 200.089 354.939 200.283 354.461 200.41L354.092 200.554H350.995L350.981 199.48H353.319C353.793 199.48 354.188 199.398 354.502 199.234C354.816 199.066 355.053 198.84 355.213 198.558C355.372 198.275 355.452 197.963 355.452 197.621C355.452 197.238 355.377 196.903 355.227 196.616C355.076 196.329 354.839 196.108 354.516 195.953C354.197 195.794 353.784 195.714 353.278 195.714H351.303V204.587H349.983V194.634ZM355.801 204.587L353.381 200.075L354.755 200.068L357.209 204.505V204.587H355.801ZM362.295 195.516L359 204.587H357.653L361.447 194.634H362.315L362.295 195.516ZM365.057 204.587L361.755 195.516L361.734 194.634H362.603L366.41 204.587H365.057ZM364.886 200.902V201.982H359.294V200.902H364.886ZM375.399 194.634V204.587H374.073L369.062 196.91V204.587H367.743V194.634H369.062L374.094 202.331V194.634H375.399ZM383.042 202.071C383.042 201.839 383.006 201.634 382.933 201.456C382.864 201.274 382.741 201.11 382.563 200.964C382.39 200.818 382.149 200.679 381.839 200.547C381.534 200.415 381.146 200.28 380.677 200.144C380.185 199.998 379.74 199.836 379.344 199.658C378.947 199.476 378.608 199.269 378.325 199.036C378.043 198.804 377.826 198.537 377.676 198.236C377.525 197.936 377.45 197.591 377.45 197.204C377.45 196.817 377.53 196.459 377.689 196.131C377.849 195.803 378.077 195.518 378.373 195.276C378.674 195.03 379.032 194.839 379.446 194.702C379.861 194.565 380.324 194.497 380.834 194.497C381.581 194.497 382.215 194.641 382.734 194.928C383.258 195.21 383.657 195.582 383.931 196.042C384.204 196.498 384.341 196.985 384.341 197.505H383.028C383.028 197.131 382.949 196.801 382.789 196.514C382.63 196.222 382.388 195.994 382.064 195.83C381.741 195.661 381.331 195.577 380.834 195.577C380.365 195.577 379.977 195.648 379.672 195.789C379.367 195.93 379.139 196.122 378.988 196.363C378.842 196.605 378.77 196.881 378.77 197.19C378.77 197.4 378.813 197.591 378.899 197.765C378.991 197.933 379.13 198.09 379.316 198.236C379.508 198.382 379.749 198.517 380.041 198.64C380.337 198.763 380.69 198.881 381.101 198.995C381.666 199.155 382.153 199.332 382.563 199.528C382.974 199.724 383.311 199.945 383.575 200.191C383.844 200.433 384.042 200.709 384.17 201.019C384.302 201.324 384.368 201.67 384.368 202.058C384.368 202.463 384.286 202.83 384.122 203.158C383.958 203.486 383.723 203.767 383.418 203.999C383.113 204.231 382.746 204.411 382.317 204.539C381.894 204.662 381.42 204.724 380.896 204.724C380.435 204.724 379.982 204.66 379.535 204.532C379.093 204.405 378.69 204.213 378.325 203.958C377.965 203.703 377.676 203.388 377.457 203.015C377.243 202.636 377.136 202.199 377.136 201.702H378.448C378.448 202.044 378.514 202.338 378.646 202.584C378.779 202.826 378.959 203.026 379.187 203.186C379.419 203.345 379.681 203.464 379.973 203.541C380.269 203.614 380.576 203.65 380.896 203.65C381.356 203.65 381.745 203.587 382.064 203.459C382.383 203.331 382.625 203.149 382.789 202.912C382.958 202.675 383.042 202.395 383.042 202.071ZM392.086 203.514V204.587H387.109V203.514H392.086ZM387.369 194.634V204.587H386.05V194.634H387.369ZM397.418 195.516L394.123 204.587H392.776L396.57 194.634H397.438L397.418 195.516ZM400.18 204.587L396.878 195.516L396.857 194.634H397.726L401.533 204.587H400.18ZM400.009 200.902V201.982H394.417V200.902H400.009ZM405.655 194.634V204.587H404.356V194.634H405.655ZM408.854 194.634V195.714H401.164V194.634H408.854ZM411.746 194.634V204.587H410.427V194.634H411.746ZM421.809 199.296V199.925C421.809 200.672 421.715 201.342 421.528 201.935C421.341 202.527 421.073 203.031 420.722 203.445C420.371 203.86 419.949 204.177 419.457 204.396C418.969 204.614 418.423 204.724 417.816 204.724C417.229 204.724 416.688 204.614 416.196 204.396C415.709 204.177 415.285 203.86 414.925 203.445C414.569 203.031 414.294 202.527 414.098 201.935C413.902 201.342 413.804 200.672 413.804 199.925V199.296C413.804 198.549 413.899 197.881 414.091 197.293C414.287 196.701 414.562 196.197 414.918 195.782C415.273 195.363 415.695 195.044 416.183 194.825C416.675 194.606 417.215 194.497 417.803 194.497C418.409 194.497 418.956 194.606 419.443 194.825C419.936 195.044 420.357 195.363 420.708 195.782C421.063 196.197 421.335 196.701 421.521 197.293C421.713 197.881 421.809 198.549 421.809 199.296ZM420.503 199.925V199.282C420.503 198.69 420.441 198.166 420.318 197.71C420.2 197.254 420.024 196.871 419.792 196.562C419.56 196.252 419.275 196.017 418.938 195.857C418.605 195.698 418.227 195.618 417.803 195.618C417.393 195.618 417.021 195.698 416.688 195.857C416.36 196.017 416.078 196.252 415.841 196.562C415.608 196.871 415.428 197.254 415.301 197.71C415.173 198.166 415.109 198.69 415.109 199.282V199.925C415.109 200.522 415.173 201.05 415.301 201.511C415.428 201.966 415.611 202.352 415.848 202.666C416.089 202.976 416.374 203.211 416.702 203.37C417.035 203.53 417.406 203.609 417.816 203.609C418.245 203.609 418.625 203.53 418.958 203.37C419.291 203.211 419.571 202.976 419.799 202.666C420.031 202.352 420.207 201.966 420.325 201.511C420.444 201.05 420.503 200.522 420.503 199.925ZM431.44 194.634V204.587H430.114L425.104 196.91V204.587H423.784V194.634H425.104L430.135 202.331V194.634H431.44Z" fill="#808080"/>
    <path d="M239 189.587C239 188.791 239.316 188.028 239.879 187.466C240.441 186.903 241.204 186.587 242 186.587H252.5C253.296 186.587 254.059 186.903 254.621 187.466C255.184 188.028 255.5 188.791 255.5 189.587V194.087H260C260.796 194.087 261.559 194.403 262.121 194.966C262.684 195.528 263 196.291 263 197.087V207.587C263 208.383 262.684 209.146 262.121 209.708C261.559 210.271 260.796 210.587 260 210.587H249.5C248.704 210.587 247.941 210.271 247.379 209.708C246.816 209.146 246.5 208.383 246.5 207.587V203.087H242C241.204 203.087 240.441 202.771 239.879 202.208C239.316 201.646 239 200.883 239 200.087V189.587ZM242 188.087C241.602 188.087 241.221 188.245 240.939 188.526C240.658 188.808 240.5 189.189 240.5 189.587V200.087C240.5 200.485 240.658 200.866 240.939 201.148C241.221 201.429 241.602 201.587 242 201.587H252.5C252.898 201.587 253.279 201.429 253.561 201.148C253.842 200.866 254 200.485 254 200.087V189.587C254 189.189 253.842 188.808 253.561 188.526C253.279 188.245 252.898 188.087 252.5 188.087H242ZM252.707 203.079C252.996 203.531 253.31 203.954 253.652 204.348C252.53 205.211 251.142 205.85 249.5 206.286C249.767 206.612 250.176 207.239 250.332 207.587C252.02 207.048 253.453 206.321 254.661 205.346C255.827 206.343 257.27 207.093 259.056 207.554C259.256 207.173 259.677 206.544 260 206.219C258.312 205.839 256.915 205.178 255.77 204.293C256.792 203.172 257.603 201.816 258.201 200.157H260V198.587H255.5V200.157H256.648C256.17 201.423 255.538 202.476 254.74 203.352C254.519 203.118 254.311 202.871 254.117 202.614C253.694 202.886 253.209 203.046 252.707 203.079Z" fill="#808080"/>
    <path d="M251 194.587L245 198.051L245 191.123L251 194.587Z" fill="#808080"/>
    <circle cx="454" cy="198.587" r="12" fill="#EBEBEB"/>
    <path d="M450.08 203.587C449.98 203.587 449.895 203.557 449.825 203.497C449.765 203.427 449.735 203.342 449.735 203.242V202.762C449.735 202.672 449.76 202.572 449.81 202.462C449.86 202.352 449.96 202.232 450.11 202.102L453.29 198.922C453.8 198.492 454.2 198.127 454.49 197.827C454.79 197.517 455 197.222 455.12 196.942C455.25 196.662 455.315 196.372 455.315 196.072C455.315 195.502 455.155 195.052 454.835 194.722C454.515 194.382 454.04 194.212 453.41 194.212C453.01 194.212 452.665 194.297 452.375 194.467C452.085 194.627 451.855 194.852 451.685 195.142C451.525 195.422 451.42 195.742 451.37 196.102C451.35 196.232 451.295 196.322 451.205 196.372C451.125 196.422 451.05 196.447 450.98 196.447H450.2C450.11 196.447 450.035 196.422 449.975 196.372C449.915 196.312 449.885 196.242 449.885 196.162C449.895 195.782 449.975 195.402 450.125 195.022C450.275 194.632 450.495 194.282 450.785 193.972C451.085 193.662 451.45 193.412 451.88 193.222C452.32 193.022 452.83 192.922 453.41 192.922C454.2 192.922 454.845 193.067 455.345 193.357C455.855 193.637 456.23 194.012 456.47 194.482C456.71 194.952 456.83 195.467 456.83 196.027C456.83 196.467 456.755 196.872 456.605 197.242C456.455 197.602 456.235 197.957 455.945 198.307C455.665 198.647 455.315 198.997 454.895 199.357L452.015 202.282H456.695C456.805 202.282 456.89 202.312 456.95 202.372C457.02 202.432 457.055 202.517 457.055 202.627V203.242C457.055 203.342 457.02 203.427 456.95 203.497C456.89 203.557 456.805 203.587 456.695 203.587H450.08Z" fill="#808080"/>
    <rect x="288" y="249" width="241" height="7" rx="3.5" fill="#EBEDF0"/>
    <rect x="288" y="236" width="241" height="7" rx="3.5" fill="#EBEDF0"/>
    <rect x="288" y="292" width="241" height="7" rx="3.5" fill="#EBEDF0"/>
    <rect x="288" y="279" width="241" height="7" rx="3.5" fill="#EBEDF0"/>
    <line x1="230" y1="43.5" x2="547" y2="43.5" stroke="#ECECEC"/>
    <rect x="229" y="41" width="59" height="2" fill="#822B55"/>
    <path d="M252.013 30.8501V32H246.366V30.8501H252.013ZM246.651 21.3359V32H245.238V21.3359H246.651ZM251.266 25.9209V27.0708H246.366V25.9209H251.266ZM251.939 21.3359V22.4932H246.366V21.3359H251.939ZM256.649 32H254.422L254.437 30.8501H256.649C257.411 30.8501 258.045 30.6914 258.553 30.374C259.061 30.0518 259.442 29.6025 259.696 29.0264C259.955 28.4453 260.084 27.7666 260.084 26.9902V26.3384C260.084 25.728 260.011 25.186 259.864 24.7124C259.718 24.2339 259.503 23.8311 259.22 23.5039C258.937 23.1719 258.59 22.9204 258.18 22.7495C257.774 22.5786 257.308 22.4932 256.781 22.4932H254.378V21.3359H256.781C257.479 21.3359 258.116 21.4531 258.692 21.6875C259.269 21.917 259.764 22.2515 260.179 22.6909C260.599 23.1255 260.921 23.6528 261.146 24.2729C261.371 24.8882 261.483 25.5815 261.483 26.353V26.9902C261.483 27.7617 261.371 28.4575 261.146 29.0776C260.921 29.6929 260.597 30.2178 260.172 30.6523C259.752 31.0869 259.244 31.4214 258.648 31.6558C258.058 31.8853 257.391 32 256.649 32ZM255.177 21.3359V32H253.763V21.3359H255.177ZM265.123 21.3359V32H263.709V21.3359H265.123ZM271.415 21.3359V32H270.023V21.3359H271.415ZM274.842 21.3359V22.4932H266.603V21.3359H274.842Z" fill="#822B55"/>
    <path d="M313.676 28.6089H315.082C315.009 29.2827 314.816 29.8857 314.503 30.418C314.191 30.9502 313.749 31.3726 313.178 31.6851C312.606 31.9927 311.894 32.1465 311.039 32.1465C310.414 32.1465 309.845 32.0293 309.333 31.7949C308.825 31.5605 308.388 31.2285 308.021 30.7988C307.655 30.3643 307.372 29.8442 307.172 29.2388C306.977 28.6284 306.879 27.9497 306.879 27.2026V26.1406C306.879 25.3936 306.977 24.7173 307.172 24.1118C307.372 23.5015 307.658 22.979 308.029 22.5444C308.405 22.1099 308.856 21.7754 309.384 21.541C309.911 21.3066 310.504 21.1895 311.164 21.1895C311.969 21.1895 312.65 21.3408 313.207 21.6436C313.764 21.9463 314.196 22.3662 314.503 22.9033C314.816 23.4355 315.009 24.0532 315.082 24.7563H313.676C313.607 24.2583 313.48 23.8311 313.295 23.4746C313.109 23.1133 312.846 22.835 312.504 22.6396C312.162 22.4443 311.715 22.3467 311.164 22.3467C310.69 22.3467 310.272 22.437 309.911 22.6177C309.555 22.7983 309.254 23.0547 309.01 23.3867C308.771 23.7188 308.59 24.1167 308.468 24.5806C308.346 25.0444 308.285 25.5596 308.285 26.126V27.2026C308.285 27.7251 308.339 28.2158 308.446 28.6748C308.559 29.1338 308.727 29.5366 308.952 29.8833C309.176 30.23 309.462 30.5034 309.809 30.7036C310.155 30.8989 310.565 30.9966 311.039 30.9966C311.64 30.9966 312.118 30.9014 312.475 30.7109C312.831 30.5205 313.1 30.2471 313.28 29.8906C313.466 29.5342 313.598 29.1069 313.676 28.6089ZM325.219 26.3311V27.0049C325.219 27.8057 325.119 28.5234 324.918 29.1582C324.718 29.793 324.43 30.3325 324.054 30.7769C323.678 31.2212 323.227 31.5605 322.699 31.7949C322.177 32.0293 321.591 32.1465 320.941 32.1465C320.312 32.1465 319.733 32.0293 319.206 31.7949C318.683 31.5605 318.229 31.2212 317.843 30.7769C317.462 30.3325 317.167 29.793 316.957 29.1582C316.747 28.5234 316.642 27.8057 316.642 27.0049V26.3311C316.642 25.5303 316.745 24.8149 316.95 24.1851C317.16 23.5503 317.455 23.0107 317.836 22.5664C318.217 22.1172 318.668 21.7754 319.191 21.541C319.718 21.3066 320.297 21.1895 320.927 21.1895C321.576 21.1895 322.162 21.3066 322.685 21.541C323.212 21.7754 323.664 22.1172 324.04 22.5664C324.42 23.0107 324.711 23.5503 324.911 24.1851C325.116 24.8149 325.219 25.5303 325.219 26.3311ZM323.82 27.0049V26.3164C323.82 25.6816 323.754 25.1201 323.622 24.6318C323.495 24.1436 323.307 23.7334 323.058 23.4014C322.809 23.0693 322.504 22.8179 322.143 22.647C321.786 22.4761 321.381 22.3906 320.927 22.3906C320.487 22.3906 320.089 22.4761 319.733 22.647C319.381 22.8179 319.079 23.0693 318.825 23.4014C318.576 23.7334 318.383 24.1436 318.246 24.6318C318.109 25.1201 318.041 25.6816 318.041 26.3164V27.0049C318.041 27.6445 318.109 28.2109 318.246 28.7041C318.383 29.1924 318.578 29.605 318.832 29.9419C319.091 30.2739 319.396 30.5254 319.748 30.6963C320.104 30.8672 320.502 30.9526 320.941 30.9526C321.4 30.9526 321.808 30.8672 322.165 30.6963C322.521 30.5254 322.821 30.2739 323.065 29.9419C323.314 29.605 323.502 29.1924 323.629 28.7041C323.756 28.2109 323.82 27.6445 323.82 27.0049ZM327.782 21.3359H329.152L332.646 30.0298L336.132 21.3359H337.509L333.173 32H332.104L327.782 21.3359ZM327.335 21.3359H328.544L328.742 27.8398V32H327.335V21.3359ZM336.74 21.3359H337.948V32H336.542V27.8398L336.74 21.3359ZM340.878 21.3359H342.248L345.741 30.0298L349.228 21.3359H350.604L346.269 32H345.199L340.878 21.3359ZM340.431 21.3359H341.64L341.837 27.8398V32H340.431V21.3359ZM349.835 21.3359H351.044V32H349.638V27.8398L349.835 21.3359ZM360.302 30.8501V32H354.655V30.8501H360.302ZM354.94 21.3359V32H353.527V21.3359H354.94ZM359.555 25.9209V27.0708H354.655V25.9209H359.555ZM360.229 21.3359V22.4932H354.655V21.3359H360.229ZM370.255 21.3359V32H368.834L363.466 23.7749V32H362.052V21.3359H363.466L368.856 29.583V21.3359H370.255ZM376.481 21.3359V32H375.089V21.3359H376.481ZM379.909 21.3359V22.4932H371.669V21.3359H379.909ZM387.057 29.3047C387.057 29.0557 387.018 28.8359 386.94 28.6455C386.867 28.4502 386.735 28.2744 386.544 28.1182C386.359 27.9619 386.1 27.813 385.768 27.6714C385.441 27.5298 385.026 27.3857 384.523 27.2393C383.996 27.083 383.52 26.9097 383.095 26.7192C382.67 26.5239 382.306 26.3018 382.003 26.0527C381.701 25.8037 381.469 25.5181 381.308 25.1958C381.146 24.8735 381.066 24.5049 381.066 24.0898C381.066 23.6748 381.151 23.2915 381.322 22.9399C381.493 22.5884 381.737 22.2832 382.055 22.0244C382.377 21.7607 382.76 21.5557 383.205 21.4092C383.649 21.2627 384.145 21.1895 384.691 21.1895C385.492 21.1895 386.171 21.3433 386.728 21.6509C387.289 21.9536 387.716 22.3516 388.009 22.8447C388.302 23.333 388.449 23.8555 388.449 24.4121H387.042C387.042 24.0117 386.957 23.6577 386.786 23.3501C386.615 23.0376 386.356 22.7935 386.01 22.6177C385.663 22.437 385.224 22.3467 384.691 22.3467C384.188 22.3467 383.773 22.4224 383.446 22.5737C383.119 22.7251 382.875 22.9302 382.714 23.189C382.558 23.4478 382.479 23.7432 382.479 24.0752C382.479 24.2998 382.526 24.5049 382.619 24.6904C382.716 24.8711 382.865 25.0396 383.065 25.1958C383.271 25.3521 383.529 25.4961 383.842 25.6279C384.159 25.7598 384.538 25.8867 384.977 26.0088C385.583 26.1797 386.105 26.3701 386.544 26.5801C386.984 26.79 387.345 27.0269 387.628 27.2905C387.917 27.5493 388.129 27.8447 388.266 28.1768C388.407 28.5039 388.478 28.875 388.478 29.29C388.478 29.7246 388.39 30.1177 388.214 30.4692C388.039 30.8208 387.787 31.1211 387.46 31.3701C387.133 31.6191 386.74 31.812 386.281 31.9487C385.827 32.0806 385.319 32.1465 384.757 32.1465C384.264 32.1465 383.778 32.0781 383.3 31.9414C382.826 31.8047 382.394 31.5996 382.003 31.3262C381.618 31.0527 381.308 30.7158 381.073 30.3154C380.844 29.9102 380.729 29.4414 380.729 28.9092H382.135C382.135 29.2754 382.206 29.5903 382.348 29.854C382.489 30.1128 382.682 30.3276 382.926 30.4985C383.175 30.6694 383.456 30.7964 383.769 30.8794C384.086 30.9575 384.416 30.9966 384.757 30.9966C385.25 30.9966 385.668 30.9282 386.01 30.7915C386.352 30.6548 386.61 30.4595 386.786 30.2056C386.967 29.9517 387.057 29.6514 387.057 29.3047Z" fill="#808080"/>
    <path d="M423.203 25.9209V27.0708H417.432V25.9209H423.203ZM417.651 21.3359V32H416.238V21.3359H417.651ZM424.434 21.3359V32H423.027V21.3359H424.434ZM428.462 21.3359V32H427.048V21.3359H428.462ZM436.716 29.3047C436.716 29.0557 436.677 28.8359 436.599 28.6455C436.526 28.4502 436.394 28.2744 436.204 28.1182C436.018 27.9619 435.759 27.813 435.427 27.6714C435.1 27.5298 434.685 27.3857 434.182 27.2393C433.655 27.083 433.179 26.9097 432.754 26.7192C432.329 26.5239 431.965 26.3018 431.663 26.0527C431.36 25.8037 431.128 25.5181 430.967 25.1958C430.806 24.8735 430.725 24.5049 430.725 24.0898C430.725 23.6748 430.811 23.2915 430.981 22.9399C431.152 22.5884 431.396 22.2832 431.714 22.0244C432.036 21.7607 432.419 21.5557 432.864 21.4092C433.308 21.2627 433.804 21.1895 434.351 21.1895C435.151 21.1895 435.83 21.3433 436.387 21.6509C436.948 21.9536 437.375 22.3516 437.668 22.8447C437.961 23.333 438.108 23.8555 438.108 24.4121H436.702C436.702 24.0117 436.616 23.6577 436.445 23.3501C436.274 23.0376 436.016 22.7935 435.669 22.6177C435.322 22.437 434.883 22.3467 434.351 22.3467C433.848 22.3467 433.433 22.4224 433.105 22.5737C432.778 22.7251 432.534 22.9302 432.373 23.189C432.217 23.4478 432.139 23.7432 432.139 24.0752C432.139 24.2998 432.185 24.5049 432.278 24.6904C432.375 24.8711 432.524 25.0396 432.725 25.1958C432.93 25.3521 433.188 25.4961 433.501 25.6279C433.818 25.7598 434.197 25.8867 434.636 26.0088C435.242 26.1797 435.764 26.3701 436.204 26.5801C436.643 26.79 437.004 27.0269 437.288 27.2905C437.576 27.5493 437.788 27.8447 437.925 28.1768C438.066 28.5039 438.137 28.875 438.137 29.29C438.137 29.7246 438.049 30.1177 437.874 30.4692C437.698 30.8208 437.446 31.1211 437.119 31.3701C436.792 31.6191 436.399 31.812 435.94 31.9487C435.486 32.0806 434.978 32.1465 434.417 32.1465C433.923 32.1465 433.438 32.0781 432.959 31.9414C432.485 31.8047 432.053 31.5996 431.663 31.3262C431.277 31.0527 430.967 30.7158 430.732 30.3154C430.503 29.9102 430.388 29.4414 430.388 28.9092H431.794C431.794 29.2754 431.865 29.5903 432.007 29.854C432.148 30.1128 432.341 30.3276 432.585 30.4985C432.834 30.6694 433.115 30.7964 433.428 30.8794C433.745 30.9575 434.075 30.9966 434.417 30.9966C434.91 30.9966 435.327 30.9282 435.669 30.7915C436.011 30.6548 436.27 30.4595 436.445 30.2056C436.626 29.9517 436.716 29.6514 436.716 29.3047ZM443.879 21.3359V32H442.488V21.3359H443.879ZM447.307 21.3359V22.4932H439.067V21.3359H447.307ZM456.895 26.3311V27.0049C456.895 27.8057 456.794 28.5234 456.594 29.1582C456.394 29.793 456.106 30.3325 455.73 30.7769C455.354 31.2212 454.902 31.5605 454.375 31.7949C453.853 32.0293 453.267 32.1465 452.617 32.1465C451.987 32.1465 451.409 32.0293 450.881 31.7949C450.359 31.5605 449.905 31.2212 449.519 30.7769C449.138 30.3325 448.843 29.793 448.633 29.1582C448.423 28.5234 448.318 27.8057 448.318 27.0049V26.3311C448.318 25.5303 448.42 24.8149 448.625 24.1851C448.835 23.5503 449.131 23.0107 449.512 22.5664C449.893 22.1172 450.344 21.7754 450.867 21.541C451.394 21.3066 451.973 21.1895 452.603 21.1895C453.252 21.1895 453.838 21.3066 454.36 21.541C454.888 21.7754 455.339 22.1172 455.715 22.5664C456.096 23.0107 456.387 23.5503 456.587 24.1851C456.792 24.8149 456.895 25.5303 456.895 26.3311ZM455.496 27.0049V26.3164C455.496 25.6816 455.43 25.1201 455.298 24.6318C455.171 24.1436 454.983 23.7334 454.734 23.4014C454.485 23.0693 454.18 22.8179 453.818 22.647C453.462 22.4761 453.057 22.3906 452.603 22.3906C452.163 22.3906 451.765 22.4761 451.409 22.647C451.057 22.8179 450.754 23.0693 450.5 23.4014C450.251 23.7334 450.059 24.1436 449.922 24.6318C449.785 25.1201 449.717 25.6816 449.717 26.3164V27.0049C449.717 27.6445 449.785 28.2109 449.922 28.7041C450.059 29.1924 450.254 29.605 450.508 29.9419C450.767 30.2739 451.072 30.5254 451.423 30.6963C451.78 30.8672 452.178 30.9526 452.617 30.9526C453.076 30.9526 453.484 30.8672 453.84 30.6963C454.197 30.5254 454.497 30.2739 454.741 29.9419C454.99 29.605 455.178 29.1924 455.305 28.7041C455.432 28.2109 455.496 27.6445 455.496 27.0049ZM459.011 21.3359H462.542C463.342 21.3359 464.019 21.458 464.57 21.7021C465.127 21.9463 465.549 22.3076 465.837 22.7861C466.13 23.2598 466.277 23.8433 466.277 24.5366C466.277 25.0249 466.177 25.4717 465.977 25.877C465.781 26.2773 465.498 26.6191 465.127 26.9023C464.761 27.1807 464.321 27.3882 463.809 27.5249L463.413 27.6787H460.095L460.081 26.5288H462.585C463.093 26.5288 463.516 26.4409 463.853 26.2651C464.189 26.0845 464.443 25.8428 464.614 25.54C464.785 25.2373 464.871 24.9028 464.871 24.5366C464.871 24.1265 464.79 23.7676 464.629 23.46C464.468 23.1523 464.214 22.9155 463.867 22.7495C463.525 22.5786 463.083 22.4932 462.542 22.4932H460.425V32H459.011V21.3359ZM465.244 32L462.651 27.166L464.124 27.1587L466.753 31.9121V32H465.244ZM468.394 21.3359L471.162 26.6899L473.938 21.3359H475.542L471.865 28.0156V32H470.452V28.0156L466.775 21.3359H468.394Z" fill="#808080"/>
    <rect x="242.5" y="116.5" width="75" height="29" rx="2.5" fill="#FDFDFD" stroke="#BF94A9"/>
    <path d="M260.729 133.168H262.042C261.974 133.797 261.794 134.36 261.502 134.857C261.21 135.354 260.798 135.748 260.265 136.04C259.731 136.327 259.066 136.47 258.269 136.47C257.685 136.47 257.154 136.361 256.676 136.142C256.202 135.923 255.794 135.613 255.452 135.212C255.11 134.807 254.846 134.321 254.659 133.756C254.477 133.187 254.386 132.553 254.386 131.856V130.865C254.386 130.167 254.477 129.536 254.659 128.971C254.846 128.402 255.113 127.914 255.459 127.508C255.81 127.103 256.231 126.791 256.724 126.572C257.216 126.353 257.77 126.244 258.385 126.244C259.137 126.244 259.772 126.385 260.292 126.667C260.812 126.95 261.215 127.342 261.502 127.843C261.794 128.34 261.974 128.917 262.042 129.573H260.729C260.666 129.108 260.547 128.709 260.374 128.376C260.201 128.039 259.955 127.779 259.636 127.597C259.317 127.415 258.9 127.324 258.385 127.324C257.943 127.324 257.553 127.408 257.216 127.577C256.883 127.745 256.603 127.985 256.375 128.294C256.152 128.604 255.983 128.976 255.869 129.409C255.755 129.842 255.698 130.322 255.698 130.851V131.856C255.698 132.344 255.748 132.802 255.849 133.23C255.953 133.658 256.111 134.034 256.32 134.358C256.53 134.681 256.797 134.937 257.12 135.124C257.444 135.306 257.826 135.397 258.269 135.397C258.829 135.397 259.276 135.308 259.608 135.13C259.941 134.953 260.192 134.697 260.36 134.365C260.534 134.032 260.657 133.633 260.729 133.168ZM267.524 127.262L264.229 136.333H262.883L266.677 126.38H267.545L267.524 127.262ZM270.286 136.333L266.984 127.262L266.964 126.38H267.832L271.64 136.333H270.286ZM270.115 132.649V133.729H264.523V132.649H270.115ZM280.629 126.38V136.333H279.303L274.292 128.657V136.333H272.973V126.38H274.292L279.323 134.078V126.38H280.629ZM288.976 133.168H290.288C290.22 133.797 290.04 134.36 289.748 134.857C289.456 135.354 289.044 135.748 288.511 136.04C287.978 136.327 287.312 136.47 286.515 136.47C285.931 136.47 285.4 136.361 284.922 136.142C284.448 135.923 284.04 135.613 283.698 135.212C283.356 134.807 283.092 134.321 282.905 133.756C282.723 133.187 282.632 132.553 282.632 131.856V130.865C282.632 130.167 282.723 129.536 282.905 128.971C283.092 128.402 283.359 127.914 283.705 127.508C284.056 127.103 284.478 126.791 284.97 126.572C285.462 126.353 286.016 126.244 286.631 126.244C287.383 126.244 288.019 126.385 288.538 126.667C289.058 126.95 289.461 127.342 289.748 127.843C290.04 128.34 290.22 128.917 290.288 129.573H288.976C288.912 129.108 288.793 128.709 288.62 128.376C288.447 128.039 288.201 127.779 287.882 127.597C287.563 127.415 287.146 127.324 286.631 127.324C286.189 127.324 285.799 127.408 285.462 127.577C285.129 127.745 284.849 127.985 284.621 128.294C284.398 128.604 284.229 128.976 284.115 129.409C284.001 129.842 283.944 130.322 283.944 130.851V131.856C283.944 132.344 283.994 132.802 284.095 133.23C284.2 133.658 284.357 134.034 284.566 134.358C284.776 134.681 285.043 134.937 285.366 135.124C285.69 135.306 286.073 135.397 286.515 135.397C287.075 135.397 287.522 135.308 287.854 135.13C288.187 134.953 288.438 134.697 288.606 134.365C288.78 134.032 288.903 133.633 288.976 133.168ZM298.409 135.26V136.333H293.139V135.26H298.409ZM293.405 126.38V136.333H292.086V126.38H293.405ZM297.712 130.66V131.733H293.139V130.66H297.712ZM298.341 126.38V127.46H293.139V126.38H298.341ZM306.079 135.26V136.333H301.103V135.26H306.079ZM301.362 126.38V136.333H300.043V126.38H301.362Z" fill="#822B55"/>
    <rect x="324" y="116" width="76" height="30" rx="3" fill="#822B55"/>
    <path d="M351.603 133.818C351.603 133.585 351.566 133.38 351.493 133.203C351.425 133.02 351.302 132.856 351.124 132.71C350.951 132.565 350.709 132.426 350.399 132.293C350.094 132.161 349.707 132.027 349.237 131.89C348.745 131.744 348.301 131.583 347.904 131.405C347.508 131.222 347.168 131.015 346.886 130.783C346.603 130.55 346.387 130.284 346.236 129.983C346.086 129.682 346.011 129.338 346.011 128.951C346.011 128.563 346.09 128.206 346.25 127.877C346.41 127.549 346.637 127.264 346.934 127.023C347.234 126.777 347.592 126.585 348.007 126.449C348.422 126.312 348.884 126.244 349.395 126.244C350.142 126.244 350.775 126.387 351.295 126.674C351.819 126.957 352.218 127.328 352.491 127.789C352.765 128.244 352.901 128.732 352.901 129.251H351.589C351.589 128.878 351.509 128.547 351.35 128.26C351.19 127.969 350.949 127.741 350.625 127.577C350.301 127.408 349.891 127.324 349.395 127.324C348.925 127.324 348.538 127.394 348.232 127.536C347.927 127.677 347.699 127.868 347.549 128.11C347.403 128.351 347.33 128.627 347.33 128.937C347.33 129.147 347.373 129.338 347.46 129.511C347.551 129.68 347.69 129.837 347.877 129.983C348.068 130.129 348.31 130.263 348.602 130.386C348.898 130.509 349.251 130.628 349.661 130.742C350.226 130.901 350.714 131.079 351.124 131.275C351.534 131.471 351.871 131.692 352.136 131.938C352.405 132.18 352.603 132.455 352.73 132.765C352.863 133.07 352.929 133.417 352.929 133.804C352.929 134.21 352.847 134.577 352.683 134.905C352.519 135.233 352.284 135.513 351.979 135.746C351.673 135.978 351.306 136.158 350.878 136.286C350.454 136.409 349.98 136.47 349.456 136.47C348.996 136.47 348.542 136.406 348.096 136.279C347.654 136.151 347.25 135.96 346.886 135.705C346.526 135.449 346.236 135.135 346.018 134.761C345.803 134.383 345.696 133.945 345.696 133.449H347.009C347.009 133.791 347.075 134.084 347.207 134.331C347.339 134.572 347.519 134.773 347.747 134.932C347.979 135.092 348.242 135.21 348.533 135.288C348.829 135.361 349.137 135.397 349.456 135.397C349.916 135.397 350.306 135.333 350.625 135.206C350.944 135.078 351.186 134.896 351.35 134.659C351.518 134.422 351.603 134.141 351.603 133.818ZM358.295 127.262L355 136.333H353.653L357.447 126.38H358.315L358.295 127.262ZM361.057 136.333L357.755 127.262L357.734 126.38H358.603L362.41 136.333H361.057ZM360.886 132.649V133.729H355.294V132.649H360.886ZM366.354 134.823L369.287 126.38H370.716L367.031 136.333H366.013L366.354 134.823ZM363.613 126.38L366.519 134.823L366.881 136.333H365.862L362.185 126.38H363.613ZM378.379 135.26V136.333H373.108V135.26H378.379ZM373.375 126.38V136.333H372.056V126.38H373.375ZM377.682 130.66V131.733H373.108V130.66H377.682ZM378.311 126.38V127.46H373.108V126.38H378.311Z" fill="white"/>
    <path d="M534.892 20.3025C534.502 19.9125 533.872 19.9125 533.482 20.3025L528.593 25.1825L523.703 20.2925C523.313 19.9025 522.683 19.9025 522.292 20.2925C521.903 20.6825 521.903 21.3125 522.292 21.7025L527.183 26.5925L522.292 31.4825C521.903 31.8725 521.903 32.5025 522.292 32.8925C522.683 33.2825 523.313 33.2825 523.703 32.8925L528.593 28.0025L533.482 32.8925C533.872 33.2825 534.502 33.2825 534.892 32.8925C535.282 32.5025 535.282 31.8725 534.892 31.4825L530.002 26.5925L534.892 21.7025C535.272 21.3225 535.272 20.6825 534.892 20.3025Z" fill="#808080"/>
    <path d="M430.288 123.886L420.288 133.886C419.898 134.276 419.268 134.276 418.878 133.886L416.048 131.056C415.658 130.666 415.658 130.036 416.048 129.646C416.438 129.256 417.068 129.256 417.458 129.646L419.578 131.766L428.868 122.476C429.258 122.086 429.888 122.086 430.278 122.476C430.678 122.866 430.678 123.496 430.288 123.886ZM424.768 120.736C423.078 120.046 421.158 119.806 419.158 120.166C415.088 120.896 411.838 124.176 411.148 128.246C410.008 134.996 415.628 140.776 422.338 139.906C426.298 139.396 429.618 136.446 430.658 132.596C431.058 131.126 431.098 129.706 430.868 128.376C430.738 127.576 429.748 127.266 429.168 127.836C428.938 128.066 428.838 128.406 428.898 128.726C429.118 130.056 429.018 131.476 428.378 132.986C427.218 135.696 424.698 137.686 421.768 137.956C416.668 138.426 412.438 134.106 413.068 128.976C413.498 125.436 416.348 122.556 419.878 122.066C421.608 121.826 423.248 122.156 424.648 122.876C425.038 123.076 425.508 123.006 425.818 122.696C426.298 122.216 426.178 121.406 425.578 121.096C425.308 120.976 425.038 120.846 424.768 120.736Z" fill="#808080"/>
    <mask id="mask0_546_11411" style="mask-type:alpha" maskUnits="userSpaceOnUse" x="24" y="18" width="18" height="18">
        <circle cx="33" cy="27" r="8.5" fill="#C4C4C4"/>
        <circle cx="33" cy="27" r="8.5" stroke="black"/>
        <circle cx="33" cy="27" r="8.5" stroke="url(#paint0_linear_546_11411)"/>
    </mask>
    <g mask="url(#mask0_546_11411)">
        <path fill-rule="evenodd" clip-rule="evenodd" d="M21 18H45V36H21V18Z" fill="#E80000"/>
        <path fill-rule="evenodd" clip-rule="evenodd" d="M21 18H45V27H21V18Z" fill="white"/>
        <path fill-rule="evenodd" clip-rule="evenodd" d="M21 18L32.9644 27L21 36V18Z" fill="#00006F"/>
        <circle cx="33" cy="27" r="8.5" stroke="#C4C4C4"/>
    </g>
    <rect x="76" y="37" width="135" height="7" rx="3.5" fill="#D1D3D8"/>
    <rect x="76" y="24" width="135" height="7" rx="3.5" fill="#D1D3D8"/>
    <path d="M9 15C9 12.2386 11.2386 10 14 10V160C11.2386 160 9 157.761 9 155V15Z" fill="#FFC625"/>
    <rect x="288" y="335" width="241" height="7" rx="3.5" fill="#EBEDF0"/>
    <rect x="288" y="322" width="241" height="7" rx="3.5" fill="#EBEDF0"/>
    <path d="M270.805 263C272.012 263 273 262.028 273 260.838V238.786C273 237.596 272.012 236.625 270.805 236.625H249.377L257.977 263H270.805Z" fill="#DBDBDB"/>
    <path d="M270.805 237.616C271.126 237.616 271.43 237.742 271.658 237.967C271.883 238.188 272.008 238.479 272.008 238.786V260.838C272.008 261.146 271.886 261.436 271.658 261.658C271.43 261.883 271.126 262.008 270.805 262.008H258.697L250.742 237.616H270.805ZM270.805 236.625H249.377L257.977 263H270.805C272.012 263 273 262.028 273 260.838V238.786C273 237.596 272.012 236.625 270.805 236.625Z" fill="#DCDCDC"/>
    <path d="M255.945 256.769L257.975 263L263.619 256.769H255.945Z" fill="#4352B8"/>
    <path d="M270.95 245.738V244.446H264.718V242.356H262.694V244.446H258.717V245.738H266.632C266.209 247.229 265.273 248.637 264.361 249.731C262.744 247.817 262.737 247.196 262.737 247.196H261.058C261.058 247.196 261.127 248.128 263.395 250.786C262.658 251.539 262.099 251.986 262.099 251.986L262.615 253.599C262.615 253.599 263.395 252.928 264.371 251.893C265.349 252.954 266.612 254.23 268.246 255.751L269.307 254.69C267.558 253.103 266.275 251.844 265.333 250.832C266.596 249.338 267.879 247.457 268.15 245.735H270.947V245.738H270.95Z" fill="#607988"/>
    <path d="M242.195 230C240.989 230 240 230.988 240 232.198V254.577C240 255.784 240.989 256.772 242.195 256.772H263.623L255.024 230H242.195Z" fill="#4285F4"/>
    <path d="M257.666 236.625H270.805C272.012 236.625 273.001 237.596 273.001 238.786V252.015L257.666 236.625Z" fill="url(#paint1_linear_546_11411)"/>
    <path d="M252.279 244.234C252.197 245.236 251.34 246.72 249.267 246.72C247.472 246.72 246.017 245.236 246.017 243.408C246.017 241.58 247.472 240.095 249.267 240.095C250.289 240.095 250.97 240.538 251.36 240.899L252.722 239.59C251.826 238.763 250.659 238.248 249.267 238.248C246.42 238.248 244.109 240.558 244.109 243.404C244.109 246.25 246.42 248.561 249.267 248.561C252.249 248.561 254.22 246.469 254.22 243.517C254.22 243.094 254.167 242.783 254.098 242.466H249.27V244.231L252.279 244.234Z" fill="#EEEEEE"/>
    <path d="M270.805 236.624H257.153L255.024 230H242.195C240.989 230 240 230.988 240 232.198V254.577C240 255.784 240.989 256.772 242.195 256.772H255.946L257.976 263H270.805C272.011 263 273 262.028 273 260.838V238.786C273 237.596 272.011 236.624 270.805 236.624Z" fill="url(#paint2_radial_546_11411)"/>
    <path d="M249.232 287.026C249.232 287.474 249.279 287.836 249.362 288.102C249.457 288.368 249.575 288.658 249.741 288.973C249.8 289.069 249.824 289.166 249.824 289.251C249.824 289.372 249.753 289.492 249.599 289.613L248.853 290.121C248.746 290.193 248.64 290.23 248.545 290.23C248.426 290.23 248.308 290.169 248.19 290.061C248.024 289.879 247.882 289.686 247.763 289.492C247.645 289.287 247.527 289.057 247.396 288.779C246.473 289.891 245.312 290.447 243.915 290.447C242.92 290.447 242.127 290.157 241.546 289.577C240.966 288.997 240.67 288.223 240.67 287.256C240.67 286.229 241.025 285.395 241.748 284.766C242.47 284.137 243.429 283.823 244.649 283.823C245.052 283.823 245.466 283.859 245.904 283.92C246.342 283.98 246.792 284.077 247.266 284.186V283.303C247.266 282.385 247.076 281.744 246.709 281.369C246.33 280.995 245.691 280.813 244.779 280.813C244.365 280.813 243.938 280.862 243.5 280.97C243.062 281.079 242.636 281.212 242.221 281.381C242.032 281.466 241.89 281.514 241.807 281.539C241.724 281.563 241.665 281.575 241.617 281.575C241.452 281.575 241.369 281.454 241.369 281.2V280.608C241.369 280.414 241.392 280.269 241.452 280.185C241.511 280.1 241.617 280.015 241.783 279.931C242.198 279.713 242.695 279.532 243.275 279.387C243.855 279.23 244.471 279.157 245.123 279.157C246.532 279.157 247.562 279.484 248.225 280.136C248.877 280.789 249.208 281.78 249.208 283.11V287.026H249.232ZM244.424 288.864C244.815 288.864 245.217 288.791 245.644 288.646C246.07 288.501 246.449 288.235 246.769 287.873C246.958 287.643 247.1 287.389 247.171 287.099C247.242 286.809 247.29 286.458 247.29 286.047V285.54C246.946 285.455 246.579 285.383 246.2 285.334C245.821 285.286 245.454 285.262 245.087 285.262C244.294 285.262 243.713 285.419 243.323 285.745C242.932 286.072 242.742 286.531 242.742 287.135C242.742 287.703 242.884 288.126 243.18 288.417C243.465 288.719 243.879 288.864 244.424 288.864ZM253.933 290.169C253.72 290.169 253.578 290.133 253.483 290.048C253.388 289.976 253.305 289.807 253.234 289.577L250.451 280.233C250.38 279.991 250.345 279.834 250.345 279.75C250.345 279.556 250.44 279.447 250.629 279.447H251.79C252.015 279.447 252.169 279.484 252.252 279.568C252.346 279.641 252.417 279.81 252.488 280.04L254.478 288.042L256.325 280.04C256.384 279.798 256.455 279.641 256.55 279.568C256.645 279.496 256.811 279.447 257.024 279.447H257.971C258.196 279.447 258.35 279.484 258.445 279.568C258.54 279.641 258.623 279.81 258.67 280.04L260.541 288.139L262.59 280.04C262.661 279.798 262.744 279.641 262.826 279.568C262.921 279.496 263.075 279.447 263.288 279.447H264.39C264.579 279.447 264.686 279.544 264.686 279.75C264.686 279.81 264.674 279.87 264.662 279.943C264.65 280.015 264.626 280.112 264.579 280.245L261.725 289.589C261.654 289.831 261.571 289.988 261.476 290.061C261.382 290.133 261.228 290.181 261.026 290.181H260.008C259.783 290.181 259.629 290.145 259.534 290.061C259.44 289.976 259.357 289.819 259.309 289.577L257.474 281.78L255.65 289.565C255.591 289.807 255.52 289.964 255.425 290.048C255.33 290.133 255.165 290.169 254.951 290.169H253.933ZM269.15 290.496C268.534 290.496 267.919 290.423 267.326 290.278C266.734 290.133 266.273 289.976 265.965 289.795C265.775 289.686 265.645 289.565 265.598 289.456C265.55 289.347 265.526 289.226 265.526 289.118V288.501C265.526 288.247 265.621 288.126 265.799 288.126C265.87 288.126 265.941 288.139 266.012 288.163C266.083 288.187 266.19 288.235 266.308 288.284C266.711 288.465 267.149 288.61 267.611 288.707C268.084 288.803 268.546 288.852 269.02 288.852C269.766 288.852 270.346 288.719 270.749 288.453C271.151 288.187 271.365 287.8 271.365 287.304C271.365 286.966 271.258 286.688 271.045 286.458C270.832 286.229 270.429 286.023 269.849 285.83L268.132 285.286C267.267 285.008 266.628 284.597 266.237 284.053C265.846 283.521 265.645 282.929 265.645 282.3C265.645 281.792 265.751 281.345 265.965 280.958C266.178 280.572 266.462 280.233 266.817 279.967C267.173 279.689 267.575 279.484 268.049 279.339C268.523 279.193 269.02 279.133 269.541 279.133C269.801 279.133 270.074 279.145 270.334 279.181C270.607 279.218 270.855 279.266 271.104 279.314C271.341 279.375 271.566 279.435 271.779 279.508C271.992 279.58 272.158 279.653 272.276 279.725C272.442 279.822 272.561 279.919 272.632 280.028C272.703 280.124 272.738 280.257 272.738 280.426V280.995C272.738 281.248 272.644 281.381 272.466 281.381C272.371 281.381 272.217 281.333 272.016 281.236C271.341 280.922 270.583 280.765 269.742 280.765C269.067 280.765 268.534 280.874 268.167 281.103C267.8 281.333 267.611 281.684 267.611 282.179C267.611 282.518 267.729 282.808 267.966 283.037C268.203 283.267 268.641 283.497 269.269 283.702L270.95 284.246C271.803 284.524 272.419 284.911 272.786 285.407C273.153 285.902 273.33 286.47 273.33 287.099C273.33 287.619 273.224 288.09 273.023 288.501C272.809 288.912 272.525 289.275 272.158 289.565C271.791 289.867 271.353 290.085 270.844 290.242C270.311 290.411 269.754 290.496 269.15 290.496Z" fill="#252F3E"/>
    <path fill-rule="evenodd" clip-rule="evenodd" d="M271.388 296.37C267.492 299.308 261.831 300.867 256.964 300.867C250.143 300.867 243.997 298.292 239.355 294.013C238.988 293.675 239.319 293.215 239.758 293.481C244.779 296.455 250.972 298.256 257.379 298.256C261.701 298.256 266.45 297.337 270.819 295.452C271.471 295.149 272.027 295.887 271.388 296.37Z" fill="#FF9900"/>
    <path fill-rule="evenodd" clip-rule="evenodd" d="M273.009 294.485C272.512 293.832 269.717 294.17 268.45 294.328C268.071 294.376 268.012 294.037 268.355 293.784C270.582 292.188 274.241 292.647 274.667 293.179C275.094 293.723 274.549 297.458 272.465 299.247C272.145 299.525 271.837 299.38 271.979 299.018C272.453 297.821 273.507 295.125 273.009 294.485Z" fill="#FF9900"/>
    <path d="M262.528 335.921C261.195 335.921 260.115 334.811 260.115 333.44C260.115 333.296 260.127 333.154 260.15 333.016L254.378 329.6C253.958 329.965 253.415 330.185 252.823 330.185C251.489 330.185 250.408 329.074 250.408 327.704C250.408 326.334 251.489 325.223 252.823 325.223C254.156 325.223 255.237 326.334 255.237 327.704C255.237 327.861 255.221 328.016 255.193 328.166L260.945 331.569C261.369 331.19 261.923 330.959 262.528 330.959C263.861 330.959 264.942 332.07 264.942 333.44C264.942 334.811 263.861 335.921 262.528 335.921ZM255.207 339.216C255.207 340.586 254.127 341.697 252.794 341.697C251.461 341.697 250.38 340.586 250.38 339.216C250.38 337.845 251.461 336.734 252.794 336.734C253.393 336.734 253.94 336.959 254.362 337.331L258.57 334.845C258.75 335.379 259.029 335.865 259.384 336.28L255.169 338.771C255.193 338.915 255.207 339.064 255.207 339.216ZM269.721 324.075L258.259 317.344C257.479 316.885 256.521 316.885 255.74 317.344L244.28 324.075C243.488 324.54 243 325.405 243 326.341V340.035C243 340.966 243.484 341.828 244.27 342.294L264 354L264.003 345.686L269.729 342.294C270.516 341.828 271 340.966 271 340.034V326.341C271 325.405 270.512 324.54 269.721 324.075" fill="#042B48"/>
    <defs>
        <filter id="filter0_d_546_11411" x="0" y="0" width="557" height="170" filterUnits="userSpaceOnUse" color-interpolation-filters="sRGB">
            <feFlood flood-opacity="0" result="BackgroundImageFix"/>
            <feColorMatrix in="SourceAlpha" type="matrix" values="0 0 0 0 0 0 0 0 0 0 0 0 0 0 0 0 0 0 127 0" result="hardAlpha"/>
            <feOffset/>
            <feGaussianBlur stdDeviation="5"/>
            <feComposite in2="hardAlpha" operator="out"/>
            <feColorMatrix type="matrix" values="0 0 0 0 0 0 0 0 0 0 0 0 0 0 0 0 0 0 0.25 0"/>
            <feBlend mode="normal" in2="BackgroundImageFix" result="effect1_dropShadow_546_11411"/>
            <feBlend mode="normal" in="SourceGraphic" in2="effect1_dropShadow_546_11411" result="shape"/>
        </filter>
        <filter id="filter1_d_546_11411" x="218" y="160" width="339" height="217" filterUnits="userSpaceOnUse" color-interpolation-filters="sRGB">
            <feFlood flood-opacity="0" result="BackgroundImageFix"/>
            <feColorMatrix in="SourceAlpha" type="matrix" values="0 0 0 0 0 0 0 0 0 0 0 0 0 0 0 0 0 0 127 0" result="hardAlpha"/>
            <feOffset dy="1"/>
            <feGaussianBlur stdDeviation="5"/>
            <feComposite in2="hardAlpha" operator="out"/>
            <feColorMatrix type="matrix" values="0 0 0 0 0 0 0 0 0 0 0 0 0 0 0 0 0 0 0.25 0"/>
            <feBlend mode="normal" in2="BackgroundImageFix" result="effect1_dropShadow_546_11411"/>
            <feBlend mode="normal" in="SourceGraphic" in2="effect1_dropShadow_546_11411" result="shape"/>
        </filter>
        <linearGradient id="paint0_linear_546_11411" x1="33" y1="18" x2="33" y2="36" gradientUnits="userSpaceOnUse">
            <stop stop-color="white"/>
            <stop offset="1" stop-color="white" stop-opacity="0"/>
        </linearGradient>
        <linearGradient id="paint1_linear_546_11411" x1="257.666" y1="244.32" x2="273.001" y2="244.32" gradientUnits="userSpaceOnUse">
            <stop stop-color="white" stop-opacity="0.2"/>
            <stop offset="1" stop-color="white" stop-opacity="0.02"/>
        </linearGradient>
        <radialGradient id="paint2_radial_546_11411" cx="0" cy="0" r="1" gradientUnits="userSpaceOnUse" gradientTransform="translate(242.156 230.64) scale(46.2308 46.2215)">
            <stop stop-color="white" stop-opacity="0.1"/>
            <stop offset="1" stop-color="white" stop-opacity="0"/>
        </radialGradient>
    </defs>
</svg>
