<svg width="562" height="353" viewBox="0 0 562 353" fill="none" xmlns="http://www.w3.org/2000/svg">
  <g filter="url(#filter0_d_739_1524)">
    <path d="M10 16C10 12.6863 12.6863 10 16 10H508C511.314 10 514 12.6863 514 16V199C514 202.314 511.314 205 508 205H16C12.6863 205 10 202.314 10 199V16Z" fill="#283A53" />
  </g>
  <rect x="25.36" y="126" width="94.08" height="7" rx="3.5" fill="#687384" />
  <path d="M10 16C10 12.6863 12.6863 10 16 10H266.32V108H10V16Z" fill="#24344B" />
  <path d="M316.731 86.0977C317.032 86.0977 317.31 86.0361 317.565 85.9131C317.821 85.79 318.03 85.6214 318.194 85.4072C318.358 85.1885 318.452 84.9401 318.474 84.6621H319.678C319.655 85.0996 319.507 85.5075 319.233 85.8857C318.964 86.2594 318.611 86.5625 318.174 86.7949C317.736 87.0228 317.255 87.1367 316.731 87.1367C316.175 87.1367 315.69 87.0387 315.275 86.8428C314.865 86.6468 314.523 86.3779 314.25 86.0361C313.981 85.6943 313.778 85.3024 313.641 84.8604C313.509 84.4137 313.443 83.9421 313.443 83.4453V83.1582C313.443 82.6615 313.509 82.1921 313.641 81.75C313.778 81.3034 313.981 80.9092 314.25 80.5674C314.523 80.2256 314.865 79.9567 315.275 79.7607C315.69 79.5648 316.175 79.4668 316.731 79.4668C317.31 79.4668 317.816 79.5853 318.249 79.8223C318.682 80.0547 319.021 80.3737 319.267 80.7793C319.518 81.1803 319.655 81.6361 319.678 82.1465H318.474C318.452 81.8411 318.365 81.5654 318.215 81.3193C318.069 81.0732 317.868 80.8773 317.613 80.7314C317.363 80.5811 317.069 80.5059 316.731 80.5059C316.344 80.5059 316.018 80.5833 315.754 80.7383C315.494 80.8887 315.287 81.0938 315.132 81.3535C314.981 81.6087 314.872 81.8936 314.804 82.208C314.74 82.5179 314.708 82.8346 314.708 83.1582V83.4453C314.708 83.7689 314.74 84.0879 314.804 84.4023C314.867 84.7168 314.974 85.0016 315.125 85.2568C315.28 85.512 315.487 85.7171 315.747 85.8721C316.011 86.0225 316.339 86.0977 316.731 86.0977ZM326.609 85.9609V87H321.229V85.9609H326.609ZM326.411 80.499L321.516 87H320.744V86.0703L325.604 79.6035H326.411V80.499ZM325.85 79.6035V80.6494H320.799V79.6035H325.85Z" fill="#D1D3D8" />
  <mask id="mask0_739_1524" style="mask-type:alpha" maskUnits="userSpaceOnUse" x="287" y="73" width="20" height="20">
    <path d="M306.099 83C306.099 88.2619 301.971 92.5 296.914 92.5C291.856 92.5 287.728 88.2619 287.728 83C287.728 77.7381 291.856 73.5 296.914 73.5C301.971 73.5 306.099 77.7381 306.099 83Z" fill="#C4C4C4" />
    <path d="M306.099 83C306.099 88.2619 301.971 92.5 296.914 92.5C291.856 92.5 287.728 88.2619 287.728 83C287.728 77.7381 291.856 73.5 296.914 73.5C301.971 73.5 306.099 77.7381 306.099 83Z" stroke="black" />
    <path d="M306.099 83C306.099 88.2619 301.971 92.5 296.914 92.5C291.856 92.5 287.728 88.2619 287.728 83C287.728 77.7381 291.856 73.5 296.914 73.5C301.971 73.5 306.099 77.7381 306.099 83Z" stroke="url(#paint0_linear_739_1524)" />
  </mask>
  <g mask="url(#mask0_739_1524)">
    <path fill-rule="evenodd" clip-rule="evenodd" d="M284 73H309.827V93H284V73Z" fill="#E80000" />
    <path fill-rule="evenodd" clip-rule="evenodd" d="M284 73H309.827V83H284V73Z" fill="#F0F0F0" />
    <path fill-rule="evenodd" clip-rule="evenodd" d="M284 73L296.875 83L284 93V73Z" fill="#00006F" />
  </g>
  <rect x="341.201" y="37" width="106.92" height="7" rx="3.5" fill="#687384" />
  <rect x="341.201" y="24" width="158.4" height="7" rx="3.5" fill="#687384" />
  <rect x="25.36" y="30" width="129.6" height="7" rx="3.5" fill="#687384" />
  <path d="M266.32 10H271.12V58H266.32V10Z" fill="#107911" />
  <path d="M244.24 89.2C245.937 89.2 247.312 87.7673 247.312 86C247.312 84.2327 245.937 82.8 244.24 82.8C242.543 82.8 241.168 84.2327 241.168 86C241.168 87.7673 242.543 89.2 244.24 89.2Z" fill="#B5B9BE" />
  <path d="M241.36 76L239.603 78H236.56C235.504 78 234.64 78.9 234.64 80V92C234.64 93.1 235.504 94 236.56 94H251.92C252.976 94 253.84 93.1 253.84 92V80C253.84 78.9 252.976 78 251.92 78H248.877L247.12 76H241.36ZM244.24 91C241.59 91 239.44 88.76 239.44 86C239.44 83.24 241.59 81 244.24 81C246.89 81 249.04 83.24 249.04 86C249.04 88.76 246.89 91 244.24 91Z" fill="#B5B9BE" />
  <path d="M201.04 90.25V94H204.64L215.258 82.94L211.658 79.19L201.04 90.25ZM218.042 80.04C218.416 79.65 218.416 79.02 218.042 78.63L215.795 76.29C215.421 75.9 214.816 75.9 214.442 76.29L212.685 78.12L216.285 81.87L218.042 80.04Z" fill="#B5B9BE" />
  <path d="M316.842 38.1367C316.327 38.1367 315.86 38.0501 315.441 37.877C315.026 37.6992 314.668 37.4508 314.368 37.1318C314.071 36.8128 313.844 36.4346 313.684 35.9971C313.525 35.5596 313.445 35.0811 313.445 34.5615V34.2744C313.445 33.6729 313.534 33.1374 313.711 32.668C313.889 32.194 314.131 31.793 314.436 31.4648C314.741 31.1367 315.088 30.8883 315.475 30.7197C315.862 30.5511 316.264 30.4668 316.678 30.4668C317.207 30.4668 317.663 30.5579 318.045 30.7402C318.433 30.9225 318.75 31.1777 318.996 31.5059C319.242 31.8294 319.424 32.2122 319.542 32.6543C319.661 33.0918 319.72 33.5703 319.72 34.0898V34.6572H314.197V33.625H318.456V33.5293C318.437 33.2012 318.369 32.8822 318.25 32.5723C318.137 32.2624 317.954 32.0072 317.704 31.8066C317.453 31.6061 317.111 31.5059 316.678 31.5059C316.391 31.5059 316.127 31.5674 315.885 31.6904C315.644 31.8089 315.436 31.9867 315.263 32.2236C315.09 32.4606 314.956 32.75 314.86 33.0918C314.764 33.4336 314.716 33.8278 314.716 34.2744V34.5615C314.716 34.9124 314.764 35.2428 314.86 35.5527C314.96 35.8581 315.104 36.127 315.291 36.3594C315.482 36.5918 315.712 36.7741 315.981 36.9062C316.254 37.0384 316.564 37.1045 316.911 37.1045C317.357 37.1045 317.736 37.0133 318.045 36.8311C318.355 36.6488 318.626 36.4049 318.859 36.0996L319.625 36.708C319.465 36.9495 319.262 37.1797 319.016 37.3984C318.77 37.6172 318.467 37.7949 318.107 37.9316C317.751 38.0684 317.33 38.1367 316.842 38.1367ZM322.461 32.1826V38H321.197V30.6035H322.393L322.461 32.1826ZM322.161 34.0215L321.634 34.001C321.639 33.4951 321.714 33.028 321.86 32.5996C322.006 32.1667 322.211 31.7907 322.475 31.4717C322.739 31.1527 323.054 30.9066 323.418 30.7334C323.788 30.5557 324.195 30.4668 324.642 30.4668C325.007 30.4668 325.335 30.5169 325.626 30.6172C325.918 30.7129 326.167 30.8678 326.372 31.082C326.581 31.2962 326.741 31.5742 326.85 31.916C326.959 32.2533 327.014 32.6657 327.014 33.1533V38H325.743V33.1396C325.743 32.7523 325.686 32.4424 325.572 32.21C325.458 31.973 325.292 31.8021 325.073 31.6973C324.854 31.5879 324.585 31.5332 324.266 31.5332C323.952 31.5332 323.665 31.5993 323.405 31.7314C323.15 31.8636 322.929 32.0459 322.742 32.2783C322.559 32.5107 322.416 32.7773 322.311 33.0781C322.211 33.3743 322.161 33.6888 322.161 34.0215Z" fill="#D1D3D8" />
  <g clip-path="url(#clip0_739_1524)">
    <path d="M296.914 44C302.401 44 306.848 39.5228 306.848 34C306.848 28.4772 302.401 24 296.914 24C291.428 24 286.981 28.4772 286.981 34C286.981 39.5228 291.428 44 296.914 44Z" fill="#F0F0F0" />
    <path d="M296.483 34H306.848C306.848 33.0974 306.728 32.2231 306.506 31.3913H296.483V34Z" fill="#D80027" />
    <path d="M296.483 28.7826H305.39C304.782 27.7837 304.004 26.9008 303.098 26.1739H296.483V28.7826Z" fill="#D80027" />
    <path d="M296.914 44C299.252 44 301.401 43.1866 303.098 41.8261H290.731C292.428 43.1866 294.577 44 296.914 44Z" fill="#D80027" />
    <path d="M288.439 39.2174H305.39C305.878 38.4155 306.257 37.5389 306.506 36.6087H287.323C287.572 37.5389 287.951 38.4155 288.439 39.2174Z" fill="#D80027" />
    <path d="M291.582 25.5616H292.488L291.646 26.1775L291.967 27.1739L291.125 26.5581L290.283 27.1739L290.561 26.3131C289.82 26.9348 289.17 27.6631 288.634 28.4747H288.924L288.388 28.8667C288.305 29.0069 288.225 29.1494 288.148 29.2939L288.404 30.087L287.927 29.7377C287.808 29.9909 287.699 30.2497 287.602 30.514L287.884 31.3877H288.924L288.082 32.0036L288.404 33L287.562 32.3842L287.058 32.7531C287.007 33.1616 286.981 33.5777 286.981 34H296.914C296.914 28.4772 296.914 27.8261 296.914 24C294.952 24 293.123 24.573 291.582 25.5616ZM291.967 33L291.125 32.3842L290.283 33L290.605 32.0036L289.763 31.3877H290.804L291.125 30.3913L291.447 31.3877H292.488L291.646 32.0036L291.967 33ZM291.646 29.0905L291.967 30.087L291.125 29.4711L290.283 30.087L290.605 29.0905L289.763 28.4747H290.804L291.125 27.4782L291.447 28.4747H292.488L291.646 29.0905ZM295.53 33L294.688 32.3842L293.846 33L294.168 32.0036L293.326 31.3877H294.367L294.688 30.3913L295.01 31.3877H296.051L295.209 32.0036L295.53 33ZM295.209 29.0905L295.53 30.087L294.688 29.4711L293.846 30.087L294.168 29.0905L293.326 28.4747H294.367L294.688 27.4782L295.01 28.4747H296.051L295.209 29.0905ZM295.209 26.1775L295.53 27.1739L294.688 26.5581L293.846 27.1739L294.168 26.1775L293.326 25.5616H294.367L294.688 24.5652L295.01 25.5616H296.051L295.209 26.1775Z" fill="#0052B4" />
  </g>
  <rect x="341.201" y="86" width="59.4" height="7" rx="3.5" fill="#687384" />
  <rect x="341.201" y="73" width="141.768" height="7" rx="3.5" fill="#687384" />
  <path d="M266.32 59H271.12V107H266.32V59Z" fill="#B29000" />
  <rect x="341.201" y="135" width="106.92" height="7" rx="3.5" fill="#687384" />
  <rect x="341.201" y="122" width="158.4" height="7" rx="3.5" fill="#687384" />
  <path d="M266.32 108H271.12V156H266.32V108Z" fill="#107911" />
  <path d="M316.842 136.137C316.327 136.137 315.86 136.05 315.441 135.877C315.026 135.699 314.668 135.451 314.368 135.132C314.071 134.813 313.844 134.435 313.684 133.997C313.525 133.56 313.445 133.081 313.445 132.562V132.274C313.445 131.673 313.534 131.137 313.711 130.668C313.889 130.194 314.131 129.793 314.436 129.465C314.741 129.137 315.088 128.888 315.475 128.72C315.862 128.551 316.264 128.467 316.678 128.467C317.207 128.467 317.663 128.558 318.045 128.74C318.433 128.923 318.75 129.178 318.996 129.506C319.242 129.829 319.424 130.212 319.542 130.654C319.661 131.092 319.72 131.57 319.72 132.09V132.657H314.197V131.625H318.456V131.529C318.437 131.201 318.369 130.882 318.25 130.572C318.137 130.262 317.954 130.007 317.704 129.807C317.453 129.606 317.111 129.506 316.678 129.506C316.391 129.506 316.127 129.567 315.885 129.69C315.644 129.809 315.436 129.987 315.263 130.224C315.09 130.461 314.956 130.75 314.86 131.092C314.764 131.434 314.716 131.828 314.716 132.274V132.562C314.716 132.912 314.764 133.243 314.86 133.553C314.96 133.858 315.104 134.127 315.291 134.359C315.482 134.592 315.712 134.774 315.981 134.906C316.254 135.038 316.564 135.104 316.911 135.104C317.357 135.104 317.736 135.013 318.045 134.831C318.355 134.649 318.626 134.405 318.859 134.1L319.625 134.708C319.465 134.95 319.262 135.18 319.016 135.398C318.77 135.617 318.467 135.795 318.107 135.932C317.751 136.068 317.33 136.137 316.842 136.137ZM322.461 130.183V136H321.197V128.604H322.393L322.461 130.183ZM322.161 132.021L321.634 132.001C321.639 131.495 321.714 131.028 321.86 130.6C322.006 130.167 322.211 129.791 322.475 129.472C322.739 129.153 323.054 128.907 323.418 128.733C323.788 128.556 324.195 128.467 324.642 128.467C325.007 128.467 325.335 128.517 325.626 128.617C325.918 128.713 326.167 128.868 326.372 129.082C326.581 129.296 326.741 129.574 326.85 129.916C326.959 130.253 327.014 130.666 327.014 131.153V136H325.743V131.14C325.743 130.752 325.686 130.442 325.572 130.21C325.458 129.973 325.292 129.802 325.073 129.697C324.854 129.588 324.585 129.533 324.266 129.533C323.952 129.533 323.665 129.599 323.405 129.731C323.15 129.864 322.929 130.046 322.742 130.278C322.559 130.511 322.416 130.777 322.311 131.078C322.211 131.374 322.161 131.689 322.161 132.021Z" fill="#D1D3D8" />
  <g clip-path="url(#clip1_739_1524)">
    <path d="M296.914 142C302.401 142 306.848 137.523 306.848 132C306.848 126.477 302.401 122 296.914 122C291.428 122 286.981 126.477 286.981 132C286.981 137.523 291.428 142 296.914 142Z" fill="#F0F0F0" />
    <path d="M296.483 132H306.848C306.848 131.097 306.728 130.223 306.506 129.391H296.483V132Z" fill="#D80027" />
    <path d="M296.483 126.783H305.39C304.782 125.784 304.004 124.901 303.098 124.174H296.483V126.783Z" fill="#D80027" />
    <path d="M296.914 142C299.252 142 301.401 141.187 303.098 139.826H290.731C292.428 141.187 294.577 142 296.914 142Z" fill="#D80027" />
    <path d="M288.439 137.217H305.39C305.878 136.415 306.257 135.539 306.506 134.609H287.323C287.572 135.539 287.951 136.415 288.439 137.217Z" fill="#D80027" />
    <path d="M291.582 123.562H292.488L291.646 124.177L291.967 125.174L291.125 124.558L290.283 125.174L290.561 124.313C289.82 124.935 289.17 125.663 288.634 126.475H288.924L288.388 126.867C288.305 127.007 288.225 127.149 288.148 127.294L288.404 128.087L287.927 127.738C287.808 127.991 287.699 128.25 287.602 128.514L287.884 129.388H288.924L288.082 130.004L288.404 131L287.562 130.384L287.058 130.753C287.007 131.162 286.981 131.578 286.981 132H296.914C296.914 126.477 296.914 125.826 296.914 122C294.952 122 293.123 122.573 291.582 123.562ZM291.967 131L291.125 130.384L290.283 131L290.605 130.004L289.763 129.388H290.804L291.125 128.391L291.447 129.388H292.488L291.646 130.004L291.967 131ZM291.646 127.091L291.967 128.087L291.125 127.471L290.283 128.087L290.605 127.091L289.763 126.475H290.804L291.125 125.478L291.447 126.475H292.488L291.646 127.091ZM295.53 131L294.688 130.384L293.846 131L294.168 130.004L293.326 129.388H294.367L294.688 128.391L295.01 129.388H296.051L295.209 130.004L295.53 131ZM295.209 127.091L295.53 128.087L294.688 127.471L293.846 128.087L294.168 127.091L293.326 126.475H294.367L294.688 125.478L295.01 126.475H296.051L295.209 127.091ZM295.209 124.177L295.53 125.174L294.688 124.558L293.846 125.174L294.168 124.177L293.326 123.562H294.367L294.688 122.565L295.01 123.562H296.051L295.209 124.177Z" fill="#0052B4" />
  </g>
  <line x1="10" y1="107.5" x2="514" y2="107.5" stroke="#687384" />
  <rect x="25.8612" y="46.5" width="51.8" height="23" rx="11.5" stroke="#D1D3D8" />
  <path d="M53.4218 54.6035V55.5742H49.4227V54.6035H53.4218ZM50.7762 52.8057H52.0409V60.168C52.0409 60.4186 52.0796 60.6077 52.1571 60.7354C52.2346 60.863 52.3348 60.9473 52.4579 60.9883C52.5809 61.0293 52.7131 61.0498 52.8544 61.0498C52.9592 61.0498 53.0686 61.0407 53.1825 61.0225C53.301 60.9997 53.3899 60.9814 53.4491 60.9678L53.4559 62C53.3557 62.0319 53.2235 62.0615 53.0594 62.0889C52.8999 62.1208 52.7063 62.1367 52.4784 62.1367C52.1685 62.1367 51.8837 62.0752 51.6239 61.9521C51.3641 61.8291 51.1568 61.624 51.0018 61.3369C50.8514 61.0452 50.7762 60.6533 50.7762 60.1611V52.8057ZM59.2665 60.7354V56.9277C59.2665 56.6361 59.2072 56.3831 59.0887 56.1689C58.9748 55.9502 58.8016 55.7816 58.5692 55.6631C58.3368 55.5446 58.0497 55.4854 57.7079 55.4854C57.3889 55.4854 57.1086 55.54 56.8671 55.6494C56.6301 55.7588 56.4432 55.9023 56.3065 56.0801C56.1744 56.2578 56.1083 56.4492 56.1083 56.6543H54.8436C54.8436 56.39 54.912 56.1279 55.0487 55.8682C55.1854 55.6084 55.3814 55.3737 55.6366 55.1641C55.8964 54.9499 56.2063 54.7812 56.5663 54.6582C56.9309 54.5306 57.3365 54.4668 57.7831 54.4668C58.3208 54.4668 58.7948 54.5579 59.205 54.7402C59.6197 54.9225 59.9432 55.1982 60.1757 55.5674C60.4126 55.932 60.5311 56.39 60.5311 56.9414V60.3867C60.5311 60.6328 60.5516 60.8949 60.5927 61.1729C60.6382 61.4508 60.7043 61.6901 60.7909 61.8906V62H59.4716C59.4078 61.8542 59.3576 61.6605 59.3212 61.4189C59.2847 61.1729 59.2665 60.945 59.2665 60.7354ZM59.4852 57.5156L59.4989 58.4043H58.2206C57.8606 58.4043 57.5393 58.4339 57.2567 58.4932C56.9742 58.5479 56.7372 58.6322 56.5458 58.7461C56.3544 58.86 56.2085 59.0036 56.1083 59.1768C56.008 59.3454 55.9579 59.5436 55.9579 59.7715C55.9579 60.0039 56.0103 60.2158 56.1151 60.4072C56.2199 60.5986 56.3772 60.7513 56.5868 60.8652C56.801 60.9746 57.063 61.0293 57.3729 61.0293C57.7603 61.0293 58.1021 60.9473 58.3983 60.7832C58.6945 60.6191 58.9292 60.4186 59.1024 60.1816C59.2802 59.9447 59.3759 59.7145 59.3895 59.4912L59.9296 60.0996C59.8977 60.291 59.8111 60.5029 59.6698 60.7354C59.5285 60.9678 59.3394 61.1911 59.1024 61.4053C58.87 61.6149 58.592 61.7904 58.2684 61.9316C57.9494 62.0684 57.5894 62.1367 57.1884 62.1367C56.6871 62.1367 56.2473 62.0387 55.869 61.8428C55.4953 61.6468 55.2037 61.3848 54.994 61.0566C54.7889 60.724 54.6864 60.3525 54.6864 59.9424C54.6864 59.5459 54.7639 59.1973 54.9188 58.8965C55.0738 58.5911 55.2971 58.3382 55.5887 58.1377C55.8804 57.9326 56.2313 57.7777 56.6415 57.6729C57.0516 57.568 57.5096 57.5156 58.0155 57.5156H59.4852ZM67.3124 54.6035H68.4608V61.8428C68.4608 62.4945 68.3287 63.0505 68.0643 63.5107C67.8 63.971 67.4309 64.3197 66.9569 64.5566C66.4875 64.7982 65.9452 64.9189 65.33 64.9189C65.0747 64.9189 64.774 64.8779 64.4276 64.7959C64.0858 64.7184 63.7486 64.584 63.4159 64.3926C63.0878 64.2057 62.8121 63.9528 62.5887 63.6338L63.2518 62.8818C63.5617 63.2555 63.8853 63.5153 64.2225 63.6611C64.5643 63.807 64.9016 63.8799 65.2343 63.8799C65.6353 63.8799 65.9816 63.8047 66.2733 63.6543C66.565 63.5039 66.7906 63.2806 66.9501 62.9844C67.1141 62.6927 67.1962 62.3327 67.1962 61.9043V56.2305L67.3124 54.6035ZM62.2196 58.3838V58.2402C62.2196 57.6751 62.2857 57.1624 62.4178 56.7021C62.5546 56.2373 62.7483 55.8385 62.9989 55.5059C63.2541 55.1732 63.5617 54.918 63.9218 54.7402C64.2818 54.5579 64.6874 54.4668 65.1385 54.4668C65.6034 54.4668 66.009 54.5488 66.3553 54.7129C66.7063 54.8724 67.0025 55.1071 67.244 55.417C67.4901 55.7223 67.6838 56.0915 67.8251 56.5244C67.9663 56.9574 68.0643 57.4473 68.119 57.9941V58.623C68.0689 59.1654 67.9709 59.653 67.8251 60.0859C67.6838 60.5189 67.4901 60.888 67.244 61.1934C67.0025 61.4987 66.7063 61.7334 66.3553 61.8975C66.0044 62.057 65.5943 62.1367 65.1249 62.1367C64.6828 62.1367 64.2818 62.0433 63.9218 61.8564C63.5663 61.6696 63.2609 61.4076 63.0057 61.0703C62.7505 60.7331 62.5546 60.3366 62.4178 59.8809C62.2857 59.4206 62.2196 58.9215 62.2196 58.3838ZM63.4843 58.2402V58.3838C63.4843 58.7529 63.5207 59.0993 63.5936 59.4229C63.6711 59.7464 63.7873 60.0312 63.9423 60.2773C64.1018 60.5234 64.3046 60.7171 64.5507 60.8584C64.7968 60.9951 65.0907 61.0635 65.4325 61.0635C65.8518 61.0635 66.1981 60.9746 66.4716 60.7969C66.745 60.6191 66.9615 60.3844 67.121 60.0928C67.285 59.8011 67.4126 59.4844 67.5038 59.1426V57.4951C67.4537 57.2445 67.3762 57.0029 67.2714 56.7705C67.1711 56.5335 67.0389 56.3239 66.8749 56.1416C66.7154 55.9548 66.5171 55.8066 66.2802 55.6973C66.0432 55.5879 65.7652 55.5332 65.4462 55.5332C65.0998 55.5332 64.8013 55.6061 64.5507 55.752C64.3046 55.8932 64.1018 56.0892 63.9423 56.3398C63.7873 56.5859 63.6711 56.873 63.5936 57.2012C63.5207 57.5247 63.4843 57.8711 63.4843 58.2402Z" fill="#D1D3D8" />
  <path fill-rule="evenodd" clip-rule="evenodd" d="M40.7203 53H38.8003V57H34.9603V59H38.8003V63H40.7203V59H44.5603V57H40.7203V53Z" fill="#D1D3D8" />
  <g filter="url(#filter1_d_739_1524)">
    <path d="M110 145.5C110 142.186 112.686 139.5 116 139.5H546C549.314 139.5 552 142.186 552 145.5V336.5C552 339.814 549.314 342.5 546 342.5H116C112.686 342.5 110 339.814 110 336.5V145.5Z" fill="#37455B" />
    <path d="M238.304 108C240.613 104 246.387 104 248.696 108L281.605 165C283.915 169 281.028 174 276.409 174H210.591C205.972 174 203.085 169 205.395 165L238.304 108Z" fill="#37455B" />
  </g>
  <path d="M133.141 167.57C133.141 167.336 133.104 167.128 133.031 166.945C132.964 166.763 132.841 166.596 132.664 166.445C132.487 166.294 132.237 166.148 131.914 166.008C131.596 165.862 131.19 165.714 130.695 165.562C130.154 165.396 129.654 165.211 129.195 165.008C128.742 164.799 128.346 164.56 128.008 164.289C127.669 164.013 127.406 163.698 127.219 163.344C127.031 162.984 126.938 162.57 126.938 162.102C126.938 161.638 127.034 161.216 127.227 160.836C127.424 160.456 127.703 160.128 128.062 159.852C128.427 159.57 128.857 159.354 129.352 159.203C129.846 159.047 130.393 158.969 130.992 158.969C131.836 158.969 132.562 159.125 133.172 159.438C133.786 159.75 134.258 160.169 134.586 160.695C134.919 161.221 135.086 161.802 135.086 162.438H133.141C133.141 162.062 133.06 161.732 132.898 161.445C132.742 161.154 132.503 160.924 132.18 160.758C131.862 160.591 131.458 160.508 130.969 160.508C130.505 160.508 130.12 160.578 129.812 160.719C129.505 160.859 129.276 161.049 129.125 161.289C128.974 161.529 128.898 161.799 128.898 162.102C128.898 162.315 128.948 162.51 129.047 162.688C129.146 162.859 129.297 163.021 129.5 163.172C129.703 163.318 129.958 163.456 130.266 163.586C130.573 163.716 130.935 163.841 131.352 163.961C131.982 164.148 132.531 164.357 133 164.586C133.469 164.81 133.859 165.065 134.172 165.352C134.484 165.638 134.719 165.964 134.875 166.328C135.031 166.688 135.109 167.096 135.109 167.555C135.109 168.034 135.013 168.466 134.82 168.852C134.628 169.232 134.352 169.557 133.992 169.828C133.638 170.094 133.211 170.299 132.711 170.445C132.216 170.586 131.664 170.656 131.055 170.656C130.508 170.656 129.969 170.583 129.438 170.438C128.911 170.292 128.432 170.07 128 169.773C127.568 169.471 127.224 169.096 126.969 168.648C126.714 168.195 126.586 167.667 126.586 167.062H128.547C128.547 167.432 128.609 167.747 128.734 168.008C128.865 168.268 129.044 168.482 129.273 168.648C129.503 168.81 129.768 168.93 130.07 169.008C130.378 169.086 130.706 169.125 131.055 169.125C131.513 169.125 131.896 169.06 132.203 168.93C132.516 168.799 132.75 168.617 132.906 168.383C133.062 168.148 133.141 167.878 133.141 167.57ZM140.109 169.156C140.417 169.156 140.693 169.096 140.938 168.977C141.188 168.852 141.388 168.68 141.539 168.461C141.695 168.242 141.781 167.99 141.797 167.703H143.57C143.56 168.25 143.398 168.747 143.086 169.195C142.773 169.643 142.359 170 141.844 170.266C141.328 170.526 140.758 170.656 140.133 170.656C139.487 170.656 138.924 170.547 138.445 170.328C137.966 170.104 137.568 169.797 137.25 169.406C136.932 169.016 136.693 168.565 136.531 168.055C136.375 167.544 136.297 166.997 136.297 166.414V166.141C136.297 165.557 136.375 165.01 136.531 164.5C136.693 163.984 136.932 163.531 137.25 163.141C137.568 162.75 137.966 162.445 138.445 162.227C138.924 162.003 139.484 161.891 140.125 161.891C140.802 161.891 141.396 162.026 141.906 162.297C142.417 162.562 142.818 162.935 143.109 163.414C143.406 163.888 143.56 164.44 143.57 165.07H141.797C141.781 164.758 141.703 164.477 141.562 164.227C141.427 163.971 141.234 163.768 140.984 163.617C140.74 163.466 140.445 163.391 140.102 163.391C139.721 163.391 139.406 163.469 139.156 163.625C138.906 163.776 138.711 163.984 138.57 164.25C138.43 164.51 138.328 164.805 138.266 165.133C138.208 165.456 138.18 165.792 138.18 166.141V166.414C138.18 166.763 138.208 167.102 138.266 167.43C138.323 167.758 138.422 168.052 138.562 168.312C138.708 168.568 138.906 168.773 139.156 168.93C139.406 169.081 139.724 169.156 140.109 169.156ZM146.906 163.656V170.5H145.023V162.047H146.82L146.906 163.656ZM149.492 161.992L149.477 163.742C149.362 163.721 149.237 163.706 149.102 163.695C148.971 163.685 148.841 163.68 148.711 163.68C148.388 163.68 148.104 163.727 147.859 163.82C147.615 163.909 147.409 164.039 147.242 164.211C147.081 164.378 146.956 164.581 146.867 164.82C146.779 165.06 146.727 165.328 146.711 165.625L146.281 165.656C146.281 165.125 146.333 164.633 146.438 164.18C146.542 163.727 146.698 163.328 146.906 162.984C147.12 162.641 147.385 162.372 147.703 162.18C148.026 161.987 148.398 161.891 148.82 161.891C148.935 161.891 149.057 161.901 149.188 161.922C149.323 161.943 149.424 161.966 149.492 161.992ZM154.242 170.656C153.617 170.656 153.052 170.555 152.547 170.352C152.047 170.143 151.62 169.854 151.266 169.484C150.917 169.115 150.648 168.68 150.461 168.18C150.273 167.68 150.18 167.141 150.18 166.562V166.25C150.18 165.589 150.276 164.99 150.469 164.453C150.661 163.917 150.93 163.458 151.273 163.078C151.617 162.693 152.023 162.398 152.492 162.195C152.961 161.992 153.469 161.891 154.016 161.891C154.62 161.891 155.148 161.992 155.602 162.195C156.055 162.398 156.43 162.685 156.727 163.055C157.029 163.419 157.253 163.854 157.398 164.359C157.549 164.865 157.625 165.422 157.625 166.031V166.836H151.094V165.484H155.766V165.336C155.755 164.997 155.688 164.68 155.562 164.383C155.443 164.086 155.258 163.846 155.008 163.664C154.758 163.482 154.424 163.391 154.008 163.391C153.695 163.391 153.417 163.458 153.172 163.594C152.932 163.724 152.732 163.914 152.57 164.164C152.409 164.414 152.284 164.716 152.195 165.07C152.112 165.419 152.07 165.812 152.07 166.25V166.562C152.07 166.932 152.12 167.276 152.219 167.594C152.323 167.906 152.474 168.18 152.672 168.414C152.87 168.648 153.109 168.833 153.391 168.969C153.672 169.099 153.992 169.164 154.352 169.164C154.805 169.164 155.208 169.073 155.562 168.891C155.917 168.708 156.224 168.451 156.484 168.117L157.477 169.078C157.294 169.344 157.057 169.599 156.766 169.844C156.474 170.083 156.117 170.279 155.695 170.43C155.279 170.581 154.794 170.656 154.242 170.656ZM162.82 170.656C162.195 170.656 161.63 170.555 161.125 170.352C160.625 170.143 160.198 169.854 159.844 169.484C159.495 169.115 159.227 168.68 159.039 168.18C158.852 167.68 158.758 167.141 158.758 166.562V166.25C158.758 165.589 158.854 164.99 159.047 164.453C159.24 163.917 159.508 163.458 159.852 163.078C160.195 162.693 160.602 162.398 161.07 162.195C161.539 161.992 162.047 161.891 162.594 161.891C163.198 161.891 163.727 161.992 164.18 162.195C164.633 162.398 165.008 162.685 165.305 163.055C165.607 163.419 165.831 163.854 165.977 164.359C166.128 164.865 166.203 165.422 166.203 166.031V166.836H159.672V165.484H164.344V165.336C164.333 164.997 164.266 164.68 164.141 164.383C164.021 164.086 163.836 163.846 163.586 163.664C163.336 163.482 163.003 163.391 162.586 163.391C162.273 163.391 161.995 163.458 161.75 163.594C161.51 163.724 161.31 163.914 161.148 164.164C160.987 164.414 160.862 164.716 160.773 165.07C160.69 165.419 160.648 165.812 160.648 166.25V166.562C160.648 166.932 160.698 167.276 160.797 167.594C160.901 167.906 161.052 168.18 161.25 168.414C161.448 168.648 161.688 168.833 161.969 168.969C162.25 169.099 162.57 169.164 162.93 169.164C163.383 169.164 163.786 169.073 164.141 168.891C164.495 168.708 164.802 168.451 165.062 168.117L166.055 169.078C165.872 169.344 165.635 169.599 165.344 169.844C165.052 170.083 164.695 170.279 164.273 170.43C163.857 170.581 163.372 170.656 162.82 170.656ZM169.539 163.852V170.5H167.656V162.047H169.43L169.539 163.852ZM169.203 165.961L168.594 165.953C168.599 165.354 168.682 164.805 168.844 164.305C169.01 163.805 169.24 163.375 169.531 163.016C169.828 162.656 170.182 162.38 170.594 162.188C171.005 161.99 171.464 161.891 171.969 161.891C172.375 161.891 172.742 161.948 173.07 162.062C173.404 162.172 173.688 162.352 173.922 162.602C174.161 162.852 174.344 163.177 174.469 163.578C174.594 163.974 174.656 164.461 174.656 165.039V170.5H172.766V165.031C172.766 164.625 172.706 164.305 172.586 164.07C172.471 163.831 172.302 163.661 172.078 163.562C171.859 163.458 171.586 163.406 171.258 163.406C170.935 163.406 170.646 163.474 170.391 163.609C170.135 163.745 169.919 163.93 169.742 164.164C169.57 164.398 169.438 164.669 169.344 164.977C169.25 165.284 169.203 165.612 169.203 165.961ZM181.32 168.211C181.32 168.023 181.273 167.854 181.18 167.703C181.086 167.547 180.906 167.406 180.641 167.281C180.38 167.156 179.995 167.042 179.484 166.938C179.036 166.839 178.625 166.721 178.25 166.586C177.88 166.445 177.562 166.276 177.297 166.078C177.031 165.88 176.826 165.646 176.68 165.375C176.534 165.104 176.461 164.792 176.461 164.438C176.461 164.094 176.536 163.768 176.688 163.461C176.839 163.154 177.055 162.883 177.336 162.648C177.617 162.414 177.958 162.229 178.359 162.094C178.766 161.958 179.219 161.891 179.719 161.891C180.427 161.891 181.034 162.01 181.539 162.25C182.049 162.484 182.44 162.805 182.711 163.211C182.982 163.612 183.117 164.065 183.117 164.57H181.234C181.234 164.346 181.177 164.138 181.062 163.945C180.953 163.747 180.786 163.589 180.562 163.469C180.339 163.344 180.057 163.281 179.719 163.281C179.396 163.281 179.128 163.333 178.914 163.438C178.706 163.536 178.549 163.667 178.445 163.828C178.346 163.99 178.297 164.167 178.297 164.359C178.297 164.5 178.323 164.628 178.375 164.742C178.432 164.852 178.526 164.953 178.656 165.047C178.786 165.135 178.964 165.219 179.188 165.297C179.417 165.375 179.703 165.451 180.047 165.523C180.693 165.659 181.247 165.833 181.711 166.047C182.18 166.255 182.539 166.526 182.789 166.859C183.039 167.188 183.164 167.604 183.164 168.109C183.164 168.484 183.083 168.828 182.922 169.141C182.766 169.448 182.536 169.716 182.234 169.945C181.932 170.169 181.57 170.344 181.148 170.469C180.732 170.594 180.263 170.656 179.742 170.656C178.977 170.656 178.328 170.521 177.797 170.25C177.266 169.974 176.862 169.622 176.586 169.195C176.315 168.763 176.18 168.315 176.18 167.852H178C178.021 168.201 178.117 168.479 178.289 168.688C178.466 168.891 178.685 169.039 178.945 169.133C179.211 169.221 179.484 169.266 179.766 169.266C180.104 169.266 180.388 169.221 180.617 169.133C180.846 169.039 181.021 168.914 181.141 168.758C181.26 168.596 181.32 168.414 181.32 168.211ZM186.672 158.5V170.5H184.797V158.5H186.672ZM186.344 165.961L185.734 165.953C185.74 165.37 185.82 164.831 185.977 164.336C186.138 163.841 186.362 163.411 186.648 163.047C186.94 162.677 187.289 162.393 187.695 162.195C188.102 161.992 188.552 161.891 189.047 161.891C189.464 161.891 189.839 161.948 190.172 162.062C190.51 162.177 190.802 162.362 191.047 162.617C191.292 162.867 191.477 163.195 191.602 163.602C191.732 164.003 191.797 164.492 191.797 165.07V170.5H189.906V165.055C189.906 164.648 189.846 164.326 189.727 164.086C189.612 163.846 189.443 163.674 189.219 163.57C188.995 163.461 188.721 163.406 188.398 163.406C188.06 163.406 187.76 163.474 187.5 163.609C187.245 163.745 187.031 163.93 186.859 164.164C186.688 164.398 186.557 164.669 186.469 164.977C186.385 165.284 186.344 165.612 186.344 165.961ZM193.344 166.367V166.188C193.344 165.578 193.432 165.013 193.609 164.492C193.786 163.966 194.042 163.51 194.375 163.125C194.714 162.734 195.125 162.432 195.609 162.219C196.099 162 196.651 161.891 197.266 161.891C197.885 161.891 198.438 162 198.922 162.219C199.411 162.432 199.826 162.734 200.164 163.125C200.503 163.51 200.76 163.966 200.938 164.492C201.115 165.013 201.203 165.578 201.203 166.188V166.367C201.203 166.977 201.115 167.542 200.938 168.062C200.76 168.583 200.503 169.039 200.164 169.43C199.826 169.815 199.414 170.117 198.93 170.336C198.445 170.549 197.896 170.656 197.281 170.656C196.661 170.656 196.107 170.549 195.617 170.336C195.133 170.117 194.721 169.815 194.383 169.43C194.044 169.039 193.786 168.583 193.609 168.062C193.432 167.542 193.344 166.977 193.344 166.367ZM195.227 166.188V166.367C195.227 166.747 195.266 167.107 195.344 167.445C195.422 167.784 195.544 168.081 195.711 168.336C195.878 168.591 196.091 168.792 196.352 168.938C196.612 169.083 196.922 169.156 197.281 169.156C197.63 169.156 197.932 169.083 198.188 168.938C198.448 168.792 198.661 168.591 198.828 168.336C198.995 168.081 199.117 167.784 199.195 167.445C199.279 167.107 199.32 166.747 199.32 166.367V166.188C199.32 165.812 199.279 165.458 199.195 165.125C199.117 164.786 198.992 164.487 198.82 164.227C198.654 163.966 198.44 163.763 198.18 163.617C197.924 163.466 197.62 163.391 197.266 163.391C196.911 163.391 196.604 163.466 196.344 163.617C196.089 163.763 195.878 163.966 195.711 164.227C195.544 164.487 195.422 164.786 195.344 165.125C195.266 165.458 195.227 165.812 195.227 166.188ZM206.656 162.047V163.422H201.891V162.047H206.656ZM203.266 159.977H205.148V168.164C205.148 168.424 205.185 168.625 205.258 168.766C205.336 168.901 205.443 168.992 205.578 169.039C205.714 169.086 205.872 169.109 206.055 169.109C206.185 169.109 206.31 169.102 206.43 169.086C206.549 169.07 206.646 169.055 206.719 169.039L206.727 170.477C206.57 170.523 206.388 170.565 206.18 170.602C205.977 170.638 205.742 170.656 205.477 170.656C205.044 170.656 204.661 170.581 204.328 170.43C203.995 170.273 203.734 170.021 203.547 169.672C203.359 169.323 203.266 168.859 203.266 168.281V159.977ZM212.852 168.211C212.852 168.023 212.805 167.854 212.711 167.703C212.617 167.547 212.438 167.406 212.172 167.281C211.911 167.156 211.526 167.042 211.016 166.938C210.568 166.839 210.156 166.721 209.781 166.586C209.411 166.445 209.094 166.276 208.828 166.078C208.562 165.88 208.357 165.646 208.211 165.375C208.065 165.104 207.992 164.792 207.992 164.438C207.992 164.094 208.068 163.768 208.219 163.461C208.37 163.154 208.586 162.883 208.867 162.648C209.148 162.414 209.49 162.229 209.891 162.094C210.297 161.958 210.75 161.891 211.25 161.891C211.958 161.891 212.565 162.01 213.07 162.25C213.581 162.484 213.971 162.805 214.242 163.211C214.513 163.612 214.648 164.065 214.648 164.57H212.766C212.766 164.346 212.708 164.138 212.594 163.945C212.484 163.747 212.318 163.589 212.094 163.469C211.87 163.344 211.589 163.281 211.25 163.281C210.927 163.281 210.659 163.333 210.445 163.438C210.237 163.536 210.081 163.667 209.977 163.828C209.878 163.99 209.828 164.167 209.828 164.359C209.828 164.5 209.854 164.628 209.906 164.742C209.964 164.852 210.057 164.953 210.188 165.047C210.318 165.135 210.495 165.219 210.719 165.297C210.948 165.375 211.234 165.451 211.578 165.523C212.224 165.659 212.779 165.833 213.242 166.047C213.711 166.255 214.07 166.526 214.32 166.859C214.57 167.188 214.695 167.604 214.695 168.109C214.695 168.484 214.615 168.828 214.453 169.141C214.297 169.448 214.068 169.716 213.766 169.945C213.464 170.169 213.102 170.344 212.68 170.469C212.263 170.594 211.794 170.656 211.273 170.656C210.508 170.656 209.859 170.521 209.328 170.25C208.797 169.974 208.393 169.622 208.117 169.195C207.846 168.763 207.711 168.315 207.711 167.852H209.531C209.552 168.201 209.648 168.479 209.82 168.688C209.997 168.891 210.216 169.039 210.477 169.133C210.742 169.221 211.016 169.266 211.297 169.266C211.635 169.266 211.919 169.221 212.148 169.133C212.378 169.039 212.552 168.914 212.672 168.758C212.792 168.596 212.852 168.414 212.852 168.211Z" fill="#D1D3D8" />
  <rect x="402.5" y="191" width="133" height="133" rx="9.5" fill="#37455B" stroke="#D1D3D8" stroke-dasharray="2 2" />
  <path fill-rule="evenodd" clip-rule="evenodd" d="M470.8 239.5H467.2V255.7H451V259.3H467.2V275.5H470.8V259.3H487V255.7H470.8V239.5Z" fill="#D1D3D8" />
  <rect x="264.5" y="191" width="133" height="133" rx="9.5" fill="#283A53" stroke="#D1D3D8" />
  <path d="M126.5 200.5C126.5 195.253 130.753 191 136 191H250C255.247 191 259.5 195.253 259.5 200.5V314.5C259.5 319.747 255.247 324 250 324H136C130.753 324 126.5 319.747 126.5 314.5V200.5Z" fill="#283A53" stroke="#283A53" />
  <rect x="175.796" y="215.197" width="32.7615" height="2.54811" rx="1.27406" fill="#687384" />
  <rect x="175.796" y="270.891" width="32.7615" height="2.54811" rx="1.27406" fill="#687384" />
  <rect width="23.6611" height="22.205" rx="8" transform="matrix(-1 0 0 1 199.457 243.954)" fill="#687384" />
  <rect width="24.0251" height="22.205" rx="8" transform="matrix(-1 0 0 1 226.394 243.954)" fill="#687384" />
  <rect width="23.6611" height="22.205" rx="8" transform="matrix(-1 0 0 1 252.967 243.954)" fill="#687384" />
  <rect x="175.796" y="220.293" width="77.1714" height="2.54811" rx="1.27406" fill="#687384" />
  <rect x="175.796" y="224.661" width="77.1714" height="2.54811" rx="1.27406" fill="#687384" />
  <rect x="175.796" y="229.393" width="77.1714" height="2.54811" rx="1.27406" fill="#687384" />
  <rect x="175.796" y="234.49" width="77.1714" height="2.54811" rx="1.27406" fill="#687384" />
  <rect x="175.796" y="275.987" width="77.1714" height="2.54811" rx="1.27406" fill="#687384" />
  <rect x="175.796" y="281.084" width="77.1714" height="2.54811" rx="1.27406" fill="#687384" />
  <rect x="175.796" y="285.452" width="77.1714" height="2.54811" rx="1.27406" fill="#687384" />
  <rect x="135.392" y="215.197" width="22.933" height="2.54811" rx="1.27406" fill="#687384" />
  <rect x="135.392" y="219.929" width="22.933" height="2.54811" rx="1.27406" fill="#687384" />
  <rect x="135.391" y="224.661" width="28.7573" height="2.54811" rx="1.27406" fill="#687384" />
  <rect x="135.391" y="229.393" width="28.7573" height="2.54811" rx="1.27406" fill="#687384" />
  <path d="M135.391 235.4C135.391 234.696 135.961 234.126 136.665 234.126H150.862C151.565 234.126 152.136 234.696 152.136 235.4C152.136 236.103 151.565 236.674 150.862 236.674H136.665C135.961 236.674 135.391 236.103 135.391 235.4Z" fill="#687384" />
  <path d="M198.164 204.534L197.824 205.556L196.648 208.273H196.137L194.962 205.556L194.621 204.534H194.587L194.689 206.126V209.542H194.093V203.58H194.689L196.393 207.566L198.096 203.58H198.692V209.542H198.096V206.126L198.198 204.534H198.164Z" fill="#A7ADB7" />
  <path d="M202.323 210.351V208.946L201.378 209.542H200.96C200.625 209.542 200.37 209.454 200.194 209.278C200.024 209.102 199.938 208.849 199.938 208.52V205.973L199.853 205.3L200.432 205.223L200.535 206.007V208.537C200.535 208.843 200.682 208.997 200.978 208.997H201.225L202.323 208.281V205.283H202.92V210.351C202.92 211.118 202.528 211.501 201.744 211.501H200.909L200.058 211.271L200.211 210.751L200.909 210.956H201.804C201.991 210.956 202.125 210.908 202.204 210.811C202.284 210.715 202.323 210.561 202.323 210.351Z" fill="#A7ADB7" />
  <path d="M206.018 205.522L206.869 205.283H207.84C208.175 205.283 208.428 205.374 208.598 205.556C208.775 205.732 208.863 205.982 208.863 206.305V208.869L208.956 209.542L208.369 209.61L208.275 208.852L207.321 209.542H206.903C206.574 209.542 206.321 209.454 206.145 209.278C205.969 209.096 205.881 208.843 205.881 208.52V208C205.881 207.677 205.969 207.427 206.145 207.251C206.321 207.069 206.574 206.978 206.903 206.978H208.266V206.297C208.266 205.99 208.119 205.837 207.823 205.837H206.869L206.171 206.041L206.018 205.522ZM206.921 208.997H207.168L208.266 208.196V207.506H206.921C206.625 207.506 206.478 207.66 206.478 207.966V208.537C206.478 208.843 206.625 208.997 206.921 208.997Z" fill="#A7ADB7" />
  <path d="M210.07 205.982L209.985 205.3L210.564 205.223L210.64 205.828L211.603 205.283H212.029C212.358 205.283 212.611 205.374 212.787 205.556C212.963 205.732 213.051 205.982 213.051 206.305V208.52C213.051 208.843 212.963 209.096 212.787 209.278C212.611 209.454 212.358 209.542 212.029 209.542H211.62L210.666 209.355V211.501H210.07V205.982ZM211.739 205.837L210.666 206.433V208.809L211.637 208.997H212.012C212.307 208.997 212.455 208.843 212.455 208.537V206.297C212.455 205.99 212.307 205.837 212.012 205.837H211.739Z" fill="#A7ADB7" />
  <path d="M214.179 205.982L214.094 205.3L214.673 205.223L214.749 205.828L215.712 205.283H216.138C216.467 205.283 216.72 205.374 216.896 205.556C217.072 205.732 217.16 205.982 217.16 206.305V208.52C217.16 208.843 217.072 209.096 216.896 209.278C216.72 209.454 216.467 209.542 216.138 209.542H215.729L214.775 209.355V211.501H214.179V205.982ZM215.848 205.837L214.775 206.433V208.809L215.746 208.997H216.121C216.416 208.997 216.564 208.843 216.564 208.537V206.297C216.564 205.99 216.416 205.837 216.121 205.837H215.848Z" fill="#A7ADB7" />
  <path d="M188.434 207.676C186.648 209.448 183.617 210.588 181.543 209.242C176.875 206.213 175.078 208.617 176.864 206.845C178.65 205.072 181.286 204.833 182.751 206.31C185.915 209.315 190.22 205.904 188.434 207.676Z" fill="#A7ADB7" />
  <path d="M189.274 205.06C188.277 206.05 186.556 206.658 185.347 205.855C182.626 204.048 181.632 205.4 182.629 204.41C183.626 203.42 185.134 203.322 185.996 204.191C187.855 205.962 190.271 204.07 189.274 205.06Z" fill="#A7ADB7" />
  <rect x="132.5" y="210.5" width="35" height="32" rx="4.5" stroke="#AA4365" />
  <defs>
    <filter id="filter0_d_739_1524" x="0" y="0" width="524" height="215" filterUnits="userSpaceOnUse" color-interpolation-filters="sRGB">
      <feFlood flood-opacity="0" result="BackgroundImageFix" />
      <feColorMatrix in="SourceAlpha" type="matrix" values="0 0 0 0 0 0 0 0 0 0 0 0 0 0 0 0 0 0 127 0" result="hardAlpha" />
      <feOffset />
      <feGaussianBlur stdDeviation="5" />
      <feComposite in2="hardAlpha" operator="out" />
      <feColorMatrix type="matrix" values="0 0 0 0 0 0 0 0 0 0 0 0 0 0 0 0 0 0 0.25 0" />
      <feBlend mode="normal" in2="BackgroundImageFix" result="effect1_dropShadow_739_1524" />
      <feBlend mode="normal" in="SourceGraphic" in2="effect1_dropShadow_739_1524" result="shape" />
    </filter>
    <filter id="filter1_d_739_1524" x="100" y="95" width="462" height="257.5" filterUnits="userSpaceOnUse" color-interpolation-filters="sRGB">
      <feFlood flood-opacity="0" result="BackgroundImageFix" />
      <feColorMatrix in="SourceAlpha" type="matrix" values="0 0 0 0 0 0 0 0 0 0 0 0 0 0 0 0 0 0 127 0" result="hardAlpha" />
      <feOffset />
      <feGaussianBlur stdDeviation="5" />
      <feComposite in2="hardAlpha" operator="out" />
      <feColorMatrix type="matrix" values="0 0 0 0 0 0 0 0 0 0 0 0 0 0 0 0 0 0 0.25 0" />
      <feBlend mode="normal" in2="BackgroundImageFix" result="effect1_dropShadow_739_1524" />
      <feBlend mode="normal" in="SourceGraphic" in2="effect1_dropShadow_739_1524" result="shape" />
    </filter>
    <linearGradient id="paint0_linear_739_1524" x1="296.914" y1="73" x2="296.914" y2="93" gradientUnits="userSpaceOnUse">
      <stop stop-color="white" />
      <stop offset="1" stop-color="white" stop-opacity="0" />
    </linearGradient>
    <clipPath id="clip0_739_1524">
      <rect width="19.8671" height="20" fill="white" transform="translate(286.981 24)" />
    </clipPath>
    <clipPath id="clip1_739_1524">
      <rect width="19.8671" height="20" fill="white" transform="translate(286.981 122)" />
    </clipPath>
  </defs>
</svg>
  