<svg width="558" height="350" viewBox="0 0 558 350" fill="none" xmlns="http://www.w3.org/2000/svg">
  <g filter="url(#filter0_d_737_4464)">
    <path d="M10 31C10 27.6863 12.6863 25 16 25H371C374.314 25 377 27.6863 377 31V334C377 337.314 374.314 340 371 340H16C12.6863 340 10 337.314 10 334V31Z" fill="#37455B" />
  </g>
  <rect x="34.5" y="176.5" width="318" height="133" rx="9.5" fill="#37455B" stroke="#687384" stroke-dasharray="2 2" />
  <path d="M60.5 220C60.5 218.067 62.067 216.5 64 216.5H136C137.933 216.5 139.5 218.067 139.5 220V265C139.5 266.933 137.933 268.5 136 268.5H64C62.067 268.5 60.5 266.933 60.5 265V220Z" fill="#24344B" stroke="#B5B9BE" />
  <path d="M120.5 241.5C120.5 253.098 111.098 262.5 99.5 262.5C87.902 262.5 78.5 253.098 78.5 241.5C78.5 229.902 87.902 220.5 99.5 220.5C111.098 220.5 120.5 229.902 120.5 241.5Z" fill="white" />
  <path d="M120.5 241.5C120.5 253.098 111.098 262.5 99.5 262.5C87.902 262.5 78.5 253.098 78.5 241.5C78.5 229.902 87.902 220.5 99.5 220.5C111.098 220.5 120.5 229.902 120.5 241.5Z" fill="white" />
  <path d="M120.5 241.5C120.5 253.098 111.098 262.5 99.5 262.5C87.902 262.5 78.5 253.098 78.5 241.5C78.5 229.902 87.902 220.5 99.5 220.5C111.098 220.5 120.5 229.902 120.5 241.5Z" fill="#D1D3D8" />
  <path d="M120.5 241.5C120.5 253.098 111.098 262.5 99.5 262.5C87.902 262.5 78.5 253.098 78.5 241.5C78.5 229.902 87.902 220.5 99.5 220.5C111.098 220.5 120.5 229.902 120.5 241.5Z" stroke="#546074" />
  <circle cx="100" cy="241" r="11" fill="#24344B" />
  <circle cx="102" cy="235" r="2.5" stroke="#B5B9BE" />
  <circle cx="128" cy="226" r="4" fill="#546074" />
  <rect x="67" y="212" width="11" height="3" fill="#B5B9BE" />
  <path d="M137.17 215.575L133.411 223.894L133.261 224.225L133.53 224.47L140.28 230.615L131.207 229.611L130.846 229.571L130.696 229.902L126.937 238.221L125.088 229.282L125.021 228.955L124.693 228.892L103.791 224.892L123.301 223.425L123.868 223.382L123.753 222.825L121.904 213.885L128.655 220.031L128.923 220.276L129.239 220.096L137.17 215.575Z" fill="#FFB7C8" stroke="#DB5E83" />
  <rect x="34.875" y="77" width="97.337" height="7" rx="3.5" fill="#687384" />
  <rect x="32.7109" y="48" width="67.0544" height="13" rx="6.5" fill="#687384" />
  <rect x="34.875" y="91" width="229.283" height="7" rx="3.5" fill="#687384" />
  <rect x="34.875" y="118" width="97.337" height="7" rx="3.5" fill="#687384" />
  <rect x="34.875" y="158" width="97.337" height="7" rx="3.5" fill="#687384" />
  <rect x="34.875" y="132" width="229.283" height="7" rx="3.5" fill="#687384" />
  <g filter="url(#filter1_d_737_4464)">
    <path d="M182 16C182 12.6863 184.686 10 188 10H542C545.314 10 548 12.6863 548 16V274C548 277.314 545.314 280 542 280H188C184.686 280 182 277.314 182 274V16Z" fill="#283A53" />
    <path d="M155.712 227.617C150.585 226.265 149.604 219.415 154.144 216.677L212.507 181.486C216.506 179.075 221.605 181.955 221.605 186.624V237.212C221.605 241.147 217.88 244.017 214.075 243.013L155.712 227.617Z" fill="#283A53" />
  </g>
  <rect x="312" y="61" width="90" height="7" rx="3.5" fill="#687384" />
  <rect x="312" y="214" width="90" height="7" rx="3.5" fill="#687384" />
  <rect width="65" height="61" rx="8" transform="matrix(-1 0 0 1 377 140)" fill="#687384" />
  <rect width="66" height="61" rx="8" transform="matrix(-1 0 0 1 451 140)" fill="#687384" />
  <rect width="65" height="61" rx="8" transform="matrix(-1 0 0 1 524 140)" fill="#687384" />
  <rect x="312" y="75" width="212" height="7" rx="3.5" fill="#687384" />
  <rect x="312" y="87" width="212" height="7" rx="3.5" fill="#687384" />
  <rect x="312" y="100" width="212" height="7" rx="3.5" fill="#687384" />
  <rect x="312" y="114" width="212" height="7" rx="3.5" fill="#687384" />
  <rect x="312" y="228" width="212" height="7" rx="3.5" fill="#687384" />
  <rect x="312" y="242" width="212" height="7" rx="3.5" fill="#687384" />
  <rect x="312" y="254" width="212" height="7" rx="3.5" fill="#687384" />
  <rect x="201" y="61" width="63" height="7" rx="3.5" fill="#687384" />
  <rect x="201" y="74" width="63" height="7" rx="3.5" fill="#687384" />
  <rect x="201" y="87" width="79" height="7" rx="3.5" fill="#687384" />
  <rect x="201" y="100" width="79" height="7" rx="3.5" fill="#687384" />
  <path d="M201 116.5C201 114.567 202.567 113 204.5 113H243.5C245.433 113 247 114.567 247 116.5C247 118.433 245.433 120 243.5 120H204.5C202.567 120 201 118.433 201 116.5Z" fill="#687384" />
  <path d="M373.448 31.7073L372.512 34.5152L369.283 41.9795H367.879L364.65 34.5152L363.714 31.7073H363.62L363.901 36.0829V45.466H362.263V29.0866H363.901L368.581 40.0374L373.261 29.0866H374.899V45.466H373.261V36.0829L373.542 31.7073H373.448Z" fill="#B5B9BE" />
  <path d="M384.874 47.6889V43.8281L382.276 45.466H381.13C380.209 45.466 379.507 45.2242 379.024 44.7406C378.556 44.257 378.322 43.5629 378.322 42.6581V35.6618L378.088 33.8132L379.679 33.6026L379.96 35.7554V42.7049C379.96 43.5473 380.365 43.9685 381.176 43.9685H381.855L384.874 42.0029V33.7664H386.511V47.6889C386.511 49.7948 385.435 50.8478 383.282 50.8478H380.989L378.649 50.216L379.071 48.7887L380.989 49.3503H383.446C383.961 49.3503 384.328 49.2177 384.546 48.9525C384.764 48.6873 384.874 48.2661 384.874 47.6889Z" fill="#B5B9BE" />
  <path d="M395.022 34.4216L397.362 33.7664H400.03C400.95 33.7664 401.644 34.016 402.112 34.5152C402.596 34.9988 402.838 35.6852 402.838 36.5743V43.6175L403.095 45.466L401.48 45.6532L401.223 43.5707L398.602 45.466H397.456C396.551 45.466 395.857 45.2242 395.373 44.7406C394.89 44.2414 394.648 43.5473 394.648 42.6581V41.2308C394.648 40.3416 394.89 39.6552 395.373 39.1716C395.857 38.6724 396.551 38.4229 397.456 38.4229H401.2V36.5509C401.2 35.7086 400.794 35.2874 399.983 35.2874H397.362L395.444 35.849L395.022 34.4216ZM397.503 43.9685H398.181L401.2 41.7689V39.8736H397.503C396.691 39.8736 396.286 40.2948 396.286 41.1372V42.7049C396.286 43.5473 396.691 43.9685 397.503 43.9685Z" fill="#B5B9BE" />
  <path d="M406.154 35.6852L405.92 33.8132L407.511 33.6026L407.722 35.264L410.366 33.7664H411.536C412.44 33.7664 413.135 34.016 413.618 34.5152C414.102 34.9988 414.344 35.6852 414.344 36.5743V42.6581C414.344 43.5473 414.102 44.2414 413.618 44.7406C413.135 45.2242 412.44 45.466 411.536 45.466H410.413L407.792 44.9512V50.8478H406.154V35.6852ZM410.74 35.2874L407.792 36.9253V43.4537L410.459 43.9685H411.489C412.3 43.9685 412.706 43.5473 412.706 42.7049V36.5509C412.706 35.7086 412.3 35.2874 411.489 35.2874H410.74Z" fill="#B5B9BE" />
  <path d="M417.442 35.6852L417.208 33.8132L418.799 33.6026L419.01 35.264L421.654 33.7664H422.824C423.729 33.7664 424.423 34.016 424.906 34.5152C425.39 34.9988 425.632 35.6852 425.632 36.5743V42.6581C425.632 43.5473 425.39 44.2414 424.906 44.7406C424.423 45.2242 423.729 45.466 422.824 45.466H421.701L419.08 44.9512V50.8478H417.442V35.6852ZM422.028 35.2874L419.08 36.9253V43.4537L421.748 43.9685H422.777C423.588 43.9685 423.994 43.5473 423.994 42.7049V36.5509C423.994 35.7086 423.588 35.2874 422.777 35.2874H422.028Z" fill="#B5B9BE" />
  <path d="M346.717 40.3395C341.812 45.2082 333.484 48.3398 327.788 44.6425C314.964 36.3194 310.028 42.9243 314.933 38.0557C319.839 33.1871 327.08 32.5293 331.106 36.5864C339.798 44.8412 351.623 35.4709 346.717 40.3395Z" fill="#B5B9BE" />
  <path d="M349.024 33.1529C346.285 35.8718 341.558 37.5433 338.237 35.3377C330.761 30.3726 328.029 34.0868 330.769 31.3679C333.509 28.649 337.65 28.38 340.019 30.767C345.125 35.6312 351.764 30.434 349.024 33.1529Z" fill="#B5B9BE" />
  <rect x="193" y="47" width="96" height="89" rx="4" stroke="#DF5C83" stroke-width="2" />
  <defs>
    <filter id="filter0_d_737_4464" x="0" y="15" width="387" height="335" filterUnits="userSpaceOnUse" color-interpolation-filters="sRGB">
      <feFlood flood-opacity="0" result="BackgroundImageFix" />
      <feColorMatrix in="SourceAlpha" type="matrix" values="0 0 0 0 0 0 0 0 0 0 0 0 0 0 0 0 0 0 127 0" result="hardAlpha" />
      <feOffset />
      <feGaussianBlur stdDeviation="5" />
      <feComposite in2="hardAlpha" operator="out" />
      <feColorMatrix type="matrix" values="0 0 0 0 0 0 0 0 0 0 0 0 0 0 0 0 0 0 0.25 0" />
      <feBlend mode="normal" in2="BackgroundImageFix" result="effect1_dropShadow_737_4464" />
      <feBlend mode="normal" in="SourceGraphic" in2="effect1_dropShadow_737_4464" result="shape" />
    </filter>
    <filter id="filter1_d_737_4464" x="141.24" y="0" width="416.76" height="290" filterUnits="userSpaceOnUse" color-interpolation-filters="sRGB">
      <feFlood flood-opacity="0" result="BackgroundImageFix" />
      <feColorMatrix in="SourceAlpha" type="matrix" values="0 0 0 0 0 0 0 0 0 0 0 0 0 0 0 0 0 0 127 0" result="hardAlpha" />
      <feOffset />
      <feGaussianBlur stdDeviation="5" />
      <feComposite in2="hardAlpha" operator="out" />
      <feColorMatrix type="matrix" values="0 0 0 0 0 0 0 0 0 0 0 0 0 0 0 0 0 0 0.25 0" />
      <feBlend mode="normal" in2="BackgroundImageFix" result="effect1_dropShadow_737_4464" />
      <feBlend mode="normal" in="SourceGraphic" in2="effect1_dropShadow_737_4464" result="shape" />
    </filter>
  </defs>
</svg>
  