<svg width="558" height="350" viewBox="0 0 558 350" fill="none" xmlns="http://www.w3.org/2000/svg">
    <g filter="url(#filter0_d_546_10307)">
        <path d="M10 31C10 27.6863 12.6863 25 16 25H371C374.314 25 377 27.6863 377 31V334C377 337.314 374.314 340 371 340H16C12.6863 340 10 337.314 10 334V31Z" fill="white"/>
    </g>
    <rect x="34.5" y="176.5" width="318" height="133" rx="9.5" fill="white" stroke="#C4C4C4" stroke-dasharray="2 2"/>
    <rect x="60.5" y="216.5" width="79" height="52" rx="3.5" fill="#EBEDF0" stroke="#5E6A7C"/>
    <circle cx="99.5" cy="241.5" r="21" fill="white"/>
    <circle cx="99.5" cy="241.5" r="21" fill="white"/>
    <circle cx="99.5" cy="241.5" r="21" fill="white"/>
    <circle cx="99.5" cy="241.5" r="21" stroke="#546074"/>
    <circle cx="100" cy="241" r="11" fill="#546074"/>
    <circle cx="102" cy="235" r="2.5" stroke="white"/>
    <circle cx="128" cy="226" r="4" fill="#546074"/>
    <rect x="67" y="212" width="11" height="3" fill="#546074"/>
    <path d="M137.17 215.575L133.411 223.894L133.261 224.225L133.53 224.47L140.28 230.615L131.207 229.611L130.846 229.571L130.696 229.902L126.937 238.221L125.088 229.282L125.021 228.955L124.693 228.892L103.791 224.892L123.301 223.425L123.868 223.382L123.753 222.825L121.904 213.885L128.655 220.031L128.923 220.276L129.239 220.096L137.17 215.575Z" fill="#FFB7C8" stroke="#DB5E83"/>
    <rect x="34.875" y="77" width="97.337" height="7" rx="3.5" fill="#EBEDF0"/>
    <rect x="32.7109" y="48" width="67.0544" height="13" rx="6.5" fill="#EBEDF0"/>
    <rect x="34.875" y="91" width="229.283" height="7" rx="3.5" fill="#EBEDF0"/>
    <rect x="34.875" y="118" width="97.337" height="7" rx="3.5" fill="#EBEDF0"/>
    <rect x="34.875" y="158" width="97.337" height="7" rx="3.5" fill="#EBEDF0"/>
    <rect x="34.875" y="132" width="229.283" height="7" rx="3.5" fill="#EBEDF0"/>
    <g filter="url(#filter1_d_546_10307)">
        <path d="M182 16C182 12.6863 184.686 10 188 10H542C545.314 10 548 12.6863 548 16V274C548 277.314 545.314 280 542 280H188C184.686 280 182 277.314 182 274V16Z" fill="white"/>
        <path d="M155.712 227.617C150.585 226.265 149.604 219.415 154.144 216.677L212.507 181.486C216.506 179.075 221.605 181.955 221.605 186.624V237.212C221.605 241.147 217.88 244.017 214.075 243.013L155.712 227.617Z" fill="white"/>
    </g>
    <rect x="312" y="61" width="90" height="7" rx="3.5" fill="#EBEDF0"/>
    <rect x="312" y="214" width="90" height="7" rx="3.5" fill="#EBEDF0"/>
    <rect width="65" height="61" rx="8" transform="matrix(-1 0 0 1 377 140)" fill="#EBEDF0"/>
    <rect width="66" height="61" rx="8" transform="matrix(-1 0 0 1 451 140)" fill="#EBEDF0"/>
    <rect width="65" height="61" rx="8" transform="matrix(-1 0 0 1 524 140)" fill="#EBEDF0"/>
    <rect x="312" y="75" width="212" height="7" rx="3.5" fill="#EBEDF0"/>
    <rect x="312" y="87" width="212" height="7" rx="3.5" fill="#EBEDF0"/>
    <rect x="312" y="100" width="212" height="7" rx="3.5" fill="#EBEDF0"/>
    <rect x="312" y="114" width="212" height="7" rx="3.5" fill="#EBEDF0"/>
    <rect x="312" y="228" width="212" height="7" rx="3.5" fill="#EBEDF0"/>
    <rect x="312" y="242" width="212" height="7" rx="3.5" fill="#EBEDF0"/>
    <rect x="312" y="254" width="212" height="7" rx="3.5" fill="#EBEDF0"/>
    <rect x="201" y="61" width="63" height="7" rx="3.5" fill="#EBEDF0"/>
    <rect x="201" y="74" width="63" height="7" rx="3.5" fill="#EBEDF0"/>
    <rect x="201" y="87" width="79" height="7" rx="3.5" fill="#EBEDF0"/>
    <rect x="201" y="100" width="79" height="7" rx="3.5" fill="#EBEDF0"/>
    <path d="M201 116.5C201 114.567 202.567 113 204.5 113H243.5C245.433 113 247 114.567 247 116.5C247 118.433 245.433 120 243.5 120H204.5C202.567 120 201 118.433 201 116.5Z" fill="#EBEDF0"/>
    <path d="M373.447 31.7074L372.512 34.5153L369.282 41.9796H367.878L364.649 34.5153L363.713 31.7074H363.62L363.901 36.083V45.4661H362.263V29.0867H363.901L368.58 40.0375L373.26 29.0867H374.898V45.4661H373.26V36.083L373.541 31.7074H373.447Z" fill="#546074"/>
    <path d="M384.873 47.689V43.8281L382.276 45.4661H381.129C380.209 45.4661 379.507 45.2243 379.023 44.7407C378.555 44.2571 378.321 43.5629 378.321 42.6582V35.6618L378.087 33.8133L379.678 33.6027L379.959 35.7554V42.705C379.959 43.5473 380.365 43.9685 381.176 43.9685H381.855L384.873 42.003V33.7665H386.511V47.689C386.511 49.7949 385.435 50.8479 383.282 50.8479H380.989L378.649 50.2161L379.07 48.7887L380.989 49.3503H383.446C383.96 49.3503 384.327 49.2177 384.545 48.9525C384.764 48.6873 384.873 48.2662 384.873 47.689Z" fill="#546074"/>
    <path d="M395.022 34.4217L397.362 33.7665H400.029C400.95 33.7665 401.644 34.0161 402.112 34.5153C402.595 34.9988 402.837 35.6852 402.837 36.5744V43.6175L403.095 45.4661L401.48 45.6532L401.223 43.5707L398.602 45.4661H397.455C396.551 45.4661 395.856 45.2243 395.373 44.7407C394.889 44.2415 394.647 43.5473 394.647 42.6582V41.2308C394.647 40.3416 394.889 39.6553 395.373 39.1717C395.856 38.6725 396.551 38.4229 397.455 38.4229H401.199V36.551C401.199 35.7086 400.794 35.2874 399.982 35.2874H397.362L395.443 35.849L395.022 34.4217ZM397.502 43.9685H398.181L401.199 41.769V39.8737H397.502C396.691 39.8737 396.285 40.2949 396.285 41.1372V42.705C396.285 43.5473 396.691 43.9685 397.502 43.9685Z" fill="#546074"/>
    <path d="M406.153 35.6852L405.919 33.8133L407.511 33.6027L407.721 35.264L410.365 33.7665H411.535C412.44 33.7665 413.134 34.0161 413.618 34.5153C414.101 34.9988 414.343 35.6852 414.343 36.5744V42.6582C414.343 43.5473 414.101 44.2415 413.618 44.7407C413.134 45.2243 412.44 45.4661 411.535 45.4661H410.412L407.791 44.9513V50.8479H406.153V35.6852ZM410.74 35.2874L407.791 36.9254V43.4537L410.459 43.9685H411.488C412.3 43.9685 412.705 43.5473 412.705 42.705V36.551C412.705 35.7086 412.3 35.2874 411.488 35.2874H410.74Z" fill="#546074"/>
    <path d="M417.442 35.6852L417.208 33.8133L418.799 33.6027L419.009 35.264L421.654 33.7665H422.823C423.728 33.7665 424.422 34.0161 424.906 34.5153C425.39 34.9988 425.631 35.6852 425.631 36.5744V42.6582C425.631 43.5473 425.39 44.2415 424.906 44.7407C424.422 45.2243 423.728 45.4661 422.823 45.4661H421.7L419.08 44.9513V50.8479H417.442V35.6852ZM422.028 35.2874L419.08 36.9254V43.4537L421.747 43.9685H422.777C423.588 43.9685 423.993 43.5473 423.993 42.705V36.551C423.993 35.7086 423.588 35.2874 422.777 35.2874H422.028Z" fill="#546074"/>
    <path d="M346.717 40.3395C341.811 45.2082 333.484 48.3398 327.787 44.6425C314.964 36.3194 310.027 42.9243 314.933 38.0557C319.838 33.1871 327.079 32.5293 331.106 36.5864C339.797 44.8412 351.622 35.4709 346.717 40.3395Z" fill="#546074"/>
    <path d="M349.024 33.1529C346.285 35.8718 341.558 37.5434 338.237 35.3378C330.76 30.3727 328.029 34.0869 330.769 31.368C333.508 28.6491 337.65 28.3801 340.019 30.7671C345.125 35.6313 351.764 30.4341 349.024 33.1529Z" fill="#546074"/>
    <rect x="193" y="47" width="96" height="89" rx="4" stroke="#AA4365" stroke-width="2"/>
    <defs>
        <filter id="filter0_d_546_10307" x="0" y="15" width="387" height="335" filterUnits="userSpaceOnUse" color-interpolation-filters="sRGB">
            <feFlood flood-opacity="0" result="BackgroundImageFix"/>
            <feColorMatrix in="SourceAlpha" type="matrix" values="0 0 0 0 0 0 0 0 0 0 0 0 0 0 0 0 0 0 127 0" result="hardAlpha"/>
            <feOffset/>
            <feGaussianBlur stdDeviation="5"/>
            <feComposite in2="hardAlpha" operator="out"/>
            <feColorMatrix type="matrix" values="0 0 0 0 0 0 0 0 0 0 0 0 0 0 0 0 0 0 0.25 0"/>
            <feBlend mode="normal" in2="BackgroundImageFix" result="effect1_dropShadow_546_10307"/>
            <feBlend mode="normal" in="SourceGraphic" in2="effect1_dropShadow_546_10307" result="shape"/>
        </filter>
        <filter id="filter1_d_546_10307" x="141.24" y="0" width="416.76" height="290" filterUnits="userSpaceOnUse" color-interpolation-filters="sRGB">
            <feFlood flood-opacity="0" result="BackgroundImageFix"/>
            <feColorMatrix in="SourceAlpha" type="matrix" values="0 0 0 0 0 0 0 0 0 0 0 0 0 0 0 0 0 0 127 0" result="hardAlpha"/>
            <feOffset/>
            <feGaussianBlur stdDeviation="5"/>
            <feComposite in2="hardAlpha" operator="out"/>
            <feColorMatrix type="matrix" values="0 0 0 0 0 0 0 0 0 0 0 0 0 0 0 0 0 0 0.25 0"/>
            <feBlend mode="normal" in2="BackgroundImageFix" result="effect1_dropShadow_546_10307"/>
            <feBlend mode="normal" in="SourceGraphic" in2="effect1_dropShadow_546_10307" result="shape"/>
        </filter>
    </defs>
</svg>
