<svg width="562" height="353" viewBox="0 0 562 353" fill="none" xmlns="http://www.w3.org/2000/svg">
    <g filter="url(#filter0_d_546_10357)">
        <path d="M10 16C10 12.6863 12.6863 10 16 10H508C511.314 10 514 12.6863 514 16V199C514 202.314 511.314 205 508 205H16C12.6863 205 10 202.314 10 199V16Z" fill="white"/>
    </g>
    <rect x="25.3604" y="126" width="94.08" height="7" rx="3.5" fill="#D1D3D8"/>
    <path d="M10 16C10 12.6863 12.6863 10 16 10H266.32V108H10V16Z" fill="#F3F3F3"/>
    <path d="M316.731 86.0977C317.032 86.0977 317.31 86.0361 317.565 85.9131C317.821 85.79 318.03 85.6214 318.194 85.4072C318.358 85.1885 318.452 84.9401 318.475 84.6621H319.678C319.655 85.0996 319.507 85.5075 319.233 85.8857C318.965 86.2594 318.611 86.5625 318.174 86.7949C317.736 87.0228 317.256 87.1367 316.731 87.1367C316.175 87.1367 315.69 87.0387 315.275 86.8428C314.865 86.6468 314.523 86.3779 314.25 86.0361C313.981 85.6943 313.778 85.3024 313.642 84.8604C313.509 84.4137 313.443 83.9421 313.443 83.4453V83.1582C313.443 82.6615 313.509 82.1921 313.642 81.75C313.778 81.3034 313.981 80.9092 314.25 80.5674C314.523 80.2256 314.865 79.9567 315.275 79.7607C315.69 79.5648 316.175 79.4668 316.731 79.4668C317.31 79.4668 317.816 79.5853 318.249 79.8223C318.682 80.0547 319.021 80.3737 319.268 80.7793C319.518 81.1803 319.655 81.6361 319.678 82.1465H318.475C318.452 81.8411 318.365 81.5654 318.215 81.3193C318.069 81.0732 317.868 80.8773 317.613 80.7314C317.363 80.5811 317.069 80.5059 316.731 80.5059C316.344 80.5059 316.018 80.5833 315.754 80.7383C315.494 80.8887 315.287 81.0938 315.132 81.3535C314.981 81.6087 314.872 81.8936 314.804 82.208C314.74 82.5179 314.708 82.8346 314.708 83.1582V83.4453C314.708 83.7689 314.74 84.0879 314.804 84.4023C314.868 84.7168 314.975 85.0016 315.125 85.2568C315.28 85.512 315.487 85.7171 315.747 85.8721C316.011 86.0225 316.34 86.0977 316.731 86.0977ZM326.609 85.9609V87H321.229V85.9609H326.609ZM326.411 80.499L321.517 87H320.744V86.0703L325.604 79.6035H326.411V80.499ZM325.851 79.6035V80.6494H320.799V79.6035H325.851Z" fill="#808080"/>
    <mask id="mask0_546_10357" style="mask-type:alpha" maskUnits="userSpaceOnUse" x="287" y="73" width="20" height="20">
        <path d="M306.099 83C306.099 88.2619 301.972 92.5 296.914 92.5C291.856 92.5 287.729 88.2619 287.729 83C287.729 77.7381 291.856 73.5 296.914 73.5C301.972 73.5 306.099 77.7381 306.099 83Z" fill="#C4C4C4"/>
        <path d="M306.099 83C306.099 88.2619 301.972 92.5 296.914 92.5C291.856 92.5 287.729 88.2619 287.729 83C287.729 77.7381 291.856 73.5 296.914 73.5C301.972 73.5 306.099 77.7381 306.099 83Z" stroke="black"/>
        <path d="M306.099 83C306.099 88.2619 301.972 92.5 296.914 92.5C291.856 92.5 287.729 88.2619 287.729 83C287.729 77.7381 291.856 73.5 296.914 73.5C301.972 73.5 306.099 77.7381 306.099 83Z" stroke="url(#paint0_linear_546_10357)"/>
    </mask>
    <g mask="url(#mask0_546_10357)">
        <path fill-rule="evenodd" clip-rule="evenodd" d="M284 73H309.827V93H284V73Z" fill="#E80000"/>
        <path fill-rule="evenodd" clip-rule="evenodd" d="M284 73H309.827V83H284V73Z" fill="#F0F0F0"/>
        <path fill-rule="evenodd" clip-rule="evenodd" d="M284 73L296.875 83L284 93V73Z" fill="#00006F"/>
    </g>
    <rect x="341.201" y="37" width="106.92" height="7" rx="3.5" fill="#D1D3D8"/>
    <rect x="341.201" y="24" width="158.4" height="7" rx="3.5" fill="#D1D3D8"/>
    <rect x="25.3604" y="30" width="129.6" height="7" rx="3.5" fill="#D1D3D8"/>
    <path d="M266.32 10H271.12V58H266.32V10Z" fill="#069C51"/>
    <path d="M244.24 89.2C245.937 89.2 247.312 87.7674 247.312 86C247.312 84.2327 245.937 82.8 244.24 82.8C242.543 82.8 241.168 84.2327 241.168 86C241.168 87.7674 242.543 89.2 244.24 89.2Z" fill="#808080"/>
    <path d="M241.36 76L239.603 78H236.56C235.504 78 234.64 78.9 234.64 80V92C234.64 93.1 235.504 94 236.56 94H251.92C252.976 94 253.84 93.1 253.84 92V80C253.84 78.9 252.976 78 251.92 78H248.876L247.12 76H241.36ZM244.24 91C241.59 91 239.44 88.76 239.44 86C239.44 83.24 241.59 81 244.24 81C246.889 81 249.04 83.24 249.04 86C249.04 88.76 246.889 91 244.24 91Z" fill="#808080"/>
    <path d="M201.04 90.2501V94.0001H204.64L215.258 82.9401L211.658 79.1901L201.04 90.2501ZM218.042 80.0401C218.416 79.6501 218.416 79.0201 218.042 78.6301L215.795 76.2901C215.421 75.9001 214.816 75.9001 214.442 76.2901L212.685 78.1201L216.285 81.8701L218.042 80.0401Z" fill="#808080"/>
    <path d="M316.842 38.1367C316.327 38.1367 315.86 38.0501 315.44 37.877C315.026 37.6992 314.668 37.4508 314.367 37.1318C314.071 36.8128 313.843 36.4346 313.684 35.9971C313.524 35.5596 313.444 35.0811 313.444 34.5615V34.2744C313.444 33.6729 313.533 33.1374 313.711 32.668C313.889 32.194 314.13 31.793 314.436 31.4648C314.741 31.1367 315.087 30.8883 315.475 30.7197C315.862 30.5511 316.263 30.4668 316.678 30.4668C317.206 30.4668 317.662 30.5579 318.045 30.7402C318.432 30.9225 318.749 31.1777 318.995 31.5059C319.241 31.8294 319.424 32.2122 319.542 32.6543C319.66 33.0918 319.72 33.5703 319.72 34.0898V34.6572H314.196V33.625H318.455V33.5293C318.437 33.2012 318.368 32.8822 318.25 32.5723C318.136 32.2624 317.954 32.0072 317.703 31.8066C317.452 31.6061 317.111 31.5059 316.678 31.5059C316.391 31.5059 316.126 31.5674 315.885 31.6904C315.643 31.8089 315.436 31.9867 315.263 32.2236C315.09 32.4606 314.955 32.75 314.859 33.0918C314.764 33.4336 314.716 33.8278 314.716 34.2744V34.5615C314.716 34.9124 314.764 35.2428 314.859 35.5527C314.96 35.8581 315.103 36.127 315.29 36.3594C315.481 36.5918 315.712 36.7741 315.98 36.9062C316.254 37.0384 316.564 37.1045 316.91 37.1045C317.357 37.1045 317.735 37.0133 318.045 36.8311C318.355 36.6488 318.626 36.4049 318.858 36.0996L319.624 36.708C319.465 36.9495 319.262 37.1797 319.016 37.3984C318.77 37.6172 318.466 37.7949 318.106 37.9316C317.751 38.0684 317.329 38.1367 316.842 38.1367ZM322.461 32.1826V38H321.196V30.6035H322.393L322.461 32.1826ZM322.16 34.0215L321.634 34.001C321.638 33.4951 321.714 33.028 321.859 32.5996C322.005 32.1667 322.21 31.7907 322.475 31.4717C322.739 31.1527 323.053 30.9066 323.418 30.7334C323.787 30.5557 324.195 30.4668 324.642 30.4668C325.006 30.4668 325.334 30.5169 325.626 30.6172C325.918 30.7129 326.166 30.8678 326.371 31.082C326.581 31.2962 326.74 31.5742 326.85 31.916C326.959 32.2533 327.014 32.6657 327.014 33.1533V38H325.742V33.1396C325.742 32.7523 325.685 32.4424 325.571 32.21C325.457 31.973 325.291 31.8021 325.072 31.6973C324.854 31.5879 324.585 31.5332 324.266 31.5332C323.951 31.5332 323.664 31.5993 323.404 31.7314C323.149 31.8636 322.928 32.0459 322.741 32.2783C322.559 32.5107 322.415 32.7773 322.311 33.0781C322.21 33.3743 322.16 33.6888 322.16 34.0215Z" fill="#808080"/>
    <g clip-path="url(#clip0_546_10357)">
        <path d="M296.914 44C302.4 44 306.848 39.5228 306.848 34C306.848 28.4772 302.4 24 296.914 24C291.428 24 286.98 28.4772 286.98 34C286.98 39.5228 291.428 44 296.914 44Z" fill="#F0F0F0"/>
        <path d="M296.481 34.0001H306.847C306.847 33.0975 306.727 32.2231 306.505 31.3914H296.481V34.0001Z" fill="#D80027"/>
        <path d="M296.481 28.7827H305.389C304.781 27.7838 304.003 26.9008 303.097 26.174H296.481V28.7827Z" fill="#D80027"/>
        <path d="M296.914 44.0001C299.252 44.0001 301.401 43.1866 303.097 41.8262H290.73C292.427 43.1866 294.576 44.0001 296.914 44.0001Z" fill="#D80027"/>
        <path d="M288.438 39.2175H305.389C305.877 38.4156 306.256 37.539 306.505 36.6088H287.322C287.571 37.539 287.95 38.4156 288.438 39.2175Z" fill="#D80027"/>
        <path d="M291.582 25.5616H292.487L291.645 26.1775L291.967 27.1739L291.125 26.5581L290.283 27.1739L290.561 26.3131C289.819 26.9348 289.169 27.6631 288.634 28.4747H288.924L288.388 28.8667C288.305 29.0069 288.224 29.1494 288.148 29.2939L288.404 30.087L287.926 29.7377C287.807 29.9909 287.699 30.2497 287.601 30.514L287.883 31.3877H288.924L288.082 32.0036L288.404 33L287.562 32.3842L287.057 32.7531C287.007 33.1616 286.98 33.5777 286.98 34H296.914C296.914 28.4772 296.914 27.8261 296.914 24C294.952 24 293.122 24.573 291.582 25.5616ZM291.967 33L291.125 32.3842L290.283 33L290.604 32.0036L289.762 31.3877H290.803L291.125 30.3913L291.446 31.3877H292.487L291.645 32.0036L291.967 33ZM291.645 29.0905L291.967 30.087L291.125 29.4711L290.283 30.087L290.604 29.0905L289.762 28.4747H290.803L291.125 27.4782L291.446 28.4747H292.487L291.645 29.0905ZM295.53 33L294.688 32.3842L293.846 33L294.167 32.0036L293.325 31.3877H294.366L294.688 30.3913L295.009 31.3877H296.05L295.208 32.0036L295.53 33ZM295.208 29.0905L295.53 30.087L294.688 29.4711L293.846 30.087L294.167 29.0905L293.325 28.4747H294.366L294.688 27.4782L295.009 28.4747H296.05L295.208 29.0905ZM295.208 26.1775L295.53 27.1739L294.688 26.5581L293.846 27.1739L294.167 26.1775L293.325 25.5616H294.366L294.688 24.5652L295.009 25.5616H296.05L295.208 26.1775Z" fill="#0052B4"/>
    </g>
    <rect x="341.201" y="86" width="59.4" height="7" rx="3.5" fill="#D1D3D8"/>
    <rect x="341.201" y="73" width="141.768" height="7" rx="3.5" fill="#D1D3D8"/>
    <path d="M266.32 59H271.12V107H266.32V59Z" fill="#FFCE00"/>
    <rect x="341.201" y="135" width="106.92" height="7" rx="3.5" fill="#D1D3D8"/>
    <rect x="341.201" y="122" width="158.4" height="7" rx="3.5" fill="#D1D3D8"/>
    <path d="M266.32 108H271.12V156H266.32V108Z" fill="#069C51"/>
    <path d="M316.842 136.137C316.327 136.137 315.86 136.05 315.44 135.877C315.026 135.699 314.668 135.451 314.367 135.132C314.071 134.813 313.843 134.435 313.684 133.997C313.524 133.56 313.444 133.081 313.444 132.562V132.274C313.444 131.673 313.533 131.137 313.711 130.668C313.889 130.194 314.13 129.793 314.436 129.465C314.741 129.137 315.087 128.888 315.475 128.72C315.862 128.551 316.263 128.467 316.678 128.467C317.206 128.467 317.662 128.558 318.045 128.74C318.432 128.923 318.749 129.178 318.995 129.506C319.241 129.829 319.424 130.212 319.542 130.654C319.66 131.092 319.72 131.57 319.72 132.09V132.657H314.196V131.625H318.455V131.529C318.437 131.201 318.368 130.882 318.25 130.572C318.136 130.262 317.954 130.007 317.703 129.807C317.452 129.606 317.111 129.506 316.678 129.506C316.391 129.506 316.126 129.567 315.885 129.69C315.643 129.809 315.436 129.987 315.263 130.224C315.09 130.461 314.955 130.75 314.859 131.092C314.764 131.434 314.716 131.828 314.716 132.274V132.562C314.716 132.912 314.764 133.243 314.859 133.553C314.96 133.858 315.103 134.127 315.29 134.359C315.481 134.592 315.712 134.774 315.98 134.906C316.254 135.038 316.564 135.104 316.91 135.104C317.357 135.104 317.735 135.013 318.045 134.831C318.355 134.649 318.626 134.405 318.858 134.1L319.624 134.708C319.465 134.95 319.262 135.18 319.016 135.398C318.77 135.617 318.466 135.795 318.106 135.932C317.751 136.068 317.329 136.137 316.842 136.137ZM322.461 130.183V136H321.196V128.604H322.393L322.461 130.183ZM322.16 132.021L321.634 132.001C321.638 131.495 321.714 131.028 321.859 130.6C322.005 130.167 322.21 129.791 322.475 129.472C322.739 129.153 323.053 128.907 323.418 128.733C323.787 128.556 324.195 128.467 324.642 128.467C325.006 128.467 325.334 128.517 325.626 128.617C325.918 128.713 326.166 128.868 326.371 129.082C326.581 129.296 326.74 129.574 326.85 129.916C326.959 130.253 327.014 130.666 327.014 131.153V136H325.742V131.14C325.742 130.752 325.685 130.442 325.571 130.21C325.457 129.973 325.291 129.802 325.072 129.697C324.854 129.588 324.585 129.533 324.266 129.533C323.951 129.533 323.664 129.599 323.404 129.731C323.149 129.864 322.928 130.046 322.741 130.278C322.559 130.511 322.415 130.777 322.311 131.078C322.21 131.374 322.16 131.689 322.16 132.021Z" fill="#808080"/>
    <g clip-path="url(#clip1_546_10357)">
        <path d="M296.914 142C302.4 142 306.848 137.523 306.848 132C306.848 126.477 302.4 122 296.914 122C291.428 122 286.98 126.477 286.98 132C286.98 137.523 291.428 142 296.914 142Z" fill="#F0F0F0"/>
        <path d="M296.481 132H306.847C306.847 131.097 306.727 130.223 306.505 129.391H296.481V132Z" fill="#D80027"/>
        <path d="M296.481 126.783H305.389C304.781 125.784 304.003 124.901 303.097 124.174H296.481V126.783Z" fill="#D80027"/>
        <path d="M296.914 142C299.252 142 301.401 141.187 303.097 139.826H290.73C292.427 141.187 294.576 142 296.914 142Z" fill="#D80027"/>
        <path d="M288.438 137.217H305.389C305.877 136.416 306.256 135.539 306.505 134.609H287.322C287.571 135.539 287.95 136.416 288.438 137.217Z" fill="#D80027"/>
        <path d="M291.582 123.562H292.487L291.645 124.177L291.967 125.174L291.125 124.558L290.283 125.174L290.561 124.313C289.819 124.935 289.169 125.663 288.634 126.475H288.924L288.388 126.867C288.305 127.007 288.224 127.149 288.148 127.294L288.404 128.087L287.926 127.738C287.807 127.991 287.699 128.25 287.601 128.514L287.883 129.388H288.924L288.082 130.004L288.404 131L287.562 130.384L287.057 130.753C287.007 131.162 286.98 131.578 286.98 132H296.914C296.914 126.477 296.914 125.826 296.914 122C294.952 122 293.122 122.573 291.582 123.562ZM291.967 131L291.125 130.384L290.283 131L290.604 130.004L289.762 129.388H290.803L291.125 128.391L291.446 129.388H292.487L291.645 130.004L291.967 131ZM291.645 127.091L291.967 128.087L291.125 127.471L290.283 128.087L290.604 127.091L289.762 126.475H290.803L291.125 125.478L291.446 126.475H292.487L291.645 127.091ZM295.53 131L294.688 130.384L293.846 131L294.167 130.004L293.325 129.388H294.366L294.688 128.391L295.009 129.388H296.05L295.208 130.004L295.53 131ZM295.208 127.091L295.53 128.087L294.688 127.471L293.846 128.087L294.167 127.091L293.325 126.475H294.366L294.688 125.478L295.009 126.475H296.05L295.208 127.091ZM295.208 124.177L295.53 125.174L294.688 124.558L293.846 125.174L294.167 124.177L293.325 123.562H294.366L294.688 122.565L295.009 123.562H296.05L295.208 124.177Z" fill="#0052B4"/>
    </g>
    <line x1="10" y1="107.5" x2="514" y2="107.5" stroke="#DCDCDC"/>
    <rect x="25.8613" y="46.5" width="51.8" height="23" rx="11.5" fill="white" stroke="#808080"/>
    <path d="M53.4219 54.6035V55.5742H49.4229V54.6035H53.4219ZM50.7764 52.8057H52.041V60.168C52.041 60.4186 52.0798 60.6077 52.1572 60.7354C52.2347 60.863 52.335 60.9473 52.458 60.9883C52.5811 61.0293 52.7132 61.0498 52.8545 61.0498C52.9593 61.0498 53.0687 61.0407 53.1826 61.0225C53.3011 60.9997 53.39 60.9814 53.4492 60.9678L53.4561 62C53.3558 62.0319 53.2236 62.0615 53.0596 62.0889C52.9001 62.1208 52.7064 62.1367 52.4785 62.1367C52.1686 62.1367 51.8838 62.0752 51.624 61.9521C51.3643 61.8291 51.1569 61.624 51.002 61.3369C50.8516 61.0452 50.7764 60.6533 50.7764 60.1611V52.8057ZM59.2666 60.7354V56.9277C59.2666 56.6361 59.2074 56.3831 59.0889 56.1689C58.9749 55.9502 58.8018 55.7816 58.5693 55.6631C58.3369 55.5446 58.0498 55.4854 57.708 55.4854C57.389 55.4854 57.1087 55.54 56.8672 55.6494C56.6302 55.7588 56.4434 55.9023 56.3066 56.0801C56.1745 56.2578 56.1084 56.4492 56.1084 56.6543H54.8438C54.8438 56.39 54.9121 56.1279 55.0488 55.8682C55.1855 55.6084 55.3815 55.3737 55.6367 55.1641C55.8965 54.9499 56.2064 54.7812 56.5664 54.6582C56.931 54.5306 57.3366 54.4668 57.7832 54.4668C58.321 54.4668 58.7949 54.5579 59.2051 54.7402C59.6198 54.9225 59.9434 55.1982 60.1758 55.5674C60.4128 55.932 60.5312 56.39 60.5312 56.9414V60.3867C60.5312 60.6328 60.5518 60.8949 60.5928 61.1729C60.6383 61.4508 60.7044 61.6901 60.791 61.8906V62H59.4717C59.4079 61.8542 59.3577 61.6605 59.3213 61.4189C59.2848 61.1729 59.2666 60.945 59.2666 60.7354ZM59.4854 57.5156L59.499 58.4043H58.2207C57.8607 58.4043 57.5394 58.4339 57.2568 58.4932C56.9743 58.5479 56.7373 58.6322 56.5459 58.7461C56.3545 58.86 56.2087 59.0036 56.1084 59.1768C56.0081 59.3454 55.958 59.5436 55.958 59.7715C55.958 60.0039 56.0104 60.2158 56.1152 60.4072C56.2201 60.5986 56.3773 60.7513 56.5869 60.8652C56.8011 60.9746 57.0632 61.0293 57.373 61.0293C57.7604 61.0293 58.1022 60.9473 58.3984 60.7832C58.6947 60.6191 58.9294 60.4186 59.1025 60.1816C59.2803 59.9447 59.376 59.7145 59.3896 59.4912L59.9297 60.0996C59.8978 60.291 59.8112 60.5029 59.6699 60.7354C59.5286 60.9678 59.3395 61.1911 59.1025 61.4053C58.8701 61.6149 58.5921 61.7904 58.2686 61.9316C57.9495 62.0684 57.5895 62.1367 57.1885 62.1367C56.6872 62.1367 56.2474 62.0387 55.8691 61.8428C55.4954 61.6468 55.2038 61.3848 54.9941 61.0566C54.7891 60.724 54.6865 60.3525 54.6865 59.9424C54.6865 59.5459 54.764 59.1973 54.9189 58.8965C55.0739 58.5911 55.2972 58.3382 55.5889 58.1377C55.8805 57.9326 56.2314 57.7777 56.6416 57.6729C57.0518 57.568 57.5098 57.5156 58.0156 57.5156H59.4854ZM67.3125 54.6035H68.4609V61.8428C68.4609 62.4945 68.3288 63.0505 68.0645 63.5107C67.8001 63.971 67.431 64.3197 66.957 64.5566C66.4876 64.7982 65.9453 64.9189 65.3301 64.9189C65.0749 64.9189 64.7741 64.8779 64.4277 64.7959C64.0859 64.7184 63.7487 64.584 63.416 64.3926C63.0879 64.2057 62.8122 63.9528 62.5889 63.6338L63.252 62.8818C63.5618 63.2555 63.8854 63.5153 64.2227 63.6611C64.5645 63.807 64.9017 63.8799 65.2344 63.8799C65.6354 63.8799 65.9818 63.8047 66.2734 63.6543C66.5651 63.5039 66.7907 63.2806 66.9502 62.9844C67.1143 62.6927 67.1963 62.3327 67.1963 61.9043V56.2305L67.3125 54.6035ZM62.2197 58.3838V58.2402C62.2197 57.6751 62.2858 57.1624 62.418 56.7021C62.5547 56.2373 62.7484 55.8385 62.999 55.5059C63.2542 55.1732 63.5618 54.918 63.9219 54.7402C64.2819 54.5579 64.6875 54.4668 65.1387 54.4668C65.6035 54.4668 66.0091 54.5488 66.3555 54.7129C66.7064 54.8724 67.0026 55.1071 67.2441 55.417C67.4902 55.7223 67.6839 56.0915 67.8252 56.5244C67.9665 56.9574 68.0645 57.4473 68.1191 57.9941V58.623C68.069 59.1654 67.971 59.653 67.8252 60.0859C67.6839 60.5189 67.4902 60.888 67.2441 61.1934C67.0026 61.4987 66.7064 61.7334 66.3555 61.8975C66.0046 62.057 65.5944 62.1367 65.125 62.1367C64.6829 62.1367 64.2819 62.0433 63.9219 61.8564C63.5664 61.6696 63.2611 61.4076 63.0059 61.0703C62.7507 60.7331 62.5547 60.3366 62.418 59.8809C62.2858 59.4206 62.2197 58.9215 62.2197 58.3838ZM63.4844 58.2402V58.3838C63.4844 58.7529 63.5208 59.0993 63.5938 59.4229C63.6712 59.7464 63.7874 60.0312 63.9424 60.2773C64.1019 60.5234 64.3047 60.7171 64.5508 60.8584C64.7969 60.9951 65.0908 61.0635 65.4326 61.0635C65.8519 61.0635 66.1982 60.9746 66.4717 60.7969C66.7451 60.6191 66.9616 60.3844 67.1211 60.0928C67.2852 59.8011 67.4128 59.4844 67.5039 59.1426V57.4951C67.4538 57.2445 67.3763 57.0029 67.2715 56.7705C67.1712 56.5335 67.0391 56.3239 66.875 56.1416C66.7155 55.9548 66.5173 55.8066 66.2803 55.6973C66.0433 55.5879 65.7653 55.5332 65.4463 55.5332C65.0999 55.5332 64.8014 55.6061 64.5508 55.752C64.3047 55.8932 64.1019 56.0892 63.9424 56.3398C63.7874 56.5859 63.6712 56.873 63.5938 57.2012C63.5208 57.5247 63.4844 57.8711 63.4844 58.2402Z" fill="#808080"/>
    <path fill-rule="evenodd" clip-rule="evenodd" d="M40.72 53H38.8V57H34.96V59H38.8V63H40.72V59H44.56V57H40.72V53Z" fill="#808080"/>
    <g filter="url(#filter1_d_546_10357)">
        <path d="M110 145.5C110 142.186 112.686 139.5 116 139.5H546C549.314 139.5 552 142.186 552 145.5V336.5C552 339.814 549.314 342.5 546 342.5H116C112.686 342.5 110 339.814 110 336.5V145.5Z" fill="white"/>
        <path d="M238.304 108C240.613 104 246.387 104 248.696 108L281.605 165C283.915 169 281.028 174 276.409 174H210.591C205.972 174 203.085 169 205.395 165L238.304 108Z" fill="white"/>
    </g>
    <path d="M133.141 167.57C133.141 167.336 133.104 167.128 133.031 166.945C132.964 166.763 132.841 166.596 132.664 166.445C132.487 166.294 132.237 166.148 131.914 166.008C131.596 165.862 131.19 165.714 130.695 165.562C130.154 165.396 129.654 165.211 129.195 165.008C128.742 164.799 128.346 164.56 128.008 164.289C127.669 164.013 127.406 163.698 127.219 163.344C127.031 162.984 126.938 162.57 126.938 162.102C126.938 161.638 127.034 161.216 127.227 160.836C127.424 160.456 127.703 160.128 128.062 159.852C128.427 159.57 128.857 159.354 129.352 159.203C129.846 159.047 130.393 158.969 130.992 158.969C131.836 158.969 132.562 159.125 133.172 159.438C133.786 159.75 134.258 160.169 134.586 160.695C134.919 161.221 135.086 161.802 135.086 162.438H133.141C133.141 162.062 133.06 161.732 132.898 161.445C132.742 161.154 132.503 160.924 132.18 160.758C131.862 160.591 131.458 160.508 130.969 160.508C130.505 160.508 130.12 160.578 129.812 160.719C129.505 160.859 129.276 161.049 129.125 161.289C128.974 161.529 128.898 161.799 128.898 162.102C128.898 162.315 128.948 162.51 129.047 162.688C129.146 162.859 129.297 163.021 129.5 163.172C129.703 163.318 129.958 163.456 130.266 163.586C130.573 163.716 130.935 163.841 131.352 163.961C131.982 164.148 132.531 164.357 133 164.586C133.469 164.81 133.859 165.065 134.172 165.352C134.484 165.638 134.719 165.964 134.875 166.328C135.031 166.688 135.109 167.096 135.109 167.555C135.109 168.034 135.013 168.466 134.82 168.852C134.628 169.232 134.352 169.557 133.992 169.828C133.638 170.094 133.211 170.299 132.711 170.445C132.216 170.586 131.664 170.656 131.055 170.656C130.508 170.656 129.969 170.583 129.438 170.438C128.911 170.292 128.432 170.07 128 169.773C127.568 169.471 127.224 169.096 126.969 168.648C126.714 168.195 126.586 167.667 126.586 167.062H128.547C128.547 167.432 128.609 167.747 128.734 168.008C128.865 168.268 129.044 168.482 129.273 168.648C129.503 168.81 129.768 168.93 130.07 169.008C130.378 169.086 130.706 169.125 131.055 169.125C131.513 169.125 131.896 169.06 132.203 168.93C132.516 168.799 132.75 168.617 132.906 168.383C133.062 168.148 133.141 167.878 133.141 167.57ZM140.109 169.156C140.417 169.156 140.693 169.096 140.938 168.977C141.188 168.852 141.388 168.68 141.539 168.461C141.695 168.242 141.781 167.99 141.797 167.703H143.57C143.56 168.25 143.398 168.747 143.086 169.195C142.773 169.643 142.359 170 141.844 170.266C141.328 170.526 140.758 170.656 140.133 170.656C139.487 170.656 138.924 170.547 138.445 170.328C137.966 170.104 137.568 169.797 137.25 169.406C136.932 169.016 136.693 168.565 136.531 168.055C136.375 167.544 136.297 166.997 136.297 166.414V166.141C136.297 165.557 136.375 165.01 136.531 164.5C136.693 163.984 136.932 163.531 137.25 163.141C137.568 162.75 137.966 162.445 138.445 162.227C138.924 162.003 139.484 161.891 140.125 161.891C140.802 161.891 141.396 162.026 141.906 162.297C142.417 162.562 142.818 162.935 143.109 163.414C143.406 163.888 143.56 164.44 143.57 165.07H141.797C141.781 164.758 141.703 164.477 141.562 164.227C141.427 163.971 141.234 163.768 140.984 163.617C140.74 163.466 140.445 163.391 140.102 163.391C139.721 163.391 139.406 163.469 139.156 163.625C138.906 163.776 138.711 163.984 138.57 164.25C138.43 164.51 138.328 164.805 138.266 165.133C138.208 165.456 138.18 165.792 138.18 166.141V166.414C138.18 166.763 138.208 167.102 138.266 167.43C138.323 167.758 138.422 168.052 138.562 168.312C138.708 168.568 138.906 168.773 139.156 168.93C139.406 169.081 139.724 169.156 140.109 169.156ZM146.906 163.656V170.5H145.023V162.047H146.82L146.906 163.656ZM149.492 161.992L149.477 163.742C149.362 163.721 149.237 163.706 149.102 163.695C148.971 163.685 148.841 163.68 148.711 163.68C148.388 163.68 148.104 163.727 147.859 163.82C147.615 163.909 147.409 164.039 147.242 164.211C147.081 164.378 146.956 164.581 146.867 164.82C146.779 165.06 146.727 165.328 146.711 165.625L146.281 165.656C146.281 165.125 146.333 164.633 146.438 164.18C146.542 163.727 146.698 163.328 146.906 162.984C147.12 162.641 147.385 162.372 147.703 162.18C148.026 161.987 148.398 161.891 148.82 161.891C148.935 161.891 149.057 161.901 149.188 161.922C149.323 161.943 149.424 161.966 149.492 161.992ZM154.242 170.656C153.617 170.656 153.052 170.555 152.547 170.352C152.047 170.143 151.62 169.854 151.266 169.484C150.917 169.115 150.648 168.68 150.461 168.18C150.273 167.68 150.18 167.141 150.18 166.562V166.25C150.18 165.589 150.276 164.99 150.469 164.453C150.661 163.917 150.93 163.458 151.273 163.078C151.617 162.693 152.023 162.398 152.492 162.195C152.961 161.992 153.469 161.891 154.016 161.891C154.62 161.891 155.148 161.992 155.602 162.195C156.055 162.398 156.43 162.685 156.727 163.055C157.029 163.419 157.253 163.854 157.398 164.359C157.549 164.865 157.625 165.422 157.625 166.031V166.836H151.094V165.484H155.766V165.336C155.755 164.997 155.688 164.68 155.562 164.383C155.443 164.086 155.258 163.846 155.008 163.664C154.758 163.482 154.424 163.391 154.008 163.391C153.695 163.391 153.417 163.458 153.172 163.594C152.932 163.724 152.732 163.914 152.57 164.164C152.409 164.414 152.284 164.716 152.195 165.07C152.112 165.419 152.07 165.812 152.07 166.25V166.562C152.07 166.932 152.12 167.276 152.219 167.594C152.323 167.906 152.474 168.18 152.672 168.414C152.87 168.648 153.109 168.833 153.391 168.969C153.672 169.099 153.992 169.164 154.352 169.164C154.805 169.164 155.208 169.073 155.562 168.891C155.917 168.708 156.224 168.451 156.484 168.117L157.477 169.078C157.294 169.344 157.057 169.599 156.766 169.844C156.474 170.083 156.117 170.279 155.695 170.43C155.279 170.581 154.794 170.656 154.242 170.656ZM162.82 170.656C162.195 170.656 161.63 170.555 161.125 170.352C160.625 170.143 160.198 169.854 159.844 169.484C159.495 169.115 159.227 168.68 159.039 168.18C158.852 167.68 158.758 167.141 158.758 166.562V166.25C158.758 165.589 158.854 164.99 159.047 164.453C159.24 163.917 159.508 163.458 159.852 163.078C160.195 162.693 160.602 162.398 161.07 162.195C161.539 161.992 162.047 161.891 162.594 161.891C163.198 161.891 163.727 161.992 164.18 162.195C164.633 162.398 165.008 162.685 165.305 163.055C165.607 163.419 165.831 163.854 165.977 164.359C166.128 164.865 166.203 165.422 166.203 166.031V166.836H159.672V165.484H164.344V165.336C164.333 164.997 164.266 164.68 164.141 164.383C164.021 164.086 163.836 163.846 163.586 163.664C163.336 163.482 163.003 163.391 162.586 163.391C162.273 163.391 161.995 163.458 161.75 163.594C161.51 163.724 161.31 163.914 161.148 164.164C160.987 164.414 160.862 164.716 160.773 165.07C160.69 165.419 160.648 165.812 160.648 166.25V166.562C160.648 166.932 160.698 167.276 160.797 167.594C160.901 167.906 161.052 168.18 161.25 168.414C161.448 168.648 161.688 168.833 161.969 168.969C162.25 169.099 162.57 169.164 162.93 169.164C163.383 169.164 163.786 169.073 164.141 168.891C164.495 168.708 164.802 168.451 165.062 168.117L166.055 169.078C165.872 169.344 165.635 169.599 165.344 169.844C165.052 170.083 164.695 170.279 164.273 170.43C163.857 170.581 163.372 170.656 162.82 170.656ZM169.539 163.852V170.5H167.656V162.047H169.43L169.539 163.852ZM169.203 165.961L168.594 165.953C168.599 165.354 168.682 164.805 168.844 164.305C169.01 163.805 169.24 163.375 169.531 163.016C169.828 162.656 170.182 162.38 170.594 162.188C171.005 161.99 171.464 161.891 171.969 161.891C172.375 161.891 172.742 161.948 173.07 162.062C173.404 162.172 173.688 162.352 173.922 162.602C174.161 162.852 174.344 163.177 174.469 163.578C174.594 163.974 174.656 164.461 174.656 165.039V170.5H172.766V165.031C172.766 164.625 172.706 164.305 172.586 164.07C172.471 163.831 172.302 163.661 172.078 163.562C171.859 163.458 171.586 163.406 171.258 163.406C170.935 163.406 170.646 163.474 170.391 163.609C170.135 163.745 169.919 163.93 169.742 164.164C169.57 164.398 169.438 164.669 169.344 164.977C169.25 165.284 169.203 165.612 169.203 165.961ZM181.32 168.211C181.32 168.023 181.273 167.854 181.18 167.703C181.086 167.547 180.906 167.406 180.641 167.281C180.38 167.156 179.995 167.042 179.484 166.938C179.036 166.839 178.625 166.721 178.25 166.586C177.88 166.445 177.562 166.276 177.297 166.078C177.031 165.88 176.826 165.646 176.68 165.375C176.534 165.104 176.461 164.792 176.461 164.438C176.461 164.094 176.536 163.768 176.688 163.461C176.839 163.154 177.055 162.883 177.336 162.648C177.617 162.414 177.958 162.229 178.359 162.094C178.766 161.958 179.219 161.891 179.719 161.891C180.427 161.891 181.034 162.01 181.539 162.25C182.049 162.484 182.44 162.805 182.711 163.211C182.982 163.612 183.117 164.065 183.117 164.57H181.234C181.234 164.346 181.177 164.138 181.062 163.945C180.953 163.747 180.786 163.589 180.562 163.469C180.339 163.344 180.057 163.281 179.719 163.281C179.396 163.281 179.128 163.333 178.914 163.438C178.706 163.536 178.549 163.667 178.445 163.828C178.346 163.99 178.297 164.167 178.297 164.359C178.297 164.5 178.323 164.628 178.375 164.742C178.432 164.852 178.526 164.953 178.656 165.047C178.786 165.135 178.964 165.219 179.188 165.297C179.417 165.375 179.703 165.451 180.047 165.523C180.693 165.659 181.247 165.833 181.711 166.047C182.18 166.255 182.539 166.526 182.789 166.859C183.039 167.188 183.164 167.604 183.164 168.109C183.164 168.484 183.083 168.828 182.922 169.141C182.766 169.448 182.536 169.716 182.234 169.945C181.932 170.169 181.57 170.344 181.148 170.469C180.732 170.594 180.263 170.656 179.742 170.656C178.977 170.656 178.328 170.521 177.797 170.25C177.266 169.974 176.862 169.622 176.586 169.195C176.315 168.763 176.18 168.315 176.18 167.852H178C178.021 168.201 178.117 168.479 178.289 168.688C178.466 168.891 178.685 169.039 178.945 169.133C179.211 169.221 179.484 169.266 179.766 169.266C180.104 169.266 180.388 169.221 180.617 169.133C180.846 169.039 181.021 168.914 181.141 168.758C181.26 168.596 181.32 168.414 181.32 168.211ZM186.672 158.5V170.5H184.797V158.5H186.672ZM186.344 165.961L185.734 165.953C185.74 165.37 185.82 164.831 185.977 164.336C186.138 163.841 186.362 163.411 186.648 163.047C186.94 162.677 187.289 162.393 187.695 162.195C188.102 161.992 188.552 161.891 189.047 161.891C189.464 161.891 189.839 161.948 190.172 162.062C190.51 162.177 190.802 162.362 191.047 162.617C191.292 162.867 191.477 163.195 191.602 163.602C191.732 164.003 191.797 164.492 191.797 165.07V170.5H189.906V165.055C189.906 164.648 189.846 164.326 189.727 164.086C189.612 163.846 189.443 163.674 189.219 163.57C188.995 163.461 188.721 163.406 188.398 163.406C188.06 163.406 187.76 163.474 187.5 163.609C187.245 163.745 187.031 163.93 186.859 164.164C186.688 164.398 186.557 164.669 186.469 164.977C186.385 165.284 186.344 165.612 186.344 165.961ZM193.344 166.367V166.188C193.344 165.578 193.432 165.013 193.609 164.492C193.786 163.966 194.042 163.51 194.375 163.125C194.714 162.734 195.125 162.432 195.609 162.219C196.099 162 196.651 161.891 197.266 161.891C197.885 161.891 198.438 162 198.922 162.219C199.411 162.432 199.826 162.734 200.164 163.125C200.503 163.51 200.76 163.966 200.938 164.492C201.115 165.013 201.203 165.578 201.203 166.188V166.367C201.203 166.977 201.115 167.542 200.938 168.062C200.76 168.583 200.503 169.039 200.164 169.43C199.826 169.815 199.414 170.117 198.93 170.336C198.445 170.549 197.896 170.656 197.281 170.656C196.661 170.656 196.107 170.549 195.617 170.336C195.133 170.117 194.721 169.815 194.383 169.43C194.044 169.039 193.786 168.583 193.609 168.062C193.432 167.542 193.344 166.977 193.344 166.367ZM195.227 166.188V166.367C195.227 166.747 195.266 167.107 195.344 167.445C195.422 167.784 195.544 168.081 195.711 168.336C195.878 168.591 196.091 168.792 196.352 168.938C196.612 169.083 196.922 169.156 197.281 169.156C197.63 169.156 197.932 169.083 198.188 168.938C198.448 168.792 198.661 168.591 198.828 168.336C198.995 168.081 199.117 167.784 199.195 167.445C199.279 167.107 199.32 166.747 199.32 166.367V166.188C199.32 165.812 199.279 165.458 199.195 165.125C199.117 164.786 198.992 164.487 198.82 164.227C198.654 163.966 198.44 163.763 198.18 163.617C197.924 163.466 197.62 163.391 197.266 163.391C196.911 163.391 196.604 163.466 196.344 163.617C196.089 163.763 195.878 163.966 195.711 164.227C195.544 164.487 195.422 164.786 195.344 165.125C195.266 165.458 195.227 165.812 195.227 166.188ZM206.656 162.047V163.422H201.891V162.047H206.656ZM203.266 159.977H205.148V168.164C205.148 168.424 205.185 168.625 205.258 168.766C205.336 168.901 205.443 168.992 205.578 169.039C205.714 169.086 205.872 169.109 206.055 169.109C206.185 169.109 206.31 169.102 206.43 169.086C206.549 169.07 206.646 169.055 206.719 169.039L206.727 170.477C206.57 170.523 206.388 170.565 206.18 170.602C205.977 170.638 205.742 170.656 205.477 170.656C205.044 170.656 204.661 170.581 204.328 170.43C203.995 170.273 203.734 170.021 203.547 169.672C203.359 169.323 203.266 168.859 203.266 168.281V159.977ZM212.852 168.211C212.852 168.023 212.805 167.854 212.711 167.703C212.617 167.547 212.438 167.406 212.172 167.281C211.911 167.156 211.526 167.042 211.016 166.938C210.568 166.839 210.156 166.721 209.781 166.586C209.411 166.445 209.094 166.276 208.828 166.078C208.562 165.88 208.357 165.646 208.211 165.375C208.065 165.104 207.992 164.792 207.992 164.438C207.992 164.094 208.068 163.768 208.219 163.461C208.37 163.154 208.586 162.883 208.867 162.648C209.148 162.414 209.49 162.229 209.891 162.094C210.297 161.958 210.75 161.891 211.25 161.891C211.958 161.891 212.565 162.01 213.07 162.25C213.581 162.484 213.971 162.805 214.242 163.211C214.513 163.612 214.648 164.065 214.648 164.57H212.766C212.766 164.346 212.708 164.138 212.594 163.945C212.484 163.747 212.318 163.589 212.094 163.469C211.87 163.344 211.589 163.281 211.25 163.281C210.927 163.281 210.659 163.333 210.445 163.438C210.237 163.536 210.081 163.667 209.977 163.828C209.878 163.99 209.828 164.167 209.828 164.359C209.828 164.5 209.854 164.628 209.906 164.742C209.964 164.852 210.057 164.953 210.188 165.047C210.318 165.135 210.495 165.219 210.719 165.297C210.948 165.375 211.234 165.451 211.578 165.523C212.224 165.659 212.779 165.833 213.242 166.047C213.711 166.255 214.07 166.526 214.32 166.859C214.57 167.188 214.695 167.604 214.695 168.109C214.695 168.484 214.615 168.828 214.453 169.141C214.297 169.448 214.068 169.716 213.766 169.945C213.464 170.169 213.102 170.344 212.68 170.469C212.263 170.594 211.794 170.656 211.273 170.656C210.508 170.656 209.859 170.521 209.328 170.25C208.797 169.974 208.393 169.622 208.117 169.195C207.846 168.763 207.711 168.315 207.711 167.852H209.531C209.552 168.201 209.648 168.479 209.82 168.688C209.997 168.891 210.216 169.039 210.477 169.133C210.742 169.221 211.016 169.266 211.297 169.266C211.635 169.266 211.919 169.221 212.148 169.133C212.378 169.039 212.552 168.914 212.672 168.758C212.792 168.596 212.852 168.414 212.852 168.211Z" fill="#546074"/>
    <rect x="402.5" y="191" width="133" height="133" rx="9.5" fill="white" stroke="#D1D3D8" stroke-dasharray="2 2"/>
    <path fill-rule="evenodd" clip-rule="evenodd" d="M470.8 239.5H467.2V255.7H451V259.3H467.2V275.5H470.8V259.3H487V255.7H470.8V239.5Z" fill="#D1D3D8"/>
    <rect x="264.5" y="191" width="133" height="133" rx="9.5" fill="#F3F3F3" stroke="#D1D3D8"/>
    <rect x="126.5" y="191" width="133" height="133" rx="9.5" stroke="#D1D3D8"/>
    <rect x="171.864" y="212.006" width="32.322" height="2.51393" rx="1.25697" fill="#EBEDF0"/>
    <rect x="171.864" y="266.954" width="32.322" height="2.51393" rx="1.25697" fill="#EBEDF0"/>
    <rect width="23.3437" height="21.9071" rx="8" transform="matrix(-1 0 0 1 195.208 240.378)" fill="#EBEDF0"/>
    <rect width="23.7028" height="21.9071" rx="8" transform="matrix(-1 0 0 1 221.784 240.378)" fill="#EBEDF0"/>
    <rect width="23.3437" height="21.9071" rx="8" transform="matrix(-1 0 0 1 248.001 240.378)" fill="#EBEDF0"/>
    <rect x="171.864" y="217.034" width="76.1362" height="2.51393" rx="1.25697" fill="#EBEDF0"/>
    <rect x="171.864" y="221.344" width="76.1362" height="2.51393" rx="1.25697" fill="#EBEDF0"/>
    <rect x="171.864" y="226.012" width="76.1362" height="2.51393" rx="1.25697" fill="#EBEDF0"/>
    <rect x="171.864" y="231.04" width="76.1362" height="2.51393" rx="1.25697" fill="#EBEDF0"/>
    <rect x="171.864" y="271.982" width="76.1362" height="2.51393" rx="1.25697" fill="#EBEDF0"/>
    <rect x="171.864" y="277.009" width="76.1362" height="2.51393" rx="1.25697" fill="#EBEDF0"/>
    <rect x="171.864" y="281.319" width="76.1362" height="2.51393" rx="1.25697" fill="#EBEDF0"/>
    <rect x="132" y="212.006" width="22.6254" height="2.51393" rx="1.25697" fill="#EBEDF0"/>
    <rect x="132" y="216.675" width="22.6254" height="2.51393" rx="1.25697" fill="#EBEDF0"/>
    <rect x="132" y="221.344" width="28.3715" height="2.51393" rx="1.25697" fill="#EBEDF0"/>
    <rect x="132" y="226.012" width="28.3715" height="2.51393" rx="1.25697" fill="#EBEDF0"/>
    <path d="M132 231.938C132 231.244 132.563 230.681 133.257 230.681H147.263C147.957 230.681 148.52 231.244 148.52 231.938V231.938C148.52 232.632 147.957 233.195 147.263 233.195H133.257C132.563 233.195 132 232.632 132 231.938V231.938Z" fill="#EBEDF0"/>
    <path d="M193.933 201.486L193.597 202.495L192.437 205.175H191.933L190.773 202.495L190.437 201.486H190.403L190.504 203.058V206.427H189.916V200.545H190.504L192.185 204.478L193.866 200.545H194.454V206.427H193.866V203.058L193.966 201.486H193.933Z" fill="#546074"/>
    <path d="M198.036 207.226V205.839L197.103 206.427H196.692C196.361 206.427 196.109 206.341 195.935 206.167C195.767 205.993 195.683 205.744 195.683 205.419V202.906L195.599 202.243L196.171 202.167L196.271 202.94V205.436C196.271 205.738 196.417 205.89 196.708 205.89H196.952L198.036 205.184V202.226H198.624V207.226C198.624 207.982 198.238 208.36 197.465 208.36H196.641L195.801 208.133L195.952 207.621L196.641 207.822H197.524C197.708 207.822 197.84 207.775 197.918 207.68C197.997 207.584 198.036 207.433 198.036 207.226Z" fill="#546074"/>
    <path d="M201.681 202.461L202.521 202.226H203.479C203.81 202.226 204.059 202.315 204.227 202.495C204.401 202.668 204.488 202.915 204.488 203.234V205.764L204.58 206.427L204 206.495L203.908 205.747L202.967 206.427H202.555C202.23 206.427 201.981 206.341 201.807 206.167C201.633 205.988 201.546 205.738 201.546 205.419V204.906C201.546 204.587 201.633 204.341 201.807 204.167C201.981 203.988 202.23 203.898 202.555 203.898H203.899V203.226C203.899 202.923 203.754 202.772 203.462 202.772H202.521L201.832 202.974L201.681 202.461ZM202.572 205.89H202.815L203.899 205.1V204.419H202.572C202.28 204.419 202.135 204.57 202.135 204.873V205.436C202.135 205.738 202.28 205.89 202.572 205.89Z" fill="#546074"/>
    <path d="M205.679 202.915L205.595 202.243L206.166 202.167L206.242 202.764L207.191 202.226H207.611C207.936 202.226 208.186 202.315 208.359 202.495C208.533 202.668 208.62 202.915 208.62 203.234V205.419C208.62 205.738 208.533 205.988 208.359 206.167C208.186 206.341 207.936 206.427 207.611 206.427H207.208L206.267 206.243V208.36H205.679V202.915ZM207.326 202.772L206.267 203.36V205.705L207.225 205.89H207.595C207.886 205.89 208.032 205.738 208.032 205.436V203.226C208.032 202.923 207.886 202.772 207.595 202.772H207.326Z" fill="#546074"/>
    <path d="M209.733 202.915L209.649 202.243L210.22 202.167L210.296 202.764L211.245 202.226H211.665C211.99 202.226 212.24 202.315 212.413 202.495C212.587 202.668 212.674 202.915 212.674 203.234V205.419C212.674 205.738 212.587 205.988 212.413 206.167C212.24 206.341 211.99 206.427 211.665 206.427H211.262L210.321 206.243V208.36H209.733V202.915ZM211.38 202.772L210.321 203.36V205.705L211.279 205.89H211.649C211.94 205.89 212.086 205.738 212.086 205.436V203.226C212.086 202.923 211.94 202.772 211.649 202.772H211.38Z" fill="#546074"/>
    <path d="M184.331 204.586C182.57 206.335 179.579 207.459 177.533 206.132C172.928 203.143 171.155 205.515 172.917 203.766C174.679 202.018 177.279 201.781 178.725 203.238C181.847 206.203 186.093 202.838 184.331 204.586Z" fill="#546074"/>
    <path d="M185.161 202.005C184.177 202.982 182.48 203.582 181.287 202.79C178.602 201.007 177.621 202.341 178.605 201.364C179.589 200.388 181.076 200.291 181.927 201.149C183.761 202.896 186.145 201.029 185.161 202.005Z" fill="#546074"/>
    <rect x="129" y="207" width="34" height="32" rx="4" stroke="#AA4365" stroke-width="2"/>
    <defs>
        <filter id="filter0_d_546_10357" x="0" y="0" width="524" height="215" filterUnits="userSpaceOnUse" color-interpolation-filters="sRGB">
            <feFlood flood-opacity="0" result="BackgroundImageFix"/>
            <feColorMatrix in="SourceAlpha" type="matrix" values="0 0 0 0 0 0 0 0 0 0 0 0 0 0 0 0 0 0 127 0" result="hardAlpha"/>
            <feOffset/>
            <feGaussianBlur stdDeviation="5"/>
            <feComposite in2="hardAlpha" operator="out"/>
            <feColorMatrix type="matrix" values="0 0 0 0 0 0 0 0 0 0 0 0 0 0 0 0 0 0 0.25 0"/>
            <feBlend mode="normal" in2="BackgroundImageFix" result="effect1_dropShadow_546_10357"/>
            <feBlend mode="normal" in="SourceGraphic" in2="effect1_dropShadow_546_10357" result="shape"/>
        </filter>
        <filter id="filter1_d_546_10357" x="100" y="95" width="462" height="257.5" filterUnits="userSpaceOnUse" color-interpolation-filters="sRGB">
            <feFlood flood-opacity="0" result="BackgroundImageFix"/>
            <feColorMatrix in="SourceAlpha" type="matrix" values="0 0 0 0 0 0 0 0 0 0 0 0 0 0 0 0 0 0 127 0" result="hardAlpha"/>
            <feOffset/>
            <feGaussianBlur stdDeviation="5"/>
            <feComposite in2="hardAlpha" operator="out"/>
            <feColorMatrix type="matrix" values="0 0 0 0 0 0 0 0 0 0 0 0 0 0 0 0 0 0 0.25 0"/>
            <feBlend mode="normal" in2="BackgroundImageFix" result="effect1_dropShadow_546_10357"/>
            <feBlend mode="normal" in="SourceGraphic" in2="effect1_dropShadow_546_10357" result="shape"/>
        </filter>
        <linearGradient id="paint0_linear_546_10357" x1="296.914" y1="73" x2="296.914" y2="93" gradientUnits="userSpaceOnUse">
            <stop stop-color="white"/>
            <stop offset="1" stop-color="white" stop-opacity="0"/>
        </linearGradient>
        <clipPath id="clip0_546_10357">
            <rect width="19.8671" height="20" fill="white" transform="translate(286.98 24)"/>
        </clipPath>
        <clipPath id="clip1_546_10357">
            <rect width="19.8671" height="20" fill="white" transform="translate(286.98 122)"/>
        </clipPath>
    </defs>
</svg>
