<svg width="557" height="373" viewBox="0 0 557 373" fill="none" xmlns="http://www.w3.org/2000/svg">
    <g filter="url(#filter0_d_546_11248)">
        <rect x="10" y="213" width="537" height="150" rx="6" fill="white"/>
    </g>
    <path d="M9 219C9 215.686 11.6863 213 15 213H228V363H15C11.6863 363 9 360.314 9 357V219Z" fill="#F3F3F3"/>
    <rect x="243.992" y="266" width="122.149" height="7" rx="3.5" fill="#C4F0DA"/>
    <rect x="435.658" y="266" width="94.3426" height="7" rx="3.5" fill="#C4F0DA"/>
    <rect x="369.121" y="266" width="63.5571" height="7" rx="3.5" fill="#C4F0DA"/>
    <rect x="243" y="279" width="287" height="7" rx="3.5" fill="#C4F0DA"/>
    <rect x="243" y="292" width="167.83" height="7" rx="3.5" fill="#EBEDF0"/>
    <path d="M54.1641 232.835H55.4766C55.4082 233.464 55.2282 234.027 54.9365 234.523C54.6449 235.02 54.2324 235.414 53.6992 235.706C53.166 235.993 52.5007 236.137 51.7031 236.137C51.1198 236.137 50.5889 236.027 50.1104 235.809C49.6364 235.59 49.2285 235.28 48.8867 234.879C48.5449 234.473 48.2806 233.988 48.0938 233.423C47.9115 232.853 47.8203 232.22 47.8203 231.522V230.531C47.8203 229.834 47.9115 229.203 48.0938 228.638C48.2806 228.068 48.5472 227.58 48.8936 227.175C49.2445 226.769 49.666 226.457 50.1582 226.238C50.6504 226.02 51.2041 225.91 51.8193 225.91C52.5713 225.91 53.207 226.051 53.7266 226.334C54.2461 226.617 54.6494 227.008 54.9365 227.51C55.2282 228.007 55.4082 228.583 55.4766 229.239H54.1641C54.1003 228.774 53.9818 228.376 53.8086 228.043C53.6354 227.706 53.3893 227.446 53.0703 227.264C52.7513 227.081 52.3343 226.99 51.8193 226.99C51.3773 226.99 50.9876 227.075 50.6504 227.243C50.3177 227.412 50.0374 227.651 49.8096 227.961C49.5863 228.271 49.4176 228.642 49.3037 229.075C49.1898 229.508 49.1328 229.989 49.1328 230.518V231.522C49.1328 232.01 49.1829 232.468 49.2832 232.896C49.388 233.325 49.5452 233.701 49.7549 234.024C49.9645 234.348 50.2311 234.603 50.5547 234.79C50.8783 234.972 51.2611 235.063 51.7031 235.063C52.2637 235.063 52.7103 234.975 53.043 234.797C53.3757 234.619 53.6263 234.364 53.7949 234.031C53.9681 233.699 54.0911 233.3 54.1641 232.835ZM63.9531 234.927V236H57.2129V234.927H63.9531ZM63.7344 227.004L57.5273 236H56.7139V235.016L62.9141 226.047H63.7344V227.004ZM63.1738 226.047V227.127H56.8027V226.047H63.1738Z" fill="#808080"/>
    <g filter="url(#filter1_d_546_11248)">
        <rect x="146" y="10" width="255" height="184" rx="6" fill="white"/>
    </g>
    <rect x="165" y="154.587" width="44" height="17" rx="8.5" fill="#808080"/>
    <path d="M176.796 167.717C176.111 167.717 175.531 167.6 175.054 167.366C174.586 167.123 174.226 166.811 173.975 166.43C173.732 166.049 173.602 165.646 173.585 165.221C173.576 165.143 173.598 165.082 173.65 165.039C173.702 164.996 173.767 164.974 173.845 164.974H174.547C174.625 164.974 174.694 164.991 174.755 165.026C174.816 165.061 174.863 165.134 174.898 165.247C174.985 165.568 175.123 165.832 175.314 166.04C175.513 166.239 175.739 166.387 175.99 166.482C176.25 166.569 176.519 166.612 176.796 166.612C177.169 166.612 177.507 166.538 177.81 166.391C178.122 166.235 178.369 166.01 178.551 165.715C178.733 165.412 178.824 165.048 178.824 164.623C178.824 164.233 178.733 163.899 178.551 163.622C178.378 163.336 178.135 163.119 177.823 162.972C177.52 162.816 177.177 162.738 176.796 162.738C176.51 162.738 176.276 162.773 176.094 162.842C175.912 162.911 175.756 162.994 175.626 163.089C175.505 163.184 175.392 163.267 175.288 163.336C175.193 163.405 175.084 163.44 174.963 163.44H174.287C174.209 163.44 174.14 163.414 174.079 163.362C174.018 163.301 173.992 163.232 174.001 163.154L174.417 158.812C174.426 158.708 174.456 158.63 174.508 158.578C174.569 158.517 174.647 158.487 174.742 158.487H179.279C179.366 158.487 179.435 158.517 179.487 158.578C179.548 158.63 179.578 158.699 179.578 158.786V159.293C179.578 159.388 179.548 159.462 179.487 159.514C179.435 159.566 179.366 159.592 179.279 159.592H175.535L175.288 162.153C175.409 162.075 175.604 161.984 175.873 161.88C176.142 161.767 176.51 161.711 176.978 161.711C177.403 161.711 177.801 161.776 178.174 161.906C178.555 162.036 178.893 162.227 179.188 162.478C179.483 162.729 179.712 163.037 179.877 163.401C180.042 163.756 180.124 164.168 180.124 164.636C180.124 165.295 179.977 165.854 179.682 166.313C179.396 166.772 179.002 167.123 178.499 167.366C178.005 167.6 177.437 167.717 176.796 167.717ZM184.515 167.717C183.83 167.717 183.249 167.6 182.773 167.366C182.305 167.123 181.945 166.811 181.694 166.43C181.451 166.049 181.321 165.646 181.304 165.221C181.295 165.143 181.317 165.082 181.369 165.039C181.421 164.996 181.486 164.974 181.564 164.974H182.266C182.344 164.974 182.413 164.991 182.474 165.026C182.534 165.061 182.582 165.134 182.617 165.247C182.703 165.568 182.842 165.832 183.033 166.04C183.232 166.239 183.457 166.387 183.709 166.482C183.969 166.569 184.237 166.612 184.515 166.612C184.887 166.612 185.225 166.538 185.529 166.391C185.841 166.235 186.088 166.01 186.27 165.715C186.452 165.412 186.543 165.048 186.543 164.623C186.543 164.233 186.452 163.899 186.27 163.622C186.096 163.336 185.854 163.119 185.542 162.972C185.238 162.816 184.896 162.738 184.515 162.738C184.229 162.738 183.995 162.773 183.813 162.842C183.631 162.911 183.475 162.994 183.345 163.089C183.223 163.184 183.111 163.267 183.007 163.336C182.911 163.405 182.803 163.44 182.682 163.44H182.006C181.928 163.44 181.858 163.414 181.798 163.362C181.737 163.301 181.711 163.232 181.72 163.154L182.136 158.812C182.144 158.708 182.175 158.63 182.227 158.578C182.287 158.517 182.365 158.487 182.461 158.487H186.998C187.084 158.487 187.154 158.517 187.206 158.578C187.266 158.63 187.297 158.699 187.297 158.786V159.293C187.297 159.388 187.266 159.462 187.206 159.514C187.154 159.566 187.084 159.592 186.998 159.592H183.254L183.007 162.153C183.128 162.075 183.323 161.984 183.592 161.88C183.86 161.767 184.229 161.711 184.697 161.711C185.121 161.711 185.52 161.776 185.893 161.906C186.274 162.036 186.612 162.227 186.907 162.478C187.201 162.729 187.431 163.037 187.596 163.401C187.76 163.756 187.843 164.168 187.843 164.636C187.843 165.295 187.695 165.854 187.401 166.313C187.115 166.772 186.72 167.123 186.218 167.366C185.724 167.6 185.156 167.717 184.515 167.717ZM189.855 167.587C189.673 167.587 189.582 167.5 189.582 167.327C189.582 167.275 189.599 167.227 189.634 167.184L196.056 158.734C196.116 158.656 196.173 158.595 196.225 158.552C196.285 158.509 196.372 158.487 196.485 158.487H196.914C197.096 158.487 197.187 158.574 197.187 158.747C197.187 158.799 197.169 158.847 197.135 158.89L190.726 167.34C190.665 167.418 190.604 167.479 190.544 167.522C190.492 167.565 190.405 167.587 190.284 167.587H189.855ZM195.809 167.665C195.237 167.665 194.79 167.505 194.47 167.184C194.149 166.863 193.971 166.443 193.937 165.923C193.928 165.698 193.924 165.507 193.924 165.351C193.924 165.186 193.928 164.983 193.937 164.74C193.963 164.22 194.132 163.8 194.444 163.479C194.756 163.15 195.211 162.985 195.809 162.985C196.415 162.985 196.87 163.15 197.174 163.479C197.486 163.8 197.659 164.22 197.694 164.74C197.711 164.983 197.72 165.186 197.72 165.351C197.72 165.507 197.711 165.698 197.694 165.923C197.659 166.443 197.477 166.863 197.148 167.184C196.827 167.505 196.381 167.665 195.809 167.665ZM195.809 166.807C196.034 166.807 196.212 166.759 196.342 166.664C196.48 166.569 196.58 166.452 196.641 166.313C196.701 166.166 196.736 166.018 196.745 165.871C196.762 165.637 196.771 165.455 196.771 165.325C196.771 165.186 196.762 165.009 196.745 164.792C196.736 164.558 196.662 164.341 196.524 164.142C196.385 163.943 196.147 163.843 195.809 163.843C195.479 163.843 195.245 163.943 195.107 164.142C194.977 164.341 194.903 164.558 194.886 164.792C194.877 165.009 194.873 165.186 194.873 165.325C194.873 165.455 194.877 165.637 194.886 165.871C194.903 166.018 194.938 166.166 194.99 166.313C195.05 166.452 195.146 166.569 195.276 166.664C195.414 166.759 195.592 166.807 195.809 166.807ZM190.947 163.05C190.375 163.05 189.928 162.898 189.608 162.595C189.287 162.292 189.109 161.88 189.075 161.36C189.066 161.135 189.062 160.944 189.062 160.788C189.062 160.623 189.066 160.42 189.075 160.177C189.101 159.657 189.27 159.237 189.582 158.916C189.894 158.587 190.349 158.422 190.947 158.422C191.553 158.422 192.008 158.587 192.312 158.916C192.624 159.237 192.793 159.657 192.819 160.177C192.836 160.42 192.845 160.623 192.845 160.788C192.845 160.944 192.836 161.135 192.819 161.36C192.793 161.88 192.615 162.292 192.286 162.595C191.965 162.898 191.519 163.05 190.947 163.05ZM190.947 162.244C191.172 162.244 191.35 162.196 191.48 162.101C191.618 162.006 191.718 161.889 191.778 161.75C191.839 161.603 191.874 161.455 191.883 161.308C191.9 161.074 191.909 160.892 191.909 160.762C191.909 160.623 191.9 160.446 191.883 160.229C191.874 159.995 191.796 159.778 191.649 159.579C191.51 159.38 191.276 159.28 190.947 159.28C190.617 159.28 190.383 159.38 190.245 159.579C190.115 159.778 190.041 159.995 190.024 160.229C190.015 160.446 190.011 160.623 190.011 160.762C190.011 160.892 190.015 161.074 190.024 161.308C190.041 161.455 190.076 161.603 190.128 161.75C190.188 161.889 190.284 162.006 190.414 162.101C190.544 162.196 190.721 162.244 190.947 162.244Z" fill="white"/>
    <path d="M194.833 26.6338V36.5869H193.534V26.6338H194.833ZM198.032 26.6338V27.7139H190.342V26.6338H198.032ZM199.509 26.6338H202.804C203.551 26.6338 204.182 26.7477 204.697 26.9756C205.217 27.2035 205.611 27.5407 205.88 27.9873C206.153 28.4294 206.29 28.974 206.29 29.6211C206.29 30.0768 206.197 30.4938 206.01 30.8721C205.827 31.2458 205.563 31.5648 205.217 31.8291C204.875 32.0889 204.465 32.2826 203.986 32.4102L203.617 32.5537H200.521L200.507 31.4805H202.845C203.319 31.4805 203.713 31.3984 204.027 31.2344C204.342 31.0658 204.579 30.8402 204.738 30.5576C204.898 30.2751 204.978 29.9629 204.978 29.6211C204.978 29.2383 204.902 28.9033 204.752 28.6162C204.602 28.3291 204.365 28.1081 204.041 27.9531C203.722 27.7936 203.31 27.7139 202.804 27.7139H200.828V36.5869H199.509V26.6338ZM205.326 36.5869L202.906 32.0752L204.28 32.0684L206.734 36.5049V36.5869H205.326ZM211.82 27.5156L208.525 36.5869H207.179L210.973 26.6338H211.841L211.82 27.5156ZM214.582 36.5869L211.28 27.5156L211.26 26.6338H212.128L215.936 36.5869H214.582ZM214.411 32.9023V33.9824H208.819V32.9023H214.411ZM224.925 26.6338V36.5869H223.599L218.588 28.9102V36.5869H217.269V26.6338H218.588L223.619 34.3311V26.6338H224.925ZM232.567 34.0713C232.567 33.8389 232.531 33.6338 232.458 33.4561C232.39 33.2738 232.267 33.1097 232.089 32.9639C231.916 32.818 231.674 32.679 231.364 32.5469C231.059 32.4147 230.672 32.2803 230.202 32.1436C229.71 31.9977 229.266 31.8359 228.869 31.6582C228.473 31.4759 228.133 31.2686 227.851 31.0361C227.568 30.8037 227.352 30.5371 227.201 30.2363C227.051 29.9355 226.976 29.5915 226.976 29.2041C226.976 28.8167 227.055 28.459 227.215 28.1309C227.374 27.8027 227.602 27.5179 227.898 27.2764C228.199 27.0303 228.557 26.8389 228.972 26.7021C229.386 26.5654 229.849 26.4971 230.359 26.4971C231.107 26.4971 231.74 26.6406 232.26 26.9277C232.784 27.2103 233.183 27.5817 233.456 28.042C233.729 28.4977 233.866 28.9854 233.866 29.5049H232.554C232.554 29.1312 232.474 28.8008 232.314 28.5137C232.155 28.222 231.913 27.9941 231.59 27.8301C231.266 27.6615 230.856 27.5771 230.359 27.5771C229.89 27.5771 229.503 27.6478 229.197 27.7891C228.892 27.9303 228.664 28.1217 228.514 28.3633C228.368 28.6048 228.295 28.8805 228.295 29.1904C228.295 29.4001 228.338 29.5915 228.425 29.7646C228.516 29.9333 228.655 30.0905 228.842 30.2363C229.033 30.3822 229.275 30.5166 229.566 30.6396C229.863 30.7627 230.216 30.8812 230.626 30.9951C231.191 31.1546 231.679 31.3324 232.089 31.5283C232.499 31.7243 232.836 31.9453 233.101 32.1914C233.369 32.4329 233.568 32.7087 233.695 33.0186C233.827 33.3239 233.894 33.6702 233.894 34.0576C233.894 34.4632 233.812 34.8301 233.647 35.1582C233.483 35.4863 233.249 35.7666 232.943 35.999C232.638 36.2314 232.271 36.4115 231.843 36.5391C231.419 36.6621 230.945 36.7236 230.421 36.7236C229.961 36.7236 229.507 36.6598 229.061 36.5322C228.618 36.4046 228.215 36.2132 227.851 35.958C227.491 35.7028 227.201 35.3883 226.982 35.0146C226.768 34.6364 226.661 34.1989 226.661 33.7021H227.974C227.974 34.0439 228.04 34.3379 228.172 34.584C228.304 34.8255 228.484 35.026 228.712 35.1855C228.944 35.3451 229.206 35.4635 229.498 35.541C229.794 35.6139 230.102 35.6504 230.421 35.6504C230.881 35.6504 231.271 35.5866 231.59 35.459C231.909 35.3314 232.15 35.1491 232.314 34.9121C232.483 34.6751 232.567 34.3949 232.567 34.0713ZM241.611 35.5137V36.5869H236.635V35.5137H241.611ZM236.895 26.6338V36.5869H235.575V26.6338H236.895ZM246.943 27.5156L243.648 36.5869H242.302L246.096 26.6338H246.964L246.943 27.5156ZM249.705 36.5869L246.403 27.5156L246.383 26.6338H247.251L251.059 36.5869H249.705ZM249.534 32.9023V33.9824H243.942V32.9023H249.534ZM255.181 26.6338V36.5869H253.882V26.6338H255.181ZM258.38 26.6338V27.7139H250.689V26.6338H258.38ZM261.271 26.6338V36.5869H259.952V26.6338H261.271ZM271.334 31.2959V31.9248C271.334 32.6722 271.241 33.3421 271.054 33.9346C270.867 34.527 270.598 35.0306 270.247 35.4453C269.896 35.86 269.475 36.1768 268.982 36.3955C268.495 36.6143 267.948 36.7236 267.342 36.7236C266.754 36.7236 266.214 36.6143 265.722 36.3955C265.234 36.1768 264.81 35.86 264.45 35.4453C264.095 35.0306 263.819 34.527 263.623 33.9346C263.427 33.3421 263.329 32.6722 263.329 31.9248V31.2959C263.329 30.5485 263.425 29.8809 263.616 29.293C263.812 28.7005 264.088 28.1969 264.443 27.7822C264.799 27.363 265.22 27.0439 265.708 26.8252C266.2 26.6064 266.74 26.4971 267.328 26.4971C267.934 26.4971 268.481 26.6064 268.969 26.8252C269.461 27.0439 269.882 27.363 270.233 27.7822C270.589 28.1969 270.86 28.7005 271.047 29.293C271.238 29.8809 271.334 30.5485 271.334 31.2959ZM270.028 31.9248V31.2822C270.028 30.6898 269.967 30.1657 269.844 29.71C269.725 29.2542 269.55 28.8714 269.317 28.5615C269.085 28.2516 268.8 28.0169 268.463 27.8574C268.13 27.6979 267.752 27.6182 267.328 27.6182C266.918 27.6182 266.547 27.6979 266.214 27.8574C265.886 28.0169 265.603 28.2516 265.366 28.5615C265.134 28.8714 264.954 29.2542 264.826 29.71C264.699 30.1657 264.635 30.6898 264.635 31.2822V31.9248C264.635 32.5218 264.699 33.0505 264.826 33.5107C264.954 33.9665 265.136 34.3516 265.373 34.666C265.615 34.9759 265.899 35.2106 266.228 35.3701C266.56 35.5296 266.932 35.6094 267.342 35.6094C267.77 35.6094 268.151 35.5296 268.483 35.3701C268.816 35.2106 269.096 34.9759 269.324 34.666C269.557 34.3516 269.732 33.9665 269.851 33.5107C269.969 33.0505 270.028 32.5218 270.028 31.9248ZM280.966 26.6338V36.5869H279.64L274.629 28.9102V36.5869H273.31V26.6338H274.629L279.66 34.3311V26.6338H280.966ZM287.193 26.6338H288.472L291.732 34.748L294.986 26.6338H296.271L292.225 36.5869H291.227L287.193 26.6338ZM286.776 26.6338H287.904L288.089 32.7041V36.5869H286.776V26.6338ZM295.554 26.6338H296.682V36.5869H295.369V32.7041L295.554 26.6338ZM305.322 35.5137V36.5869H300.052V35.5137H305.322ZM300.318 26.6338V36.5869H298.999V26.6338H300.318ZM304.625 30.9131V31.9863H300.052V30.9131H304.625ZM305.254 26.6338V27.7139H300.052V26.6338H305.254ZM307.373 26.6338H308.651L311.912 34.748L315.166 26.6338H316.451L312.404 36.5869H311.406L307.373 26.6338ZM306.956 26.6338H308.084L308.269 32.7041V36.5869H306.956V26.6338ZM315.733 26.6338H316.861V36.5869H315.549V32.7041L315.733 26.6338ZM326.842 31.2959V31.9248C326.842 32.6722 326.748 33.3421 326.562 33.9346C326.375 34.527 326.106 35.0306 325.755 35.4453C325.404 35.86 324.982 36.1768 324.49 36.3955C324.003 36.6143 323.456 36.7236 322.85 36.7236C322.262 36.7236 321.722 36.6143 321.229 36.3955C320.742 36.1768 320.318 35.86 319.958 35.4453C319.603 35.0306 319.327 34.527 319.131 33.9346C318.935 33.3421 318.837 32.6722 318.837 31.9248V31.2959C318.837 30.5485 318.933 29.8809 319.124 29.293C319.32 28.7005 319.596 28.1969 319.951 27.7822C320.307 27.363 320.728 27.0439 321.216 26.8252C321.708 26.6064 322.248 26.4971 322.836 26.4971C323.442 26.4971 323.989 26.6064 324.477 26.8252C324.969 27.0439 325.39 27.363 325.741 27.7822C326.097 28.1969 326.368 28.7005 326.555 29.293C326.746 29.8809 326.842 30.5485 326.842 31.2959ZM325.536 31.9248V31.2822C325.536 30.6898 325.475 30.1657 325.352 29.71C325.233 29.2542 325.058 28.8714 324.825 28.5615C324.593 28.2516 324.308 28.0169 323.971 27.8574C323.638 27.6979 323.26 27.6182 322.836 27.6182C322.426 27.6182 322.054 27.6979 321.722 27.8574C321.394 28.0169 321.111 28.2516 320.874 28.5615C320.642 28.8714 320.462 29.2542 320.334 29.71C320.206 30.1657 320.143 30.6898 320.143 31.2822V31.9248C320.143 32.5218 320.206 33.0505 320.334 33.5107C320.462 33.9665 320.644 34.3516 320.881 34.666C321.122 34.9759 321.407 35.2106 321.735 35.3701C322.068 35.5296 322.439 35.6094 322.85 35.6094C323.278 35.6094 323.659 35.5296 323.991 35.3701C324.324 35.2106 324.604 34.9759 324.832 34.666C325.064 34.3516 325.24 33.9665 325.358 33.5107C325.477 33.0505 325.536 32.5218 325.536 31.9248ZM328.817 26.6338H332.112C332.86 26.6338 333.491 26.7477 334.006 26.9756C334.525 27.2035 334.92 27.5407 335.188 27.9873C335.462 28.4294 335.599 28.974 335.599 29.6211C335.599 30.0768 335.505 30.4938 335.318 30.8721C335.136 31.2458 334.872 31.5648 334.525 31.8291C334.184 32.0889 333.773 32.2826 333.295 32.4102L332.926 32.5537H329.829L329.815 31.4805H332.153C332.627 31.4805 333.021 31.3984 333.336 31.2344C333.65 31.0658 333.887 30.8402 334.047 30.5576C334.206 30.2751 334.286 29.9629 334.286 29.6211C334.286 29.2383 334.211 28.9033 334.061 28.6162C333.91 28.3291 333.673 28.1081 333.35 27.9531C333.031 27.7936 332.618 27.7139 332.112 27.7139H330.137V36.5869H328.817V26.6338ZM334.635 36.5869L332.215 32.0752L333.589 32.0684L336.043 36.5049V36.5869H334.635ZM337.574 26.6338L340.158 31.6309L342.749 26.6338H344.246L340.814 32.8682V36.5869H339.495V32.8682L336.063 26.6338H337.574Z" fill="#808080"/>
    <path d="M177 26.5869H167C165.9 26.5869 165 27.4869 165 28.5869V38.5869C165 39.6869 165.9 40.5869 167 40.5869H177C178.1 40.5869 179 39.6869 179 38.5869V28.5869C179 27.4869 178.1 26.5869 177 26.5869ZM173 39.0869H171V37.5869H173V39.0869ZM173 36.5869H171C171 35.0869 168.5 33.5869 168.5 31.5869C168.5 29.6569 170.07 28.0869 172 28.0869C173.93 28.0869 175.5 29.6569 175.5 31.5869C175.5 33.5869 173 35.0869 173 36.5869ZM178 25.0869H166C166 24.2569 166.67 23.5869 167.5 23.5869H176.5C177.33 23.5869 178 24.2569 178 25.0869ZM177 22.0869H167C167 21.2569 167.67 20.5869 168.5 20.5869H175.5C176.33 20.5869 177 21.2569 177 22.0869Z" fill="#808080"/>
    <circle cx="365" cy="31.5869" r="12" fill="#EBEBEB"/>
    <path d="M361.08 36.5869C360.98 36.5869 360.895 36.5569 360.825 36.4969C360.765 36.4269 360.735 36.3419 360.735 36.2419V35.7619C360.735 35.6719 360.76 35.5719 360.81 35.4619C360.86 35.3519 360.96 35.2319 361.11 35.1019L364.29 31.9219C364.8 31.4919 365.2 31.1269 365.49 30.8269C365.79 30.5169 366 30.2219 366.12 29.9419C366.25 29.6619 366.315 29.3719 366.315 29.0719C366.315 28.5019 366.155 28.0519 365.835 27.7219C365.515 27.3819 365.04 27.2119 364.41 27.2119C364.01 27.2119 363.665 27.2969 363.375 27.4669C363.085 27.6269 362.855 27.8519 362.685 28.1419C362.525 28.4219 362.42 28.7419 362.37 29.1019C362.35 29.2319 362.295 29.3219 362.205 29.3719C362.125 29.4219 362.05 29.4469 361.98 29.4469H361.2C361.11 29.4469 361.035 29.4219 360.975 29.3719C360.915 29.3119 360.885 29.2419 360.885 29.1619C360.895 28.7819 360.975 28.4019 361.125 28.0219C361.275 27.6319 361.495 27.2819 361.785 26.9719C362.085 26.6619 362.45 26.4119 362.88 26.2219C363.32 26.0219 363.83 25.9219 364.41 25.9219C365.2 25.9219 365.845 26.0669 366.345 26.3569C366.855 26.6369 367.23 27.0119 367.47 27.4819C367.71 27.9519 367.83 28.4669 367.83 29.0269C367.83 29.4669 367.755 29.8719 367.605 30.2419C367.455 30.6019 367.235 30.9569 366.945 31.3069C366.665 31.6469 366.315 31.9969 365.895 32.3569L363.015 35.2819H367.695C367.805 35.2819 367.89 35.3119 367.95 35.3719C368.02 35.4319 368.055 35.5169 368.055 35.6269V36.2419C368.055 36.3419 368.02 36.4269 367.95 36.4969C367.89 36.5569 367.805 36.5869 367.695 36.5869H361.08Z" fill="#808080"/>
    <rect x="165" y="142.587" width="212" height="7" rx="3.5" fill="#EBEDF0"/>
    <rect x="215" y="159.587" width="112" height="7" rx="3.5" fill="#EBEDF0"/>
    <rect x="165" y="129.587" width="212" height="7" rx="3.5" fill="#EBEDF0"/>
    <rect x="165" y="89.5869" width="44" height="17" rx="8.5" fill="#069C51"/>
    <path d="M177.134 102.717C176.631 102.717 176.168 102.656 175.743 102.535C175.327 102.405 174.967 102.223 174.664 101.989C174.369 101.746 174.14 101.456 173.975 101.118C173.81 100.78 173.728 100.399 173.728 99.9739C173.728 99.4452 173.854 98.9902 174.105 98.6089C174.365 98.2276 174.707 97.9372 175.132 97.7379C174.794 97.5386 174.53 97.2786 174.339 96.9579C174.148 96.6372 174.053 96.2559 174.053 95.8139C174.053 95.2939 174.179 94.8562 174.43 94.5009C174.69 94.1369 175.05 93.8552 175.509 93.6559C175.977 93.4566 176.519 93.3569 177.134 93.3569C177.741 93.3569 178.274 93.4566 178.733 93.6559C179.201 93.8466 179.561 94.1239 179.812 94.4879C180.072 94.8519 180.202 95.2896 180.202 95.8009C180.202 96.2429 180.107 96.6286 179.916 96.9579C179.725 97.2786 179.465 97.5386 179.136 97.7379C179.561 97.9372 179.899 98.2276 180.15 98.6089C180.41 98.9902 180.54 99.4452 180.54 99.9739C180.54 100.537 180.397 101.027 180.111 101.443C179.825 101.85 179.426 102.167 178.915 102.392C178.404 102.609 177.81 102.717 177.134 102.717ZM177.134 101.677C177.533 101.677 177.892 101.608 178.213 101.469C178.534 101.33 178.789 101.135 178.98 100.884C179.171 100.624 179.266 100.321 179.266 99.9739C179.266 99.6186 179.171 99.3196 178.98 99.0769C178.789 98.8256 178.534 98.6349 178.213 98.5049C177.892 98.3662 177.533 98.2969 177.134 98.2969C176.735 98.2969 176.371 98.3662 176.042 98.5049C175.721 98.6349 175.466 98.8256 175.275 99.0769C175.084 99.3196 174.989 99.6186 174.989 99.9739C174.989 100.321 175.084 100.624 175.275 100.884C175.466 101.135 175.721 101.33 176.042 101.469C176.371 101.608 176.735 101.677 177.134 101.677ZM177.134 97.2699C177.463 97.2699 177.767 97.2092 178.044 97.0879C178.33 96.9666 178.555 96.8019 178.72 96.5939C178.893 96.3859 178.98 96.1346 178.98 95.8399C178.98 95.5452 178.898 95.2896 178.733 95.0729C178.577 94.8562 178.356 94.6916 178.07 94.5789C177.793 94.4576 177.481 94.3969 177.134 94.3969C176.787 94.3969 176.471 94.4576 176.185 94.5789C175.908 94.6916 175.687 94.8562 175.522 95.0729C175.357 95.2896 175.275 95.5452 175.275 95.8399C175.275 96.1432 175.357 96.4032 175.522 96.6199C175.687 96.8279 175.908 96.9882 176.185 97.1009C176.471 97.2136 176.787 97.2699 177.134 97.2699ZM185.386 102.717C184.788 102.717 184.281 102.626 183.865 102.444C183.457 102.253 183.124 101.993 182.864 101.664C182.604 101.335 182.413 100.958 182.292 100.533C182.179 100.108 182.114 99.6576 182.097 99.1809C182.088 98.9469 182.079 98.6999 182.071 98.4399C182.071 98.1799 182.071 97.9199 182.071 97.6599C182.079 97.3912 182.088 97.1356 182.097 96.8929C182.105 96.4162 182.17 95.9656 182.292 95.5409C182.422 95.1076 182.612 94.7306 182.864 94.4099C183.124 94.0806 183.462 93.8249 183.878 93.6429C184.294 93.4522 184.796 93.3569 185.386 93.3569C185.984 93.3569 186.486 93.4522 186.894 93.6429C187.31 93.8249 187.648 94.0806 187.908 94.4099C188.168 94.7306 188.358 95.1076 188.48 95.5409C188.61 95.9656 188.679 96.4162 188.688 96.8929C188.696 97.1356 188.701 97.3912 188.701 97.6599C188.709 97.9199 188.709 98.1799 188.701 98.4399C188.701 98.6999 188.696 98.9469 188.688 99.1809C188.679 99.6576 188.61 100.108 188.48 100.533C188.358 100.958 188.168 101.335 187.908 101.664C187.656 101.993 187.323 102.253 186.907 102.444C186.499 102.626 185.992 102.717 185.386 102.717ZM185.386 101.612C186.062 101.612 186.56 101.391 186.881 100.949C187.21 100.498 187.379 99.8872 187.388 99.1159C187.405 98.8646 187.414 98.6219 187.414 98.3879C187.414 98.1452 187.414 97.9069 187.414 97.6729C187.414 97.4302 187.405 97.1919 187.388 96.9579C187.379 96.2039 187.21 95.6016 186.881 95.1509C186.56 94.6916 186.062 94.4619 185.386 94.4619C184.718 94.4619 184.22 94.6916 183.891 95.1509C183.57 95.6016 183.401 96.2039 183.384 96.9579C183.384 97.1919 183.379 97.4302 183.371 97.6729C183.371 97.9069 183.371 98.1452 183.371 98.3879C183.379 98.6219 183.384 98.8646 183.384 99.1159C183.401 99.8872 183.574 100.498 183.904 100.949C184.233 101.391 184.727 101.612 185.386 101.612ZM190.934 102.587C190.752 102.587 190.661 102.5 190.661 102.327C190.661 102.275 190.678 102.227 190.713 102.184L197.135 93.7339C197.195 93.6559 197.252 93.5952 197.304 93.5519C197.364 93.5086 197.451 93.4869 197.564 93.4869H197.993C198.175 93.4869 198.266 93.5736 198.266 93.7469C198.266 93.7989 198.248 93.8466 198.214 93.8899L191.805 102.34C191.744 102.418 191.683 102.479 191.623 102.522C191.571 102.565 191.484 102.587 191.363 102.587H190.934ZM196.888 102.665C196.316 102.665 195.869 102.505 195.549 102.184C195.228 101.863 195.05 101.443 195.016 100.923C195.007 100.698 195.003 100.507 195.003 100.351C195.003 100.186 195.007 99.9826 195.016 99.7399C195.042 99.2199 195.211 98.7996 195.523 98.4789C195.835 98.1496 196.29 97.9849 196.888 97.9849C197.494 97.9849 197.949 98.1496 198.253 98.4789C198.565 98.7996 198.738 99.2199 198.773 99.7399C198.79 99.9826 198.799 100.186 198.799 100.351C198.799 100.507 198.79 100.698 198.773 100.923C198.738 101.443 198.556 101.863 198.227 102.184C197.906 102.505 197.46 102.665 196.888 102.665ZM196.888 101.807C197.113 101.807 197.291 101.759 197.421 101.664C197.559 101.569 197.659 101.452 197.72 101.313C197.78 101.166 197.815 101.018 197.824 100.871C197.841 100.637 197.85 100.455 197.85 100.325C197.85 100.186 197.841 100.009 197.824 99.7919C197.815 99.5579 197.741 99.3412 197.603 99.1419C197.464 98.9426 197.226 98.8429 196.888 98.8429C196.558 98.8429 196.324 98.9426 196.186 99.1419C196.056 99.3412 195.982 99.5579 195.965 99.7919C195.956 100.009 195.952 100.186 195.952 100.325C195.952 100.455 195.956 100.637 195.965 100.871C195.982 101.018 196.017 101.166 196.069 101.313C196.129 101.452 196.225 101.569 196.355 101.664C196.493 101.759 196.671 101.807 196.888 101.807ZM192.026 98.0499C191.454 98.0499 191.007 97.8982 190.687 97.5949C190.366 97.2916 190.188 96.8799 190.154 96.3599C190.145 96.1346 190.141 95.9439 190.141 95.7879C190.141 95.6232 190.145 95.4196 190.154 95.1769C190.18 94.6569 190.349 94.2366 190.661 93.9159C190.973 93.5866 191.428 93.4219 192.026 93.4219C192.632 93.4219 193.087 93.5866 193.391 93.9159C193.703 94.2366 193.872 94.6569 193.898 95.1769C193.915 95.4196 193.924 95.6232 193.924 95.7879C193.924 95.9439 193.915 96.1346 193.898 96.3599C193.872 96.8799 193.694 97.2916 193.365 97.5949C193.044 97.8982 192.598 98.0499 192.026 98.0499ZM192.026 97.2439C192.251 97.2439 192.429 97.1962 192.559 97.1009C192.697 97.0056 192.797 96.8886 192.858 96.7499C192.918 96.6026 192.953 96.4552 192.962 96.3079C192.979 96.0739 192.988 95.8919 192.988 95.7619C192.988 95.6232 192.979 95.4456 192.962 95.2289C192.953 94.9949 192.875 94.7782 192.728 94.5789C192.589 94.3796 192.355 94.2799 192.026 94.2799C191.696 94.2799 191.462 94.3796 191.324 94.5789C191.194 94.7782 191.12 94.9949 191.103 95.2289C191.094 95.4456 191.09 95.6232 191.09 95.7619C191.09 95.8919 191.094 96.0739 191.103 96.3079C191.12 96.4552 191.155 96.6026 191.207 96.7499C191.267 96.8886 191.363 97.0056 191.493 97.1009C191.623 97.1962 191.8 97.2439 192.026 97.2439Z" fill="white"/>
    <rect x="165" y="77.5869" width="212" height="7" rx="3.5" fill="#EBEDF0"/>
    <rect x="215" y="94.5869" width="112" height="7" rx="3.5" fill="#EBEDF0"/>
    <rect x="165" y="64.5869" width="212" height="7" rx="3.5" fill="#EBEDF0"/>
    <line x1="230" y1="246.5" x2="547" y2="246.5" stroke="#ECECEC"/>
    <rect x="229" y="244" width="59" height="2" fill="#822B55"/>
    <path d="M252.013 233.85V235H246.366V233.85H252.013ZM246.651 224.336V235H245.238V224.336H246.651ZM251.266 228.921V230.071H246.366V228.921H251.266ZM251.939 224.336V225.493H246.366V224.336H251.939ZM256.649 235H254.422L254.437 233.85H256.649C257.411 233.85 258.045 233.691 258.553 233.374C259.061 233.052 259.442 232.603 259.696 232.026C259.955 231.445 260.084 230.767 260.084 229.99V229.338C260.084 228.728 260.011 228.186 259.864 227.712C259.718 227.234 259.503 226.831 259.22 226.504C258.937 226.172 258.59 225.92 258.18 225.75C257.774 225.579 257.308 225.493 256.781 225.493H254.378V224.336H256.781C257.479 224.336 258.116 224.453 258.692 224.688C259.269 224.917 259.764 225.251 260.179 225.691C260.599 226.125 260.921 226.653 261.146 227.273C261.371 227.888 261.483 228.582 261.483 229.353V229.99C261.483 230.762 261.371 231.458 261.146 232.078C260.921 232.693 260.597 233.218 260.172 233.652C259.752 234.087 259.244 234.421 258.648 234.656C258.058 234.885 257.391 235 256.649 235ZM255.177 224.336V235H253.763V224.336H255.177ZM265.123 224.336V235H263.709V224.336H265.123ZM271.415 224.336V235H270.023V224.336H271.415ZM274.842 224.336V225.493H266.603V224.336H274.842Z" fill="#822B55"/>
    <path d="M313.676 231.609H315.082C315.009 232.283 314.816 232.886 314.503 233.418C314.191 233.95 313.749 234.373 313.178 234.685C312.606 234.993 311.894 235.146 311.039 235.146C310.414 235.146 309.845 235.029 309.333 234.795C308.825 234.561 308.388 234.229 308.021 233.799C307.655 233.364 307.372 232.844 307.172 232.239C306.977 231.628 306.879 230.95 306.879 230.203V229.141C306.879 228.394 306.977 227.717 307.172 227.112C307.372 226.501 307.658 225.979 308.029 225.544C308.405 225.11 308.856 224.775 309.384 224.541C309.911 224.307 310.504 224.189 311.164 224.189C311.969 224.189 312.65 224.341 313.207 224.644C313.764 224.946 314.196 225.366 314.503 225.903C314.816 226.436 315.009 227.053 315.082 227.756H313.676C313.607 227.258 313.48 226.831 313.295 226.475C313.109 226.113 312.846 225.835 312.504 225.64C312.162 225.444 311.715 225.347 311.164 225.347C310.69 225.347 310.272 225.437 309.911 225.618C309.555 225.798 309.254 226.055 309.01 226.387C308.771 226.719 308.59 227.117 308.468 227.581C308.346 228.044 308.285 228.56 308.285 229.126V230.203C308.285 230.725 308.339 231.216 308.446 231.675C308.559 232.134 308.727 232.537 308.952 232.883C309.176 233.23 309.462 233.503 309.809 233.704C310.155 233.899 310.565 233.997 311.039 233.997C311.64 233.997 312.118 233.901 312.475 233.711C312.831 233.521 313.1 233.247 313.28 232.891C313.466 232.534 313.598 232.107 313.676 231.609ZM325.219 229.331V230.005C325.219 230.806 325.119 231.523 324.918 232.158C324.718 232.793 324.43 233.333 324.054 233.777C323.678 234.221 323.227 234.561 322.699 234.795C322.177 235.029 321.591 235.146 320.941 235.146C320.312 235.146 319.733 235.029 319.206 234.795C318.683 234.561 318.229 234.221 317.843 233.777C317.462 233.333 317.167 232.793 316.957 232.158C316.747 231.523 316.642 230.806 316.642 230.005V229.331C316.642 228.53 316.745 227.815 316.95 227.185C317.16 226.55 317.455 226.011 317.836 225.566C318.217 225.117 318.668 224.775 319.191 224.541C319.718 224.307 320.297 224.189 320.927 224.189C321.576 224.189 322.162 224.307 322.685 224.541C323.212 224.775 323.664 225.117 324.04 225.566C324.42 226.011 324.711 226.55 324.911 227.185C325.116 227.815 325.219 228.53 325.219 229.331ZM323.82 230.005V229.316C323.82 228.682 323.754 228.12 323.622 227.632C323.495 227.144 323.307 226.733 323.058 226.401C322.809 226.069 322.504 225.818 322.143 225.647C321.786 225.476 321.381 225.391 320.927 225.391C320.487 225.391 320.089 225.476 319.733 225.647C319.381 225.818 319.079 226.069 318.825 226.401C318.576 226.733 318.383 227.144 318.246 227.632C318.109 228.12 318.041 228.682 318.041 229.316V230.005C318.041 230.645 318.109 231.211 318.246 231.704C318.383 232.192 318.578 232.605 318.832 232.942C319.091 233.274 319.396 233.525 319.748 233.696C320.104 233.867 320.502 233.953 320.941 233.953C321.4 233.953 321.808 233.867 322.165 233.696C322.521 233.525 322.821 233.274 323.065 232.942C323.314 232.605 323.502 232.192 323.629 231.704C323.756 231.211 323.82 230.645 323.82 230.005ZM327.782 224.336H329.152L332.646 233.03L336.132 224.336H337.509L333.173 235H332.104L327.782 224.336ZM327.335 224.336H328.544L328.742 230.84V235H327.335V224.336ZM336.74 224.336H337.948V235H336.542V230.84L336.74 224.336ZM340.878 224.336H342.248L345.741 233.03L349.228 224.336H350.604L346.269 235H345.199L340.878 224.336ZM340.431 224.336H341.64L341.837 230.84V235H340.431V224.336ZM349.835 224.336H351.044V235H349.638V230.84L349.835 224.336ZM360.302 233.85V235H354.655V233.85H360.302ZM354.94 224.336V235H353.527V224.336H354.94ZM359.555 228.921V230.071H354.655V228.921H359.555ZM360.229 224.336V225.493H354.655V224.336H360.229ZM370.255 224.336V235H368.834L363.466 226.775V235H362.052V224.336H363.466L368.856 232.583V224.336H370.255ZM376.481 224.336V235H375.089V224.336H376.481ZM379.909 224.336V225.493H371.669V224.336H379.909ZM387.057 232.305C387.057 232.056 387.018 231.836 386.94 231.646C386.867 231.45 386.735 231.274 386.544 231.118C386.359 230.962 386.1 230.813 385.768 230.671C385.441 230.53 385.026 230.386 384.523 230.239C383.996 230.083 383.52 229.91 383.095 229.719C382.67 229.524 382.306 229.302 382.003 229.053C381.701 228.804 381.469 228.518 381.308 228.196C381.146 227.874 381.066 227.505 381.066 227.09C381.066 226.675 381.151 226.292 381.322 225.94C381.493 225.588 381.737 225.283 382.055 225.024C382.377 224.761 382.76 224.556 383.205 224.409C383.649 224.263 384.145 224.189 384.691 224.189C385.492 224.189 386.171 224.343 386.728 224.651C387.289 224.954 387.716 225.352 388.009 225.845C388.302 226.333 388.449 226.855 388.449 227.412H387.042C387.042 227.012 386.957 226.658 386.786 226.35C386.615 226.038 386.356 225.793 386.01 225.618C385.663 225.437 385.224 225.347 384.691 225.347C384.188 225.347 383.773 225.422 383.446 225.574C383.119 225.725 382.875 225.93 382.714 226.189C382.558 226.448 382.479 226.743 382.479 227.075C382.479 227.3 382.526 227.505 382.619 227.69C382.716 227.871 382.865 228.04 383.065 228.196C383.271 228.352 383.529 228.496 383.842 228.628C384.159 228.76 384.538 228.887 384.977 229.009C385.583 229.18 386.105 229.37 386.544 229.58C386.984 229.79 387.345 230.027 387.628 230.291C387.917 230.549 388.129 230.845 388.266 231.177C388.407 231.504 388.478 231.875 388.478 232.29C388.478 232.725 388.39 233.118 388.214 233.469C388.039 233.821 387.787 234.121 387.46 234.37C387.133 234.619 386.74 234.812 386.281 234.949C385.827 235.081 385.319 235.146 384.757 235.146C384.264 235.146 383.778 235.078 383.3 234.941C382.826 234.805 382.394 234.6 382.003 234.326C381.618 234.053 381.308 233.716 381.073 233.315C380.844 232.91 380.729 232.441 380.729 231.909H382.135C382.135 232.275 382.206 232.59 382.348 232.854C382.489 233.113 382.682 233.328 382.926 233.499C383.175 233.669 383.456 233.796 383.769 233.879C384.086 233.958 384.416 233.997 384.757 233.997C385.25 233.997 385.668 233.928 386.01 233.792C386.352 233.655 386.61 233.459 386.786 233.206C386.967 232.952 387.057 232.651 387.057 232.305Z" fill="#808080"/>
    <path d="M423.203 228.921V230.071H417.432V228.921H423.203ZM417.651 224.336V235H416.238V224.336H417.651ZM424.434 224.336V235H423.027V224.336H424.434ZM428.462 224.336V235H427.048V224.336H428.462ZM436.716 232.305C436.716 232.056 436.677 231.836 436.599 231.646C436.526 231.45 436.394 231.274 436.204 231.118C436.018 230.962 435.759 230.813 435.427 230.671C435.1 230.53 434.685 230.386 434.182 230.239C433.655 230.083 433.179 229.91 432.754 229.719C432.329 229.524 431.965 229.302 431.663 229.053C431.36 228.804 431.128 228.518 430.967 228.196C430.806 227.874 430.725 227.505 430.725 227.09C430.725 226.675 430.811 226.292 430.981 225.94C431.152 225.588 431.396 225.283 431.714 225.024C432.036 224.761 432.419 224.556 432.864 224.409C433.308 224.263 433.804 224.189 434.351 224.189C435.151 224.189 435.83 224.343 436.387 224.651C436.948 224.954 437.375 225.352 437.668 225.845C437.961 226.333 438.108 226.855 438.108 227.412H436.702C436.702 227.012 436.616 226.658 436.445 226.35C436.274 226.038 436.016 225.793 435.669 225.618C435.322 225.437 434.883 225.347 434.351 225.347C433.848 225.347 433.433 225.422 433.105 225.574C432.778 225.725 432.534 225.93 432.373 226.189C432.217 226.448 432.139 226.743 432.139 227.075C432.139 227.3 432.185 227.505 432.278 227.69C432.375 227.871 432.524 228.04 432.725 228.196C432.93 228.352 433.188 228.496 433.501 228.628C433.818 228.76 434.197 228.887 434.636 229.009C435.242 229.18 435.764 229.37 436.204 229.58C436.643 229.79 437.004 230.027 437.288 230.291C437.576 230.549 437.788 230.845 437.925 231.177C438.066 231.504 438.137 231.875 438.137 232.29C438.137 232.725 438.049 233.118 437.874 233.469C437.698 233.821 437.446 234.121 437.119 234.37C436.792 234.619 436.399 234.812 435.94 234.949C435.486 235.081 434.978 235.146 434.417 235.146C433.923 235.146 433.438 235.078 432.959 234.941C432.485 234.805 432.053 234.6 431.663 234.326C431.277 234.053 430.967 233.716 430.732 233.315C430.503 232.91 430.388 232.441 430.388 231.909H431.794C431.794 232.275 431.865 232.59 432.007 232.854C432.148 233.113 432.341 233.328 432.585 233.499C432.834 233.669 433.115 233.796 433.428 233.879C433.745 233.958 434.075 233.997 434.417 233.997C434.91 233.997 435.327 233.928 435.669 233.792C436.011 233.655 436.27 233.459 436.445 233.206C436.626 232.952 436.716 232.651 436.716 232.305ZM443.879 224.336V235H442.488V224.336H443.879ZM447.307 224.336V225.493H439.067V224.336H447.307ZM456.895 229.331V230.005C456.895 230.806 456.794 231.523 456.594 232.158C456.394 232.793 456.106 233.333 455.73 233.777C455.354 234.221 454.902 234.561 454.375 234.795C453.853 235.029 453.267 235.146 452.617 235.146C451.987 235.146 451.409 235.029 450.881 234.795C450.359 234.561 449.905 234.221 449.519 233.777C449.138 233.333 448.843 232.793 448.633 232.158C448.423 231.523 448.318 230.806 448.318 230.005V229.331C448.318 228.53 448.42 227.815 448.625 227.185C448.835 226.55 449.131 226.011 449.512 225.566C449.893 225.117 450.344 224.775 450.867 224.541C451.394 224.307 451.973 224.189 452.603 224.189C453.252 224.189 453.838 224.307 454.36 224.541C454.888 224.775 455.339 225.117 455.715 225.566C456.096 226.011 456.387 226.55 456.587 227.185C456.792 227.815 456.895 228.53 456.895 229.331ZM455.496 230.005V229.316C455.496 228.682 455.43 228.12 455.298 227.632C455.171 227.144 454.983 226.733 454.734 226.401C454.485 226.069 454.18 225.818 453.818 225.647C453.462 225.476 453.057 225.391 452.603 225.391C452.163 225.391 451.765 225.476 451.409 225.647C451.057 225.818 450.754 226.069 450.5 226.401C450.251 226.733 450.059 227.144 449.922 227.632C449.785 228.12 449.717 228.682 449.717 229.316V230.005C449.717 230.645 449.785 231.211 449.922 231.704C450.059 232.192 450.254 232.605 450.508 232.942C450.767 233.274 451.072 233.525 451.423 233.696C451.78 233.867 452.178 233.953 452.617 233.953C453.076 233.953 453.484 233.867 453.84 233.696C454.197 233.525 454.497 233.274 454.741 232.942C454.99 232.605 455.178 232.192 455.305 231.704C455.432 231.211 455.496 230.645 455.496 230.005ZM459.011 224.336H462.542C463.342 224.336 464.019 224.458 464.57 224.702C465.127 224.946 465.549 225.308 465.837 225.786C466.13 226.26 466.277 226.843 466.277 227.537C466.277 228.025 466.177 228.472 465.977 228.877C465.781 229.277 465.498 229.619 465.127 229.902C464.761 230.181 464.321 230.388 463.809 230.525L463.413 230.679H460.095L460.081 229.529H462.585C463.093 229.529 463.516 229.441 463.853 229.265C464.189 229.084 464.443 228.843 464.614 228.54C464.785 228.237 464.871 227.903 464.871 227.537C464.871 227.126 464.79 226.768 464.629 226.46C464.468 226.152 464.214 225.916 463.867 225.75C463.525 225.579 463.083 225.493 462.542 225.493H460.425V235H459.011V224.336ZM465.244 235L462.651 230.166L464.124 230.159L466.753 234.912V235H465.244ZM468.394 224.336L471.162 229.69L473.938 224.336H475.542L471.865 231.016V235H470.452V231.016L466.775 224.336H468.394Z" fill="#808080"/>
    <rect x="242.5" y="319.5" width="75" height="29" rx="2.5" fill="#FDFDFD" stroke="#BF94A9"/>
    <path d="M260.729 336.168H262.042C261.974 336.797 261.794 337.36 261.502 337.857C261.21 338.354 260.798 338.748 260.265 339.04C259.731 339.327 259.066 339.47 258.269 339.47C257.685 339.47 257.154 339.361 256.676 339.142C256.202 338.923 255.794 338.613 255.452 338.212C255.11 337.807 254.846 337.321 254.659 336.756C254.477 336.187 254.386 335.553 254.386 334.856V333.865C254.386 333.167 254.477 332.536 254.659 331.971C254.846 331.402 255.113 330.914 255.459 330.508C255.81 330.103 256.231 329.791 256.724 329.572C257.216 329.353 257.77 329.244 258.385 329.244C259.137 329.244 259.772 329.385 260.292 329.667C260.812 329.95 261.215 330.342 261.502 330.843C261.794 331.34 261.974 331.917 262.042 332.573H260.729C260.666 332.108 260.547 331.709 260.374 331.376C260.201 331.039 259.955 330.779 259.636 330.597C259.317 330.415 258.9 330.324 258.385 330.324C257.943 330.324 257.553 330.408 257.216 330.577C256.883 330.745 256.603 330.985 256.375 331.294C256.152 331.604 255.983 331.976 255.869 332.409C255.755 332.842 255.698 333.322 255.698 333.851V334.856C255.698 335.344 255.748 335.802 255.849 336.23C255.953 336.658 256.111 337.034 256.32 337.358C256.53 337.681 256.797 337.937 257.12 338.124C257.444 338.306 257.826 338.397 258.269 338.397C258.829 338.397 259.276 338.308 259.608 338.13C259.941 337.953 260.192 337.697 260.36 337.365C260.534 337.032 260.657 336.633 260.729 336.168ZM267.524 330.262L264.229 339.333H262.883L266.677 329.38H267.545L267.524 330.262ZM270.286 339.333L266.984 330.262L266.964 329.38H267.832L271.64 339.333H270.286ZM270.115 335.649V336.729H264.523V335.649H270.115ZM280.629 329.38V339.333H279.303L274.292 331.657V339.333H272.973V329.38H274.292L279.323 337.078V329.38H280.629ZM288.976 336.168H290.288C290.22 336.797 290.04 337.36 289.748 337.857C289.456 338.354 289.044 338.748 288.511 339.04C287.978 339.327 287.312 339.47 286.515 339.47C285.931 339.47 285.4 339.361 284.922 339.142C284.448 338.923 284.04 338.613 283.698 338.212C283.356 337.807 283.092 337.321 282.905 336.756C282.723 336.187 282.632 335.553 282.632 334.856V333.865C282.632 333.167 282.723 332.536 282.905 331.971C283.092 331.402 283.359 330.914 283.705 330.508C284.056 330.103 284.478 329.791 284.97 329.572C285.462 329.353 286.016 329.244 286.631 329.244C287.383 329.244 288.019 329.385 288.538 329.667C289.058 329.95 289.461 330.342 289.748 330.843C290.04 331.34 290.22 331.917 290.288 332.573H288.976C288.912 332.108 288.793 331.709 288.62 331.376C288.447 331.039 288.201 330.779 287.882 330.597C287.563 330.415 287.146 330.324 286.631 330.324C286.189 330.324 285.799 330.408 285.462 330.577C285.129 330.745 284.849 330.985 284.621 331.294C284.398 331.604 284.229 331.976 284.115 332.409C284.001 332.842 283.944 333.322 283.944 333.851V334.856C283.944 335.344 283.994 335.802 284.095 336.23C284.2 336.658 284.357 337.034 284.566 337.358C284.776 337.681 285.043 337.937 285.366 338.124C285.69 338.306 286.073 338.397 286.515 338.397C287.075 338.397 287.522 338.308 287.854 338.13C288.187 337.953 288.438 337.697 288.606 337.365C288.78 337.032 288.903 336.633 288.976 336.168ZM298.409 338.26V339.333H293.139V338.26H298.409ZM293.405 329.38V339.333H292.086V329.38H293.405ZM297.712 333.66V334.733H293.139V333.66H297.712ZM298.341 329.38V330.46H293.139V329.38H298.341ZM306.079 338.26V339.333H301.103V338.26H306.079ZM301.362 329.38V339.333H300.043V329.38H301.362Z" fill="#822B55"/>
    <rect x="324" y="319" width="76" height="30" rx="3" fill="#822B55"/>
    <path d="M351.603 336.818C351.603 336.585 351.566 336.38 351.493 336.203C351.425 336.02 351.302 335.856 351.124 335.71C350.951 335.565 350.709 335.426 350.399 335.293C350.094 335.161 349.707 335.027 349.237 334.89C348.745 334.744 348.301 334.583 347.904 334.405C347.508 334.222 347.168 334.015 346.886 333.783C346.603 333.55 346.387 333.284 346.236 332.983C346.086 332.682 346.011 332.338 346.011 331.951C346.011 331.563 346.09 331.206 346.25 330.877C346.41 330.549 346.637 330.264 346.934 330.023C347.234 329.777 347.592 329.585 348.007 329.449C348.422 329.312 348.884 329.244 349.395 329.244C350.142 329.244 350.775 329.387 351.295 329.674C351.819 329.957 352.218 330.328 352.491 330.789C352.765 331.244 352.901 331.732 352.901 332.251H351.589C351.589 331.878 351.509 331.547 351.35 331.26C351.19 330.969 350.949 330.741 350.625 330.577C350.301 330.408 349.891 330.324 349.395 330.324C348.925 330.324 348.538 330.394 348.232 330.536C347.927 330.677 347.699 330.868 347.549 331.11C347.403 331.351 347.33 331.627 347.33 331.937C347.33 332.147 347.373 332.338 347.46 332.511C347.551 332.68 347.69 332.837 347.877 332.983C348.068 333.129 348.31 333.263 348.602 333.386C348.898 333.509 349.251 333.628 349.661 333.742C350.226 333.901 350.714 334.079 351.124 334.275C351.534 334.471 351.871 334.692 352.136 334.938C352.405 335.18 352.603 335.455 352.73 335.765C352.863 336.07 352.929 336.417 352.929 336.804C352.929 337.21 352.847 337.577 352.683 337.905C352.519 338.233 352.284 338.513 351.979 338.746C351.673 338.978 351.306 339.158 350.878 339.286C350.454 339.409 349.98 339.47 349.456 339.47C348.996 339.47 348.542 339.406 348.096 339.279C347.654 339.151 347.25 338.96 346.886 338.705C346.526 338.449 346.236 338.135 346.018 337.761C345.803 337.383 345.696 336.945 345.696 336.449H347.009C347.009 336.791 347.075 337.084 347.207 337.331C347.339 337.572 347.519 337.773 347.747 337.932C347.979 338.092 348.242 338.21 348.533 338.288C348.829 338.361 349.137 338.397 349.456 338.397C349.916 338.397 350.306 338.333 350.625 338.206C350.944 338.078 351.186 337.896 351.35 337.659C351.518 337.422 351.603 337.141 351.603 336.818ZM358.295 330.262L355 339.333H353.653L357.447 329.38H358.315L358.295 330.262ZM361.057 339.333L357.755 330.262L357.734 329.38H358.603L362.41 339.333H361.057ZM360.886 335.649V336.729H355.294V335.649H360.886ZM366.354 337.823L369.287 329.38H370.716L367.031 339.333H366.013L366.354 337.823ZM363.613 329.38L366.519 337.823L366.881 339.333H365.862L362.185 329.38H363.613ZM378.379 338.26V339.333H373.108V338.26H378.379ZM373.375 329.38V339.333H372.056V329.38H373.375ZM377.682 333.66V334.733H373.108V333.66H377.682ZM378.311 329.38V330.46H373.108V329.38H378.311Z" fill="white"/>
    <path d="M534.892 223.303C534.502 222.913 533.872 222.913 533.482 223.303L528.593 228.183L523.703 223.292C523.313 222.903 522.683 222.903 522.292 223.292C521.903 223.683 521.903 224.313 522.292 224.703L527.183 229.593L522.292 234.482C521.903 234.872 521.903 235.502 522.292 235.892C522.683 236.282 523.313 236.282 523.703 235.892L528.593 231.002L533.482 235.892C533.872 236.282 534.502 236.282 534.892 235.892C535.282 235.502 535.282 234.872 534.892 234.482L530.002 229.593L534.892 224.703C535.272 224.323 535.272 223.683 534.892 223.303Z" fill="#808080"/>
    <path d="M430.288 326.886L420.288 336.886C419.898 337.276 419.268 337.276 418.878 336.886L416.048 334.056C415.658 333.666 415.658 333.036 416.048 332.646C416.438 332.256 417.068 332.256 417.458 332.646L419.578 334.766L428.868 325.476C429.258 325.086 429.888 325.086 430.278 325.476C430.678 325.866 430.678 326.496 430.288 326.886ZM424.768 323.736C423.078 323.046 421.158 322.806 419.158 323.166C415.088 323.896 411.838 327.176 411.148 331.246C410.008 337.996 415.628 343.776 422.338 342.906C426.298 342.396 429.618 339.446 430.658 335.596C431.058 334.126 431.098 332.706 430.868 331.376C430.738 330.576 429.748 330.266 429.168 330.836C428.938 331.066 428.838 331.406 428.898 331.726C429.118 333.056 429.018 334.476 428.378 335.986C427.218 338.696 424.698 340.686 421.768 340.956C416.668 341.426 412.438 337.106 413.068 331.976C413.498 328.436 416.348 325.556 419.878 325.066C421.608 324.826 423.248 325.156 424.648 325.876C425.038 326.076 425.508 326.006 425.818 325.696C426.298 325.216 426.178 324.406 425.578 324.096C425.308 323.976 425.038 323.846 424.768 323.736Z" fill="#808080"/>
    <mask id="mask0_546_11248" style="mask-type:alpha" maskUnits="userSpaceOnUse" x="24" y="221" width="18" height="18">
        <circle cx="33" cy="230" r="8.5" fill="#C4C4C4"/>
        <circle cx="33" cy="230" r="8.5" stroke="black"/>
        <circle cx="33" cy="230" r="8.5" stroke="url(#paint0_linear_546_11248)"/>
    </mask>
    <g mask="url(#mask0_546_11248)">
        <path fill-rule="evenodd" clip-rule="evenodd" d="M21 221H45V239H21V221Z" fill="#E80000"/>
        <path fill-rule="evenodd" clip-rule="evenodd" d="M21 221H45V230H21V221Z" fill="white"/>
        <path fill-rule="evenodd" clip-rule="evenodd" d="M21 221L32.9644 230L21 239V221Z" fill="#00006F"/>
        <circle cx="33" cy="230" r="8.5" stroke="#C4C4C4"/>
    </g>
    <rect x="76" y="240" width="135" height="7" rx="3.5" fill="#D1D3D8"/>
    <rect x="76" y="227" width="135" height="7" rx="3.5" fill="#D1D3D8"/>
    <path d="M9 218C9 215.239 11.2386 213 14 213V363C11.2386 363 9 360.761 9 358V218Z" fill="#FFC625"/>
    <path d="M416.036 106.6C417.596 105.895 419.001 104.933 420.579 104.451C422.859 103.78 425.242 103.28 427.66 103.226C442.563 102.781 456.253 106.916 467.051 117.109C478.004 127.559 482.375 141.034 479.39 156.249C477.923 163.899 474.792 170.917 470.546 177.438C469.742 178.623 469.022 179.755 467.79 181.78C470.945 181.4 473.346 181.123 475.832 180.794C475.901 181.103 476.056 181.36 476.176 181.754C475.628 182.201 475.183 182.818 474.531 183.094C471.377 184.64 468.172 186.102 464.966 187.563C462.841 188.491 460.681 189.557 458.536 187.93C456.253 186.269 456.404 183.61 456.985 181.277C457.856 178.069 459.087 174.878 460.37 171.773C460.678 171.121 461.827 170.897 462.598 170.433C463.062 171.204 463.886 171.992 463.853 172.712C463.667 174.925 463.069 177.035 462.574 179.316C462.882 179.247 463.157 179.316 463.191 179.178C478.023 161.155 481.002 140.692 467.28 122.339C466.627 121.448 465.889 120.609 464.979 119.872C452.894 109.287 438.929 104.5 422.861 106.112C420.769 106.32 418.678 107.111 416.569 107.679C416.363 107.337 416.242 106.942 416.036 106.6Z" fill="#069C51"/>
    <path d="M106.806 191.916C105.131 191.565 103.429 191.512 101.871 190.97C99.6338 190.166 97.4148 189.164 95.4307 187.78C83.1371 179.345 74.5256 167.927 71.823 153.326C69.1473 138.427 73.571 124.969 84.9596 114.447C90.6584 109.136 97.3273 105.318 104.604 102.559C105.952 102.078 107.201 101.588 109.391 100.681C106.62 99.1262 104.518 97.9331 102.317 96.731C102.443 96.4412 102.47 96.1424 102.606 95.753C103.312 95.7161 104.036 95.48 104.724 95.6423C108.183 96.2547 111.633 96.9667 115.083 97.6788C117.347 98.1836 119.72 98.5979 120.491 101.177C121.354 103.866 119.663 105.922 117.818 107.463C115.221 109.539 112.344 111.388 109.475 113.138C108.842 113.483 107.782 112.986 106.886 112.905C106.967 112.009 106.766 110.887 107.218 110.325C108.675 108.649 110.402 107.298 112.148 105.748C111.859 105.622 111.677 105.405 111.569 105.495C88.9583 111.293 74.4773 126.054 74.7251 148.969C74.7261 150.073 74.8268 151.187 75.1266 152.318C78.6359 167.996 87.0852 180.102 101.008 188.282C102.82 189.349 104.975 189.944 107.013 190.73C106.977 191.128 106.842 191.518 106.806 191.916Z" fill="#D1D3D8"/>
    <defs>
        <filter id="filter0_d_546_11248" x="0" y="203" width="557" height="170" filterUnits="userSpaceOnUse" color-interpolation-filters="sRGB">
            <feFlood flood-opacity="0" result="BackgroundImageFix"/>
            <feColorMatrix in="SourceAlpha" type="matrix" values="0 0 0 0 0 0 0 0 0 0 0 0 0 0 0 0 0 0 127 0" result="hardAlpha"/>
            <feOffset/>
            <feGaussianBlur stdDeviation="5"/>
            <feComposite in2="hardAlpha" operator="out"/>
            <feColorMatrix type="matrix" values="0 0 0 0 0 0 0 0 0 0 0 0 0 0 0 0 0 0 0.25 0"/>
            <feBlend mode="normal" in2="BackgroundImageFix" result="effect1_dropShadow_546_11248"/>
            <feBlend mode="normal" in="SourceGraphic" in2="effect1_dropShadow_546_11248" result="shape"/>
        </filter>
        <filter id="filter1_d_546_11248" x="136" y="0" width="275" height="204" filterUnits="userSpaceOnUse" color-interpolation-filters="sRGB">
            <feFlood flood-opacity="0" result="BackgroundImageFix"/>
            <feColorMatrix in="SourceAlpha" type="matrix" values="0 0 0 0 0 0 0 0 0 0 0 0 0 0 0 0 0 0 127 0" result="hardAlpha"/>
            <feOffset/>
            <feGaussianBlur stdDeviation="5"/>
            <feComposite in2="hardAlpha" operator="out"/>
            <feColorMatrix type="matrix" values="0 0 0 0 0 0 0 0 0 0 0 0 0 0 0 0 0 0 0.25 0"/>
            <feBlend mode="normal" in2="BackgroundImageFix" result="effect1_dropShadow_546_11248"/>
            <feBlend mode="normal" in="SourceGraphic" in2="effect1_dropShadow_546_11248" result="shape"/>
        </filter>
        <linearGradient id="paint0_linear_546_11248" x1="33" y1="221" x2="33" y2="239" gradientUnits="userSpaceOnUse">
            <stop stop-color="white"/>
            <stop offset="1" stop-color="white" stop-opacity="0"/>
        </linearGradient>
    </defs>
</svg>
