<svg xmlns="http://www.w3.org/2000/svg" width="91.75" height="33.78" viewBox="0 0 91.75 33.78"><defs><style>.a,.b{fill:#822b55;}.b{fill-rule:evenodd;}</style></defs><path class="a" d="M31,47.6a3,3,0,0,0-.33,4.29,3,3,0,0,0,.87.67.57.57,0,0,1-.51,1,4.08,4.08,0,0,1-2-2.28,12.89,12.89,0,0,0-5.79,3.18c-4.8,4.25-6,10.8-2.86,14.92a7,7,0,0,0-1.56,3.27,3.64,3.64,0,0,0,1,3.16c1.61,1.68,3.75,1.24,5.47.9,1.15-.24,2.24-.46,2.89,0s.61.67.63.78c.37,1.63-1,2.43-1.34,2.84a.26.26,0,0,0,.2.42A3.57,3.57,0,0,0,29.8,80a3,3,0,0,0,1-2.86l-.06-.27a3.26,3.26,0,0,0-1.51-1.95c-1.35-.86-3-.53-4.41-.24-1.71.34-2.8.5-3.56-.3A1.61,1.61,0,0,1,20.86,73a4.93,4.93,0,0,1,1-2.08c3.8,3,10,2.36,14.47-1.64A13.32,13.32,0,0,0,40,64.32a4,4,0,0,1-2.37-2.41.56.56,0,0,1,1.06-.38,3,3,0,0,0,.56.94,2.95,2.95,0,1,0,2-4.9.57.57,0,0,1-.59-.51.56.56,0,0,1,.5-.62,4.13,4.13,0,0,1,2.26.47c.45-2.46.58-5.5-.36-6.56-.72-.81-3.61-1.41-6.16-1.36a4.15,4.15,0,0,1,0,1.72.56.56,0,0,1-.66.43.55.55,0,0,1-.45-.65,3,3,0,0,0-1.36-3.12A3,3,0,0,0,31,47.6Zm11.07,3.68a.94.94,0,0,1-.1,1.08c-.23.2-.48-.09-.72-.36s-.54-.6-.32-.8A1,1,0,0,1,42.07,51.28Z" transform="translate(-18.63 -46.94)"/><path class="b" d="M88.68,68.84a5.13,5.13,0,0,1-.43,2.08,5.32,5.32,0,0,1-1.15,1.7,5.54,5.54,0,0,1-1.71,1.15,5.33,5.33,0,0,1-2.08.42l-1.35,0V71.49l1.33,0a3.27,3.27,0,0,0,1.07-.16,2.17,2.17,0,0,0,1.23-1.09,4.11,4.11,0,0,0,.29-.76,1.18,1.18,0,0,1-.45.41,2.8,2.8,0,0,1-.65.27,4,4,0,0,1-.75.14,5.79,5.79,0,0,1-.72,0A5.56,5.56,0,0,1,81.22,70a5,5,0,0,1-2.86-2.84,6.15,6.15,0,0,1-.42-2.32,5.75,5.75,0,0,1,.42-2.21,5.49,5.49,0,0,1,1.16-1.77,5.24,5.24,0,0,1,1.7-1.16,5.18,5.18,0,0,1,2.09-.43,4.3,4.3,0,0,1,1,.13,5.59,5.59,0,0,1,1.87.88,7.19,7.19,0,0,1,.8.66l1-1.24h.65ZM94.9,67.6a1.55,1.55,0,0,0,.31.06h.31a2.78,2.78,0,0,0,.76-.1,3.22,3.22,0,0,0,.68-.31,2.65,2.65,0,0,0,1-1.14l2,2a5.55,5.55,0,0,1-.86,1,5,5,0,0,1-1.05.71,5,5,0,0,1-1.19.45,5.53,5.53,0,0,1-1.28.15,5.28,5.28,0,0,1-3.79-1.56,5.22,5.22,0,0,1-1.15-1.75,5.9,5.9,0,0,1-.43-2.23,6,6,0,0,1,.43-2.28,5.12,5.12,0,0,1,2.86-2.88,5.4,5.4,0,0,1,3.37-.25,5.71,5.71,0,0,1,1.19.45,5.43,5.43,0,0,1,1,.72,5.64,5.64,0,0,1,.87,1Zm10.47,0a1.55,1.55,0,0,0,.31.06H106a2.78,2.78,0,0,0,.76-.1,3.22,3.22,0,0,0,.68-.31,2.68,2.68,0,0,0,.57-.49,2.74,2.74,0,0,0,.41-.65l2,2a5.55,5.55,0,0,1-.86,1,5,5,0,0,1-1.05.71,5.2,5.2,0,0,1-1.19.45,5.53,5.53,0,0,1-1.28.15,5.28,5.28,0,0,1-3.79-1.56,5.22,5.22,0,0,1-1.15-1.75,5.71,5.71,0,0,1-.43-2.23,6,6,0,0,1,.43-2.28,5.12,5.12,0,0,1,2.86-2.88,5.51,5.51,0,0,1,2.08-.41,5.62,5.62,0,0,1,1.29.16,5.71,5.71,0,0,1,1.19.45,5.43,5.43,0,0,1,1,.72,5.64,5.64,0,0,1,.87,1ZM72.28,64.82A5.84,5.84,0,0,1,71.86,67a5.7,5.7,0,0,1-1.15,1.76A5.47,5.47,0,0,1,69,69.93,5.33,5.33,0,0,1,62,67a5.7,5.7,0,0,1-.43-2.19A5.81,5.81,0,0,1,62,62.6a5.16,5.16,0,0,1,1.15-1.76,5.24,5.24,0,0,1,1.71-1.16,5.1,5.1,0,0,1,2.08-.43,5.6,5.6,0,0,1,2.1.4,5.21,5.21,0,0,1,1.7,1.13,5.47,5.47,0,0,1,1.15,1.76,5.91,5.91,0,0,1,.42,2.28ZM58.34,70.17h-2.8V58.91H51.31V56.09H62.56v2.82H58.34Zm18.12,0h-2.7V55.48h2.7Zm-6.88-5.35a3.32,3.32,0,0,0-.21-1.17,2.72,2.72,0,0,0-.58-.91,2.58,2.58,0,0,0-.84-.58,2.87,2.87,0,0,0-2.08,0,2.53,2.53,0,0,0-.84.58,2.67,2.67,0,0,0-.56.91,3.11,3.11,0,0,0-.21,1.17A3.14,3.14,0,0,0,64.47,66a2.9,2.9,0,0,0,.56.9,2.75,2.75,0,0,0,.84.6,2.34,2.34,0,0,0,1,.22,2.47,2.47,0,0,0,1-.2,2.69,2.69,0,0,0,.84-.58,2.78,2.78,0,0,0,.58-.9,3.36,3.36,0,0,0,.21-1.17Zm16.4,0a2.81,2.81,0,0,0-.22-1.07,2.9,2.9,0,0,0-.57-.91,3,3,0,0,0-.85-.64,2.29,2.29,0,0,0-1-.24,2.82,2.82,0,0,0-1,.19,2.36,2.36,0,0,0-.84.55,2.65,2.65,0,0,0-.57.9,3.36,3.36,0,0,0-.2,1.22,3.19,3.19,0,0,0,.2,1.18,2.75,2.75,0,0,0,.57.9,2.41,2.41,0,0,0,.84.57,2.64,2.64,0,0,0,1,.2,2.29,2.29,0,0,0,1-.24,2.8,2.8,0,0,0,.85-.64,2.69,2.69,0,0,0,.57-.91A2.79,2.79,0,0,0,86,64.82Zm10.29-2.75A1.18,1.18,0,0,0,95.9,62l-.37,0a2.83,2.83,0,0,0-1,.2,2.35,2.35,0,0,0-.84.58,2.61,2.61,0,0,0-.57.89,3.2,3.2,0,0,0-.2,1.19c0,.1,0,.21,0,.33s0,.25,0,.38,0,.25.08.37a1.69,1.69,0,0,0,.13.31Zm10.47,0a1.18,1.18,0,0,0-.37-.09L106,62a2.83,2.83,0,0,0-1,.2,2.35,2.35,0,0,0-.84.58,2.61,2.61,0,0,0-.57.89,3.2,3.2,0,0,0-.2,1.19c0,.09,0,.21,0,.33s0,.25,0,.38,0,.25.08.37a1.69,1.69,0,0,0,.13.31Z" transform="translate(-18.63 -46.94)"/></svg>