<?xml version="1.0" encoding="UTF-8" standalone="no"?>
<!DOCTYPE svg PUBLIC "-//W3C//DTD SVG 1.1//EN" "http://www.w3.org/Graphics/SVG/1.1/DTD/svg11.dtd">
<svg width="100%" height="100%" viewBox="0 0 2481 2481" version="1.1" xmlns="http://www.w3.org/2000/svg"
     xml:space="preserve"
     style="fill-rule:evenodd;clip-rule:evenodd;stroke-linejoin:round;stroke-miterlimit:2;">
    <g transform="matrix(1,0,0,1,-0.343033,97.3704)">
        <path d="M831.451,1420.13C810.806,1506.67 765.481,1599.4 731.965,1616.56C687.673,1639.24 586.199,1608.47 506.844,1571.68C525.498,1551.45 537.703,1526.29 542.371,1499.55C544.246,1488.82 537.053,1478.57 526.318,1476.71C515.582,1474.83 505.345,1482.03 503.472,1492.76C498.118,1523.43 479.069,1551.26 449.386,1566.46C398.939,1592.28 336.89,1571.89 310.87,1521.06C284.851,1470.25 304.584,1407.98 355.032,1382.16C366.861,1376.09 379.328,1372.57 391.822,1371.4C402.672,1370.37 410.652,1360.74 409.631,1349.89C408.611,1339.05 398.974,1331.06 388.126,1332.09C370.778,1333.71 353.462,1338.59 337.037,1347C315.993,1357.77 298.792,1373.12 286.012,1391.26C230.466,1349.78 187.568,1296.03 151.391,1225.36C45.467,1018.46 96.83,780.156 266.021,693.537C435.213,606.919 658.571,704.576 764.497,911.476C804.088,988.809 823.758,1059.32 821.617,1135.01C803.876,1136.53 786.148,1141.44 769.353,1150.03C752.929,1158.45 738.849,1169.65 727.383,1182.76C720.212,1190.97 721.052,1203.45 729.258,1210.62C737.464,1217.79 749.947,1216.95 757.118,1208.76C765.375,1199.3 775.519,1191.24 787.348,1185.19C837.795,1159.37 899.845,1179.76 925.864,1230.57C951.883,1281.4 932.151,1343.66 881.704,1369.49C852.02,1384.68 818.305,1383.86 790.294,1370.28C780.49,1365.53 768.669,1369.63 763.913,1379.42C759.157,1389.23 763.256,1401.05 773.06,1405.82C791.25,1414.63 811.174,1419.56 831.451,1420.13ZM691.392,1542.19C702.676,1536.41 716.364,1529.04 721.155,1538.4C725.947,1547.75 720.038,1570.33 708.754,1576.11C697.472,1581.89 677.75,1572.68 672.959,1563.31C668.169,1553.96 680.11,1547.98 691.392,1542.19ZM1871.62,1237.97C1871.62,1255.46 1868.29,1271.87 1861.63,1287.19C1854.98,1302.51 1845.88,1315.9 1834.35,1327.36C1822.82,1338.81 1809.36,1347.87 1793.95,1354.52C1778.55,1361.18 1762.11,1364.5 1744.62,1364.5L1712.81,1364.04L1712.81,1300.66L1744.15,1301.12C1754.06,1301.12 1762.5,1299.84 1769.46,1297.29C1776.42,1294.74 1782.31,1291.25 1787.11,1286.84C1791.9,1282.43 1795.73,1277.36 1798.6,1271.64C1801.46,1265.91 1803.74,1259.87 1805.45,1253.53C1802.97,1257.55 1799.41,1260.84 1794.77,1263.39C1790.12,1265.95 1784.98,1268.04 1779.33,1269.66C1773.68,1271.29 1767.8,1272.41 1761.68,1273.03C1755.57,1273.65 1749.88,1273.96 1744.62,1273.96C1727.13,1273.96 1710.68,1270.94 1695.28,1264.9C1679.88,1258.87 1666.41,1250.24 1654.88,1239.02C1643.35,1227.79 1634.26,1214.06 1627.6,1197.81C1620.95,1181.55 1617.62,1163.21 1617.62,1142.78C1617.62,1124.05 1620.95,1106.64 1627.6,1090.54C1634.26,1074.45 1643.35,1060.52 1654.88,1048.75C1666.41,1036.99 1679.88,1027.78 1695.28,1021.12C1710.68,1014.47 1727.13,1011.14 1744.62,1011.14C1752.67,1011.14 1760.64,1012.15 1768.53,1014.16C1776.42,1016.17 1784.09,1018.96 1791.52,1022.52C1798.95,1026.08 1806.03,1030.26 1812.76,1035.06C1819.49,1039.85 1825.8,1045.04 1831.68,1050.61L1856.29,1021.12L1871.62,1021.12L1871.62,1237.97ZM2018.81,1208.49C2021.29,1209.26 2023.76,1209.76 2026.24,1209.99C2028.72,1210.23 2031.19,1210.34 2033.67,1210.34C2039.86,1210.34 2045.82,1209.49 2051.55,1207.79C2057.27,1206.09 2062.65,1203.65 2067.68,1200.48C2072.71,1197.3 2077.2,1193.43 2081.15,1188.87C2085.1,1184.3 2088.31,1179.23 2090.78,1173.66L2137.22,1220.33C2131.34,1228.68 2124.56,1236.19 2116.9,1242.85C2109.24,1249.5 2100.96,1255.15 2092.06,1259.8C2083.16,1264.44 2073.8,1267.96 2063.97,1270.36C2054.14,1272.76 2044.04,1273.96 2033.67,1273.96C2016.18,1273.96 1999.73,1270.71 1984.33,1264.21C1968.93,1257.7 1955.47,1248.65 1943.94,1237.04C1932.4,1225.43 1923.31,1211.62 1916.66,1195.6C1910,1179.58 1906.67,1161.97 1906.67,1142.78C1906.67,1123.12 1910,1105.17 1916.66,1088.92C1923.31,1072.67 1932.4,1058.81 1943.94,1047.36C1955.47,1035.91 1968.93,1027.01 1984.33,1020.66C1999.73,1014.31 2016.18,1011.14 2033.67,1011.14C2044.04,1011.14 2054.18,1012.38 2064.08,1014.86C2073.99,1017.33 2083.39,1020.89 2092.29,1025.54C2101.19,1030.18 2109.51,1035.87 2117.25,1042.6C2124.99,1049.33 2131.8,1056.88 2137.68,1065.24L2018.81,1208.49ZM2266.54,1208.49C2269.01,1209.26 2271.49,1209.76 2273.97,1209.99C2276.44,1210.23 2278.92,1210.34 2281.39,1210.34C2287.59,1210.34 2293.55,1209.49 2299.27,1207.79C2305,1206.09 2310.38,1203.65 2315.41,1200.48C2320.44,1197.3 2324.93,1193.43 2328.87,1188.87C2332.82,1184.3 2336.03,1179.23 2338.51,1173.66L2384.94,1220.33C2379.06,1228.68 2372.29,1236.19 2364.63,1242.85C2356.97,1249.5 2348.68,1255.15 2339.78,1259.8C2330.89,1264.44 2321.52,1267.96 2311.69,1270.36C2301.86,1272.76 2291.76,1273.96 2281.39,1273.96C2263.9,1273.96 2247.46,1270.71 2232.06,1264.21C2216.66,1257.7 2203.19,1248.65 2191.66,1237.04C2180.13,1225.43 2171.04,1211.62 2164.38,1195.6C2157.72,1179.58 2154.4,1161.97 2154.4,1142.78C2154.4,1123.12 2157.72,1105.17 2164.38,1088.92C2171.04,1072.67 2180.13,1058.81 2191.66,1047.36C2203.19,1035.91 2216.66,1027.01 2232.06,1020.66C2247.46,1014.31 2263.9,1011.14 2281.39,1011.14C2291.76,1011.14 2301.9,1012.38 2311.81,1014.86C2321.72,1017.33 2331.12,1020.89 2340.02,1025.54C2348.92,1030.18 2357.24,1035.87 2364.98,1042.6C2372.72,1049.33 2379.53,1056.88 2385.41,1065.24L2266.54,1208.49ZM1483.66,1142.78C1483.66,1161.36 1480.33,1178.65 1473.68,1194.67C1467.02,1210.69 1457.97,1224.54 1446.51,1236.23C1435.06,1247.92 1421.63,1257.12 1406.23,1263.86C1390.83,1270.59 1374.31,1273.96 1356.66,1273.96C1339.17,1273.96 1322.73,1270.59 1307.33,1263.86C1291.93,1257.12 1278.46,1247.92 1266.93,1236.23C1255.4,1224.54 1246.3,1210.69 1239.65,1194.67C1232.99,1178.65 1229.66,1161.36 1229.66,1142.78C1229.66,1123.9 1232.99,1106.41 1239.65,1090.31C1246.3,1074.21 1255.4,1060.32 1266.93,1048.64C1278.46,1036.95 1291.93,1027.78 1307.33,1021.12C1322.73,1014.47 1339.17,1011.14 1356.66,1011.14C1374.31,1011.14 1390.83,1014.27 1406.23,1020.54C1421.63,1026.81 1435.06,1035.71 1446.51,1047.24C1457.97,1058.78 1467.02,1072.63 1473.68,1088.8C1480.33,1104.98 1483.66,1122.97 1483.66,1142.78ZM1153.98,1269.31L1087.58,1269.31L1087.58,1003.01L987.512,1003.01L987.512,936.382L1253.81,936.382L1253.81,1003.01L1153.98,1003.01L1153.98,1269.31ZM1582.56,1269.31L1518.72,1269.31L1518.72,921.756L1582.56,921.756L1582.56,1269.31ZM1419.81,1142.78C1419.81,1132.57 1418.15,1123.32 1414.82,1115.04C1411.49,1106.76 1406.97,1099.64 1401.24,1093.68C1395.51,1087.72 1388.82,1083.15 1381.16,1079.98C1373.5,1076.81 1365.33,1075.22 1356.66,1075.22C1348,1075.22 1339.83,1076.81 1332.17,1079.98C1324.51,1083.15 1317.85,1087.72 1312.2,1093.68C1306.55,1099.64 1302.1,1106.76 1298.85,1115.04C1295.6,1123.32 1293.98,1132.57 1293.98,1142.78C1293.98,1152.38 1295.6,1161.28 1298.85,1169.48C1302.1,1177.68 1306.55,1184.8 1312.2,1190.84C1317.85,1196.88 1324.51,1201.64 1332.17,1205.12C1339.83,1208.6 1348,1210.34 1356.66,1210.34C1365.33,1210.34 1373.5,1208.72 1381.16,1205.47C1388.82,1202.22 1395.51,1197.65 1401.24,1191.77C1406.97,1185.89 1411.49,1178.77 1414.82,1170.41C1418.15,1162.05 1419.81,1152.84 1419.81,1142.78ZM1807.77,1142.78C1807.77,1134.11 1806.1,1125.72 1802.78,1117.59C1799.45,1109.46 1794.92,1102.27 1789.19,1096C1783.47,1089.73 1776.77,1084.7 1769.11,1080.91C1761.45,1077.12 1753.29,1075.22 1744.62,1075.22C1735.95,1075.22 1727.79,1076.69 1720.12,1079.63C1712.46,1082.57 1705.81,1086.91 1700.16,1092.63C1694.51,1098.36 1690.06,1105.44 1686.81,1113.88C1683.56,1122.31 1681.93,1131.95 1681.93,1142.78C1681.93,1153.15 1683.56,1162.48 1686.81,1170.76C1690.06,1179.04 1694.51,1186.12 1700.16,1192C1705.81,1197.88 1712.46,1202.41 1720.12,1205.58C1727.79,1208.76 1735.95,1210.34 1744.62,1210.34C1753.29,1210.34 1761.45,1208.45 1769.11,1204.65C1776.77,1200.86 1783.47,1195.83 1789.19,1189.56C1794.92,1183.3 1799.45,1176.1 1802.78,1167.97C1806.1,1159.85 1807.77,1151.45 1807.77,1142.78ZM2051.31,1077.77C2048.37,1076.69 2045.47,1075.99 2042.61,1075.68C2039.75,1075.38 2036.77,1075.22 2033.67,1075.22C2025,1075.22 2016.84,1076.81 2009.17,1079.98C2001.51,1083.15 1994.86,1087.68 1989.21,1093.56C1983.56,1099.44 1979.11,1106.52 1975.86,1114.81C1972.61,1123.09 1970.98,1132.41 1970.98,1142.78C1970.98,1145.1 1971.1,1147.73 1971.33,1150.67C1971.56,1153.62 1971.95,1156.6 1972.49,1159.61C1973.03,1162.63 1973.69,1165.53 1974.47,1168.32C1975.24,1171.11 1976.25,1173.58 1977.48,1175.75L2051.31,1077.77ZM2299.04,1077.77C2296.1,1076.69 2293.2,1075.99 2290.33,1075.68C2287.47,1075.38 2284.49,1075.22 2281.39,1075.22C2272.73,1075.22 2264.56,1076.81 2256.9,1079.98C2249.24,1083.15 2242.58,1087.68 2236.93,1093.56C2231.28,1099.44 2226.84,1106.52 2223.58,1114.81C2220.33,1123.09 2218.71,1132.41 2218.71,1142.78C2218.71,1145.1 2218.83,1147.73 2219.06,1150.67C2219.29,1153.62 2219.68,1156.6 2220.22,1159.61C2220.76,1162.63 2221.42,1165.53 2222.19,1168.32C2222.97,1171.11 2223.97,1173.58 2225.21,1175.75L2299.04,1077.77Z" style="fill:rgb(130,43,85);"/>
    </g>
</svg>
