<svg width="102" height="37" viewBox="0 0 102 37" fill="none" xmlns="http://www.w3.org/2000/svg">
<path d="M13.5797 0.731472C13.1594 1.07536 12.8317 1.51809 12.6262 2.0197C12.4208 2.5213 12.344 3.06598 12.4029 3.60453C12.4618 4.14308 12.6544 4.65854 12.9635 5.10436C13.2725 5.55019 13.6882 5.91233 14.173 6.15808C14.2904 6.2464 14.3729 6.37307 14.4059 6.51588C14.4389 6.65869 14.4203 6.8085 14.3534 6.93905C14.2866 7.06959 14.1757 7.17252 14.0403 7.22977C13.9048 7.28703 13.7534 7.29495 13.6127 7.25215C12.5856 6.73271 11.7988 5.83943 11.4154 4.75766C9.02761 5.34745 6.83526 6.54654 5.05437 8.23682C-0.219057 12.8866 -1.53741 20.0528 1.91228 24.5604C1.03562 25.5825 0.444538 26.8164 0.198422 28.138C0.0936907 28.7597 0.138674 29.3974 0.32967 29.9984C0.520665 30.5994 0.852216 31.1467 1.29705 31.5953C3.06585 33.4333 5.41692 32.9519 7.30656 32.5799C8.56999 32.3174 9.76749 32.0767 10.4816 32.5799C11.1957 33.0832 11.1518 33.313 11.1737 33.4333C11.5802 35.2167 10.0751 36.0919 9.70157 36.5405C9.66891 36.5821 9.64854 36.632 9.64275 36.6846C9.63696 36.7371 9.64598 36.7902 9.66879 36.8379C9.6916 36.8856 9.72731 36.926 9.77191 36.9547C9.81651 36.9833 9.86824 36.999 9.9213 37C10.7699 36.9858 11.5911 36.6979 12.2614 36.1794C12.7069 35.8019 13.0434 35.3131 13.2365 34.7632C13.4296 34.2133 13.4722 33.6221 13.36 33.0504L13.2941 32.755C13.043 31.855 12.4473 31.0889 11.6352 30.6216C10.152 29.6806 8.33927 30.0417 6.7902 30.359C4.91155 30.731 3.71404 30.906 2.87908 30.0308C2.69344 29.8302 2.55711 29.5894 2.48085 29.3274C2.40459 29.0654 2.39048 28.7893 2.43963 28.5209C2.61988 27.6865 2.9964 26.9066 3.53826 26.2453C7.71305 29.5275 14.5246 28.8273 19.4354 24.451C21.1874 22.9813 22.5684 21.1226 23.4674 19.0244C22.8665 18.8008 22.3219 18.4489 21.8721 17.9934C21.4223 17.5379 21.0781 16.9898 20.8637 16.3877C20.8362 16.3115 20.8242 16.2307 20.8281 16.1499C20.832 16.0691 20.8519 15.9899 20.8866 15.9168C20.9213 15.8436 20.9701 15.778 21.0303 15.7236C21.0904 15.6693 21.1607 15.6272 21.2372 15.5999C21.3137 15.5726 21.3948 15.5606 21.4759 15.5645C21.557 15.5684 21.6366 15.5882 21.7101 15.6228C21.7835 15.6573 21.8494 15.7059 21.904 15.7658C21.9586 15.8257 22.0008 15.8958 22.0282 15.9719C22.1682 16.3494 22.3768 16.698 22.6434 17.0003C23.0089 17.4108 23.4734 17.7217 23.993 17.9036C24.5127 18.0856 25.0703 18.1327 25.6133 18.0405C26.1563 17.9482 26.6667 17.7197 27.0964 17.3764C27.5261 17.0331 27.8608 16.5865 28.0689 16.0786C28.2771 15.5707 28.3518 15.0184 28.2861 14.4738C28.2203 13.9291 28.0163 13.4102 27.6932 12.9659C27.3701 12.5216 26.9387 12.1666 26.4396 11.9345C25.9405 11.7024 25.3902 11.6009 24.8407 11.6394C24.6817 11.6458 24.5262 11.5917 24.4058 11.4881C24.2854 11.3844 24.2091 11.239 24.1925 11.0814C24.1834 11.0009 24.1904 10.9193 24.2131 10.8415C24.2358 10.7637 24.2739 10.6911 24.325 10.628C24.376 10.5649 24.4392 10.5126 24.5108 10.474C24.5823 10.4353 24.6609 10.4113 24.7418 10.4031C25.6017 10.336 26.463 10.5144 27.2247 10.9173C27.7191 8.22588 27.8619 4.89989 26.8292 3.74017C26.0382 2.85397 22.8632 2.19753 20.0617 2.25224C20.1936 2.87262 20.1936 3.51365 20.0617 4.13404C20.0274 4.29174 19.932 4.4296 19.7962 4.51769C19.6604 4.60577 19.4953 4.63696 19.3366 4.60449C19.2566 4.59137 19.1801 4.56237 19.1117 4.51921C19.0432 4.47606 18.9841 4.41963 18.938 4.35328C18.8919 4.28693 18.8596 4.21202 18.8432 4.13301C18.8267 4.05399 18.8264 3.97249 18.8422 3.89335C18.9752 3.23659 18.9012 2.55493 18.6303 1.94165C18.3594 1.32837 17.9049 0.813444 17.3288 0.467328C16.7527 0.121212 16.0834 -0.0391765 15.4123 0.00810692C14.7412 0.0553904 14.1011 0.308035 13.5797 0.731472ZM25.7416 4.75766C25.8481 4.94179 25.8947 5.15425 25.875 5.36583C25.8554 5.57742 25.7704 5.77774 25.6317 5.93926C25.379 6.15808 25.1044 5.8408 24.8407 5.5454C24.577 5.25 24.2474 4.88895 24.4891 4.67014C24.6819 4.55557 24.9052 4.50254 25.1292 4.51818C25.3531 4.53383 25.5668 4.61741 25.7416 4.75766Z" fill="#EC407A"/>
<path fill-rule="evenodd" clip-rule="evenodd" d="M77.365 23.9694C77.3687 24.7524 77.2078 25.5276 76.8926 26.245C76.5967 26.9408 76.1676 27.5725 75.6292 28.105C75.0875 28.6377 74.4502 29.0644 73.7505 29.3631C73.0274 29.6673 72.2503 29.8236 71.4654 29.8226H69.9822V26.8686H71.4434C71.8423 26.8757 72.2396 26.8165 72.6189 26.6936C73.209 26.4879 73.6942 26.0596 73.9702 25.5011C74.1038 25.2351 74.2105 24.9565 74.2888 24.6696C74.1663 24.8596 73.9958 25.0142 73.7945 25.1181C73.5699 25.2461 73.3299 25.3454 73.0804 25.4135C72.8112 25.4906 72.5353 25.5419 72.2564 25.5667C71.993 25.583 71.7288 25.583 71.4654 25.5667C70.686 25.6044 69.9065 25.4929 69.1692 25.2385C68.4577 24.966 67.8108 24.5491 67.2699 24.0142C66.7289 23.4792 66.3057 22.838 66.0272 22.1313C65.7104 21.3228 65.5537 20.4609 65.5657 19.5931C65.5582 18.7647 65.715 17.943 66.0272 17.1752C66.3218 16.4535 66.7547 15.7957 67.3016 15.2387C67.8338 14.6968 68.4686 14.2655 69.1692 13.9695C69.8935 13.6557 70.6755 13.4955 71.4654 13.4991C71.8359 13.5034 72.2047 13.5512 72.564 13.6413C73.3029 13.8323 73.9997 14.1588 74.6184 14.6041C74.9285 14.8234 75.2222 15.0647 75.4973 15.3262L76.596 13.9695H77.3101L77.365 23.9694ZM84.1985 22.6127C84.3095 22.6461 84.4236 22.6681 84.5391 22.6784H84.8796C85.1617 22.6805 85.4427 22.6436 85.7146 22.5689C85.976 22.4851 86.2267 22.3713 86.4617 22.2298C86.9421 21.9295 87.3239 21.496 87.5603 20.9825L89.7576 23.1707C89.4874 23.5715 89.1702 23.9388 88.8127 24.2648C88.1031 24.8732 87.2603 25.3079 86.3518 25.5339C85.8911 25.643 85.4191 25.6981 84.9456 25.698C84.1723 25.7042 83.4056 25.5565 82.6906 25.2634C81.9755 24.9703 81.3265 24.5377 80.7818 23.9912C80.2351 23.4446 79.8053 22.7933 79.5183 22.0766C79.2037 21.3015 79.0432 20.4729 79.0459 19.6368C79.0389 18.7826 79.1994 17.9353 79.5183 17.1423C79.7987 16.4316 80.2221 15.7854 80.7625 15.2436C81.3028 14.7017 81.9487 14.2756 82.6604 13.9914C83.8334 13.5081 85.1311 13.4123 86.3628 13.7179C86.8156 13.833 87.2542 13.9981 87.6702 14.2102C88.0652 14.4304 88.4338 14.6947 88.7688 14.998C89.1295 15.324 89.4503 15.6912 89.7246 16.092L84.1985 22.6127ZM95.7012 22.6127C95.8121 22.6461 95.9263 22.6681 96.0417 22.6784H96.3933C96.6753 22.6805 96.9563 22.6436 97.2283 22.5689C97.4896 22.4851 97.7404 22.3713 97.9753 22.2298C98.2083 22.0813 98.4191 21.9008 98.6015 21.6937C98.7845 21.4789 98.9361 21.2395 99.052 20.9825L101.249 23.1707C100.979 23.5715 100.662 23.9388 100.304 24.2648C99.9545 24.5714 99.5669 24.8324 99.1509 25.0415C98.7369 25.2583 98.2979 25.4237 97.8435 25.5339C97.3828 25.643 96.9108 25.6981 96.4372 25.698C95.664 25.7042 94.8973 25.5565 94.1822 25.2634C93.4672 24.9703 92.8182 24.5377 92.2734 23.9912C91.7267 23.4446 91.297 22.7933 91.01 22.0766C90.6901 21.3031 90.5294 20.4734 90.5376 19.6368C90.5306 18.7826 90.6911 17.9353 91.01 17.1423C91.2904 16.4316 91.7138 15.7854 92.2541 15.2436C92.7945 14.7017 93.4403 14.2756 94.1521 13.9914C94.8775 13.696 95.6535 13.5436 96.4372 13.5428C96.9149 13.5464 97.3904 13.6051 97.8545 13.7179C98.3073 13.833 98.7458 13.9981 99.1618 14.2102C99.5569 14.4304 99.9255 14.6947 100.26 14.998C100.621 15.324 100.942 15.6912 101.216 16.092L95.7012 22.6127ZM59.3475 19.5712C59.3482 20.3883 59.1916 21.1979 58.8861 21.9563C58.5884 22.6706 58.16 23.3235 57.6226 23.8818C57.084 24.4238 56.4464 24.8583 55.744 25.1619C55.0283 25.4597 54.2603 25.6129 53.4847 25.6126C52.7091 25.6123 51.9412 25.4586 51.2257 25.1604C50.5102 24.8621 49.8614 24.4253 49.3168 23.8753C48.7723 23.3252 48.3429 22.6729 48.0536 21.9563C47.7391 21.1964 47.5785 20.3821 47.5811 19.5602C47.5788 18.7313 47.7393 17.9099 48.0536 17.1423C48.3375 16.4209 48.7676 15.7655 49.317 15.2168C49.8524 14.6737 50.491 14.2423 51.1956 13.9476C51.9158 13.6329 52.6944 13.4726 53.4808 13.4772C54.2709 13.4742 55.0542 13.6228 55.7879 13.9148C56.4862 14.2003 57.121 14.6204 57.6556 15.1511C58.1978 15.7056 58.6269 16.3595 58.919 17.0767C59.2367 17.8697 59.3935 18.7175 59.3804 19.5712H59.3475ZM44.0326 25.4245H40.9564V13.1052H36.3092V10.0199H48.6688V13.1052H44.0326V25.4245ZM63.9398 25.4245H60.9735V9.35254H63.9398V25.4245ZM56.3812 19.5712C56.3822 19.1341 56.3041 18.7005 56.1505 18.2911C56.007 17.9202 55.7903 17.5817 55.5133 17.2955C55.2512 17.0249 54.9374 16.8091 54.5904 16.6609C53.8555 16.3764 53.0402 16.3764 52.3053 16.6609C51.9575 16.8078 51.6435 17.0237 51.3824 17.2955C51.1121 17.5827 50.9028 17.9214 50.7672 18.2911C50.4595 19.1208 50.4595 20.0325 50.7672 20.8622C50.9098 21.2253 51.1183 21.5591 51.3824 21.8469C51.6457 22.1217 51.9588 22.3445 52.3053 22.5033C52.6491 22.6633 53.0243 22.7455 53.4039 22.744C53.7814 22.748 54.1556 22.6734 54.5025 22.5252C54.848 22.3742 55.1612 22.1589 55.4254 21.8906C55.6998 21.6066 55.9162 21.2722 56.0626 20.906C56.2153 20.4963 56.2934 20.0628 56.2933 19.6259L56.3812 19.5712ZM74.3987 19.5712C74.3958 19.169 74.3137 18.7712 74.157 18.4005C74.0123 18.0327 73.8 17.6951 73.5308 17.4049C73.2639 17.118 72.9476 16.8808 72.597 16.7047C72.2555 16.5354 71.8798 16.4456 71.4983 16.4421C71.1225 16.4445 70.7502 16.5149 70.3997 16.65C70.0523 16.7823 69.7376 16.9876 69.4768 17.2517C69.2033 17.5344 68.9903 17.8694 68.8506 18.2364C68.6951 18.664 68.6206 19.1166 68.6309 19.5712C68.6217 20.0115 68.6963 20.4495 68.8506 20.8622C68.9929 21.2279 69.2057 21.5624 69.4768 21.8469C69.7365 22.1176 70.0511 22.3302 70.3997 22.4705C70.7481 22.6138 71.1213 22.6881 71.4983 22.6893C71.8798 22.6858 72.2555 22.5961 72.597 22.4267C72.9503 22.2549 73.2673 22.0172 73.5308 21.7265C73.8046 21.4399 74.0176 21.1013 74.157 20.7309C74.3204 20.3653 74.41 19.9712 74.4207 19.5712H74.3987ZM85.7036 16.5625C85.5731 16.5154 85.4359 16.4896 85.2971 16.4859H84.8906C84.5141 16.492 84.1419 16.5661 83.792 16.7047C83.4414 16.8463 83.1264 17.063 82.8692 17.3393C82.5959 17.6179 82.3828 17.9493 82.2429 18.313C82.0874 18.7292 82.0129 19.171 82.0232 19.6149V20.3917C82.0087 20.5325 82.0394 20.6743 82.1111 20.7965C82.1473 20.914 82.1951 21.0277 82.2539 21.1357L85.7036 16.5625ZM97.2063 16.5625C97.077 16.508 96.9397 16.4747 96.7998 16.464L96.3933 16.4859C96.0168 16.492 95.6445 16.5661 95.2947 16.7047C94.9441 16.8463 94.629 17.063 94.3718 17.3393C94.0986 17.6179 93.8855 17.9493 93.7456 18.313C93.5901 18.7292 93.5155 19.171 93.5259 19.6149V20.3917C93.5113 20.5325 93.5421 20.6743 93.6138 20.7965C93.6499 20.914 93.6978 21.0277 93.7566 21.1357L97.2063 16.5625Z" fill="#EC407A"/>
</svg>
