<?xml version="1.0" encoding="UTF-8" standalone="no"?>
<!DOCTYPE svg PUBLIC "-//W3C//DTD SVG 1.1//EN" "http://www.w3.org/Graphics/SVG/1.1/DTD/svg11.dtd">
<svg width="100%" height="100%" viewBox="0 0 2223 2223" version="1.1" xmlns="http://www.w3.org/2000/svg"
     xml:space="preserve"
     style="fill-rule:evenodd;clip-rule:evenodd;">
    <g transform="matrix(5.55556,0,0,5.55556,0,0)">
        <g>
            <rect id="canvas_background" x="-1" y="-1" width="402" height="402" style="fill:none;"/>
        </g>
        <g>
            <circle id="svg_6" cx="199.5" cy="199.5" r="198" style="fill:rgb(27,114,222);"/>
            <g id="svg_5">
                <path id="svg_4"
                      d="M248.934,244.736C247.056,244.736 227.988,244.736 206.609,251.959C188.839,258.006 172.475,267.589 158.506,280.127C148.827,289.806 134.671,309.018 127.592,328.086C118.492,352.644 117.481,376.479 117.481,376.479L117.481,312.196L81.078,366.222L90.612,309.741C90.612,309.741 67.066,318.119 57.821,314.074C56.954,313.785 68.799,309.018 76.889,300.062C85.403,290.92 92.335,280.424 97.401,269.004C102.467,257.585 88.445,282.583 78.044,293.417C69.666,302.229 60.277,308.729 54.065,309.596C40.486,311.33 27.341,296.74 28.785,291.973C32.83,276.949 62.732,247.192 74.722,225.09C87.145,201.833 119.936,122.961 120.514,121.372C130.527,96.12 147.143,74.015 168.617,57.378C181.329,48.278 196.208,39.611 211.232,35.132C227.699,30.221 243.878,29.643 249.079,29.499C256.301,29.21 283.025,30.654 309.75,43.366C330.549,53.063 347.893,68.894 359.442,88.725C361.753,93.059 363.776,97.681 365.654,102.448C365.942,103.026 372.587,118.916 374.754,140.584C376.054,153.007 375.043,167.453 372.587,181.609C367.749,200.008 359.625,217.381 348.608,232.891C339.125,246.625 327.173,258.479 313.361,267.849C299.07,277.579 283.178,284.718 266.413,288.939C240.845,294.139 224.81,291.828 224.81,291.828C224.81,291.828 239.834,288.361 256.446,280.705C270.891,274.06 287.359,262.504 295.304,253.114C295.593,252.681 307.149,240.547 317.839,221.623C328.205,202.681 333.528,181.388 333.296,159.797C333.28,113.449 295.137,75.32 248.79,75.32C202.431,75.32 164.284,113.467 164.284,159.826C164.284,179.545 171.186,198.655 183.785,213.823C191.441,224.512 208.342,235.78 219.177,239.536C233.333,244.592 247.345,244.88 248.934,245.025L249.079,245.025L248.934,244.736L248.934,244.736ZM127.159,216.278C129.037,216.856 120.37,223.212 118.492,224.946C117.914,225.379 116.325,226.824 115.458,226.39C114.707,225.967 113.936,225.581 113.147,225.235L110.691,224.512C111.847,225.235 112.714,226.39 113.291,227.69C113.535,228.357 113.659,229.061 113.659,229.771C113.659,233.099 110.92,235.838 107.592,235.838C104.264,235.838 101.525,233.099 101.525,229.771C101.525,227.236 103.113,224.957 105.491,224.079C107.868,223.201 125.281,215.701 127.159,216.278Z"
                      style="fill:white;fill-rule:nonzero;stroke:white;stroke-width:1px;"/>
            </g>
            <g transform="matrix(0.689244,0,0,0.679758,132.475,133.327)">
                <g transform="matrix(0.694691,0,0,0.694691,-28.1086,-77.0761)">
                    <path d="M590.142,386.874L590.142,658.874C590.139,662.165 587.432,664.871 584.142,664.874L299.142,664.874C295.851,664.871 293.144,662.165 293.142,658.874L293.142,354.874C293.144,351.583 295.851,348.877 299.142,348.874L548.142,348.874L590.142,386.874Z"
                          style="fill:rgb(0,26,58);fill-rule:nonzero;"/>
                </g>
                <g id="b3cdc3b1-5d0a-4cee-b54c-a38ee088c012"
                   transform="matrix(0.694691,0,0,0.694691,-28.1086,-77.0761)">
                    <path d="M343.578,415.072C341.542,415.107 339.886,416.791 339.886,418.826C339.886,420.862 341.542,422.546 343.578,422.581L442.582,422.581C442.608,422.581 442.634,422.582 442.66,422.582C444.72,422.582 446.415,420.887 446.415,418.827C446.415,416.784 444.748,415.097 442.706,415.072C442.665,415.071 442.623,415.071 442.582,415.072L343.578,415.072Z"
                          style="fill:white;fill-rule:nonzero;"/>
                </g>
                <g id="b79c0997-055d-434d-8704-cfc1ccad2281"
                   transform="matrix(0.694691,0,0,0.694691,-28.1086,-77.0761)">
                    <path d="M343.578,450.291C341.542,450.325 339.886,452.009 339.886,454.045C339.886,456.081 341.542,457.766 343.578,457.8L539.582,457.8C539.598,457.8 539.614,457.8 539.629,457.8C541.689,457.8 543.384,456.105 543.384,454.045C543.384,452.014 541.736,450.332 539.706,450.291C539.665,450.29 539.623,450.29 539.582,450.291L343.578,450.291Z"
                          style="fill:white;fill-rule:nonzero;"/>
                </g>
                <g id="ed7d1f14-d1d4-40af-b9ad-7b5b5ece23df"
                   transform="matrix(0.694691,0,0,0.694691,-28.1086,-77.0761)">
                    <path d="M343.578,485.51C341.542,485.544 339.886,487.229 339.886,489.265C339.886,491.301 341.542,492.985 343.578,493.019L539.582,493.019C539.608,493.019 539.633,493.02 539.659,493.02C541.719,493.02 543.414,491.325 543.414,489.265C543.414,487.223 541.748,485.536 539.706,485.51C539.665,485.509 539.623,485.509 539.582,485.51L343.578,485.51Z"
                          style="fill:white;fill-rule:nonzero;"/>
                </g>
                <g id="ba3b747a-a6b2-4f39-a169-6ef4c21cd2ce"
                   transform="matrix(0.694691,0,0,0.694691,-28.1086,-77.0761)">
                    <path d="M343.578,520.729C341.542,520.764 339.886,522.448 339.886,524.484C339.886,526.519 341.542,528.203 343.578,528.238L539.582,528.238C539.608,528.239 539.634,528.239 539.66,528.239C541.72,528.239 543.415,526.544 543.415,524.484C543.415,522.441 541.748,520.754 539.706,520.729C539.665,520.728 539.623,520.728 539.582,520.729L343.578,520.729Z"
                          style="fill:white;fill-rule:nonzero;"/>
                </g>
                <g id="b6e4b743-2497-479e-800a-91c8b21b3df9"
                   transform="matrix(0.694691,0,0,0.694691,-28.1086,-77.0761)">
                    <path d="M343.578,555.948C341.542,555.983 339.886,557.667 339.886,559.703C339.886,561.738 341.542,563.422 343.578,563.457L539.582,563.457C539.608,563.458 539.634,563.458 539.66,563.458C541.72,563.458 543.415,561.763 543.415,559.703C543.415,557.66 541.748,555.973 539.706,555.948C539.665,555.947 539.623,555.947 539.582,555.948L343.578,555.948Z"
                          style="fill:white;fill-rule:nonzero;"/>
                </g>
                <g id="f91f499d-e7c9-446d-84c9-bf78465468f6"
                   transform="matrix(0.694691,0,0,0.694691,-28.1086,-77.0761)">
                    <path d="M343.578,591.167C341.542,591.202 339.886,592.886 339.886,594.922C339.886,596.957 341.542,598.641 343.578,598.676L539.582,598.676C539.608,598.677 539.634,598.677 539.66,598.677C541.72,598.677 543.415,596.982 543.415,594.922C543.415,592.879 541.748,591.192 539.706,591.167C539.665,591.166 539.623,591.166 539.582,591.167L343.578,591.167Z"
                          style="fill:white;fill-rule:nonzero;"/>
                </g>
            </g>
        </g>
    </g>
</svg>
