<?xml version="1.0" encoding="UTF-8"?>
<svg xmlns="http://www.w3.org/2000/svg" width="50pt" height="50pt" viewBox="0 0 50 50" version="1.1">
    <g id="surface1">
        <path style=" stroke:none;fill-rule:evenodd;fill:rgb(0%,0%,0%);fill-opacity:1;"
              d="M 31.75 31.035156 C 31.480469 31.03125 28.738281 31.027344 25.648438 32.042969 C 23.035156 32.902344 20.113281 34.722656 18.707031 36.128906 C 17.320312 37.515625 15.285156 40.292969 14.257812 43.042969 C 12.941406 46.5625 12.808594 50 12.808594 50 L 12.808594 40.75 L 12.808594 40.761719 L 7.5625 48.535156 L 8.925781 40.386719 C 8.925781 40.386719 5.539062 41.589844 4.203125 41.019531 C 4.078125 40.964844 5.792969 40.28125 6.953125 39 C 7.429688 38.480469 8.070312 37.75 8.539062 37.027344 C 9.363281 35.757812 9.90625 34.515625 9.90625 34.515625 C 9.90625 34.515625 8.617188 36.46875 7.125 38.035156 C 5.914062 39.3125 4.566406 40.25 3.671875 40.363281 C 1.703125 40.609375 -0.179688 38.523438 0.015625 37.824219 C 0.613281 35.671875 4.925781 31.390625 6.636719 28.191406 C 8.429688 24.835938 13.15625 13.46875 13.238281 13.234375 C 13.628906 12.082031 16.023438 6.902344 20.171875 4.011719 C 22.011719 2.726562 24.152344 1.476562 26.324219 0.816406 C 28.683594 0.101562 31.03125 0.0273438 31.773438 0.00390625 C 32.792969 -0.03125 36.671875 0.171875 40.535156 2 C 41.582031 2.496094 43.671875 3.589844 45.496094 5.566406 C 46.277344 6.417969 47.039062 7.375 47.671875 8.515625 C 48.011719 9.125 48.3125 9.808594 48.574219 10.492188 C 48.609375 10.582031 49.570312 12.871094 49.886719 15.984375 C 50.066406 17.777344 49.933594 19.855469 49.5625 21.90625 C 49.097656 24.457031 47.445312 27.207031 46.113281 29.300781 C 45.339844 30.515625 43.542969 32.609375 41.042969 34.324219 C 38.847656 35.828125 36.003906 37.023438 34.269531 37.371094 C 30.585938 38.113281 28.28125 37.777344 28.28125 37.777344 C 28.28125 37.777344 30.433594 37.28125 32.828125 36.175781 C 34.90625 35.21875 37.292969 33.570312 38.425781 32.207031 C 38.472656 32.152344 40.140625 30.386719 41.675781 27.671875 C 42.136719 26.855469 43.003906 24.941406 43.445312 23.085938 C 43.796875 21.605469 43.875 20.167969 43.894531 19.359375 C 43.902344 19.160156 43.910156 18.960938 43.910156 18.757812 C 43.910156 12.035156 38.449219 6.578125 31.726562 6.578125 C 25.003906 6.578125 19.542969 12.035156 19.542969 18.757812 C 19.542969 21.714844 20.597656 24.425781 22.351562 26.535156 C 23.472656 28.097656 25.90625 29.710938 27.460938 30.257812 C 29.496094 30.972656 31.519531 31.03125 31.753906 31.035156 C 31.765625 31.035156 31.773438 31.035156 31.773438 31.035156 C 31.773438 31.035156 31.765625 31.035156 31.753906 31.035156 Z M 14.179688 26.878906 C 14.457031 26.960938 13.199219 27.886719 12.917969 28.128906 C 12.851562 28.1875 12.609375 28.398438 12.492188 28.332031 C 12.371094 28.261719 12.238281 28.203125 12.160156 28.171875 C 12.054688 28.125 11.800781 28.074219 11.800781 28.074219 C 11.964844 28.171875 12.101562 28.328125 12.171875 28.523438 C 12.335938 28.976562 12.101562 29.476562 11.648438 29.644531 C 11.195312 29.808594 10.691406 29.574219 10.527344 29.117188 C 10.363281 28.664062 10.597656 28.164062 11.050781 28 C 11.050781 28 13.898438 26.800781 14.179688 26.878906 Z M 14.179688 26.878906 "/>
    </g>
</svg>
