<svg width="162" height="87" viewBox="0 0 162 87" fill="none" xmlns="http://www.w3.org/2000/svg">
    <path d="M143.77 75.3034C144.174 74.6084 144.435 74.4306 144.537 74.1324C146.833 52.9927 141.899 33.7655 128.008 17.3974C124.511 13.2555 120.008 10.1039 114.86 7.96465C103.866 3.28392 91.6295 6.16502 83.8799 15.1852C79.8141 19.8635 76.7456 25.0452 76.1908 31.3759C78.2595 33.4387 80.3886 35.4221 82.1771 37.5232C85.0782 40.9647 86.5563 44.9563 85.8312 49.5333C85.3725 52.9367 83.5594 55.3169 81.3176 55.6233C78.3754 56.0256 76.1446 54.3403 75.0979 51.9246C73.6363 48.5706 72.5758 45.0195 71.735 41.5095C71.2075 39.236 71.2212 36.7464 71.114 34.4155C61.0838 28.9633 50.7929 34.5637 46.8015 47.548C47.8345 48.8283 48.9471 50.1689 49.9197 51.5285C53.4115 56.6663 54.7605 62.3103 52.8074 68.3346C52.0547 70.6409 50.7828 72.805 47.901 73.1279C45.7197 73.355 43.4889 71.6698 42.2251 68.7151C40.291 64.0041 40.1782 59.044 40.5655 54.0867C40.755 52.355 40.9445 50.6232 41.2137 48.9516C26.0626 40.0058 6.69491 44.9991 2.96457 61.4305C1.98929 60.5688 1.05248 59.9861 0.816203 59.3076C0.560693 58.4896 0.906817 57.3761 1.29141 56.5417C5.15381 48.8348 10.725 43.1688 19.593 41.7432C26.2192 40.6241 32.6752 41.3763 39.1037 43.4827C40.0021 43.7864 40.9004 44.0901 41.8592 44.3144C41.9389 44.3746 42.1394 44.2761 42.6202 44.1393C43.0844 43.365 43.7492 42.4923 44.2547 41.4992C50.6801 29.6037 57.7789 26.2166 71.4848 28.8208C71.8913 27.6279 72.4187 26.2764 72.8061 24.9441C75.3883 17.2701 79.8826 11.0405 86.6681 6.41682C97.6897 -1.13155 111.33 -1.07714 122.868 6.51448C129.146 10.6317 134.096 15.9966 138.041 22.3518C147.517 37.7597 151.586 54.3331 148.726 72.4224C148.641 73.3581 148.416 74.3129 148.331 75.2485C148.35 75.3881 148.449 75.5878 148.746 76.1869C151.438 73.9708 153.133 71.2514 154.907 68.5921C156.701 66.0724 158.396 63.353 160.292 60.535C162.182 62.3379 162.133 64.0505 161.583 65.7604C160.852 67.7083 160.281 69.7766 159.152 71.4236C156.048 75.8284 152.803 80.2522 149.24 84.4354C146.403 87.6664 143.845 87.2342 142.205 83.6203C138.787 75.9136 135.43 68.1275 132.072 60.3414C131.539 59.0638 131.287 57.7479 130.836 56.0326C133.737 55.8492 134.528 57.4469 135.3 58.9051C137.91 64.3766 140.702 69.6102 143.77 75.3034ZM47.324 68.9421C50.7771 62.9259 49.8703 56.8661 45.1121 52.8966C44.7221 58.3518 44.214 63.4678 47.324 68.9421ZM80.1005 51.454C82.5509 45.9303 81.0563 41.3013 75.8338 38.106C76.0867 43.0469 76.4824 47.4707 80.1005 51.454Z"
          fill="#B71864"/>
</svg>
