<svg width="459" height="45" viewBox="0 0 459 45" fill="none" xmlns="http://www.w3.org/2000/svg">
  <g opacity="0.7">
    <path d="M22.2856 8.85091C27.1255 4.77656 33.6568 1.25781 41.4845 1.25781C49.3122 1.25781 55.8434 4.77656 60.6832 8.85091C65.4986 12.9253 68.931 17.691 70.6717 21.1728C71.2645 22.3086 71.2645 23.6668 70.6717 24.8027C68.931 28.1733 65.4986 33.0501 60.6832 37.1245C55.8434 41.199 49.3122 44.7176 41.4845 44.7176C33.6568 44.7176 27.1255 41.199 22.2856 37.1245C20.2855 35.4207 18.5199 33.5934 17.0137 31.7908L5.94126 38.2481C4.39673 39.1494 2.4398 38.9022 1.16984 37.6431C-0.100287 36.3837 -0.366565 34.433 0.520657 32.8773L6.17338 22.9877L0.520657 13.0982C-0.366565 11.5425 -0.100287 9.59174 1.16984 8.33237C2.4398 7.073 4.39673 6.8261 5.94126 7.72739L17.0137 14.1846C18.5199 12.3821 20.2855 10.5548 22.2856 8.85091ZM51.3617 19.0368C49.1764 19.0368 47.4108 20.8024 47.4108 22.9877C47.4108 25.1731 49.1764 26.9386 51.3617 26.9386C53.547 26.9386 55.3126 25.1731 55.3126 22.9877C55.3126 20.8024 53.547 19.0368 51.3617 19.0368Z" fill="black" />
    <path d="M90.2436 4.58693V41.8162H82.7764V4.58693H90.2436ZM95.7012 27.0419C95.7012 23.9839 96.3234 21.317 97.568 19.0413C98.8125 16.73 100.537 14.9521 102.742 13.7076C104.946 12.4275 107.471 11.7874 110.316 11.7874C113.978 11.7874 117 12.712 119.383 14.561C121.801 16.3744 123.419 18.9346 124.237 22.2415H116.183C115.756 20.9614 115.027 19.9658 113.996 19.2546C113 18.5079 111.756 18.1346 110.262 18.1346C108.129 18.1346 106.44 18.9168 105.195 20.4814C103.951 22.0104 103.328 24.1972 103.328 27.0419C103.328 29.851 103.951 32.0378 105.195 33.6023C106.44 35.1313 108.129 35.8958 110.262 35.8958C113.285 35.8958 115.258 34.5446 116.183 31.8422H124.237C123.419 35.0424 121.801 37.5848 119.383 39.4694C116.965 41.354 113.942 42.2963 110.316 42.2963C107.471 42.2963 104.946 41.674 102.742 40.4295C100.537 39.1494 98.8125 37.3715 97.568 35.0958C96.3234 32.7845 95.7012 30.0999 95.7012 27.0419ZM138.401 18.4012V32.6956C138.401 33.6912 138.632 34.4202 139.094 34.8824C139.592 35.3091 140.41 35.5225 141.548 35.5225H145.015V41.8162H140.321C134.027 41.8162 130.88 38.7583 130.88 32.6423V18.4012H127.36V12.2675H130.88V4.96029H138.401V12.2675H145.015V18.4012H138.401ZM154.173 8.74723C152.857 8.74723 151.755 8.33831 150.866 7.52047C150.012 6.66708 149.586 5.61812 149.586 4.37358C149.586 3.12905 150.012 2.09787 150.866 1.28003C151.755 0.426636 152.857 -6.10352e-05 154.173 -6.10352e-05C155.488 -6.10352e-05 156.573 0.426636 157.426 1.28003C158.315 2.09787 158.76 3.12905 158.76 4.37358C158.76 5.61812 158.315 6.66708 157.426 7.52047C156.573 8.33831 155.488 8.74723 154.173 8.74723ZM157.853 12.2675V41.8162H150.386V12.2675H157.853ZM178.352 42.2963C175.507 42.2963 172.947 41.674 170.671 40.4295C168.395 39.1494 166.6 37.3537 165.284 35.0424C164.004 32.7312 163.364 30.0643 163.364 27.0419C163.364 24.0194 164.022 21.3526 165.337 19.0413C166.688 16.73 168.52 14.9521 170.831 13.7076C173.142 12.4275 175.72 11.7874 178.565 11.7874C181.409 11.7874 183.987 12.4275 186.299 13.7076C188.61 14.9521 190.423 16.73 191.739 19.0413C193.09 21.3526 193.766 24.0194 193.766 27.0419C193.766 30.0643 193.073 32.7312 191.686 35.0424C190.335 37.3537 188.486 39.1494 186.139 40.4295C183.827 41.674 181.232 42.2963 178.352 42.2963ZM178.352 35.7892C179.703 35.7892 180.965 35.4691 182.138 34.8291C183.347 34.1535 184.307 33.1579 185.019 31.8422C185.73 30.5266 186.085 28.9264 186.085 27.0419C186.085 24.2328 185.339 22.0815 183.845 20.5881C182.387 19.0591 180.592 18.2946 178.458 18.2946C176.325 18.2946 174.529 19.0591 173.071 20.5881C171.649 22.0815 170.938 24.2328 170.938 27.0419C170.938 29.851 171.631 32.02 173.018 33.549C174.44 35.0424 176.218 35.7892 178.352 35.7892ZM206.71 16.5878C207.67 15.1655 208.986 14.0098 210.657 13.1209C212.364 12.2319 214.302 11.7874 216.471 11.7874C218.995 11.7874 221.271 12.4097 223.298 13.6542C225.36 14.8988 226.978 16.6767 228.152 18.988C229.361 21.2637 229.965 23.9128 229.965 26.9352C229.965 29.9576 229.361 32.6423 228.152 34.9891C226.978 37.3004 225.36 39.0961 223.298 40.3761C221.271 41.6562 218.995 42.2963 216.471 42.2963C214.266 42.2963 212.328 41.8696 210.657 41.0162C209.021 40.1272 207.706 38.9894 206.71 37.6026V41.8162H199.243V2.34677H206.71V16.5878ZM222.338 26.9352C222.338 25.1573 221.965 23.6283 221.218 22.3482C220.507 21.0325 219.547 20.0369 218.338 19.3613C217.164 18.6857 215.884 18.3479 214.497 18.3479C213.146 18.3479 211.866 18.7035 210.657 19.4147C209.484 20.0903 208.524 21.0859 207.777 22.4015C207.066 23.7172 206.71 25.264 206.71 27.0419C206.71 28.8198 207.066 30.3665 207.777 31.6822C208.524 32.9978 209.484 34.0112 210.657 34.7224C211.866 35.398 213.146 35.7358 214.497 35.7358C215.884 35.7358 217.164 35.3802 218.338 34.6691C219.547 33.9579 220.507 32.9445 221.218 31.6289C221.965 30.3132 222.338 28.7487 222.338 26.9352ZM239.179 8.74723C237.863 8.74723 236.761 8.33831 235.872 7.52047C235.018 6.66708 234.592 5.61812 234.592 4.37358C234.592 3.12905 235.018 2.09787 235.872 1.28003C236.761 0.426636 237.863 -6.10352e-05 239.179 -6.10352e-05C240.494 -6.10352e-05 241.579 0.426636 242.432 1.28003C243.321 2.09787 243.766 3.12905 243.766 4.37358C243.766 5.61812 243.321 6.66708 242.432 7.52047C241.579 8.33831 240.494 8.74723 239.179 8.74723ZM242.859 12.2675V41.8162H235.392V12.2675H242.859ZM263.358 42.2963C260.513 42.2963 257.953 41.674 255.677 40.4295C253.401 39.1494 251.606 37.3537 250.29 35.0424C249.01 32.7312 248.37 30.0643 248.37 27.0419C248.37 24.0194 249.028 21.3526 250.343 19.0413C251.694 16.73 253.526 14.9521 255.837 13.7076C258.148 12.4275 260.726 11.7874 263.571 11.7874C266.416 11.7874 268.993 12.4275 271.305 13.7076C273.616 14.9521 275.429 16.73 276.745 19.0413C278.096 21.3526 278.772 24.0194 278.772 27.0419C278.772 30.0643 278.079 32.7312 276.692 35.0424C275.341 37.3537 273.492 39.1494 271.145 40.4295C268.833 41.674 266.238 42.2963 263.358 42.2963ZM263.358 35.7892C264.709 35.7892 265.971 35.4691 267.144 34.8291C268.353 34.1535 269.314 33.1579 270.025 31.8422C270.736 30.5266 271.091 28.9264 271.091 27.0419C271.091 24.2328 270.345 22.0815 268.851 20.5881C267.393 19.0591 265.598 18.2946 263.464 18.2946C261.331 18.2946 259.535 19.0591 258.077 20.5881C256.655 22.0815 255.944 24.2328 255.944 27.0419C255.944 29.851 256.637 32.02 258.024 33.549C259.446 35.0424 261.224 35.7892 263.358 35.7892ZM320.945 11.8408C324.572 11.8408 327.488 12.9609 329.692 15.201C331.932 17.4056 333.052 20.4992 333.052 24.4817V41.8162H325.585V25.4951C325.585 23.1838 324.999 21.4237 323.825 20.2147C322.652 18.9702 321.052 18.3479 319.025 18.3479C316.998 18.3479 315.38 18.9702 314.171 20.2147C312.998 21.4237 312.411 23.1838 312.411 25.4951V41.8162H304.944V25.4951C304.944 23.1838 304.357 21.4237 303.184 20.2147C302.01 18.9702 300.41 18.3479 298.383 18.3479C296.321 18.3479 294.685 18.9702 293.476 20.2147C292.303 21.4237 291.716 23.1838 291.716 25.4951V41.8162H284.249V12.2675H291.716V15.8411C292.676 14.5965 293.903 13.6187 295.396 12.9075C296.925 12.1964 298.597 11.8408 300.41 11.8408C302.721 11.8408 304.784 12.3386 306.597 13.3342C308.411 14.2943 309.815 15.6811 310.811 17.4945C311.771 15.7877 313.158 14.4187 314.971 13.3876C316.82 12.3564 318.811 11.8408 320.945 11.8408ZM367.607 26.4018C367.607 27.4686 367.536 28.4286 367.394 29.282H345.792C345.97 31.4155 346.717 33.0867 348.032 34.2957C349.348 35.5047 350.966 36.1092 352.886 36.1092C355.66 36.1092 357.633 34.918 358.807 32.5356H366.86C366.007 35.3802 364.371 37.7271 361.953 39.5761C359.535 41.3896 356.566 42.2963 353.046 42.2963C350.202 42.2963 347.641 41.674 345.366 40.4295C343.125 39.1494 341.365 37.3537 340.085 35.0424C338.841 32.7312 338.218 30.0643 338.218 27.0419C338.218 23.9839 338.841 21.2992 340.085 18.988C341.33 16.6767 343.072 14.8988 345.312 13.6542C347.552 12.4097 350.13 11.7874 353.046 11.7874C355.855 11.7874 358.362 12.3919 360.567 13.6009C362.807 14.8099 364.531 16.5344 365.74 18.7746C366.985 20.9792 367.607 23.5216 367.607 26.4018ZM359.873 24.2683C359.838 22.3482 359.144 20.8192 357.793 19.6813C356.442 18.5079 354.788 17.9212 352.833 17.9212C350.984 17.9212 349.419 18.4901 348.139 19.628C346.895 20.7303 346.13 22.2771 345.846 24.2683H359.873ZM381.751 18.4012V32.6956C381.751 33.6912 381.983 34.4202 382.445 34.8824C382.943 35.3091 383.761 35.5225 384.898 35.5225H388.365V41.8162H383.672C377.378 41.8162 374.231 38.7583 374.231 32.6423V18.4012H370.711V12.2675H374.231V4.96029H381.751V12.2675H388.365V18.4012H381.751ZM401.203 16.8545C402.164 15.2899 403.408 14.0632 404.937 13.1742C406.502 12.2853 408.28 11.8408 410.271 11.8408V19.6813H408.297C405.95 19.6813 404.173 20.2325 402.964 21.3348C401.79 22.4371 401.203 24.3572 401.203 27.0952V41.8162H393.736V12.2675H401.203V16.8545ZM419.087 8.74723C417.771 8.74723 416.669 8.33831 415.78 7.52047C414.927 6.66708 414.5 5.61812 414.5 4.37358C414.5 3.12905 414.927 2.09787 415.78 1.28003C416.669 0.426636 417.771 -6.10352e-05 419.087 -6.10352e-05C420.403 -6.10352e-05 421.487 0.426636 422.34 1.28003C423.229 2.09787 423.674 3.12905 423.674 4.37358C423.674 5.61812 423.229 6.66708 422.34 7.52047C421.487 8.33831 420.403 8.74723 419.087 8.74723ZM422.767 12.2675V41.8162H415.3V12.2675H422.767ZM428.225 26.9352C428.225 23.9483 428.812 21.2992 429.985 18.988C431.194 16.6767 432.812 14.8988 434.839 13.6542C436.901 12.4097 439.194 11.7874 441.719 11.7874C443.924 11.7874 445.844 12.2319 447.479 13.1209C449.151 14.0098 450.484 15.1299 451.48 16.4811V12.2675H459V41.8162H451.48V37.4959C450.52 38.8827 449.186 40.0383 447.479 40.9629C445.808 41.8518 443.87 42.2963 441.666 42.2963C439.177 42.2963 436.901 41.6562 434.839 40.3761C432.812 39.0961 431.194 37.3004 429.985 34.9891C428.812 32.6423 428.225 29.9576 428.225 26.9352ZM451.48 27.0419C451.48 25.2284 451.124 23.6816 450.413 22.4015C449.702 21.0859 448.742 20.0903 447.533 19.4147C446.324 18.7035 445.026 18.3479 443.639 18.3479C442.252 18.3479 440.972 18.6857 439.799 19.3613C438.626 20.0369 437.665 21.0325 436.919 22.3482C436.208 23.6283 435.852 25.1573 435.852 26.9352C435.852 28.7131 436.208 30.2777 436.919 31.6289C437.665 32.9445 438.626 33.9579 439.799 34.6691C441.008 35.3802 442.288 35.7358 443.639 35.7358C445.026 35.7358 446.324 35.398 447.533 34.7224C448.742 34.0112 449.702 33.0156 450.413 31.7355C451.124 30.4199 451.48 28.8553 451.48 27.0419Z" fill="black" />
  </g>
</svg>
  