<?xml version="1.0" encoding="utf-8"?>
<!-- Generator: Adobe Illustrator 24.2.1, SVG Export Plug-In . SVG Version: 6.00 Build 0)  -->
<svg version="1.1" id="Vrstva_1" xmlns="http://www.w3.org/2000/svg"
	width="400px"
	xmlns:xlink="http://www.w3.org/1999/xlink" x="0px" y="0px"
	viewBox="0 0 2267.7 850.4" style="enable-background:new 0 0 2267.7 850.4;" xml:space="preserve">
<style type="text/css">
	.st0{fill:#e7e7e7;}
	.st1{fill:#3E39E2;}
</style>
<path class="st0" d="M278.1,544.7c1.3,1.4,2.9,2.1,4.8,2.1h38.5c1.6,0,3-0.7,4.4-2.1c1.3-1.4,2.3-2.9,2.8-4.6l45.3-131.7h1.2
	l45.3,131.7c0.5,2,1.5,3.6,3,4.8c1.5,1.3,3,1.9,4.6,1.9h38.5c1.6,0,3-0.7,4.4-2.1c1.3-1.4,2.3-2.9,2.8-4.6l62.4-200.1
	c0.5-2,0.5-3.6-0.2-5c-0.7-1.4-2.1-2.1-4.2-2.1h-44.1c-3.2,0-5.3,2.4-6.4,7.1l-35.4,131.3h-2l-43.3-131.3c-1.6-4.8-3.8-7.1-6.8-7.1
	h-38.5c-2.6,0-4.8,2.4-6.4,7.1l-43.7,131.3h-2l-35.4-131.3c-1.1-4.8-3.2-7.1-6.4-7.1h-44.1c-3.2,0-4.8,1.5-4.8,4.6
	c0,1.1,0.1,2,0.4,2.5l62.4,200.1C275.9,541.8,276.8,543.3,278.1,544.7z"/>
<path class="st0" d="M758.6,541c0-1.4-0.1-2.4-0.4-2.9c-1.3-14-2-24-2-30.2v-98.1c0-25.2-6.9-44.7-20.7-58.7
	c-13.8-14-31.2-21-52.4-21c-26.2,0-48.2,11.7-65.9,35.2V238.6c0-12.6-6-18.9-17.9-18.9h-36.9c-4.2,0-6.4,2.4-6.4,7.1
	c0,2.8,0.4,6.3,1.2,10.5c1.9,9.2,2.8,18.3,2.8,27.3v275.1c0,2.5,0.8,4.5,2.4,5.9c0.8,0.8,2,1.3,3.6,1.3h44.9c0.8,0,1.3-0.1,1.6-0.4
	c1.3-0.3,2.4-1,3.4-2.1s1.4-2.7,1.4-4.6V411.4c4.5-8.7,10.5-15.6,18.1-20.8c7.5-5.2,16.2-7.8,26-7.8c11.9,0,21.2,3.7,27.8,11.1
	c6.6,7.4,9.9,17.3,9.9,29.6V530c0,5,1.3,9.1,3.8,12.2c2.5,3.1,6.2,4.6,10.9,4.6h40.5c1.3,0,2.4-0.6,3.2-1.7S758.6,542.6,758.6,541z"
	/>
<path class="st0" d="M880.5,500.1c-7.8,4.1-16,6.1-24.4,6.1c-7.4,0-13.3-1.9-17.7-5.7c-4.4-3.8-6.6-9.4-6.6-17
	c0-11.2,5.3-19.2,15.9-24.1s28.6-8.2,54-9.9v34C895.4,490.5,888.4,496,880.5,500.1z M794.9,534.2c10.9,10.6,26.5,15.9,46.9,15.9
	c13.5,0,25.6-2.6,36.1-7.8c10.6-5.2,20.4-12.9,29.4-23.3c1.9,8.1,4.2,14.7,7.2,19.9c2.9,5.2,5.6,7.8,7.9,7.8h33.4
	c1.9,0,3.4-0.6,4.6-1.9c1.2-1.3,1.8-3,1.8-5.2V538c-2.1-22.4-3.2-49.2-3.2-80.5l0.4-58.3c0-22.6-7.5-39.8-22.6-51.6
	c-15.1-11.7-34.8-17.6-59.2-17.6c-27.5,0-53.9,7.5-79,22.6c-3.7,2.2-5.6,4.8-5.6,7.5c0,0.6,0.3,1.7,0.8,3.4l10.3,28.1
	c1.3,3.1,3.2,4.6,5.6,4.6c1.1,0,2.4-0.4,4-1.3c17.2-10.6,34.8-15.9,52.8-15.9c11.9,0,20.9,2.4,27,7.1c6.1,4.8,9.1,13.3,9.1,25.6
	c-30.5,2.5-54.8,6.9-72.9,13.2c-18.1,6.3-31.2,14.7-39.1,25.2c-7.9,10.5-11.9,23.6-11.9,39.2C778.7,508.7,784.1,523.6,794.9,534.2z"
	/>
<path class="st0" d="M1020.8,530.3c12.2,13.3,28.5,19.9,48.9,19.9c9.5,0,18.7-1.5,27.4-4.4c8.7-2.9,16-6.8,21.8-11.5
	c2.6-2,4-3.9,4-5.9c0-0.6-0.3-1.4-0.8-2.5l-15.1-31c-1.1-2.5-2.5-3.8-4.4-3.8c-1.1,0-2.4,0.4-4,1.3c-6.4,3.1-12,4.6-17.1,4.6
	c-7.4,0-12.9-2.7-16.5-8c-3.6-5.3-5.4-12.3-5.4-21v-82.2c2.9,0.8,7,1.3,12.3,1.3h30.6c1.9,0,3.4-0.6,4.8-1.7c1.3-1.1,2-2.7,2-4.6
	v-41.1c0-4.5-2.3-6.7-6.8-6.7h-42.1v-57c0-2-0.5-3.6-1.6-5s-2.5-2.1-4.4-2.1h-9.9c-2.9,0-5.8,2.4-8.7,7.1c-8.5,21-16.8,37.2-25,48.7
	c-8.2,11.5-19.5,23.2-33.8,35.2c-1.6,1.7-2.6,3-3,4c-0.4,1-0.6,2.7-0.6,5.2v11.3c0,2,0.6,3.6,1.8,4.8c1.2,1.3,2.7,1.9,4.6,1.9h22.6
	v87.2C1002.5,498.3,1008.6,517,1020.8,530.3z"/>
<path class="st0" d="M1144.9,488.9l-15.1,27.3c-0.5,1.7-0.8,2.9-0.8,3.8c0,2,0.8,3.6,2.4,5c8.7,6.2,19.9,11.9,33.4,17.2
	c13.5,5.3,29,8,46.5,8c23.6,0,43-5.5,58.2-16.6c15.2-11,22.8-27.1,22.8-48c0-17.3-6-31.2-17.9-41.5s-30.5-19.2-55.6-26.4
	c-11.7-3.4-20.2-6.5-25.6-9.4c-5.4-2.9-8.1-7.2-8.1-12.8c0-4.2,1.9-8,5.8-11.3s10.4-5,19.7-5c8.2,0,16.6,1.3,25,4
	c8.5,2.7,15.5,5.8,21.1,9.4c1.6,0.6,2.9,0.8,4,0.8c2.4,0,4.2-1.1,5.6-3.4l17.5-29.4c1.9-3.6,0.5-6.7-4-9.2
	c-10.9-6.7-21.3-12-31.4-15.7c-10.1-3.8-22.2-5.7-36.5-5.7c-25.2,0-44.4,5.9-57.8,17.8c-13.4,11.9-20.1,27.2-20.1,45.9
	c0.3,16.5,5.8,29.9,16.5,40.3c10.7,10.3,26.4,18.9,47.1,25.6c15.6,5,26.3,9.1,32,12.2c5.7,3.1,8.5,7.7,8.5,13.8
	c0,4.8-2.3,8.7-6.8,12c-4.5,3.2-10.7,4.8-18.7,4.8c-10.6,0-21.1-1.8-31.6-5.5c-10.5-3.6-19-7.3-25.6-10.9c-1.6-0.8-3-1.3-4.4-1.3
	C1148.5,484.8,1146.5,486.2,1144.9,488.9z"/>
<path class="st0" d="M1463.5,482.7c-9.7,10.9-22.6,16.4-38.7,16.4c-15.1,0-27.6-5.5-37.5-16.4c-9.9-10.9-14.9-25-14.9-42.4
	c0-17.3,5-31.5,14.9-42.6c9.9-11,22.4-16.6,37.5-16.6c16.2,0,29.1,5.5,38.7,16.6c9.7,11,14.5,25.2,14.5,42.6
	C1478,457.6,1473.1,471.8,1463.5,482.7z M1484.7,344c-14.3-9.4-30.2-14.1-47.7-14.1c-13.5,0-25.8,3-36.7,9c-11,6-20.3,14.3-28,25
	v-12.2c0-6.4-1.5-11.2-4.4-14.3c-2.9-3.1-7.4-4.6-13.5-4.6h-36.9c-1.9,0-3.3,0.6-4.4,1.9c-1.1,1.3-1.6,2.9-1.6,4.8v2.1
	c0.3,1.7,0.9,5.4,2,11.1c1.1,5.7,1.6,12.1,1.6,19.1v248.7c0,3.1,0.9,5.5,2.6,7.3c1.7,1.8,4,2.7,7,2.7h38.1c2.9,0,5.2-0.9,7-2.7
	c1.7-1.8,2.6-4.3,2.6-7.3V515.4c7.9,10.9,17.6,19.4,29,25.6c11.4,6.2,24,9.2,37.7,9.2c16.7,0,32-4.6,46.1-13.8
	c14-9.2,25.2-22.2,33.4-39c8.2-16.8,12.3-35.8,12.3-57c0-21.3-4.1-40.3-12.3-57C1510.3,366.5,1499,353.4,1484.7,344z"/>
<path class="st0" d="M1690.5,482.4c-10.2,11-23.2,16.6-39.1,16.6c-16.2,0-29.3-5.5-39.5-16.6c-10.2-11-15.3-25.1-15.3-42.2
	c0-17.1,5.2-31.2,15.5-42.4c10.3-11.2,23.4-16.8,39.3-16.8c15.9,0,28.9,5.6,39.1,16.8c10.2,11.2,15.3,25.3,15.3,42.4
	C1705.8,457.4,1700.7,471.4,1690.5,482.4z M1596.9,536.3c16.4,9.2,34.6,13.8,54.4,13.8s37.9-4.6,54.2-13.8
	c16.3-9.2,29.1-22.2,38.5-39c9.4-16.8,14.1-35.8,14.1-57c0-21.5-4.7-40.7-14.1-57.5c-9.4-16.8-22.2-29.8-38.5-39
	c-16.3-9.2-34.4-13.8-54.2-13.8s-38,4.6-54.4,13.8c-16.4,9.2-29.3,22.2-38.7,39c-9.4,16.8-14.1,35.9-14.1,57.5
	c0,21.3,4.7,40.3,14.1,57C1567.6,514.1,1580.5,527.1,1596.9,536.3z"/>
<path class="st0" d="M1814,530.3c12.2,13.3,28.5,19.9,48.9,19.9c9.5,0,18.7-1.5,27.4-4.4s16-6.8,21.8-11.5c2.6-2,4-3.9,4-5.9
	c0-0.6-0.3-1.4-0.8-2.5l-15.1-31c-1.1-2.5-2.5-3.8-4.4-3.8c-1.1,0-2.4,0.4-4,1.3c-6.4,3.1-12,4.6-17.1,4.6c-7.4,0-12.9-2.7-16.5-8
	c-3.6-5.3-5.4-12.3-5.4-21v-82.2c2.9,0.8,7,1.3,12.3,1.3h30.6c1.9,0,3.4-0.6,4.8-1.7c1.3-1.1,2-2.7,2-4.6v-41.1
	c0-4.5-2.3-6.7-6.8-6.7h-42.1v-57c0-2-0.5-3.6-1.6-5c-1.1-1.4-2.5-2.1-4.4-2.1h-9.9c-2.9,0-5.8,2.4-8.7,7.1
	c-8.5,21-16.8,37.2-25,48.7c-8.2,11.5-19.5,23.2-33.8,35.2c-1.6,1.7-2.6,3-3,4c-0.4,1-0.6,2.7-0.6,5.2v11.3c0,2,0.6,3.6,1.8,4.8
	c1.2,1.3,2.7,1.9,4.6,1.9h22.6v87.2C1795.8,498.3,1801.9,517,1814,530.3z"/>
<path class="st1" d="M2001,442.5c-1.9,0-3.6,0.1-5.3,0.1c-20.5,0.8-29.3,3.8-35.4,6.9c-7.1,3.5-14.2,7.1-14.2,49.6
	s7.1,46.1,14.2,49.6c6.1,3.1,14.9,6.1,35.4,6.9c1.7,0.1,3.5,0.1,5.3,0.1c1.9,0,3.6-0.1,5.3-0.1c20.5-0.8,29.3-3.8,35.4-6.9
	c7.1-3.5,14.2-7.1,14.2-49.6s-7.1-46.1-14.2-49.6c-6.1-3.1-14.9-6.1-35.4-6.9C2004.7,442.6,2002.9,442.6,2001,442.5"/>
</svg>