<svg xmlns="http://www.w3.org/2000/svg" width="169" height="59.43" viewBox="0 0 169 59.43"><defs><style>.a{fill:#fff;}</style></defs><rect class="a" x="24.14" y="8.29" width="36.21" height="1"/><rect class="a" x="24.14" y="28.17" width="36.21" height="1"/><path class="a" d="M578,317.84a9.29,9.29,0,1,0,9.28,9.29A9.29,9.29,0,0,0,578,317.84Zm-2.5,5.65a2.55,2.55,0,0,1,.7-1.31,2.5,2.5,0,0,1,1.3-.69,2.53,2.53,0,0,1,3,2.49,2.51,2.51,0,0,1-.74,1.8,2.55,2.55,0,0,1-3.22.32,2.59,2.59,0,0,1-.93-1.14A2.48,2.48,0,0,1,575.5,323.49Zm7.59,8.13H572.91v-1.27c0-1.7,3.39-2.55,5.09-2.55s5.09.85,5.09,2.55Z" transform="translate(-568.71 -297.41)"/><path class="a" d="M578,297.41a9.29,9.29,0,1,0,9.28,9.29A9.29,9.29,0,0,0,578,297.41Zm-2.5,5.65a2.55,2.55,0,0,1,.7-1.31,2.5,2.5,0,0,1,1.3-.69,2.53,2.53,0,0,1,3,2.49,2.51,2.51,0,0,1-.74,1.8,2.55,2.55,0,0,1-3.22.32,2.59,2.59,0,0,1-.93-1.14A2.48,2.48,0,0,1,575.5,303.06Zm7.59,8.13H572.91v-1.27c0-1.69,3.39-2.55,5.09-2.55s5.09.86,5.09,2.55Z" transform="translate(-568.71 -297.41)"/><rect class="a" x="24.14" y="48.6" width="36.21" height="1"/><path class="a" d="M578,338.27a9.29,9.29,0,1,0,9.28,9.29A9.29,9.29,0,0,0,578,338.27Zm-2.5,5.64a2.56,2.56,0,0,1,.7-1.3,2.52,2.52,0,0,1,1.3-.7,2.63,2.63,0,0,1,1.47.15,2.55,2.55,0,0,1,.83,4.15,2.55,2.55,0,0,1-3.22.32,2.59,2.59,0,0,1-.93-1.14A2.5,2.5,0,0,1,575.5,343.91Zm7.59,8.14H572.91v-1.27c0-1.7,3.39-2.55,5.09-2.55s5.09.85,5.09,2.55Z" transform="translate(-568.71 -297.41)"/><path class="a" d="M731.71,355.91H644.36a6,6,0,0,1-6-6V304.34a6,6,0,0,1,6-6h87.35a6,6,0,0,1,6,6v45.57A6,6,0,0,1,731.71,355.91Zm-87.35-56.57a5,5,0,0,0-5,5v45.57a5,5,0,0,0,5,5h87.35a5,5,0,0,0,5-5V304.34a5,5,0,0,0-5-5Z" transform="translate(-568.71 -297.41)"/><path class="a" d="M660.62,340.28c-7.28,0-14.74-2.37-18-5.84l.73-.68c3.3,3.55,11.77,5.95,19.29,5.45,5.72-.37,10.1-2.32,12.34-5.46,1.41-2,2.62-3.85,3.7-5.48,3.8-5.81,6.1-9.32,10.74-9.36h0c2.78,0,3.86,2,4.9,4,1.28,2.39,2.59,4.86,7,4.86h.23c4.47,0,6.49,2.6,8.45,5.11s3.85,4.93,8.21,4.93h0c4.12,0,5.34-2,6.75-4.39,1.6-2.67,3.42-5.7,9.83-5.71v1c-5.84,0-7.43,2.66-9,5.23-1.44,2.39-2.93,4.86-7.61,4.87h0c-4.85,0-7-2.7-9-5.32-1.89-2.43-3.68-4.72-7.66-4.72h-.23c-5,0-6.61-3-7.89-5.39-1-1.94-1.81-3.5-4.06-3.45-4.11,0-6.29,3.37-9.92,8.9-1.07,1.65-2.29,3.5-3.72,5.52-2.41,3.39-7.06,5.48-13.09,5.88C662,340.25,661.33,340.28,660.62,340.28Z" transform="translate(-568.71 -297.41)"/></svg>