<svg xmlns="http://www.w3.org/2000/svg" width="123" height="62" viewBox="0 0 123 62"><defs><style>.a{fill:#fff;}</style></defs><rect class="a" x="38" y="13.59" width="56.88" height="1"/><rect class="a" x="38" y="30.12" width="56.88" height="1"/><rect class="a" x="38" y="45" width="56.88" height="1"/><path class="a" d="M702,342.34,699.69,341v-2.72a.43.43,0,0,0-.43-.43h0a.44.44,0,0,0-.44.43v2.83a.6.6,0,0,0,.3.52l2.49,1.49a.43.43,0,1,0,.44-.74Z" transform="translate(-591.39 -295.81)"/><path class="a" d="M699.39,334.81a6,6,0,1,0,6,6A6,6,0,0,0,699.39,334.81Zm0,10.8a4.8,4.8,0,1,1,4.8-4.8A4.8,4.8,0,0,1,699.39,345.61Z" transform="translate(-591.39 -295.81)"/><polygon class="a" points="105.81 18.1 102.97 15.3 102 16.25 105.81 20 114 11.95 113.04 11 105.81 18.1"/><polygon class="a" points="105.81 32.1 102.97 29.3 102 30.25 105.81 34 114 25.95 113.04 25 105.81 32.1"/><polygon class="a" points="12 24.07 12 37.93 24 31 12 24.07"/><path class="a" d="M708.39,295.81h-95a6,6,0,0,0-6,6v9a16,16,0,0,0,0,32v9a6,6,0,0,0,6,6h95a6,6,0,0,0,6-6v-50A6,6,0,0,0,708.39,295.81Zm-116,31a15,15,0,0,1,15-15h.49c.5,0,1,.06,1.49.12h0a12.26,12.26,0,0,1,1.37.25l.28.07c.35.08.7.18,1,.29l.65.24.62.24c.36.16.72.33,1.07.52l.13.07a15,15,0,0,1,0,26.34l-.17.08c-.34.18-.68.35-1,.5l-.63.25-.63.23c-.35.12-.7.21-1.06.3l-.27.07c-.45.1-.91.19-1.37.25h0a12.63,12.63,0,0,1-1.5.12l-.49,0h0A15,15,0,0,1,592.39,326.81Zm121,25a5,5,0,0,1-5,5h-95a5,5,0,0,1-5-5v-9.05h.05c.47,0,.93-.09,1.38-.16l.24,0c.39-.07.78-.15,1.16-.24l.47-.13.87-.26c.26-.09.51-.18.75-.28l.54-.22,1-.5.21-.12a15.87,15.87,0,0,0,8.19-12.25.59.59,0,0,0,0-.14c.05-.53.08-1.07.08-1.62s0-1.09-.08-1.62a.59.59,0,0,0,0-.14,15.86,15.86,0,0,0-8.2-12.26l-.19-.1a11.43,11.43,0,0,0-1.06-.51l-.52-.22-.77-.28c-.28-.1-.56-.19-.85-.27l-.48-.12c-.38-.09-.77-.17-1.16-.24l-.24,0c-.46-.07-.91-.12-1.38-.15h-.05v-9.05a5,5,0,0,1,5-5h95a5,5,0,0,1,5,5Z" transform="translate(-591.39 -295.81)"/></svg>