<svg xmlns="http://www.w3.org/2000/svg" width="168" height="77" viewBox="0 0 168 77"><defs><style>.a{fill:#fff;}</style></defs><rect class="a" y="49.93" width="1" height="2"/><rect class="a" y="53.93" width="1" height="2"/><path class="a" d="M-221.52,267.06V266h-1v1.07a5.75,5.75,0,0,0,.09,1l1-.17A6,6,0,0,1-221.52,267.06Z" transform="translate(222.52 -208.06)"/><rect class="a" x="16.29" y="64" width="2" height="1"/><rect class="a" y="33.93" width="1" height="2"/><rect class="a" y="41.93" width="1" height="2"/><rect class="a" y="37.93" width="1" height="2"/><rect class="a" x="14" width="2" height="1"/><rect class="a" x="12.29" y="64" width="2" height="1"/><rect class="a" y="29.93" width="1" height="2"/><rect class="a" x="10" width="2" height="1"/><rect class="a" x="8.29" y="64" width="2" height="1"/><path class="a" d="M-217.14,208.09a6,6,0,0,0-2.08.61l.45.89a5,5,0,0,1,1.74-.5Z" transform="translate(222.52 -208.06)"/><rect class="a" x="6" width="2" height="1"/><path class="a" d="M-220.82,269.6l-.87.51a6,6,0,0,0,1.42,1.63l.63-.78A4.79,4.79,0,0,1-220.82,269.6Z" transform="translate(222.52 -208.06)"/><rect class="a" y="45.93" width="1" height="2"/><path class="a" d="M-127.57,211l.79-.62a6.19,6.19,0,0,0-1.62-1.44l-.52.85A5.19,5.19,0,0,1-127.57,211Z" transform="translate(222.52 -208.06)"/><path class="a" d="M-130.61,209.14l.18-1a5.67,5.67,0,0,0-1.09-.1h-1v1h1A5.5,5.5,0,0,1-130.61,209.14Z" transform="translate(222.52 -208.06)"/><rect class="a" y="25.93" width="1" height="2"/><rect class="a" x="86" width="2" height="1"/><path class="a" d="M-126.52,214.42h1v-.36a5.82,5.82,0,0,0-.26-1.76l-1,.29a4.9,4.9,0,0,1,.22,1.47Z" transform="translate(222.52 -208.06)"/><rect class="a" x="96" y="16.36" width="1" height="2"/><rect class="a" x="96" y="12.36" width="1" height="2"/><rect class="a" x="96" y="8.36" width="1" height="2"/><rect class="a" y="17.93" width="1" height="2"/><rect class="a" y="21.93" width="1" height="2"/><rect class="a" y="13.93" width="1" height="2"/><rect class="a" x="82" width="2" height="1"/><path class="a" d="M-220.21,210.69l-.74-.68a6.19,6.19,0,0,0-1.15,1.84l.93.37A5.2,5.2,0,0,1-220.21,210.69Z" transform="translate(222.52 -208.06)"/><polygon class="a" points="1 5.93 0 6 0 7.93 1 7.93 1 5.93"/><rect class="a" y="9.93" width="1" height="2"/><path class="a" d="M-218,271.82l-.31.95a6.1,6.1,0,0,0,1.84.29h.29v-1h-.29A4.94,4.94,0,0,1-218,271.82Z" transform="translate(222.52 -208.06)"/><rect class="a" x="58" width="2" height="1"/><rect class="a" x="60.29" y="64" width="2" height="1"/><rect class="a" x="62" width="2" height="1"/><rect class="a" x="64.29" y="64" width="2" height="1"/><rect class="a" x="54" width="2" height="1"/><rect class="a" x="56.29" y="64" width="2" height="1"/><rect class="a" x="50" width="2" height="1"/><rect class="a" x="66" width="2" height="1"/><rect class="a" x="52.29" y="64" width="2" height="1"/><rect class="a" x="76.29" y="64" width="2" height="1"/><rect class="a" x="68.29" y="64" width="2" height="1"/><rect class="a" x="78" width="2" height="1"/><rect class="a" x="74" width="2" height="1"/><rect class="a" x="70" width="2" height="1"/><rect class="a" x="72.29" y="64" width="2" height="1"/><rect class="a" x="30" width="2" height="1"/><rect class="a" x="28.29" y="64" width="2" height="1"/><rect class="a" x="18" width="2" height="1"/><rect class="a" x="26" width="2" height="1"/><rect class="a" x="24.29" y="64" width="2" height="1"/><rect class="a" x="20.29" y="64" width="2" height="1"/><rect class="a" x="22" width="2" height="1"/><rect class="a" x="32.29" y="64" width="2" height="1"/><rect class="a" x="42" width="2" height="1"/><rect class="a" x="44.29" y="64" width="2" height="1"/><rect class="a" x="46" width="2" height="1"/><rect class="a" x="48.29" y="64" width="2" height="1"/><rect class="a" x="36.29" y="64" width="2" height="1"/><rect class="a" x="34" width="2" height="1"/><rect class="a" x="38" width="2" height="1"/><rect class="a" x="40.29" y="64" width="2" height="1"/><rect class="a" x="12" y="24" width="50" height="1"/><rect class="a" x="12" y="50" width="50" height="1"/><polygon class="a" points="59.23 37 12 37 12 38 59.3 38 60 47.25 65.25 39.02 75 38.59 58.5 27.33 59.23 37"/><path class="a" d="M-67.31,265.74H-86.72a5.8,5.8,0,0,0-5.8,5.8,5.8,5.8,0,0,0,5.8,5.79h19.41a5.79,5.79,0,0,0,5.79-5.79A5.79,5.79,0,0,0-67.31,265.74Z" transform="translate(222.52 -208.06)"/><path class="a" d="M-60.52,228.06h-76a6,6,0,0,0-6,6v45a6,6,0,0,0,6,6h76a6,6,0,0,0,6-6v-45A6,6,0,0,0-60.52,228.06Zm5,51a5,5,0,0,1-5,5h-76a5,5,0,0,1-5-5v-45a5,5,0,0,1,5-5h76a5,5,0,0,1,5,5Z" transform="translate(222.52 -208.06)"/><path class="a" d="M-195.88,216.28l-.56,8.08h1l.22-3.46c.07-1.21.13-2.57.16-3.58h0c.23,1,.55,2,.93,3.15l1.31,3.85h.79l1.43-3.92c.41-1.12.74-2.13,1-3.08h0c0,1,.06,2.37.12,3.5l.2,3.54h1l-.5-8.08H-190l-1.44,3.91c-.35,1-.64,1.91-.85,2.72h0c-.21-.84-.48-1.72-.82-2.72l-1.38-3.91Z" transform="translate(222.52 -208.06)"/><path class="a" d="M-185.15,223.91a.85.85,0,0,1,.07.28,1.12,1.12,0,0,1-.08.25,3.17,3.17,0,0,1-.89,1.17,2.82,2.82,0,0,1-.92.52l.26.89a2.92,2.92,0,0,0,1.3-.69c.71-.62,1.23-1.64,2-3.63l1.58-4.14H-183l-1.15,3.41c-.14.42-.26.86-.37,1.21h0c-.1-.35-.24-.81-.38-1.19l-1.27-3.43h-1.15Z" transform="translate(222.52 -208.06)"/><path class="a" d="M-176.62,219.21a1.19,1.19,0,0,1,1.32,1.34v.12c-2.24,0-3.49.76-3.49,2.16A1.65,1.65,0,0,0-177,224.5a2.16,2.16,0,0,0,1.78-.87h0l.08.73h1a8.24,8.24,0,0,1-.1-1.39V220.8c0-1.16-.43-2.37-2.2-2.37a3.61,3.61,0,0,0-1.91.51l.24.7A2.93,2.93,0,0,1-176.62,219.21Zm1.34,3.2a1,1,0,0,1-.06.34,1.43,1.43,0,0,1-1.4,1,.93.93,0,0,1-1-1c0-1.13,1.3-1.33,2.45-1.31Z" transform="translate(222.52 -208.06)"/><path class="a" d="M-172.55,226.74h1v-3.15h0a2,2,0,0,0,1.78.91c1.37,0,2.64-1,2.64-3.12,0-1.76-1.05-2.95-2.46-2.95a2.27,2.27,0,0,0-2.06,1.13h0l-.05-1h-.95c0,.55,0,1.15,0,1.9Zm1-5.73a2.13,2.13,0,0,1,.07-.44,1.69,1.69,0,0,1,1.6-1.3c1.12,0,1.73,1,1.73,2.16,0,1.33-.65,2.24-1.77,2.24a1.62,1.62,0,0,1-1.58-1.24,2.68,2.68,0,0,1,0-.43Z" transform="translate(222.52 -208.06)"/><path class="a" d="M-165.72,226.74h1v-3.15h0a2,2,0,0,0,1.78.91c1.37,0,2.64-1,2.64-3.12,0-1.76-1.06-2.95-2.46-2.95a2.27,2.27,0,0,0-2.06,1.13h0l0-1h-1c0,.55.05,1.15.05,1.9Zm1-5.73a2.13,2.13,0,0,1,.07-.44,1.69,1.69,0,0,1,1.6-1.3c1.11,0,1.72,1,1.72,2.16,0,1.33-.64,2.24-1.76,2.24a1.62,1.62,0,0,1-1.58-1.24,2.68,2.68,0,0,1-.05-.43Z" transform="translate(222.52 -208.06)"/><path class="a" d="M-204.59,225.05c3,0,.65-1.49.65-4.16,2.5.5,4-5-.65-5.5a5.11,5.11,0,0,0-5.35,4.83A5.11,5.11,0,0,0-204.59,225.05Z" transform="translate(222.52 -208.06)"/><path class="a" d="M-67.52,250.28h-61a6,6,0,0,0-6,6v.56a6,6,0,0,0,6,6h61a6,6,0,0,0,6-6v-.56A6,6,0,0,0-67.52,250.28Zm5,6.56a5,5,0,0,1-5,5h-61a5,5,0,0,1-5-5v-.56a5,5,0,0,1,5-5h61a5,5,0,0,1,5,5Z" transform="translate(222.52 -208.06)"/><path class="a" d="M-67.52,234.82h-61a6,6,0,0,0-6,6v.56a6,6,0,0,0,6,6h61a6,6,0,0,0,6-6v-.56A6,6,0,0,0-67.52,234.82Zm5,6.56a5,5,0,0,1-5,5h-61a5,5,0,0,1-5-5v-.56a5,5,0,0,1,5-5h61a5,5,0,0,1,5,5Z" transform="translate(222.52 -208.06)"/></svg>