<svg xmlns="http://www.w3.org/2000/svg" width="145" height="73" viewBox="0 0 145 73"><defs><style>.a{fill:#fff;}</style></defs><rect class="a" x="24" y="41" width="65" height="1"/><rect class="a" x="59.5" y="54" width="29.5" height="1"/><path class="a" d="M-121.12,230.18a.44.44,0,0,0,.42-.2,1,1,0,0,0,.1-.45v-.38a1,1,0,0,0-.1-.45q-.09-.21-.42-.21a.42.42,0,0,0-.41.22,1,1,0,0,0-.1.44v.38a.88.88,0,0,0,.11.45A.42.42,0,0,0-121.12,230.18Z" transform="translate(166.02 -177.06)"/><path class="a" d="M-126.5,229.37a1,1,0,0,0-.66-.25,1,1,0,0,0-.91.57,3.42,3.42,0,0,0-.36,1.74,4.52,4.52,0,0,0,.16,1.33,1.62,1.62,0,0,0,.44.78,1,1,0,0,0,.67.26,1,1,0,0,0,.92-.58,3.6,3.6,0,0,0,.35-1.79,4.62,4.62,0,0,0-.16-1.29A1.67,1.67,0,0,0-126.5,229.37Z" transform="translate(166.02 -177.06)"/><path class="a" d="M-133.52,232.1a1.33,1.33,0,0,0-.57-.13,1.32,1.32,0,0,0-.56.13,1.1,1.1,0,0,0-.39.35.92.92,0,0,0-.14.5.94.94,0,0,0,.14.5.93.93,0,0,0,.39.34,1.25,1.25,0,0,0,.56.12,1.26,1.26,0,0,0,.57-.12.92.92,0,0,0,.39-.34.94.94,0,0,0,.14-.5.92.92,0,0,0-.14-.5A1.1,1.1,0,0,0-133.52,232.1Z" transform="translate(166.02 -177.06)"/><path class="a" d="M-116,225.06h-20a6,6,0,0,0-6,6,6,6,0,0,0,6,6h20a6,6,0,0,0,6-6A6,6,0,0,0-116,225.06Zm-15.51,9.09a2.55,2.55,0,0,1-1,.74,4,4,0,0,1-1.52.27,4,4,0,0,1-1.51-.27,2.65,2.65,0,0,1-1.05-.74,1.63,1.63,0,0,1-.37-1.06,1.64,1.64,0,0,1,.21-.82,1.87,1.87,0,0,1,.59-.63,2.05,2.05,0,0,1,.83-.32v-.06a1.6,1.6,0,0,1-1-.56,1.5,1.5,0,0,1-.38-1,1.63,1.63,0,0,1,.34-1,2.38,2.38,0,0,1,.95-.7,3.49,3.49,0,0,1,1.37-.25,3.54,3.54,0,0,1,1.38.25,2.35,2.35,0,0,1,.94.7,1.58,1.58,0,0,1,.35,1,1.55,1.55,0,0,1-.39,1.05,1.64,1.64,0,0,1-1,.55v.06a2,2,0,0,1,.82.32,1.78,1.78,0,0,1,.59.63,1.55,1.55,0,0,1,.22.82A1.64,1.64,0,0,1-131.53,234.15Zm7.07-.66a2.87,2.87,0,0,1-1.06,1.3,2.92,2.92,0,0,1-1.64.45,2.92,2.92,0,0,1-1.64-.45,3,3,0,0,1-1.06-1.31,4.88,4.88,0,0,1-.37-2,5,5,0,0,1,.37-2,2.79,2.79,0,0,1,1.06-1.27,3,3,0,0,1,1.64-.44,3,3,0,0,1,1.64.44,2.73,2.73,0,0,1,1.06,1.27,4.81,4.81,0,0,1,.37,2A5.09,5.09,0,0,1-124.46,233.49Zm1.87-3.13a1.91,1.91,0,0,1-.19-.83v-.38a1.78,1.78,0,0,1,.2-.83,1.52,1.52,0,0,1,.57-.61,1.66,1.66,0,0,1,.89-.23,1.71,1.71,0,0,1,.91.23,1.52,1.52,0,0,1,.57.61,1.78,1.78,0,0,1,.19.83v.38a1.68,1.68,0,0,1-.2.84,1.41,1.41,0,0,1-.56.6,1.73,1.73,0,0,1-.91.22A1.73,1.73,0,0,1-122,231,1.54,1.54,0,0,1-122.59,230.36Zm.35,4.7,5-7.27h1l-5,7.27Zm6.56-1.36a1.87,1.87,0,0,1-.19.82,1.54,1.54,0,0,1-.57.62,1.73,1.73,0,0,1-.91.23,1.73,1.73,0,0,1-.91-.23,1.59,1.59,0,0,1-.56-.62,1.87,1.87,0,0,1-.19-.82v-.39a1.77,1.77,0,0,1,.2-.82,1.43,1.43,0,0,1,.56-.61,1.63,1.63,0,0,1,.9-.24,1.68,1.68,0,0,1,.92.24,1.54,1.54,0,0,1,.56.6,1.91,1.91,0,0,1,.19.83Z" transform="translate(166.02 -177.06)"/><path class="a" d="M-134.58,230.62a1,1,0,0,0,.49.12,1,1,0,0,0,.49-.12.79.79,0,0,0,.34-.31.91.91,0,0,0,.13-.46.85.85,0,0,0-.13-.45.82.82,0,0,0-.33-.31,1.12,1.12,0,0,0-.5-.11,1.14,1.14,0,0,0-.49.11.85.85,0,0,0-.34.31.84.84,0,0,0-.12.45.9.9,0,0,0,.12.46A1,1,0,0,0-134.58,230.62Z" transform="translate(166.02 -177.06)"/><path class="a" d="M-117.35,232.65a.42.42,0,0,0-.41.22.85.85,0,0,0-.11.44v.39a.84.84,0,0,0,.11.43.42.42,0,0,0,.41.21.42.42,0,0,0,.42-.2,1,1,0,0,0,.1-.44v-.39a1,1,0,0,0-.1-.44C-117,232.72-117.13,232.65-117.35,232.65Z" transform="translate(166.02 -177.06)"/><path class="a" d="M-37.52,177.06a16.5,16.5,0,0,0-16.42,15H-54v1h0c0,.17,0,.33,0,.5a16.33,16.33,0,0,0,.79,5l-1.22.21.16,1,1.41-.23a16.4,16.4,0,0,0,3.09,5l-.59.35.51.86.77-.46a16.48,16.48,0,0,0,11.58,4.75A16.5,16.5,0,0,0-21,193.56,16.5,16.5,0,0,0-37.52,177.06Zm1.86,26h-3.71v-2.59h3.71Zm0-4.32h-3.71c0-2.59-4.65-5.18-4.65-8.63a6.29,6.29,0,0,1,6.5-6.05,6.29,6.29,0,0,1,6.5,6.05C-31,193.56-35.66,196.15-35.66,198.74Z" transform="translate(166.02 -177.06)"/><rect class="a" x="92" y="15" width="2" height="1"/><rect class="a" x="88" y="15" width="2" height="1"/><rect class="a" x="96" y="15" width="2" height="1"/><rect class="a" x="104" y="15" width="2" height="1"/><rect class="a" x="108" y="15" width="2" height="1"/><rect class="a" x="100" y="15" width="2" height="1"/><rect class="a" x="-66.22" y="200.59" width="2" height="1" transform="translate(132.14 -185.04) rotate(-9.44)"/><rect class="a" x="-62.28" y="199.93" width="2" height="1" transform="translate(132.3 -184.4) rotate(-9.44)"/><rect class="a" x="-70.17" y="201.25" width="2" height="1" transform="translate(131.98 -185.68) rotate(-9.44)"/><rect class="a" x="-58.33" y="199.27" width="2" height="1" transform="translate(132.46 -183.76) rotate(-9.44)"/><rect class="a" x="-63.99" y="212.56" width="2" height="1" transform="translate(47.57 -179.14) rotate(-30.93)"/><rect class="a" x="-57.13" y="208.44" width="2" height="1" transform="translate(50.66 -176.2) rotate(-30.93)"/><path class="a" d="M-67,214.89v-4.83a6,6,0,0,0-6-6h-1v-1l2-.33-.17-1-1.81.31a6,6,0,0,0-6-6h-1v-1a5.8,5.8,0,0,0-.35-2H-80v-1h-1.81a6,6,0,0,0-5.19-3h-73a6,6,0,0,0-6,6v34a6,6,0,0,0,6,6h1v1a6,6,0,0,0,6,6h1v2a6,6,0,0,0,6,6h73a6,6,0,0,0,6-6v-28l1.72-1-.52-.86Zm-92,19.17h-1a5,5,0,0,1-5-5v-34a5,5,0,0,1,5-5h73a5,5,0,0,1,5,5v1h-71a6,6,0,0,0-6,6Zm7,7h-1a5,5,0,0,1-5-5v-34a5,5,0,0,1,5-5h73a5,5,0,0,1,5,5v2h-71a6,6,0,0,0-6,6Zm84,3a5,5,0,0,1-5,5h-73a5,5,0,0,1-5-5v-34a5,5,0,0,1,5-5h73a5,5,0,0,1,5,5Z" transform="translate(166.02 -177.06)"/><rect class="a" x="-53.7" y="206.39" width="2" height="1" transform="translate(52.2 -174.73) rotate(-30.93)"/><rect class="a" x="-60.56" y="210.5" width="2" height="1" transform="translate(49.11 -177.67) rotate(-30.93)"/></svg>