<svg xmlns="http://www.w3.org/2000/svg" width="191" height="102.55" viewBox="0 0 191 102.55"><defs><style>.a,.b{fill:#e5e5e5;}.a{fill-rule:evenodd;}</style></defs><path class="a" d="M-186.5,228h-73a6.51,6.51,0,0,0-6.5,6.5v34a6.51,6.51,0,0,0,6.5,6.5h46.25l6.25,11.55,6.25-11.55h14.25a6.51,6.51,0,0,0,6.5-6.5v-34A6.51,6.51,0,0,0-186.5,228Zm5.5,40.5a5.51,5.51,0,0,1-5.5,5.5h-14.84L-207,284.45-212.66,274H-259.5a5.51,5.51,0,0,1-5.5-5.5v-34a5.51,5.51,0,0,1,5.5-5.5h73a5.51,5.51,0,0,1,5.5,5.5Z" transform="translate(266 -184)"/><path class="a" d="M-235.52,242h-9.77l-1.23-3.66a.47.47,0,0,0-.19-.25A.44.44,0,0,0-247,238h-8.5a2,2,0,0,0-1.41.59,2,2,0,0,0-.59,1.41v16a2,2,0,0,0,.59,1.41,2,2,0,0,0,1.41.59h9.65l1.35,3.68a.48.48,0,0,0,.19.23.47.47,0,0,0,.28.09h8.53a2,2,0,0,0,1.42-.59,2,2,0,0,0,.58-1.41V244a2,2,0,0,0-.58-1.41A2,2,0,0,0-235.52,242Zm-11.31,9.68A4.49,4.49,0,0,1-250,253a4.44,4.44,0,0,1-2.08-.51,4.46,4.46,0,0,1-1.61-1.41,4.46,4.46,0,0,1-.77-2,4.43,4.43,0,0,1,.24-2.13,4.39,4.39,0,0,1,1.2-1.77,4.38,4.38,0,0,1,1.88-1,4.47,4.47,0,0,1,2.15,0,4.56,4.56,0,0,1,1.91,1,.44.44,0,0,1,.12.15.7.7,0,0,1,.06.19.58.58,0,0,1,0,.19.46.46,0,0,1-.09.17.61.61,0,0,1-.15.13.67.67,0,0,1-.19.05.68.68,0,0,1-.2,0,.59.59,0,0,1-.17-.1,3.48,3.48,0,0,0-2.11-.81,3.57,3.57,0,0,0-2.17.66,3.47,3.47,0,0,0-1.31,1.85,3.5,3.5,0,0,0,.09,2.26,3.53,3.53,0,0,0,1.46,1.73,3.53,3.53,0,0,0,2.22.48,3.56,3.56,0,0,0,2-1,3.52,3.52,0,0,0,1-2H-250a.47.47,0,0,1-.35-.15.51.51,0,0,1-.15-.35.51.51,0,0,1,.15-.35A.47.47,0,0,1-250,248h4a.49.49,0,0,1,.36.15.5.5,0,0,1,.14.35A4.5,4.5,0,0,1-246.83,251.69Zm12.31,8.32a1,1,0,0,1-.29.71,1,1,0,0,1-.71.29h-7.4l2.77-3.17a.41.41,0,0,0,.11-.23.43.43,0,0,0,0-.25l-.91-2.66a8.48,8.48,0,0,0,1-.89c1,1,1.93,1.91,2.12,2.08a.49.49,0,0,0,.36.13.46.46,0,0,0,.35-.16.54.54,0,0,0,.14-.36.53.53,0,0,0-.17-.35c-.47-.43-1.33-1.25-2.13-2.1a11.41,11.41,0,0,0,2.22-4H-236a.49.49,0,0,0,.36-.15.5.5,0,0,0,.14-.35.5.5,0,0,0-.14-.35.49.49,0,0,0-.36-.15h-3.5v-.54a.5.5,0,0,0-.14-.35A.49.49,0,0,0-240,247a.47.47,0,0,0-.35.15.51.51,0,0,0-.15.35v.5H-243a.38.38,0,0,0-.21,0l-1.72-5h9.43a1,1,0,0,1,.71.29,1,1,0,0,1,.29.71ZM-242,251.2a8.52,8.52,0,0,0,1.34,1.87,7.65,7.65,0,0,1-.65.62L-242.9,249h4.78A11.27,11.27,0,0,1-240,252.3a6.81,6.81,0,0,1-1.07-1.48.48.48,0,0,0-.27-.27.5.5,0,0,0-.38,0,.53.53,0,0,0-.27.28A.46.46,0,0,0-242,251.2Z" transform="translate(266 -184)"/><rect class="b" x="40.48" y="62.51" width="35" height="1"/><rect class="b" x="40.48" y="72.51" width="35" height="1"/><path class="a" d="M-81.5,228h-73a6.51,6.51,0,0,0-6.5,6.5v34a6.51,6.51,0,0,0,6.5,6.5h14.25l6.25,11.55,6.25-11.55H-81.5a6.51,6.51,0,0,0,6.5-6.5v-34A6.51,6.51,0,0,0-81.5,228Zm5.5,40.5a5.51,5.51,0,0,1-5.5,5.5h-46.84L-134,284.45-139.66,274H-154.5a5.51,5.51,0,0,1-5.5-5.5v-34a5.51,5.51,0,0,1,5.5-5.5h73a5.51,5.51,0,0,1,5.5,5.5Z" transform="translate(266 -184)"/><path class="a" d="M-129.46,243.16l-8.6-4.91a2,2,0,0,0-1.9,0l-8.61,4.91a1.85,1.85,0,0,0-1,1.63v10a1.87,1.87,0,0,0,1,1.64l14.84,8.55v-6.07l4.27-2.48a1.87,1.87,0,0,0,1-1.64v-10A1.74,1.74,0,0,0-129.46,243.16Zm-10.87,11a1.78,1.78,0,0,1-1.8,1.79,1.78,1.78,0,0,1-1.79-1.79,1.78,1.78,0,0,1,1.79-1.8,1.69,1.69,0,0,1,1.16.43l3.17-1.8a7.18,7.18,0,0,0,.58,1.06l-3.16,1.79A.72.72,0,0,1-140.33,254.19Zm5.49-2.38a1.78,1.78,0,0,1-1.8-1.79.61.61,0,0,1,.06-.32l-4.33-2.48a1.82,1.82,0,0,1-1.16.42,1.78,1.78,0,0,1-1.8-1.79,1.79,1.79,0,0,1,1.8-1.8,1.78,1.78,0,0,1,1.79,1.8.74.74,0,0,1-.05.32l4.33,2.48a1.88,1.88,0,0,1,1.21-.48A1.79,1.79,0,0,1-133,250,1.91,1.91,0,0,1-134.84,251.81Z" transform="translate(266 -184)"/><rect class="b" x="146.48" y="62.51" width="35" height="1"/><rect class="b" x="146.48" y="72.51" width="35" height="1"/><path class="a" d="M-135.26,214.5v-24a6.51,6.51,0,0,0-6.5-6.5h-56a6.51,6.51,0,0,0-6.5,6.5v24a6.51,6.51,0,0,0,6.5,6.5h21.25l6.25,11.55L-164,221h22.25A6.51,6.51,0,0,0-135.26,214.5ZM-164.6,220l-5.66,10.45L-175.91,220h-21.85a5.51,5.51,0,0,1-5.5-5.5v-24a5.51,5.51,0,0,1,5.5-5.5h56a5.51,5.51,0,0,1,5.5,5.5v24a5.51,5.51,0,0,1-5.5,5.5Z" transform="translate(266 -184)"/><path class="a" d="M-161.95,203.1a4.6,4.6,0,0,0,1.18.42,7,7,0,0,0,1.59.18,5,5,0,0,0,1.47-.21,3.36,3.36,0,0,0,1.15-.58,2.73,2.73,0,0,0,.75-.91,2.59,2.59,0,0,0,.27-1.2,2.33,2.33,0,0,0-.48-1.44,3.11,3.11,0,0,0-1.59-1l-1.47-.46a3.06,3.06,0,0,1-1.13-.57,1,1,0,0,1-.31-.73,1,1,0,0,1,.48-.92,2.63,2.63,0,0,1,1.37-.29,4.79,4.79,0,0,1,2,.4,1,1,0,0,0,.4.13c.15,0,.23-.12.23-.33v-.49a.59.59,0,0,0-.09-.34.82.82,0,0,0-.31-.25,1.76,1.76,0,0,0-.43-.19l-.59-.17-.67-.11a5.32,5.32,0,0,0-.69,0,4.3,4.3,0,0,0-1.3.18,3.16,3.16,0,0,0-1.07.53,2.62,2.62,0,0,0-.74.85,2.24,2.24,0,0,0-.28,1.14,2.47,2.47,0,0,0,.51,1.5,3.2,3.2,0,0,0,1.65,1l1.5.46a2.66,2.66,0,0,1,1,.54,1,1,0,0,1,.28.72,1.12,1.12,0,0,1-.54,1,2.73,2.73,0,0,1-1.5.34,6.33,6.33,0,0,1-1.23-.12,6.08,6.08,0,0,1-1.14-.37l-.25-.1a.63.63,0,0,0-.19,0c-.15,0-.24.1-.24.32v.53a.72.72,0,0,0,.07.28A.66.66,0,0,0-161.95,203.1Z" transform="translate(266 -184)"/><path class="a" d="M-173,202.92a.86.86,0,0,0,.22.4.59.59,0,0,0,.39.1h.89a.65.65,0,0,0,.41-.1.91.91,0,0,0,.2-.41l1.58-6.64,1.6,6.65a.74.74,0,0,0,.2.41.62.62,0,0,0,.41.1h.89a.67.67,0,0,0,.39-.1.89.89,0,0,0,.22-.4l2.48-8a1.48,1.48,0,0,0,.07-.26,1,1,0,0,0,0-.16.23.23,0,0,0-.26-.26h-.95a.72.72,0,0,0-.41.1.91.91,0,0,0-.2.4l-1.79,6.91-1.62-6.91a.78.78,0,0,0-.2-.4.63.63,0,0,0-.41-.1h-.83a.72.72,0,0,0-.41.1.81.81,0,0,0-.2.4l-1.6,6.83-1.74-6.83a.86.86,0,0,0-.2-.4.62.62,0,0,0-.41-.1h-1c-.16,0-.24.09-.24.26a1.91,1.91,0,0,0,.09.41Z" transform="translate(266 -184)"/><path class="a" d="M-179.42,198.09a8.36,8.36,0,0,0-1.09-.08,3.8,3.8,0,0,0-2.53.8,2.66,2.66,0,0,0-.94,2.13,2.65,2.65,0,0,0,.77,2,2.82,2.82,0,0,0,2.06.74,3.79,3.79,0,0,0,3-1.42c.11.23.22.43.32.61a3.25,3.25,0,0,0,.37.48.48.48,0,0,0,.31.14.54.54,0,0,0,.27-.09l.65-.43a.41.41,0,0,0,.19-.31.47.47,0,0,0-.07-.24,5.67,5.67,0,0,1-.33-.74,3.25,3.25,0,0,1-.11-.92h0V197.4a3.38,3.38,0,0,0-.86-2.53,3.75,3.75,0,0,0-2.7-.84,6,6,0,0,0-1.61.2,5.63,5.63,0,0,0-1.3.46.78.78,0,0,0-.29.22.65.65,0,0,0-.07.36v.5c0,.22.07.32.22.32l.16,0a2.38,2.38,0,0,0,.36-.13,7.27,7.27,0,0,1,1.12-.35,4.33,4.33,0,0,1,1.11-.14,2.36,2.36,0,0,1,1.68.48,2.27,2.27,0,0,1,.49,1.65v.75C-178.65,198.23-179,198.14-179.42,198.09Zm1.21,1.38v.44a3.22,3.22,0,0,1-.11.89,1.51,1.51,0,0,1-.35.66,2.28,2.28,0,0,1-1,.66,3.17,3.17,0,0,1-1.06.19,1.42,1.42,0,0,1-1.08-.38,1.43,1.43,0,0,1-.38-1.09,1.44,1.44,0,0,1,.5-1.19,2.38,2.38,0,0,1,1.54-.41,8,8,0,0,1,1,.06A8.92,8.92,0,0,1-178.21,199.47Z" transform="translate(266 -184)"/><path class="a" d="M-157.73,207.93a30.57,30.57,0,0,1-11.7,2.39,31,31,0,0,1-15.34-4.07c-.38-.23-.67.16-.35.45a22.71,22.71,0,0,0,15.33,5.85,22.2,22.2,0,0,0,12.56-3.84C-156.68,208.3-157.16,207.67-157.73,207.93Z" transform="translate(266 -184)"/><path class="a" d="M-159.87,206.51c-.3.21-.25.5.08.46,1.1-.13,3.54-.42,4,.13s-.48,2.85-.9,3.87c-.12.31.15.43.43.2,1.81-1.53,2.29-4.72,1.91-5.18S-157.93,205.15-159.87,206.51Z" transform="translate(266 -184)"/></svg>