<svg xmlns="http://www.w3.org/2000/svg" width="125" height="57" viewBox="0 0 125 57"><defs><style>.a{fill:#fff;}</style></defs><rect class="a" x="9" y="16" width="33" height="1"/><rect class="a" x="9" y="29" width="33" height="1"/><rect class="a" x="9" y="41" width="18.73" height="1"/><rect class="a" x="48" y="14" width="24" height="30" rx="2"/><path class="a" d="M722.36,332.36a5.46,5.46,0,1,0,5.45,5.46A5.46,5.46,0,0,0,722.36,332.36Z" transform="translate(-621.36 -310.18)"/><path class="a" d="M742.33,322.18H732.08l-3.68-4H716.32l-3.68,4h-5.28v-6a6,6,0,0,0-6-6h-74a6,6,0,0,0-6,6v45a6,6,0,0,0,6,6h74a6,6,0,0,0,6-6v-7h35a4,4,0,0,0,4-4v-24A4,4,0,0,0,742.33,322.18Zm-36,39a5,5,0,0,1-5,5h-74a5,5,0,0,1-5-5v-45a5,5,0,0,1,5-5h74a5,5,0,0,1,5,5v5.43h-3.83a4,4,0,0,0-3.95,3.33,3.94,3.94,0,0,0-.22,1.24v24a3.86,3.86,0,0,0,.46,1.81,4,4,0,0,0,3.71,2.51h3.83Zm39-11a3,3,0,0,1-3,3h-40a2.7,2.7,0,0,1-2.88-2.78V325.71a2.76,2.76,0,0,1,.06-.57,3,3,0,0,1,2.82-2h10.7l3.68-4H728l3.68,4h10.69a3,3,0,0,1,3,3Z" transform="translate(-621.36 -310.18)"/><path class="a" d="M722.36,327.18a11,11,0,1,0,11.06,11A11,11,0,0,0,722.36,327.18Zm0,21a10,10,0,1,1,10.06-10A10.05,10.05,0,0,1,722.36,348.18Z" transform="translate(-621.36 -310.18)"/></svg>