<svg xmlns="http://www.w3.org/2000/svg" width="304" height="323" viewBox="0 0 304 323" fill="none">
    <path
            d="M248.451 159.032L224.19 173.737L215.28 166.363L237.816 153.276L248.451 159.032Z"
            fill="#8C3758"
    />
    <path
            d="M231.085 84.9617C229.236 88.5457 266.594 110.101 266.594 110.101C266.594 110.101 266.434 96.8834 255.319 87.3662C249.995 82.8085 244.635 81.2424 240.292 81.2424C235.568 81.242 232.048 83.0944 231.085 84.9617Z"
            fill="url(#paint0_linear)"
    />
    <path
            d="M169.589 96.6246C157.633 112.696 149.262 139.653 166.149 152.133C183.035 164.612 201.587 164.803 201.587 164.803C201.587 164.803 221.469 162.577 226.977 165.225L232.485 167.872L238.865 157.412L238.261 168.903C238.261 168.903 277.831 183.559 299.368 174.711C299.368 174.711 299.697 153.548 281.68 127.033C276.643 119.62 270.173 111.789 261.86 103.886C243.831 86.7424 224.853 80.6071 208.602 80.6071C190.56 80.6071 175.879 88.1692 169.589 96.6246Z"
            fill="url(#paint1_radial)"
    />
    <path
            d="M211.973 121.08C211.973 121.08 207.34 119.128 204.172 119.46C201.004 119.792 194.845 116.807 193.529 113.035C192.213 109.263 190.162 108.418 190.162 108.418L202.509 108.188L211.973 121.08Z"
            fill="#DB5E83"
    />
    <path
            d="M284.219 129.344C279.91 121.216 269.197 108.13 254.973 97.2193C243.72 88.5872 226.703 78.5701 209.539 79.8663C205.562 80.1664 201.763 80.7955 198.248 81.7349C187.215 84.6848 180.535 90.2894 176.874 94.472C172.886 99.0276 171.537 102.855 171.481 103.016L171.007 104.391L172.421 103.928C175.523 103.099 198.571 111.915 203.664 115.862C206.208 117.834 214.932 124.28 223.261 130.108C239.834 141.703 241.189 141.341 241.84 141.166C244.336 140.499 259.896 137.966 260.053 137.94L260.179 137.92L260.294 137.862C261.649 137.187 268.462 133.771 269.529 132.852C270.04 132.411 270.349 131.838 270.676 131.23C271.167 130.316 271.724 129.28 273.159 128.2C273.293 128.1 273.469 128.02 273.684 127.962C276.032 127.334 281.3 129.516 283.132 130.409L285.36 131.496L284.219 129.344Z"
            fill="#AA4365"
    />
    <path
            d="M209.923 79.7425C179.603 82.032 172.596 102.332 172.596 102.332C176.053 101.202 199.813 110.703 204.553 114.377C209.293 118.051 239.494 140.242 242.06 139.557C244.625 138.871 260.354 136.313 260.354 136.313C260.354 136.313 268.372 132.316 269.412 131.421C270.452 130.525 270.54 128.649 273.087 126.733C275.633 124.816 283.897 128.847 283.897 128.847C275.02 112.101 242.439 79.6326 212.866 79.6326C211.882 79.6326 210.9 79.6686 209.923 79.7425Z"
            fill="url(#paint2_linear)"
    />
    <path
            d="M280.62 100.683C275.359 102.141 272.696 110.296 274.675 118.899C276.653 127.5 282.523 133.292 287.784 131.834C293.046 130.376 295.708 122.22 293.73 113.618C291.957 105.91 287.059 100.458 282.274 100.458C281.72 100.458 281.167 100.531 280.62 100.683Z"
            fill="url(#paint3_linear)"
    />
    <path
            d="M283.489 102.385C280.286 103.272 279.053 109.918 280.734 117.228C282.416 124.539 286.375 129.746 289.578 128.858C292.78 127.971 294.014 121.325 292.332 114.015C290.776 107.25 287.27 102.286 284.217 102.286C283.971 102.286 283.728 102.319 283.489 102.385Z"
            fill="url(#paint4_linear)"
    />
    <path
            d="M167.976 121.731C156.9 124.13 153.086 131.004 153.559 140.848C153.849 146.866 155.794 152.298 158.696 157.228C163.543 165.462 180.278 173.569 188.851 159.066C192.275 153.274 192.612 147.669 191.742 143.033C191.042 139.307 189.849 135.678 187.993 132.445C186.971 130.665 185.749 129.004 184.298 127.513C181.415 124.551 177.023 121.364 171.346 121.363C170.268 121.363 169.144 121.478 167.976 121.731Z"
            fill="url(#paint5_linear)"
    />
    <path
            d="M180.389 137.284C178.699 134.093 172.125 123.433 161.661 127.84C160.575 128.297 159.629 129.052 158.933 130.025C156.557 133.339 152.167 142.199 160.686 154.858C160.686 154.858 167.55 165.284 177.846 161.14C186.894 157.499 182.339 142.508 181.102 138.925C180.905 138.357 180.669 137.812 180.389 137.284Z"
            fill="#FFE6EE"
    />
    <path
            d="M163.621 128.836C161.211 129.416 159.157 130.995 157.935 133.214C155.755 137.174 153.603 144.902 160.619 155.33C160.619 155.33 167.177 165.289 177.011 161.331C186.014 157.707 180.919 142.323 179.991 139.741C179.893 139.469 179.781 139.209 179.652 138.952C178.65 136.954 173.962 128.518 166.247 128.517C165.407 128.517 164.532 128.617 163.621 128.836Z"
            fill="url(#paint6_linear)"
    />
    <path
            d="M166.696 147.1C167.54 148.676 168.93 149.48 169.802 148.897C170.674 148.314 170.697 146.564 169.853 144.989C169.01 143.414 167.619 142.61 166.747 143.193C165.875 143.775 165.853 145.525 166.696 147.1Z"
            fill="#AA4365"
    />
    <rect
            x="135"
            y="60"
            width="0.338363"
            height="0.334769"
            fill="url(#pattern0)"
    />
    <path
            d="M219.982 167.075C218.929 165.576 214.989 160.667 210.616 164.073C210.162 164.427 209.799 164.922 209.568 165.505C208.781 167.493 207.568 172.603 212.571 178.358C212.571 178.358 216.622 183.114 220.942 179.864C224.738 177.007 221.333 169.613 220.451 167.862C220.312 167.584 220.156 167.323 219.982 167.075Z"
            fill="#FFE6EE"
    />
    <rect
            x="135"
            y="60"
            width="0.330897"
            height="0.339108"
            fill="url(#pattern1)"
    />
    <path
            d="M214.6 173.637C215.124 174.375 215.828 174.652 216.174 174.256C216.519 173.858 216.374 172.937 215.85 172.199C215.326 171.46 214.621 171.183 214.276 171.58C213.931 171.977 214.076 172.898 214.6 173.637Z"
            fill="#AA4365"
    />
    <g opacity="0.4">
        <g opacity="0.4">
            <rect
                    opacity="0.4"
                    x="135"
                    y="60"
                    width="0.3374"
                    height="0.337478"
                    fill="url(#pattern2)"
            />
        </g>
    </g>
    <rect
            x="135"
            y="60"
            width="0.337979"
            height="0.336348"
            fill="url(#pattern3)"
    />
    <path
            d="M285.242 170.176V168.401L276.327 168.021V170.873L285.242 170.176Z"
            fill="#AA4365"
    />
    <path
            d="M285.195 171.22L276.803 173.597L277.449 176.007L285.749 172.932L285.195 171.22Z"
            fill="#AA4365"
    />
    <path
            d="M276.327 168.654H284.965L285.091 170.188L285.242 170.176V168.401L276.327 168.021V168.654Z"
            fill="#691036"
    />
    <path
            d="M276.968 174.211L285.014 171.621L285.749 172.932L285.195 171.22L276.803 173.597L276.968 174.211Z"
            fill="#691036"
    />
    <path
            d="M272.114 129.081L282.681 141.384L282.86 141.221L282.64 141.317L282.663 141.307L282.64 141.317V141.317L282.663 141.307L282.64 141.317C282.647 141.334 282.757 141.624 282.757 142.079C282.756 142.322 282.725 142.612 282.631 142.936C282.615 142.992 282.612 143.04 282.611 143.091C282.612 143.237 282.644 143.407 282.696 143.631C282.894 144.461 283.418 145.98 284.097 147.814C286.135 153.31 289.563 161.574 289.563 161.576L289.782 161.479L289.552 161.543L291.024 167.218L291.485 167.091L290.008 161.398L290.002 161.382C290.002 161.382 289.894 161.121 289.704 160.662C289.041 159.051 287.383 155 285.891 151.172C285.145 149.258 284.441 147.4 283.924 145.931C283.666 145.197 283.454 144.561 283.309 144.066C283.236 143.819 283.18 143.608 283.142 143.44C283.105 143.274 283.088 143.146 283.089 143.091L283.09 143.072V143.071L283.029 143.058L283.088 143.077L283.09 143.071L283.029 143.058L283.088 143.077C283.196 142.704 283.233 142.365 283.233 142.079C283.233 141.507 283.088 141.147 283.079 141.126L283.063 141.088L272.471 128.755L272.114 129.081Z"
            fill="#AA4365"
    />
    <path
            d="M246.917 155.362C246.917 155.362 249.851 155.717 252.891 156.077C254.412 156.258 255.96 156.439 257.18 156.578C258.404 156.717 259.287 156.813 259.521 156.825L259.532 156.579H259.294V161.935L265.708 157.441L265.574 157.238L265.625 157.478C265.627 157.477 271.213 156.194 277.674 154.491C284.139 152.786 291.465 150.669 294.996 148.973L294.794 148.527C291.341 150.189 284.006 152.315 277.556 154.014C274.33 154.865 271.321 155.611 269.119 156.144C268.017 156.41 267.118 156.625 266.494 156.771C265.87 156.918 265.523 156.998 265.523 156.998L265.477 157.008L259.77 161.007V156.344L259.543 156.334C259.351 156.324 258.448 156.228 257.232 156.089C255.403 155.881 252.838 155.577 250.73 155.325C249.676 155.199 248.737 155.086 248.061 155.005C247.385 154.924 246.973 154.874 246.972 154.874L246.917 155.362Z"
            fill="#AA4365"
    />
    <path
            d="M160.913 112.172C160.914 112.172 161.268 112.226 161.915 112.342C164.176 112.749 169.976 113.907 176.297 116.068C182.617 118.227 189.457 121.397 193.79 125.787L193.957 125.612H193.719V133.443L207.217 135.475L207.251 135.232L207.088 135.412C207.093 135.416 211.844 139.986 218.182 144.764C224.524 149.54 232.436 154.532 238.844 155.36L238.903 154.871C232.672 154.078 224.773 149.127 218.464 144.367C215.307 141.988 212.543 139.658 210.569 137.924C209.583 137.056 208.793 136.338 208.251 135.837C207.98 135.586 207.77 135.389 207.629 135.256C207.487 135.122 207.414 135.052 207.414 135.052L207.359 135L194.196 133.017V125.508L194.124 125.436C189.06 120.313 180.782 116.892 173.765 114.731C166.747 112.573 160.991 111.686 160.983 111.685L160.913 112.172Z"
            fill="#AA4365"
    />
    <path
            d="M230.497 132.241C219.882 135.078 212.688 143.911 214.428 151.97C216.168 160.028 226.184 164.26 236.799 161.422C247.413 158.584 254.608 149.751 252.868 141.693C251.495 135.335 244.968 131.358 237.061 131.358C234.948 131.358 232.736 131.642 230.497 132.241Z"
            fill="url(#paint7_linear)"
    />
    <path
            d="M230.986 134.413C221.965 136.825 215.851 144.331 217.33 151.18C218.808 158.028 227.32 161.624 236.341 159.213C245.362 156.801 251.476 149.294 249.998 142.446C248.831 137.042 243.285 133.663 236.565 133.663C234.769 133.663 232.889 133.905 230.986 134.413Z"
            fill="url(#paint8_linear)"
    />
    <path
            d="M297.529 153.409C297.477 153.492 297.415 153.571 297.358 153.65C296.972 154.166 296.561 154.683 296.018 155.022C295.65 155.253 295.235 155.396 294.816 155.504C294.215 155.662 293.59 155.745 292.97 155.76H292.86C292.564 155.765 292.268 155.75 291.973 155.725C291.863 155.72 291.754 155.71 291.648 155.701C291.52 155.686 291.396 155.676 291.272 155.662C291.038 155.632 290.809 155.603 290.575 155.573C290.303 155.538 290.036 155.504 289.765 155.474C289.469 155.44 289.178 155.411 288.882 155.396C287.585 155.317 286.211 155.484 285.133 156.291C284.403 156.837 283.693 157.417 282.968 157.978C281.174 159.365 279.291 160.712 277.163 161.494C274.95 162.311 272.561 162.33 270.49 161.086C264.852 157.712 266.526 149.39 271.416 146.518C276.3 143.646 281.394 147.325 283.564 146.115C285.682 144.935 286.702 142.431 289.121 141.59C290.99 140.941 292.607 141.034 293.948 141.566C296.385 142.529 297.911 144.93 298.407 146.907C299.018 149.312 298.813 151.53 297.529 153.409Z"
            fill="#230B13"
    />
    <rect
            x="135"
            y="60"
            width="0.336875"
            height="0.333226"
            fill="url(#pattern4)"
    />
    <rect
            x="135"
            y="60"
            width="0.33232"
            height="0.337978"
            fill="url(#pattern5)"
    />
    <path
            d="M270.853 154.333C271.039 157.066 273.303 159.012 275.911 158.679C278.519 158.346 280.482 155.861 280.296 153.129C280.11 150.396 277.845 148.45 275.238 148.783C272.63 149.116 270.666 151.601 270.853 154.333Z"
            fill="#00B2FE"
    />
    <path
            d="M275.36 150.261C273.529 150.495 272.149 152.241 272.28 154.162C272.41 156.081 274.002 157.448 275.834 157.214C277.666 156.98 279.045 155.235 278.914 153.315C278.793 151.538 277.422 150.236 275.767 150.236C275.633 150.236 275.498 150.244 275.36 150.261Z"
            fill="#333333"
    />
    <path
            d="M286.909 149.312C287.078 151.804 289.144 153.578 291.522 153.275C293.9 152.971 295.691 150.705 295.521 148.212C295.351 145.72 293.286 143.946 290.908 144.249C288.53 144.553 286.739 146.819 286.909 149.312Z"
            fill="#00B2FE"
    />
    <path
            d="M291.067 145.59C289.396 145.803 288.138 147.395 288.257 149.146C288.376 150.897 289.827 152.143 291.498 151.931C293.169 151.717 294.426 150.125 294.308 148.374C294.197 146.754 292.947 145.566 291.438 145.566C291.315 145.566 291.192 145.574 291.067 145.59Z"
            fill="#333333"
    />
    <path
            d="M294.151 165.242C289.804 166.405 286.895 170.197 287.654 173.714C288.413 177.23 292.553 179.138 296.901 177.976C301.248 176.813 304.157 173.02 303.398 169.505C302.789 166.687 300.01 164.902 296.693 164.901C295.87 164.901 295.015 165.011 294.151 165.242Z"
            fill="url(#paint9_radial)"
    />
    <g opacity="0.21">
        <path
                opacity="0.21"
                d="M288.956 172.274C289.409 174.376 291.884 175.516 294.483 174.822C297.081 174.127 298.819 171.86 298.366 169.759C297.912 167.657 295.437 166.516 292.839 167.211C290.24 167.905 288.502 170.173 288.956 172.274Z"
                fill="#F1F2F2"
        />
    </g>
    <path
            opacity="0.66"
            d="M121.007 182.529V229.649C121.007 234.218 118.561 238.417 114.453 240.494L87.5013 253.37L87.3167 253.185V253.37L86.6706 253.185L44.3967 232.418V230.664H44.8121L46.935 231.587L47.9965 231.079L71.8101 219.173C75.9175 217.096 78.5481 212.896 78.5481 208.327V161.3L121.007 182.529Z"
            fill="url(#paint10_linear)"
    />
    <path
            d="M87.0398 251.57L86.7629 253.139L44.3967 232.418V230.71H44.8121L45.0428 230.664L47.9965 231.125L87.4551 237.494L87.0398 251.57Z"
            fill="#EFEFF4"
    />
    <path
            d="M119.161 181.652V227.941C119.161 228.403 119.253 228.864 119.207 229.326C119.161 229.695 119.161 230.11 119.068 230.479C118.561 232.741 117.499 234.771 115.884 236.387C115.33 236.94 114.73 237.448 114.084 237.863C113.669 238.14 113.253 238.371 112.838 238.602L110.807 239.617L87.0399 251.616L45.2275 230.71L70.7949 217.742C70.9795 217.649 71.1641 217.557 71.3487 217.465C72.4102 216.865 73.3332 216.127 74.0716 215.25C74.2562 215.019 74.4408 214.834 74.6254 214.604C75.8253 213.034 76.656 211.188 76.9791 209.158C77.0714 208.466 77.2098 207.819 77.2098 207.127V160.792L119.161 181.652Z"
            fill="url(#paint11_linear)"
    />
    <path
            opacity="0.66"
            d="M210.723 249.678C210.723 249.678 210.862 251.985 209.477 252.955C208.093 253.878 201.77 257.662 201.77 257.662V129.133L196.324 125.625L2.44604 5.40341L9.55322 1.20372C9.55322 1.20372 10.5224 0.511459 12.5068 1.11141C14.4913 1.66522 204.447 113.672 204.447 113.672C204.447 113.672 207.4 115.103 209.292 118.472C209.892 119.487 210.354 120.687 210.631 122.118C210.631 122.118 211 123.456 210.954 124.61C211 125.764 210.723 249.678 210.723 249.678Z"
            fill="url(#paint12_linear)"
    />
    <path
            opacity="0.56"
            d="M210.723 249.678C210.723 249.678 210.862 251.985 209.477 252.955C208.139 253.878 201.77 257.662 201.77 257.662V129.133L196.324 125.625L194.294 124.333L2.44604 5.40341L9.50706 1.20372C9.50706 1.20372 10.4762 0.511459 12.4607 1.11141C14.4452 1.66522 204.401 113.672 204.401 113.672C204.401 113.672 207.216 115.057 209.108 118.241C209.154 118.334 209.2 118.426 209.246 118.472C209.846 119.487 210.308 120.733 210.585 122.118C210.585 122.118 210.908 123.456 210.908 124.61C211 125.764 210.723 249.678 210.723 249.678Z"
            fill="white"
    />
    <path
            d="M211 124.61C211 123.456 210.677 122.118 210.677 122.118C210.4 120.733 209.938 119.487 209.338 118.472L196.37 125.579L201.816 129.087V254.524C201.816 254.524 201.954 254.524 201.954 254.57C201.447 254.847 200.385 258.031 200.385 258.031C200.385 258.031 201.354 257.939 202.185 257.662C202.324 257.616 202.6 257.431 202.923 257.247C204.585 256.231 208.692 253.693 209.754 252.955C211.138 252.032 210.769 249.678 210.769 249.678C210.769 249.678 211 125.764 211 124.61Z"
            fill="url(#paint13_linear)"
    />
    <path
            d="M210.723 249.678C210.723 249.678 210.861 251.985 209.477 252.955C208.139 253.878 201.77 257.662 201.77 257.662V129.133L196.324 125.625L194.386 124.333L209.154 118.287C209.2 118.38 209.246 118.472 209.292 118.518C209.892 119.534 210.354 120.78 210.631 122.164C210.631 122.164 210.954 123.502 210.954 124.656C211 125.764 210.723 249.678 210.723 249.678Z"
            fill="url(#paint14_linear)"
    />
    <path
            opacity="0.63"
            d="M210.723 249.678C210.723 249.678 210.861 251.985 209.477 252.955C208.139 253.878 201.77 257.662 201.77 257.662V129.133L196.324 125.625L194.386 124.333L209.154 118.287C209.2 118.38 209.246 118.472 209.292 118.518C209.892 119.534 210.354 120.78 210.631 122.164C210.631 122.164 210.954 123.502 210.954 124.656C211 125.764 210.723 249.678 210.723 249.678Z"
            fill="url(#paint15_linear)"
    />
    <path
            d="M203.708 128.487L203.339 253.924C203.339 257.616 200.708 259.139 197.57 257.293L5.99952 144.778C4.56886 143.947 3.27666 142.563 2.26134 140.993C1.01528 139.009 0.230713 136.701 0.230713 134.625L0.599925 9.23386C0.599925 5.54183 3.2305 4.01886 6.41489 5.86488L197.985 118.334C199.601 119.303 201.078 120.918 202.093 122.81C203.108 124.656 203.708 126.687 203.708 128.487Z"
            fill="url(#paint16_linear)"
    />
    <path
            d="M203.708 128.487L203.339 253.924C203.339 257.616 200.708 259.139 197.57 257.293L5.99952 144.778C4.56886 143.947 3.27666 142.563 2.26134 140.993C1.01528 139.009 0.230713 136.701 0.230713 134.625L0.599925 9.23386C0.599925 5.54183 3.2305 4.01886 6.41489 5.86488L197.985 118.334C199.601 119.303 201.078 120.918 202.093 122.81C203.108 124.656 203.708 126.687 203.708 128.487Z"
            fill="url(#paint17_linear)"
    />
    <path
            d="M203.708 128.487L203.385 249.678V252.862C156.865 226.095 46.7042 162.546 7.47634 139.609C4.70731 137.994 2.26133 136.563 0.23071 135.363C0.23071 135.132 0.18457 134.855 0.18457 134.625V132.086L0.369169 58.2457V12.049L0.461462 9.23386C0.461462 5.54183 3.13819 4.01886 6.32258 5.86488L197.893 118.334C199.232 119.118 200.524 120.457 201.493 121.933C201.678 122.21 201.862 122.487 202.001 122.81C203.062 124.656 203.708 126.687 203.708 128.487Z"
            fill="#212D3A"
    />
    <path
            opacity="0.25"
            d="M201.539 121.979L7.47638 139.609C4.70735 137.994 2.26137 136.563 0.230752 135.363C0.230752 135.132 0.184613 134.855 0.184613 134.625L0 132.086L0.0461533 58.2457V12.049L0.276906 9.23386C0.276906 5.54183 2.99979 4.01886 6.18417 5.86488L197.801 118.334C199.232 119.164 200.524 120.457 201.539 121.979Z"
            fill="white"
    />
    <path
            d="M188.386 124.103V124.287L188.109 232.464C188.109 235.648 185.848 236.987 183.033 235.371L17.3064 139.701L14.9528 138.363C13.799 137.717 12.7837 136.655 11.9068 135.409C10.6608 133.656 9.87619 131.487 9.92234 129.641L9.96849 114.734V112.842L10.0146 98.5813V97.0122L10.0608 76.3368L10.1992 21.4638C10.1992 18.2795 12.5068 16.9411 15.2758 18.5564L100.931 67.9835L132.313 86.1207L155.435 99.4581L183.356 115.565C184.786 116.395 186.079 117.826 187.002 119.487C187.832 120.964 188.386 122.626 188.386 124.103Z"
            fill="url(#paint18_linear)"
    />
    <path
            d="M39.3201 79.5211L21.8291 69.4141V75.3675L39.3201 85.4745V79.5211Z"
            fill="#4AFFFF"
    />
    <path
            d="M39.5968 47.1695L21.9211 36.9241L21.875 51.0923L39.5506 61.2916L39.5968 47.1695Z"
            fill="#4AFFFF"
    />
    <path
            d="M115.93 125.118L48.5042 86.2128V89.3511L115.93 128.302V125.118Z"
            fill="white"
    />
    <path
            d="M175.972 179.483L48.4578 105.873L48.4116 109.011L175.925 182.667L175.972 179.483Z"
            fill="#4AFFFF"
    />
    <path
            d="M175.879 198.22L48.3655 124.61V127.748L175.879 201.358V198.22Z"
            fill="#4AFFFF"
    />
    <path
            d="M176.295 159.961L125.16 130.517V133.656L176.295 163.146V159.961Z"
            fill="#4AFFFF"
    />
    <path
            d="M138.774 148.008L48.4578 95.8583V99.0427L138.728 151.147L138.774 148.008Z"
            fill="white"
    />
    <path
            d="M176.294 169.653L149.066 153.962V157.146L176.294 172.837V169.653Z"
            fill="white"
    />
    <path
            d="M105.269 85.1053L48.5042 52.3384V55.7536L105.269 88.5204V85.1053Z"
            fill="white"
    />
    <path
            d="M156.081 114.411L113.069 89.6281V93.0893L156.081 117.826V114.411Z"
            fill="#4AFFFF"
    />
    <path
            d="M124.468 106.75L48.4578 62.8607V66.3219L124.468 110.211V106.75Z"
            fill="#4AFFFF"
    />
    <path
            d="M156.081 124.979L133.19 111.78L133.144 115.195L156.035 128.44L156.081 124.979Z"
            fill="white"
    />
    <path
            d="M115.791 173.853L48.3655 134.902V138.04L115.791 176.991V173.853Z"
            fill="white"
    />
    <path
            d="M176.156 208.65L125.021 179.206V182.391L176.156 211.835V208.65Z"
            fill="#4AFFFF"
    />
    <path
            d="M138.636 196.697L48.3193 144.593V147.731L138.59 199.881L138.636 196.697Z"
            fill="white"
    />
    <path
            d="M176.156 218.388L148.927 202.651V205.835L176.156 221.526V218.388Z"
            fill="white"
    />
    <path
            d="M176.202 189.682L149.02 173.991V177.129L176.202 192.867V189.682Z"
            fill="white"
    />
    <path
            d="M143.066 170.53L82.6553 135.686V138.824L143.02 173.714L143.066 170.53Z"
            fill="white"
    />
    <path
            d="M69.2255 127.933L48.4116 115.888V119.072L69.2255 131.071V127.933Z"
            fill="#4AFFFF"
    />
    <path
            d="M39.3199 88.9819L21.8289 78.875L21.7827 84.8746L39.2738 94.9354L39.3199 88.9819Z"
            fill="#4AFFFF"
    />
    <path
            d="M39.2279 118.057L21.7368 107.996L21.6907 113.949L39.2279 124.056V118.057Z"
            fill="#4AFFFF"
    />
    <path
            d="M39.1817 127.795L21.6907 117.688V123.687L39.1817 133.748V127.795Z"
            fill="#4AFFFF"
    />
    <path
            d="M39.1817 137.532L21.6907 127.425L21.6445 133.379L39.1355 143.486L39.1817 137.532Z"
            fill="#4AFFFF"
    />
    <path
            d="M39.2738 98.812L21.7827 88.705V94.7046L39.2738 104.812V98.812Z"
            fill="#4AFFFF"
    />
    <path
            d="M39.2278 108.55L21.7368 98.4427V104.396L39.2278 114.503V108.55Z"
            fill="#4AFFFF"
    />
    <path
            d="M95.024 193.79C95.024 194.851 94.2856 195.313 93.3164 194.759C92.3934 194.205 91.6089 192.913 91.655 191.851C91.655 190.79 92.3934 190.328 93.3626 190.882C94.2394 191.436 95.024 192.728 95.024 193.79Z"
            fill="#17202F"
    />
    <path
            d="M94.7007 193.19L91.4702 192.359V192.313L94.7007 193.144V193.19Z"
            fill="#17202F"
    />
    <path
            d="M94.7007 193.236L91.4702 192.405V192.359L94.7007 193.19V193.236Z"
            fill="#17202F"
    />
    <path
            d="M94.7007 193.282L91.4702 192.451V192.405L94.7007 193.236V193.282Z"
            fill="#17202F"
    />
    <path
            d="M94.7007 193.328L91.4702 192.498V192.451L94.7007 193.282V193.328Z"
            fill="#17202F"
    />
    <path
            d="M94.7007 193.374L91.4702 192.544V192.497L94.7007 193.328V193.374Z"
            fill="#17202F"
    />
    <path
            d="M94.7007 193.42L91.4702 192.59V192.544L94.7007 193.374V193.42Z"
            fill="#17202F"
    />
    <path
            d="M94.7007 193.467L91.4702 192.636V192.59L94.7007 193.421V193.467Z"
            fill="#17202F"
    />
    <path
            d="M94.7007 193.513L91.4702 192.682V192.636L94.7007 193.467V193.513Z"
            fill="#17202F"
    />
    <path
            d="M94.7007 193.559L91.4702 192.728V192.682L94.7007 193.513V193.559Z"
            fill="#17202F"
    />
    <path
            d="M94.7007 193.605L91.4702 192.774V192.728L94.7007 193.559V193.605Z"
            fill="#17202F"
    />
    <path
            d="M94.7007 193.651L91.4702 192.821V192.774L94.7007 193.605V193.651Z"
            fill="#17202F"
    />
    <path
            d="M94.7007 193.697L91.4702 192.867V192.821L94.7007 193.651V193.697Z"
            fill="#17202F"
    />
    <path
            d="M94.7007 193.744L91.4702 192.913V192.867L94.7007 193.697V193.744Z"
            fill="#17202F"
    />
    <path
            d="M94.7007 193.79L91.4702 192.959V192.913L94.7007 193.744V193.79Z"
            fill="#17202F"
    />
    <path
            d="M94.7007 193.836L91.4702 193.005V192.959L94.7007 193.79V193.836Z"
            fill="#17202F"
    />
    <path
            d="M94.7007 193.882L91.4702 193.051V193.005L94.7007 193.836V193.882Z"
            fill="#17202F"
    />
    <path
            d="M94.7007 193.928L91.4702 193.097V193.051L94.7007 193.882V193.928Z"
            fill="#17202F"
    />
    <path
            d="M94.7007 193.974L91.4702 193.144V193.098L94.7007 193.928V193.974Z"
            fill="#17202F"
    />
    <path
            d="M94.7007 194.021L91.4702 193.19V193.144L94.7007 193.974V194.021Z"
            fill="#17202F"
    />
    <path
            d="M94.7007 194.067L91.4702 193.236V193.19L94.7007 194.021V194.067Z"
            fill="#17202F"
    />
    <path
            d="M94.7007 194.113L91.4702 193.282V193.236L94.7007 194.067V194.113Z"
            fill="#17202F"
    />
    <path
            d="M94.7007 194.159L91.4702 193.328V193.282L94.7007 194.113V194.159Z"
            fill="#17202F"
    />
    <path
            d="M94.7007 194.205L91.4702 193.374V193.328L94.7007 194.159V194.205Z"
            fill="#17202F"
    />
    <path
            d="M94.7007 194.251L91.4702 193.42V193.374L94.7007 194.205V194.251Z"
            fill="#17202F"
    />
    <path
            d="M94.7007 194.297L91.4702 193.467V193.421L94.7007 194.251V194.297Z"
            fill="#17202F"
    />
    <path
            d="M94.7007 194.344L91.4702 193.513V193.467L94.7007 194.297V194.344Z"
            fill="#17202F"
    />
    <path
            d="M94.7007 194.39L91.4702 193.559V193.513L94.7007 194.344V194.39Z"
            fill="#17202F"
    />
    <path
            d="M94.7007 194.436L91.4702 193.605V193.559L94.7007 194.39V194.436Z"
            fill="#17202F"
    />
    <path
            d="M94.7007 194.482L91.4702 193.651V193.605L94.7007 194.436V194.482Z"
            fill="#17202F"
    />
    <path
            d="M94.7007 194.528L91.4702 193.697V193.651L94.7007 194.482V194.528Z"
            fill="#17202F"
    />
    <path
            d="M94.7007 194.574L91.4702 193.744V193.698L94.7007 194.528V194.574Z"
            fill="#17202F"
    />
    <path
            d="M94.7007 194.62L91.4702 193.79V193.744L94.7007 194.574V194.62Z"
            fill="#17202F"
    />
    <path
            d="M94.7007 194.667L91.4702 193.836V193.79L94.7007 194.62V194.667Z"
            fill="#17202F"
    />
    <path
            d="M94.7007 194.713L91.4702 193.882V193.836L94.7007 194.667V194.713Z"
            fill="#17202F"
    />
    <path
            d="M94.7007 194.759L91.4702 193.928V193.882L94.7007 194.713V194.759Z"
            fill="#17202F"
    />
    <path
            d="M94.7007 194.805L91.4702 193.974V193.928L94.7007 194.759V194.805Z"
            fill="#17202F"
    />
    <path
            d="M94.7007 194.851L91.4702 194.067V193.974L94.7007 194.805V194.851Z"
            fill="#17202F"
    />
    <path
            d="M94.7007 194.897L91.4702 194.113V194.067L94.7007 194.851V194.897Z"
            fill="#17202F"
    />
    <path
            d="M94.7007 194.944L91.4702 194.159V194.113L94.7007 194.897V194.944Z"
            fill="#17202F"
    />
    <path
            d="M94.7007 195.036L91.4702 194.205V194.159L94.7007 194.943V195.036Z"
            fill="#17202F"
    />
    <path
            d="M94.7007 195.082L91.4702 194.251V194.205L94.7007 195.036V195.082Z"
            fill="#17202F"
    />
    <path
            d="M94.7007 195.128L91.4702 194.297V194.251L94.7007 195.082V195.128Z"
            fill="#17202F"
    />
    <path
            d="M94.7007 195.174L91.4702 194.344V194.297L94.7007 195.128V195.174Z"
            fill="#17202F"
    />
    <path
            d="M94.7007 195.22L91.4702 194.39V194.344L94.7007 195.174V195.22Z"
            fill="#17202F"
    />
    <path
            d="M94.7007 195.266L91.4702 194.436V194.39L94.7007 195.22V195.266Z"
            fill="#17202F"
    />
    <path
            d="M94.7007 195.313L91.4702 194.482V194.436L94.7007 195.267V195.313Z"
            fill="#17202F"
    />
    <path
            d="M94.8392 196.005L91.4702 194.528V194.482L94.7007 195.313V196.005H94.8392Z"
            fill="#17202F"
    />
    <path
            d="M94.6546 196.005L91.4702 194.574V194.528L94.8392 196.005H94.6546Z"
            fill="#17202F"
    />
    <path
            d="M94.4239 196.005L91.4702 194.62V194.574L94.6546 196.005H94.4239Z"
            fill="#17202F"
    />
    <path
            d="M94.2392 196.005L91.4702 194.667V194.62L94.4239 196.005H94.2392Z"
            fill="#17202F"
    />
    <path
            d="M94.0546 196.005L91.4702 194.713V194.667L94.2392 196.005H94.0546Z"
            fill="#17202F"
    />
    <path
            d="M93.87 196.005L91.4702 194.759V194.713L94.0546 196.005H93.87Z"
            fill="#17202F"
    />
    <path
            d="M93.6854 196.005L91.4702 194.805V194.759L93.87 196.005H93.6854Z"
            fill="#17202F"
    />
    <path
            d="M93.5008 196.005L91.4702 194.851V194.805L93.6854 196.005H93.5008Z"
            fill="#17202F"
    />
    <path
            d="M93.2701 196.005L91.4702 194.897V194.851L93.5008 196.005H93.2701Z"
            fill="#17202F"
    />
    <path
            d="M93.0856 196.005L91.9319 194.943V194.897L93.2703 196.005H93.0856Z"
            fill="#17202F"
    />
    <path
            d="M92.9009 195.543L91.4702 194.99V194.944L93.0855 195.543H92.9009Z"
            fill="#17202F"
    />
    <path
            d="M92.7164 195.543L90.5474 195.036V194.99L92.901 195.543H92.7164Z"
            fill="#17202F"
    />
    <path
            d="M92.5317 195.543L91.4702 195.082V195.036L92.7163 195.543H92.5317Z"
            fill="#17202F"
    />
    <path
            d="M92.3472 195.543L91.0088 195.128V195.082L92.5317 195.543H92.3472Z"
            fill="#17202F"
    />
    <path
            d="M92.1166 195.359L91.5166 195.174V195.128L92.3473 195.359H92.1166Z"
            fill="#17202F"
    />
    <path
            d="M91.9319 195.313L91.6089 195.22V195.174L92.1166 195.313H91.9319Z"
            fill="#17202F"
    />
    <path
            d="M91.7473 195.313L91.6089 195.267V195.22L91.9319 195.313H91.7473Z"
            fill="#17202F"
    />
    <path
            d="M91.6089 195.267L91.7473 195.313H91.6089V195.267Z"
            fill="#17202F"
    />
    <path
            d="M119.115 230.433C118.607 232.695 117.499 234.725 115.884 236.34L74.5793 214.557C75.7793 212.988 76.5638 211.142 76.8407 209.112L119.115 230.433Z"
            fill="#EFEFF4"
    />
    <path
            d="M258.792 318.39C257.992 319.14 255.24 320.792 254.189 321.392C253.739 321.692 253.438 321.893 253.388 321.943L250.886 273.705L249.786 252.839V252.489V252.439L249.235 242.031L249.185 241.18L140.251 174.879L144.805 172.227C144.805 172.227 145.855 171.577 147.406 172.477L255.84 235.076C255.84 235.076 256.891 235.576 257.842 236.827C258.092 237.127 258.292 237.528 258.492 237.928C258.642 238.178 258.742 238.478 258.843 238.778V238.829C258.943 239.229 259.043 239.629 259.093 240.079C259.143 240.18 259.143 240.28 259.143 240.43C259.143 240.53 259.193 240.73 259.193 241.08L259.143 241.13C259.143 241.13 259.093 241.13 259.093 241.18V241.33C259.093 242.431 259.143 244.583 259.193 247.485C259.193 248.286 259.243 249.136 259.243 250.037C259.243 250.087 259.243 250.087 259.243 250.137C259.393 270.803 259.593 317.639 258.792 318.39Z"
            fill="url(#paint19_linear)"
    />
    <path
            d="M259.393 249.237C259.393 247.335 259.443 243.382 259.343 241.781C259.243 239.679 258.892 238.929 258.892 238.929L251.737 240.68L251.437 239.879C251.437 239.879 250.736 244.883 249.735 252.489H249.685V252.889L250.986 273.705L252.638 303.478C251.687 313.836 251.237 322.043 252.137 322.093C252.387 322.093 252.638 322.093 252.938 322.043C252.888 322.093 252.888 322.093 252.888 322.093C252.888 322.093 253.738 322.343 255.84 321.242C257.942 320.141 259.093 318.79 259.193 318.09C259.293 317.189 259.743 304.379 259.743 304.379C259.743 304.379 259.493 265.349 259.393 249.237Z"
            fill="url(#paint20_linear)"
    />
    <path
            d="M254.639 243.932L254.439 319.641C254.439 321.943 252.788 322.893 250.736 321.742L142.653 259.344C141.952 258.944 141.352 258.394 140.801 257.693C139.701 256.342 139 254.541 139 252.989L139.2 177.281C139.2 174.929 140.851 173.978 142.903 175.179L250.986 237.578C251.987 238.178 252.888 239.129 253.588 240.28C254.239 241.431 254.639 242.732 254.639 243.932Z"
            fill="url(#paint21_linear)"
    />
    <path
            d="M163.219 233.424L166.121 231.723L183.184 248.736L180.282 250.387L163.219 233.424Z"
            fill="#C4C6D0"
    />
    <path
            d="M180.282 250.387L183.184 248.736L183.134 256.092L180.232 257.743L180.282 250.387Z"
            fill="#AEAEAE"
    />
    <path
            d="M180.332 228.771L180.282 236.076L163.219 233.424L180.282 250.387L180.232 257.743L155.863 233.024L155.913 225.368L180.332 228.771Z"
            fill="url(#paint22_linear)"
    />
    <path
            d="M180.332 228.771L183.234 227.12V234.425L180.282 236.076L180.332 228.771Z"
            fill="#AEAEAE"
    />
    <path
            d="M155.913 225.368L158.815 223.667L183.234 227.119L180.332 228.771L155.913 225.368Z"
            fill="#C4C6D0"
    />
    <path
            d="M205.852 229.021L188.788 274.706L181.633 270.603L198.696 224.918L205.852 229.021Z"
            fill="url(#paint23_linear)"
    />
    <path
            d="M205.852 229.021L208.754 227.32L191.691 273.005L188.788 274.706L205.852 229.021Z"
            fill="#AEAEAE"
    />
    <path
            d="M198.696 224.918L201.598 223.216L208.754 227.32L205.852 229.021L198.696 224.918Z"
            fill="#C4C6D0"
    />
    <path
            d="M206.602 265.599L209.555 263.898L226.618 266.65L223.715 268.351L206.602 265.599Z"
            fill="#C4C6D0"
    />
    <path
            d="M206.702 244.033L231.071 268.752V276.408L206.652 273.005V265.649L223.715 268.351L206.702 251.338V244.033Z"
            fill="url(#paint24_linear)"
    />
    <path
            d="M206.702 244.033L209.604 242.331L233.973 267.1L231.071 268.752L206.702 244.033Z"
            fill="#C4C6D0"
    />
    <path
            d="M231.071 268.752L233.973 267.1V274.756L231.071 276.408V268.752Z"
            fill="#AEAEAE"
    />
    <path
            opacity="0.1"
            d="M253.538 240.23L140.801 257.643C139.701 256.292 139 254.491 139 252.939L139.2 177.231C139.2 174.879 140.851 173.928 142.903 175.129L250.986 237.528C251.987 238.128 252.888 239.129 253.538 240.23Z"
            fill="white"
    />
    <linearGradient
            id="paint0_linear"
            x1="231.019"
            y1="95.6717"
            x2="266.594"
            y2="95.6717"
            gradientUnits="userSpaceOnUse"
    >
        <stop stop-color="#DB5E83"/>
        <stop offset="1" stop-color="#AA4365"/>
    </linearGradient>
    <radialGradient
            id="paint1_radial"
            cx="0"
            cy="0"
            r="1"
            gradientUnits="userSpaceOnUse"
            gradientTransform="translate(229.696 116.527) scale(77.637 80.055)"
    >
        <stop stop-color="#F4A5B8"/>
        <stop offset="1" stop-color="#DB5E83"/>
    </radialGradient>
    <linearGradient
            id="paint2_linear"
            x1="172.596"
            y1="109.603"
            x2="283.897"
            y2="109.603"
            gradientUnits="userSpaceOnUse"
    >
        <stop stop-color="#FFCAD9"/>
        <stop offset="1" stop-color="#F4A5B8"/>
    </linearGradient>
    <linearGradient
            id="paint3_linear"
            x1="274.021"
            y1="116.258"
            x2="294.384"
            y2="116.258"
            gradientUnits="userSpaceOnUse"
    >
        <stop stop-color="#DB5E83"/>
        <stop offset="1" stop-color="#AA4365"/>
    </linearGradient>
    <linearGradient
            id="paint4_linear"
            x1="279.983"
            y1="115.622"
            x2="293.084"
            y2="115.622"
            gradientUnits="userSpaceOnUse"
    >
        <stop stop-color="#AA4365"/>
        <stop offset="1" stop-color="#691036"/>
    </linearGradient>
    <linearGradient
            id="paint5_linear"
            x1="153.521"
            y1="144.209"
            x2="192.148"
            y2="144.209"
            gradientUnits="userSpaceOnUse"
    >
        <stop stop-color="#DB5E83"/>
        <stop offset="1" stop-color="#AA4365"/>
    </linearGradient>
    <linearGradient
            id="paint6_linear"
            x1="169.045"
            y1="152.598"
            x2="169.045"
            y2="131.597"
            gradientUnits="userSpaceOnUse"
    >
        <stop stop-color="#FFCAD9"/>
        <stop offset="1" stop-color="#F4A5B8"/>
    </linearGradient>
    <linearGradient
            id="paint7_linear"
            x1="214.168"
            y1="146.831"
            x2="253.127"
            y2="146.831"
            gradientUnits="userSpaceOnUse"
    >
        <stop stop-color="#DB5E83"/>
        <stop offset="1" stop-color="#AA4365"/>
    </linearGradient>
    <linearGradient
            id="paint8_linear"
            x1="217.109"
            y1="146.813"
            x2="250.218"
            y2="146.813"
            gradientUnits="userSpaceOnUse"
    >
        <stop stop-color="#AA4365"/>
        <stop offset="1" stop-color="#691036"/>
    </linearGradient>
    <radialGradient
            id="paint9_radial"
            cx="0"
            cy="0"
            r="1"
            gradientUnits="userSpaceOnUse"
            gradientTransform="translate(298.732 171.609) scale(6.85813 7.07172)"
    >
        <stop stop-color="#2D2D2D"/>
        <stop offset="1"/>
    </radialGradient>
    <linearGradient
            id="paint10_linear"
            x1="37.1037"
            y1="229.848"
            x2="87.4735"
            y2="205.281"
            gradientUnits="userSpaceOnUse"
    >
        <stop stop-color="#C1C2C7"/>
        <stop offset="0.5256" stop-color="#BFC0C5"/>
        <stop offset="0.715" stop-color="#B9BABE"/>
        <stop offset="0.8499" stop-color="#AEAFB3"/>
        <stop offset="0.9583" stop-color="#9E9FA2"/>
        <stop offset="1" stop-color="#969799"/>
    </linearGradient>
    <linearGradient
            id="paint11_linear"
            x1="71.7193"
            y1="259.032"
            x2="89.6993"
            y2="210.23"
            gradientUnits="userSpaceOnUse"
    >
        <stop stop-color="#E4E4E8"/>
        <stop offset="0.5337" stop-color="#E2E2E7"/>
        <stop offset="0.752" stop-color="#DBDBE1"/>
        <stop offset="0.9121" stop-color="#CFD0D8"/>
        <stop offset="1" stop-color="#C4C6D0"/>
    </linearGradient>
    <linearGradient
            id="paint12_linear"
            x1="-27.6056"
            y1="52.5948"
            x2="181.233"
            y2="171.576"
            gradientUnits="userSpaceOnUse"
    >
        <stop stop-color="#C1C2C7"/>
        <stop offset="0.5256" stop-color="#BFC0C5"/>
        <stop offset="0.715" stop-color="#B9BABE"/>
        <stop offset="0.8499" stop-color="#AEAFB3"/>
        <stop offset="0.9583" stop-color="#9E9FA2"/>
        <stop offset="1" stop-color="#969799"/>
    </linearGradient>
    <linearGradient
            id="paint13_linear"
            x1="204.067"
            y1="111.997"
            x2="202.998"
            y2="264.841"
            gradientUnits="userSpaceOnUse"
    >
        <stop stop-color="#C1C2C7"/>
        <stop offset="0.3225" stop-color="#BEBFC4"/>
        <stop offset="0.5928" stop-color="#B4B5B9"/>
        <stop offset="0.8435" stop-color="#A4A5A8"/>
        <stop offset="1" stop-color="#969799"/>
    </linearGradient>
    <linearGradient
            id="paint14_linear"
            x1="194.386"
            y1="187.951"
            x2="210.98"
            y2="187.951"
            gradientUnits="userSpaceOnUse"
    >
        <stop stop-color="#BDBFC6"/>
        <stop offset="0.1955" stop-color="#BABCC4"/>
        <stop offset="1" stop-color="#B4B6BF"/>
    </linearGradient>
    <linearGradient
            id="paint15_linear"
            x1="194.386"
            y1="187.951"
            x2="210.98"
            y2="187.951"
            gradientUnits="userSpaceOnUse"
    >
        <stop stop-color="#BDBFC6"/>
        <stop offset="0.1955" stop-color="#BABCC4"/>
        <stop offset="1" stop-color="#B4B6BF"/>
    </linearGradient>
    <linearGradient
            id="paint16_linear"
            x1="0.546291"
            y1="1.17428"
            x2="202.801"
            y2="261.216"
            gradientUnits="userSpaceOnUse"
    >
        <stop stop-color="#E4E4E8"/>
        <stop offset="0.5654" stop-color="#E2E2E7"/>
        <stop offset="0.7691" stop-color="#DBDCE2"/>
        <stop offset="0.9137" stop-color="#D0D1D9"/>
        <stop offset="1" stop-color="#C4C6D0"/>
    </linearGradient>
    <linearGradient
            id="paint17_linear"
            x1="0.546291"
            y1="1.17428"
            x2="202.801"
            y2="261.216"
            gradientUnits="userSpaceOnUse"
    >
        <stop stop-color="#E4E4E8"/>
        <stop offset="0.5654" stop-color="#E2E2E7"/>
        <stop offset="0.7691" stop-color="#DBDCE2"/>
        <stop offset="0.9137" stop-color="#D0D1D9"/>
        <stop offset="1" stop-color="#C4C6D0"/>
    </linearGradient>
    <linearGradient
            id="paint18_linear"
            x1="99.1565"
            y1="266.271"
            x2="99.1565"
            y2="38.793"
            gradientUnits="userSpaceOnUse"
    >
        <stop offset="0.030303" stop-color="#C4C4C4"/>
        <stop offset="0.2138" stop-color="#067EDE"/>
        <stop offset="0.6184" stop-color="#4C9BE8"/>
        <stop offset="1" stop-color="#2AF6FF"/>
    </linearGradient>
    <linearGradient
            id="paint19_linear"
            x1="135.933"
            y1="210.594"
            x2="241.633"
            y2="270.661"
            gradientUnits="userSpaceOnUse"
    >
        <stop stop-color="#D23380"/>
        <stop offset="1" stop-color="#822B55"/>
    </linearGradient>
    <linearGradient
            id="paint20_linear"
            x1="249.685"
            y1="280.552"
            x2="259.671"
            y2="280.552"
            gradientUnits="userSpaceOnUse"
    >
        <stop offset="0.0215054" stop-color="#822B55"/>
        <stop offset="0.0989583" stop-color="#BD3878"/>
        <stop offset="0.227" stop-color="#BE3979"/>
        <stop offset="0.4317" stop-color="#B82069"/>
        <stop offset="1" stop-color="#822B55"/>
    </linearGradient>
    <linearGradient
            id="paint21_linear"
            x1="131.041"
            y1="172.527"
            x2="260.074"
            y2="321.452"
            gradientUnits="userSpaceOnUse"
    >
        <stop offset="8e-08" stop-color="#CC518D"/>
        <stop offset="1" stop-color="#822B55"/>
    </linearGradient>
    <linearGradient
            id="paint22_linear"
            x1="160.126"
            y1="223.474"
            x2="185.966"
            y2="248.859"
            gradientUnits="userSpaceOnUse"
    >
        <stop stop-color="white"/>
        <stop offset="1" stop-color="#EFEFF4"/>
    </linearGradient>
    <linearGradient
            id="paint23_linear"
            x1="192.683"
            y1="226.249"
            x2="194.505"
            y2="266.886"
            gradientUnits="userSpaceOnUse"
    >
        <stop stop-color="white"/>
        <stop offset="1" stop-color="#EFEFF4"/>
    </linearGradient>
    <linearGradient
            id="paint24_linear"
            x1="203.878"
            y1="250.261"
            x2="226.758"
            y2="281.763"
            gradientUnits="userSpaceOnUse"
    >
        <stop stop-color="white"/>
        <stop offset="1" stop-color="#EFEFF4"/>
    </linearGradient>
</svg>
