<svg xmlns="http://www.w3.org/2000/svg" xmlns:xlink="http://www.w3.org/1999/xlink" width="273.82" height="268.03"
     viewBox="0 0 273.82 268.03">
    <defs>
        <style>
            .a{fill:#8d3758;}.b{fill:url(#a);}.c{fill:url(#b);}.d{fill:#db5e83;}.e{fill:#aa4465;}.f{fill:url(#c);}.g{fill:url(#d);}.h{fill:url(#e);}.i{fill:url(#f);}.j{fill:#fce5ee;}.k{fill:url(#g);}.l,.n{fill:none;}.m,.n{opacity:0.4;}.n,.w{isolation:isolate;}.o{fill:#691036;}.p{fill:url(#h);}.q{fill:url(#i);}.r{fill:#240e15;}.s{fill:#42ace1;}.t{fill:#333;}.u{fill:url(#j);}.v,.w{opacity:0.21;}.w{fill:#f1f2f2;}.x{stroke:#328aca;stroke-linejoin:round;stroke-width:6px;fill:url(#k);}.y{fill:url(#l);}
        </style>
        <linearGradient id="a" x1="425.17" y1="-75.76" x2="389.07" y2="-75.76"
                        gradientTransform="matrix(1, 0, 0, -1, -99, 116)" gradientUnits="userSpaceOnUse">
            <stop offset="0" stop-color="#db5e83"/>
            <stop offset="1" stop-color="#aa4465"/>
        </linearGradient>
        <radialGradient id="b" cx="-2.27" cy="283.22" r="1"
                        gradientTransform="matrix(-78.78, 0, 0, 76.48, 148.69, -21448.06)"
                        gradientUnits="userSpaceOnUse">
            <stop offset="0" stop-color="#f5a5b8"/>
            <stop offset="1" stop-color="#db5e83"/>
        </radialGradient>
        <linearGradient id="c" x1="484.45" y1="-89.07" x2="371.51" y2="-89.07"
                        gradientTransform="matrix(1, 0, 0, -1, -99, 116)" gradientUnits="userSpaceOnUse">
            <stop offset="0" stop-color="#f9c9d8"/>
            <stop offset="1" stop-color="#f5a5b8"/>
        </linearGradient>
        <linearGradient id="d" x1="381.53" y1="-95.43" x2="360.87" y2="-95.43" xlink:href="#a"/>
        <linearGradient id="e" x1="375.49" y1="-94.82" x2="362.19" y2="-94.82"
                        gradientTransform="matrix(1, 0, 0, -1, -99, 116)" gradientUnits="userSpaceOnUse">
            <stop offset="0" stop-color="#aa4465"/>
            <stop offset="1" stop-color="#691036"/>
        </linearGradient>
        <linearGradient id="f" x1="503.81" y1="-122.13" x2="464.61" y2="-122.13" xlink:href="#a"/>
        <linearGradient id="g" x1="488.06" y1="-130.15" x2="488.06" y2="-110.08" xlink:href="#c"/>
        <linearGradient id="h" x1="442.27" y1="-124.64" x2="402.74" y2="-124.64" xlink:href="#a"/>
        <linearGradient id="i" x1="439.28" y1="-124.62" x2="405.69" y2="-124.62" xlink:href="#e"/>
        <radialGradient id="j" cx="-36.02" cy="306.12" r="1"
                        gradientTransform="matrix(-6.96, 0, 0, 6.76, 6.82, -1803.72)" gradientUnits="userSpaceOnUse">
            <stop offset="0" stop-color="#2d2d2d"/>
            <stop offset="1"/>
        </radialGradient>
        <linearGradient id="k" x1="396.61" y1="110.74" x2="395.51" y2="-153.98"
                        gradientTransform="matrix(1, 0, 0, -1, -99, 116)" gradientUnits="userSpaceOnUse">
            <stop offset="0" stop-color="#4daee2"/>
            <stop offset="1" stop-color="#4daee2" stop-opacity="0"/>
        </linearGradient>
        <radialGradient id="l" cx="-2.27" cy="283.22" r="1" xlink:href="#b"/>
    </defs>
    <path class="a" d="M308.48,252.29l24.62,14,9-7-22.87-12.5-10.79,5.49Z" transform="translate(-160.13 -5.25)"/>
    <path class="b"
          d="M326.1,181.53c1.88,3.43-36,24-36,24a30.68,30.68,0,0,1,11.44-21.72c5.4-4.35,10.84-5.85,15.25-5.85,4.79,0,8.37,1.77,9.34,3.55Z"
          transform="translate(-160.13 -5.25)"/>
    <path class="c"
          d="M388.51,192.68c12.13,15.35,20.62,41.1,3.49,53a70.93,70.93,0,0,1-36,12.11s-20.18-2.13-25.77.4l-5.59,2.53-6.47-10,.61,11s-40.15,14-62,5.55c0,0-.33-20.22,17.95-45.55a138.6,138.6,0,0,1,20.12-22.11c18.29-16.38,37.55-22.24,54-22.24C367.23,177.37,382.12,184.6,388.51,192.68Z"
          transform="translate(-160.13 -5.25)"/>
    <path class="d" d="M345.5,216s4.7-1.87,7.91-1.55,9.47-2.53,10.8-6.14,3.42-4.41,3.42-4.41l-12.53-.22Z"
          transform="translate(-160.13 -5.25)"/>
    <path class="e"
          d="M272.19,223.93c4.37-7.76,15.24-20.26,29.67-30.69,11.42-8.24,28.69-17.81,46.11-16.57a65.45,65.45,0,0,1,11.45,1.78c11.2,2.82,18,8.17,21.69,12.17a26.74,26.74,0,0,1,5.47,8.16l.49,1.31-1.44-.44c-3.15-.79-26.53,7.63-31.7,11.4-2.58,1.89-11.44,8-19.89,13.61-16.81,11.08-18.19,10.73-18.85,10.57-2.53-.64-18.32-3.06-18.48-3.09l-.13,0-.12-.05c-1.37-.65-8.28-3.91-9.37-4.79a5.08,5.08,0,0,1-1.16-1.55,7.87,7.87,0,0,0-2.52-2.89,1.73,1.73,0,0,0-.53-.23c-2.39-.6-7.73,1.49-9.59,2.34L271,226l1.16-2.06Z"
          transform="translate(-160.13 -5.25)"/>
    <path class="f"
          d="M347.58,176.55c30.76,2.19,37.87,21.58,37.87,21.58-3.5-1.08-27.61,8-32.42,11.5S317.57,234.34,315,233.69s-18.57-3.1-18.57-3.1-8.13-3.82-9.19-4.67-1.14-2.65-3.73-4.48-11,2-11,2c9-16,42.07-47,72.08-47,1,0,2,0,3,.11Z"
          transform="translate(-160.13 -5.25)"/>
    <path class="g"
          d="M275.84,196.55c5.34,1.39,8,9.19,6,17.4s-8,13.75-13.3,12.36-8-9.18-6-17.4c1.79-7.37,6.76-12.57,11.62-12.57a6.9,6.9,0,0,1,1.68.21Z"
          transform="translate(-160.13 -5.25)"/>
    <path class="h"
          d="M272.93,198.18c3.25.85,4.5,7.2,2.79,14.18s-5.72,12-9,11.11-4.5-7.2-2.8-14.18c1.58-6.46,5.14-11.21,8.24-11.21A3.14,3.14,0,0,1,272.93,198.18Z"
          transform="translate(-160.13 -5.25)"/>
    <path class="i"
          d="M390.14,216.66c11.24,2.29,15.11,8.86,14.63,18.26a32.43,32.43,0,0,1-5.21,15.65c-4.92,7.87-21.9,15.61-30.6,1.76A20.47,20.47,0,0,1,366,237a30.91,30.91,0,0,1,3.8-10.12,24,24,0,0,1,3.75-4.71c2.92-2.83,7.38-5.87,13.14-5.87a17.19,17.19,0,0,1,3.42.35Z"
          transform="translate(-160.13 -5.25)"/>
    <path class="j"
          d="M377.54,231.52c1.72-3.05,8.39-13.23,19-9a6.43,6.43,0,0,1,2.77,2.08c2.41,3.17,6.86,11.63-1.78,23.73,0,0-7,10-17.41,6-9.19-3.48-4.56-17.8-3.31-21.22A10.65,10.65,0,0,1,377.54,231.52Z"
          transform="translate(-160.13 -5.25)"/>
    <path class="k"
          d="M394.56,223.45a8.91,8.91,0,0,1,5.77,4.18c2.21,3.78,4.4,11.17-2.72,21.13,0,0-6.66,9.51-16.64,5.73-9.13-3.46-4-18.16-3-20.63a7.19,7.19,0,0,1,.34-.75c1-1.91,5.78-10,13.61-10a12,12,0,0,1,2.66.31Z"
          transform="translate(-160.13 -5.25)"/>
    <path class="e"
          d="M391.44,240.9c-.86,1.5-2.27,2.27-3.15,1.71s-.91-2.23-.05-3.73,2.26-2.27,3.15-1.72.91,2.23.05,3.74"
          transform="translate(-160.13 -5.25)"/>
    <rect class="l" x="263.13" y="152.43" width="0.34" height="0.32"/>
    <path class="j"
          d="M337.37,260c1.07-1.43,5.07-6.12,9.5-2.87a3.32,3.32,0,0,1,1.07,1.37c.8,1.9,2,6.78-3.05,12.28,0,0-4.11,4.54-8.5,1.43-3.85-2.72-.39-9.79.5-11.46a4.79,4.79,0,0,1,.48-.75"
          transform="translate(-160.13 -5.25)"/>
    <rect class="l" x="263.14" y="152.43" width="0.33" height="0.32"/>
    <path class="e" d="M342.83,266.25c-.53.7-1.25,1-1.6.59s-.2-1.26.33-2,1.25-1,1.6-.59S343.36,265.54,342.83,266.25Z"
          transform="translate(-160.13 -5.25)"/>
    <g class="m">
        <g class="m">
            <rect class="n" x="263.13" y="152.43" width="0.34" height="0.32"/>
        </g>
    </g>
    <rect class="l" x="263.13" y="152.43" width="0.34" height="0.32"/>
    <path class="e" d="M271.15,262.94v-1.7l9-.36v2.73l-9-.67Z" transform="translate(-160.13 -5.25)"/>
    <path class="e" d="M271.2,263.94l8.51,2.27-.65,2.3-8.43-2.94.57-1.63Z" transform="translate(-160.13 -5.25)"/>
    <path class="o" d="M280.19,261.49h-8.76L271.3,263h-.15v-1.7l9-.36v.61Z" transform="translate(-160.13 -5.25)"/>
    <path class="o" d="M279.54,266.79l-8.16-2.47-.75,1.25.57-1.63,8.51,2.27Z" transform="translate(-160.13 -5.25)"/>
    <path class="e"
          d="M284.47,223.68l-10.72,11.75-.18-.15.22.09h0a2,2,0,0,0-.12.73,2.66,2.66,0,0,0,.13.82.77.77,0,0,1,0,.15,2,2,0,0,1-.09.51,42.19,42.19,0,0,1-1.42,4c-2.07,5.25-5.55,13.14-5.55,13.14l-.22-.09.23.06-1.49,5.42-.47-.12,1.5-5.44h0l.3-.69c.67-1.54,2.36-5.41,3.87-9.07.76-1.82,1.47-3.6,2-5,.26-.7.47-1.31.62-1.78.07-.24.13-.44.17-.6a1.51,1.51,0,0,0,.05-.33v0h0l.06,0-.06,0h0l.06,0-.06,0a3.21,3.21,0,0,1-.14-1,2.45,2.45,0,0,1,.15-.91l0,0,10.75-11.78.36.31Z"
          transform="translate(-160.13 -5.25)"/>
    <path class="e"
          d="M310,248.79l-6.06.68-4.36.48c-1.24.13-2.13.22-2.37.23V250h.24v5.12l-6.51-4.3.14-.19-.06.23s-5.67-1.23-12.22-2.85-14-3.66-17.58-5.28l.21-.42c3.5,1.59,10.94,3.62,17.49,5.24,3.27.81,6.32,1.53,8.56,2l2.66.6,1,.22h0l5.8,3.82v-4.45h.23l2.34-.24,6.6-.73,2.71-.3,1.1-.13.06.47Z"
          transform="translate(-160.13 -5.25)"/>
    <path class="e"
          d="M397.31,207.53l-1,.16a110.94,110.94,0,0,0-14.59,3.56c-6.42,2.06-13.36,5.09-17.75,9.28l-.17-.16H364v7.48l-13.7,1.94,0-.23.16.17a134.25,134.25,0,0,1-11.25,8.93c-6.44,4.57-14.47,9.33-21,10.13l-.06-.47c6.32-.76,14.34-5.49,20.74-10,3.2-2.27,6-4.49,8-6.15,1-.83,1.8-1.52,2.35-2,.28-.23.49-.42.63-.55l.22-.19.06,0,13.36-1.9v-7.17l.07-.07c5.14-4.89,13.54-8.16,20.66-10.23a107.42,107.42,0,0,1,13-2.91l.07.47Z"
          transform="translate(-160.13 -5.25)"/>
    <path class="p"
          d="M326.7,226.7c10.77,2.71,18.07,11.15,16.31,18.85s-11.93,11.74-22.7,9S302.23,243.43,304,235.73c1.39-6.07,8-9.87,16-9.87a27.44,27.44,0,0,1,6.66.84Z"
          transform="translate(-160.13 -5.25)"/>
    <path class="q"
          d="M326.2,228.78c9.16,2.3,15.36,9.47,13.86,16s-10.14,10-19.29,7.68-15.36-9.48-13.86-16c1.19-5.16,6.81-8.39,13.63-8.39A23.06,23.06,0,0,1,326.2,228.78Z"
          transform="translate(-160.13 -5.25)"/>
    <path class="r"
          d="M258.68,246.92c.05.08.12.16.17.23a5.29,5.29,0,0,0,1.36,1.31,4.51,4.51,0,0,0,1.22.46,9.14,9.14,0,0,0,1.88.25h.11c.3,0,.6,0,.9,0l.33,0,.38,0,.71-.08.82-.1c.3,0,.59-.06.89-.07a6,6,0,0,1,3.81.85c.74.53,1.46,1.08,2.2,1.62a22.89,22.89,0,0,0,5.89,3.35,8.1,8.1,0,0,0,6.77-.39c5.72-3.22,4-11.17-.94-13.91s-10.13.77-12.33-.39-3.18-3.52-5.64-4.32a7.26,7.26,0,0,0-4.9,0,7.68,7.68,0,0,0-4.52,5.1,7,7,0,0,0,.89,6.21"
          transform="translate(-160.13 -5.25)"/>
    <rect class="l" x="263.13" y="152.43" width="0.34" height="0.32"/>
    <rect class="l" x="263.13" y="152.43" width="0.34" height="0.32"/>
    <path class="s"
          d="M285.75,247.8a4.52,4.52,0,0,1-5.13,4.16,5.07,5.07,0,0,1-4.45-5.31,4.51,4.51,0,0,1,5.13-4.15A5.06,5.06,0,0,1,285.75,247.8Z"
          transform="translate(-160.13 -5.25)"/>
    <path class="t"
          d="M281.18,243.92a3.56,3.56,0,0,1,3.12,3.72,3.18,3.18,0,0,1-3.61,2.92,3.57,3.57,0,0,1-3.12-3.73,3.16,3.16,0,0,1,3.19-2.94l.42,0Z"
          transform="translate(-160.13 -5.25)"/>
    <path class="s"
          d="M269.46,243a4.12,4.12,0,0,1-4.68,3.78,4.61,4.61,0,0,1-4.06-4.83,4.12,4.12,0,0,1,4.68-3.79A4.63,4.63,0,0,1,269.46,243Z"
          transform="translate(-160.13 -5.25)"/>
    <path class="t"
          d="M265.24,239.45a3.26,3.26,0,0,1,2.85,3.4,2.9,2.9,0,0,1-3.29,2.66,3.24,3.24,0,0,1-2.85-3.4,2.88,2.88,0,0,1,2.91-2.68l.38,0Z"
          transform="translate(-160.13 -5.25)"/>
    <path class="u"
          d="M262.11,258.23c4.41,1.11,7.36,4.73,6.59,8.09s-5,5.18-9.38,4.07-7.37-4.73-6.6-8.09c.62-2.69,3.44-4.4,6.81-4.4a10.68,10.68,0,0,1,2.58.33Z"
          transform="translate(-160.13 -5.25)"/>
    <g class="v">
        <path class="w"
              d="M267.38,264.94c-.46,2-3,3.1-5.61,2.44s-4.4-2.83-3.94-4.84,3-3.1,5.61-2.43S267.84,262.94,267.38,264.94Z"
              transform="translate(-160.13 -5.25)"/>
    </g>
    <path class="x" d="M317.73,188.27A50.54,50.54,0,1,0,276,188.1l-30.22,77.76a133.91,133.91,0,1,1,101.55.42Z"
          transform="translate(-160.13 -5.25)"/>
    <path class="a" d="M308.48,252.29l24.62,14,9-7-22.87-12.5-10.79,5.49Z" transform="translate(-160.13 -5.25)"/>
    <path class="y"
          d="M300.1,234.69c12.13,15.35,50.8,8.6,33.66,20.53s-6.66,0-6.66,0,8.76.46,3.17,3l-5.59,2.53-6.47-10,.61,11s-40.15,14-62,5.55c0,0-1.49-20.22,16.79-45.55,0,0,4.5.47,6.5,1s-3,2.5,2.5,2.5S276.6,228.69,300.1,234.69Z"
          transform="translate(-160.13 -5.25)"/>
    <path class="g"
          d="M275.84,196.55c5.34,1.39,8,9.19,6,17.4s-8,13.75-13.3,12.36-8-9.18-6-17.4c1.79-7.37,6.76-12.57,11.62-12.57a6.9,6.9,0,0,1,1.68.21Z"
          transform="translate(-160.13 -5.25)"/>
    <path class="h"
          d="M272.93,198.18c3.25.85,4.5,7.2,2.79,14.18s-5.72,12-9,11.11-4.5-7.2-2.8-14.18c1.58-6.46,5.14-11.21,8.24-11.21A3.14,3.14,0,0,1,272.93,198.18Z"
          transform="translate(-160.13 -5.25)"/>
    <rect class="l" x="263.13" y="152.43" width="0.34" height="0.32"/>
    <path class="j"
          d="M337.37,260c1.07-1.43,5.07-6.12,9.5-2.87a3.32,3.32,0,0,1,1.07,1.37c.8,1.9,2,6.78-3.05,12.28,0,0-4.11,4.54-8.5,1.43-3.85-2.72-.39-9.79.5-11.46a4.79,4.79,0,0,1,.48-.75"
          transform="translate(-160.13 -5.25)"/>
    <rect class="l" x="263.14" y="152.43" width="0.33" height="0.32"/>
    <path class="e" d="M342.83,266.25c-.53.7-1.25,1-1.6.59s-.2-1.26.33-2,1.25-1,1.6-.59S343.36,265.54,342.83,266.25Z"
          transform="translate(-160.13 -5.25)"/>
    <g class="m">
        <g class="m">
            <rect class="n" x="263.13" y="152.43" width="0.34" height="0.32"/>
        </g>
    </g>
    <rect class="l" x="263.13" y="152.43" width="0.34" height="0.32"/>
    <path class="e" d="M271.15,262.94v-1.7l9-.36v2.73l-9-.67Z" transform="translate(-160.13 -5.25)"/>
    <path class="e" d="M271.2,263.94l8.51,2.27-.65,2.3-8.43-2.94.57-1.63Z" transform="translate(-160.13 -5.25)"/>
    <path class="o" d="M280.19,261.49h-8.76L271.3,263h-.15v-1.7l9-.36v.61Z" transform="translate(-160.13 -5.25)"/>
    <path class="o" d="M279.54,266.79l-8.16-2.47-.75,1.25.57-1.63,8.51,2.27Z" transform="translate(-160.13 -5.25)"/>
    <path class="e"
          d="M284.47,223.68l-10.72,11.75-.18-.15.22.09h0a2,2,0,0,0-.12.73,2.66,2.66,0,0,0,.13.82.77.77,0,0,1,0,.15,2,2,0,0,1-.09.51,42.19,42.19,0,0,1-1.42,4c-2.07,5.25-5.55,13.14-5.55,13.14l-.22-.09.23.06-1.49,5.42-.47-.12,1.5-5.44h0l.3-.69c.67-1.54,2.36-5.41,3.87-9.07.76-1.82,1.47-3.6,2-5,.26-.7.47-1.31.62-1.78.07-.24.13-.44.17-.6a1.51,1.51,0,0,0,.05-.33v0h0l.06,0-.06,0h0l.06,0-.06,0a3.21,3.21,0,0,1-.14-1,2.45,2.45,0,0,1,.15-.91l0,0,10.75-11.78.36.31Z"
          transform="translate(-160.13 -5.25)"/>
    <path class="e"
          d="M310,248.79l-6.06.68-4.36.48c-1.24.13-2.13.22-2.37.23V250h.24v5.12l-6.51-4.3.14-.19-.06.23s-5.67-1.23-12.22-2.85-14-3.66-17.58-5.28l.21-.42c3.5,1.59,10.94,3.62,17.49,5.24,3.27.81,6.32,1.53,8.56,2l2.66.6,1,.22h0l5.8,3.82v-4.45h.23l2.34-.24,6.6-.73,2.71-.3,1.1-.13.06.47Z"
          transform="translate(-160.13 -5.25)"/>
    <path class="p"
          d="M326.7,226.7c10.77,2.71,18.07,11.15,16.31,18.85s-11.93,11.74-22.7,9S302.23,243.43,304,235.73c1.39-6.07,8-9.87,16-9.87a27.44,27.44,0,0,1,6.66.84Z"
          transform="translate(-160.13 -5.25)"/>
    <path class="q"
          d="M326.2,228.78c9.16,2.3,15.36,9.47,13.86,16s-10.14,10-19.29,7.68-15.36-9.48-13.86-16c1.19-5.16,6.81-8.39,13.63-8.39A23.06,23.06,0,0,1,326.2,228.78Z"
          transform="translate(-160.13 -5.25)"/>
    <path class="r"
          d="M258.68,246.92c.05.08.12.16.17.23a5.29,5.29,0,0,0,1.36,1.31,4.51,4.51,0,0,0,1.22.46,9.14,9.14,0,0,0,1.88.25h.11c.3,0,.6,0,.9,0l.33,0,.38,0,.71-.08.82-.1c.3,0,.59-.06.89-.07a6,6,0,0,1,3.81.85c.74.53,1.46,1.08,2.2,1.62a22.89,22.89,0,0,0,5.89,3.35,8.1,8.1,0,0,0,6.77-.39c5.72-3.22,4-11.17-.94-13.91s-10.13.77-12.33-.39-3.18-3.52-5.64-4.32a7.26,7.26,0,0,0-4.9,0,7.68,7.68,0,0,0-4.52,5.1,7,7,0,0,0,.89,6.21"
          transform="translate(-160.13 -5.25)"/>
    <rect class="l" x="263.13" y="152.43" width="0.34" height="0.32"/>
    <rect class="l" x="263.13" y="152.43" width="0.34" height="0.32"/>
    <path class="s"
          d="M285.75,247.8a4.52,4.52,0,0,1-5.13,4.16,5.07,5.07,0,0,1-4.45-5.31,4.51,4.51,0,0,1,5.13-4.15A5.06,5.06,0,0,1,285.75,247.8Z"
          transform="translate(-160.13 -5.25)"/>
    <path class="t"
          d="M281.18,243.92a3.56,3.56,0,0,1,3.12,3.72,3.18,3.18,0,0,1-3.61,2.92,3.57,3.57,0,0,1-3.12-3.73,3.16,3.16,0,0,1,3.19-2.94l.42,0Z"
          transform="translate(-160.13 -5.25)"/>
    <path class="s"
          d="M269.46,243a4.12,4.12,0,0,1-4.68,3.78,4.61,4.61,0,0,1-4.06-4.83,4.12,4.12,0,0,1,4.68-3.79A4.63,4.63,0,0,1,269.46,243Z"
          transform="translate(-160.13 -5.25)"/>
    <path class="t"
          d="M265.24,239.45a3.26,3.26,0,0,1,2.85,3.4,2.9,2.9,0,0,1-3.29,2.66,3.24,3.24,0,0,1-2.85-3.4,2.88,2.88,0,0,1,2.91-2.68l.38,0Z"
          transform="translate(-160.13 -5.25)"/>
    <path class="u"
          d="M262.11,258.23c4.41,1.11,7.36,4.73,6.59,8.09s-5,5.18-9.38,4.07-7.37-4.73-6.6-8.09c.62-2.69,3.44-4.4,6.81-4.4a10.68,10.68,0,0,1,2.58.33Z"
          transform="translate(-160.13 -5.25)"/>
    <g class="v">
        <path class="w"
              d="M267.38,264.94c-.46,2-3,3.1-5.61,2.44s-4.4-2.83-3.94-4.84,3-3.1,5.61-2.43S267.84,262.94,267.38,264.94Z"
              transform="translate(-160.13 -5.25)"/>
    </g>
</svg>
