<svg xmlns="http://www.w3.org/2000/svg" xmlns:xlink="http://www.w3.org/1999/xlink" width="392.61" height="307.06" viewBox="0 0 392.61 307.06"><defs><style>.a,.ct,.cu,.w{fill:none;}.b{clip-path:url(#a);}.c{fill:#c5c5c4;}.d{fill:#f2f2f3;}.e{fill:#898989;}.f{fill:#73c1ec;}.g{fill:#b8e4f1;}.h{fill:#52a9de;}.i{fill:#5578bc;}.j{fill:#198bc5;}.k{fill:#8d3758;}.l{fill:url(#b);}.m{fill:url(#c);}.n{fill:#db5e83;}.o{fill:#aa4465;}.p{fill:url(#d);}.q{fill:url(#e);}.r{fill:url(#f);}.s{fill:url(#g);}.t{fill:#fce5ee;}.u{fill:url(#h);}.v,.w{opacity:0.4;}.af,.w{isolation:isolate;}.x{fill:#691036;}.y{fill:url(#i);}.z{fill:url(#j);}.aa{fill:#240e15;}.ab{fill:#42ace1;}.ac{fill:#333;}.ad{fill:url(#k);}.ae,.af{opacity:0.21;}.af{fill:#f1f2f2;}.ag{clip-path:url(#l);}.ah{fill:#212121;}.ai{fill:url(#m);}.aj{fill:#636464;}.ak{fill:#535256;}.al{fill:#939393;}.am{fill:#2e2e2e;}.an{fill:#181818;}.ao{fill:#4c4c4d;}.ap{fill:#727373;}.aq{fill:#33ba9b;}.ar{fill:#64c4b1;}.as{fill:#00af8d;}.at{fill:#e5eceb;}.au{fill:#4a494a;}.av{fill:#4d4d4e;}.aw{fill:#4f4f4f;}.ax{fill:#515251;}.ay{fill:#535453;}.az{fill:#565656;}.ba{fill:#585858;}.bb{fill:#5a5b5b;}.bc{fill:#5d5d5d;}.bd{fill:#5e5f5f;}.be{fill:#606161;}.bf{fill:#626363;}.bg{fill:#656666;}.bh{fill:#676867;}.bi{fill:#696969;}.bj{fill:#6b6b6b;}.bk{fill:#7e7e7e;}.bl{fill:#848484;}.bm{fill:#8a8a8a;}.bn{fill:#8f8f8f;}.bo{fill:#4c4b4c;}.bp{fill:#474748;}.bq{fill:#444545;}.br{fill:#434343;}.bs{fill:#414141;}.bt{fill:#3e3e3e;}.bu{fill:#3c3c3c;}.bv{fill:#3a3a3a;}.bw{fill:#383838;}.bx{fill:#4b4b4b;}.by{fill:#525352;}.bz{fill:#555;}.ca{fill:#5d5e5e;}.cb{fill:#686868;}.cc{fill:#6e6e6e;}.cd{fill:#707071;}.ce{fill:#737474;}.cf{fill:#777677;}.cg{fill:#7a7a7a;}.ch{fill:#7c7c7c;}.ci{fill:#7e7f7f;}.cj{fill:#818181;}.ck{fill:#868686;}.cl{fill:#979797;}.cm{fill:#9c9c9c;}.cn{fill:#a2a1a1;}.co{fill:#a5a4a4;}.cp{fill:#aaa;}.cq{fill:#393939;}.cr{fill:#fff;}.cs{fill-opacity:0.4;fill:url(#n);}.ct{stroke:#f2f2f3;stroke-width:4px;}.cu{stroke:#fff;stroke-width:3px;}</style><clipPath id="a" transform="translate(-142.66 14.04)"><rect class="a" x="187.59" y="-10.83" width="158.33" height="94.14"/></clipPath><linearGradient id="b" x1="525.16" y1="25.55" x2="484.73" y2="25.55" gradientTransform="matrix(1, 0, 0, -1, -99, 116)" gradientUnits="userSpaceOnUse"><stop offset="0" stop-color="#db5e83"/><stop offset="1" stop-color="#aa4465"/></linearGradient><radialGradient id="c" cx="-1.68" cy="282.76" r="1" gradientTransform="matrix(-88.22, 0, 0, 85.64, 279.61, -24104.22)" gradientUnits="userSpaceOnUse"><stop offset="0" stop-color="#f5a5b8"/><stop offset="1" stop-color="#db5e83"/></radialGradient><linearGradient id="d" x1="591.55" y1="10.64" x2="465.07" y2="10.64" gradientTransform="matrix(1, 0, 0, -1, -99, 116)" gradientUnits="userSpaceOnUse"><stop offset="0" stop-color="#f9c9d8"/><stop offset="1" stop-color="#f5a5b8"/></linearGradient><linearGradient id="e" x1="476.29" y1="3.52" x2="453.16" y2="3.52" xlink:href="#b"/><linearGradient id="f" x1="469.52" y1="4.21" x2="454.63" y2="4.21" gradientTransform="matrix(1, 0, 0, -1, -99, 116)" gradientUnits="userSpaceOnUse"><stop offset="0" stop-color="#aa4465"/><stop offset="1" stop-color="#691036"/></linearGradient><linearGradient id="g" x1="613.23" y1="-26.38" x2="569.33" y2="-26.38" xlink:href="#b"/><linearGradient id="h" x1="595.58" y1="-35.35" x2="595.58" y2="-12.88" xlink:href="#d"/><linearGradient id="i" x1="544.31" y1="-29.18" x2="500.04" y2="-29.18" xlink:href="#b"/><linearGradient id="j" x1="540.97" y1="-29.16" x2="503.34" y2="-29.16" xlink:href="#f"/><radialGradient id="k" cx="-29.32" cy="300.95" r="1" gradientTransform="matrix(-7.79, 0, 0, 7.57, 120.73, -2105.16)" gradientUnits="userSpaceOnUse"><stop offset="0" stop-color="#2d2d2d"/><stop offset="1"/></radialGradient><clipPath id="l" transform="translate(-142.66 14.04)"><rect class="a" x="276.38" y="-14.04" width="158.33" height="94.14"/></clipPath><linearGradient id="m" x1="376.45" y1="-41.46" x2="459.22" y2="-41.46" gradientTransform="matrix(1, 0, 0, -1, -99, 116)" gradientUnits="userSpaceOnUse"><stop offset="0" stop-color="#535256"/><stop offset="1" stop-color="#464447"/></linearGradient><radialGradient id="n" cx="4.37" cy="279.44" r="1" gradientTransform="matrix(74.89, 10.18, 10.18, -74.88, -2940.86, 21063.95)" gradientUnits="userSpaceOnUse"><stop offset="0" stop-color="#5b6fb5"/><stop offset="1" stop-color="#2aace2"/></radialGradient></defs><g class="b"><path class="c" d="M345.92,30.06v1.37L257.63,83.31V81.94Z" transform="translate(-142.66 14.04)"/><path class="d" d="M275.89-10.83l70,40.89L257.63,81.94l-70-40.89Z" transform="translate(-142.66 14.04)"/><path class="e" d="M257.63,81.94v1.37l-70-40.88V41.05Z" transform="translate(-142.66 14.04)"/><path class="f" d="M274.74-4.75l60.87,35.53-57.86,34,24.49-34.66-55.43,7.74,4.44-15.41-34.37,6.8Z" transform="translate(-142.66 14.04)"/><path class="g" d="M268.8,24.56c4.58,2.67,12,2.67,16.61,0s4.58-7-.07-9.77-12.1-2.68-16.69,0S264.14,21.88,268.8,24.56Z" transform="translate(-142.66 14.04)"/><path class="h" d="M302.24,30.13,277.68,64.72l-61-35.39,34.59-6.87-4.44,15.41Z" transform="translate(-142.66 14.04)"/><path class="i" d="M277.68,64.72v1.37l-61-35.38V29.33Z" transform="translate(-142.66 14.04)"/><path class="j" d="M335.61,30.78v1.37l-57.86,34V64.79Z" transform="translate(-142.66 14.04)"/></g><path class="k" d="M406.35,158.23,433.92,174,444,166.08l-25.6-14-12.09,6.15Z" transform="translate(-142.66 14.04)"/><path class="l" d="M426.09,79c2.1,3.84-40.36,26.9-40.36,26.9a34.4,34.4,0,0,1,12.82-24.32C404.6,76.69,410.69,75,415.62,75c5.37,0,9.37,2,10.47,4Z" transform="translate(-142.66 14.04)"/><path class="m" d="M496,91.47c13.58,17.19,23.09,46,3.91,59.38a79.39,79.39,0,0,1-40.27,13.56s-22.6-2.38-28.86.45l-6.26,2.83-7.25-11.19.69,12.3s-45,15.67-69.44,6.21c0,0-.37-22.64,20.1-51a155.73,155.73,0,0,1,22.52-24.76c20.49-18.34,42.06-24.91,60.52-24.91,20.51,0,37.19,8.09,44.34,17.14Z" transform="translate(-142.66 14.04)"/><path class="n" d="M447.8,117.63s5.27-2.09,8.87-1.73,10.6-2.84,12.09-6.87,3.83-4.94,3.83-4.94l-14-.25Z" transform="translate(-142.66 14.04)"/><path class="o" d="M365.71,126.47c4.89-8.69,17.07-22.69,33.23-34.36,12.79-9.24,32.12-20,51.63-18.57a74.69,74.69,0,0,1,12.83,2c12.54,3.16,20.13,9.15,24.29,13.63a30.42,30.42,0,0,1,6.13,9.14l.54,1.47-1.61-.5c-3.53-.88-29.72,8.55-35.51,12.77-2.89,2.11-12.8,9-22.26,15.24-18.84,12.41-20.38,12-21.12,11.83-2.83-.71-20.51-3.42-20.69-3.45l-.15,0-.13-.06c-1.54-.73-9.28-4.38-10.49-5.36a5.75,5.75,0,0,1-1.3-1.74,8.92,8.92,0,0,0-2.83-3.24,1.69,1.69,0,0,0-.59-.25c-2.67-.68-8.66,1.66-10.74,2.61l-2.53,1.17,1.3-2.31Z" transform="translate(-142.66 14.04)"/><path class="p" d="M450.13,73.41c34.46,2.45,42.42,24.17,42.42,24.17-3.93-1.21-30.93,9-36.32,12.88s-39.7,27.67-42.62,26.94-20.78-3.47-20.78-3.47-9.12-4.28-10.3-5.23-1.28-3-4.17-5-12.29,2.26-12.29,2.26c10.09-17.91,47.11-52.65,80.72-52.65,1.12,0,2.23,0,3.34.12Z" transform="translate(-142.66 14.04)"/><path class="q" d="M369.8,95.81c6,1.56,9,10.29,6.75,19.49s-8.92,15.4-14.9,13.84-9-10.29-6.75-19.49c2-8.25,7.58-14.08,13-14.08a7.57,7.57,0,0,1,1.88.24Z" transform="translate(-142.66 14.04)"/><path class="r" d="M366.54,97.63c3.63,1,5,8.06,3.13,15.88S363.26,126.9,359.62,126s-5-8-3.13-15.87c1.76-7.24,5.75-12.55,9.22-12.55A3.37,3.37,0,0,1,366.54,97.63Z" transform="translate(-142.66 14.04)"/><path class="s" d="M497.8,118.33c12.59,2.57,16.92,9.92,16.38,20.45a36.26,36.26,0,0,1-5.84,17.52c-5.5,8.81-24.52,17.49-34.26,2a23,23,0,0,1-3.29-17.15,34.84,34.84,0,0,1,4.26-11.33,26.37,26.37,0,0,1,4.2-5.27c3.28-3.17,8.27-6.58,14.72-6.58a19.22,19.22,0,0,1,3.83.39Z" transform="translate(-142.66 14.04)"/><path class="t" d="M483.69,135c1.92-3.42,9.39-14.82,21.29-10.11a7.33,7.33,0,0,1,3.1,2.34c2.7,3.55,7.68,13-2,26.57,0,0-7.8,11.15-19.5,6.72-10.28-3.9-5.1-19.93-3.7-23.77A13.88,13.88,0,0,1,483.69,135Z" transform="translate(-142.66 14.04)"/><path class="u" d="M502.75,125.93a10,10,0,0,1,6.46,4.68c2.48,4.24,4.92,12.51-3,23.66,0,0-7.45,10.66-18.63,6.42-10.23-3.87-4.44-20.33-3.38-23.09a7.13,7.13,0,0,1,.38-.85c1.14-2.14,6.47-11.16,15.23-11.16a13.78,13.78,0,0,1,3,.34Z" transform="translate(-142.66 14.04)"/><path class="o" d="M499.25,145.47c-.95,1.69-2.53,2.55-3.53,1.92s-1-2.49-.05-4.18,2.53-2.54,3.53-1.92,1,2.5.05,4.18" transform="translate(-142.66 14.04)"/><rect class="a" x="392.23" y="66.33" width="0.38" height="0.36"/><path class="t" d="M438.7,166.84c1.2-1.6,5.68-6.86,10.64-3.21a3.72,3.72,0,0,1,1.2,1.53c.89,2.13,2.27,7.59-3.42,13.75,0,0-4.6,5.09-9.51,1.61-4.31-3.05-.44-11,.56-12.84a6,6,0,0,1,.53-.84" transform="translate(-142.66 14.04)"/><rect class="a" x="392.24" y="66.33" width="0.38" height="0.36"/><path class="o" d="M444.82,173.86c-.6.79-1.4,1.09-1.79.66s-.23-1.41.37-2.2,1.39-1.09,1.79-.66S445.41,173.07,444.82,173.86Z" transform="translate(-142.66 14.04)"/><g class="v"><g class="v"><rect class="w" x="392.23" y="66.33" width="0.38" height="0.36"/></g></g><rect class="a" x="392.23" y="66.33" width="0.38" height="0.36"/><path class="o" d="M364.54,170.16v-1.9l10.13-.41v3.05l-10.13-.74Z" transform="translate(-142.66 14.04)"/><path class="o" d="M364.6,171.27l9.53,2.55-.73,2.57L364,173.1l.63-1.83Z" transform="translate(-142.66 14.04)"/><path class="x" d="M374.67,168.53h-9.81l-.14,1.64h-.18v-1.9l10.13-.41v.68Z" transform="translate(-142.66 14.04)"/><path class="x" d="M374,174.47l-9.15-2.77-.83,1.4.63-1.83,9.53,2.55Z" transform="translate(-142.66 14.04)"/><path class="o" d="M379.46,126.19l-12,13.16-.2-.17.25.1h0a2.29,2.29,0,0,0-.13.82,2.93,2.93,0,0,0,.14.91.52.52,0,0,1,0,.17,2.42,2.42,0,0,1-.09.58,46.12,46.12,0,0,1-1.6,4.47c-2.31,5.88-6.21,14.72-6.21,14.73l-.25-.11.27.07L358,167l-.52-.13,1.68-6.09v0s.13-.28.34-.77c.76-1.73,2.64-6.06,4.34-10.15.84-2.05,1.64-4,2.23-5.61.29-.79.53-1.47.7-2,.08-.26.15-.49.19-.67a2,2,0,0,0,.06-.37v0h.07l-.07,0h.07l-.07,0a3.75,3.75,0,0,1-.16-1.07,2.77,2.77,0,0,1,.17-1l0,0,12-13.2.4.35Z" transform="translate(-142.66 14.04)"/><path class="o" d="M408.09,154.31l-6.78.76-4.88.54c-1.39.15-2.39.25-2.66.26v-.26H394v5.73l-7.29-4.81.15-.21-.06.25s-6.34-1.37-13.69-3.19-15.67-4.09-19.68-5.91l.23-.47c3.92,1.77,12.26,4.05,19.59,5.87,3.66.91,7.08,1.71,9.59,2.28l3,.67,1.1.24H387l6.49,4.28v-5h.26c.21,0,1.24-.11,2.62-.26l7.39-.82,3-.34,1.24-.14.06.52Z" transform="translate(-142.66 14.04)"/><path class="o" d="M505.83,108.1l-1.14.19a122.54,122.54,0,0,0-16.35,4c-7.18,2.31-14.95,5.7-19.87,10.4l-.19-.19h.27v8.38L453.21,133l0-.26.18.2a151.56,151.56,0,0,1-12.6,10c-7.21,5.11-16.2,10.45-23.48,11.34l-.07-.53c7.08-.85,16.06-6.14,23.23-11.23,3.58-2.55,6.72-5,9-6.9,1.12-.93,2-1.69,2.63-2.23l.71-.62.24-.22.07-.06L468,130.4v-8l.09-.08c5.75-5.48,15.16-9.14,23.13-11.45a120,120,0,0,1,14.53-3.26l.08.52Z" transform="translate(-142.66 14.04)"/><path class="y" d="M426.75,129.57c12.07,3,20.24,12.49,18.26,21.11s-13.35,13.15-25.42,10.11-20.24-12.48-18.26-21.1c1.56-6.81,9-11.06,18-11.06a30.56,30.56,0,0,1,7.46.94Z" transform="translate(-142.66 14.04)"/><path class="z" d="M426.2,131.9c10.25,2.58,17.2,10.61,15.52,17.93s-11.36,11.18-21.61,8.6-17.2-10.61-15.52-17.94c1.33-5.78,7.63-9.39,15.27-9.39A25.74,25.74,0,0,1,426.2,131.9Z" transform="translate(-142.66 14.04)"/><path class="aa" d="M350.58,152.22c.06.09.13.17.2.26a5.56,5.56,0,0,0,1.52,1.46,5.1,5.1,0,0,0,1.36.52,9.37,9.37,0,0,0,2.1.27h.13c.33,0,.67,0,1,0l.37,0,.43,0,.79-.1.92-.1c.34,0,.67-.07,1-.09a6.74,6.74,0,0,1,4.26,1c.83.59,1.63,1.21,2.46,1.81a26.1,26.1,0,0,0,6.59,3.76,9.15,9.15,0,0,0,7.59-.44c6.4-3.61,4.5-12.51-1.06-15.58s-11.33.86-13.8-.43-3.57-3.95-6.31-4.84a8.12,8.12,0,0,0-5.49,0,8.64,8.64,0,0,0-5.07,5.71,7.87,7.87,0,0,0,1,7" transform="translate(-142.66 14.04)"/><rect class="a" x="392.23" y="66.33" width="0.38" height="0.36"/><rect class="a" x="392.24" y="66.33" width="0.38" height="0.36"/><path class="ab" d="M380.9,153.21a5.07,5.07,0,0,1-5.75,4.65,5.68,5.68,0,0,1-5-5.94,5.07,5.07,0,0,1,5.75-4.65A5.67,5.67,0,0,1,380.9,153.21Z" transform="translate(-142.66 14.04)"/><path class="ac" d="M375.77,148.85a4,4,0,0,1,3.5,4.17,3.55,3.55,0,0,1-4,3.27,4,4,0,0,1-3.5-4.17,3.59,3.59,0,0,1,4-3.27Z" transform="translate(-142.66 14.04)"/><path class="ab" d="M362.65,147.84a4.62,4.62,0,0,1-5.24,4.24,5.18,5.18,0,0,1-4.55-5.42,4.62,4.62,0,0,1,5.24-4.24A5.17,5.17,0,0,1,362.65,147.84Z" transform="translate(-142.66 14.04)"/><path class="ac" d="M357.92,143.85a3.65,3.65,0,0,1,3.2,3.81,3.25,3.25,0,0,1-3.69,3,3.64,3.64,0,0,1-3.19-3.81,3.23,3.23,0,0,1,3.26-3l.42,0Z" transform="translate(-142.66 14.04)"/><path class="ad" d="M354.42,164.88c4.94,1.24,8.25,5.3,7.38,9.06s-5.56,5.8-10.51,4.56-8.24-5.3-7.38-9.06c.69-3,3.85-4.93,7.62-4.93a11.69,11.69,0,0,1,2.89.37Z" transform="translate(-142.66 14.04)"/><g class="ae"><path class="af" d="M360.32,172.4c-.51,2.25-3.32,3.47-6.28,2.73s-4.93-3.17-4.41-5.42,3.33-3.47,6.28-2.73S360.84,170.15,360.32,172.4Z" transform="translate(-142.66 14.04)"/></g><g class="ag"><path class="c" d="M434.72,26.85v1.37L346.42,80.1V78.73Z" transform="translate(-142.66 14.04)"/><path class="d" d="M364.68-14l70,40.89-88.3,51.88-70-40.89Z" transform="translate(-142.66 14.04)"/><path class="e" d="M346.42,78.73V80.1l-70-40.88V37.84Z" transform="translate(-142.66 14.04)"/><path class="f" d="M363.54-8l60.87,35.53-57.87,34L391,26.92l-55.42,7.74,4.44-15.41-34.38,6.8Z" transform="translate(-142.66 14.04)"/><path class="g" d="M357.59,21.35c4.59,2.67,12,2.67,16.62,0s4.58-7-.08-9.77-12.1-2.68-16.68,0S352.94,18.67,357.59,21.35Z" transform="translate(-142.66 14.04)"/><path class="h" d="M391,26.92,366.47,61.51l-61-35.39,34.59-6.87-4.44,15.41Z" transform="translate(-142.66 14.04)"/><path class="i" d="M366.47,61.51v1.37l-61-35.38V26.12Z" transform="translate(-142.66 14.04)"/><path class="j" d="M424.41,27.57v1.37L366.54,63V61.58Z" transform="translate(-142.66 14.04)"/></g><path class="ah" d="M360,218.47s6.38,2.83,9.22-2.8l.17-73.11-9.2-4.24Z" transform="translate(-142.66 14.04)"/><path class="ai" d="M360.22,140.75,360,218.44l-69.7-40.1-11.52-6.66a6.24,6.24,0,0,1-1.17-2.35,6.68,6.68,0,0,1-.14-2.35l.2-70.5,76.68,41.16Z" transform="translate(-142.66 14.04)"/><path class="ac" d="M354.4,137.64l-60.32,35-3.75,5.69-11.52-6.66a6.16,6.16,0,0,1-1.17-2.35,6.68,6.68,0,0,1-.14-2.35l.2-70.5Z" transform="translate(-142.66 14.04)"/><path class="aj" d="M366.44,145.06l-.68.34-.77.22-.82.15-.82,0-.86,0-.82-.15-.74-.22-.71-.34L279,98.3l-.57-.4-.4-.45-.23-.49-.08-.48.08-.48.23-.45.4-.45.57-.4,1.73-1,.71-.31.74-.23L283,93l.85-.06.82.06.83.14.76.23.68.31,81.22,46.79.57.4.4.42.22.48.09.48-.06.49-.25.48-.4.42-.54.4Z" transform="translate(-142.66 14.04)"/><path class="ak" d="M283.15,95.8v2.72a1.87,1.87,0,0,0,.34,1.28,4.4,4.4,0,0,0,1.17.93l4.42,2.52a7.2,7.2,0,0,0,3.47.48,4.31,4.31,0,0,0,3.38-1.72,1.4,1.4,0,0,0,.17-.63V98Z" transform="translate(-142.66 14.04)"/><path class="al" d="M294.85,96.48c1.7,1,1.73,2.61,0,3.57a6.82,6.82,0,0,1-6.19,0l-4.2-2.43c-1.71-1-1.74-2.61,0-3.6a6.82,6.82,0,0,1,6.19,0Z" transform="translate(-142.66 14.04)"/><path class="ak" d="M342.08,183.66a13.75,13.75,0,0,1-10,9.07l-18-32-12.88-23,3.35-1.92a11.87,11.87,0,0,1,6.95-1.51c4.37.26,10.67,2.36,19,11.36a50,50,0,0,1,3.29,4,53.11,53.11,0,0,1,7.92,16.52S344.78,175.79,342.08,183.66Z" transform="translate(-142.66 14.04)"/><path class="al" d="M333.8,149.67l-19.73,11-12.89-23,3.35-1.92a11.87,11.87,0,0,1,7-1.51c4.38.26,10.68,2.36,19,11.36A41.27,41.27,0,0,1,333.8,149.67Z" transform="translate(-142.66 14.04)"/><path class="ah" d="M317.3,139.28c12.49,7.19,22.6,24.64,22.54,39s-10.19,20.11-22.68,12.92-22.6-24.64-22.54-39S304.81,132.09,317.3,139.28Z" transform="translate(-142.66 14.04)"/><path class="am" d="M291.61,148.51l8.86-4.95a10.7,10.7,0,0,1,7.07-2.13c4.37.2,10.44,3.49,16.12,9.63a43.24,43.24,0,0,1,10.51,22.32c.88,7.17-.94,10.76-2.45,13.26a11,11,0,0,1-2.92,2.63l-10,5.81Z" transform="translate(-142.66 14.04)"/><path class="an" d="M305.24,149.84c10.59,6.09,19.13,20.88,19.1,33s-8.63,17-19.22,10.93S286,172.9,286,160.78,294.68,143.75,305.24,149.84Z" transform="translate(-142.66 14.04)"/><path class="am" d="M291.7,148.46s-.06,0-.06,0Z" transform="translate(-142.66 14.04)"/><path class="ak" d="M331.69,186.64a11,11,0,0,1-2.92,2.63l-10,5.81-16.27-27.9,13.4-7.48a35.86,35.86,0,0,0-10.64-9.83c-5.2-3-9.91-3.34-13.37-1.47l8.6-4.81a10.7,10.7,0,0,1,7.07-2.13c4.37.2,10.44,3.48,16.12,9.63a26.68,26.68,0,0,1,2.41,2.95,43.13,43.13,0,0,1,8.07,19.37C335,180.55,333.23,184.12,331.69,186.64Z" transform="translate(-142.66 14.04)"/><path class="ah" d="M324.34,182.84c0,6-2.15,10.25-5.59,12.24s-8.32,1.73-13.63-1.33c-8-4.62-14.84-14.19-17.68-23.85l13.23-1.73.62-.34,1.19-.65,13.4-7.48C321,166.58,324.37,175.22,324.34,182.84Z" transform="translate(-142.66 14.04)"/><path class="am" d="M299.7,105.72v1.41a.63.63,0,0,0,.17.46,2.07,2.07,0,0,0,.6.39,2.81,2.81,0,0,0,1.59.14,1.46,1.46,0,0,0,1.19-.76,1,1,0,0,0,0-.23v-1.56Z" transform="translate(-142.66 14.04)"/><path class="ao" d="M302.77,104.92a.78.78,0,0,1,0,1.48,3,3,0,0,1-2.56,0,.78.78,0,0,1,0-1.48A3,3,0,0,1,302.77,104.92Z" transform="translate(-142.66 14.04)"/><path class="ak" d="M316.76,186.72a7.63,7.63,0,0,1-3.29,3.91l-5.59,3.23-14.39-24.73-6.62-11.35,5.56-3.23a9.32,9.32,0,0,1,5.88-.8c3.41.63,8.66,4.05,11.16,7.28.39.51.79,1,1.19,1.56a35.82,35.82,0,0,1,5.9,11.1A20.73,20.73,0,0,1,316.76,186.72Z" transform="translate(-142.66 14.04)"/><path class="al" d="M310.66,162.59l-9.37,5.24-.62.34-7.18.93-6.62-11.32,5.56-3.23a9.32,9.32,0,0,1,5.88-.8c3.41.63,8.66,4.05,11.16,7.28C309.86,161.54,310.26,162.05,310.66,162.59Z" transform="translate(-142.66 14.04)"/><path class="al" d="M291.61,148.51l.06,0Z" transform="translate(-142.66 14.04)"/><path class="al" d="M326.07,154l-10.19,5.69a36,36,0,0,0-10.64-9.83c-5.2-3-9.91-3.34-13.37-1.47l8.6-4.81a10.7,10.7,0,0,1,7.07-2.13c4.37.2,10.44,3.49,16.12,9.63A34.29,34.29,0,0,1,326.07,154Z" transform="translate(-142.66 14.04)"/><path class="ah" d="M297.4,158.82c8.21,4.73,14.82,16.15,14.79,25.55s-6.7,13.17-14.87,8.47-14.82-16.14-14.79-25.55S289.23,154.09,297.4,158.82Z" transform="translate(-142.66 14.04)"/><path class="ap" d="M296.3,164.49c5.82,3.34,10.5,11.44,10.47,18.1s-4.74,9.34-10.53,6-10.5-11.44-10.48-18.1S290.5,161.15,296.3,164.49Z" transform="translate(-142.66 14.04)"/><path class="e" d="M296.66,164.15c5.82,3.34,10.51,11.44,10.48,18.1s-4.74,9.34-10.53,6-10.51-11.44-10.48-18.1S290.87,160.78,296.66,164.15Z" transform="translate(-142.66 14.04)"/><path class="an" d="M290.56,178.23a2.84,2.84,0,0,1-1.19-2.27v-8.7a1.6,1.6,0,0,1,.08-.51c-.48-.08-.82.32-.82,1v8.7a2.85,2.85,0,0,0,1.19,2.26l12.92,7.45a.7.7,0,0,0,1.11-.36,2.25,2.25,0,0,1-.37-.12Z" transform="translate(-142.66 14.04)"/><path class="am" d="M303.9,176.61a2.85,2.85,0,0,0-1.19-2.26l-12.92-7.45a.58.58,0,0,0-.36-.12,1.29,1.29,0,0,0-.09.51V176a2.85,2.85,0,0,0,1.19,2.26l12.92,7.45a.58.58,0,0,0,.37.12,1.6,1.6,0,0,0,.08-.51Z" transform="translate(-142.66 14.04)"/><path class="aq" d="M299.39,177.89a4.07,4.07,0,0,1-.06.62c-.22,1.58-1.33,2.24-2.69,1.44a6.49,6.49,0,0,1-2.73-4.67,3.63,3.63,0,0,1,0-.57c0-2,1.22-2.94,2.76-2.06A6.52,6.52,0,0,1,299.39,177.89Z" transform="translate(-142.66 14.04)"/><path class="ar" d="M299.39,177.89a4.07,4.07,0,0,1-.06.62l-5.42-3.23a3.63,3.63,0,0,1,0-.57c0-2,1.22-2.94,2.76-2.06A6.52,6.52,0,0,1,299.39,177.89Z" transform="translate(-142.66 14.04)"/><path class="as" d="M298.31,177.26c0,1.22-.74,1.79-1.65,1.25a4,4,0,0,1-1.64-3.17c0-1.22.74-1.79,1.64-1.25A4,4,0,0,1,298.31,177.26Z" transform="translate(-142.66 14.04)"/><path class="am" d="M295.16,103.34l0,1.41a1,1,0,0,0,.31.68,3.12,3.12,0,0,0,2.53.65c1.25-.14,1.73-.73,1.82-1.16a1.17,1.17,0,0,0,0-.28v-1.36Z" transform="translate(-142.66 14.04)"/><path class="ao" d="M299.13,102.29c.91.54.94,1.39,0,1.93a3.66,3.66,0,0,1-3.32,0c-.91-.54-.93-1.39,0-1.93A3.79,3.79,0,0,1,299.13,102.29Z" transform="translate(-142.66 14.04)"/><path class="at" d="M292.55,118.15l.59-.34a.57.57,0,0,1,.54.09l14.74,8.46a1.68,1.68,0,0,1,.82,1.45c0,1,0,1.36,0,1.36a.54.54,0,0,1,0,.25,1,1,0,0,1-.71.46C307.65,130.08,296,120.9,292.55,118.15Z" transform="translate(-142.66 14.04)"/><path class="au" d="M290.42,119.79a2.84,2.84,0,0,1-.82.51l-4.23-7.45.51-.31a1.7,1.7,0,0,1,1.08-.2,4.17,4.17,0,0,1,2.41,1.53,6.35,6.35,0,0,1,1.19,1.87,6,6,0,0,1,.51,2A2.35,2.35,0,0,1,290.42,119.79Z" transform="translate(-142.66 14.04)"/><path class="al" d="M290.56,115.72l-1.25.68-.57-2.16.63-.37A6.91,6.91,0,0,1,290.56,115.72Z" transform="translate(-142.66 14.04)"/><path class="au" d="M284.15,114a1.52,1.52,0,0,1-.49,1.13,3.56,3.56,0,0,1-.85.45l-2.72-5,.56-.34a1.12,1.12,0,0,1,.71-.11,2.77,2.77,0,0,1,1.62,1,3.55,3.55,0,0,1,.77,1.24A3.71,3.71,0,0,1,284.15,114Z" transform="translate(-142.66 14.04)"/><path class="al" d="M283.8,112.37l-.71.48s-1-.79-.56-1.41l.51-.31A4.15,4.15,0,0,1,283.8,112.37Z" transform="translate(-142.66 14.04)"/><path class="av" d="M280.48,112.37l.51-.31v.06l-.51.31Z" transform="translate(-142.66 14.04)"/><path class="aw" d="M280.48,112.43l.51-.31v0l-.51.31Z" transform="translate(-142.66 14.04)"/><path class="ax" d="M280.48,112.49l.51-.32v.06l-.51.31Z" transform="translate(-142.66 14.04)"/><path class="ay" d="M280.48,112.54l.51-.31v.06l-.51.31Z" transform="translate(-142.66 14.04)"/><path class="az" d="M280.51,112.6l.51-.31v0l-.51.32Z" transform="translate(-142.66 14.04)"/><path class="ba" d="M280.51,112.65l.51-.31v.06l-.51.31Z" transform="translate(-142.66 14.04)"/><path class="bb" d="M280.51,112.71l.51-.31v.06l-.51.31Z" transform="translate(-142.66 14.04)"/><path class="bc" d="M280.54,112.77l.51-.31v.05l-.51.32Z" transform="translate(-142.66 14.04)"/><path class="bd" d="M280.54,112.83l.51-.32s0,0,0,.06l-.51.31S280.54,112.85,280.54,112.83Z" transform="translate(-142.66 14.04)"/><path class="be" d="M280.57,112.88l.51-.31s0,0,0,.06l-.51.31S280.57,112.91,280.57,112.88Z" transform="translate(-142.66 14.04)"/><path class="bf" d="M280.57,112.94l.51-.31s0,0,0,.05l-.51.32S280.57,113,280.57,112.94Z" transform="translate(-142.66 14.04)"/><path class="bg" d="M280.6,113l.51-.32s0,0,0,.06l-.51.31S280.6,113,280.6,113Z" transform="translate(-142.66 14.04)"/><path class="bh" d="M280.63,113.05l.51-.31a.07.07,0,0,0,0,.06l-.51.31A.07.07,0,0,1,280.63,113.05Z" transform="translate(-142.66 14.04)"/><path class="bi" d="M280.63,113.11l.51-.31s0,0,0,0l-.51.32A.07.07,0,0,0,280.63,113.11Z" transform="translate(-142.66 14.04)"/><path class="bj" d="M280.65,113.17l.51-.32s0,0,0,.06l-.51.31S280.65,113.19,280.65,113.17Z" transform="translate(-142.66 14.04)"/><path class="bk" d="M280.68,113.22l.51-.31s0,0,0,.06l-.51.31S280.68,113.25,280.68,113.22Z" transform="translate(-142.66 14.04)"/><path class="bl" d="M280.71,113.28l.51-.31s0,0,0,0l-.51.32S280.71,113.31,280.71,113.28Z" transform="translate(-142.66 14.04)"/><path class="bm" d="M280.74,113.34l.51-.32a.1.1,0,0,0,0,.06l-.51.31S280.74,113.36,280.74,113.34Z" transform="translate(-142.66 14.04)"/><path class="bn" d="M280.77,113.39l.51-.31s0,.06.06.09l-.52.31S280.8,113.42,280.77,113.39Z" transform="translate(-142.66 14.04)"/><path class="al" d="M280.82,113.51l.51-.32.09.15-.51.31A.42.42,0,0,0,280.82,113.51Z" transform="translate(-142.66 14.04)"/><path class="bn" d="M280.91,113.62l.51-.31a.35.35,0,0,1,.09.11l-.52.31A.63.63,0,0,1,280.91,113.62Z" transform="translate(-142.66 14.04)"/><path class="bm" d="M281,113.73l.51-.31s0,.06,0,.06l-.51.31Z" transform="translate(-142.66 14.04)"/><path class="bl" d="M281,113.79l.51-.31s0,0,.06,0l-.51.32S281.05,113.82,281,113.79Z" transform="translate(-142.66 14.04)"/><path class="bk" d="M281.08,113.84l.51-.31.06.06-.51.31S281.08,113.87,281.08,113.84Z" transform="translate(-142.66 14.04)"/><path class="bj" d="M281.11,113.9l.51-.31.06.06-.52.31Z" transform="translate(-142.66 14.04)"/><path class="bi" d="M281.16,114l.52-.31.05,0-.51.31Z" transform="translate(-142.66 14.04)"/><path class="bh" d="M281.19,114l.51-.31.06,0-.51.31Z" transform="translate(-142.66 14.04)"/><path class="bg" d="M281.25,114l.51-.31.06.06-.51.31Z" transform="translate(-142.66 14.04)"/><path class="bf" d="M281.31,114.1l.51-.31.05.06-.51.31Z" transform="translate(-142.66 14.04)"/><path class="be" d="M281.36,114.13l.51-.31s0,0,.06,0l-.51.32S281.36,114.16,281.36,114.13Z" transform="translate(-142.66 14.04)"/><path class="bd" d="M281.39,114.19l.51-.32s0,0,.06,0l-.51.31A.07.07,0,0,0,281.39,114.19Z" transform="translate(-142.66 14.04)"/><path class="bc" d="M281.45,114.21l.51-.31s0,0,.06,0l-.51.31S281.48,114.21,281.45,114.21Z" transform="translate(-142.66 14.04)"/><path class="bb" d="M281.51,114.24l.51-.31s0,0,.05,0l-.51.31S281.51,114.27,281.51,114.24Z" transform="translate(-142.66 14.04)"/><path class="ba" d="M281.53,114.27l.52-.31s0,0,.05,0l-.51.31A.09.09,0,0,1,281.53,114.27Z" transform="translate(-142.66 14.04)"/><path class="az" d="M281.59,114.3l.51-.31Z" transform="translate(-142.66 14.04)"/><path class="az" d="M281.59,114.3l.51-.31a0,0,0,0,1,0,0l-.51.31Z" transform="translate(-142.66 14.04)"/><path class="ay" d="M281.65,114.33l.51-.32s0,0,.06,0l-.52.31Z" transform="translate(-142.66 14.04)"/><path class="ax" d="M281.68,114.35l.51-.31s0,0,.05,0l-.51.31S281.7,114.35,281.68,114.35Z" transform="translate(-142.66 14.04)"/><path class="aw" d="M281.73,114.38l.51-.31s0,0,.06,0l-.51.31A.09.09,0,0,0,281.73,114.38Z" transform="translate(-142.66 14.04)"/><path class="av" d="M281.79,114.38l.51-.31s0,0,.06,0l-.51.31S281.79,114.41,281.79,114.38Z" transform="translate(-142.66 14.04)"/><path class="bo" d="M281.82,114.41l.51-.31s0,0,.05,0l-.51.31S281.84,114.41,281.82,114.41Z" transform="translate(-142.66 14.04)"/><path class="au" d="M281.87,114.44l.51-.31h.06l-.51.31Z" transform="translate(-142.66 14.04)"/><path class="bp" d="M281.9,114.44l.51-.31h.06l-.51.31Z" transform="translate(-142.66 14.04)"/><path class="bq" d="M282,114.44l.51-.31h.06l-.51.31S282,114.47,282,114.44Z" transform="translate(-142.66 14.04)"/><path class="br" d="M282,114.47l.51-.31h.05l-.51.31Z" transform="translate(-142.66 14.04)"/><path class="bs" d="M282,114.47l.52-.31h.05l-.51.31Z" transform="translate(-142.66 14.04)"/><path class="bt" d="M282.1,114.47l.51-.31h.06l-.51.31Z" transform="translate(-142.66 14.04)"/><path class="bu" d="M282.16,114.47l.51-.31h.06l-.51.31Z" transform="translate(-142.66 14.04)"/><path class="bv" d="M282.24,114.44l.51-.31a.11.11,0,0,0,.09,0l-.51.31A.11.11,0,0,1,282.24,114.44Z" transform="translate(-142.66 14.04)"/><path class="bw" d="M282.3,114.44l.51-.31.09,0-.51.31Z" transform="translate(-142.66 14.04)"/><path class="bw" d="M280.82,111.66l.51-.31a.72.72,0,0,0-.19.2l-.52.31A.55.55,0,0,1,280.82,111.66Z" transform="translate(-142.66 14.04)"/><path class="bv" d="M280.62,111.83l.52-.31a.11.11,0,0,0,0,.09l-.51.31A.15.15,0,0,1,280.62,111.83Z" transform="translate(-142.66 14.04)"/><path class="bu" d="M280.57,111.92l.51-.31s0,0,0,0l-.51.31S280.57,112,280.57,111.92Z" transform="translate(-142.66 14.04)"/><path class="bt" d="M280.54,112l.51-.31s0,0,0,.06l-.51.31S280.54,112,280.54,112Z" transform="translate(-142.66 14.04)"/><path class="bs" d="M280.54,112l.51-.31s0,0,0,.06l-.51.31A.09.09,0,0,1,280.54,112Z" transform="translate(-142.66 14.04)"/><path class="br" d="M280.51,112.12l.51-.31v0l-.51.31Z" transform="translate(-142.66 14.04)"/><path class="bq" d="M280.51,112.15l.51-.32v.06l-.51.31Z" transform="translate(-142.66 14.04)"/><path class="bp" d="M280.48,112.2l.51-.31V112l-.51.31Z" transform="translate(-142.66 14.04)"/><path class="au" d="M280.48,112.26,281,112v0l-.51.32Z" transform="translate(-142.66 14.04)"/><path class="bo" d="M280.48,112.32,281,112v.06l-.51.31Z" transform="translate(-142.66 14.04)"/><path class="av" d="M280.48,112.37l.51-.31v.06l-.51.31Z" transform="translate(-142.66 14.04)"/><path class="bp" d="M280.82,111.67l.52-.32a.11.11,0,0,1,.08,0l-.51.31A.11.11,0,0,0,280.82,111.67Z" transform="translate(-142.66 14.04)"/><path class="bx" d="M280.91,111.61l.51-.31.09,0-.52.31A.08.08,0,0,1,280.91,111.61Z" transform="translate(-142.66 14.04)"/><path class="av" d="M281,111.61l.51-.31h.06l-.51.31S281,111.58,281,111.61Z" transform="translate(-142.66 14.04)"/><path class="aw" d="M281.05,111.58l.51-.31h.06l-.51.31Z" transform="translate(-142.66 14.04)"/><path class="by" d="M281.11,111.58l.51-.31h.05l-.51.31Z" transform="translate(-142.66 14.04)"/><path class="bz" d="M281.16,111.58l.52-.31h.05l-.51.31Z" transform="translate(-142.66 14.04)"/><path class="ba" d="M281.19,111.58l.51-.31h.06l-.51.31S281.22,111.58,281.19,111.58Z" transform="translate(-142.66 14.04)"/><path class="bb" d="M281.25,111.61l.51-.31h.06l-.51.31Z" transform="translate(-142.66 14.04)"/><path class="ca" d="M281.31,111.61l.51-.31h.05l-.51.31Z" transform="translate(-142.66 14.04)"/><path class="be" d="M281.34,111.61l.51-.31,0,0-.51.32A.06.06,0,0,1,281.34,111.61Z" transform="translate(-142.66 14.04)"/><path class="aj" d="M281.39,111.64l.51-.32s0,0,.06,0l-.51.31A.07.07,0,0,0,281.39,111.64Z" transform="translate(-142.66 14.04)"/><path class="bg" d="M281.45,111.67l.51-.32s0,0,.06,0l-.51.31A.12.12,0,0,0,281.45,111.67Z" transform="translate(-142.66 14.04)"/><path class="cb" d="M281.48,111.67l.51-.32s0,0,.05,0l-.51.31S281.51,111.67,281.48,111.67Z" transform="translate(-142.66 14.04)"/><path class="bj" d="M281.53,111.69l.52-.31s0,0,.05,0l-.51.31A.1.1,0,0,1,281.53,111.69Z" transform="translate(-142.66 14.04)"/><path class="cc" d="M281.56,111.72l.51-.31a0,0,0,0,1,0,0l-.51.31S281.59,111.72,281.56,111.72Z" transform="translate(-142.66 14.04)"/><path class="cc" d="M281.62,111.75l.51-.31Z" transform="translate(-142.66 14.04)"/><path class="cd" d="M281.62,111.75l.51-.31s0,0,.06,0l-.51.31S281.65,111.75,281.62,111.75Z" transform="translate(-142.66 14.04)"/><path class="ce" d="M281.68,111.78l.51-.31s0,0,.05,0l-.51.32A.07.07,0,0,1,281.68,111.78Z" transform="translate(-142.66 14.04)"/><path class="cf" d="M281.7,111.81l.52-.32s0,0,0,0l-.51.31A.13.13,0,0,0,281.7,111.81Z" transform="translate(-142.66 14.04)"/><path class="cg" d="M281.76,111.83l.51-.31s0,0,.06,0l-.51.31S281.79,111.86,281.76,111.83Z" transform="translate(-142.66 14.04)"/><path class="ch" d="M281.82,111.86l.51-.31s0,0,.05,0l-.51.31S281.85,111.89,281.82,111.86Z" transform="translate(-142.66 14.04)"/><path class="ci" d="M281.87,111.92l.51-.31.06,0-.51.31Z" transform="translate(-142.66 14.04)"/><path class="cj" d="M281.9,112l.51-.32.06.06L282,112Z" transform="translate(-142.66 14.04)"/><path class="bl" d="M282,112l.51-.31.06.06-.51.31Z" transform="translate(-142.66 14.04)"/><path class="ck" d="M282,112.06l.51-.31.05.06-.51.31Z" transform="translate(-142.66 14.04)"/><path class="e" d="M282.07,112.09l.51-.31.06,0-.51.32A.06.06,0,0,1,282.07,112.09Z" transform="translate(-142.66 14.04)"/><path class="cl" d="M282.1,112.15l.51-.32.06.06-.51.31Z" transform="translate(-142.66 14.04)"/><path class="cm" d="M282.16,112.2l.51-.31.06.06-.51.31S282.16,112.23,282.16,112.2Z" transform="translate(-142.66 14.04)"/><path class="cn" d="M282.19,112.26l.51-.31s0,0,.05,0l-.51.32Z" transform="translate(-142.66 14.04)"/><path class="co" d="M282.24,112.32l.51-.32a.41.41,0,0,1,.09.12l-.51.31A.26.26,0,0,0,282.24,112.32Z" transform="translate(-142.66 14.04)"/><path class="cp" d="M282.3,112.43l.51-.31s.06.08.09.14l-.51.31A.56.56,0,0,0,282.3,112.43Z" transform="translate(-142.66 14.04)"/><path class="co" d="M282.39,112.57l.51-.31s0,.06.05.08l-.51.32S282.41,112.6,282.39,112.57Z" transform="translate(-142.66 14.04)"/><path class="cn" d="M282.44,112.66l.51-.32a.1.1,0,0,0,0,.06l-.51.31S282.47,112.68,282.44,112.66Z" transform="translate(-142.66 14.04)"/><path class="cm" d="M282.47,112.71l.51-.31s0,0,0,.06l-.51.31A.09.09,0,0,0,282.47,112.71Z" transform="translate(-142.66 14.04)"/><path class="cl" d="M282.5,112.77l.51-.31s0,0,0,.05l-.51.32A.09.09,0,0,0,282.5,112.77Z" transform="translate(-142.66 14.04)"/><path class="e" d="M282.53,112.83l.51-.32s0,0,0,.06l-.51.31S282.56,112.85,282.53,112.83Z" transform="translate(-142.66 14.04)"/><path class="ck" d="M282.56,112.88l.51-.31s0,0,0,.06l-.52.31S282.56,112.91,282.56,112.88Z" transform="translate(-142.66 14.04)"/><path class="bl" d="M282.58,112.94l.52-.31s0,0,0,.05l-.51.32S282.58,113,282.58,112.94Z" transform="translate(-142.66 14.04)"/><path class="cj" d="M282.61,113l.51-.32s0,0,0,.06l-.51.31S282.61,113,282.61,113Z" transform="translate(-142.66 14.04)"/><path class="ci" d="M282.61,113.05l.51-.31s0,0,0,.06l-.51.31S282.64,113.08,282.61,113.05Z" transform="translate(-142.66 14.04)"/><path class="ch" d="M282.64,113.11l.51-.31s0,0,0,0l-.51.32S282.64,113.14,282.64,113.11Z" transform="translate(-142.66 14.04)"/><path class="cg" d="M282.67,113.17l.51-.32s0,0,0,.06l-.51.31S282.67,113.19,282.67,113.17Z" transform="translate(-142.66 14.04)"/><path class="cf" d="M282.67,113.22l.51-.31V113l-.51.31S282.67,113.25,282.67,113.22Z" transform="translate(-142.66 14.04)"/><path class="ce" d="M282.7,113.28l.51-.31v0l-.51.32Z" transform="translate(-142.66 14.04)"/><path class="cd" d="M282.7,113.34l.51-.32v.06l-.51.31Z" transform="translate(-142.66 14.04)"/><path class="cc" d="M282.7,113.39l.51-.31v.06l-.51.31S282.73,113.42,282.7,113.39Z" transform="translate(-142.66 14.04)"/><path class="bj" d="M282.73,113.45l.51-.31v0l-.51.32Z" transform="translate(-142.66 14.04)"/><path class="cb" d="M282.73,113.5l.51-.31v.06l-.51.31Z" transform="translate(-142.66 14.04)"/><path class="bg" d="M282.73,113.56l.51-.31v.06l-.51.31Z" transform="translate(-142.66 14.04)"/><path class="aj" d="M282.73,113.62l.51-.31v0l-.51.32Z" transform="translate(-142.66 14.04)"/><path class="be" d="M282.73,113.67l.51-.31v.06l-.51.31Z" transform="translate(-142.66 14.04)"/><path class="ca" d="M282.73,113.73l.51-.31v.06l-.51.31Z" transform="translate(-142.66 14.04)"/><path class="bb" d="M282.73,113.79l.51-.31v0l-.51.32Z" transform="translate(-142.66 14.04)"/><path class="ba" d="M282.73,113.84l.51-.31v.06l-.51.31Z" transform="translate(-142.66 14.04)"/><path class="bz" d="M282.73,113.9l.51-.31v.06l-.51.31S282.7,113.9,282.73,113.9Z" transform="translate(-142.66 14.04)"/><path class="by" d="M282.7,113.93l.51-.31s0,0,0,.06l-.51.31S282.7,114,282.7,113.93Z" transform="translate(-142.66 14.04)"/><path class="aw" d="M282.7,114l.51-.31s0,0,0,0l-.51.31S282.67,114,282.7,114Z" transform="translate(-142.66 14.04)"/><path class="av" d="M282.67,114.07l.51-.31a.1.1,0,0,1,0,.06l-.51.31A.1.1,0,0,1,282.67,114.07Z" transform="translate(-142.66 14.04)"/><path class="bx" d="M282.64,114.13l.51-.31s0,.05,0,.08l-.51.31S282.64,114.16,282.64,114.13Z" transform="translate(-142.66 14.04)"/><path class="bp" d="M282.61,114.21l.51-.31a.55.55,0,0,1-.2.2l-.51.31A1.89,1.89,0,0,0,282.61,114.21Z" transform="translate(-142.66 14.04)"/><path class="cq" d="M281.62,110.7a4.35,4.35,0,0,1,2,3.51c0,1.31-.9,1.82-2,1.16a4.43,4.43,0,0,1-2-3.51C279.58,110.56,280.48,110.05,281.62,110.7Zm0,3.6c.63.37,1.14,0,1.14-.65a2.48,2.48,0,0,0-1.11-1.93c-.63-.37-1.14-.08-1.14.65A2.48,2.48,0,0,0,281.59,114.3Z" transform="translate(-142.66 14.04)"/><path class="al" d="M281.62,111.75a2.42,2.42,0,0,1,1.11,1.93c0,.7-.51,1-1.14.65a2.47,2.47,0,0,1-1.11-1.93C280.48,111.66,281,111.38,281.62,111.75Z" transform="translate(-142.66 14.04)"/><path class="cq" d="M287.52,113.05a6.7,6.7,0,0,1,3,5.24c0,1.93-1.36,2.72-3.06,1.73a6.67,6.67,0,0,1-3-5.24C284.46,112.85,285.85,112.06,287.52,113.05Z" transform="translate(-142.66 14.04)"/><path class="cr" d="M307.85,126.65a1.86,1.86,0,0,1,.85,1.47v1.22c0,.54-.4.76-.85.48l-14.68-8.47a1.86,1.86,0,0,1-.85-1.47v-1.22c0-.54.4-.76.85-.48Z" transform="translate(-142.66 14.04)"/><path class="cs" d="M321.32,181.2,321,289.45c0,3.16-2.28,4.48-5.1,2.9l-168.1-97.07a9.91,9.91,0,0,1-3.08-3,10.55,10.55,0,0,1-2-5.81l.09-16.8V153.84l.08-20.68.27-54.83c0-3.17,2.29-4.49,5.1-2.9l85.64,49.45L265.25,143l23.15,13.38,27.9,16.1a11.54,11.54,0,0,1,5,8.71Z" transform="translate(-142.66 14.04)"/><path class="ct" d="M319,289.44h0c0,1.13-.39,1.44-.48,1.49s-.6.25-1.63-.33h0l-168-97a7.89,7.89,0,0,1-2.44-2.39l0,0v0a8.51,8.51,0,0,1-1.66-4.65h0l.09-16.79h0V153.84h0l.08-20.68h0l.27-54.82h0c0-1.14.39-1.44.49-1.5s.59-.24,1.62.34l85.63,49.45h0l31.41,18.12h0l23.14,13.38h0l27.9,16.1h0a8,8,0,0,1,2.82,3.15l0,.05,0,0a7.76,7.76,0,0,1,1.14,3.73h0Z" transform="translate(-142.66 14.04)"/><line class="cu" x1="44.63" y1="139.93" x2="124.87" y2="188.07"/><line class="cu" x1="16.79" y1="192.34" x2="162.29" y2="275.78"/><line class="cu" x1="16.79" y1="170.94" x2="162.29" y2="254.38"/><line class="cu" x1="16.79" y1="148.47" x2="162.29" y2="231.92"/></svg>