<svg xmlns="http://www.w3.org/2000/svg" xmlns:xlink="http://www.w3.org/1999/xlink" width="314" height="292.39" viewBox="0 0 314 292.39"><defs><style>.a,.d{opacity:0.66;}.a,.d,.j,.m,.n{isolation:isolate;}.a{fill:url(#a);}.b{fill:#f0eff3;}.c{fill:url(#b);}.d{fill:url(#c);}.e,.j,.r{fill:#fff;}.f{fill:url(#d);}.g{fill:url(#e);}.h{fill:url(#g);}.i{fill:#212d3a;}.j{opacity:0.25;}.k{fill:url(#i);}.l{fill:#633594;}.m{fill:#e5e5e5;}.m,.n{opacity:0.4;}.n{fill:gray;}.o{fill:url(#j);}.p{stroke:#e0e0e0;fill:url(#k);}.q{fill:#c4c4c4;}.r{stroke:#c4c4c4;}.s{fill:#832b56;}</style><linearGradient id="a" x1="437.11" y1="-137.96" x2="379.9" y2="-110.06" gradientTransform="matrix(1, 0, 0, -1, -99, 116)" gradientUnits="userSpaceOnUse"><stop offset="0" stop-color="#c2c2c7"/><stop offset="0.53" stop-color="#bfc0c5"/><stop offset="0.71" stop-color="#bababe"/><stop offset="0.85" stop-color="#afafb3"/><stop offset="0.96" stop-color="#9d9ea1"/><stop offset="1" stop-color="#969799"/></linearGradient><linearGradient id="b" x1="397.13" y1="-170.88" x2="376.69" y2="-115.41" gradientTransform="matrix(1, 0, 0, -1, -99, 116)" gradientUnits="userSpaceOnUse"><stop offset="0" stop-color="#e4e4e8"/><stop offset="0.53" stop-color="#e2e2e7"/><stop offset="0.75" stop-color="#dbdbe1"/><stop offset="0.91" stop-color="#cfd1d9"/><stop offset="1" stop-color="#c4c5d0"/></linearGradient><linearGradient id="c" x1="509.95" y1="63.81" x2="272.56" y2="-71.44" xlink:href="#a"/><linearGradient id="d" x1="246.63" y1="-3.75" x2="247.85" y2="-177.45" gradientTransform="matrix(1, 0, 0, -1, -99, 116)" gradientUnits="userSpaceOnUse"><stop offset="0" stop-color="#c2c2c7"/><stop offset="0.32" stop-color="#bebfc4"/><stop offset="0.59" stop-color="#b4b5b9"/><stop offset="0.84" stop-color="#a3a4a7"/><stop offset="1" stop-color="#969799"/></linearGradient><linearGradient id="e" x1="257.96" y1="-90.05" x2="238.96" y2="-90.05" gradientTransform="matrix(1, 0, 0, -1, -99, 116)" gradientUnits="userSpaceOnUse"><stop offset="0" stop-color="#bdbfc6"/><stop offset="0.2" stop-color="#babcc4"/><stop offset="1" stop-color="#b4b6bf"/></linearGradient><linearGradient id="g" x1="478.12" y1="122.18" x2="248.27" y2="-173.35" gradientTransform="matrix(1, 0, 0, -1, -99, 116)" gradientUnits="userSpaceOnUse"><stop offset="0" stop-color="#e4e4e8"/><stop offset="0.57" stop-color="#e2e2e7"/><stop offset="0.77" stop-color="#dbdce2"/><stop offset="0.91" stop-color="#d1d2da"/><stop offset="1" stop-color="#c4c5d0"/></linearGradient><linearGradient id="i" x1="465.46" y1="-22.85" x2="262.46" y2="-22.85" gradientTransform="matrix(1, 0, 0, -1, -99, 116)" gradientUnits="userSpaceOnUse"><stop offset="0.03" stop-color="#71479c"/><stop offset="0.21" stop-color="#6753a3"/><stop offset="0.62" stop-color="#5798d2"/><stop offset="1" stop-color="#71cde2"/></linearGradient><linearGradient id="j" x1="395.96" y1="-6.29" x2="551.45" y2="-6.29" gradientTransform="matrix(1, 0, 0, -1, -99, 116)" gradientUnits="userSpaceOnUse"><stop offset="0" stop-color="#767779"/><stop offset="0.27" stop-color="#c4c4c4"/><stop offset="0.7" stop-color="gray"/><stop offset="1" stop-color="#626363"/></linearGradient><linearGradient id="k" x1="368.03" y1="14.17" x2="644.11" y2="-40.33" gradientTransform="matrix(1, 0, 0, -1, -99, 116)" gradientUnits="userSpaceOnUse"><stop offset="0.24" stop-color="#fff"/><stop offset="1" stop-color="#c4c4c4"/></linearGradient></defs><path class="a" d="M243,199.9v53.5c0,5.2,2.4,10,7.1,12.3l30.7,14.6.3-.2v.2l.8-.2L330,256.6v-2h-.8l-2.6,1.1-1.3-.6-27.4-13.5a13.94,13.94,0,0,1-7.9-12.3V175.8Z" transform="translate(-139.96 6.59)"/><path class="b" d="M280.86,278.4l.6,1.8L330,256.6v-1.9h-.8l-.5-.1-3.4.6-44.9,7.2Z" transform="translate(-139.96 6.59)"/><path class="c" d="M244,198.9v52.6c0,.5.1,1,.1,1.6a5.85,5.85,0,0,0,.2,1.3,13.5,13.5,0,0,0,3.7,6.7,12,12,0,0,0,2.1,1.7,10,10,0,0,0,1.4.8l2.3,1.2,27,13.6,47.5-23.8-29-14.7-.6-.3a12.61,12.61,0,0,1-3.1-2.5,5.55,5.55,0,0,1-.6-.8,13.86,13.86,0,0,1-2.7-6.2,18.1,18.1,0,0,1-.3-2.3V175.2Z" transform="translate(-139.96 6.59)"/><path class="d" d="M140.26,276.2s-.4,2.6,1.2,3.7,8.5,5.4,8.5,5.4V139.2l6.4-4L376.86-1.4l-8-4.8s-1.1-.8-3.3-.1-218.1,127.9-218.1,127.9a13.53,13.53,0,0,0-5.5,5.5,12.46,12.46,0,0,0-1.5,4.1,12.86,12.86,0,0,0-.4,2.8C140,135.4,140.26,276.2,140.26,276.2Z" transform="translate(-139.96 6.59)"/><path class="e" d="M140.26,276.2s-.4,2.6,1.2,3.7,8.5,5.4,8.5,5.4V139.2l6.4-4,2.4-1.5L376.86-1.4l-8-4.8s-1.1-.8-3.3-.1-218.1,127.9-218.1,127.9a14.91,14.91,0,0,0-5.4,5.2c-.1.1-.1.2-.2.3a12.46,12.46,0,0,0-1.5,4.1,12.86,12.86,0,0,0-.4,2.8C140,135.4,140.26,276.2,140.26,276.2Z" transform="translate(-139.96 6.59)"/><path class="f" d="M140,134.1a12.86,12.86,0,0,1,.4-2.8,11.67,11.67,0,0,1,1.5-4.1l14.5,8.1-6.4,4V281.9h.1c.6.3,1.9,3.9,1.9,3.9a12.1,12.1,0,0,1-2-.4,2.51,2.51,0,0,1-.8-.5c-1.9-1.2-6.5-4-7.8-4.9-1.6-1.1-1.2-3.7-1.2-3.7S140,135.4,140,134.1Z" transform="translate(-139.96 6.59)"/><path class="g" d="M140.26,276.2s-.4,2.6,1.2,3.7,8.5,5.4,8.5,5.4V139.2l6.5-4,2.5-1.5-16.9-6.9c-.1.1-.1.2-.2.3a12.46,12.46,0,0,0-1.5,4.1,12.86,12.86,0,0,0-.4,2.8C140,135.4,140.26,276.2,140.26,276.2Z" transform="translate(-139.96 6.59)"/><path class="g" d="M140.26,276.2s-.4,2.6,1.2,3.7,8.5,5.4,8.5,5.4V139.2l6.5-4,2.5-1.5-16.9-6.9c-.1.1-.1.2-.2.3a12.46,12.46,0,0,0-1.5,4.1,12.86,12.86,0,0,0-.4,2.8C140,135.4,140.26,276.2,140.26,276.2Z" transform="translate(-139.96 6.59)"/><path class="h" d="M148.26,138.5l.4,142.5c0,4.2,3,5.9,6.6,3.8L373,157a12.38,12.38,0,0,0,4.2-4.3,14.2,14.2,0,0,0,2.3-7.2L379.06,3c0-4.2-3-5.9-6.6-3.8L154.76,127a14.52,14.52,0,0,0-4.7,5.1A13.76,13.76,0,0,0,148.26,138.5Z" transform="translate(-139.96 6.59)"/><path class="h" d="M148.26,138.5l.4,142.5c0,4.2,3,5.9,6.6,3.8L373,157a12.38,12.38,0,0,0,4.2-4.3,14.2,14.2,0,0,0,2.3-7.2L379.06,3c0-4.2-3-5.9-6.6-3.8L154.76,127a14.52,14.52,0,0,0-4.7,5.1A13.76,13.76,0,0,0,148.26,138.5Z" transform="translate(-139.96 6.59)"/><path class="i" d="M148.26,138.5l.4,137.7v3.6c52.8-30.4,178-102.6,222.6-128.7,3.2-1.8,5.9-3.5,8.2-4.8v-3.7l-.2-83.9V6.2l-.1-3.2c0-4.2-3-5.9-6.6-3.8L154.86,127a13.35,13.35,0,0,0-4.1,4.1,8.79,8.79,0,0,0-.6,1A12.81,12.81,0,0,0,148.26,138.5Z" transform="translate(-139.96 6.59)"/><path class="j" d="M150.66,131.1l220.5,20.1c3.2-1.8,5.9-3.5,8.2-4.8v-.8l.4-2.9.1-83.9V6.3l-.5-3.2c0-4.2-3.2-5.9-6.8-3.8L154.76,127.1A14,14,0,0,0,150.66,131.1Z" transform="translate(-139.96 6.59)"/><path class="k" d="M163.46,135.8l.4,123c0,3.6,2.6,5.1,5.8,3.3l191-110.3a11.27,11.27,0,0,0,3.5-3.4,12,12,0,0,0,2.3-6.6l-.1-19.1v-18l-.1-23.5L366,18.9c0-3.6-2.6-5.1-5.8-3.3l-97.3,56.2-35.7,20.6-26.3,15.2-31.7,18.3a13.11,13.11,0,0,0-5.7,9.9Z" transform="translate(-139.96 6.59)"/><path class="e" d="M242,119.79a6.59,6.59,0,0,0,3-5.24c0-2-1.33-2.66-3-1.78l-61,35.37a6.76,6.76,0,0,0-3,5.25c0,2,1.33,2.66,3,1.77Z" transform="translate(-139.96 6.59)"/><path class="e" d="M242,141.79a6.59,6.59,0,0,0,3-5.24c0-2-1.33-2.66-3-1.78l-61,35.37a6.76,6.76,0,0,0-3,5.25c0,2,1.33,2.66,3,1.77Z" transform="translate(-139.96 6.59)"/><path class="e" d="M242,162.79a6.59,6.59,0,0,0,3-5.24c0-2-1.33-2.66-3-1.78l-61,35.37a6.76,6.76,0,0,0-3,5.25c0,2,1.33,2.66,3,1.77Z" transform="translate(-139.96 6.59)"/><path class="e" d="M242,182.79a6.59,6.59,0,0,0,3-5.24c0-2-1.33-2.66-3-1.78l-61,35.37a6.76,6.76,0,0,0-3,5.25c0,2,1.33,2.66,3,1.77Z" transform="translate(-139.96 6.59)"/><path class="e" d="M319,138.79a6.59,6.59,0,0,0,3-5.24c0-2-1.33-2.66-3-1.78l-61,35.37a6.76,6.76,0,0,0-3,5.25c0,2,1.33,2.66,3,1.77Z" transform="translate(-139.96 6.59)"/><path class="b" d="M244.36,254.4a13.5,13.5,0,0,0,3.7,6.7L295,236.3a13.71,13.71,0,0,1-2.6-6.2Z" transform="translate(-139.96 6.59)"/><path class="e" d="M319.06,159.67a7.66,7.66,0,0,0,3.37-5.87c0-2.13-1.51-3-3.37-2L181.34,231.28a7.64,7.64,0,0,0-3.38,5.87c0,2.13,1.51,3,3.38,1.95Z" transform="translate(-139.96 6.59)"/><path class="l" d="M259.84,103a3,3,0,0,1,1.41-2.54l72.5-45.26a3,3,0,0,1,4.59,2.55V99.62a3,3,0,0,1-1.42,2.56L264.42,147a3,3,0,0,1-4.58-2.55Z" transform="translate(-139.96 6.59)"/><path class="m" d="M335,54.4,448,25.9,340.46,88.4l-41.5,24-39.5-11Z" transform="translate(-139.96 6.59)"/><path class="n" d="M260,145.4v-44l39.5,11-.5,104Z" transform="translate(-139.96 6.59)"/><path class="o" d="M452.45,27.17l-2.58-1.51a2.56,2.56,0,0,0-2-.09c-1.07.45-8.44,4.62-8.44,4.62L302,109.54a10.87,10.87,0,0,0-5,7.37s-.09,1.25-.09,1.42.27,96.32.27,96.32a4.2,4.2,0,0,0,1.51,3,22.07,22.07,0,0,0,2.93,1.51Z" transform="translate(-139.96 6.59)"/><path class="p" d="M448.79,27.87h0a3.11,3.11,0,0,1,3.11-.33,3,3,0,0,1,1.29,2.83h0l.27,96.05h0a10.83,10.83,0,0,1-4.82,8.36L304.17,218.21h0a3.09,3.09,0,0,1-3.11.33,3,3,0,0,1-1.29-2.82h0l-.27-96h0a9.84,9.84,0,0,1,1.44-4.75,10,10,0,0,1,3.38-3.62Z" transform="translate(-139.96 6.59)"/><path class="q" d="M372,89.79a6.59,6.59,0,0,0,3-5.24c0-2-1.33-2.66-3-1.77l-61,35.37a6.73,6.73,0,0,0-3,5.24c0,2,1.33,2.66,3,1.77Z" transform="translate(-139.96 6.59)"/><path class="q" d="M372,102.79a6.59,6.59,0,0,0,3-5.24c0-2-1.33-2.66-3-1.77l-61,35.37a6.73,6.73,0,0,0-3,5.24c0,2,1.33,2.66,3,1.77Z" transform="translate(-139.96 6.59)"/><path class="r" d="M309.33,149.41,442.44,73.12a2.5,2.5,0,0,1,3.75,2.17v28.32a2.51,2.51,0,0,1-1.25,2.17l-133.12,76.8a2.5,2.5,0,0,1-3.75-2.17V151.58A2.51,2.51,0,0,1,309.33,149.41Z" transform="translate(-139.96 6.59)"/><path class="s" d="M413.33,133.38a3,3,0,0,1,1.49-2.6l28.54-16.49a3,3,0,0,1,4.5,2.6v9.87a3,3,0,0,1-1.49,2.59L417.84,146a3,3,0,0,1-4.51-2.59Z" transform="translate(-139.96 6.59)"/><path class="r" d="M377.07,153.22l28.54-16.5a2.5,2.5,0,0,1,3.75,2.17v9.87a2.5,2.5,0,0,1-1.24,2.16l-28.53,16.66a2.5,2.5,0,0,1-3.76-2.16v-10A2.49,2.49,0,0,1,377.07,153.22Z" transform="translate(-139.96 6.59)"/></svg>