<svg width="159" height="97" viewBox="0 0 159 97" fill="none" xmlns="http://www.w3.org/2000/svg">
  <path
    d="M39.976 87.9519C42.1718 87.9519 43.9519 86.1718 43.9519 83.976C43.9519 81.7801 42.1718 80 39.976 80C37.7801 80 36 81.7801 36 83.976C36 86.1718 37.7801 87.9519 39.976 87.9519Z"
    fill="currentColor" />
  <path
    d="M115.327 87.4036C117.522 87.4036 119.303 85.6235 119.303 83.4276C119.303 81.2318 117.522 79.4517 115.327 79.4517C113.131 79.4517 111.351 81.2318 111.351 83.4276C111.351 85.6235 113.131 87.4036 115.327 87.4036Z"
    fill="currentColor" />
  <path
    d="M137.714 47.2185C139.91 47.2185 141.69 45.4384 141.69 43.2426C141.69 41.0467 139.91 39.2666 137.714 39.2666C135.518 39.2666 133.738 41.0467 133.738 43.2426C133.738 45.4384 135.518 47.2185 137.714 47.2185Z"
    fill="currentColor" />
  <circle cx="9.51025" cy="52.7898" r="6.22476" transform="rotate(-44.9543 9.51025 52.7898)"
    fill="transparent" stroke="currentColor" />
  <line x1="16.175" y1="53.2464" x2="32.008" y2="53.5001" stroke="currentColor" />
  <path d="M71.8232 84.5671L77.5 72.5" stroke="currentColor" />
  <circle cx="69.9896" cy="88.9557" r="5.39052" transform="rotate(-16.6088 69.9896 88.9557)"
    fill="transparent" stroke="currentColor" />
  <circle cx="149.844" cy="64.8174" r="6.10746" transform="rotate(-123.447 149.844 64.8174)"
    fill="transparent" stroke="currentColor" />
  <line x1="144.271" y1="64.187" x2="127.919" y2="61.4934" stroke="currentColor" />
  <path
    d="M64.5546 29C63.5896 29 62.7622 28.3109 62.5876 27.3617L59.0617 8.18954C58.7165 6.31243 60.9461 5.06449 62.3656 6.3403L69.6269 12.8664C70.5666 13.711 72.0442 13.4834 72.6863 12.3953L78.2775 2.91932C79.0513 1.60778 80.9487 1.60778 81.7225 2.91932L87.3137 12.3953C87.9558 13.4834 89.4334 13.711 90.3731 12.8664L97.6344 6.3403C99.0539 5.06449 101.284 6.31244 100.938 8.18955L97.4124 27.3617C97.2378 28.3109 96.4104 29 95.4454 29H64.5546Z"
    fill="currentColor" />
  <path
    d="M37 33.1951H122C125.038 33.1951 127.5 35.6575 127.5 38.6951V67.0773C127.5 70.1149 125.038 72.5773 122 72.5773H37C33.9624 72.5773 31.5 70.1149 31.5 67.0773V38.6951C31.5 35.6575 33.9624 33.1951 37 33.1951Z"
    stroke="currentColor" />
  <path
    d="M76.2611 55.5208C76.4948 55.5208 76.702 55.477 76.8828 55.3893C77.0636 55.2973 77.2048 55.1702 77.3062 55.008C77.412 54.8415 77.4671 54.6465 77.4716 54.4229H79.2641C79.2597 54.9226 79.1252 55.3674 78.8607 55.7575C78.5961 56.1432 78.2411 56.4478 77.7957 56.6713C77.3503 56.8904 76.852 57 76.3007 57C75.7451 57 75.26 56.908 74.8455 56.7239C74.4354 56.5398 74.0936 56.2856 73.8202 55.9613C73.5468 55.6326 73.3418 55.2513 73.2051 54.8174C73.0684 54.3791 73 53.9102 73 53.4105V53.2199C73 52.7159 73.0684 52.2469 73.2051 51.813C73.3418 51.3747 73.5468 50.9934 73.8202 50.6691C74.0936 50.3404 74.4354 50.084 74.8455 49.8999C75.2556 49.7159 75.7363 49.6238 76.2875 49.6238C76.874 49.6238 77.3878 49.7356 77.8288 49.9591C78.2741 50.1826 78.6225 50.5026 78.8739 50.9189C79.1296 51.3309 79.2597 51.8196 79.2641 52.385H77.4716C77.4671 52.1483 77.4164 51.9335 77.3194 51.7407C77.2268 51.5478 77.0901 51.3944 76.9093 51.2805C76.7329 51.1622 76.5146 51.103 76.2544 51.103C75.9766 51.103 75.7495 51.1622 75.5731 51.2805C75.3967 51.3944 75.26 51.5522 75.163 51.7538C75.066 51.9511 74.9976 52.1768 74.958 52.431C74.9227 52.6808 74.905 52.9438 74.905 53.2199V53.4105C74.905 53.6866 74.9227 53.9518 74.958 54.206C74.9932 54.4602 75.0594 54.6859 75.1564 54.8831C75.2578 55.0804 75.3967 55.2359 75.5731 55.3499C75.7495 55.4638 75.9788 55.5208 76.2611 55.5208Z"
    fill="currentColor" />
  <path
    d="M80.0645 53.3842V53.2462C80.0645 52.7246 80.1395 52.2447 80.2894 51.8064C80.4394 51.3638 80.6577 50.9803 80.9443 50.656C81.2309 50.3316 81.5837 50.0796 82.0026 49.8999C82.4216 49.7159 82.9022 49.6238 83.4447 49.6238C83.9871 49.6238 84.4699 49.7159 84.8933 49.8999C85.3166 50.0796 85.6716 50.3316 85.9583 50.656C86.2493 50.9803 86.4698 51.3638 86.6197 51.8064C86.7697 52.2447 86.8446 52.7246 86.8446 53.2462V53.3842C86.8446 53.9014 86.7697 54.3813 86.6197 54.824C86.4698 55.2622 86.2493 55.6457 85.9583 55.9744C85.6716 56.2988 85.3188 56.5508 84.8999 56.7305C84.481 56.9102 84.0003 57 83.4579 57C82.9155 57 82.4326 56.9102 82.0093 56.7305C81.5903 56.5508 81.2353 56.2988 80.9443 55.9744C80.6577 55.6457 80.4394 55.2622 80.2894 54.824C80.1395 54.3813 80.0645 53.9014 80.0645 53.3842ZM81.9696 53.2462V53.3842C81.9696 53.6822 81.996 53.9606 82.0489 54.2191C82.1019 54.4777 82.1857 54.7056 82.3003 54.9028C82.4194 55.0957 82.5737 55.2469 82.7633 55.3565C82.953 55.466 83.1845 55.5208 83.4579 55.5208C83.7225 55.5208 83.9496 55.466 84.1392 55.3565C84.3288 55.2469 84.481 55.0957 84.5956 54.9028C84.7103 54.7056 84.7941 54.4777 84.847 54.2191C84.9043 53.9606 84.933 53.6822 84.933 53.3842V53.2462C84.933 52.9569 84.9043 52.6852 84.847 52.431C84.7941 52.1724 84.7081 51.9445 84.589 51.7473C84.4744 51.5457 84.3222 51.3879 84.1326 51.2739C83.943 51.16 83.7137 51.103 83.4447 51.103C83.1757 51.103 82.9463 51.16 82.7567 51.2739C82.5715 51.3879 82.4194 51.5457 82.3003 51.7473C82.1857 51.9445 82.1019 52.1724 82.0489 52.431C81.996 52.6852 81.9696 52.9569 81.9696 53.2462Z"
    fill="currentColor" />
  <path
    d="M89.8808 51.2739V56.8685H87.9757V49.7553H89.7617L89.8808 51.2739ZM89.603 53.0621H89.087C89.087 52.5362 89.1554 52.0628 89.2921 51.6421C89.4288 51.2169 89.6206 50.8554 89.8676 50.5573C90.1145 50.2549 90.4078 50.0248 90.7473 49.8671C91.0913 49.7049 91.4749 49.6238 91.8983 49.6238C92.2334 49.6238 92.5399 49.672 92.8177 49.7684C93.0955 49.8649 93.3337 50.0183 93.5321 50.2286C93.735 50.439 93.8893 50.7173 93.9951 51.0635C94.1054 51.4098 94.1605 51.8327 94.1605 52.3324V56.8685H92.2422V52.3258C92.2422 52.0102 92.1981 51.7648 92.11 51.5895C92.0218 51.4142 91.8917 51.2915 91.7197 51.2213C91.5521 51.1468 91.3448 51.1096 91.0979 51.1096C90.8421 51.1096 90.6194 51.16 90.4298 51.2608C90.2446 51.3616 90.0903 51.5018 89.9668 51.6815C89.8477 51.8568 89.7573 52.0628 89.6956 52.2995C89.6338 52.5362 89.603 52.7904 89.603 53.0621Z"
    fill="currentColor" />
  <path
    d="M99.115 49.7553V51.0964H94.9477V49.7553H99.115ZM95.9796 48H97.8846V54.7253C97.8846 54.9313 97.9111 55.0891 97.964 55.1987C98.0213 55.3083 98.1051 55.385 98.2153 55.4288C98.3256 55.4682 98.4645 55.4879 98.6321 55.4879C98.7511 55.4879 98.857 55.4836 98.9496 55.4748C99.0466 55.4617 99.1282 55.4485 99.1943 55.4354L99.2009 56.8291C99.0378 56.8817 98.8614 56.9233 98.6718 56.954C98.4821 56.9847 98.2727 57 98.0434 57C97.6244 57 97.2584 56.9321 96.9453 56.7962C96.6366 56.656 96.3985 56.4324 96.2309 56.1256C96.0634 55.8188 95.9796 55.4156 95.9796 54.916V48Z"
    fill="currentColor" />
  <path
    d="M103.494 57C102.938 57 102.44 56.9123 101.999 56.737C101.558 56.5573 101.183 56.3097 100.874 55.9942C100.57 55.6786 100.336 55.3126 100.173 54.8963C100.01 54.4755 99.9286 54.0285 99.9286 53.5552V53.2922C99.9286 52.7531 100.006 52.26 100.16 51.813C100.314 51.366 100.535 50.9781 100.822 50.6494C101.113 50.3207 101.465 50.0687 101.88 49.8934C102.294 49.7137 102.762 49.6238 103.282 49.6238C103.789 49.6238 104.239 49.7071 104.632 49.8736C105.024 50.0402 105.353 50.2768 105.617 50.5836C105.886 50.8904 106.089 51.2586 106.226 51.6881C106.362 52.1132 106.431 52.5866 106.431 53.1081V53.897H100.742V52.6348H104.559V52.4901C104.559 52.2272 104.51 51.9927 104.413 51.7867C104.321 51.5763 104.18 51.4098 103.99 51.2871C103.8 51.1644 103.558 51.103 103.262 51.103C103.011 51.103 102.795 51.1578 102.614 51.2673C102.433 51.3769 102.286 51.5303 102.171 51.7275C102.061 51.9248 101.977 52.157 101.92 52.4244C101.867 52.6874 101.84 52.9766 101.84 53.2922V53.5552C101.84 53.84 101.88 54.103 101.959 54.344C102.043 54.5851 102.16 54.7933 102.31 54.9686C102.464 55.1439 102.649 55.2798 102.866 55.3762C103.086 55.4726 103.335 55.5208 103.613 55.5208C103.957 55.5208 104.277 55.4551 104.572 55.3236C104.872 55.1877 105.13 54.9839 105.346 54.7122L106.272 55.7115C106.122 55.9262 105.917 56.1322 105.657 56.3294C105.401 56.5267 105.092 56.6888 104.731 56.8159C104.369 56.9386 103.957 57 103.494 57Z"
    fill="currentColor" />
  <path
    d="M109.05 49.7553L110.234 51.9182L111.451 49.7553H113.482L111.458 53.233L113.575 56.8685H111.537L110.248 54.5807L108.958 56.8685H106.92L109.037 53.233L107.013 49.7553H109.05Z"
    fill="currentColor" />
  <path
    d="M117.914 49.7553V51.0964H113.747V49.7553H117.914ZM114.779 48H116.684V54.7253C116.684 54.9313 116.71 55.0891 116.763 55.1987C116.82 55.3083 116.904 55.385 117.014 55.4288C117.125 55.4682 117.264 55.4879 117.431 55.4879C117.55 55.4879 117.656 55.4836 117.749 55.4748C117.846 55.4617 117.927 55.4485 117.993 55.4354L118 56.8291C117.837 56.8817 117.66 56.9233 117.471 56.954C117.281 56.9847 117.072 57 116.842 57C116.423 57 116.057 56.9321 115.744 56.7962C115.436 56.656 115.198 56.4324 115.03 56.1256C114.862 55.8188 114.779 55.4156 114.779 54.916V48Z"
    fill="currentColor" />
  <g clip-path="url(#clip0_2602_558)">
    <path
      d="M68.1138 54C67.9268 53.7409 67.6782 53.5324 67.3904 53.3933C67.1056 53.2634 66.7927 53.2073 66.4804 53.23C66.3902 53.2295 66.3031 53.1964 66.2354 53.1367C66.1645 53.078 66.1187 52.9946 66.1071 52.9033C66.1014 52.8568 66.1014 52.8098 66.1071 52.7633C66.1234 52.7171 66.147 52.6737 66.1771 52.635C66.2063 52.5979 66.2418 52.5663 66.2821 52.5417C66.3247 52.5364 66.3678 52.5364 66.4104 52.5417C66.9032 52.497 67.3983 52.5985 67.8338 52.8333C68.1138 51.2583 68.1954 49.3333 67.6004 48.645C67.0054 47.9567 65.3371 47.7583 63.7388 47.7817C63.8204 48.1427 63.8204 48.5173 63.7388 48.8783C63.7322 48.9244 63.7151 48.9684 63.6888 49.0069C63.6625 49.0453 63.6277 49.0772 63.5871 49.1C63.5465 49.1173 63.5029 49.1263 63.4588 49.1263C63.4147 49.1263 63.371 49.1173 63.3304 49.1C63.2884 49.1109 63.2442 49.1109 63.2021 49.1L63.1671 48.995C63.1605 48.9525 63.1605 48.9092 63.1671 48.8667C63.1553 48.8207 63.1553 48.7726 63.1671 48.7267C63.2501 48.334 63.2051 47.9252 63.0388 47.56C62.8913 47.2017 62.6339 46.8995 62.3038 46.6967C61.9738 46.4983 61.5914 46.4047 61.2071 46.4283C60.8231 46.4607 60.4575 46.607 60.1571 46.8483C59.9223 47.0565 59.7387 47.316 59.6204 47.6067C59.5025 47.8986 59.4584 48.2152 59.4921 48.5283C59.5263 48.8408 59.6342 49.1408 59.8071 49.4033C59.984 49.6584 60.2202 49.8666 60.4954 50.01C60.5625 50.064 60.6114 50.1373 60.6354 50.22C60.665 50.299 60.665 50.386 60.6354 50.465C60.6023 50.544 60.5395 50.6069 60.4604 50.64C60.3804 50.663 60.2955 50.663 60.2154 50.64C59.6264 50.3336 59.1789 49.8109 58.9671 49.1817C58.5695 49.282 58.1797 49.4107 57.8004 49.5667V43.2317C57.8007 42.7983 57.7137 42.3693 57.5448 41.9702C57.3759 41.5711 57.1284 41.2101 56.8171 40.9086C56.5058 40.6071 56.137 40.3713 55.7328 40.2152C55.3285 40.0591 54.8969 39.9859 54.4638 40H44.7688C43.9117 40 43.0897 40.3405 42.4836 40.9465C41.8776 41.5526 41.5371 42.3746 41.5371 43.2317V52.9267C41.5402 53.7828 41.8816 54.603 42.487 55.2084C43.0924 55.8138 43.9126 56.1553 44.7688 56.1583H52.4104C52.252 56.9516 52.2582 57.7689 52.4288 58.5597C52.5994 59.3504 52.9307 60.0976 53.4021 60.755C52.8992 61.3539 52.5614 62.0738 52.4221 62.8433C52.3635 63.2057 52.3874 63.5765 52.4921 63.9283C52.6042 64.2751 52.796 64.5907 53.0521 64.85C54.0554 65.9233 55.3854 65.6433 56.4821 65.4217C57.1938 65.27 57.8821 65.13 58.2904 65.4217C58.6988 65.7133 58.6754 65.8533 58.6871 65.9233C58.9204 66.9617 58.0571 67.475 57.8471 67.7317C57.8382 67.7582 57.8382 67.7868 57.8471 67.8133C57.8405 67.8441 57.8405 67.8759 57.8471 67.9067L57.9054 67.9767H57.9871C58.4745 67.9674 58.9455 67.7995 59.3288 67.4983C59.5847 67.276 59.7778 66.9904 59.8888 66.67C59.9935 66.3503 60.0175 66.0096 59.9588 65.6783V65.5033C59.891 65.2449 59.7725 65.0025 59.6103 64.7902C59.4481 64.578 59.2453 64.4 59.0138 64.2667C58.5729 64.053 58.0931 63.9314 57.6037 63.9093C57.1142 63.8872 56.6254 63.9652 56.1671 64.1383C55.0938 64.3483 54.4171 64.4533 53.9388 63.94C53.8316 63.8247 53.7554 63.6843 53.7171 63.5317C53.6765 63.3788 53.6765 63.2179 53.7171 63.065C53.814 62.5786 54.026 62.1226 54.3354 61.735C56.6688 63.6483 60.6121 63.24 63.4121 60.6967C64.4292 59.8424 65.229 58.7588 65.7454 57.535C65.4038 57.4027 65.0937 57.1999 64.8354 56.94C64.5782 56.675 64.383 56.3562 64.2638 56.0067C64.2524 55.9607 64.2524 55.9126 64.2638 55.8667C64.2533 55.8206 64.2533 55.7727 64.2638 55.7267C64.28 55.6811 64.3082 55.6408 64.3454 55.61L64.4621 55.54H64.6021H64.7304C64.7742 55.5645 64.8136 55.596 64.8471 55.6333C64.8755 55.6689 64.8991 55.7082 64.9171 55.75C64.9919 55.9701 65.1111 56.1726 65.2671 56.345C65.4739 56.5821 65.7379 56.7623 66.034 56.8685C66.3301 56.9746 66.6485 57.0033 66.9588 56.9517C67.2697 56.8943 67.562 56.7622 67.8104 56.5667C68.0546 56.3645 68.2434 56.1036 68.3588 55.8083C68.475 55.5109 68.5135 55.1888 68.4706 54.8724C68.4278 54.556 68.3049 54.2557 68.1138 54ZM66.2821 49.1817C66.3974 49.1107 66.5321 49.0781 66.6671 49.0883C66.7955 49.0974 66.9179 49.1464 67.0171 49.2283C67.0793 49.3382 67.1077 49.464 67.0988 49.59C67.0872 49.7108 67.0383 49.825 66.9588 49.9167C66.8188 50.045 66.6554 49.8583 66.5038 49.695C66.3521 49.5317 66.1421 49.3333 66.2821 49.1817ZM44.7688 55.0733C44.1984 55.0733 43.6511 54.8475 43.2467 54.4453C42.8423 54.0431 42.6135 53.4971 42.6104 52.9267V43.2317C42.6104 42.6592 42.8378 42.1103 43.2426 41.7055C43.6474 41.3007 44.1964 41.0733 44.7688 41.0733H54.4638C54.7467 41.0733 55.0268 41.1292 55.288 41.2378C55.5492 41.3465 55.7863 41.5056 55.9858 41.7062C56.1853 41.9068 56.3432 42.1448 56.4504 42.4066C56.5576 42.6684 56.612 42.9488 56.6104 43.2317V50.2317C54.7866 51.3535 53.3966 53.0602 52.6671 55.0733H44.7688Z"
      fill="currentColor" />
    <path
      d="M53.6116 45.3317H54.7782C55.0557 45.3357 55.3237 45.2311 55.5249 45.04C55.627 44.9447 55.7079 44.829 55.7622 44.7003C55.8164 44.5716 55.8429 44.4329 55.8399 44.2933C55.8413 44.1557 55.814 44.0192 55.7598 43.8927C55.7055 43.7661 55.6256 43.6523 55.5249 43.5583C55.3249 43.3641 55.0571 43.2553 54.7782 43.255H50.6832V42.87C50.6819 42.7277 50.6499 42.5874 50.5895 42.4586C50.5291 42.3297 50.4417 42.2154 50.3332 42.1233C50.132 41.9323 49.864 41.8276 49.5866 41.8317C49.3091 41.8276 49.0411 41.9323 48.8399 42.1233C48.7378 42.2186 48.6569 42.3343 48.6027 42.463C48.5484 42.5917 48.5219 42.7304 48.5249 42.87V43.255H44.4299C44.2916 43.2539 44.1544 43.2801 44.0263 43.3322C43.8982 43.3842 43.7816 43.4611 43.6832 43.5583C43.5762 43.6491 43.4897 43.7616 43.4293 43.8883C43.369 44.015 43.3363 44.153 43.3332 44.2933C43.3302 44.4329 43.3567 44.5716 43.411 44.7003C43.4653 44.829 43.5461 44.9447 43.6482 45.04C43.7472 45.1357 43.8641 45.2107 43.9923 45.2608C44.1205 45.3109 44.2573 45.3349 44.3949 45.3317H51.3949C51.1946 45.8254 50.9607 46.3049 50.6949 46.7667C50.3875 47.2608 50.0403 47.7291 49.6566 48.1667C49.4699 47.9567 49.2832 47.7583 49.1316 47.56C48.9081 47.2673 48.7053 46.9594 48.5249 46.6383C48.4204 46.473 48.2759 46.3366 48.1049 46.2417C47.9385 46.1425 47.7501 46.0864 47.5566 46.0783C47.3794 46.0661 47.2021 46.1007 47.0424 46.1785C46.8827 46.2563 46.7462 46.3746 46.6466 46.5217C46.5517 46.6675 46.5012 46.8377 46.5012 47.0117C46.5012 47.1856 46.5517 47.3558 46.6466 47.5017C46.8804 47.9078 47.1416 48.2976 47.4282 48.6683C47.6616 48.9717 47.9182 49.2633 48.1749 49.5667L45.1766 52.565C45.0775 52.6595 44.9993 52.7737 44.947 52.9003C44.8948 53.0269 44.8696 53.1631 44.8732 53.3C44.8681 53.4371 44.8926 53.5737 44.9449 53.7005C44.9973 53.8273 45.0763 53.9414 45.1766 54.035C45.2733 54.1303 45.3883 54.2052 45.5145 54.2553C45.6408 54.3054 45.7758 54.3297 45.9116 54.3267C46.0514 54.3241 46.1894 54.2939 46.3175 54.2378C46.4456 54.1818 46.5614 54.1009 46.6582 54L49.6216 51.1767L51.5932 53.055L51.8966 53.3233L52.0949 52.985C52.289 52.6529 52.5199 52.3437 52.7832 52.0633L52.9816 51.8417L52.7832 51.6667L51.1149 49.7183C51.711 49.0844 52.2317 48.3837 52.6666 47.63C53.0548 46.8961 53.3713 46.1264 53.6116 45.3317Z"
      fill="currentColor" />
  </g>
  <defs>
    <clipPath id="clip0_2602_558">
      <rect width="28" height="28" fill="transparent" transform="translate(41 40)" />
    </clipPath>
  </defs>
</svg>
  