<svg width="127" height="94" viewBox="0 0 127 94" fill="none" xmlns="http://www.w3.org/2000/svg">
  <path fill-rule="evenodd" clip-rule="evenodd" d="M26.316 33.4681C31.2961 33.4681 35.3333 29.4564 35.3333 24.5077C35.3333 19.5591 31.2961 15.5474 26.316 15.5474C21.3358 15.5474 17.2986 19.5591 17.2986 24.5077C17.2986 29.4564 21.3358 33.4681 26.316 33.4681ZM28.3716 20.1075C28.6433 20.5115 28.7883 20.9865 28.7883 21.4724C28.7883 22.124 28.5278 22.749 28.0641 23.2097C27.6004 23.6705 26.9715 23.9293 26.3158 23.9293C25.8268 23.9293 25.3487 23.7852 24.9421 23.5153C24.5355 23.2453 24.2186 22.8616 24.0315 22.4126C23.8444 21.9637 23.7954 21.4697 23.8908 20.9931C23.9862 20.5165 24.2217 20.0788 24.5675 19.7352C24.9132 19.3916 25.3538 19.1576 25.8334 19.0628C26.313 18.968 26.8102 19.0166 27.262 19.2026C27.7137 19.3885 28.0999 19.7034 28.3716 20.1075ZM21.3708 28.8431V27.6146C21.3708 25.9808 24.6654 25.1577 26.3158 25.1577C27.9662 25.1577 31.2608 25.9808 31.2608 27.6146V28.8431H21.3708Z" fill="currentColor" />
  <path fill-rule="evenodd" clip-rule="evenodd" d="M113.747 41.6819C120.742 41.6819 126.412 36.0474 126.412 29.0969C126.412 22.1465 120.742 16.512 113.747 16.512C106.753 16.512 101.082 22.1465 101.082 29.0969C101.082 36.0474 106.753 41.6819 113.747 41.6819ZM116.635 22.9172C117.016 23.4846 117.22 24.1518 117.22 24.8343C117.22 25.7495 116.854 26.6272 116.203 27.2743C115.551 27.9214 114.668 28.285 113.747 28.285C113.06 28.285 112.389 28.0826 111.818 27.7034C111.247 27.3243 110.802 26.7853 110.539 26.1548C110.276 25.5243 110.207 24.8304 110.341 24.1611C110.475 23.4917 110.806 22.8768 111.292 22.3942C111.777 21.9116 112.396 21.583 113.07 21.4499C113.743 21.3167 114.442 21.385 115.076 21.6462C115.711 21.9074 116.253 22.3497 116.635 22.9172ZM106.802 35.1864V33.4611C106.802 31.1663 111.429 30.0104 113.747 30.0104C116.065 30.0104 120.692 31.1663 120.692 33.4611V35.1864H106.802Z" fill="currentColor" />
  <path fill-rule="evenodd" clip-rule="evenodd" d="M51.3434 81.1647C60.4609 81.1647 67.8521 73.8202 67.8521 64.7603C67.8521 55.7004 60.4609 48.356 51.3434 48.356C42.2259 48.356 34.8348 55.7004 34.8348 64.7603C34.8348 73.8202 42.2259 81.1647 51.3434 81.1647ZM55.1069 56.704C55.6043 57.4437 55.8698 58.3133 55.8698 59.2029C55.8698 60.3959 55.3928 61.54 54.544 62.3835C53.6951 63.227 52.5437 63.7009 51.3432 63.7009C50.4479 63.7009 49.5728 63.4371 48.8284 62.9429C48.084 62.4486 47.5038 61.7461 47.1612 60.9242C46.8186 60.1023 46.7289 59.1979 46.9036 58.3254C47.0783 57.4529 47.5094 56.6514 48.1424 56.0224C48.7755 55.3933 49.582 54.9649 50.4601 54.7914C51.3382 54.6178 52.2483 54.7069 53.0754 55.0474C53.9026 55.3878 54.6095 55.9643 55.1069 56.704ZM42.2901 72.6969V70.4479C42.2901 67.4567 48.3217 65.9499 51.3432 65.9499C54.3647 65.9499 60.3963 67.4567 60.3963 70.4479V72.6969H42.2901Z" fill="currentColor" />
  <path d="M116.973 13.6003C101.569 -7.12956 51.4604 2.76023 35.4002 16.2242" stroke="currentColor" stroke-linecap="round" stroke-dasharray="3 3" />
  <path d="M33.3734 73.9272C-1.64318 71.6956 5.12075 42.0834 15.8373 30.9866" stroke="currentColor" stroke-linecap="round" stroke-dasharray="3 3" />
  <path d="M111.046 44.9378C104.384 56.1818 80.2383 69.3672 69.907 71.2589" stroke="currentColor" stroke-linecap="round" stroke-dasharray="3 3" />
  <path d="M65.0358 81.8391C61.3054 85.8539 52.4741 88.947 43.6028 85.0318" stroke="currentColor" stroke-linecap="round" />
  <path d="M37.7575 46.7239C41.4879 42.7091 50.3192 39.616 59.1905 43.5312" stroke="currentColor" stroke-linecap="round" />
</svg>
  