<svg width="140" height="70" viewBox="0 0 140 70" fill="none" xmlns="http://www.w3.org/2000/svg">
  <path d="M38.6369 19.2482L53.1633 29.192L44.5795 29.5744L39.9575 36.841L38.6369 19.2482Z" fill="currentColor" />
  <path d="M63.3815 26.1697C63.3815 23.1321 65.8439 20.6697 68.8815 20.6697H134C137.038 20.6697 139.5 23.1321 139.5 26.1697V64.0002C139.5 67.0378 137.038 69.5002 134 69.5002H68.8815C65.8439 69.5002 63.3815 67.0378 63.3815 64.0002V26.1697Z" stroke="currentColor" />
  <path d="M0 10.1068V8.03559C0.276142 8.03559 0.5 7.81173 0.5 7.53559V5.99999C0.5 5.63204 0.536064 5.27299 0.604698 4.92606C0.656926 4.66206 0.490943 4.40551 0.231723 4.34302C0.357711 3.90362 0.53255 3.48487 0.749985 3.09302C0.9775 3.2322 1.27635 3.16813 1.42609 2.94446C1.82778 2.34446 2.34447 1.82778 2.94447 1.42609C3.16814 1.27635 3.2322 0.977499 3.09302 0.749985C3.48487 0.53255 3.90362 0.357711 4.34303 0.231723C4.40551 0.490943 4.66206 0.656926 4.92606 0.604698C5.273 0.536064 5.63204 0.5 6 0.5H7.47882C7.75496 0.5 7.97882 0.276142 7.97882 0H9.93645C9.93645 0.276142 10.1603 0.5 10.4364 0.5H13.3941C13.6702 0.5 13.8941 0.276142 13.8941 0H15.8517C15.8517 0.276142 16.0756 0.5 16.3517 0.5H19.3093C19.5855 0.5 19.8093 0.276142 19.8093 0H21.767C21.767 0.276142 21.9908 0.5 22.267 0.5H25.2246C25.5007 0.5 25.7246 0.276142 25.7246 0H27.6822C27.6822 0.276142 27.9061 0.5 28.1822 0.5H31.1398C31.416 0.5 31.6398 0.276142 31.6398 0H33.5975C33.5975 0.276142 33.8213 0.5 34.0975 0.5H37.0551C37.3312 0.5 37.5551 0.276142 37.5551 0H39.5127C39.5127 0.276142 39.7366 0.5 40.0127 0.5H42.9703C43.2465 0.5 43.4703 0.276142 43.4703 0H45.428C45.428 0.276142 45.6518 0.5 45.928 0.5H48.8856C49.1617 0.5 49.3856 0.276142 49.3856 0H51.3432C51.3432 0.276142 51.5671 0.5 51.8432 0.5H53.322C53.69 0.5 54.049 0.536064 54.396 0.604698C54.66 0.656926 54.9165 0.490944 54.979 0.231724C55.4184 0.357714 55.8372 0.532549 56.229 0.749987C56.0898 0.977502 56.1539 1.27635 56.3776 1.42609C56.9776 1.82778 57.4943 2.34447 57.8959 2.94447C58.0457 3.16813 58.3445 3.2322 58.572 3.09302C58.7895 3.48487 58.9643 3.90362 59.0903 4.34303C58.8311 4.40551 58.6651 4.66206 58.7173 4.92606C58.786 5.273 58.822 5.63204 58.822 6V7.53559C58.822 7.81173 59.0459 8.03559 59.322 8.03559V10.1068C59.0459 10.1068 58.822 10.3306 58.822 10.6068V13.678C58.822 13.9541 59.0459 14.178 59.322 14.178V16.2492C59.0459 16.2492 58.822 16.473 58.822 16.7492V19.8203C58.822 20.0965 59.0459 20.3203 59.322 20.3203V22.3915C59.0459 22.3915 58.822 22.6154 58.822 22.8915V25.9627C58.822 26.2389 59.0459 26.4627 59.322 26.4627V28.5339C59.0459 28.5339 58.822 28.7578 58.822 29.0339V32.1051C58.822 32.3812 59.0459 32.6051 59.322 32.6051V34.6763C59.0459 34.6763 58.822 34.9001 58.822 35.1763V36.7119C58.822 37.0798 58.786 37.4389 58.7173 37.7858C58.6651 38.0498 58.8311 38.3064 59.0903 38.3688C58.9643 38.8083 58.7895 39.227 58.572 39.6189C58.3445 39.4797 58.0457 39.5437 57.8959 39.7674C57.4943 40.3674 56.9776 40.8841 56.3776 41.2858C56.1539 41.4355 56.0898 41.7344 56.229 41.9619C55.8372 42.1793 55.4184 42.3542 54.979 42.4801C54.9165 42.2209 54.66 42.0549 54.396 42.1072C54.049 42.1758 53.69 42.2119 53.322 42.2119H51.8432C51.5671 42.2119 51.3432 42.4357 51.3432 42.7119H49.3856C49.3856 42.4357 49.1617 42.2119 48.8856 42.2119H45.928C45.6518 42.2119 45.428 42.4357 45.428 42.7119H43.4703C43.4703 42.4357 43.2465 42.2119 42.9703 42.2119H40.0127C39.7366 42.2119 39.5127 42.4357 39.5127 42.7119H37.5551C37.5551 42.4357 37.3312 42.2119 37.0551 42.2119H34.0975C33.8213 42.2119 33.5975 42.4357 33.5975 42.7119H31.6398C31.6398 42.4357 31.416 42.2119 31.1398 42.2119H28.1822C27.9061 42.2119 27.6822 42.4357 27.6822 42.7119H25.7246C25.7246 42.4357 25.5007 42.2119 25.2246 42.2119H22.267C21.9908 42.2119 21.767 42.4357 21.767 42.7119H19.8093C19.8093 42.4357 19.5855 42.2119 19.3093 42.2119H16.3517C16.0756 42.2119 15.8517 42.4357 15.8517 42.7119H13.8941C13.8941 42.4357 13.6702 42.2119 13.3941 42.2119H10.4364C10.1603 42.2119 9.93644 42.4357 9.93644 42.7119H7.97882C7.97882 42.4357 7.75496 42.2119 7.47882 42.2119H6C5.63204 42.2119 5.273 42.1758 4.92606 42.1072C4.66206 42.0549 4.40551 42.2209 4.34303 42.4801C3.90362 42.3542 3.48488 42.1793 3.09302 41.9619C3.2322 41.7344 3.16814 41.4355 2.94447 41.2858C2.34447 40.8841 1.82778 40.3674 1.42609 39.7674C1.27635 39.5437 0.977502 39.4797 0.749988 39.6188C0.532549 39.227 0.357715 38.8082 0.231725 38.3688C0.490945 38.3064 0.656926 38.0498 0.604698 37.7858C0.536064 37.4389 0.5 37.0798 0.5 36.7119V35.1763C0.5 34.9001 0.276142 34.6763 0 34.6763V32.6051C0.276142 32.6051 0.5 32.3812 0.5 32.1051V29.0339C0.5 28.7578 0.276142 28.5339 0 28.5339V26.4627C0.276142 26.4627 0.5 26.2389 0.5 25.9627V22.8915C0.5 22.6154 0.276142 22.3915 0 22.3915V20.3203C0.276142 20.3203 0.5 20.0965 0.5 19.8203V16.7491C0.5 16.473 0.276142 16.2491 0 16.2491V14.178C0.276142 14.178 0.5 13.9541 0.5 13.678V10.6068C0.5 10.3306 0.276142 10.1068 0 10.1068Z" stroke="currentColor" stroke-linecap="round" stroke-linejoin="round" stroke-dasharray="3 3" />
  <rect x="-0.5" y="0.5" width="63.2686" height="10.0928" rx="5.0464" transform="matrix(-1 0 0 1 132.501 39.2817)" stroke="currentColor" />
  <rect x="-0.5" y="0.5" width="63.2686" height="10.0928" rx="5.0464" transform="matrix(-1 0 0 1 132.501 25.6289)" stroke="currentColor" />
  <rect width="27.2922" height="10.2395" rx="5.11975" transform="matrix(-1 0 0 1 133.501 52.9346)" fill="currentColor" />
  <path d="M10.0281 10.3819C10.0281 12.7399 12.0661 14.0631 9.4616 14.0631C6.85709 14.0631 4.74573 12.1516 4.74573 9.79365C4.74573 7.43568 6.85709 5.52417 9.4616 5.52417C13.5496 5.96579 12.2291 10.8236 10.0281 10.3819Z" fill="currentColor" />
  <path d="M16.4004 6.05811H17.2754L18.9199 10.4448L20.5605 6.05811H21.4355L19.2637 11.7456H18.5684L16.4004 6.05811ZM16.002 6.05811H16.834L16.9785 9.85498V11.7456H16.002V6.05811ZM21.002 6.05811H21.8379V11.7456H20.8574V9.85498L21.002 6.05811ZM24.1348 11.2847L25.2832 7.51904H26.291L24.5957 12.3901C24.5566 12.4943 24.5059 12.6076 24.4434 12.73C24.3809 12.8524 24.2988 12.9683 24.1973 13.0776C24.0983 13.1896 23.9746 13.2795 23.8262 13.3472C23.6777 13.4175 23.498 13.4526 23.2871 13.4526C23.2038 13.4526 23.123 13.4448 23.0449 13.4292C22.9694 13.4162 22.8978 13.4019 22.8301 13.3862L22.8262 12.6675C22.8522 12.6701 22.8835 12.6727 22.9199 12.6753C22.959 12.6779 22.9902 12.6792 23.0137 12.6792C23.1699 12.6792 23.3001 12.6597 23.4043 12.6206C23.5085 12.5841 23.5931 12.5243 23.6582 12.4409C23.7259 12.3576 23.7832 12.2456 23.8301 12.105L24.1348 11.2847ZM23.4863 7.51904L24.4902 10.6831L24.6582 11.6753L24.0059 11.8433L22.4707 7.51904H23.4863ZM31.2051 10.8979V8.88232C31.2051 8.73128 31.1777 8.60107 31.123 8.4917C31.0684 8.38232 30.985 8.29769 30.873 8.23779C30.7637 8.1779 30.6257 8.14795 30.459 8.14795C30.3053 8.14795 30.1725 8.17399 30.0605 8.22607C29.9486 8.27816 29.8613 8.34847 29.7988 8.43701C29.7363 8.52555 29.7051 8.62581 29.7051 8.73779H28.7676C28.7676 8.57113 28.8079 8.40967 28.8887 8.25342C28.9694 8.09717 29.0866 7.95785 29.2402 7.83545C29.3939 7.71305 29.5775 7.6167 29.791 7.54639C30.0046 7.47607 30.2441 7.44092 30.5098 7.44092C30.8275 7.44092 31.1087 7.4943 31.3535 7.60107C31.6009 7.70785 31.7949 7.8693 31.9355 8.08545C32.0788 8.29899 32.1504 8.56722 32.1504 8.89014V10.769C32.1504 10.9618 32.1634 11.1349 32.1895 11.2886C32.2181 11.4396 32.2585 11.5711 32.3105 11.6831V11.7456H31.3457C31.3014 11.644 31.2663 11.5151 31.2402 11.3589C31.2168 11.2 31.2051 11.0464 31.2051 10.8979ZM31.3418 9.17529L31.3496 9.75732H30.6738C30.4993 9.75732 30.3457 9.77425 30.2129 9.80811C30.0801 9.83936 29.9694 9.88623 29.8809 9.94873C29.7923 10.0112 29.7259 10.0868 29.6816 10.1753C29.6374 10.2638 29.6152 10.3641 29.6152 10.4761C29.6152 10.5881 29.6413 10.6909 29.6934 10.7847C29.7454 10.8758 29.821 10.9474 29.9199 10.9995C30.0215 11.0516 30.1439 11.0776 30.2871 11.0776C30.4798 11.0776 30.6478 11.0386 30.791 10.9604C30.9368 10.8797 31.0514 10.7821 31.1348 10.6675C31.2181 10.5503 31.2624 10.4396 31.2676 10.3354L31.5723 10.7534C31.541 10.8602 31.4876 10.9748 31.4121 11.0972C31.3366 11.2196 31.2376 11.3368 31.1152 11.4487C30.9954 11.5581 30.8509 11.6479 30.6816 11.7183C30.515 11.7886 30.3223 11.8237 30.1035 11.8237C29.8275 11.8237 29.5814 11.769 29.3652 11.6597C29.1491 11.5477 28.9798 11.3979 28.8574 11.2104C28.735 11.0203 28.6738 10.8055 28.6738 10.5659C28.6738 10.342 28.7155 10.144 28.7988 9.97217C28.8848 9.79769 29.0098 9.65186 29.1738 9.53467C29.3405 9.41748 29.5436 9.32894 29.7832 9.26904C30.0228 9.20654 30.2962 9.17529 30.6035 9.17529H31.3418ZM34.0801 8.33154V13.3706H33.1387V7.51904H34.0059L34.0801 8.33154ZM36.834 9.59326V9.67529C36.834 9.98258 36.7975 10.2677 36.7246 10.5308C36.6543 10.7912 36.5488 11.019 36.4082 11.2144C36.2702 11.4071 36.0996 11.5568 35.8965 11.6636C35.6934 11.7703 35.459 11.8237 35.1934 11.8237C34.9303 11.8237 34.6999 11.7756 34.502 11.6792C34.3066 11.5802 34.1413 11.4409 34.0059 11.2612C33.8704 11.0815 33.7611 10.8706 33.6777 10.6284C33.597 10.3836 33.5397 10.1154 33.5059 9.82373V9.50732C33.5397 9.19743 33.597 8.91618 33.6777 8.66357C33.7611 8.41097 33.8704 8.19352 34.0059 8.01123C34.1413 7.82894 34.3066 7.68831 34.502 7.58936C34.6973 7.4904 34.9251 7.44092 35.1855 7.44092C35.4512 7.44092 35.6868 7.493 35.8926 7.59717C36.0983 7.69873 36.2715 7.84456 36.4121 8.03467C36.5527 8.22217 36.6582 8.44873 36.7285 8.71436C36.7988 8.97738 36.834 9.27035 36.834 9.59326ZM35.8926 9.67529V9.59326C35.8926 9.39795 35.8743 9.21696 35.8379 9.05029C35.8014 8.88102 35.7441 8.73258 35.666 8.60498C35.5879 8.47738 35.4876 8.37842 35.3652 8.30811C35.2454 8.23519 35.1009 8.19873 34.9316 8.19873C34.765 8.19873 34.6217 8.22738 34.502 8.28467C34.3822 8.33936 34.2819 8.41618 34.2012 8.51514C34.1204 8.6141 34.0579 8.72998 34.0137 8.86279C33.9694 8.993 33.9382 9.13493 33.9199 9.28857V10.0464C33.9512 10.2339 34.0046 10.4058 34.0801 10.562C34.1556 10.7183 34.2624 10.8433 34.4004 10.937C34.541 11.0282 34.7207 11.0737 34.9395 11.0737C35.1087 11.0737 35.2533 11.0373 35.373 10.9644C35.4928 10.8914 35.5905 10.7912 35.666 10.6636C35.7441 10.5334 35.8014 10.3836 35.8379 10.2144C35.8743 10.0451 35.8926 9.8654 35.8926 9.67529ZM38.5801 8.33154V13.3706H37.6387V7.51904H38.5059L38.5801 8.33154ZM41.334 9.59326V9.67529C41.334 9.98258 41.2975 10.2677 41.2246 10.5308C41.1543 10.7912 41.0488 11.019 40.9082 11.2144C40.7702 11.4071 40.5996 11.5568 40.3965 11.6636C40.1934 11.7703 39.959 11.8237 39.6934 11.8237C39.4303 11.8237 39.1999 11.7756 39.002 11.6792C38.8066 11.5802 38.6413 11.4409 38.5059 11.2612C38.3704 11.0815 38.2611 10.8706 38.1777 10.6284C38.097 10.3836 38.0397 10.1154 38.0059 9.82373V9.50732C38.0397 9.19743 38.097 8.91618 38.1777 8.66357C38.2611 8.41097 38.3704 8.19352 38.5059 8.01123C38.6413 7.82894 38.8066 7.68831 39.002 7.58936C39.1973 7.4904 39.4251 7.44092 39.6855 7.44092C39.9512 7.44092 40.1868 7.493 40.3926 7.59717C40.5983 7.69873 40.7715 7.84456 40.9121 8.03467C41.0527 8.22217 41.1582 8.44873 41.2285 8.71436C41.2988 8.97738 41.334 9.27035 41.334 9.59326ZM40.3926 9.67529V9.59326C40.3926 9.39795 40.3743 9.21696 40.3379 9.05029C40.3014 8.88102 40.2441 8.73258 40.166 8.60498C40.0879 8.47738 39.9876 8.37842 39.8652 8.30811C39.7454 8.23519 39.6009 8.19873 39.4316 8.19873C39.265 8.19873 39.1217 8.22738 39.002 8.28467C38.8822 8.33936 38.7819 8.41618 38.7012 8.51514C38.6204 8.6141 38.5579 8.72998 38.5137 8.86279C38.4694 8.993 38.4382 9.13493 38.4199 9.28857V10.0464C38.4512 10.2339 38.5046 10.4058 38.5801 10.562C38.6556 10.7183 38.7624 10.8433 38.9004 10.937C39.041 11.0282 39.2207 11.0737 39.4395 11.0737C39.6087 11.0737 39.7533 11.0373 39.873 10.9644C39.9928 10.8914 40.0905 10.7912 40.166 10.6636C40.2441 10.5334 40.3014 10.3836 40.3379 10.2144C40.3743 10.0451 40.3926 9.8654 40.3926 9.67529Z" fill="currentColor" />
</svg>
  