<svg width="163" height="86" viewBox="0 0 163 86" fill="none" xmlns="http://www.w3.org/2000/svg">
  <g clip-path="currentColor">
    <path d="M23.0503 35.7382H12.8139L11.5251 31.8911C11.4887 31.7823 11.4177 31.6885 11.3232 31.6239C11.2286 31.5594 11.1155 31.5277 11.0013 31.5337H2.09548C1.53972 31.5337 1.00673 31.7552 0.613752 32.1494C0.220773 32.5437 0 33.0784 0 33.6359L0 50.4538C0 51.0114 0.220773 51.5461 0.613752 51.9403C1.00673 52.3346 1.53972 52.5561 2.09548 52.5561H12.2062L13.6206 56.4242C13.6589 56.5238 13.7266 56.6093 13.8145 56.6694C13.9025 56.7295 14.0066 56.7613 14.1131 56.7605H23.0503C23.606 56.7605 24.139 56.5391 24.532 56.1448C24.925 55.7506 25.1458 55.2159 25.1458 54.6583V37.8404C25.1458 37.2828 24.925 36.7481 24.532 36.3539C24.139 35.9596 23.606 35.7382 23.0503 35.7382ZM7.85805 47.3005C7.09802 47.3013 6.34907 47.1177 5.675 46.7655C5.00094 46.4132 4.42175 45.9027 3.98679 45.2774C3.55183 44.6521 3.27399 43.9306 3.17694 43.1744C3.07989 42.4182 3.16652 41.6496 3.42943 40.9342C3.69234 40.2188 4.12375 39.5777 4.6869 39.0657C5.25004 38.5536 5.92823 38.1858 6.66368 37.9934C7.39912 37.801 8.17002 37.7899 8.91068 37.9609C9.65135 38.1319 10.3398 38.48 10.9174 38.9756C10.9697 39.0205 11.0127 39.0752 11.0439 39.1367C11.0751 39.1983 11.0939 39.2653 11.0992 39.3341C11.1046 39.403 11.0964 39.4722 11.0751 39.5378C11.0538 39.6034 11.0198 39.6642 10.9751 39.7166C10.9304 39.7691 10.8758 39.8122 10.8145 39.8435C10.7531 39.8748 10.6863 39.8937 10.6177 39.899C10.5491 39.9044 10.4801 39.8962 10.4147 39.8748C10.3493 39.8534 10.2887 39.8193 10.2364 39.7745C9.61152 39.2529 8.8316 38.9545 8.01922 38.926C7.20684 38.8975 6.40806 39.1406 5.7484 39.6171C5.08874 40.0936 4.60559 40.7765 4.37488 41.5585C4.14417 42.3405 4.17898 43.1772 4.47383 43.9371C4.76869 44.6971 5.30687 45.3372 6.00382 45.7569C6.70076 46.1766 7.51696 46.3521 8.32414 46.2558C9.13133 46.1596 9.88375 45.7969 10.4632 45.225C11.0426 44.653 11.4161 43.9041 11.5251 43.096H7.85805C7.71911 43.096 7.58586 43.0406 7.48762 42.9421C7.38937 42.8435 7.33418 42.7098 7.33418 42.5704C7.33418 42.431 7.38937 42.2974 7.48762 42.1988C7.58586 42.1002 7.71911 42.0449 7.85805 42.0449H12.049C12.1879 42.0449 12.3212 42.1002 12.4194 42.1988C12.5177 42.2974 12.5729 42.431 12.5729 42.5704C12.5729 43.8249 12.0761 45.028 11.1919 45.9151C10.3077 46.8021 9.1085 47.3005 7.85805 47.3005ZM20.3262 43.096C19.8754 44.3506 19.2165 45.5198 18.3774 46.5542C17.9343 46.0896 17.5571 45.5662 17.2563 44.9985C17.2035 44.8689 17.1015 44.7656 16.9728 44.7114C16.8441 44.6572 16.6992 44.6565 16.57 44.7095C16.4408 44.7624 16.3378 44.8647 16.2838 44.9938C16.2298 45.123 16.2291 45.2683 16.2819 45.3979C16.653 46.1176 17.1259 46.7796 17.6858 47.3635C17.4699 47.5921 17.2426 47.8096 17.0048 48.0152L15.318 43.096H20.3262ZM24.098 54.6583C24.098 54.9371 23.9876 55.2044 23.7911 55.4016C23.5947 55.5987 23.3282 55.7094 23.0503 55.7094H15.297L18.1992 52.3774C18.2576 52.3089 18.297 52.2263 18.3135 52.1377C18.3301 52.0492 18.3232 51.9579 18.2935 51.8728L17.3401 49.0769C17.7111 48.7905 18.0613 48.4779 18.3878 48.1414C19.4356 49.1925 20.41 50.149 20.609 50.3277C20.7119 50.4225 20.848 50.4724 20.9875 50.4665C21.127 50.4606 21.2585 50.3993 21.3529 50.2962C21.4474 50.193 21.4972 50.0564 21.4913 49.9165C21.4854 49.7765 21.4243 49.6446 21.3215 49.5499C20.8291 49.0979 19.928 48.236 19.0898 47.3425C20.1382 46.1116 20.9292 44.6818 21.4158 43.138H22.5264C22.6653 43.138 22.7986 43.0827 22.8968 42.9841C22.9951 42.8855 23.0503 42.7519 23.0503 42.6125C23.0503 42.4731 22.9951 42.3394 22.8968 42.2408C22.7986 42.1423 22.6653 42.0869 22.5264 42.0869H18.8593V41.5193C18.8593 41.3799 18.8041 41.2462 18.7059 41.1477C18.6076 41.0491 18.4744 40.9938 18.3354 40.9938C18.1965 40.9938 18.0633 41.0491 17.965 41.1477C17.8668 41.2462 17.8116 41.3799 17.8116 41.5193V42.0449H15.1922C15.1197 42.0289 15.0447 42.0289 14.9722 42.0449L13.1701 36.7893H23.0503C23.3282 36.7893 23.5947 36.9 23.7911 37.0971C23.9876 37.2943 24.098 37.5616 24.098 37.8404V54.6583Z" fill="currentColor" />
  </g>
  <path d="M118.77 5.40962L109.756 0.249577C109.147 -0.0833302 108.373 -0.0833302 107.765 0.249577L98.7497 5.40962C98.1413 5.74252 97.7542 6.40833 97.7542 7.12963V17.6717C97.7542 18.3929 98.1413 19.0588 98.7497 19.3917L114.291 28.3801V21.9994L118.77 19.3917C119.379 19.0588 119.766 18.3929 119.766 17.6717V7.12963C119.821 6.40833 119.379 5.74252 118.77 5.40962ZM107.377 17.0058C107.377 18.06 106.548 18.8923 105.497 18.8923C104.446 18.8923 103.617 18.06 103.617 17.0058C103.617 15.9516 104.446 15.1194 105.497 15.1194C105.995 15.1194 106.382 15.2858 106.714 15.5632L110.032 13.6768C110.198 14.0652 110.419 14.4536 110.64 14.7865L107.322 16.6729C107.377 16.7839 107.377 16.8949 107.377 17.0058ZM113.129 14.509C112.078 14.509 111.249 13.6768 111.249 12.6226C111.249 12.5116 111.249 12.4006 111.304 12.2897L106.769 9.68191C106.437 9.95933 105.995 10.1258 105.552 10.1258C104.501 10.1258 103.672 9.29352 103.672 8.23932C103.672 7.18511 104.501 6.35285 105.552 6.35285C106.603 6.35285 107.433 7.18511 107.433 8.23932C107.433 8.35028 107.433 8.46125 107.377 8.57222L111.912 11.18C112.244 10.9026 112.687 10.6806 113.185 10.6806C114.235 10.6806 115.065 11.5129 115.065 12.5671C115.01 13.6213 114.18 14.509 113.129 14.509Z" fill="currentColor" />
  <path d="M43.84 10.2301C43.84 10.6311 43.8833 10.9562 43.9589 11.1946C44.0453 11.433 44.1533 11.6931 44.3045 11.9749C44.3586 12.0616 44.3802 12.1483 44.3802 12.2242C44.3802 12.3325 44.3154 12.4409 44.1749 12.5493L43.4944 13.0045C43.3971 13.0695 43.2999 13.102 43.2135 13.102C43.1055 13.102 42.9974 13.0478 42.8894 12.9503C42.7382 12.7877 42.6086 12.6143 42.5005 12.4409C42.3925 12.2567 42.2845 12.0508 42.1657 11.8015C41.3231 12.7985 40.2644 13.2971 38.9897 13.2971C38.0823 13.2971 37.3586 13.037 36.8292 12.5168C36.2999 11.9966 36.0298 11.303 36.0298 10.436C36.0298 9.51483 36.3539 8.76706 37.0129 8.20352C37.6718 7.63998 38.5468 7.3582 39.6595 7.3582C40.0268 7.3582 40.4049 7.39072 40.8045 7.4449C41.2042 7.49909 41.6147 7.58579 42.0468 7.68332V6.8922C42.0468 6.06856 41.874 5.49418 41.5391 5.15823C41.1934 4.82227 40.6101 4.65971 39.7783 4.65971C39.4002 4.65971 39.0113 4.70306 38.6116 4.80059C38.2119 4.89813 37.8231 5.01734 37.445 5.16906C37.2721 5.24493 37.1425 5.28827 37.0669 5.30995C36.9913 5.33162 36.9373 5.34246 36.894 5.34246C36.7428 5.34246 36.6672 5.23409 36.6672 5.0065V4.47547C36.6672 4.30208 36.6888 4.17203 36.7428 4.09617C36.7968 4.02031 36.894 3.94445 37.0453 3.86858C37.4234 3.67351 37.8771 3.51095 38.4064 3.3809C38.9357 3.24002 39.4974 3.17499 40.0916 3.17499C41.3771 3.17499 42.3169 3.4676 42.9218 4.05282C43.516 4.63803 43.8184 5.5267 43.8184 6.7188V10.2301H43.84ZM39.4542 11.8774C39.8107 11.8774 40.178 11.8123 40.5669 11.6823C40.9558 11.5523 41.3015 11.3138 41.5931 10.9887C41.766 10.7828 41.8956 10.5552 41.9604 10.2951C42.0252 10.035 42.0684 9.72074 42.0684 9.35227V8.89711C41.7552 8.82124 41.4203 8.75622 41.0746 8.71287C40.7289 8.66952 40.394 8.64785 40.0592 8.64785C39.3354 8.64785 38.8061 8.78873 38.4496 9.08134C38.0931 9.37395 37.9203 9.78577 37.9203 10.3276C37.9203 10.837 38.0499 11.2163 38.32 11.4764C38.5792 11.7473 38.9573 11.8774 39.4542 11.8774ZM48.1286 13.0478C47.9342 13.0478 47.8046 13.0153 47.7181 12.9394C47.6317 12.8744 47.5561 12.7227 47.4913 12.5168L44.9527 4.13952C44.8879 3.92277 44.8555 3.78189 44.8555 3.70602C44.8555 3.53263 44.9419 3.43509 45.1147 3.43509H46.1734C46.3786 3.43509 46.5191 3.4676 46.5947 3.54346C46.6811 3.60849 46.7459 3.76021 46.8107 3.96612L48.6255 11.1404L50.3107 3.96612C50.3647 3.74937 50.4296 3.60849 50.516 3.54346C50.6024 3.47844 50.7536 3.43509 50.9481 3.43509H51.8123C52.0175 3.43509 52.158 3.4676 52.2444 3.54346C52.3308 3.60849 52.4064 3.76021 52.4496 3.96612L54.1564 11.2271L56.0252 3.96612C56.0901 3.74937 56.1657 3.60849 56.2413 3.54346C56.3277 3.47844 56.4681 3.43509 56.6626 3.43509H57.6672C57.8401 3.43509 57.9373 3.52179 57.9373 3.70602C57.9373 3.76021 57.9265 3.8144 57.9157 3.87942C57.9049 3.94445 57.8833 4.03114 57.8401 4.15035L55.2367 12.5276C55.1718 12.7444 55.0962 12.8852 55.0098 12.9503C54.9234 13.0153 54.783 13.0586 54.5993 13.0586H53.6703C53.4651 13.0586 53.3246 13.0261 53.2382 12.9503C53.1518 12.8744 53.0762 12.7335 53.033 12.5168L51.3586 5.5267L49.695 12.5059C49.641 12.7227 49.5762 12.8636 49.4897 12.9394C49.4033 13.0153 49.2521 13.0478 49.0576 13.0478H48.1286ZM62.0098 13.3404C61.4481 13.3404 60.8864 13.2754 60.3462 13.1453C59.8061 13.0153 59.3848 12.8744 59.104 12.7118C58.9311 12.6143 58.8123 12.5059 58.7691 12.4084C58.7259 12.3109 58.7043 12.2025 58.7043 12.105V11.5523C58.7043 11.3247 58.7907 11.2163 58.9527 11.2163C59.0175 11.2163 59.0823 11.2271 59.1472 11.2488C59.212 11.2705 59.3092 11.3138 59.4172 11.3572C59.7845 11.5197 60.1842 11.6498 60.6055 11.7365C61.0376 11.8232 61.4589 11.8665 61.891 11.8665C62.5715 11.8665 63.1009 11.7473 63.4682 11.5089C63.8354 11.2705 64.0299 10.9237 64.0299 10.4794C64.0299 10.1759 63.9327 9.92665 63.7382 9.72074C63.5438 9.51483 63.1765 9.3306 62.6472 9.1572L61.0808 8.66952C60.2922 8.42026 59.7089 8.05179 59.3524 7.56411C58.9959 7.08727 58.8123 6.55624 58.8123 5.9927C58.8123 5.53753 58.9095 5.13655 59.104 4.78976C59.2984 4.44296 59.5577 4.13952 59.8817 3.9011C60.2058 3.65184 60.5731 3.4676 61.0052 3.33755C61.4373 3.20751 61.891 3.15332 62.3663 3.15332C62.604 3.15332 62.8524 3.16416 63.0901 3.19667C63.3385 3.22918 63.5654 3.27253 63.7922 3.31588C64.0083 3.37007 64.2135 3.42425 64.408 3.48928C64.6024 3.5543 64.7536 3.61933 64.8617 3.68435C65.0129 3.77105 65.1209 3.85775 65.1857 3.95528C65.2506 4.04198 65.283 4.16119 65.283 4.31291V4.82227C65.283 5.04985 65.1966 5.16906 65.0345 5.16906C64.9481 5.16906 64.8077 5.12571 64.624 5.03902C64.0083 4.75725 63.3169 4.61636 62.5499 4.61636C61.9342 4.61636 61.4481 4.7139 61.1132 4.91981C60.7783 5.12571 60.6055 5.44 60.6055 5.88433C60.6055 6.18777 60.7135 6.44787 60.9296 6.65378C61.1456 6.85969 61.5453 7.0656 62.1178 7.24983L63.6518 7.73751C64.4296 7.98677 64.9913 8.33356 65.3262 8.77789C65.6611 9.22223 65.8231 9.73158 65.8231 10.2951C65.8231 10.7611 65.7259 11.1838 65.5422 11.5523C65.3478 11.9207 65.0885 12.2458 64.7536 12.5059C64.4188 12.7769 64.0191 12.9719 63.5546 13.1128C63.0685 13.2646 62.5607 13.3404 62.0098 13.3404Z" fill="currentColor" />
  <path fill-rule="evenodd" clip-rule="evenodd" d="M64.0516 18.6076C60.4975 21.2411 55.334 22.6391 50.8941 22.6391C44.6719 22.6391 39.0654 20.3308 34.8308 16.4943C34.496 16.1909 34.7984 15.7791 35.1981 16.0175C39.7784 18.6835 45.4281 20.2982 51.2722 20.2982C55.2151 20.2982 59.5469 19.4746 63.533 17.784C64.1272 17.513 64.6349 18.1741 64.0516 18.6076Z" fill="currentColor" />
  <path fill-rule="evenodd" clip-rule="evenodd" d="M65.5315 16.9169C65.0778 16.3317 62.5284 16.6351 61.3726 16.776C61.0269 16.8193 60.9729 16.5159 61.2862 16.2883C63.317 14.8578 66.655 15.2696 67.0439 15.7464C67.4328 16.2341 66.9359 19.5829 65.0346 21.1868C64.743 21.436 64.4621 21.306 64.5917 20.9809C65.0238 19.908 65.9852 17.4913 65.5315 16.9169Z" fill="currentColor" />
  <path d="M49.9026 52.8252C49.9026 49.7876 52.3651 47.3252 55.4026 47.3252H113.975C117.013 47.3252 119.475 49.7876 119.475 52.8252V79.1407C119.475 82.1782 117.013 84.6407 113.975 84.6407H55.4026C52.3651 84.6407 49.9026 82.1782 49.9026 79.1407V52.8252Z" stroke="currentColor" />
  <line x1="57.7054" y1="57.7683" x2="111.673" y2="57.7683" stroke="currentColor" />
  <path d="M57.7501 66.4001H111.673" stroke="currentColor" />
  <path d="M57.7501 74.6294H92.4369" stroke="currentColor" />
  <path fill-rule="evenodd" clip-rule="evenodd" d="M150.348 46.4074C157.336 46.4074 163 40.7248 163 33.7149C163 26.7051 157.336 21.0225 150.348 21.0225C143.361 21.0225 137.697 26.7051 137.697 33.7149C137.697 40.7248 143.361 46.4074 150.348 46.4074ZM148.924 39.0296V41.0226H151.772V39.0296H148.924ZM147.336 34.8596C148.158 35.851 148.924 36.776 148.924 37.7009H151.772C151.772 36.776 152.539 35.851 153.361 34.8596C154.31 33.7149 155.332 32.4816 155.332 31.0575C155.332 28.4931 153.097 26.4071 150.348 26.4071C147.6 26.4071 145.364 28.4931 145.364 31.0575C145.364 32.4816 146.387 33.7149 147.336 34.8596Z" fill="currentColor" />
  <line x1="45.5893" y1="54.912" x2="27.5829" y2="46.9092" stroke="currentColor" stroke-linecap="round" stroke-dasharray="3 3" />
  <line x1="67.6161" y1="42.0203" x2="53.5827" y2="26.9846" stroke="currentColor" stroke-linecap="round" stroke-dasharray="3 3" />
  <path d="M95.6519 42.5703L101.959 25.7524" stroke="currentColor" stroke-linecap="round" stroke-dasharray="3 3" />
  <path d="M122.352 50.5999L135.636 39.9426" stroke="currentColor" stroke-linecap="round" stroke-dasharray="3 3" />
</svg>
  